M48
; DRILL file {KiCad 7.0.8} date Wed Nov 15 18:30:56 2023
; FORMAT={-:-/ absolute / inch / decimal}
; #@! TF.CreationDate,2023-11-15T18:30:56+02:00
; #@! TF.GenerationSoftware,Kicad,Pcbnew,7.0.8
; #@! TF.FileFunction,Plated,1,4,PTH
FMAT,2
INCH
; #@! TA.AperFunction,Plated,PTH,ViaDrill
T1C0.0157
; #@! TA.AperFunction,Plated,PTH,ComponentDrill
T2C0.0295
; #@! TA.AperFunction,Plated,PTH,ComponentDrill
T3C0.0315
; #@! TA.AperFunction,Plated,PTH,ComponentDrill
T4C0.0394
; #@! TA.AperFunction,Plated,PTH,ComponentDrill
T5C0.0423
; #@! TA.AperFunction,Plated,PTH,ComponentDrill
T6C0.0433
; #@! TA.AperFunction,Plated,PTH,ComponentDrill
T7C0.0470
; #@! TA.AperFunction,Plated,PTH,ComponentDrill
T8C0.0472
; #@! TA.AperFunction,Plated,PTH,ComponentDrill
T9C0.0510
; #@! TA.AperFunction,Plated,PTH,ComponentDrill
T10C0.0591
; #@! TA.AperFunction,Plated,PTH,ComponentDrill
T11C0.0598
; #@! TA.AperFunction,Plated,PTH,ComponentDrill
T12C0.0630
; #@! TA.AperFunction,Plated,PTH,ComponentDrill
T13C0.0787
%
G90
G05
T1
X2.17Y-2.72
X2.17Y-2.77
X2.17Y-2.82
X2.5828Y-4.488
X2.67Y-4.922
X2.75Y-3.9
X2.79Y-4.92
X2.82Y-3.65
X2.82Y-3.75
X2.88Y-4.92
X3.0Y-2.53
X3.02Y-3.18
X3.1Y-3.09
X3.173Y-3.942
X3.215Y-4.003
X3.3Y-4.83
X3.31Y-3.32
X3.37Y-2.85
X3.42Y-4.83
X3.43Y-3.32
X3.53Y-3.58
X3.55Y-2.47
X3.55Y-2.51
X3.69Y-3.3
X3.69Y-3.36
X3.7Y-2.77
X3.7Y-3.58
X3.75Y-3.3
X3.75Y-3.36
X3.92Y-2.77
X3.924Y-2.466
X3.9265Y-2.5166
X4.04Y-3.58
X4.06Y-3.88
X4.09Y-2.84
X4.16Y-4.96
X4.171Y-3.37
X4.18Y-3.0
X4.22Y-3.68
X4.22Y-3.78
X4.271Y-3.37
X4.28Y-4.96
X4.3034Y-2.7831
X4.3038Y-2.6412
X4.3046Y-2.5114
X4.338Y-5.1398
X4.44Y-2.61
X4.8Y-2.7118
X5.005Y-3.2
X5.005Y-3.34
X5.138Y-3.1115
X5.16Y-2.707
X5.2Y-5.16
X5.22Y-4.0
X5.26Y-3.2
X5.26Y-3.34
X5.275Y-3.065
X5.278Y-2.712
X5.3754Y-5.218
X5.395Y-3.065
X5.402Y-2.722
X5.458Y-2.243
X5.4797Y-2.8766
X5.5398Y-2.611
X5.664Y-2.572
X5.664Y-2.698
X5.781Y-2.7252
X5.792Y-2.57
X5.8Y-3.14
X5.848Y-2.504
X5.8798Y-3.2287
X5.92Y-4.46
X5.926Y-2.452
X5.94Y-5.22
X6.06Y-5.22
X6.09Y-3.2
X6.09Y-3.32
X6.09Y-3.43
X6.106Y-2.424
X6.2043Y-5.0952
X6.2484Y-4.5
X6.3096Y-2.3231
X6.3096Y-2.3568
X6.31Y-3.73
X6.3615Y-3.18
X6.3792Y-4.6739
X6.3992Y-4.9139
X6.408Y-2.3231
X6.4109Y-2.3568
X6.4115Y-2.9345
X6.43Y-3.43
X6.43Y-3.63
X6.43Y-3.82
X6.43Y-4.04
X6.43Y-4.24
X6.43Y-5.24
X6.44Y-2.52
X6.44Y-2.78
X6.48Y-3.1
X6.48Y-3.23
X6.49Y-2.9
X6.56Y-4.46
X6.59Y-3.23
X6.5907Y-2.6993
X6.5912Y-2.5892
X6.5922Y-2.6449
X6.6455Y-2.7002
X6.646Y-2.5897
X6.6465Y-2.6449
X6.6592Y-4.6739
X6.66Y-3.51
X6.6792Y-4.9139
X6.68Y-2.52
X6.68Y-2.78
X6.7Y-3.23
X6.7018Y-2.5897
X6.7018Y-2.6445
X6.7018Y-2.6997
X6.75Y-3.58
X6.8Y-3.23
X6.84Y-4.5
X6.85Y-3.58
X6.88Y-3.1951
X6.9Y-2.52
X6.9Y-2.78
X6.91Y-4.3
X6.92Y-2.84
X6.92Y-5.27
X6.94Y-2.88
X6.96Y-2.76
X6.9633Y-2.6733
X6.98Y-2.96
X6.98Y-3.23
X7.04Y-3.56
X7.06Y-3.17
X7.06Y-3.32
X7.08Y-3.49
X7.0821Y-2.3405
X7.1Y-5.24
X7.11Y-3.97
X7.11Y-4.19
X7.18Y-4.69
X7.225Y-4.685
X7.44Y-2.82
X7.45Y-3.24
X7.455Y-3.5545
X7.48Y-3.1
X7.555Y-3.526
X7.58Y-2.9
X7.6472Y-3.3956
X7.7Y-4.45
X7.7769Y-5.5947
X7.8348Y-4.202
X7.8348Y-4.242
X7.8348Y-4.282
X7.936Y-5.568
X7.9517Y-5.302
X7.9717Y-5.402
T2
X6.8413Y-5.3682
X6.92Y-5.3682
X6.9988Y-5.3682
X7.0775Y-5.3682
X7.2994Y-5.3682
X7.3781Y-5.3682
X7.4125Y-4.1124
X7.4125Y-4.1911
X7.4125Y-4.2699
X7.4125Y-4.3486
X7.4125Y-4.4274
X7.4125Y-4.5061
X7.4125Y-4.5849
X7.4125Y-4.6636
X7.4569Y-5.3682
X7.5356Y-5.3682
T3
X6.2059Y-2.32
X6.2059Y-2.42
X6.2059Y-2.52
X6.2059Y-2.62
X6.2059Y-2.72
X6.2059Y-2.82
X6.2059Y-2.92
X6.2059Y-3.02
X6.2059Y-3.12
X6.2059Y-3.22
X6.2059Y-3.32
X6.2059Y-3.42
X6.2059Y-3.52
X6.2059Y-3.62
X6.2059Y-3.72
X6.2059Y-3.82
X6.2059Y-3.92
X6.2059Y-4.02
X6.2059Y-4.12
X7.2057Y-4.0199
X7.2057Y-4.1199
X7.2059Y-2.32
X7.2059Y-2.42
X7.2059Y-2.52
X7.2059Y-2.62
X7.2059Y-2.72
X7.2059Y-2.82
X7.2059Y-2.92
X7.2059Y-3.02
X7.2059Y-3.12
X7.2059Y-3.22
X7.2059Y-3.32
X7.2059Y-3.42
X7.2059Y-3.52
X7.2059Y-3.62
X7.2059Y-3.72
X7.2059Y-3.82
X7.2059Y-3.92
T4
X2.83Y-4.158
X2.83Y-4.258
X2.83Y-4.358
X2.83Y-4.458
X3.5931Y-2.24
X3.5981Y-3.995
X3.9869Y-2.24
X3.9919Y-3.995
X4.46Y-4.0
X4.46Y-4.1
X4.46Y-4.2
X4.46Y-4.3
X5.4965Y-5.4918
X5.5965Y-5.4918
X5.6965Y-5.4918
X5.74Y-3.56
X5.7965Y-5.4918
X5.84Y-3.56
X5.84Y-3.9904
X5.84Y-4.2896
X5.94Y-3.56
X6.04Y-3.56
X7.485Y-2.375
X7.485Y-2.475
X7.485Y-2.575
X7.485Y-2.675
X7.74Y-2.12
X7.74Y-2.22
X7.74Y-2.32
X7.74Y-2.42
X7.74Y-2.52
X7.74Y-2.62
X7.74Y-2.72
X7.74Y-2.82
X7.74Y-2.92
X7.74Y-3.02
X7.7504Y-5.7
X7.84Y-2.12
X7.84Y-2.22
X7.84Y-2.32
X7.84Y-2.42
X7.84Y-2.52
X7.84Y-2.62
X7.84Y-2.72
X7.84Y-2.82
X7.84Y-2.92
X7.84Y-3.02
X7.8504Y-5.7
X7.9504Y-5.7
X8.0504Y-5.7
T5
X3.64Y-4.64
X3.672Y-3.1975
X3.74Y-4.64
X3.772Y-3.1975
X3.84Y-4.64
X3.872Y-3.1975
X3.94Y-4.64
X3.972Y-3.1975
T6
X2.257Y-4.37
X2.257Y-4.77
X2.4Y-4.37
X2.4Y-4.77
X4.213Y-5.284
X4.213Y-5.684
X5.5Y-3.96
X5.5Y-4.36
T7
X2.51Y-3.8376
X2.51Y-3.9768
X2.5796Y-3.9072
X2.6492Y-3.8376
X2.6492Y-3.9768
T8
X3.7231Y-5.34
X3.7231Y-5.6431
X3.92Y-5.34
X3.92Y-5.6431
X4.4625Y-3.1999
X4.4625Y-4.755
X5.1375Y-3.1999
X5.1375Y-4.755
T9
X2.4221Y-3.9072
T10
X2.56Y-2.2357
X2.56Y-2.4326
X2.56Y-2.6294
X2.56Y-2.8263
X2.56Y-3.0231
X2.56Y-3.22
T11
X2.54Y-5.3
X2.54Y-5.5
X4.49Y-5.49
X4.69Y-5.49
X4.89Y-5.49
X5.09Y-5.49
X5.29Y-5.49
X6.02Y-5.455
X6.22Y-5.455
X6.42Y-5.455
X6.62Y-5.455
T12
X2.81Y-5.26
X3.41Y-5.26
T13
G00X2.9105Y-5.54
M15
G01X2.9695Y-5.54
M16
G05
G00X3.2254Y-5.54
M15
G01X3.2845Y-5.54
M16
G05
T0
M30
