%TF.GenerationSoftware,KiCad,Pcbnew,7.0.8*%
%TF.CreationDate,2023-11-15T18:30:51+02:00*%
%TF.ProjectId,CAN_DISPLAY,43414e5f-4449-4535-904c-41592e6b6963,rev?*%
%TF.SameCoordinates,Original*%
%TF.FileFunction,Legend,Bot*%
%TF.FilePolarity,Positive*%
%FSLAX46Y46*%
G04 Gerber Fmt 4.6, Leading zero omitted, Abs format (unit mm)*
G04 Created by KiCad (PCBNEW 7.0.8) date 2023-11-15 18:30:51*
%MOMM*%
%LPD*%
G01*
G04 APERTURE LIST*
%ADD10C,0.600000*%
%ADD11C,0.150000*%
%ADD12C,0.140000*%
%ADD13C,0.508000*%
%ADD14C,0.120000*%
G04 APERTURE END LIST*
D10*
X223748657Y-72813221D02*
X220748657Y-72813221D01*
X220748657Y-72813221D02*
X223748657Y-74527507D01*
X223748657Y-74527507D02*
X220748657Y-74527507D01*
X223748657Y-75956078D02*
X220748657Y-75956078D01*
X220748657Y-75956078D02*
X222891514Y-76956078D01*
X222891514Y-76956078D02*
X220748657Y-77956078D01*
X220748657Y-77956078D02*
X223748657Y-77956078D01*
X222177228Y-79384649D02*
X222177228Y-80384649D01*
X223748657Y-80813221D02*
X223748657Y-79384649D01*
X223748657Y-79384649D02*
X220748657Y-79384649D01*
X220748657Y-79384649D02*
X220748657Y-80813221D01*
X222891514Y-81956078D02*
X222891514Y-83384650D01*
X223748657Y-81670364D02*
X220748657Y-82670364D01*
X220748657Y-82670364D02*
X223748657Y-83670364D01*
X221034371Y-84527507D02*
X220891514Y-84670364D01*
X220891514Y-84670364D02*
X220748657Y-84956079D01*
X220748657Y-84956079D02*
X220748657Y-85670364D01*
X220748657Y-85670364D02*
X220891514Y-85956079D01*
X220891514Y-85956079D02*
X221034371Y-86098936D01*
X221034371Y-86098936D02*
X221320085Y-86241793D01*
X221320085Y-86241793D02*
X221605800Y-86241793D01*
X221605800Y-86241793D02*
X222034371Y-86098936D01*
X222034371Y-86098936D02*
X223748657Y-84384650D01*
X223748657Y-84384650D02*
X223748657Y-86241793D01*
X220748657Y-88098936D02*
X220748657Y-88384650D01*
X220748657Y-88384650D02*
X220891514Y-88670364D01*
X220891514Y-88670364D02*
X221034371Y-88813222D01*
X221034371Y-88813222D02*
X221320085Y-88956079D01*
X221320085Y-88956079D02*
X221891514Y-89098936D01*
X221891514Y-89098936D02*
X222605800Y-89098936D01*
X222605800Y-89098936D02*
X223177228Y-88956079D01*
X223177228Y-88956079D02*
X223462942Y-88813222D01*
X223462942Y-88813222D02*
X223605800Y-88670364D01*
X223605800Y-88670364D02*
X223748657Y-88384650D01*
X223748657Y-88384650D02*
X223748657Y-88098936D01*
X223748657Y-88098936D02*
X223605800Y-87813222D01*
X223605800Y-87813222D02*
X223462942Y-87670364D01*
X223462942Y-87670364D02*
X223177228Y-87527507D01*
X223177228Y-87527507D02*
X222605800Y-87384650D01*
X222605800Y-87384650D02*
X221891514Y-87384650D01*
X221891514Y-87384650D02*
X221320085Y-87527507D01*
X221320085Y-87527507D02*
X221034371Y-87670364D01*
X221034371Y-87670364D02*
X220891514Y-87813222D01*
X220891514Y-87813222D02*
X220748657Y-88098936D01*
X220748657Y-90956079D02*
X220748657Y-91241793D01*
X220748657Y-91241793D02*
X220891514Y-91527507D01*
X220891514Y-91527507D02*
X221034371Y-91670365D01*
X221034371Y-91670365D02*
X221320085Y-91813222D01*
X221320085Y-91813222D02*
X221891514Y-91956079D01*
X221891514Y-91956079D02*
X222605800Y-91956079D01*
X222605800Y-91956079D02*
X223177228Y-91813222D01*
X223177228Y-91813222D02*
X223462942Y-91670365D01*
X223462942Y-91670365D02*
X223605800Y-91527507D01*
X223605800Y-91527507D02*
X223748657Y-91241793D01*
X223748657Y-91241793D02*
X223748657Y-90956079D01*
X223748657Y-90956079D02*
X223605800Y-90670365D01*
X223605800Y-90670365D02*
X223462942Y-90527507D01*
X223462942Y-90527507D02*
X223177228Y-90384650D01*
X223177228Y-90384650D02*
X222605800Y-90241793D01*
X222605800Y-90241793D02*
X221891514Y-90241793D01*
X221891514Y-90241793D02*
X221320085Y-90384650D01*
X221320085Y-90384650D02*
X221034371Y-90527507D01*
X221034371Y-90527507D02*
X220891514Y-90670365D01*
X220891514Y-90670365D02*
X220748657Y-90956079D01*
X220748657Y-93813222D02*
X220748657Y-94098936D01*
X220748657Y-94098936D02*
X220891514Y-94384650D01*
X220891514Y-94384650D02*
X221034371Y-94527508D01*
X221034371Y-94527508D02*
X221320085Y-94670365D01*
X221320085Y-94670365D02*
X221891514Y-94813222D01*
X221891514Y-94813222D02*
X222605800Y-94813222D01*
X222605800Y-94813222D02*
X223177228Y-94670365D01*
X223177228Y-94670365D02*
X223462942Y-94527508D01*
X223462942Y-94527508D02*
X223605800Y-94384650D01*
X223605800Y-94384650D02*
X223748657Y-94098936D01*
X223748657Y-94098936D02*
X223748657Y-93813222D01*
X223748657Y-93813222D02*
X223605800Y-93527508D01*
X223605800Y-93527508D02*
X223462942Y-93384650D01*
X223462942Y-93384650D02*
X223177228Y-93241793D01*
X223177228Y-93241793D02*
X222605800Y-93098936D01*
X222605800Y-93098936D02*
X221891514Y-93098936D01*
X221891514Y-93098936D02*
X221320085Y-93241793D01*
X221320085Y-93241793D02*
X221034371Y-93384650D01*
X221034371Y-93384650D02*
X220891514Y-93527508D01*
X220891514Y-93527508D02*
X220748657Y-93813222D01*
X220605800Y-100527507D02*
X224462942Y-97956079D01*
X223748657Y-103813221D02*
X220748657Y-103813221D01*
X220748657Y-103813221D02*
X223748657Y-105527507D01*
X223748657Y-105527507D02*
X220748657Y-105527507D01*
X223748657Y-106956078D02*
X220748657Y-106956078D01*
X220748657Y-106956078D02*
X222891514Y-107956078D01*
X222891514Y-107956078D02*
X220748657Y-108956078D01*
X220748657Y-108956078D02*
X223748657Y-108956078D01*
X222177228Y-110384649D02*
X222177228Y-111384649D01*
X223748657Y-111813221D02*
X223748657Y-110384649D01*
X223748657Y-110384649D02*
X220748657Y-110384649D01*
X220748657Y-110384649D02*
X220748657Y-111813221D01*
X222891514Y-112956078D02*
X222891514Y-114384650D01*
X223748657Y-112670364D02*
X220748657Y-113670364D01*
X220748657Y-113670364D02*
X223748657Y-114670364D01*
X220748657Y-116241793D02*
X220748657Y-116527507D01*
X220748657Y-116527507D02*
X220891514Y-116813221D01*
X220891514Y-116813221D02*
X221034371Y-116956079D01*
X221034371Y-116956079D02*
X221320085Y-117098936D01*
X221320085Y-117098936D02*
X221891514Y-117241793D01*
X221891514Y-117241793D02*
X222605800Y-117241793D01*
X222605800Y-117241793D02*
X223177228Y-117098936D01*
X223177228Y-117098936D02*
X223462942Y-116956079D01*
X223462942Y-116956079D02*
X223605800Y-116813221D01*
X223605800Y-116813221D02*
X223748657Y-116527507D01*
X223748657Y-116527507D02*
X223748657Y-116241793D01*
X223748657Y-116241793D02*
X223605800Y-115956079D01*
X223605800Y-115956079D02*
X223462942Y-115813221D01*
X223462942Y-115813221D02*
X223177228Y-115670364D01*
X223177228Y-115670364D02*
X222605800Y-115527507D01*
X222605800Y-115527507D02*
X221891514Y-115527507D01*
X221891514Y-115527507D02*
X221320085Y-115670364D01*
X221320085Y-115670364D02*
X221034371Y-115813221D01*
X221034371Y-115813221D02*
X220891514Y-115956079D01*
X220891514Y-115956079D02*
X220748657Y-116241793D01*
X223748657Y-120098936D02*
X223748657Y-118384650D01*
X223748657Y-119241793D02*
X220748657Y-119241793D01*
X220748657Y-119241793D02*
X221177228Y-118956079D01*
X221177228Y-118956079D02*
X221462942Y-118670364D01*
X221462942Y-118670364D02*
X221605800Y-118384650D01*
X222034371Y-121813222D02*
X221891514Y-121527507D01*
X221891514Y-121527507D02*
X221748657Y-121384650D01*
X221748657Y-121384650D02*
X221462942Y-121241793D01*
X221462942Y-121241793D02*
X221320085Y-121241793D01*
X221320085Y-121241793D02*
X221034371Y-121384650D01*
X221034371Y-121384650D02*
X220891514Y-121527507D01*
X220891514Y-121527507D02*
X220748657Y-121813222D01*
X220748657Y-121813222D02*
X220748657Y-122384650D01*
X220748657Y-122384650D02*
X220891514Y-122670365D01*
X220891514Y-122670365D02*
X221034371Y-122813222D01*
X221034371Y-122813222D02*
X221320085Y-122956079D01*
X221320085Y-122956079D02*
X221462942Y-122956079D01*
X221462942Y-122956079D02*
X221748657Y-122813222D01*
X221748657Y-122813222D02*
X221891514Y-122670365D01*
X221891514Y-122670365D02*
X222034371Y-122384650D01*
X222034371Y-122384650D02*
X222034371Y-121813222D01*
X222034371Y-121813222D02*
X222177228Y-121527507D01*
X222177228Y-121527507D02*
X222320085Y-121384650D01*
X222320085Y-121384650D02*
X222605800Y-121241793D01*
X222605800Y-121241793D02*
X223177228Y-121241793D01*
X223177228Y-121241793D02*
X223462942Y-121384650D01*
X223462942Y-121384650D02*
X223605800Y-121527507D01*
X223605800Y-121527507D02*
X223748657Y-121813222D01*
X223748657Y-121813222D02*
X223748657Y-122384650D01*
X223748657Y-122384650D02*
X223605800Y-122670365D01*
X223605800Y-122670365D02*
X223462942Y-122813222D01*
X223462942Y-122813222D02*
X223177228Y-122956079D01*
X223177228Y-122956079D02*
X222605800Y-122956079D01*
X222605800Y-122956079D02*
X222320085Y-122813222D01*
X222320085Y-122813222D02*
X222177228Y-122670365D01*
X222177228Y-122670365D02*
X222034371Y-122384650D01*
X220748657Y-123956079D02*
X220748657Y-125813222D01*
X220748657Y-125813222D02*
X221891514Y-124813222D01*
X221891514Y-124813222D02*
X221891514Y-125241793D01*
X221891514Y-125241793D02*
X222034371Y-125527508D01*
X222034371Y-125527508D02*
X222177228Y-125670365D01*
X222177228Y-125670365D02*
X222462942Y-125813222D01*
X222462942Y-125813222D02*
X223177228Y-125813222D01*
X223177228Y-125813222D02*
X223462942Y-125670365D01*
X223462942Y-125670365D02*
X223605800Y-125527508D01*
X223605800Y-125527508D02*
X223748657Y-125241793D01*
X223748657Y-125241793D02*
X223748657Y-124384650D01*
X223748657Y-124384650D02*
X223605800Y-124098936D01*
X223605800Y-124098936D02*
X223462942Y-123956079D01*
X223748657Y-129384650D02*
X220748657Y-129384650D01*
X220748657Y-129384650D02*
X220748657Y-130098936D01*
X220748657Y-130098936D02*
X220891514Y-130527507D01*
X220891514Y-130527507D02*
X221177228Y-130813222D01*
X221177228Y-130813222D02*
X221462942Y-130956079D01*
X221462942Y-130956079D02*
X222034371Y-131098936D01*
X222034371Y-131098936D02*
X222462942Y-131098936D01*
X222462942Y-131098936D02*
X223034371Y-130956079D01*
X223034371Y-130956079D02*
X223320085Y-130813222D01*
X223320085Y-130813222D02*
X223605800Y-130527507D01*
X223605800Y-130527507D02*
X223748657Y-130098936D01*
X223748657Y-130098936D02*
X223748657Y-129384650D01*
X223748657Y-132384650D02*
X221748657Y-132384650D01*
X220748657Y-132384650D02*
X220891514Y-132241793D01*
X220891514Y-132241793D02*
X221034371Y-132384650D01*
X221034371Y-132384650D02*
X220891514Y-132527507D01*
X220891514Y-132527507D02*
X220748657Y-132384650D01*
X220748657Y-132384650D02*
X221034371Y-132384650D01*
X223605800Y-133670364D02*
X223748657Y-133956078D01*
X223748657Y-133956078D02*
X223748657Y-134527507D01*
X223748657Y-134527507D02*
X223605800Y-134813221D01*
X223605800Y-134813221D02*
X223320085Y-134956078D01*
X223320085Y-134956078D02*
X223177228Y-134956078D01*
X223177228Y-134956078D02*
X222891514Y-134813221D01*
X222891514Y-134813221D02*
X222748657Y-134527507D01*
X222748657Y-134527507D02*
X222748657Y-134098936D01*
X222748657Y-134098936D02*
X222605800Y-133813221D01*
X222605800Y-133813221D02*
X222320085Y-133670364D01*
X222320085Y-133670364D02*
X222177228Y-133670364D01*
X222177228Y-133670364D02*
X221891514Y-133813221D01*
X221891514Y-133813221D02*
X221748657Y-134098936D01*
X221748657Y-134098936D02*
X221748657Y-134527507D01*
X221748657Y-134527507D02*
X221891514Y-134813221D01*
X221748657Y-136241792D02*
X224748657Y-136241792D01*
X221891514Y-136241792D02*
X221748657Y-136527507D01*
X221748657Y-136527507D02*
X221748657Y-137098935D01*
X221748657Y-137098935D02*
X221891514Y-137384649D01*
X221891514Y-137384649D02*
X222034371Y-137527507D01*
X222034371Y-137527507D02*
X222320085Y-137670364D01*
X222320085Y-137670364D02*
X223177228Y-137670364D01*
X223177228Y-137670364D02*
X223462942Y-137527507D01*
X223462942Y-137527507D02*
X223605800Y-137384649D01*
X223605800Y-137384649D02*
X223748657Y-137098935D01*
X223748657Y-137098935D02*
X223748657Y-136527507D01*
X223748657Y-136527507D02*
X223605800Y-136241792D01*
X223748657Y-139384650D02*
X223605800Y-139098935D01*
X223605800Y-139098935D02*
X223320085Y-138956078D01*
X223320085Y-138956078D02*
X220748657Y-138956078D01*
X223748657Y-141813222D02*
X222177228Y-141813222D01*
X222177228Y-141813222D02*
X221891514Y-141670364D01*
X221891514Y-141670364D02*
X221748657Y-141384650D01*
X221748657Y-141384650D02*
X221748657Y-140813222D01*
X221748657Y-140813222D02*
X221891514Y-140527507D01*
X223605800Y-141813222D02*
X223748657Y-141527507D01*
X223748657Y-141527507D02*
X223748657Y-140813222D01*
X223748657Y-140813222D02*
X223605800Y-140527507D01*
X223605800Y-140527507D02*
X223320085Y-140384650D01*
X223320085Y-140384650D02*
X223034371Y-140384650D01*
X223034371Y-140384650D02*
X222748657Y-140527507D01*
X222748657Y-140527507D02*
X222605800Y-140813222D01*
X222605800Y-140813222D02*
X222605800Y-141527507D01*
X222605800Y-141527507D02*
X222462942Y-141813222D01*
X221748657Y-142956079D02*
X223748657Y-143670365D01*
X221748657Y-144384650D02*
X223748657Y-143670365D01*
X223748657Y-143670365D02*
X224462942Y-143384650D01*
X224462942Y-143384650D02*
X224605800Y-143241793D01*
X224605800Y-143241793D02*
X224748657Y-142956079D01*
X225578657Y-72384650D02*
X228578657Y-73384650D01*
X228578657Y-73384650D02*
X225578657Y-74384650D01*
X228435800Y-76527507D02*
X228578657Y-76241793D01*
X228578657Y-76241793D02*
X228578657Y-75670365D01*
X228578657Y-75670365D02*
X228435800Y-75384650D01*
X228435800Y-75384650D02*
X228150085Y-75241793D01*
X228150085Y-75241793D02*
X227007228Y-75241793D01*
X227007228Y-75241793D02*
X226721514Y-75384650D01*
X226721514Y-75384650D02*
X226578657Y-75670365D01*
X226578657Y-75670365D02*
X226578657Y-76241793D01*
X226578657Y-76241793D02*
X226721514Y-76527507D01*
X226721514Y-76527507D02*
X227007228Y-76670365D01*
X227007228Y-76670365D02*
X227292942Y-76670365D01*
X227292942Y-76670365D02*
X227578657Y-75241793D01*
X228578657Y-77956079D02*
X226578657Y-77956079D01*
X227150085Y-77956079D02*
X226864371Y-78098936D01*
X226864371Y-78098936D02*
X226721514Y-78241794D01*
X226721514Y-78241794D02*
X226578657Y-78527508D01*
X226578657Y-78527508D02*
X226578657Y-78813222D01*
X228435800Y-79670365D02*
X228578657Y-79956079D01*
X228578657Y-79956079D02*
X228578657Y-80527508D01*
X228578657Y-80527508D02*
X228435800Y-80813222D01*
X228435800Y-80813222D02*
X228150085Y-80956079D01*
X228150085Y-80956079D02*
X228007228Y-80956079D01*
X228007228Y-80956079D02*
X227721514Y-80813222D01*
X227721514Y-80813222D02*
X227578657Y-80527508D01*
X227578657Y-80527508D02*
X227578657Y-80098937D01*
X227578657Y-80098937D02*
X227435800Y-79813222D01*
X227435800Y-79813222D02*
X227150085Y-79670365D01*
X227150085Y-79670365D02*
X227007228Y-79670365D01*
X227007228Y-79670365D02*
X226721514Y-79813222D01*
X226721514Y-79813222D02*
X226578657Y-80098937D01*
X226578657Y-80098937D02*
X226578657Y-80527508D01*
X226578657Y-80527508D02*
X226721514Y-80813222D01*
X228578657Y-82241793D02*
X226578657Y-82241793D01*
X225578657Y-82241793D02*
X225721514Y-82098936D01*
X225721514Y-82098936D02*
X225864371Y-82241793D01*
X225864371Y-82241793D02*
X225721514Y-82384650D01*
X225721514Y-82384650D02*
X225578657Y-82241793D01*
X225578657Y-82241793D02*
X225864371Y-82241793D01*
X228578657Y-84098936D02*
X228435800Y-83813221D01*
X228435800Y-83813221D02*
X228292942Y-83670364D01*
X228292942Y-83670364D02*
X228007228Y-83527507D01*
X228007228Y-83527507D02*
X227150085Y-83527507D01*
X227150085Y-83527507D02*
X226864371Y-83670364D01*
X226864371Y-83670364D02*
X226721514Y-83813221D01*
X226721514Y-83813221D02*
X226578657Y-84098936D01*
X226578657Y-84098936D02*
X226578657Y-84527507D01*
X226578657Y-84527507D02*
X226721514Y-84813221D01*
X226721514Y-84813221D02*
X226864371Y-84956079D01*
X226864371Y-84956079D02*
X227150085Y-85098936D01*
X227150085Y-85098936D02*
X228007228Y-85098936D01*
X228007228Y-85098936D02*
X228292942Y-84956079D01*
X228292942Y-84956079D02*
X228435800Y-84813221D01*
X228435800Y-84813221D02*
X228578657Y-84527507D01*
X228578657Y-84527507D02*
X228578657Y-84098936D01*
X226578657Y-86384650D02*
X228578657Y-86384650D01*
X226864371Y-86384650D02*
X226721514Y-86527507D01*
X226721514Y-86527507D02*
X226578657Y-86813222D01*
X226578657Y-86813222D02*
X226578657Y-87241793D01*
X226578657Y-87241793D02*
X226721514Y-87527507D01*
X226721514Y-87527507D02*
X227007228Y-87670365D01*
X227007228Y-87670365D02*
X228578657Y-87670365D01*
X228578657Y-92956079D02*
X228578657Y-91241793D01*
X228578657Y-92098936D02*
X225578657Y-92098936D01*
X225578657Y-92098936D02*
X226007228Y-91813222D01*
X226007228Y-91813222D02*
X226292942Y-91527507D01*
X226292942Y-91527507D02*
X226435800Y-91241793D01*
X228292942Y-94241793D02*
X228435800Y-94384650D01*
X228435800Y-94384650D02*
X228578657Y-94241793D01*
X228578657Y-94241793D02*
X228435800Y-94098936D01*
X228435800Y-94098936D02*
X228292942Y-94241793D01*
X228292942Y-94241793D02*
X228578657Y-94241793D01*
X225578657Y-96241793D02*
X225578657Y-96527507D01*
X225578657Y-96527507D02*
X225721514Y-96813221D01*
X225721514Y-96813221D02*
X225864371Y-96956079D01*
X225864371Y-96956079D02*
X226150085Y-97098936D01*
X226150085Y-97098936D02*
X226721514Y-97241793D01*
X226721514Y-97241793D02*
X227435800Y-97241793D01*
X227435800Y-97241793D02*
X228007228Y-97098936D01*
X228007228Y-97098936D02*
X228292942Y-96956079D01*
X228292942Y-96956079D02*
X228435800Y-96813221D01*
X228435800Y-96813221D02*
X228578657Y-96527507D01*
X228578657Y-96527507D02*
X228578657Y-96241793D01*
X228578657Y-96241793D02*
X228435800Y-95956079D01*
X228435800Y-95956079D02*
X228292942Y-95813221D01*
X228292942Y-95813221D02*
X228007228Y-95670364D01*
X228007228Y-95670364D02*
X227435800Y-95527507D01*
X227435800Y-95527507D02*
X226721514Y-95527507D01*
X226721514Y-95527507D02*
X226150085Y-95670364D01*
X226150085Y-95670364D02*
X225864371Y-95813221D01*
X225864371Y-95813221D02*
X225721514Y-95956079D01*
X225721514Y-95956079D02*
X225578657Y-96241793D01*
X225578657Y-99098936D02*
X225578657Y-99384650D01*
X225578657Y-99384650D02*
X225721514Y-99670364D01*
X225721514Y-99670364D02*
X225864371Y-99813222D01*
X225864371Y-99813222D02*
X226150085Y-99956079D01*
X226150085Y-99956079D02*
X226721514Y-100098936D01*
X226721514Y-100098936D02*
X227435800Y-100098936D01*
X227435800Y-100098936D02*
X228007228Y-99956079D01*
X228007228Y-99956079D02*
X228292942Y-99813222D01*
X228292942Y-99813222D02*
X228435800Y-99670364D01*
X228435800Y-99670364D02*
X228578657Y-99384650D01*
X228578657Y-99384650D02*
X228578657Y-99098936D01*
X228578657Y-99098936D02*
X228435800Y-98813222D01*
X228435800Y-98813222D02*
X228292942Y-98670364D01*
X228292942Y-98670364D02*
X228007228Y-98527507D01*
X228007228Y-98527507D02*
X227435800Y-98384650D01*
X227435800Y-98384650D02*
X226721514Y-98384650D01*
X226721514Y-98384650D02*
X226150085Y-98527507D01*
X226150085Y-98527507D02*
X225864371Y-98670364D01*
X225864371Y-98670364D02*
X225721514Y-98813222D01*
X225721514Y-98813222D02*
X225578657Y-99098936D01*
X233408657Y-74527507D02*
X231980085Y-73527507D01*
X233408657Y-72813221D02*
X230408657Y-72813221D01*
X230408657Y-72813221D02*
X230408657Y-73956078D01*
X230408657Y-73956078D02*
X230551514Y-74241793D01*
X230551514Y-74241793D02*
X230694371Y-74384650D01*
X230694371Y-74384650D02*
X230980085Y-74527507D01*
X230980085Y-74527507D02*
X231408657Y-74527507D01*
X231408657Y-74527507D02*
X231694371Y-74384650D01*
X231694371Y-74384650D02*
X231837228Y-74241793D01*
X231837228Y-74241793D02*
X231980085Y-73956078D01*
X231980085Y-73956078D02*
X231980085Y-72813221D01*
X233265800Y-76956078D02*
X233408657Y-76670364D01*
X233408657Y-76670364D02*
X233408657Y-76098936D01*
X233408657Y-76098936D02*
X233265800Y-75813221D01*
X233265800Y-75813221D02*
X232980085Y-75670364D01*
X232980085Y-75670364D02*
X231837228Y-75670364D01*
X231837228Y-75670364D02*
X231551514Y-75813221D01*
X231551514Y-75813221D02*
X231408657Y-76098936D01*
X231408657Y-76098936D02*
X231408657Y-76670364D01*
X231408657Y-76670364D02*
X231551514Y-76956078D01*
X231551514Y-76956078D02*
X231837228Y-77098936D01*
X231837228Y-77098936D02*
X232122942Y-77098936D01*
X232122942Y-77098936D02*
X232408657Y-75670364D01*
X231408657Y-78098936D02*
X233408657Y-78813222D01*
X233408657Y-78813222D02*
X231408657Y-79527507D01*
X233408657Y-80670364D02*
X231408657Y-80670364D01*
X230408657Y-80670364D02*
X230551514Y-80527507D01*
X230551514Y-80527507D02*
X230694371Y-80670364D01*
X230694371Y-80670364D02*
X230551514Y-80813221D01*
X230551514Y-80813221D02*
X230408657Y-80670364D01*
X230408657Y-80670364D02*
X230694371Y-80670364D01*
X233265800Y-81956078D02*
X233408657Y-82241792D01*
X233408657Y-82241792D02*
X233408657Y-82813221D01*
X233408657Y-82813221D02*
X233265800Y-83098935D01*
X233265800Y-83098935D02*
X232980085Y-83241792D01*
X232980085Y-83241792D02*
X232837228Y-83241792D01*
X232837228Y-83241792D02*
X232551514Y-83098935D01*
X232551514Y-83098935D02*
X232408657Y-82813221D01*
X232408657Y-82813221D02*
X232408657Y-82384650D01*
X232408657Y-82384650D02*
X232265800Y-82098935D01*
X232265800Y-82098935D02*
X231980085Y-81956078D01*
X231980085Y-81956078D02*
X231837228Y-81956078D01*
X231837228Y-81956078D02*
X231551514Y-82098935D01*
X231551514Y-82098935D02*
X231408657Y-82384650D01*
X231408657Y-82384650D02*
X231408657Y-82813221D01*
X231408657Y-82813221D02*
X231551514Y-83098935D01*
X233408657Y-84527506D02*
X231408657Y-84527506D01*
X230408657Y-84527506D02*
X230551514Y-84384649D01*
X230551514Y-84384649D02*
X230694371Y-84527506D01*
X230694371Y-84527506D02*
X230551514Y-84670363D01*
X230551514Y-84670363D02*
X230408657Y-84527506D01*
X230408657Y-84527506D02*
X230694371Y-84527506D01*
X233408657Y-86384649D02*
X233265800Y-86098934D01*
X233265800Y-86098934D02*
X233122942Y-85956077D01*
X233122942Y-85956077D02*
X232837228Y-85813220D01*
X232837228Y-85813220D02*
X231980085Y-85813220D01*
X231980085Y-85813220D02*
X231694371Y-85956077D01*
X231694371Y-85956077D02*
X231551514Y-86098934D01*
X231551514Y-86098934D02*
X231408657Y-86384649D01*
X231408657Y-86384649D02*
X231408657Y-86813220D01*
X231408657Y-86813220D02*
X231551514Y-87098934D01*
X231551514Y-87098934D02*
X231694371Y-87241792D01*
X231694371Y-87241792D02*
X231980085Y-87384649D01*
X231980085Y-87384649D02*
X232837228Y-87384649D01*
X232837228Y-87384649D02*
X233122942Y-87241792D01*
X233122942Y-87241792D02*
X233265800Y-87098934D01*
X233265800Y-87098934D02*
X233408657Y-86813220D01*
X233408657Y-86813220D02*
X233408657Y-86384649D01*
X231408657Y-88670363D02*
X233408657Y-88670363D01*
X231694371Y-88670363D02*
X231551514Y-88813220D01*
X231551514Y-88813220D02*
X231408657Y-89098935D01*
X231408657Y-89098935D02*
X231408657Y-89527506D01*
X231408657Y-89527506D02*
X231551514Y-89813220D01*
X231551514Y-89813220D02*
X231837228Y-89956078D01*
X231837228Y-89956078D02*
X233408657Y-89956078D01*
X233408657Y-95241792D02*
X233408657Y-93527506D01*
X233408657Y-94384649D02*
X230408657Y-94384649D01*
X230408657Y-94384649D02*
X230837228Y-94098935D01*
X230837228Y-94098935D02*
X231122942Y-93813220D01*
X231122942Y-93813220D02*
X231265800Y-93527506D01*
X233122942Y-96527506D02*
X233265800Y-96670363D01*
X233265800Y-96670363D02*
X233408657Y-96527506D01*
X233408657Y-96527506D02*
X233265800Y-96384649D01*
X233265800Y-96384649D02*
X233122942Y-96527506D01*
X233122942Y-96527506D02*
X233408657Y-96527506D01*
X230408657Y-98527506D02*
X230408657Y-98813220D01*
X230408657Y-98813220D02*
X230551514Y-99098934D01*
X230551514Y-99098934D02*
X230694371Y-99241792D01*
X230694371Y-99241792D02*
X230980085Y-99384649D01*
X230980085Y-99384649D02*
X231551514Y-99527506D01*
X231551514Y-99527506D02*
X232265800Y-99527506D01*
X232265800Y-99527506D02*
X232837228Y-99384649D01*
X232837228Y-99384649D02*
X233122942Y-99241792D01*
X233122942Y-99241792D02*
X233265800Y-99098934D01*
X233265800Y-99098934D02*
X233408657Y-98813220D01*
X233408657Y-98813220D02*
X233408657Y-98527506D01*
X233408657Y-98527506D02*
X233265800Y-98241792D01*
X233265800Y-98241792D02*
X233122942Y-98098934D01*
X233122942Y-98098934D02*
X232837228Y-97956077D01*
X232837228Y-97956077D02*
X232265800Y-97813220D01*
X232265800Y-97813220D02*
X231551514Y-97813220D01*
X231551514Y-97813220D02*
X230980085Y-97956077D01*
X230980085Y-97956077D02*
X230694371Y-98098934D01*
X230694371Y-98098934D02*
X230551514Y-98241792D01*
X230551514Y-98241792D02*
X230408657Y-98527506D01*
X230408657Y-101384649D02*
X230408657Y-101670363D01*
X230408657Y-101670363D02*
X230551514Y-101956077D01*
X230551514Y-101956077D02*
X230694371Y-102098935D01*
X230694371Y-102098935D02*
X230980085Y-102241792D01*
X230980085Y-102241792D02*
X231551514Y-102384649D01*
X231551514Y-102384649D02*
X232265800Y-102384649D01*
X232265800Y-102384649D02*
X232837228Y-102241792D01*
X232837228Y-102241792D02*
X233122942Y-102098935D01*
X233122942Y-102098935D02*
X233265800Y-101956077D01*
X233265800Y-101956077D02*
X233408657Y-101670363D01*
X233408657Y-101670363D02*
X233408657Y-101384649D01*
X233408657Y-101384649D02*
X233265800Y-101098935D01*
X233265800Y-101098935D02*
X233122942Y-100956077D01*
X233122942Y-100956077D02*
X232837228Y-100813220D01*
X232837228Y-100813220D02*
X232265800Y-100670363D01*
X232265800Y-100670363D02*
X231551514Y-100670363D01*
X231551514Y-100670363D02*
X230980085Y-100813220D01*
X230980085Y-100813220D02*
X230694371Y-100956077D01*
X230694371Y-100956077D02*
X230551514Y-101098935D01*
X230551514Y-101098935D02*
X230408657Y-101384649D01*
D11*
X181269717Y-78897395D02*
X181336384Y-78864062D01*
X181336384Y-78864062D02*
X181436384Y-78864062D01*
X181436384Y-78864062D02*
X181536384Y-78897395D01*
X181536384Y-78897395D02*
X181603051Y-78964062D01*
X181603051Y-78964062D02*
X181636384Y-79030729D01*
X181636384Y-79030729D02*
X181669717Y-79164062D01*
X181669717Y-79164062D02*
X181669717Y-79264062D01*
X181669717Y-79264062D02*
X181636384Y-79397395D01*
X181636384Y-79397395D02*
X181603051Y-79464062D01*
X181603051Y-79464062D02*
X181536384Y-79530729D01*
X181536384Y-79530729D02*
X181436384Y-79564062D01*
X181436384Y-79564062D02*
X181369717Y-79564062D01*
X181369717Y-79564062D02*
X181269717Y-79530729D01*
X181269717Y-79530729D02*
X181236384Y-79497395D01*
X181236384Y-79497395D02*
X181236384Y-79264062D01*
X181236384Y-79264062D02*
X181369717Y-79264062D01*
X180936384Y-79564062D02*
X180936384Y-78864062D01*
X180936384Y-78864062D02*
X180669717Y-78864062D01*
X180669717Y-78864062D02*
X180603051Y-78897395D01*
X180603051Y-78897395D02*
X180569717Y-78930729D01*
X180569717Y-78930729D02*
X180536384Y-78997395D01*
X180536384Y-78997395D02*
X180536384Y-79097395D01*
X180536384Y-79097395D02*
X180569717Y-79164062D01*
X180569717Y-79164062D02*
X180603051Y-79197395D01*
X180603051Y-79197395D02*
X180669717Y-79230729D01*
X180669717Y-79230729D02*
X180936384Y-79230729D01*
X180236384Y-79564062D02*
X180236384Y-78864062D01*
X179769718Y-78864062D02*
X179636384Y-78864062D01*
X179636384Y-78864062D02*
X179569718Y-78897395D01*
X179569718Y-78897395D02*
X179503051Y-78964062D01*
X179503051Y-78964062D02*
X179469718Y-79097395D01*
X179469718Y-79097395D02*
X179469718Y-79330729D01*
X179469718Y-79330729D02*
X179503051Y-79464062D01*
X179503051Y-79464062D02*
X179569718Y-79530729D01*
X179569718Y-79530729D02*
X179636384Y-79564062D01*
X179636384Y-79564062D02*
X179769718Y-79564062D01*
X179769718Y-79564062D02*
X179836384Y-79530729D01*
X179836384Y-79530729D02*
X179903051Y-79464062D01*
X179903051Y-79464062D02*
X179936384Y-79330729D01*
X179936384Y-79330729D02*
X179936384Y-79097395D01*
X179936384Y-79097395D02*
X179903051Y-78964062D01*
X179903051Y-78964062D02*
X179836384Y-78897395D01*
X179836384Y-78897395D02*
X179769718Y-78864062D01*
X178803051Y-79564062D02*
X179203051Y-79564062D01*
X179003051Y-79564062D02*
X179003051Y-78864062D01*
X179003051Y-78864062D02*
X179069718Y-78964062D01*
X179069718Y-78964062D02*
X179136385Y-79030729D01*
X179136385Y-79030729D02*
X179203051Y-79064062D01*
X178403051Y-79164062D02*
X178469718Y-79130729D01*
X178469718Y-79130729D02*
X178503051Y-79097395D01*
X178503051Y-79097395D02*
X178536384Y-79030729D01*
X178536384Y-79030729D02*
X178536384Y-78997395D01*
X178536384Y-78997395D02*
X178503051Y-78930729D01*
X178503051Y-78930729D02*
X178469718Y-78897395D01*
X178469718Y-78897395D02*
X178403051Y-78864062D01*
X178403051Y-78864062D02*
X178269718Y-78864062D01*
X178269718Y-78864062D02*
X178203051Y-78897395D01*
X178203051Y-78897395D02*
X178169718Y-78930729D01*
X178169718Y-78930729D02*
X178136384Y-78997395D01*
X178136384Y-78997395D02*
X178136384Y-79030729D01*
X178136384Y-79030729D02*
X178169718Y-79097395D01*
X178169718Y-79097395D02*
X178203051Y-79130729D01*
X178203051Y-79130729D02*
X178269718Y-79164062D01*
X178269718Y-79164062D02*
X178403051Y-79164062D01*
X178403051Y-79164062D02*
X178469718Y-79197395D01*
X178469718Y-79197395D02*
X178503051Y-79230729D01*
X178503051Y-79230729D02*
X178536384Y-79297395D01*
X178536384Y-79297395D02*
X178536384Y-79430729D01*
X178536384Y-79430729D02*
X178503051Y-79497395D01*
X178503051Y-79497395D02*
X178469718Y-79530729D01*
X178469718Y-79530729D02*
X178403051Y-79564062D01*
X178403051Y-79564062D02*
X178269718Y-79564062D01*
X178269718Y-79564062D02*
X178203051Y-79530729D01*
X178203051Y-79530729D02*
X178169718Y-79497395D01*
X178169718Y-79497395D02*
X178136384Y-79430729D01*
X178136384Y-79430729D02*
X178136384Y-79297395D01*
X178136384Y-79297395D02*
X178169718Y-79230729D01*
X178169718Y-79230729D02*
X178203051Y-79197395D01*
X178203051Y-79197395D02*
X178269718Y-79164062D01*
X162436016Y-76357395D02*
X162502683Y-76324062D01*
X162502683Y-76324062D02*
X162602683Y-76324062D01*
X162602683Y-76324062D02*
X162702683Y-76357395D01*
X162702683Y-76357395D02*
X162769350Y-76424062D01*
X162769350Y-76424062D02*
X162802683Y-76490729D01*
X162802683Y-76490729D02*
X162836016Y-76624062D01*
X162836016Y-76624062D02*
X162836016Y-76724062D01*
X162836016Y-76724062D02*
X162802683Y-76857395D01*
X162802683Y-76857395D02*
X162769350Y-76924062D01*
X162769350Y-76924062D02*
X162702683Y-76990729D01*
X162702683Y-76990729D02*
X162602683Y-77024062D01*
X162602683Y-77024062D02*
X162536016Y-77024062D01*
X162536016Y-77024062D02*
X162436016Y-76990729D01*
X162436016Y-76990729D02*
X162402683Y-76957395D01*
X162402683Y-76957395D02*
X162402683Y-76724062D01*
X162402683Y-76724062D02*
X162536016Y-76724062D01*
X162102683Y-77024062D02*
X162102683Y-76324062D01*
X162102683Y-76324062D02*
X161836016Y-76324062D01*
X161836016Y-76324062D02*
X161769350Y-76357395D01*
X161769350Y-76357395D02*
X161736016Y-76390729D01*
X161736016Y-76390729D02*
X161702683Y-76457395D01*
X161702683Y-76457395D02*
X161702683Y-76557395D01*
X161702683Y-76557395D02*
X161736016Y-76624062D01*
X161736016Y-76624062D02*
X161769350Y-76657395D01*
X161769350Y-76657395D02*
X161836016Y-76690729D01*
X161836016Y-76690729D02*
X162102683Y-76690729D01*
X161402683Y-77024062D02*
X161402683Y-76324062D01*
X160936017Y-76324062D02*
X160802683Y-76324062D01*
X160802683Y-76324062D02*
X160736017Y-76357395D01*
X160736017Y-76357395D02*
X160669350Y-76424062D01*
X160669350Y-76424062D02*
X160636017Y-76557395D01*
X160636017Y-76557395D02*
X160636017Y-76790729D01*
X160636017Y-76790729D02*
X160669350Y-76924062D01*
X160669350Y-76924062D02*
X160736017Y-76990729D01*
X160736017Y-76990729D02*
X160802683Y-77024062D01*
X160802683Y-77024062D02*
X160936017Y-77024062D01*
X160936017Y-77024062D02*
X161002683Y-76990729D01*
X161002683Y-76990729D02*
X161069350Y-76924062D01*
X161069350Y-76924062D02*
X161102683Y-76790729D01*
X161102683Y-76790729D02*
X161102683Y-76557395D01*
X161102683Y-76557395D02*
X161069350Y-76424062D01*
X161069350Y-76424062D02*
X161002683Y-76357395D01*
X161002683Y-76357395D02*
X160936017Y-76324062D01*
X160402684Y-76324062D02*
X159969350Y-76324062D01*
X159969350Y-76324062D02*
X160202684Y-76590729D01*
X160202684Y-76590729D02*
X160102684Y-76590729D01*
X160102684Y-76590729D02*
X160036017Y-76624062D01*
X160036017Y-76624062D02*
X160002684Y-76657395D01*
X160002684Y-76657395D02*
X159969350Y-76724062D01*
X159969350Y-76724062D02*
X159969350Y-76890729D01*
X159969350Y-76890729D02*
X160002684Y-76957395D01*
X160002684Y-76957395D02*
X160036017Y-76990729D01*
X160036017Y-76990729D02*
X160102684Y-77024062D01*
X160102684Y-77024062D02*
X160302684Y-77024062D01*
X160302684Y-77024062D02*
X160369350Y-76990729D01*
X160369350Y-76990729D02*
X160402684Y-76957395D01*
X159736017Y-76324062D02*
X159302683Y-76324062D01*
X159302683Y-76324062D02*
X159536017Y-76590729D01*
X159536017Y-76590729D02*
X159436017Y-76590729D01*
X159436017Y-76590729D02*
X159369350Y-76624062D01*
X159369350Y-76624062D02*
X159336017Y-76657395D01*
X159336017Y-76657395D02*
X159302683Y-76724062D01*
X159302683Y-76724062D02*
X159302683Y-76890729D01*
X159302683Y-76890729D02*
X159336017Y-76957395D01*
X159336017Y-76957395D02*
X159369350Y-76990729D01*
X159369350Y-76990729D02*
X159436017Y-77024062D01*
X159436017Y-77024062D02*
X159636017Y-77024062D01*
X159636017Y-77024062D02*
X159702683Y-76990729D01*
X159702683Y-76990729D02*
X159736017Y-76957395D01*
X164934683Y-66164062D02*
X164701350Y-66864062D01*
X164701350Y-66864062D02*
X164468016Y-66164062D01*
X164234683Y-66864062D02*
X164234683Y-66164062D01*
X164234683Y-66164062D02*
X163834683Y-66864062D01*
X163834683Y-66864062D02*
X163834683Y-66164062D01*
X163001350Y-66130729D02*
X163601350Y-67030729D01*
X162401350Y-66197395D02*
X162468017Y-66164062D01*
X162468017Y-66164062D02*
X162568017Y-66164062D01*
X162568017Y-66164062D02*
X162668017Y-66197395D01*
X162668017Y-66197395D02*
X162734684Y-66264062D01*
X162734684Y-66264062D02*
X162768017Y-66330729D01*
X162768017Y-66330729D02*
X162801350Y-66464062D01*
X162801350Y-66464062D02*
X162801350Y-66564062D01*
X162801350Y-66564062D02*
X162768017Y-66697395D01*
X162768017Y-66697395D02*
X162734684Y-66764062D01*
X162734684Y-66764062D02*
X162668017Y-66830729D01*
X162668017Y-66830729D02*
X162568017Y-66864062D01*
X162568017Y-66864062D02*
X162501350Y-66864062D01*
X162501350Y-66864062D02*
X162401350Y-66830729D01*
X162401350Y-66830729D02*
X162368017Y-66797395D01*
X162368017Y-66797395D02*
X162368017Y-66564062D01*
X162368017Y-66564062D02*
X162501350Y-66564062D01*
X162068017Y-66864062D02*
X162068017Y-66164062D01*
X162068017Y-66164062D02*
X161801350Y-66164062D01*
X161801350Y-66164062D02*
X161734684Y-66197395D01*
X161734684Y-66197395D02*
X161701350Y-66230729D01*
X161701350Y-66230729D02*
X161668017Y-66297395D01*
X161668017Y-66297395D02*
X161668017Y-66397395D01*
X161668017Y-66397395D02*
X161701350Y-66464062D01*
X161701350Y-66464062D02*
X161734684Y-66497395D01*
X161734684Y-66497395D02*
X161801350Y-66530729D01*
X161801350Y-66530729D02*
X162068017Y-66530729D01*
X161368017Y-66864062D02*
X161368017Y-66164062D01*
X160901351Y-66164062D02*
X160768017Y-66164062D01*
X160768017Y-66164062D02*
X160701351Y-66197395D01*
X160701351Y-66197395D02*
X160634684Y-66264062D01*
X160634684Y-66264062D02*
X160601351Y-66397395D01*
X160601351Y-66397395D02*
X160601351Y-66630729D01*
X160601351Y-66630729D02*
X160634684Y-66764062D01*
X160634684Y-66764062D02*
X160701351Y-66830729D01*
X160701351Y-66830729D02*
X160768017Y-66864062D01*
X160768017Y-66864062D02*
X160901351Y-66864062D01*
X160901351Y-66864062D02*
X160968017Y-66830729D01*
X160968017Y-66830729D02*
X161034684Y-66764062D01*
X161034684Y-66764062D02*
X161068017Y-66630729D01*
X161068017Y-66630729D02*
X161068017Y-66397395D01*
X161068017Y-66397395D02*
X161034684Y-66264062D01*
X161034684Y-66264062D02*
X160968017Y-66197395D01*
X160968017Y-66197395D02*
X160901351Y-66164062D01*
X160368018Y-66164062D02*
X159934684Y-66164062D01*
X159934684Y-66164062D02*
X160168018Y-66430729D01*
X160168018Y-66430729D02*
X160068018Y-66430729D01*
X160068018Y-66430729D02*
X160001351Y-66464062D01*
X160001351Y-66464062D02*
X159968018Y-66497395D01*
X159968018Y-66497395D02*
X159934684Y-66564062D01*
X159934684Y-66564062D02*
X159934684Y-66730729D01*
X159934684Y-66730729D02*
X159968018Y-66797395D01*
X159968018Y-66797395D02*
X160001351Y-66830729D01*
X160001351Y-66830729D02*
X160068018Y-66864062D01*
X160068018Y-66864062D02*
X160268018Y-66864062D01*
X160268018Y-66864062D02*
X160334684Y-66830729D01*
X160334684Y-66830729D02*
X160368018Y-66797395D01*
X159601351Y-66864062D02*
X159468017Y-66864062D01*
X159468017Y-66864062D02*
X159401351Y-66830729D01*
X159401351Y-66830729D02*
X159368017Y-66797395D01*
X159368017Y-66797395D02*
X159301351Y-66697395D01*
X159301351Y-66697395D02*
X159268017Y-66564062D01*
X159268017Y-66564062D02*
X159268017Y-66297395D01*
X159268017Y-66297395D02*
X159301351Y-66230729D01*
X159301351Y-66230729D02*
X159334684Y-66197395D01*
X159334684Y-66197395D02*
X159401351Y-66164062D01*
X159401351Y-66164062D02*
X159534684Y-66164062D01*
X159534684Y-66164062D02*
X159601351Y-66197395D01*
X159601351Y-66197395D02*
X159634684Y-66230729D01*
X159634684Y-66230729D02*
X159668017Y-66297395D01*
X159668017Y-66297395D02*
X159668017Y-66464062D01*
X159668017Y-66464062D02*
X159634684Y-66530729D01*
X159634684Y-66530729D02*
X159601351Y-66564062D01*
X159601351Y-66564062D02*
X159534684Y-66597395D01*
X159534684Y-66597395D02*
X159401351Y-66597395D01*
X159401351Y-66597395D02*
X159334684Y-66564062D01*
X159334684Y-66564062D02*
X159301351Y-66530729D01*
X159301351Y-66530729D02*
X159268017Y-66464062D01*
X181014449Y-89057166D02*
X181081116Y-89023833D01*
X181081116Y-89023833D02*
X181181116Y-89023833D01*
X181181116Y-89023833D02*
X181281116Y-89057166D01*
X181281116Y-89057166D02*
X181347783Y-89123833D01*
X181347783Y-89123833D02*
X181381116Y-89190500D01*
X181381116Y-89190500D02*
X181414449Y-89323833D01*
X181414449Y-89323833D02*
X181414449Y-89423833D01*
X181414449Y-89423833D02*
X181381116Y-89557166D01*
X181381116Y-89557166D02*
X181347783Y-89623833D01*
X181347783Y-89623833D02*
X181281116Y-89690500D01*
X181281116Y-89690500D02*
X181181116Y-89723833D01*
X181181116Y-89723833D02*
X181114449Y-89723833D01*
X181114449Y-89723833D02*
X181014449Y-89690500D01*
X181014449Y-89690500D02*
X180981116Y-89657166D01*
X180981116Y-89657166D02*
X180981116Y-89423833D01*
X180981116Y-89423833D02*
X181114449Y-89423833D01*
X180681116Y-89723833D02*
X180681116Y-89023833D01*
X180681116Y-89023833D02*
X180414449Y-89023833D01*
X180414449Y-89023833D02*
X180347783Y-89057166D01*
X180347783Y-89057166D02*
X180314449Y-89090500D01*
X180314449Y-89090500D02*
X180281116Y-89157166D01*
X180281116Y-89157166D02*
X180281116Y-89257166D01*
X180281116Y-89257166D02*
X180314449Y-89323833D01*
X180314449Y-89323833D02*
X180347783Y-89357166D01*
X180347783Y-89357166D02*
X180414449Y-89390500D01*
X180414449Y-89390500D02*
X180681116Y-89390500D01*
X179981116Y-89723833D02*
X179981116Y-89023833D01*
X179514450Y-89023833D02*
X179381116Y-89023833D01*
X179381116Y-89023833D02*
X179314450Y-89057166D01*
X179314450Y-89057166D02*
X179247783Y-89123833D01*
X179247783Y-89123833D02*
X179214450Y-89257166D01*
X179214450Y-89257166D02*
X179214450Y-89490500D01*
X179214450Y-89490500D02*
X179247783Y-89623833D01*
X179247783Y-89623833D02*
X179314450Y-89690500D01*
X179314450Y-89690500D02*
X179381116Y-89723833D01*
X179381116Y-89723833D02*
X179514450Y-89723833D01*
X179514450Y-89723833D02*
X179581116Y-89690500D01*
X179581116Y-89690500D02*
X179647783Y-89623833D01*
X179647783Y-89623833D02*
X179681116Y-89490500D01*
X179681116Y-89490500D02*
X179681116Y-89257166D01*
X179681116Y-89257166D02*
X179647783Y-89123833D01*
X179647783Y-89123833D02*
X179581116Y-89057166D01*
X179581116Y-89057166D02*
X179514450Y-89023833D01*
X178614450Y-89257166D02*
X178614450Y-89723833D01*
X178781117Y-88990500D02*
X178947783Y-89490500D01*
X178947783Y-89490500D02*
X178514450Y-89490500D01*
X162359397Y-83977395D02*
X162426064Y-83944062D01*
X162426064Y-83944062D02*
X162526064Y-83944062D01*
X162526064Y-83944062D02*
X162626064Y-83977395D01*
X162626064Y-83977395D02*
X162692731Y-84044062D01*
X162692731Y-84044062D02*
X162726064Y-84110729D01*
X162726064Y-84110729D02*
X162759397Y-84244062D01*
X162759397Y-84244062D02*
X162759397Y-84344062D01*
X162759397Y-84344062D02*
X162726064Y-84477395D01*
X162726064Y-84477395D02*
X162692731Y-84544062D01*
X162692731Y-84544062D02*
X162626064Y-84610729D01*
X162626064Y-84610729D02*
X162526064Y-84644062D01*
X162526064Y-84644062D02*
X162459397Y-84644062D01*
X162459397Y-84644062D02*
X162359397Y-84610729D01*
X162359397Y-84610729D02*
X162326064Y-84577395D01*
X162326064Y-84577395D02*
X162326064Y-84344062D01*
X162326064Y-84344062D02*
X162459397Y-84344062D01*
X162026064Y-84644062D02*
X162026064Y-83944062D01*
X162026064Y-83944062D02*
X161759397Y-83944062D01*
X161759397Y-83944062D02*
X161692731Y-83977395D01*
X161692731Y-83977395D02*
X161659397Y-84010729D01*
X161659397Y-84010729D02*
X161626064Y-84077395D01*
X161626064Y-84077395D02*
X161626064Y-84177395D01*
X161626064Y-84177395D02*
X161659397Y-84244062D01*
X161659397Y-84244062D02*
X161692731Y-84277395D01*
X161692731Y-84277395D02*
X161759397Y-84310729D01*
X161759397Y-84310729D02*
X162026064Y-84310729D01*
X161326064Y-84644062D02*
X161326064Y-83944062D01*
X160859398Y-83944062D02*
X160726064Y-83944062D01*
X160726064Y-83944062D02*
X160659398Y-83977395D01*
X160659398Y-83977395D02*
X160592731Y-84044062D01*
X160592731Y-84044062D02*
X160559398Y-84177395D01*
X160559398Y-84177395D02*
X160559398Y-84410729D01*
X160559398Y-84410729D02*
X160592731Y-84544062D01*
X160592731Y-84544062D02*
X160659398Y-84610729D01*
X160659398Y-84610729D02*
X160726064Y-84644062D01*
X160726064Y-84644062D02*
X160859398Y-84644062D01*
X160859398Y-84644062D02*
X160926064Y-84610729D01*
X160926064Y-84610729D02*
X160992731Y-84544062D01*
X160992731Y-84544062D02*
X161026064Y-84410729D01*
X161026064Y-84410729D02*
X161026064Y-84177395D01*
X161026064Y-84177395D02*
X160992731Y-84044062D01*
X160992731Y-84044062D02*
X160926064Y-83977395D01*
X160926064Y-83977395D02*
X160859398Y-83944062D01*
X160292731Y-84010729D02*
X160259398Y-83977395D01*
X160259398Y-83977395D02*
X160192731Y-83944062D01*
X160192731Y-83944062D02*
X160026065Y-83944062D01*
X160026065Y-83944062D02*
X159959398Y-83977395D01*
X159959398Y-83977395D02*
X159926065Y-84010729D01*
X159926065Y-84010729D02*
X159892731Y-84077395D01*
X159892731Y-84077395D02*
X159892731Y-84144062D01*
X159892731Y-84144062D02*
X159926065Y-84244062D01*
X159926065Y-84244062D02*
X160326065Y-84644062D01*
X160326065Y-84644062D02*
X159892731Y-84644062D01*
X159659398Y-83944062D02*
X159192731Y-83944062D01*
X159192731Y-83944062D02*
X159492731Y-84644062D01*
X165459396Y-89057395D02*
X165526063Y-89024062D01*
X165526063Y-89024062D02*
X165626063Y-89024062D01*
X165626063Y-89024062D02*
X165726063Y-89057395D01*
X165726063Y-89057395D02*
X165792730Y-89124062D01*
X165792730Y-89124062D02*
X165826063Y-89190729D01*
X165826063Y-89190729D02*
X165859396Y-89324062D01*
X165859396Y-89324062D02*
X165859396Y-89424062D01*
X165859396Y-89424062D02*
X165826063Y-89557395D01*
X165826063Y-89557395D02*
X165792730Y-89624062D01*
X165792730Y-89624062D02*
X165726063Y-89690729D01*
X165726063Y-89690729D02*
X165626063Y-89724062D01*
X165626063Y-89724062D02*
X165559396Y-89724062D01*
X165559396Y-89724062D02*
X165459396Y-89690729D01*
X165459396Y-89690729D02*
X165426063Y-89657395D01*
X165426063Y-89657395D02*
X165426063Y-89424062D01*
X165426063Y-89424062D02*
X165559396Y-89424062D01*
X165126063Y-89724062D02*
X165126063Y-89024062D01*
X165126063Y-89024062D02*
X164859396Y-89024062D01*
X164859396Y-89024062D02*
X164792730Y-89057395D01*
X164792730Y-89057395D02*
X164759396Y-89090729D01*
X164759396Y-89090729D02*
X164726063Y-89157395D01*
X164726063Y-89157395D02*
X164726063Y-89257395D01*
X164726063Y-89257395D02*
X164759396Y-89324062D01*
X164759396Y-89324062D02*
X164792730Y-89357395D01*
X164792730Y-89357395D02*
X164859396Y-89390729D01*
X164859396Y-89390729D02*
X165126063Y-89390729D01*
X164426063Y-89724062D02*
X164426063Y-89024062D01*
X163959397Y-89024062D02*
X163826063Y-89024062D01*
X163826063Y-89024062D02*
X163759397Y-89057395D01*
X163759397Y-89057395D02*
X163692730Y-89124062D01*
X163692730Y-89124062D02*
X163659397Y-89257395D01*
X163659397Y-89257395D02*
X163659397Y-89490729D01*
X163659397Y-89490729D02*
X163692730Y-89624062D01*
X163692730Y-89624062D02*
X163759397Y-89690729D01*
X163759397Y-89690729D02*
X163826063Y-89724062D01*
X163826063Y-89724062D02*
X163959397Y-89724062D01*
X163959397Y-89724062D02*
X164026063Y-89690729D01*
X164026063Y-89690729D02*
X164092730Y-89624062D01*
X164092730Y-89624062D02*
X164126063Y-89490729D01*
X164126063Y-89490729D02*
X164126063Y-89257395D01*
X164126063Y-89257395D02*
X164092730Y-89124062D01*
X164092730Y-89124062D02*
X164026063Y-89057395D01*
X164026063Y-89057395D02*
X163959397Y-89024062D01*
X162992730Y-89724062D02*
X163392730Y-89724062D01*
X163192730Y-89724062D02*
X163192730Y-89024062D01*
X163192730Y-89024062D02*
X163259397Y-89124062D01*
X163259397Y-89124062D02*
X163326064Y-89190729D01*
X163326064Y-89190729D02*
X163392730Y-89224062D01*
X162726063Y-89090729D02*
X162692730Y-89057395D01*
X162692730Y-89057395D02*
X162626063Y-89024062D01*
X162626063Y-89024062D02*
X162459397Y-89024062D01*
X162459397Y-89024062D02*
X162392730Y-89057395D01*
X162392730Y-89057395D02*
X162359397Y-89090729D01*
X162359397Y-89090729D02*
X162326063Y-89157395D01*
X162326063Y-89157395D02*
X162326063Y-89224062D01*
X162326063Y-89224062D02*
X162359397Y-89324062D01*
X162359397Y-89324062D02*
X162759397Y-89724062D01*
X162759397Y-89724062D02*
X162326063Y-89724062D01*
X161526063Y-88990729D02*
X162126063Y-89890729D01*
X161292730Y-89724062D02*
X161292730Y-89024062D01*
X161292730Y-89024062D02*
X161059397Y-89524062D01*
X161059397Y-89524062D02*
X160826063Y-89024062D01*
X160826063Y-89024062D02*
X160826063Y-89724062D01*
X160592730Y-89024062D02*
X160192730Y-89024062D01*
X160392730Y-89724062D02*
X160392730Y-89024062D01*
X159959397Y-89724062D02*
X159959397Y-89024062D01*
X159959397Y-89024062D02*
X159792730Y-89024062D01*
X159792730Y-89024062D02*
X159692730Y-89057395D01*
X159692730Y-89057395D02*
X159626064Y-89124062D01*
X159626064Y-89124062D02*
X159592730Y-89190729D01*
X159592730Y-89190729D02*
X159559397Y-89324062D01*
X159559397Y-89324062D02*
X159559397Y-89424062D01*
X159559397Y-89424062D02*
X159592730Y-89557395D01*
X159592730Y-89557395D02*
X159626064Y-89624062D01*
X159626064Y-89624062D02*
X159692730Y-89690729D01*
X159692730Y-89690729D02*
X159792730Y-89724062D01*
X159792730Y-89724062D02*
X159959397Y-89724062D01*
X159259397Y-89724062D02*
X159259397Y-89024062D01*
X181014449Y-81437166D02*
X181081116Y-81403833D01*
X181081116Y-81403833D02*
X181181116Y-81403833D01*
X181181116Y-81403833D02*
X181281116Y-81437166D01*
X181281116Y-81437166D02*
X181347783Y-81503833D01*
X181347783Y-81503833D02*
X181381116Y-81570500D01*
X181381116Y-81570500D02*
X181414449Y-81703833D01*
X181414449Y-81703833D02*
X181414449Y-81803833D01*
X181414449Y-81803833D02*
X181381116Y-81937166D01*
X181381116Y-81937166D02*
X181347783Y-82003833D01*
X181347783Y-82003833D02*
X181281116Y-82070500D01*
X181281116Y-82070500D02*
X181181116Y-82103833D01*
X181181116Y-82103833D02*
X181114449Y-82103833D01*
X181114449Y-82103833D02*
X181014449Y-82070500D01*
X181014449Y-82070500D02*
X180981116Y-82037166D01*
X180981116Y-82037166D02*
X180981116Y-81803833D01*
X180981116Y-81803833D02*
X181114449Y-81803833D01*
X180681116Y-82103833D02*
X180681116Y-81403833D01*
X180681116Y-81403833D02*
X180414449Y-81403833D01*
X180414449Y-81403833D02*
X180347783Y-81437166D01*
X180347783Y-81437166D02*
X180314449Y-81470500D01*
X180314449Y-81470500D02*
X180281116Y-81537166D01*
X180281116Y-81537166D02*
X180281116Y-81637166D01*
X180281116Y-81637166D02*
X180314449Y-81703833D01*
X180314449Y-81703833D02*
X180347783Y-81737166D01*
X180347783Y-81737166D02*
X180414449Y-81770500D01*
X180414449Y-81770500D02*
X180681116Y-81770500D01*
X179981116Y-82103833D02*
X179981116Y-81403833D01*
X179514450Y-81403833D02*
X179381116Y-81403833D01*
X179381116Y-81403833D02*
X179314450Y-81437166D01*
X179314450Y-81437166D02*
X179247783Y-81503833D01*
X179247783Y-81503833D02*
X179214450Y-81637166D01*
X179214450Y-81637166D02*
X179214450Y-81870500D01*
X179214450Y-81870500D02*
X179247783Y-82003833D01*
X179247783Y-82003833D02*
X179314450Y-82070500D01*
X179314450Y-82070500D02*
X179381116Y-82103833D01*
X179381116Y-82103833D02*
X179514450Y-82103833D01*
X179514450Y-82103833D02*
X179581116Y-82070500D01*
X179581116Y-82070500D02*
X179647783Y-82003833D01*
X179647783Y-82003833D02*
X179681116Y-81870500D01*
X179681116Y-81870500D02*
X179681116Y-81637166D01*
X179681116Y-81637166D02*
X179647783Y-81503833D01*
X179647783Y-81503833D02*
X179581116Y-81437166D01*
X179581116Y-81437166D02*
X179514450Y-81403833D01*
X178581117Y-81403833D02*
X178914450Y-81403833D01*
X178914450Y-81403833D02*
X178947783Y-81737166D01*
X178947783Y-81737166D02*
X178914450Y-81703833D01*
X178914450Y-81703833D02*
X178847783Y-81670500D01*
X178847783Y-81670500D02*
X178681117Y-81670500D01*
X178681117Y-81670500D02*
X178614450Y-81703833D01*
X178614450Y-81703833D02*
X178581117Y-81737166D01*
X178581117Y-81737166D02*
X178547783Y-81803833D01*
X178547783Y-81803833D02*
X178547783Y-81970500D01*
X178547783Y-81970500D02*
X178581117Y-82037166D01*
X178581117Y-82037166D02*
X178614450Y-82070500D01*
X178614450Y-82070500D02*
X178681117Y-82103833D01*
X178681117Y-82103833D02*
X178847783Y-82103833D01*
X178847783Y-82103833D02*
X178914450Y-82070500D01*
X178914450Y-82070500D02*
X178947783Y-82037166D01*
X181292384Y-61117166D02*
X181359051Y-61083833D01*
X181359051Y-61083833D02*
X181459051Y-61083833D01*
X181459051Y-61083833D02*
X181559051Y-61117166D01*
X181559051Y-61117166D02*
X181625718Y-61183833D01*
X181625718Y-61183833D02*
X181659051Y-61250500D01*
X181659051Y-61250500D02*
X181692384Y-61383833D01*
X181692384Y-61383833D02*
X181692384Y-61483833D01*
X181692384Y-61483833D02*
X181659051Y-61617166D01*
X181659051Y-61617166D02*
X181625718Y-61683833D01*
X181625718Y-61683833D02*
X181559051Y-61750500D01*
X181559051Y-61750500D02*
X181459051Y-61783833D01*
X181459051Y-61783833D02*
X181392384Y-61783833D01*
X181392384Y-61783833D02*
X181292384Y-61750500D01*
X181292384Y-61750500D02*
X181259051Y-61717166D01*
X181259051Y-61717166D02*
X181259051Y-61483833D01*
X181259051Y-61483833D02*
X181392384Y-61483833D01*
X180959051Y-61783833D02*
X180959051Y-61083833D01*
X180959051Y-61083833D02*
X180692384Y-61083833D01*
X180692384Y-61083833D02*
X180625718Y-61117166D01*
X180625718Y-61117166D02*
X180592384Y-61150500D01*
X180592384Y-61150500D02*
X180559051Y-61217166D01*
X180559051Y-61217166D02*
X180559051Y-61317166D01*
X180559051Y-61317166D02*
X180592384Y-61383833D01*
X180592384Y-61383833D02*
X180625718Y-61417166D01*
X180625718Y-61417166D02*
X180692384Y-61450500D01*
X180692384Y-61450500D02*
X180959051Y-61450500D01*
X180259051Y-61783833D02*
X180259051Y-61083833D01*
X179792385Y-61083833D02*
X179659051Y-61083833D01*
X179659051Y-61083833D02*
X179592385Y-61117166D01*
X179592385Y-61117166D02*
X179525718Y-61183833D01*
X179525718Y-61183833D02*
X179492385Y-61317166D01*
X179492385Y-61317166D02*
X179492385Y-61550500D01*
X179492385Y-61550500D02*
X179525718Y-61683833D01*
X179525718Y-61683833D02*
X179592385Y-61750500D01*
X179592385Y-61750500D02*
X179659051Y-61783833D01*
X179659051Y-61783833D02*
X179792385Y-61783833D01*
X179792385Y-61783833D02*
X179859051Y-61750500D01*
X179859051Y-61750500D02*
X179925718Y-61683833D01*
X179925718Y-61683833D02*
X179959051Y-61550500D01*
X179959051Y-61550500D02*
X179959051Y-61317166D01*
X179959051Y-61317166D02*
X179925718Y-61183833D01*
X179925718Y-61183833D02*
X179859051Y-61117166D01*
X179859051Y-61117166D02*
X179792385Y-61083833D01*
X179225718Y-61150500D02*
X179192385Y-61117166D01*
X179192385Y-61117166D02*
X179125718Y-61083833D01*
X179125718Y-61083833D02*
X178959052Y-61083833D01*
X178959052Y-61083833D02*
X178892385Y-61117166D01*
X178892385Y-61117166D02*
X178859052Y-61150500D01*
X178859052Y-61150500D02*
X178825718Y-61217166D01*
X178825718Y-61217166D02*
X178825718Y-61283833D01*
X178825718Y-61283833D02*
X178859052Y-61383833D01*
X178859052Y-61383833D02*
X179259052Y-61783833D01*
X179259052Y-61783833D02*
X178825718Y-61783833D01*
X178592385Y-61083833D02*
X178159051Y-61083833D01*
X178159051Y-61083833D02*
X178392385Y-61350500D01*
X178392385Y-61350500D02*
X178292385Y-61350500D01*
X178292385Y-61350500D02*
X178225718Y-61383833D01*
X178225718Y-61383833D02*
X178192385Y-61417166D01*
X178192385Y-61417166D02*
X178159051Y-61483833D01*
X178159051Y-61483833D02*
X178159051Y-61650500D01*
X178159051Y-61650500D02*
X178192385Y-61717166D01*
X178192385Y-61717166D02*
X178225718Y-61750500D01*
X178225718Y-61750500D02*
X178292385Y-61783833D01*
X178292385Y-61783833D02*
X178492385Y-61783833D01*
X178492385Y-61783833D02*
X178559051Y-61750500D01*
X178559051Y-61750500D02*
X178592385Y-61717166D01*
X165826063Y-94137395D02*
X165892730Y-94104062D01*
X165892730Y-94104062D02*
X165992730Y-94104062D01*
X165992730Y-94104062D02*
X166092730Y-94137395D01*
X166092730Y-94137395D02*
X166159397Y-94204062D01*
X166159397Y-94204062D02*
X166192730Y-94270729D01*
X166192730Y-94270729D02*
X166226063Y-94404062D01*
X166226063Y-94404062D02*
X166226063Y-94504062D01*
X166226063Y-94504062D02*
X166192730Y-94637395D01*
X166192730Y-94637395D02*
X166159397Y-94704062D01*
X166159397Y-94704062D02*
X166092730Y-94770729D01*
X166092730Y-94770729D02*
X165992730Y-94804062D01*
X165992730Y-94804062D02*
X165926063Y-94804062D01*
X165926063Y-94804062D02*
X165826063Y-94770729D01*
X165826063Y-94770729D02*
X165792730Y-94737395D01*
X165792730Y-94737395D02*
X165792730Y-94504062D01*
X165792730Y-94504062D02*
X165926063Y-94504062D01*
X165492730Y-94804062D02*
X165492730Y-94104062D01*
X165492730Y-94104062D02*
X165226063Y-94104062D01*
X165226063Y-94104062D02*
X165159397Y-94137395D01*
X165159397Y-94137395D02*
X165126063Y-94170729D01*
X165126063Y-94170729D02*
X165092730Y-94237395D01*
X165092730Y-94237395D02*
X165092730Y-94337395D01*
X165092730Y-94337395D02*
X165126063Y-94404062D01*
X165126063Y-94404062D02*
X165159397Y-94437395D01*
X165159397Y-94437395D02*
X165226063Y-94470729D01*
X165226063Y-94470729D02*
X165492730Y-94470729D01*
X164792730Y-94804062D02*
X164792730Y-94104062D01*
X164326064Y-94104062D02*
X164192730Y-94104062D01*
X164192730Y-94104062D02*
X164126064Y-94137395D01*
X164126064Y-94137395D02*
X164059397Y-94204062D01*
X164059397Y-94204062D02*
X164026064Y-94337395D01*
X164026064Y-94337395D02*
X164026064Y-94570729D01*
X164026064Y-94570729D02*
X164059397Y-94704062D01*
X164059397Y-94704062D02*
X164126064Y-94770729D01*
X164126064Y-94770729D02*
X164192730Y-94804062D01*
X164192730Y-94804062D02*
X164326064Y-94804062D01*
X164326064Y-94804062D02*
X164392730Y-94770729D01*
X164392730Y-94770729D02*
X164459397Y-94704062D01*
X164459397Y-94704062D02*
X164492730Y-94570729D01*
X164492730Y-94570729D02*
X164492730Y-94337395D01*
X164492730Y-94337395D02*
X164459397Y-94204062D01*
X164459397Y-94204062D02*
X164392730Y-94137395D01*
X164392730Y-94137395D02*
X164326064Y-94104062D01*
X163359397Y-94804062D02*
X163759397Y-94804062D01*
X163559397Y-94804062D02*
X163559397Y-94104062D01*
X163559397Y-94104062D02*
X163626064Y-94204062D01*
X163626064Y-94204062D02*
X163692731Y-94270729D01*
X163692731Y-94270729D02*
X163759397Y-94304062D01*
X163126064Y-94104062D02*
X162692730Y-94104062D01*
X162692730Y-94104062D02*
X162926064Y-94370729D01*
X162926064Y-94370729D02*
X162826064Y-94370729D01*
X162826064Y-94370729D02*
X162759397Y-94404062D01*
X162759397Y-94404062D02*
X162726064Y-94437395D01*
X162726064Y-94437395D02*
X162692730Y-94504062D01*
X162692730Y-94504062D02*
X162692730Y-94670729D01*
X162692730Y-94670729D02*
X162726064Y-94737395D01*
X162726064Y-94737395D02*
X162759397Y-94770729D01*
X162759397Y-94770729D02*
X162826064Y-94804062D01*
X162826064Y-94804062D02*
X163026064Y-94804062D01*
X163026064Y-94804062D02*
X163092730Y-94770729D01*
X163092730Y-94770729D02*
X163126064Y-94737395D01*
X161892730Y-94070729D02*
X162492730Y-94970729D01*
X161659397Y-94804062D02*
X161659397Y-94104062D01*
X161659397Y-94104062D02*
X161426064Y-94604062D01*
X161426064Y-94604062D02*
X161192730Y-94104062D01*
X161192730Y-94104062D02*
X161192730Y-94804062D01*
X160959397Y-94104062D02*
X160559397Y-94104062D01*
X160759397Y-94804062D02*
X160759397Y-94104062D01*
X159926064Y-94737395D02*
X159959397Y-94770729D01*
X159959397Y-94770729D02*
X160059397Y-94804062D01*
X160059397Y-94804062D02*
X160126064Y-94804062D01*
X160126064Y-94804062D02*
X160226064Y-94770729D01*
X160226064Y-94770729D02*
X160292731Y-94704062D01*
X160292731Y-94704062D02*
X160326064Y-94637395D01*
X160326064Y-94637395D02*
X160359397Y-94504062D01*
X160359397Y-94504062D02*
X160359397Y-94404062D01*
X160359397Y-94404062D02*
X160326064Y-94270729D01*
X160326064Y-94270729D02*
X160292731Y-94204062D01*
X160292731Y-94204062D02*
X160226064Y-94137395D01*
X160226064Y-94137395D02*
X160126064Y-94104062D01*
X160126064Y-94104062D02*
X160059397Y-94104062D01*
X160059397Y-94104062D02*
X159959397Y-94137395D01*
X159959397Y-94137395D02*
X159926064Y-94170729D01*
X159626064Y-94804062D02*
X159626064Y-94104062D01*
X159226064Y-94804062D02*
X159526064Y-94404062D01*
X159226064Y-94104062D02*
X159626064Y-94504062D01*
X160726064Y-102357395D02*
X160759397Y-102390729D01*
X160759397Y-102390729D02*
X160859397Y-102424062D01*
X160859397Y-102424062D02*
X160926064Y-102424062D01*
X160926064Y-102424062D02*
X161026064Y-102390729D01*
X161026064Y-102390729D02*
X161092731Y-102324062D01*
X161092731Y-102324062D02*
X161126064Y-102257395D01*
X161126064Y-102257395D02*
X161159397Y-102124062D01*
X161159397Y-102124062D02*
X161159397Y-102024062D01*
X161159397Y-102024062D02*
X161126064Y-101890729D01*
X161126064Y-101890729D02*
X161092731Y-101824062D01*
X161092731Y-101824062D02*
X161026064Y-101757395D01*
X161026064Y-101757395D02*
X160926064Y-101724062D01*
X160926064Y-101724062D02*
X160859397Y-101724062D01*
X160859397Y-101724062D02*
X160759397Y-101757395D01*
X160759397Y-101757395D02*
X160726064Y-101790729D01*
X160426064Y-102424062D02*
X160426064Y-101724062D01*
X160426064Y-101724062D02*
X160192731Y-102224062D01*
X160192731Y-102224062D02*
X159959397Y-101724062D01*
X159959397Y-101724062D02*
X159959397Y-102424062D01*
X159626064Y-102424062D02*
X159626064Y-101724062D01*
X159626064Y-101724062D02*
X159459397Y-101724062D01*
X159459397Y-101724062D02*
X159359397Y-101757395D01*
X159359397Y-101757395D02*
X159292731Y-101824062D01*
X159292731Y-101824062D02*
X159259397Y-101890729D01*
X159259397Y-101890729D02*
X159226064Y-102024062D01*
X159226064Y-102024062D02*
X159226064Y-102124062D01*
X159226064Y-102124062D02*
X159259397Y-102257395D01*
X159259397Y-102257395D02*
X159292731Y-102324062D01*
X159292731Y-102324062D02*
X159359397Y-102390729D01*
X159359397Y-102390729D02*
X159459397Y-102424062D01*
X159459397Y-102424062D02*
X159626064Y-102424062D01*
X165892730Y-86517395D02*
X165959397Y-86484062D01*
X165959397Y-86484062D02*
X166059397Y-86484062D01*
X166059397Y-86484062D02*
X166159397Y-86517395D01*
X166159397Y-86517395D02*
X166226064Y-86584062D01*
X166226064Y-86584062D02*
X166259397Y-86650729D01*
X166259397Y-86650729D02*
X166292730Y-86784062D01*
X166292730Y-86784062D02*
X166292730Y-86884062D01*
X166292730Y-86884062D02*
X166259397Y-87017395D01*
X166259397Y-87017395D02*
X166226064Y-87084062D01*
X166226064Y-87084062D02*
X166159397Y-87150729D01*
X166159397Y-87150729D02*
X166059397Y-87184062D01*
X166059397Y-87184062D02*
X165992730Y-87184062D01*
X165992730Y-87184062D02*
X165892730Y-87150729D01*
X165892730Y-87150729D02*
X165859397Y-87117395D01*
X165859397Y-87117395D02*
X165859397Y-86884062D01*
X165859397Y-86884062D02*
X165992730Y-86884062D01*
X165559397Y-87184062D02*
X165559397Y-86484062D01*
X165559397Y-86484062D02*
X165292730Y-86484062D01*
X165292730Y-86484062D02*
X165226064Y-86517395D01*
X165226064Y-86517395D02*
X165192730Y-86550729D01*
X165192730Y-86550729D02*
X165159397Y-86617395D01*
X165159397Y-86617395D02*
X165159397Y-86717395D01*
X165159397Y-86717395D02*
X165192730Y-86784062D01*
X165192730Y-86784062D02*
X165226064Y-86817395D01*
X165226064Y-86817395D02*
X165292730Y-86850729D01*
X165292730Y-86850729D02*
X165559397Y-86850729D01*
X164859397Y-87184062D02*
X164859397Y-86484062D01*
X164392731Y-86484062D02*
X164259397Y-86484062D01*
X164259397Y-86484062D02*
X164192731Y-86517395D01*
X164192731Y-86517395D02*
X164126064Y-86584062D01*
X164126064Y-86584062D02*
X164092731Y-86717395D01*
X164092731Y-86717395D02*
X164092731Y-86950729D01*
X164092731Y-86950729D02*
X164126064Y-87084062D01*
X164126064Y-87084062D02*
X164192731Y-87150729D01*
X164192731Y-87150729D02*
X164259397Y-87184062D01*
X164259397Y-87184062D02*
X164392731Y-87184062D01*
X164392731Y-87184062D02*
X164459397Y-87150729D01*
X164459397Y-87150729D02*
X164526064Y-87084062D01*
X164526064Y-87084062D02*
X164559397Y-86950729D01*
X164559397Y-86950729D02*
X164559397Y-86717395D01*
X164559397Y-86717395D02*
X164526064Y-86584062D01*
X164526064Y-86584062D02*
X164459397Y-86517395D01*
X164459397Y-86517395D02*
X164392731Y-86484062D01*
X163426064Y-87184062D02*
X163826064Y-87184062D01*
X163626064Y-87184062D02*
X163626064Y-86484062D01*
X163626064Y-86484062D02*
X163692731Y-86584062D01*
X163692731Y-86584062D02*
X163759398Y-86650729D01*
X163759398Y-86650729D02*
X163826064Y-86684062D01*
X162826064Y-86717395D02*
X162826064Y-87184062D01*
X162992731Y-86450729D02*
X163159397Y-86950729D01*
X163159397Y-86950729D02*
X162726064Y-86950729D01*
X161959397Y-86450729D02*
X162559397Y-87350729D01*
X161726064Y-87184062D02*
X161726064Y-86484062D01*
X161726064Y-86484062D02*
X161492731Y-86984062D01*
X161492731Y-86984062D02*
X161259397Y-86484062D01*
X161259397Y-86484062D02*
X161259397Y-87184062D01*
X161026064Y-86484062D02*
X160626064Y-86484062D01*
X160826064Y-87184062D02*
X160826064Y-86484062D01*
X160392731Y-87184062D02*
X160392731Y-86484062D01*
X160392731Y-86484062D02*
X160159398Y-86984062D01*
X160159398Y-86984062D02*
X159926064Y-86484062D01*
X159926064Y-86484062D02*
X159926064Y-87184062D01*
X159626064Y-87150729D02*
X159526064Y-87184062D01*
X159526064Y-87184062D02*
X159359398Y-87184062D01*
X159359398Y-87184062D02*
X159292731Y-87150729D01*
X159292731Y-87150729D02*
X159259398Y-87117395D01*
X159259398Y-87117395D02*
X159226064Y-87050729D01*
X159226064Y-87050729D02*
X159226064Y-86984062D01*
X159226064Y-86984062D02*
X159259398Y-86917395D01*
X159259398Y-86917395D02*
X159292731Y-86884062D01*
X159292731Y-86884062D02*
X159359398Y-86850729D01*
X159359398Y-86850729D02*
X159492731Y-86817395D01*
X159492731Y-86817395D02*
X159559398Y-86784062D01*
X159559398Y-86784062D02*
X159592731Y-86750729D01*
X159592731Y-86750729D02*
X159626064Y-86684062D01*
X159626064Y-86684062D02*
X159626064Y-86617395D01*
X159626064Y-86617395D02*
X159592731Y-86550729D01*
X159592731Y-86550729D02*
X159559398Y-86517395D01*
X159559398Y-86517395D02*
X159492731Y-86484062D01*
X159492731Y-86484062D02*
X159326064Y-86484062D01*
X159326064Y-86484062D02*
X159226064Y-86517395D01*
X160292731Y-97344062D02*
X160292731Y-96644062D01*
X160292731Y-96644062D02*
X160126064Y-96644062D01*
X160126064Y-96644062D02*
X160026064Y-96677395D01*
X160026064Y-96677395D02*
X159959398Y-96744062D01*
X159959398Y-96744062D02*
X159926064Y-96810729D01*
X159926064Y-96810729D02*
X159892731Y-96944062D01*
X159892731Y-96944062D02*
X159892731Y-97044062D01*
X159892731Y-97044062D02*
X159926064Y-97177395D01*
X159926064Y-97177395D02*
X159959398Y-97244062D01*
X159959398Y-97244062D02*
X160026064Y-97310729D01*
X160026064Y-97310729D02*
X160126064Y-97344062D01*
X160126064Y-97344062D02*
X160292731Y-97344062D01*
X159626064Y-96710729D02*
X159592731Y-96677395D01*
X159592731Y-96677395D02*
X159526064Y-96644062D01*
X159526064Y-96644062D02*
X159359398Y-96644062D01*
X159359398Y-96644062D02*
X159292731Y-96677395D01*
X159292731Y-96677395D02*
X159259398Y-96710729D01*
X159259398Y-96710729D02*
X159226064Y-96777395D01*
X159226064Y-96777395D02*
X159226064Y-96844062D01*
X159226064Y-96844062D02*
X159259398Y-96944062D01*
X159259398Y-96944062D02*
X159659398Y-97344062D01*
X159659398Y-97344062D02*
X159226064Y-97344062D01*
X161318445Y-91450467D02*
X161413683Y-91402848D01*
X161413683Y-91402848D02*
X161556540Y-91402848D01*
X161556540Y-91402848D02*
X161699397Y-91450467D01*
X161699397Y-91450467D02*
X161794635Y-91545705D01*
X161794635Y-91545705D02*
X161842254Y-91640943D01*
X161842254Y-91640943D02*
X161889873Y-91831419D01*
X161889873Y-91831419D02*
X161889873Y-91974276D01*
X161889873Y-91974276D02*
X161842254Y-92164752D01*
X161842254Y-92164752D02*
X161794635Y-92259990D01*
X161794635Y-92259990D02*
X161699397Y-92355229D01*
X161699397Y-92355229D02*
X161556540Y-92402848D01*
X161556540Y-92402848D02*
X161461302Y-92402848D01*
X161461302Y-92402848D02*
X161318445Y-92355229D01*
X161318445Y-92355229D02*
X161270826Y-92307609D01*
X161270826Y-92307609D02*
X161270826Y-91974276D01*
X161270826Y-91974276D02*
X161461302Y-91974276D01*
X160842254Y-92402848D02*
X160842254Y-91402848D01*
X160842254Y-91402848D02*
X160270826Y-92402848D01*
X160270826Y-92402848D02*
X160270826Y-91402848D01*
X159794635Y-92402848D02*
X159794635Y-91402848D01*
X159794635Y-91402848D02*
X159556540Y-91402848D01*
X159556540Y-91402848D02*
X159413683Y-91450467D01*
X159413683Y-91450467D02*
X159318445Y-91545705D01*
X159318445Y-91545705D02*
X159270826Y-91640943D01*
X159270826Y-91640943D02*
X159223207Y-91831419D01*
X159223207Y-91831419D02*
X159223207Y-91974276D01*
X159223207Y-91974276D02*
X159270826Y-92164752D01*
X159270826Y-92164752D02*
X159318445Y-92259990D01*
X159318445Y-92259990D02*
X159413683Y-92355229D01*
X159413683Y-92355229D02*
X159556540Y-92402848D01*
X159556540Y-92402848D02*
X159794635Y-92402848D01*
X162309016Y-73690395D02*
X162375683Y-73657062D01*
X162375683Y-73657062D02*
X162475683Y-73657062D01*
X162475683Y-73657062D02*
X162575683Y-73690395D01*
X162575683Y-73690395D02*
X162642350Y-73757062D01*
X162642350Y-73757062D02*
X162675683Y-73823729D01*
X162675683Y-73823729D02*
X162709016Y-73957062D01*
X162709016Y-73957062D02*
X162709016Y-74057062D01*
X162709016Y-74057062D02*
X162675683Y-74190395D01*
X162675683Y-74190395D02*
X162642350Y-74257062D01*
X162642350Y-74257062D02*
X162575683Y-74323729D01*
X162575683Y-74323729D02*
X162475683Y-74357062D01*
X162475683Y-74357062D02*
X162409016Y-74357062D01*
X162409016Y-74357062D02*
X162309016Y-74323729D01*
X162309016Y-74323729D02*
X162275683Y-74290395D01*
X162275683Y-74290395D02*
X162275683Y-74057062D01*
X162275683Y-74057062D02*
X162409016Y-74057062D01*
X161975683Y-74357062D02*
X161975683Y-73657062D01*
X161975683Y-73657062D02*
X161709016Y-73657062D01*
X161709016Y-73657062D02*
X161642350Y-73690395D01*
X161642350Y-73690395D02*
X161609016Y-73723729D01*
X161609016Y-73723729D02*
X161575683Y-73790395D01*
X161575683Y-73790395D02*
X161575683Y-73890395D01*
X161575683Y-73890395D02*
X161609016Y-73957062D01*
X161609016Y-73957062D02*
X161642350Y-73990395D01*
X161642350Y-73990395D02*
X161709016Y-74023729D01*
X161709016Y-74023729D02*
X161975683Y-74023729D01*
X161275683Y-74357062D02*
X161275683Y-73657062D01*
X160809017Y-73657062D02*
X160675683Y-73657062D01*
X160675683Y-73657062D02*
X160609017Y-73690395D01*
X160609017Y-73690395D02*
X160542350Y-73757062D01*
X160542350Y-73757062D02*
X160509017Y-73890395D01*
X160509017Y-73890395D02*
X160509017Y-74123729D01*
X160509017Y-74123729D02*
X160542350Y-74257062D01*
X160542350Y-74257062D02*
X160609017Y-74323729D01*
X160609017Y-74323729D02*
X160675683Y-74357062D01*
X160675683Y-74357062D02*
X160809017Y-74357062D01*
X160809017Y-74357062D02*
X160875683Y-74323729D01*
X160875683Y-74323729D02*
X160942350Y-74257062D01*
X160942350Y-74257062D02*
X160975683Y-74123729D01*
X160975683Y-74123729D02*
X160975683Y-73890395D01*
X160975683Y-73890395D02*
X160942350Y-73757062D01*
X160942350Y-73757062D02*
X160875683Y-73690395D01*
X160875683Y-73690395D02*
X160809017Y-73657062D01*
X160275684Y-73657062D02*
X159842350Y-73657062D01*
X159842350Y-73657062D02*
X160075684Y-73923729D01*
X160075684Y-73923729D02*
X159975684Y-73923729D01*
X159975684Y-73923729D02*
X159909017Y-73957062D01*
X159909017Y-73957062D02*
X159875684Y-73990395D01*
X159875684Y-73990395D02*
X159842350Y-74057062D01*
X159842350Y-74057062D02*
X159842350Y-74223729D01*
X159842350Y-74223729D02*
X159875684Y-74290395D01*
X159875684Y-74290395D02*
X159909017Y-74323729D01*
X159909017Y-74323729D02*
X159975684Y-74357062D01*
X159975684Y-74357062D02*
X160175684Y-74357062D01*
X160175684Y-74357062D02*
X160242350Y-74323729D01*
X160242350Y-74323729D02*
X160275684Y-74290395D01*
X159575683Y-73723729D02*
X159542350Y-73690395D01*
X159542350Y-73690395D02*
X159475683Y-73657062D01*
X159475683Y-73657062D02*
X159309017Y-73657062D01*
X159309017Y-73657062D02*
X159242350Y-73690395D01*
X159242350Y-73690395D02*
X159209017Y-73723729D01*
X159209017Y-73723729D02*
X159175683Y-73790395D01*
X159175683Y-73790395D02*
X159175683Y-73857062D01*
X159175683Y-73857062D02*
X159209017Y-73957062D01*
X159209017Y-73957062D02*
X159609017Y-74357062D01*
X159609017Y-74357062D02*
X159175683Y-74357062D01*
X160127969Y-104354128D02*
X160604159Y-104354128D01*
X160604159Y-104354128D02*
X160651778Y-104830318D01*
X160651778Y-104830318D02*
X160604159Y-104782699D01*
X160604159Y-104782699D02*
X160508921Y-104735080D01*
X160508921Y-104735080D02*
X160270826Y-104735080D01*
X160270826Y-104735080D02*
X160175588Y-104782699D01*
X160175588Y-104782699D02*
X160127969Y-104830318D01*
X160127969Y-104830318D02*
X160080350Y-104925556D01*
X160080350Y-104925556D02*
X160080350Y-105163651D01*
X160080350Y-105163651D02*
X160127969Y-105258889D01*
X160127969Y-105258889D02*
X160175588Y-105306509D01*
X160175588Y-105306509D02*
X160270826Y-105354128D01*
X160270826Y-105354128D02*
X160508921Y-105354128D01*
X160508921Y-105354128D02*
X160604159Y-105306509D01*
X160604159Y-105306509D02*
X160651778Y-105258889D01*
X159794635Y-104354128D02*
X159461302Y-105354128D01*
X159461302Y-105354128D02*
X159127969Y-104354128D01*
X161785092Y-58408248D02*
X161166045Y-58408248D01*
X161166045Y-58408248D02*
X161499378Y-58789200D01*
X161499378Y-58789200D02*
X161356521Y-58789200D01*
X161356521Y-58789200D02*
X161261283Y-58836819D01*
X161261283Y-58836819D02*
X161213664Y-58884438D01*
X161213664Y-58884438D02*
X161166045Y-58979676D01*
X161166045Y-58979676D02*
X161166045Y-59217771D01*
X161166045Y-59217771D02*
X161213664Y-59313009D01*
X161213664Y-59313009D02*
X161261283Y-59360629D01*
X161261283Y-59360629D02*
X161356521Y-59408248D01*
X161356521Y-59408248D02*
X161642235Y-59408248D01*
X161642235Y-59408248D02*
X161737473Y-59360629D01*
X161737473Y-59360629D02*
X161785092Y-59313009D01*
X160880330Y-58408248D02*
X160546997Y-59408248D01*
X160546997Y-59408248D02*
X160213664Y-58408248D01*
X159975568Y-58408248D02*
X159356521Y-58408248D01*
X159356521Y-58408248D02*
X159689854Y-58789200D01*
X159689854Y-58789200D02*
X159546997Y-58789200D01*
X159546997Y-58789200D02*
X159451759Y-58836819D01*
X159451759Y-58836819D02*
X159404140Y-58884438D01*
X159404140Y-58884438D02*
X159356521Y-58979676D01*
X159356521Y-58979676D02*
X159356521Y-59217771D01*
X159356521Y-59217771D02*
X159404140Y-59313009D01*
X159404140Y-59313009D02*
X159451759Y-59360629D01*
X159451759Y-59360629D02*
X159546997Y-59408248D01*
X159546997Y-59408248D02*
X159832711Y-59408248D01*
X159832711Y-59408248D02*
X159927949Y-59360629D01*
X159927949Y-59360629D02*
X159975568Y-59313009D01*
D12*
X181174536Y-104934424D02*
X181212632Y-104972520D01*
X181212632Y-104972520D02*
X181326917Y-105010615D01*
X181326917Y-105010615D02*
X181403108Y-105010615D01*
X181403108Y-105010615D02*
X181517394Y-104972520D01*
X181517394Y-104972520D02*
X181593584Y-104896329D01*
X181593584Y-104896329D02*
X181631679Y-104820139D01*
X181631679Y-104820139D02*
X181669775Y-104667758D01*
X181669775Y-104667758D02*
X181669775Y-104553472D01*
X181669775Y-104553472D02*
X181631679Y-104401091D01*
X181631679Y-104401091D02*
X181593584Y-104324900D01*
X181593584Y-104324900D02*
X181517394Y-104248710D01*
X181517394Y-104248710D02*
X181403108Y-104210615D01*
X181403108Y-104210615D02*
X181326917Y-104210615D01*
X181326917Y-104210615D02*
X181212632Y-104248710D01*
X181212632Y-104248710D02*
X181174536Y-104286805D01*
X180450727Y-105010615D02*
X180831679Y-105010615D01*
X180831679Y-105010615D02*
X180831679Y-104210615D01*
X180184060Y-105010615D02*
X180184060Y-104210615D01*
X179726917Y-105010615D02*
X180069775Y-104553472D01*
X179726917Y-104210615D02*
X180184060Y-104667758D01*
D11*
X164807683Y-63624062D02*
X164574350Y-64324062D01*
X164574350Y-64324062D02*
X164341016Y-63624062D01*
X164107683Y-64324062D02*
X164107683Y-63624062D01*
X164107683Y-63624062D02*
X163841016Y-63624062D01*
X163841016Y-63624062D02*
X163774350Y-63657395D01*
X163774350Y-63657395D02*
X163741016Y-63690729D01*
X163741016Y-63690729D02*
X163707683Y-63757395D01*
X163707683Y-63757395D02*
X163707683Y-63857395D01*
X163707683Y-63857395D02*
X163741016Y-63924062D01*
X163741016Y-63924062D02*
X163774350Y-63957395D01*
X163774350Y-63957395D02*
X163841016Y-63990729D01*
X163841016Y-63990729D02*
X164107683Y-63990729D01*
X162907683Y-63590729D02*
X163507683Y-64490729D01*
X162307683Y-63657395D02*
X162374350Y-63624062D01*
X162374350Y-63624062D02*
X162474350Y-63624062D01*
X162474350Y-63624062D02*
X162574350Y-63657395D01*
X162574350Y-63657395D02*
X162641017Y-63724062D01*
X162641017Y-63724062D02*
X162674350Y-63790729D01*
X162674350Y-63790729D02*
X162707683Y-63924062D01*
X162707683Y-63924062D02*
X162707683Y-64024062D01*
X162707683Y-64024062D02*
X162674350Y-64157395D01*
X162674350Y-64157395D02*
X162641017Y-64224062D01*
X162641017Y-64224062D02*
X162574350Y-64290729D01*
X162574350Y-64290729D02*
X162474350Y-64324062D01*
X162474350Y-64324062D02*
X162407683Y-64324062D01*
X162407683Y-64324062D02*
X162307683Y-64290729D01*
X162307683Y-64290729D02*
X162274350Y-64257395D01*
X162274350Y-64257395D02*
X162274350Y-64024062D01*
X162274350Y-64024062D02*
X162407683Y-64024062D01*
X161974350Y-64324062D02*
X161974350Y-63624062D01*
X161974350Y-63624062D02*
X161707683Y-63624062D01*
X161707683Y-63624062D02*
X161641017Y-63657395D01*
X161641017Y-63657395D02*
X161607683Y-63690729D01*
X161607683Y-63690729D02*
X161574350Y-63757395D01*
X161574350Y-63757395D02*
X161574350Y-63857395D01*
X161574350Y-63857395D02*
X161607683Y-63924062D01*
X161607683Y-63924062D02*
X161641017Y-63957395D01*
X161641017Y-63957395D02*
X161707683Y-63990729D01*
X161707683Y-63990729D02*
X161974350Y-63990729D01*
X161274350Y-64324062D02*
X161274350Y-63624062D01*
X160807684Y-63624062D02*
X160674350Y-63624062D01*
X160674350Y-63624062D02*
X160607684Y-63657395D01*
X160607684Y-63657395D02*
X160541017Y-63724062D01*
X160541017Y-63724062D02*
X160507684Y-63857395D01*
X160507684Y-63857395D02*
X160507684Y-64090729D01*
X160507684Y-64090729D02*
X160541017Y-64224062D01*
X160541017Y-64224062D02*
X160607684Y-64290729D01*
X160607684Y-64290729D02*
X160674350Y-64324062D01*
X160674350Y-64324062D02*
X160807684Y-64324062D01*
X160807684Y-64324062D02*
X160874350Y-64290729D01*
X160874350Y-64290729D02*
X160941017Y-64224062D01*
X160941017Y-64224062D02*
X160974350Y-64090729D01*
X160974350Y-64090729D02*
X160974350Y-63857395D01*
X160974350Y-63857395D02*
X160941017Y-63724062D01*
X160941017Y-63724062D02*
X160874350Y-63657395D01*
X160874350Y-63657395D02*
X160807684Y-63624062D01*
X160274351Y-63624062D02*
X159841017Y-63624062D01*
X159841017Y-63624062D02*
X160074351Y-63890729D01*
X160074351Y-63890729D02*
X159974351Y-63890729D01*
X159974351Y-63890729D02*
X159907684Y-63924062D01*
X159907684Y-63924062D02*
X159874351Y-63957395D01*
X159874351Y-63957395D02*
X159841017Y-64024062D01*
X159841017Y-64024062D02*
X159841017Y-64190729D01*
X159841017Y-64190729D02*
X159874351Y-64257395D01*
X159874351Y-64257395D02*
X159907684Y-64290729D01*
X159907684Y-64290729D02*
X159974351Y-64324062D01*
X159974351Y-64324062D02*
X160174351Y-64324062D01*
X160174351Y-64324062D02*
X160241017Y-64290729D01*
X160241017Y-64290729D02*
X160274351Y-64257395D01*
X159241017Y-63624062D02*
X159374350Y-63624062D01*
X159374350Y-63624062D02*
X159441017Y-63657395D01*
X159441017Y-63657395D02*
X159474350Y-63690729D01*
X159474350Y-63690729D02*
X159541017Y-63790729D01*
X159541017Y-63790729D02*
X159574350Y-63924062D01*
X159574350Y-63924062D02*
X159574350Y-64190729D01*
X159574350Y-64190729D02*
X159541017Y-64257395D01*
X159541017Y-64257395D02*
X159507684Y-64290729D01*
X159507684Y-64290729D02*
X159441017Y-64324062D01*
X159441017Y-64324062D02*
X159307684Y-64324062D01*
X159307684Y-64324062D02*
X159241017Y-64290729D01*
X159241017Y-64290729D02*
X159207684Y-64257395D01*
X159207684Y-64257395D02*
X159174350Y-64190729D01*
X159174350Y-64190729D02*
X159174350Y-64024062D01*
X159174350Y-64024062D02*
X159207684Y-63957395D01*
X159207684Y-63957395D02*
X159241017Y-63924062D01*
X159241017Y-63924062D02*
X159307684Y-63890729D01*
X159307684Y-63890729D02*
X159441017Y-63890729D01*
X159441017Y-63890729D02*
X159507684Y-63924062D01*
X159507684Y-63924062D02*
X159541017Y-63957395D01*
X159541017Y-63957395D02*
X159574350Y-64024062D01*
X181014449Y-86517166D02*
X181081116Y-86483833D01*
X181081116Y-86483833D02*
X181181116Y-86483833D01*
X181181116Y-86483833D02*
X181281116Y-86517166D01*
X181281116Y-86517166D02*
X181347783Y-86583833D01*
X181347783Y-86583833D02*
X181381116Y-86650500D01*
X181381116Y-86650500D02*
X181414449Y-86783833D01*
X181414449Y-86783833D02*
X181414449Y-86883833D01*
X181414449Y-86883833D02*
X181381116Y-87017166D01*
X181381116Y-87017166D02*
X181347783Y-87083833D01*
X181347783Y-87083833D02*
X181281116Y-87150500D01*
X181281116Y-87150500D02*
X181181116Y-87183833D01*
X181181116Y-87183833D02*
X181114449Y-87183833D01*
X181114449Y-87183833D02*
X181014449Y-87150500D01*
X181014449Y-87150500D02*
X180981116Y-87117166D01*
X180981116Y-87117166D02*
X180981116Y-86883833D01*
X180981116Y-86883833D02*
X181114449Y-86883833D01*
X180681116Y-87183833D02*
X180681116Y-86483833D01*
X180681116Y-86483833D02*
X180414449Y-86483833D01*
X180414449Y-86483833D02*
X180347783Y-86517166D01*
X180347783Y-86517166D02*
X180314449Y-86550500D01*
X180314449Y-86550500D02*
X180281116Y-86617166D01*
X180281116Y-86617166D02*
X180281116Y-86717166D01*
X180281116Y-86717166D02*
X180314449Y-86783833D01*
X180314449Y-86783833D02*
X180347783Y-86817166D01*
X180347783Y-86817166D02*
X180414449Y-86850500D01*
X180414449Y-86850500D02*
X180681116Y-86850500D01*
X179981116Y-87183833D02*
X179981116Y-86483833D01*
X179514450Y-86483833D02*
X179381116Y-86483833D01*
X179381116Y-86483833D02*
X179314450Y-86517166D01*
X179314450Y-86517166D02*
X179247783Y-86583833D01*
X179247783Y-86583833D02*
X179214450Y-86717166D01*
X179214450Y-86717166D02*
X179214450Y-86950500D01*
X179214450Y-86950500D02*
X179247783Y-87083833D01*
X179247783Y-87083833D02*
X179314450Y-87150500D01*
X179314450Y-87150500D02*
X179381116Y-87183833D01*
X179381116Y-87183833D02*
X179514450Y-87183833D01*
X179514450Y-87183833D02*
X179581116Y-87150500D01*
X179581116Y-87150500D02*
X179647783Y-87083833D01*
X179647783Y-87083833D02*
X179681116Y-86950500D01*
X179681116Y-86950500D02*
X179681116Y-86717166D01*
X179681116Y-86717166D02*
X179647783Y-86583833D01*
X179647783Y-86583833D02*
X179581116Y-86517166D01*
X179581116Y-86517166D02*
X179514450Y-86483833D01*
X178547783Y-87183833D02*
X178947783Y-87183833D01*
X178747783Y-87183833D02*
X178747783Y-86483833D01*
X178747783Y-86483833D02*
X178814450Y-86583833D01*
X178814450Y-86583833D02*
X178881117Y-86650500D01*
X178881117Y-86650500D02*
X178947783Y-86683833D01*
X177947783Y-86483833D02*
X178081116Y-86483833D01*
X178081116Y-86483833D02*
X178147783Y-86517166D01*
X178147783Y-86517166D02*
X178181116Y-86550500D01*
X178181116Y-86550500D02*
X178247783Y-86650500D01*
X178247783Y-86650500D02*
X178281116Y-86783833D01*
X178281116Y-86783833D02*
X178281116Y-87050500D01*
X178281116Y-87050500D02*
X178247783Y-87117166D01*
X178247783Y-87117166D02*
X178214450Y-87150500D01*
X178214450Y-87150500D02*
X178147783Y-87183833D01*
X178147783Y-87183833D02*
X178014450Y-87183833D01*
X178014450Y-87183833D02*
X177947783Y-87150500D01*
X177947783Y-87150500D02*
X177914450Y-87117166D01*
X177914450Y-87117166D02*
X177881116Y-87050500D01*
X177881116Y-87050500D02*
X177881116Y-86883833D01*
X177881116Y-86883833D02*
X177914450Y-86817166D01*
X177914450Y-86817166D02*
X177947783Y-86783833D01*
X177947783Y-86783833D02*
X178014450Y-86750500D01*
X178014450Y-86750500D02*
X178147783Y-86750500D01*
X178147783Y-86750500D02*
X178214450Y-86783833D01*
X178214450Y-86783833D02*
X178247783Y-86817166D01*
X178247783Y-86817166D02*
X178281116Y-86883833D01*
X166261432Y-61399038D02*
X165928099Y-61399038D01*
X165785242Y-61922848D02*
X166261432Y-61922848D01*
X166261432Y-61922848D02*
X166261432Y-60922848D01*
X166261432Y-60922848D02*
X165785242Y-60922848D01*
X165356670Y-61922848D02*
X165356670Y-60922848D01*
X165356670Y-60922848D02*
X164785242Y-61922848D01*
X164785242Y-61922848D02*
X164785242Y-60922848D01*
X163594766Y-60875229D02*
X164451908Y-62160943D01*
X162690004Y-61922848D02*
X163023337Y-61446657D01*
X163261432Y-61922848D02*
X163261432Y-60922848D01*
X163261432Y-60922848D02*
X162880480Y-60922848D01*
X162880480Y-60922848D02*
X162785242Y-60970467D01*
X162785242Y-60970467D02*
X162737623Y-61018086D01*
X162737623Y-61018086D02*
X162690004Y-61113324D01*
X162690004Y-61113324D02*
X162690004Y-61256181D01*
X162690004Y-61256181D02*
X162737623Y-61351419D01*
X162737623Y-61351419D02*
X162785242Y-61399038D01*
X162785242Y-61399038D02*
X162880480Y-61446657D01*
X162880480Y-61446657D02*
X163261432Y-61446657D01*
X162261432Y-61399038D02*
X161928099Y-61399038D01*
X161785242Y-61922848D02*
X162261432Y-61922848D01*
X162261432Y-61922848D02*
X162261432Y-60922848D01*
X162261432Y-60922848D02*
X161785242Y-60922848D01*
X161404289Y-61875229D02*
X161261432Y-61922848D01*
X161261432Y-61922848D02*
X161023337Y-61922848D01*
X161023337Y-61922848D02*
X160928099Y-61875229D01*
X160928099Y-61875229D02*
X160880480Y-61827609D01*
X160880480Y-61827609D02*
X160832861Y-61732371D01*
X160832861Y-61732371D02*
X160832861Y-61637133D01*
X160832861Y-61637133D02*
X160880480Y-61541895D01*
X160880480Y-61541895D02*
X160928099Y-61494276D01*
X160928099Y-61494276D02*
X161023337Y-61446657D01*
X161023337Y-61446657D02*
X161213813Y-61399038D01*
X161213813Y-61399038D02*
X161309051Y-61351419D01*
X161309051Y-61351419D02*
X161356670Y-61303800D01*
X161356670Y-61303800D02*
X161404289Y-61208562D01*
X161404289Y-61208562D02*
X161404289Y-61113324D01*
X161404289Y-61113324D02*
X161356670Y-61018086D01*
X161356670Y-61018086D02*
X161309051Y-60970467D01*
X161309051Y-60970467D02*
X161213813Y-60922848D01*
X161213813Y-60922848D02*
X160975718Y-60922848D01*
X160975718Y-60922848D02*
X160832861Y-60970467D01*
X160404289Y-61399038D02*
X160070956Y-61399038D01*
X159928099Y-61922848D02*
X160404289Y-61922848D01*
X160404289Y-61922848D02*
X160404289Y-60922848D01*
X160404289Y-60922848D02*
X159928099Y-60922848D01*
X159642384Y-60922848D02*
X159070956Y-60922848D01*
X159356670Y-61922848D02*
X159356670Y-60922848D01*
X181269717Y-76357395D02*
X181336384Y-76324062D01*
X181336384Y-76324062D02*
X181436384Y-76324062D01*
X181436384Y-76324062D02*
X181536384Y-76357395D01*
X181536384Y-76357395D02*
X181603051Y-76424062D01*
X181603051Y-76424062D02*
X181636384Y-76490729D01*
X181636384Y-76490729D02*
X181669717Y-76624062D01*
X181669717Y-76624062D02*
X181669717Y-76724062D01*
X181669717Y-76724062D02*
X181636384Y-76857395D01*
X181636384Y-76857395D02*
X181603051Y-76924062D01*
X181603051Y-76924062D02*
X181536384Y-76990729D01*
X181536384Y-76990729D02*
X181436384Y-77024062D01*
X181436384Y-77024062D02*
X181369717Y-77024062D01*
X181369717Y-77024062D02*
X181269717Y-76990729D01*
X181269717Y-76990729D02*
X181236384Y-76957395D01*
X181236384Y-76957395D02*
X181236384Y-76724062D01*
X181236384Y-76724062D02*
X181369717Y-76724062D01*
X180936384Y-77024062D02*
X180936384Y-76324062D01*
X180936384Y-76324062D02*
X180669717Y-76324062D01*
X180669717Y-76324062D02*
X180603051Y-76357395D01*
X180603051Y-76357395D02*
X180569717Y-76390729D01*
X180569717Y-76390729D02*
X180536384Y-76457395D01*
X180536384Y-76457395D02*
X180536384Y-76557395D01*
X180536384Y-76557395D02*
X180569717Y-76624062D01*
X180569717Y-76624062D02*
X180603051Y-76657395D01*
X180603051Y-76657395D02*
X180669717Y-76690729D01*
X180669717Y-76690729D02*
X180936384Y-76690729D01*
X180236384Y-77024062D02*
X180236384Y-76324062D01*
X179769718Y-76324062D02*
X179636384Y-76324062D01*
X179636384Y-76324062D02*
X179569718Y-76357395D01*
X179569718Y-76357395D02*
X179503051Y-76424062D01*
X179503051Y-76424062D02*
X179469718Y-76557395D01*
X179469718Y-76557395D02*
X179469718Y-76790729D01*
X179469718Y-76790729D02*
X179503051Y-76924062D01*
X179503051Y-76924062D02*
X179569718Y-76990729D01*
X179569718Y-76990729D02*
X179636384Y-77024062D01*
X179636384Y-77024062D02*
X179769718Y-77024062D01*
X179769718Y-77024062D02*
X179836384Y-76990729D01*
X179836384Y-76990729D02*
X179903051Y-76924062D01*
X179903051Y-76924062D02*
X179936384Y-76790729D01*
X179936384Y-76790729D02*
X179936384Y-76557395D01*
X179936384Y-76557395D02*
X179903051Y-76424062D01*
X179903051Y-76424062D02*
X179836384Y-76357395D01*
X179836384Y-76357395D02*
X179769718Y-76324062D01*
X178803051Y-77024062D02*
X179203051Y-77024062D01*
X179003051Y-77024062D02*
X179003051Y-76324062D01*
X179003051Y-76324062D02*
X179069718Y-76424062D01*
X179069718Y-76424062D02*
X179136385Y-76490729D01*
X179136385Y-76490729D02*
X179203051Y-76524062D01*
X178469718Y-77024062D02*
X178336384Y-77024062D01*
X178336384Y-77024062D02*
X178269718Y-76990729D01*
X178269718Y-76990729D02*
X178236384Y-76957395D01*
X178236384Y-76957395D02*
X178169718Y-76857395D01*
X178169718Y-76857395D02*
X178136384Y-76724062D01*
X178136384Y-76724062D02*
X178136384Y-76457395D01*
X178136384Y-76457395D02*
X178169718Y-76390729D01*
X178169718Y-76390729D02*
X178203051Y-76357395D01*
X178203051Y-76357395D02*
X178269718Y-76324062D01*
X178269718Y-76324062D02*
X178403051Y-76324062D01*
X178403051Y-76324062D02*
X178469718Y-76357395D01*
X178469718Y-76357395D02*
X178503051Y-76390729D01*
X178503051Y-76390729D02*
X178536384Y-76457395D01*
X178536384Y-76457395D02*
X178536384Y-76624062D01*
X178536384Y-76624062D02*
X178503051Y-76690729D01*
X178503051Y-76690729D02*
X178469718Y-76724062D01*
X178469718Y-76724062D02*
X178403051Y-76757395D01*
X178403051Y-76757395D02*
X178269718Y-76757395D01*
X178269718Y-76757395D02*
X178203051Y-76724062D01*
X178203051Y-76724062D02*
X178169718Y-76690729D01*
X178169718Y-76690729D02*
X178136384Y-76624062D01*
X162309016Y-71277395D02*
X162375683Y-71244062D01*
X162375683Y-71244062D02*
X162475683Y-71244062D01*
X162475683Y-71244062D02*
X162575683Y-71277395D01*
X162575683Y-71277395D02*
X162642350Y-71344062D01*
X162642350Y-71344062D02*
X162675683Y-71410729D01*
X162675683Y-71410729D02*
X162709016Y-71544062D01*
X162709016Y-71544062D02*
X162709016Y-71644062D01*
X162709016Y-71644062D02*
X162675683Y-71777395D01*
X162675683Y-71777395D02*
X162642350Y-71844062D01*
X162642350Y-71844062D02*
X162575683Y-71910729D01*
X162575683Y-71910729D02*
X162475683Y-71944062D01*
X162475683Y-71944062D02*
X162409016Y-71944062D01*
X162409016Y-71944062D02*
X162309016Y-71910729D01*
X162309016Y-71910729D02*
X162275683Y-71877395D01*
X162275683Y-71877395D02*
X162275683Y-71644062D01*
X162275683Y-71644062D02*
X162409016Y-71644062D01*
X161975683Y-71944062D02*
X161975683Y-71244062D01*
X161975683Y-71244062D02*
X161709016Y-71244062D01*
X161709016Y-71244062D02*
X161642350Y-71277395D01*
X161642350Y-71277395D02*
X161609016Y-71310729D01*
X161609016Y-71310729D02*
X161575683Y-71377395D01*
X161575683Y-71377395D02*
X161575683Y-71477395D01*
X161575683Y-71477395D02*
X161609016Y-71544062D01*
X161609016Y-71544062D02*
X161642350Y-71577395D01*
X161642350Y-71577395D02*
X161709016Y-71610729D01*
X161709016Y-71610729D02*
X161975683Y-71610729D01*
X161275683Y-71944062D02*
X161275683Y-71244062D01*
X160809017Y-71244062D02*
X160675683Y-71244062D01*
X160675683Y-71244062D02*
X160609017Y-71277395D01*
X160609017Y-71277395D02*
X160542350Y-71344062D01*
X160542350Y-71344062D02*
X160509017Y-71477395D01*
X160509017Y-71477395D02*
X160509017Y-71710729D01*
X160509017Y-71710729D02*
X160542350Y-71844062D01*
X160542350Y-71844062D02*
X160609017Y-71910729D01*
X160609017Y-71910729D02*
X160675683Y-71944062D01*
X160675683Y-71944062D02*
X160809017Y-71944062D01*
X160809017Y-71944062D02*
X160875683Y-71910729D01*
X160875683Y-71910729D02*
X160942350Y-71844062D01*
X160942350Y-71844062D02*
X160975683Y-71710729D01*
X160975683Y-71710729D02*
X160975683Y-71477395D01*
X160975683Y-71477395D02*
X160942350Y-71344062D01*
X160942350Y-71344062D02*
X160875683Y-71277395D01*
X160875683Y-71277395D02*
X160809017Y-71244062D01*
X160275684Y-71244062D02*
X159842350Y-71244062D01*
X159842350Y-71244062D02*
X160075684Y-71510729D01*
X160075684Y-71510729D02*
X159975684Y-71510729D01*
X159975684Y-71510729D02*
X159909017Y-71544062D01*
X159909017Y-71544062D02*
X159875684Y-71577395D01*
X159875684Y-71577395D02*
X159842350Y-71644062D01*
X159842350Y-71644062D02*
X159842350Y-71810729D01*
X159842350Y-71810729D02*
X159875684Y-71877395D01*
X159875684Y-71877395D02*
X159909017Y-71910729D01*
X159909017Y-71910729D02*
X159975684Y-71944062D01*
X159975684Y-71944062D02*
X160175684Y-71944062D01*
X160175684Y-71944062D02*
X160242350Y-71910729D01*
X160242350Y-71910729D02*
X160275684Y-71877395D01*
X159209017Y-71244062D02*
X159542350Y-71244062D01*
X159542350Y-71244062D02*
X159575683Y-71577395D01*
X159575683Y-71577395D02*
X159542350Y-71544062D01*
X159542350Y-71544062D02*
X159475683Y-71510729D01*
X159475683Y-71510729D02*
X159309017Y-71510729D01*
X159309017Y-71510729D02*
X159242350Y-71544062D01*
X159242350Y-71544062D02*
X159209017Y-71577395D01*
X159209017Y-71577395D02*
X159175683Y-71644062D01*
X159175683Y-71644062D02*
X159175683Y-71810729D01*
X159175683Y-71810729D02*
X159209017Y-71877395D01*
X159209017Y-71877395D02*
X159242350Y-71910729D01*
X159242350Y-71910729D02*
X159309017Y-71944062D01*
X159309017Y-71944062D02*
X159475683Y-71944062D01*
X159475683Y-71944062D02*
X159542350Y-71910729D01*
X159542350Y-71910729D02*
X159575683Y-71877395D01*
X181014449Y-94137166D02*
X181081116Y-94103833D01*
X181081116Y-94103833D02*
X181181116Y-94103833D01*
X181181116Y-94103833D02*
X181281116Y-94137166D01*
X181281116Y-94137166D02*
X181347783Y-94203833D01*
X181347783Y-94203833D02*
X181381116Y-94270500D01*
X181381116Y-94270500D02*
X181414449Y-94403833D01*
X181414449Y-94403833D02*
X181414449Y-94503833D01*
X181414449Y-94503833D02*
X181381116Y-94637166D01*
X181381116Y-94637166D02*
X181347783Y-94703833D01*
X181347783Y-94703833D02*
X181281116Y-94770500D01*
X181281116Y-94770500D02*
X181181116Y-94803833D01*
X181181116Y-94803833D02*
X181114449Y-94803833D01*
X181114449Y-94803833D02*
X181014449Y-94770500D01*
X181014449Y-94770500D02*
X180981116Y-94737166D01*
X180981116Y-94737166D02*
X180981116Y-94503833D01*
X180981116Y-94503833D02*
X181114449Y-94503833D01*
X180681116Y-94803833D02*
X180681116Y-94103833D01*
X180681116Y-94103833D02*
X180414449Y-94103833D01*
X180414449Y-94103833D02*
X180347783Y-94137166D01*
X180347783Y-94137166D02*
X180314449Y-94170500D01*
X180314449Y-94170500D02*
X180281116Y-94237166D01*
X180281116Y-94237166D02*
X180281116Y-94337166D01*
X180281116Y-94337166D02*
X180314449Y-94403833D01*
X180314449Y-94403833D02*
X180347783Y-94437166D01*
X180347783Y-94437166D02*
X180414449Y-94470500D01*
X180414449Y-94470500D02*
X180681116Y-94470500D01*
X179981116Y-94803833D02*
X179981116Y-94103833D01*
X179514450Y-94103833D02*
X179381116Y-94103833D01*
X179381116Y-94103833D02*
X179314450Y-94137166D01*
X179314450Y-94137166D02*
X179247783Y-94203833D01*
X179247783Y-94203833D02*
X179214450Y-94337166D01*
X179214450Y-94337166D02*
X179214450Y-94570500D01*
X179214450Y-94570500D02*
X179247783Y-94703833D01*
X179247783Y-94703833D02*
X179314450Y-94770500D01*
X179314450Y-94770500D02*
X179381116Y-94803833D01*
X179381116Y-94803833D02*
X179514450Y-94803833D01*
X179514450Y-94803833D02*
X179581116Y-94770500D01*
X179581116Y-94770500D02*
X179647783Y-94703833D01*
X179647783Y-94703833D02*
X179681116Y-94570500D01*
X179681116Y-94570500D02*
X179681116Y-94337166D01*
X179681116Y-94337166D02*
X179647783Y-94203833D01*
X179647783Y-94203833D02*
X179581116Y-94137166D01*
X179581116Y-94137166D02*
X179514450Y-94103833D01*
X178947783Y-94170500D02*
X178914450Y-94137166D01*
X178914450Y-94137166D02*
X178847783Y-94103833D01*
X178847783Y-94103833D02*
X178681117Y-94103833D01*
X178681117Y-94103833D02*
X178614450Y-94137166D01*
X178614450Y-94137166D02*
X178581117Y-94170500D01*
X178581117Y-94170500D02*
X178547783Y-94237166D01*
X178547783Y-94237166D02*
X178547783Y-94303833D01*
X178547783Y-94303833D02*
X178581117Y-94403833D01*
X178581117Y-94403833D02*
X178981117Y-94803833D01*
X178981117Y-94803833D02*
X178547783Y-94803833D01*
X181014449Y-91597166D02*
X181081116Y-91563833D01*
X181081116Y-91563833D02*
X181181116Y-91563833D01*
X181181116Y-91563833D02*
X181281116Y-91597166D01*
X181281116Y-91597166D02*
X181347783Y-91663833D01*
X181347783Y-91663833D02*
X181381116Y-91730500D01*
X181381116Y-91730500D02*
X181414449Y-91863833D01*
X181414449Y-91863833D02*
X181414449Y-91963833D01*
X181414449Y-91963833D02*
X181381116Y-92097166D01*
X181381116Y-92097166D02*
X181347783Y-92163833D01*
X181347783Y-92163833D02*
X181281116Y-92230500D01*
X181281116Y-92230500D02*
X181181116Y-92263833D01*
X181181116Y-92263833D02*
X181114449Y-92263833D01*
X181114449Y-92263833D02*
X181014449Y-92230500D01*
X181014449Y-92230500D02*
X180981116Y-92197166D01*
X180981116Y-92197166D02*
X180981116Y-91963833D01*
X180981116Y-91963833D02*
X181114449Y-91963833D01*
X180681116Y-92263833D02*
X180681116Y-91563833D01*
X180681116Y-91563833D02*
X180414449Y-91563833D01*
X180414449Y-91563833D02*
X180347783Y-91597166D01*
X180347783Y-91597166D02*
X180314449Y-91630500D01*
X180314449Y-91630500D02*
X180281116Y-91697166D01*
X180281116Y-91697166D02*
X180281116Y-91797166D01*
X180281116Y-91797166D02*
X180314449Y-91863833D01*
X180314449Y-91863833D02*
X180347783Y-91897166D01*
X180347783Y-91897166D02*
X180414449Y-91930500D01*
X180414449Y-91930500D02*
X180681116Y-91930500D01*
X179981116Y-92263833D02*
X179981116Y-91563833D01*
X179514450Y-91563833D02*
X179381116Y-91563833D01*
X179381116Y-91563833D02*
X179314450Y-91597166D01*
X179314450Y-91597166D02*
X179247783Y-91663833D01*
X179247783Y-91663833D02*
X179214450Y-91797166D01*
X179214450Y-91797166D02*
X179214450Y-92030500D01*
X179214450Y-92030500D02*
X179247783Y-92163833D01*
X179247783Y-92163833D02*
X179314450Y-92230500D01*
X179314450Y-92230500D02*
X179381116Y-92263833D01*
X179381116Y-92263833D02*
X179514450Y-92263833D01*
X179514450Y-92263833D02*
X179581116Y-92230500D01*
X179581116Y-92230500D02*
X179647783Y-92163833D01*
X179647783Y-92163833D02*
X179681116Y-92030500D01*
X179681116Y-92030500D02*
X179681116Y-91797166D01*
X179681116Y-91797166D02*
X179647783Y-91663833D01*
X179647783Y-91663833D02*
X179581116Y-91597166D01*
X179581116Y-91597166D02*
X179514450Y-91563833D01*
X178781117Y-91563833D02*
X178714450Y-91563833D01*
X178714450Y-91563833D02*
X178647783Y-91597166D01*
X178647783Y-91597166D02*
X178614450Y-91630500D01*
X178614450Y-91630500D02*
X178581117Y-91697166D01*
X178581117Y-91697166D02*
X178547783Y-91830500D01*
X178547783Y-91830500D02*
X178547783Y-91997166D01*
X178547783Y-91997166D02*
X178581117Y-92130500D01*
X178581117Y-92130500D02*
X178614450Y-92197166D01*
X178614450Y-92197166D02*
X178647783Y-92230500D01*
X178647783Y-92230500D02*
X178714450Y-92263833D01*
X178714450Y-92263833D02*
X178781117Y-92263833D01*
X178781117Y-92263833D02*
X178847783Y-92230500D01*
X178847783Y-92230500D02*
X178881117Y-92197166D01*
X178881117Y-92197166D02*
X178914450Y-92130500D01*
X178914450Y-92130500D02*
X178947783Y-91997166D01*
X178947783Y-91997166D02*
X178947783Y-91830500D01*
X178947783Y-91830500D02*
X178914450Y-91697166D01*
X178914450Y-91697166D02*
X178881117Y-91630500D01*
X178881117Y-91630500D02*
X178847783Y-91597166D01*
X178847783Y-91597166D02*
X178781117Y-91563833D01*
X162359397Y-81437624D02*
X162426064Y-81404291D01*
X162426064Y-81404291D02*
X162526064Y-81404291D01*
X162526064Y-81404291D02*
X162626064Y-81437624D01*
X162626064Y-81437624D02*
X162692731Y-81504291D01*
X162692731Y-81504291D02*
X162726064Y-81570958D01*
X162726064Y-81570958D02*
X162759397Y-81704291D01*
X162759397Y-81704291D02*
X162759397Y-81804291D01*
X162759397Y-81804291D02*
X162726064Y-81937624D01*
X162726064Y-81937624D02*
X162692731Y-82004291D01*
X162692731Y-82004291D02*
X162626064Y-82070958D01*
X162626064Y-82070958D02*
X162526064Y-82104291D01*
X162526064Y-82104291D02*
X162459397Y-82104291D01*
X162459397Y-82104291D02*
X162359397Y-82070958D01*
X162359397Y-82070958D02*
X162326064Y-82037624D01*
X162326064Y-82037624D02*
X162326064Y-81804291D01*
X162326064Y-81804291D02*
X162459397Y-81804291D01*
X162026064Y-82104291D02*
X162026064Y-81404291D01*
X162026064Y-81404291D02*
X161759397Y-81404291D01*
X161759397Y-81404291D02*
X161692731Y-81437624D01*
X161692731Y-81437624D02*
X161659397Y-81470958D01*
X161659397Y-81470958D02*
X161626064Y-81537624D01*
X161626064Y-81537624D02*
X161626064Y-81637624D01*
X161626064Y-81637624D02*
X161659397Y-81704291D01*
X161659397Y-81704291D02*
X161692731Y-81737624D01*
X161692731Y-81737624D02*
X161759397Y-81770958D01*
X161759397Y-81770958D02*
X162026064Y-81770958D01*
X161326064Y-82104291D02*
X161326064Y-81404291D01*
X160859398Y-81404291D02*
X160726064Y-81404291D01*
X160726064Y-81404291D02*
X160659398Y-81437624D01*
X160659398Y-81437624D02*
X160592731Y-81504291D01*
X160592731Y-81504291D02*
X160559398Y-81637624D01*
X160559398Y-81637624D02*
X160559398Y-81870958D01*
X160559398Y-81870958D02*
X160592731Y-82004291D01*
X160592731Y-82004291D02*
X160659398Y-82070958D01*
X160659398Y-82070958D02*
X160726064Y-82104291D01*
X160726064Y-82104291D02*
X160859398Y-82104291D01*
X160859398Y-82104291D02*
X160926064Y-82070958D01*
X160926064Y-82070958D02*
X160992731Y-82004291D01*
X160992731Y-82004291D02*
X161026064Y-81870958D01*
X161026064Y-81870958D02*
X161026064Y-81637624D01*
X161026064Y-81637624D02*
X160992731Y-81504291D01*
X160992731Y-81504291D02*
X160926064Y-81437624D01*
X160926064Y-81437624D02*
X160859398Y-81404291D01*
X160292731Y-81470958D02*
X160259398Y-81437624D01*
X160259398Y-81437624D02*
X160192731Y-81404291D01*
X160192731Y-81404291D02*
X160026065Y-81404291D01*
X160026065Y-81404291D02*
X159959398Y-81437624D01*
X159959398Y-81437624D02*
X159926065Y-81470958D01*
X159926065Y-81470958D02*
X159892731Y-81537624D01*
X159892731Y-81537624D02*
X159892731Y-81604291D01*
X159892731Y-81604291D02*
X159926065Y-81704291D01*
X159926065Y-81704291D02*
X160326065Y-82104291D01*
X160326065Y-82104291D02*
X159892731Y-82104291D01*
X159292731Y-81404291D02*
X159426064Y-81404291D01*
X159426064Y-81404291D02*
X159492731Y-81437624D01*
X159492731Y-81437624D02*
X159526064Y-81470958D01*
X159526064Y-81470958D02*
X159592731Y-81570958D01*
X159592731Y-81570958D02*
X159626064Y-81704291D01*
X159626064Y-81704291D02*
X159626064Y-81970958D01*
X159626064Y-81970958D02*
X159592731Y-82037624D01*
X159592731Y-82037624D02*
X159559398Y-82070958D01*
X159559398Y-82070958D02*
X159492731Y-82104291D01*
X159492731Y-82104291D02*
X159359398Y-82104291D01*
X159359398Y-82104291D02*
X159292731Y-82070958D01*
X159292731Y-82070958D02*
X159259398Y-82037624D01*
X159259398Y-82037624D02*
X159226064Y-81970958D01*
X159226064Y-81970958D02*
X159226064Y-81804291D01*
X159226064Y-81804291D02*
X159259398Y-81737624D01*
X159259398Y-81737624D02*
X159292731Y-81704291D01*
X159292731Y-81704291D02*
X159359398Y-81670958D01*
X159359398Y-81670958D02*
X159492731Y-81670958D01*
X159492731Y-81670958D02*
X159559398Y-81704291D01*
X159559398Y-81704291D02*
X159592731Y-81737624D01*
X159592731Y-81737624D02*
X159626064Y-81804291D01*
X181014449Y-83977166D02*
X181081116Y-83943833D01*
X181081116Y-83943833D02*
X181181116Y-83943833D01*
X181181116Y-83943833D02*
X181281116Y-83977166D01*
X181281116Y-83977166D02*
X181347783Y-84043833D01*
X181347783Y-84043833D02*
X181381116Y-84110500D01*
X181381116Y-84110500D02*
X181414449Y-84243833D01*
X181414449Y-84243833D02*
X181414449Y-84343833D01*
X181414449Y-84343833D02*
X181381116Y-84477166D01*
X181381116Y-84477166D02*
X181347783Y-84543833D01*
X181347783Y-84543833D02*
X181281116Y-84610500D01*
X181281116Y-84610500D02*
X181181116Y-84643833D01*
X181181116Y-84643833D02*
X181114449Y-84643833D01*
X181114449Y-84643833D02*
X181014449Y-84610500D01*
X181014449Y-84610500D02*
X180981116Y-84577166D01*
X180981116Y-84577166D02*
X180981116Y-84343833D01*
X180981116Y-84343833D02*
X181114449Y-84343833D01*
X180681116Y-84643833D02*
X180681116Y-83943833D01*
X180681116Y-83943833D02*
X180414449Y-83943833D01*
X180414449Y-83943833D02*
X180347783Y-83977166D01*
X180347783Y-83977166D02*
X180314449Y-84010500D01*
X180314449Y-84010500D02*
X180281116Y-84077166D01*
X180281116Y-84077166D02*
X180281116Y-84177166D01*
X180281116Y-84177166D02*
X180314449Y-84243833D01*
X180314449Y-84243833D02*
X180347783Y-84277166D01*
X180347783Y-84277166D02*
X180414449Y-84310500D01*
X180414449Y-84310500D02*
X180681116Y-84310500D01*
X179981116Y-84643833D02*
X179981116Y-83943833D01*
X179514450Y-83943833D02*
X179381116Y-83943833D01*
X179381116Y-83943833D02*
X179314450Y-83977166D01*
X179314450Y-83977166D02*
X179247783Y-84043833D01*
X179247783Y-84043833D02*
X179214450Y-84177166D01*
X179214450Y-84177166D02*
X179214450Y-84410500D01*
X179214450Y-84410500D02*
X179247783Y-84543833D01*
X179247783Y-84543833D02*
X179314450Y-84610500D01*
X179314450Y-84610500D02*
X179381116Y-84643833D01*
X179381116Y-84643833D02*
X179514450Y-84643833D01*
X179514450Y-84643833D02*
X179581116Y-84610500D01*
X179581116Y-84610500D02*
X179647783Y-84543833D01*
X179647783Y-84543833D02*
X179681116Y-84410500D01*
X179681116Y-84410500D02*
X179681116Y-84177166D01*
X179681116Y-84177166D02*
X179647783Y-84043833D01*
X179647783Y-84043833D02*
X179581116Y-83977166D01*
X179581116Y-83977166D02*
X179514450Y-83943833D01*
X178547783Y-84643833D02*
X178947783Y-84643833D01*
X178747783Y-84643833D02*
X178747783Y-83943833D01*
X178747783Y-83943833D02*
X178814450Y-84043833D01*
X178814450Y-84043833D02*
X178881117Y-84110500D01*
X178881117Y-84110500D02*
X178947783Y-84143833D01*
X178314450Y-83943833D02*
X177847783Y-83943833D01*
X177847783Y-83943833D02*
X178147783Y-84643833D01*
X162436016Y-78897166D02*
X162502683Y-78863833D01*
X162502683Y-78863833D02*
X162602683Y-78863833D01*
X162602683Y-78863833D02*
X162702683Y-78897166D01*
X162702683Y-78897166D02*
X162769350Y-78963833D01*
X162769350Y-78963833D02*
X162802683Y-79030500D01*
X162802683Y-79030500D02*
X162836016Y-79163833D01*
X162836016Y-79163833D02*
X162836016Y-79263833D01*
X162836016Y-79263833D02*
X162802683Y-79397166D01*
X162802683Y-79397166D02*
X162769350Y-79463833D01*
X162769350Y-79463833D02*
X162702683Y-79530500D01*
X162702683Y-79530500D02*
X162602683Y-79563833D01*
X162602683Y-79563833D02*
X162536016Y-79563833D01*
X162536016Y-79563833D02*
X162436016Y-79530500D01*
X162436016Y-79530500D02*
X162402683Y-79497166D01*
X162402683Y-79497166D02*
X162402683Y-79263833D01*
X162402683Y-79263833D02*
X162536016Y-79263833D01*
X162102683Y-79563833D02*
X162102683Y-78863833D01*
X162102683Y-78863833D02*
X161836016Y-78863833D01*
X161836016Y-78863833D02*
X161769350Y-78897166D01*
X161769350Y-78897166D02*
X161736016Y-78930500D01*
X161736016Y-78930500D02*
X161702683Y-78997166D01*
X161702683Y-78997166D02*
X161702683Y-79097166D01*
X161702683Y-79097166D02*
X161736016Y-79163833D01*
X161736016Y-79163833D02*
X161769350Y-79197166D01*
X161769350Y-79197166D02*
X161836016Y-79230500D01*
X161836016Y-79230500D02*
X162102683Y-79230500D01*
X161402683Y-79563833D02*
X161402683Y-78863833D01*
X160936017Y-78863833D02*
X160802683Y-78863833D01*
X160802683Y-78863833D02*
X160736017Y-78897166D01*
X160736017Y-78897166D02*
X160669350Y-78963833D01*
X160669350Y-78963833D02*
X160636017Y-79097166D01*
X160636017Y-79097166D02*
X160636017Y-79330500D01*
X160636017Y-79330500D02*
X160669350Y-79463833D01*
X160669350Y-79463833D02*
X160736017Y-79530500D01*
X160736017Y-79530500D02*
X160802683Y-79563833D01*
X160802683Y-79563833D02*
X160936017Y-79563833D01*
X160936017Y-79563833D02*
X161002683Y-79530500D01*
X161002683Y-79530500D02*
X161069350Y-79463833D01*
X161069350Y-79463833D02*
X161102683Y-79330500D01*
X161102683Y-79330500D02*
X161102683Y-79097166D01*
X161102683Y-79097166D02*
X161069350Y-78963833D01*
X161069350Y-78963833D02*
X161002683Y-78897166D01*
X161002683Y-78897166D02*
X160936017Y-78863833D01*
X160369350Y-78930500D02*
X160336017Y-78897166D01*
X160336017Y-78897166D02*
X160269350Y-78863833D01*
X160269350Y-78863833D02*
X160102684Y-78863833D01*
X160102684Y-78863833D02*
X160036017Y-78897166D01*
X160036017Y-78897166D02*
X160002684Y-78930500D01*
X160002684Y-78930500D02*
X159969350Y-78997166D01*
X159969350Y-78997166D02*
X159969350Y-79063833D01*
X159969350Y-79063833D02*
X160002684Y-79163833D01*
X160002684Y-79163833D02*
X160402684Y-79563833D01*
X160402684Y-79563833D02*
X159969350Y-79563833D01*
X159336017Y-78863833D02*
X159669350Y-78863833D01*
X159669350Y-78863833D02*
X159702683Y-79197166D01*
X159702683Y-79197166D02*
X159669350Y-79163833D01*
X159669350Y-79163833D02*
X159602683Y-79130500D01*
X159602683Y-79130500D02*
X159436017Y-79130500D01*
X159436017Y-79130500D02*
X159369350Y-79163833D01*
X159369350Y-79163833D02*
X159336017Y-79197166D01*
X159336017Y-79197166D02*
X159302683Y-79263833D01*
X159302683Y-79263833D02*
X159302683Y-79430500D01*
X159302683Y-79430500D02*
X159336017Y-79497166D01*
X159336017Y-79497166D02*
X159369350Y-79530500D01*
X159369350Y-79530500D02*
X159436017Y-79563833D01*
X159436017Y-79563833D02*
X159602683Y-79563833D01*
X159602683Y-79563833D02*
X159669350Y-79530500D01*
X159669350Y-79530500D02*
X159702683Y-79497166D01*
X160292731Y-99884062D02*
X160292731Y-99184062D01*
X160292731Y-99184062D02*
X160126064Y-99184062D01*
X160126064Y-99184062D02*
X160026064Y-99217395D01*
X160026064Y-99217395D02*
X159959398Y-99284062D01*
X159959398Y-99284062D02*
X159926064Y-99350729D01*
X159926064Y-99350729D02*
X159892731Y-99484062D01*
X159892731Y-99484062D02*
X159892731Y-99584062D01*
X159892731Y-99584062D02*
X159926064Y-99717395D01*
X159926064Y-99717395D02*
X159959398Y-99784062D01*
X159959398Y-99784062D02*
X160026064Y-99850729D01*
X160026064Y-99850729D02*
X160126064Y-99884062D01*
X160126064Y-99884062D02*
X160292731Y-99884062D01*
X159659398Y-99184062D02*
X159226064Y-99184062D01*
X159226064Y-99184062D02*
X159459398Y-99450729D01*
X159459398Y-99450729D02*
X159359398Y-99450729D01*
X159359398Y-99450729D02*
X159292731Y-99484062D01*
X159292731Y-99484062D02*
X159259398Y-99517395D01*
X159259398Y-99517395D02*
X159226064Y-99584062D01*
X159226064Y-99584062D02*
X159226064Y-99750729D01*
X159226064Y-99750729D02*
X159259398Y-99817395D01*
X159259398Y-99817395D02*
X159292731Y-99850729D01*
X159292731Y-99850729D02*
X159359398Y-99884062D01*
X159359398Y-99884062D02*
X159559398Y-99884062D01*
X159559398Y-99884062D02*
X159626064Y-99850729D01*
X159626064Y-99850729D02*
X159659398Y-99817395D01*
X162309016Y-68737395D02*
X162375683Y-68704062D01*
X162375683Y-68704062D02*
X162475683Y-68704062D01*
X162475683Y-68704062D02*
X162575683Y-68737395D01*
X162575683Y-68737395D02*
X162642350Y-68804062D01*
X162642350Y-68804062D02*
X162675683Y-68870729D01*
X162675683Y-68870729D02*
X162709016Y-69004062D01*
X162709016Y-69004062D02*
X162709016Y-69104062D01*
X162709016Y-69104062D02*
X162675683Y-69237395D01*
X162675683Y-69237395D02*
X162642350Y-69304062D01*
X162642350Y-69304062D02*
X162575683Y-69370729D01*
X162575683Y-69370729D02*
X162475683Y-69404062D01*
X162475683Y-69404062D02*
X162409016Y-69404062D01*
X162409016Y-69404062D02*
X162309016Y-69370729D01*
X162309016Y-69370729D02*
X162275683Y-69337395D01*
X162275683Y-69337395D02*
X162275683Y-69104062D01*
X162275683Y-69104062D02*
X162409016Y-69104062D01*
X161975683Y-69404062D02*
X161975683Y-68704062D01*
X161975683Y-68704062D02*
X161709016Y-68704062D01*
X161709016Y-68704062D02*
X161642350Y-68737395D01*
X161642350Y-68737395D02*
X161609016Y-68770729D01*
X161609016Y-68770729D02*
X161575683Y-68837395D01*
X161575683Y-68837395D02*
X161575683Y-68937395D01*
X161575683Y-68937395D02*
X161609016Y-69004062D01*
X161609016Y-69004062D02*
X161642350Y-69037395D01*
X161642350Y-69037395D02*
X161709016Y-69070729D01*
X161709016Y-69070729D02*
X161975683Y-69070729D01*
X161275683Y-69404062D02*
X161275683Y-68704062D01*
X160809017Y-68704062D02*
X160675683Y-68704062D01*
X160675683Y-68704062D02*
X160609017Y-68737395D01*
X160609017Y-68737395D02*
X160542350Y-68804062D01*
X160542350Y-68804062D02*
X160509017Y-68937395D01*
X160509017Y-68937395D02*
X160509017Y-69170729D01*
X160509017Y-69170729D02*
X160542350Y-69304062D01*
X160542350Y-69304062D02*
X160609017Y-69370729D01*
X160609017Y-69370729D02*
X160675683Y-69404062D01*
X160675683Y-69404062D02*
X160809017Y-69404062D01*
X160809017Y-69404062D02*
X160875683Y-69370729D01*
X160875683Y-69370729D02*
X160942350Y-69304062D01*
X160942350Y-69304062D02*
X160975683Y-69170729D01*
X160975683Y-69170729D02*
X160975683Y-68937395D01*
X160975683Y-68937395D02*
X160942350Y-68804062D01*
X160942350Y-68804062D02*
X160875683Y-68737395D01*
X160875683Y-68737395D02*
X160809017Y-68704062D01*
X160275684Y-68704062D02*
X159842350Y-68704062D01*
X159842350Y-68704062D02*
X160075684Y-68970729D01*
X160075684Y-68970729D02*
X159975684Y-68970729D01*
X159975684Y-68970729D02*
X159909017Y-69004062D01*
X159909017Y-69004062D02*
X159875684Y-69037395D01*
X159875684Y-69037395D02*
X159842350Y-69104062D01*
X159842350Y-69104062D02*
X159842350Y-69270729D01*
X159842350Y-69270729D02*
X159875684Y-69337395D01*
X159875684Y-69337395D02*
X159909017Y-69370729D01*
X159909017Y-69370729D02*
X159975684Y-69404062D01*
X159975684Y-69404062D02*
X160175684Y-69404062D01*
X160175684Y-69404062D02*
X160242350Y-69370729D01*
X160242350Y-69370729D02*
X160275684Y-69337395D01*
X159242350Y-68937395D02*
X159242350Y-69404062D01*
X159409017Y-68670729D02*
X159575683Y-69170729D01*
X159575683Y-69170729D02*
X159142350Y-69170729D01*
X181101146Y-73670467D02*
X181196384Y-73622848D01*
X181196384Y-73622848D02*
X181339241Y-73622848D01*
X181339241Y-73622848D02*
X181482098Y-73670467D01*
X181482098Y-73670467D02*
X181577336Y-73765705D01*
X181577336Y-73765705D02*
X181624955Y-73860943D01*
X181624955Y-73860943D02*
X181672574Y-74051419D01*
X181672574Y-74051419D02*
X181672574Y-74194276D01*
X181672574Y-74194276D02*
X181624955Y-74384752D01*
X181624955Y-74384752D02*
X181577336Y-74479990D01*
X181577336Y-74479990D02*
X181482098Y-74575229D01*
X181482098Y-74575229D02*
X181339241Y-74622848D01*
X181339241Y-74622848D02*
X181244003Y-74622848D01*
X181244003Y-74622848D02*
X181101146Y-74575229D01*
X181101146Y-74575229D02*
X181053527Y-74527609D01*
X181053527Y-74527609D02*
X181053527Y-74194276D01*
X181053527Y-74194276D02*
X181244003Y-74194276D01*
X180624955Y-74622848D02*
X180624955Y-73622848D01*
X180624955Y-73622848D02*
X180053527Y-74622848D01*
X180053527Y-74622848D02*
X180053527Y-73622848D01*
X179577336Y-74622848D02*
X179577336Y-73622848D01*
X179577336Y-73622848D02*
X179339241Y-73622848D01*
X179339241Y-73622848D02*
X179196384Y-73670467D01*
X179196384Y-73670467D02*
X179101146Y-73765705D01*
X179101146Y-73765705D02*
X179053527Y-73860943D01*
X179053527Y-73860943D02*
X179005908Y-74051419D01*
X179005908Y-74051419D02*
X179005908Y-74194276D01*
X179005908Y-74194276D02*
X179053527Y-74384752D01*
X179053527Y-74384752D02*
X179101146Y-74479990D01*
X179101146Y-74479990D02*
X179196384Y-74575229D01*
X179196384Y-74575229D02*
X179339241Y-74622848D01*
X179339241Y-74622848D02*
X179577336Y-74622848D01*
X181269717Y-71277395D02*
X181336384Y-71244062D01*
X181336384Y-71244062D02*
X181436384Y-71244062D01*
X181436384Y-71244062D02*
X181536384Y-71277395D01*
X181536384Y-71277395D02*
X181603051Y-71344062D01*
X181603051Y-71344062D02*
X181636384Y-71410729D01*
X181636384Y-71410729D02*
X181669717Y-71544062D01*
X181669717Y-71544062D02*
X181669717Y-71644062D01*
X181669717Y-71644062D02*
X181636384Y-71777395D01*
X181636384Y-71777395D02*
X181603051Y-71844062D01*
X181603051Y-71844062D02*
X181536384Y-71910729D01*
X181536384Y-71910729D02*
X181436384Y-71944062D01*
X181436384Y-71944062D02*
X181369717Y-71944062D01*
X181369717Y-71944062D02*
X181269717Y-71910729D01*
X181269717Y-71910729D02*
X181236384Y-71877395D01*
X181236384Y-71877395D02*
X181236384Y-71644062D01*
X181236384Y-71644062D02*
X181369717Y-71644062D01*
X180936384Y-71944062D02*
X180936384Y-71244062D01*
X180936384Y-71244062D02*
X180669717Y-71244062D01*
X180669717Y-71244062D02*
X180603051Y-71277395D01*
X180603051Y-71277395D02*
X180569717Y-71310729D01*
X180569717Y-71310729D02*
X180536384Y-71377395D01*
X180536384Y-71377395D02*
X180536384Y-71477395D01*
X180536384Y-71477395D02*
X180569717Y-71544062D01*
X180569717Y-71544062D02*
X180603051Y-71577395D01*
X180603051Y-71577395D02*
X180669717Y-71610729D01*
X180669717Y-71610729D02*
X180936384Y-71610729D01*
X180236384Y-71944062D02*
X180236384Y-71244062D01*
X179769718Y-71244062D02*
X179636384Y-71244062D01*
X179636384Y-71244062D02*
X179569718Y-71277395D01*
X179569718Y-71277395D02*
X179503051Y-71344062D01*
X179503051Y-71344062D02*
X179469718Y-71477395D01*
X179469718Y-71477395D02*
X179469718Y-71710729D01*
X179469718Y-71710729D02*
X179503051Y-71844062D01*
X179503051Y-71844062D02*
X179569718Y-71910729D01*
X179569718Y-71910729D02*
X179636384Y-71944062D01*
X179636384Y-71944062D02*
X179769718Y-71944062D01*
X179769718Y-71944062D02*
X179836384Y-71910729D01*
X179836384Y-71910729D02*
X179903051Y-71844062D01*
X179903051Y-71844062D02*
X179936384Y-71710729D01*
X179936384Y-71710729D02*
X179936384Y-71477395D01*
X179936384Y-71477395D02*
X179903051Y-71344062D01*
X179903051Y-71344062D02*
X179836384Y-71277395D01*
X179836384Y-71277395D02*
X179769718Y-71244062D01*
X179203051Y-71310729D02*
X179169718Y-71277395D01*
X179169718Y-71277395D02*
X179103051Y-71244062D01*
X179103051Y-71244062D02*
X178936385Y-71244062D01*
X178936385Y-71244062D02*
X178869718Y-71277395D01*
X178869718Y-71277395D02*
X178836385Y-71310729D01*
X178836385Y-71310729D02*
X178803051Y-71377395D01*
X178803051Y-71377395D02*
X178803051Y-71444062D01*
X178803051Y-71444062D02*
X178836385Y-71544062D01*
X178836385Y-71544062D02*
X179236385Y-71944062D01*
X179236385Y-71944062D02*
X178803051Y-71944062D01*
X178136384Y-71944062D02*
X178536384Y-71944062D01*
X178336384Y-71944062D02*
X178336384Y-71244062D01*
X178336384Y-71244062D02*
X178403051Y-71344062D01*
X178403051Y-71344062D02*
X178469718Y-71410729D01*
X178469718Y-71410729D02*
X178536384Y-71444062D01*
D12*
X181545965Y-102470615D02*
X181545965Y-101670615D01*
X181545965Y-101670615D02*
X181355489Y-101670615D01*
X181355489Y-101670615D02*
X181241203Y-101708710D01*
X181241203Y-101708710D02*
X181165013Y-101784900D01*
X181165013Y-101784900D02*
X181126918Y-101861091D01*
X181126918Y-101861091D02*
X181088822Y-102013472D01*
X181088822Y-102013472D02*
X181088822Y-102127758D01*
X181088822Y-102127758D02*
X181126918Y-102280139D01*
X181126918Y-102280139D02*
X181165013Y-102356329D01*
X181165013Y-102356329D02*
X181241203Y-102432520D01*
X181241203Y-102432520D02*
X181355489Y-102470615D01*
X181355489Y-102470615D02*
X181545965Y-102470615D01*
X180593584Y-101670615D02*
X180517394Y-101670615D01*
X180517394Y-101670615D02*
X180441203Y-101708710D01*
X180441203Y-101708710D02*
X180403108Y-101746805D01*
X180403108Y-101746805D02*
X180365013Y-101822996D01*
X180365013Y-101822996D02*
X180326918Y-101975377D01*
X180326918Y-101975377D02*
X180326918Y-102165853D01*
X180326918Y-102165853D02*
X180365013Y-102318234D01*
X180365013Y-102318234D02*
X180403108Y-102394424D01*
X180403108Y-102394424D02*
X180441203Y-102432520D01*
X180441203Y-102432520D02*
X180517394Y-102470615D01*
X180517394Y-102470615D02*
X180593584Y-102470615D01*
X180593584Y-102470615D02*
X180669775Y-102432520D01*
X180669775Y-102432520D02*
X180707870Y-102394424D01*
X180707870Y-102394424D02*
X180745965Y-102318234D01*
X180745965Y-102318234D02*
X180784061Y-102165853D01*
X180784061Y-102165853D02*
X180784061Y-101975377D01*
X180784061Y-101975377D02*
X180745965Y-101822996D01*
X180745965Y-101822996D02*
X180707870Y-101746805D01*
X180707870Y-101746805D02*
X180669775Y-101708710D01*
X180669775Y-101708710D02*
X180593584Y-101670615D01*
D11*
X181381116Y-99883833D02*
X181381116Y-99183833D01*
X181381116Y-99183833D02*
X181214449Y-99183833D01*
X181214449Y-99183833D02*
X181114449Y-99217166D01*
X181114449Y-99217166D02*
X181047783Y-99283833D01*
X181047783Y-99283833D02*
X181014449Y-99350500D01*
X181014449Y-99350500D02*
X180981116Y-99483833D01*
X180981116Y-99483833D02*
X180981116Y-99583833D01*
X180981116Y-99583833D02*
X181014449Y-99717166D01*
X181014449Y-99717166D02*
X181047783Y-99783833D01*
X181047783Y-99783833D02*
X181114449Y-99850500D01*
X181114449Y-99850500D02*
X181214449Y-99883833D01*
X181214449Y-99883833D02*
X181381116Y-99883833D01*
X180314449Y-99883833D02*
X180714449Y-99883833D01*
X180514449Y-99883833D02*
X180514449Y-99183833D01*
X180514449Y-99183833D02*
X180581116Y-99283833D01*
X180581116Y-99283833D02*
X180647783Y-99350500D01*
X180647783Y-99350500D02*
X180714449Y-99383833D01*
X181269717Y-68737395D02*
X181336384Y-68704062D01*
X181336384Y-68704062D02*
X181436384Y-68704062D01*
X181436384Y-68704062D02*
X181536384Y-68737395D01*
X181536384Y-68737395D02*
X181603051Y-68804062D01*
X181603051Y-68804062D02*
X181636384Y-68870729D01*
X181636384Y-68870729D02*
X181669717Y-69004062D01*
X181669717Y-69004062D02*
X181669717Y-69104062D01*
X181669717Y-69104062D02*
X181636384Y-69237395D01*
X181636384Y-69237395D02*
X181603051Y-69304062D01*
X181603051Y-69304062D02*
X181536384Y-69370729D01*
X181536384Y-69370729D02*
X181436384Y-69404062D01*
X181436384Y-69404062D02*
X181369717Y-69404062D01*
X181369717Y-69404062D02*
X181269717Y-69370729D01*
X181269717Y-69370729D02*
X181236384Y-69337395D01*
X181236384Y-69337395D02*
X181236384Y-69104062D01*
X181236384Y-69104062D02*
X181369717Y-69104062D01*
X180936384Y-69404062D02*
X180936384Y-68704062D01*
X180936384Y-68704062D02*
X180669717Y-68704062D01*
X180669717Y-68704062D02*
X180603051Y-68737395D01*
X180603051Y-68737395D02*
X180569717Y-68770729D01*
X180569717Y-68770729D02*
X180536384Y-68837395D01*
X180536384Y-68837395D02*
X180536384Y-68937395D01*
X180536384Y-68937395D02*
X180569717Y-69004062D01*
X180569717Y-69004062D02*
X180603051Y-69037395D01*
X180603051Y-69037395D02*
X180669717Y-69070729D01*
X180669717Y-69070729D02*
X180936384Y-69070729D01*
X180236384Y-69404062D02*
X180236384Y-68704062D01*
X179769718Y-68704062D02*
X179636384Y-68704062D01*
X179636384Y-68704062D02*
X179569718Y-68737395D01*
X179569718Y-68737395D02*
X179503051Y-68804062D01*
X179503051Y-68804062D02*
X179469718Y-68937395D01*
X179469718Y-68937395D02*
X179469718Y-69170729D01*
X179469718Y-69170729D02*
X179503051Y-69304062D01*
X179503051Y-69304062D02*
X179569718Y-69370729D01*
X179569718Y-69370729D02*
X179636384Y-69404062D01*
X179636384Y-69404062D02*
X179769718Y-69404062D01*
X179769718Y-69404062D02*
X179836384Y-69370729D01*
X179836384Y-69370729D02*
X179903051Y-69304062D01*
X179903051Y-69304062D02*
X179936384Y-69170729D01*
X179936384Y-69170729D02*
X179936384Y-68937395D01*
X179936384Y-68937395D02*
X179903051Y-68804062D01*
X179903051Y-68804062D02*
X179836384Y-68737395D01*
X179836384Y-68737395D02*
X179769718Y-68704062D01*
X179236385Y-68704062D02*
X178803051Y-68704062D01*
X178803051Y-68704062D02*
X179036385Y-68970729D01*
X179036385Y-68970729D02*
X178936385Y-68970729D01*
X178936385Y-68970729D02*
X178869718Y-69004062D01*
X178869718Y-69004062D02*
X178836385Y-69037395D01*
X178836385Y-69037395D02*
X178803051Y-69104062D01*
X178803051Y-69104062D02*
X178803051Y-69270729D01*
X178803051Y-69270729D02*
X178836385Y-69337395D01*
X178836385Y-69337395D02*
X178869718Y-69370729D01*
X178869718Y-69370729D02*
X178936385Y-69404062D01*
X178936385Y-69404062D02*
X179136385Y-69404062D01*
X179136385Y-69404062D02*
X179203051Y-69370729D01*
X179203051Y-69370729D02*
X179236385Y-69337395D01*
X178003051Y-68670729D02*
X178603051Y-69570729D01*
X177769718Y-68704062D02*
X177769718Y-69270729D01*
X177769718Y-69270729D02*
X177736385Y-69337395D01*
X177736385Y-69337395D02*
X177703051Y-69370729D01*
X177703051Y-69370729D02*
X177636385Y-69404062D01*
X177636385Y-69404062D02*
X177503051Y-69404062D01*
X177503051Y-69404062D02*
X177436385Y-69370729D01*
X177436385Y-69370729D02*
X177403051Y-69337395D01*
X177403051Y-69337395D02*
X177369718Y-69270729D01*
X177369718Y-69270729D02*
X177369718Y-68704062D01*
X176903052Y-68704062D02*
X176836385Y-68704062D01*
X176836385Y-68704062D02*
X176769718Y-68737395D01*
X176769718Y-68737395D02*
X176736385Y-68770729D01*
X176736385Y-68770729D02*
X176703052Y-68837395D01*
X176703052Y-68837395D02*
X176669718Y-68970729D01*
X176669718Y-68970729D02*
X176669718Y-69137395D01*
X176669718Y-69137395D02*
X176703052Y-69270729D01*
X176703052Y-69270729D02*
X176736385Y-69337395D01*
X176736385Y-69337395D02*
X176769718Y-69370729D01*
X176769718Y-69370729D02*
X176836385Y-69404062D01*
X176836385Y-69404062D02*
X176903052Y-69404062D01*
X176903052Y-69404062D02*
X176969718Y-69370729D01*
X176969718Y-69370729D02*
X177003052Y-69337395D01*
X177003052Y-69337395D02*
X177036385Y-69270729D01*
X177036385Y-69270729D02*
X177069718Y-69137395D01*
X177069718Y-69137395D02*
X177069718Y-68970729D01*
X177069718Y-68970729D02*
X177036385Y-68837395D01*
X177036385Y-68837395D02*
X177003052Y-68770729D01*
X177003052Y-68770729D02*
X176969718Y-68737395D01*
X176969718Y-68737395D02*
X176903052Y-68704062D01*
X175969718Y-69404062D02*
X176203051Y-69070729D01*
X176369718Y-69404062D02*
X176369718Y-68704062D01*
X176369718Y-68704062D02*
X176103051Y-68704062D01*
X176103051Y-68704062D02*
X176036385Y-68737395D01*
X176036385Y-68737395D02*
X176003051Y-68770729D01*
X176003051Y-68770729D02*
X175969718Y-68837395D01*
X175969718Y-68837395D02*
X175969718Y-68937395D01*
X175969718Y-68937395D02*
X176003051Y-69004062D01*
X176003051Y-69004062D02*
X176036385Y-69037395D01*
X176036385Y-69037395D02*
X176103051Y-69070729D01*
X176103051Y-69070729D02*
X176369718Y-69070729D01*
X175736385Y-68704062D02*
X175269718Y-69404062D01*
X175269718Y-68704062D02*
X175736385Y-69404062D01*
X175003051Y-69404062D02*
X175003051Y-68704062D01*
X175003051Y-68704062D02*
X174836384Y-68704062D01*
X174836384Y-68704062D02*
X174736384Y-68737395D01*
X174736384Y-68737395D02*
X174669718Y-68804062D01*
X174669718Y-68804062D02*
X174636384Y-68870729D01*
X174636384Y-68870729D02*
X174603051Y-69004062D01*
X174603051Y-69004062D02*
X174603051Y-69104062D01*
X174603051Y-69104062D02*
X174636384Y-69237395D01*
X174636384Y-69237395D02*
X174669718Y-69304062D01*
X174669718Y-69304062D02*
X174736384Y-69370729D01*
X174736384Y-69370729D02*
X174836384Y-69404062D01*
X174836384Y-69404062D02*
X175003051Y-69404062D01*
X180311432Y-58430467D02*
X180406670Y-58382848D01*
X180406670Y-58382848D02*
X180549527Y-58382848D01*
X180549527Y-58382848D02*
X180692384Y-58430467D01*
X180692384Y-58430467D02*
X180787622Y-58525705D01*
X180787622Y-58525705D02*
X180835241Y-58620943D01*
X180835241Y-58620943D02*
X180882860Y-58811419D01*
X180882860Y-58811419D02*
X180882860Y-58954276D01*
X180882860Y-58954276D02*
X180835241Y-59144752D01*
X180835241Y-59144752D02*
X180787622Y-59239990D01*
X180787622Y-59239990D02*
X180692384Y-59335229D01*
X180692384Y-59335229D02*
X180549527Y-59382848D01*
X180549527Y-59382848D02*
X180454289Y-59382848D01*
X180454289Y-59382848D02*
X180311432Y-59335229D01*
X180311432Y-59335229D02*
X180263813Y-59287609D01*
X180263813Y-59287609D02*
X180263813Y-58954276D01*
X180263813Y-58954276D02*
X180454289Y-58954276D01*
X179835241Y-59382848D02*
X179835241Y-58382848D01*
X179835241Y-58382848D02*
X179263813Y-59382848D01*
X179263813Y-59382848D02*
X179263813Y-58382848D01*
X178787622Y-59382848D02*
X178787622Y-58382848D01*
X178787622Y-58382848D02*
X178549527Y-58382848D01*
X178549527Y-58382848D02*
X178406670Y-58430467D01*
X178406670Y-58430467D02*
X178311432Y-58525705D01*
X178311432Y-58525705D02*
X178263813Y-58620943D01*
X178263813Y-58620943D02*
X178216194Y-58811419D01*
X178216194Y-58811419D02*
X178216194Y-58954276D01*
X178216194Y-58954276D02*
X178263813Y-59144752D01*
X178263813Y-59144752D02*
X178311432Y-59239990D01*
X178311432Y-59239990D02*
X178406670Y-59335229D01*
X178406670Y-59335229D02*
X178549527Y-59382848D01*
X178549527Y-59382848D02*
X178787622Y-59382848D01*
X181292384Y-63784395D02*
X181359051Y-63751062D01*
X181359051Y-63751062D02*
X181459051Y-63751062D01*
X181459051Y-63751062D02*
X181559051Y-63784395D01*
X181559051Y-63784395D02*
X181625718Y-63851062D01*
X181625718Y-63851062D02*
X181659051Y-63917729D01*
X181659051Y-63917729D02*
X181692384Y-64051062D01*
X181692384Y-64051062D02*
X181692384Y-64151062D01*
X181692384Y-64151062D02*
X181659051Y-64284395D01*
X181659051Y-64284395D02*
X181625718Y-64351062D01*
X181625718Y-64351062D02*
X181559051Y-64417729D01*
X181559051Y-64417729D02*
X181459051Y-64451062D01*
X181459051Y-64451062D02*
X181392384Y-64451062D01*
X181392384Y-64451062D02*
X181292384Y-64417729D01*
X181292384Y-64417729D02*
X181259051Y-64384395D01*
X181259051Y-64384395D02*
X181259051Y-64151062D01*
X181259051Y-64151062D02*
X181392384Y-64151062D01*
X180959051Y-64451062D02*
X180959051Y-63751062D01*
X180959051Y-63751062D02*
X180692384Y-63751062D01*
X180692384Y-63751062D02*
X180625718Y-63784395D01*
X180625718Y-63784395D02*
X180592384Y-63817729D01*
X180592384Y-63817729D02*
X180559051Y-63884395D01*
X180559051Y-63884395D02*
X180559051Y-63984395D01*
X180559051Y-63984395D02*
X180592384Y-64051062D01*
X180592384Y-64051062D02*
X180625718Y-64084395D01*
X180625718Y-64084395D02*
X180692384Y-64117729D01*
X180692384Y-64117729D02*
X180959051Y-64117729D01*
X180259051Y-64451062D02*
X180259051Y-63751062D01*
X179792385Y-63751062D02*
X179659051Y-63751062D01*
X179659051Y-63751062D02*
X179592385Y-63784395D01*
X179592385Y-63784395D02*
X179525718Y-63851062D01*
X179525718Y-63851062D02*
X179492385Y-63984395D01*
X179492385Y-63984395D02*
X179492385Y-64217729D01*
X179492385Y-64217729D02*
X179525718Y-64351062D01*
X179525718Y-64351062D02*
X179592385Y-64417729D01*
X179592385Y-64417729D02*
X179659051Y-64451062D01*
X179659051Y-64451062D02*
X179792385Y-64451062D01*
X179792385Y-64451062D02*
X179859051Y-64417729D01*
X179859051Y-64417729D02*
X179925718Y-64351062D01*
X179925718Y-64351062D02*
X179959051Y-64217729D01*
X179959051Y-64217729D02*
X179959051Y-63984395D01*
X179959051Y-63984395D02*
X179925718Y-63851062D01*
X179925718Y-63851062D02*
X179859051Y-63784395D01*
X179859051Y-63784395D02*
X179792385Y-63751062D01*
X179225718Y-63817729D02*
X179192385Y-63784395D01*
X179192385Y-63784395D02*
X179125718Y-63751062D01*
X179125718Y-63751062D02*
X178959052Y-63751062D01*
X178959052Y-63751062D02*
X178892385Y-63784395D01*
X178892385Y-63784395D02*
X178859052Y-63817729D01*
X178859052Y-63817729D02*
X178825718Y-63884395D01*
X178825718Y-63884395D02*
X178825718Y-63951062D01*
X178825718Y-63951062D02*
X178859052Y-64051062D01*
X178859052Y-64051062D02*
X179259052Y-64451062D01*
X179259052Y-64451062D02*
X178825718Y-64451062D01*
X178559051Y-63817729D02*
X178525718Y-63784395D01*
X178525718Y-63784395D02*
X178459051Y-63751062D01*
X178459051Y-63751062D02*
X178292385Y-63751062D01*
X178292385Y-63751062D02*
X178225718Y-63784395D01*
X178225718Y-63784395D02*
X178192385Y-63817729D01*
X178192385Y-63817729D02*
X178159051Y-63884395D01*
X178159051Y-63884395D02*
X178159051Y-63951062D01*
X178159051Y-63951062D02*
X178192385Y-64051062D01*
X178192385Y-64051062D02*
X178592385Y-64451062D01*
X178592385Y-64451062D02*
X178159051Y-64451062D01*
X181014449Y-96677166D02*
X181081116Y-96643833D01*
X181081116Y-96643833D02*
X181181116Y-96643833D01*
X181181116Y-96643833D02*
X181281116Y-96677166D01*
X181281116Y-96677166D02*
X181347783Y-96743833D01*
X181347783Y-96743833D02*
X181381116Y-96810500D01*
X181381116Y-96810500D02*
X181414449Y-96943833D01*
X181414449Y-96943833D02*
X181414449Y-97043833D01*
X181414449Y-97043833D02*
X181381116Y-97177166D01*
X181381116Y-97177166D02*
X181347783Y-97243833D01*
X181347783Y-97243833D02*
X181281116Y-97310500D01*
X181281116Y-97310500D02*
X181181116Y-97343833D01*
X181181116Y-97343833D02*
X181114449Y-97343833D01*
X181114449Y-97343833D02*
X181014449Y-97310500D01*
X181014449Y-97310500D02*
X180981116Y-97277166D01*
X180981116Y-97277166D02*
X180981116Y-97043833D01*
X180981116Y-97043833D02*
X181114449Y-97043833D01*
X180681116Y-97343833D02*
X180681116Y-96643833D01*
X180681116Y-96643833D02*
X180414449Y-96643833D01*
X180414449Y-96643833D02*
X180347783Y-96677166D01*
X180347783Y-96677166D02*
X180314449Y-96710500D01*
X180314449Y-96710500D02*
X180281116Y-96777166D01*
X180281116Y-96777166D02*
X180281116Y-96877166D01*
X180281116Y-96877166D02*
X180314449Y-96943833D01*
X180314449Y-96943833D02*
X180347783Y-96977166D01*
X180347783Y-96977166D02*
X180414449Y-97010500D01*
X180414449Y-97010500D02*
X180681116Y-97010500D01*
X179981116Y-97343833D02*
X179981116Y-96643833D01*
X179514450Y-96643833D02*
X179381116Y-96643833D01*
X179381116Y-96643833D02*
X179314450Y-96677166D01*
X179314450Y-96677166D02*
X179247783Y-96743833D01*
X179247783Y-96743833D02*
X179214450Y-96877166D01*
X179214450Y-96877166D02*
X179214450Y-97110500D01*
X179214450Y-97110500D02*
X179247783Y-97243833D01*
X179247783Y-97243833D02*
X179314450Y-97310500D01*
X179314450Y-97310500D02*
X179381116Y-97343833D01*
X179381116Y-97343833D02*
X179514450Y-97343833D01*
X179514450Y-97343833D02*
X179581116Y-97310500D01*
X179581116Y-97310500D02*
X179647783Y-97243833D01*
X179647783Y-97243833D02*
X179681116Y-97110500D01*
X179681116Y-97110500D02*
X179681116Y-96877166D01*
X179681116Y-96877166D02*
X179647783Y-96743833D01*
X179647783Y-96743833D02*
X179581116Y-96677166D01*
X179581116Y-96677166D02*
X179514450Y-96643833D01*
X178547783Y-97343833D02*
X178947783Y-97343833D01*
X178747783Y-97343833D02*
X178747783Y-96643833D01*
X178747783Y-96643833D02*
X178814450Y-96743833D01*
X178814450Y-96743833D02*
X178881117Y-96810500D01*
X178881117Y-96810500D02*
X178947783Y-96843833D01*
X177914450Y-96643833D02*
X178247783Y-96643833D01*
X178247783Y-96643833D02*
X178281116Y-96977166D01*
X178281116Y-96977166D02*
X178247783Y-96943833D01*
X178247783Y-96943833D02*
X178181116Y-96910500D01*
X178181116Y-96910500D02*
X178014450Y-96910500D01*
X178014450Y-96910500D02*
X177947783Y-96943833D01*
X177947783Y-96943833D02*
X177914450Y-96977166D01*
X177914450Y-96977166D02*
X177881116Y-97043833D01*
X177881116Y-97043833D02*
X177881116Y-97210500D01*
X177881116Y-97210500D02*
X177914450Y-97277166D01*
X177914450Y-97277166D02*
X177947783Y-97310500D01*
X177947783Y-97310500D02*
X178014450Y-97343833D01*
X178014450Y-97343833D02*
X178181116Y-97343833D01*
X178181116Y-97343833D02*
X178247783Y-97310500D01*
X178247783Y-97310500D02*
X178281116Y-97277166D01*
X177081116Y-96610500D02*
X177681116Y-97510500D01*
X176847783Y-97343833D02*
X176847783Y-96643833D01*
X176847783Y-96643833D02*
X176614450Y-97143833D01*
X176614450Y-97143833D02*
X176381116Y-96643833D01*
X176381116Y-96643833D02*
X176381116Y-97343833D01*
X176147783Y-96643833D02*
X175747783Y-96643833D01*
X175947783Y-97343833D02*
X175947783Y-96643833D01*
X175514450Y-97343833D02*
X175514450Y-96643833D01*
X175514450Y-96643833D02*
X175347783Y-96643833D01*
X175347783Y-96643833D02*
X175247783Y-96677166D01*
X175247783Y-96677166D02*
X175181117Y-96743833D01*
X175181117Y-96743833D02*
X175147783Y-96810500D01*
X175147783Y-96810500D02*
X175114450Y-96943833D01*
X175114450Y-96943833D02*
X175114450Y-97043833D01*
X175114450Y-97043833D02*
X175147783Y-97177166D01*
X175147783Y-97177166D02*
X175181117Y-97243833D01*
X175181117Y-97243833D02*
X175247783Y-97310500D01*
X175247783Y-97310500D02*
X175347783Y-97343833D01*
X175347783Y-97343833D02*
X175514450Y-97343833D01*
X174681117Y-96643833D02*
X174547783Y-96643833D01*
X174547783Y-96643833D02*
X174481117Y-96677166D01*
X174481117Y-96677166D02*
X174414450Y-96743833D01*
X174414450Y-96743833D02*
X174381117Y-96877166D01*
X174381117Y-96877166D02*
X174381117Y-97110500D01*
X174381117Y-97110500D02*
X174414450Y-97243833D01*
X174414450Y-97243833D02*
X174481117Y-97310500D01*
X174481117Y-97310500D02*
X174547783Y-97343833D01*
X174547783Y-97343833D02*
X174681117Y-97343833D01*
X174681117Y-97343833D02*
X174747783Y-97310500D01*
X174747783Y-97310500D02*
X174814450Y-97243833D01*
X174814450Y-97243833D02*
X174847783Y-97110500D01*
X174847783Y-97110500D02*
X174847783Y-96877166D01*
X174847783Y-96877166D02*
X174814450Y-96743833D01*
X174814450Y-96743833D02*
X174747783Y-96677166D01*
X174747783Y-96677166D02*
X174681117Y-96643833D01*
X181269717Y-66197395D02*
X181336384Y-66164062D01*
X181336384Y-66164062D02*
X181436384Y-66164062D01*
X181436384Y-66164062D02*
X181536384Y-66197395D01*
X181536384Y-66197395D02*
X181603051Y-66264062D01*
X181603051Y-66264062D02*
X181636384Y-66330729D01*
X181636384Y-66330729D02*
X181669717Y-66464062D01*
X181669717Y-66464062D02*
X181669717Y-66564062D01*
X181669717Y-66564062D02*
X181636384Y-66697395D01*
X181636384Y-66697395D02*
X181603051Y-66764062D01*
X181603051Y-66764062D02*
X181536384Y-66830729D01*
X181536384Y-66830729D02*
X181436384Y-66864062D01*
X181436384Y-66864062D02*
X181369717Y-66864062D01*
X181369717Y-66864062D02*
X181269717Y-66830729D01*
X181269717Y-66830729D02*
X181236384Y-66797395D01*
X181236384Y-66797395D02*
X181236384Y-66564062D01*
X181236384Y-66564062D02*
X181369717Y-66564062D01*
X180936384Y-66864062D02*
X180936384Y-66164062D01*
X180936384Y-66164062D02*
X180669717Y-66164062D01*
X180669717Y-66164062D02*
X180603051Y-66197395D01*
X180603051Y-66197395D02*
X180569717Y-66230729D01*
X180569717Y-66230729D02*
X180536384Y-66297395D01*
X180536384Y-66297395D02*
X180536384Y-66397395D01*
X180536384Y-66397395D02*
X180569717Y-66464062D01*
X180569717Y-66464062D02*
X180603051Y-66497395D01*
X180603051Y-66497395D02*
X180669717Y-66530729D01*
X180669717Y-66530729D02*
X180936384Y-66530729D01*
X180236384Y-66864062D02*
X180236384Y-66164062D01*
X179769718Y-66164062D02*
X179636384Y-66164062D01*
X179636384Y-66164062D02*
X179569718Y-66197395D01*
X179569718Y-66197395D02*
X179503051Y-66264062D01*
X179503051Y-66264062D02*
X179469718Y-66397395D01*
X179469718Y-66397395D02*
X179469718Y-66630729D01*
X179469718Y-66630729D02*
X179503051Y-66764062D01*
X179503051Y-66764062D02*
X179569718Y-66830729D01*
X179569718Y-66830729D02*
X179636384Y-66864062D01*
X179636384Y-66864062D02*
X179769718Y-66864062D01*
X179769718Y-66864062D02*
X179836384Y-66830729D01*
X179836384Y-66830729D02*
X179903051Y-66764062D01*
X179903051Y-66764062D02*
X179936384Y-66630729D01*
X179936384Y-66630729D02*
X179936384Y-66397395D01*
X179936384Y-66397395D02*
X179903051Y-66264062D01*
X179903051Y-66264062D02*
X179836384Y-66197395D01*
X179836384Y-66197395D02*
X179769718Y-66164062D01*
X178803051Y-66864062D02*
X179203051Y-66864062D01*
X179003051Y-66864062D02*
X179003051Y-66164062D01*
X179003051Y-66164062D02*
X179069718Y-66264062D01*
X179069718Y-66264062D02*
X179136385Y-66330729D01*
X179136385Y-66330729D02*
X179203051Y-66364062D01*
X178003051Y-66130729D02*
X178603051Y-67030729D01*
X177769718Y-66164062D02*
X177769718Y-66730729D01*
X177769718Y-66730729D02*
X177736385Y-66797395D01*
X177736385Y-66797395D02*
X177703051Y-66830729D01*
X177703051Y-66830729D02*
X177636385Y-66864062D01*
X177636385Y-66864062D02*
X177503051Y-66864062D01*
X177503051Y-66864062D02*
X177436385Y-66830729D01*
X177436385Y-66830729D02*
X177403051Y-66797395D01*
X177403051Y-66797395D02*
X177369718Y-66730729D01*
X177369718Y-66730729D02*
X177369718Y-66164062D01*
X176903052Y-66164062D02*
X176836385Y-66164062D01*
X176836385Y-66164062D02*
X176769718Y-66197395D01*
X176769718Y-66197395D02*
X176736385Y-66230729D01*
X176736385Y-66230729D02*
X176703052Y-66297395D01*
X176703052Y-66297395D02*
X176669718Y-66430729D01*
X176669718Y-66430729D02*
X176669718Y-66597395D01*
X176669718Y-66597395D02*
X176703052Y-66730729D01*
X176703052Y-66730729D02*
X176736385Y-66797395D01*
X176736385Y-66797395D02*
X176769718Y-66830729D01*
X176769718Y-66830729D02*
X176836385Y-66864062D01*
X176836385Y-66864062D02*
X176903052Y-66864062D01*
X176903052Y-66864062D02*
X176969718Y-66830729D01*
X176969718Y-66830729D02*
X177003052Y-66797395D01*
X177003052Y-66797395D02*
X177036385Y-66730729D01*
X177036385Y-66730729D02*
X177069718Y-66597395D01*
X177069718Y-66597395D02*
X177069718Y-66430729D01*
X177069718Y-66430729D02*
X177036385Y-66297395D01*
X177036385Y-66297395D02*
X177003052Y-66230729D01*
X177003052Y-66230729D02*
X176969718Y-66197395D01*
X176969718Y-66197395D02*
X176903052Y-66164062D01*
X176469718Y-66164062D02*
X176069718Y-66164062D01*
X176269718Y-66864062D02*
X176269718Y-66164062D01*
X175903052Y-66164062D02*
X175436385Y-66864062D01*
X175436385Y-66164062D02*
X175903052Y-66864062D01*
X175169718Y-66864062D02*
X175169718Y-66164062D01*
X175169718Y-66164062D02*
X175003051Y-66164062D01*
X175003051Y-66164062D02*
X174903051Y-66197395D01*
X174903051Y-66197395D02*
X174836385Y-66264062D01*
X174836385Y-66264062D02*
X174803051Y-66330729D01*
X174803051Y-66330729D02*
X174769718Y-66464062D01*
X174769718Y-66464062D02*
X174769718Y-66564062D01*
X174769718Y-66564062D02*
X174803051Y-66697395D01*
X174803051Y-66697395D02*
X174836385Y-66764062D01*
X174836385Y-66764062D02*
X174903051Y-66830729D01*
X174903051Y-66830729D02*
X175003051Y-66864062D01*
X175003051Y-66864062D02*
X175169718Y-66864062D01*
X141742419Y-74665342D02*
X141266228Y-74332009D01*
X141742419Y-74093914D02*
X140742419Y-74093914D01*
X140742419Y-74093914D02*
X140742419Y-74474866D01*
X140742419Y-74474866D02*
X140790038Y-74570104D01*
X140790038Y-74570104D02*
X140837657Y-74617723D01*
X140837657Y-74617723D02*
X140932895Y-74665342D01*
X140932895Y-74665342D02*
X141075752Y-74665342D01*
X141075752Y-74665342D02*
X141170990Y-74617723D01*
X141170990Y-74617723D02*
X141218609Y-74570104D01*
X141218609Y-74570104D02*
X141266228Y-74474866D01*
X141266228Y-74474866D02*
X141266228Y-74093914D01*
X141742419Y-75617723D02*
X141742419Y-75046295D01*
X141742419Y-75332009D02*
X140742419Y-75332009D01*
X140742419Y-75332009D02*
X140885276Y-75236771D01*
X140885276Y-75236771D02*
X140980514Y-75141533D01*
X140980514Y-75141533D02*
X141028133Y-75046295D01*
X140742419Y-75951057D02*
X140742419Y-76617723D01*
X140742419Y-76617723D02*
X141742419Y-76189152D01*
X131311419Y-74709542D02*
X130835228Y-74376209D01*
X131311419Y-74138114D02*
X130311419Y-74138114D01*
X130311419Y-74138114D02*
X130311419Y-74519066D01*
X130311419Y-74519066D02*
X130359038Y-74614304D01*
X130359038Y-74614304D02*
X130406657Y-74661923D01*
X130406657Y-74661923D02*
X130501895Y-74709542D01*
X130501895Y-74709542D02*
X130644752Y-74709542D01*
X130644752Y-74709542D02*
X130739990Y-74661923D01*
X130739990Y-74661923D02*
X130787609Y-74614304D01*
X130787609Y-74614304D02*
X130835228Y-74519066D01*
X130835228Y-74519066D02*
X130835228Y-74138114D01*
X131311419Y-75661923D02*
X131311419Y-75090495D01*
X131311419Y-75376209D02*
X130311419Y-75376209D01*
X130311419Y-75376209D02*
X130454276Y-75280971D01*
X130454276Y-75280971D02*
X130549514Y-75185733D01*
X130549514Y-75185733D02*
X130597133Y-75090495D01*
X131311419Y-76138114D02*
X131311419Y-76328590D01*
X131311419Y-76328590D02*
X131263800Y-76423828D01*
X131263800Y-76423828D02*
X131216180Y-76471447D01*
X131216180Y-76471447D02*
X131073323Y-76566685D01*
X131073323Y-76566685D02*
X130882847Y-76614304D01*
X130882847Y-76614304D02*
X130501895Y-76614304D01*
X130501895Y-76614304D02*
X130406657Y-76566685D01*
X130406657Y-76566685D02*
X130359038Y-76519066D01*
X130359038Y-76519066D02*
X130311419Y-76423828D01*
X130311419Y-76423828D02*
X130311419Y-76233352D01*
X130311419Y-76233352D02*
X130359038Y-76138114D01*
X130359038Y-76138114D02*
X130406657Y-76090495D01*
X130406657Y-76090495D02*
X130501895Y-76042876D01*
X130501895Y-76042876D02*
X130739990Y-76042876D01*
X130739990Y-76042876D02*
X130835228Y-76090495D01*
X130835228Y-76090495D02*
X130882847Y-76138114D01*
X130882847Y-76138114D02*
X130930466Y-76233352D01*
X130930466Y-76233352D02*
X130930466Y-76423828D01*
X130930466Y-76423828D02*
X130882847Y-76519066D01*
X130882847Y-76519066D02*
X130835228Y-76566685D01*
X130835228Y-76566685D02*
X130739990Y-76614304D01*
X135504580Y-74741542D02*
X135552200Y-74693923D01*
X135552200Y-74693923D02*
X135599819Y-74551066D01*
X135599819Y-74551066D02*
X135599819Y-74455828D01*
X135599819Y-74455828D02*
X135552200Y-74312971D01*
X135552200Y-74312971D02*
X135456961Y-74217733D01*
X135456961Y-74217733D02*
X135361723Y-74170114D01*
X135361723Y-74170114D02*
X135171247Y-74122495D01*
X135171247Y-74122495D02*
X135028390Y-74122495D01*
X135028390Y-74122495D02*
X134837914Y-74170114D01*
X134837914Y-74170114D02*
X134742676Y-74217733D01*
X134742676Y-74217733D02*
X134647438Y-74312971D01*
X134647438Y-74312971D02*
X134599819Y-74455828D01*
X134599819Y-74455828D02*
X134599819Y-74551066D01*
X134599819Y-74551066D02*
X134647438Y-74693923D01*
X134647438Y-74693923D02*
X134695057Y-74741542D01*
X134695057Y-75122495D02*
X134647438Y-75170114D01*
X134647438Y-75170114D02*
X134599819Y-75265352D01*
X134599819Y-75265352D02*
X134599819Y-75503447D01*
X134599819Y-75503447D02*
X134647438Y-75598685D01*
X134647438Y-75598685D02*
X134695057Y-75646304D01*
X134695057Y-75646304D02*
X134790295Y-75693923D01*
X134790295Y-75693923D02*
X134885533Y-75693923D01*
X134885533Y-75693923D02*
X135028390Y-75646304D01*
X135028390Y-75646304D02*
X135599819Y-75074876D01*
X135599819Y-75074876D02*
X135599819Y-75693923D01*
X134599819Y-76027257D02*
X134599819Y-76646304D01*
X134599819Y-76646304D02*
X134980771Y-76312971D01*
X134980771Y-76312971D02*
X134980771Y-76455828D01*
X134980771Y-76455828D02*
X135028390Y-76551066D01*
X135028390Y-76551066D02*
X135076009Y-76598685D01*
X135076009Y-76598685D02*
X135171247Y-76646304D01*
X135171247Y-76646304D02*
X135409342Y-76646304D01*
X135409342Y-76646304D02*
X135504580Y-76598685D01*
X135504580Y-76598685D02*
X135552200Y-76551066D01*
X135552200Y-76551066D02*
X135599819Y-76455828D01*
X135599819Y-76455828D02*
X135599819Y-76170114D01*
X135599819Y-76170114D02*
X135552200Y-76074876D01*
X135552200Y-76074876D02*
X135504580Y-76027257D01*
X143795619Y-74684142D02*
X143319428Y-74350809D01*
X143795619Y-74112714D02*
X142795619Y-74112714D01*
X142795619Y-74112714D02*
X142795619Y-74493666D01*
X142795619Y-74493666D02*
X142843238Y-74588904D01*
X142843238Y-74588904D02*
X142890857Y-74636523D01*
X142890857Y-74636523D02*
X142986095Y-74684142D01*
X142986095Y-74684142D02*
X143128952Y-74684142D01*
X143128952Y-74684142D02*
X143224190Y-74636523D01*
X143224190Y-74636523D02*
X143271809Y-74588904D01*
X143271809Y-74588904D02*
X143319428Y-74493666D01*
X143319428Y-74493666D02*
X143319428Y-74112714D01*
X143795619Y-75636523D02*
X143795619Y-75065095D01*
X143795619Y-75350809D02*
X142795619Y-75350809D01*
X142795619Y-75350809D02*
X142938476Y-75255571D01*
X142938476Y-75255571D02*
X143033714Y-75160333D01*
X143033714Y-75160333D02*
X143081333Y-75065095D01*
X142795619Y-76493666D02*
X142795619Y-76303190D01*
X142795619Y-76303190D02*
X142843238Y-76207952D01*
X142843238Y-76207952D02*
X142890857Y-76160333D01*
X142890857Y-76160333D02*
X143033714Y-76065095D01*
X143033714Y-76065095D02*
X143224190Y-76017476D01*
X143224190Y-76017476D02*
X143605142Y-76017476D01*
X143605142Y-76017476D02*
X143700380Y-76065095D01*
X143700380Y-76065095D02*
X143748000Y-76112714D01*
X143748000Y-76112714D02*
X143795619Y-76207952D01*
X143795619Y-76207952D02*
X143795619Y-76398428D01*
X143795619Y-76398428D02*
X143748000Y-76493666D01*
X143748000Y-76493666D02*
X143700380Y-76541285D01*
X143700380Y-76541285D02*
X143605142Y-76588904D01*
X143605142Y-76588904D02*
X143367047Y-76588904D01*
X143367047Y-76588904D02*
X143271809Y-76541285D01*
X143271809Y-76541285D02*
X143224190Y-76493666D01*
X143224190Y-76493666D02*
X143176571Y-76398428D01*
X143176571Y-76398428D02*
X143176571Y-76207952D01*
X143176571Y-76207952D02*
X143224190Y-76112714D01*
X143224190Y-76112714D02*
X143271809Y-76065095D01*
X143271809Y-76065095D02*
X143367047Y-76017476D01*
X97544590Y-140678819D02*
X97449352Y-140678819D01*
X97449352Y-140678819D02*
X97354114Y-140726438D01*
X97354114Y-140726438D02*
X97306495Y-140774057D01*
X97306495Y-140774057D02*
X97258876Y-140869295D01*
X97258876Y-140869295D02*
X97211257Y-141059771D01*
X97211257Y-141059771D02*
X97211257Y-141297866D01*
X97211257Y-141297866D02*
X97258876Y-141488342D01*
X97258876Y-141488342D02*
X97306495Y-141583580D01*
X97306495Y-141583580D02*
X97354114Y-141631200D01*
X97354114Y-141631200D02*
X97449352Y-141678819D01*
X97449352Y-141678819D02*
X97544590Y-141678819D01*
X97544590Y-141678819D02*
X97639828Y-141631200D01*
X97639828Y-141631200D02*
X97687447Y-141583580D01*
X97687447Y-141583580D02*
X97735066Y-141488342D01*
X97735066Y-141488342D02*
X97782685Y-141297866D01*
X97782685Y-141297866D02*
X97782685Y-141059771D01*
X97782685Y-141059771D02*
X97735066Y-140869295D01*
X97735066Y-140869295D02*
X97687447Y-140774057D01*
X97687447Y-140774057D02*
X97639828Y-140726438D01*
X97639828Y-140726438D02*
X97544590Y-140678819D01*
X96925542Y-140678819D02*
X96592209Y-141678819D01*
X96592209Y-141678819D02*
X96258876Y-140678819D01*
X139740019Y-74598542D02*
X139263828Y-74265209D01*
X139740019Y-74027114D02*
X138740019Y-74027114D01*
X138740019Y-74027114D02*
X138740019Y-74408066D01*
X138740019Y-74408066D02*
X138787638Y-74503304D01*
X138787638Y-74503304D02*
X138835257Y-74550923D01*
X138835257Y-74550923D02*
X138930495Y-74598542D01*
X138930495Y-74598542D02*
X139073352Y-74598542D01*
X139073352Y-74598542D02*
X139168590Y-74550923D01*
X139168590Y-74550923D02*
X139216209Y-74503304D01*
X139216209Y-74503304D02*
X139263828Y-74408066D01*
X139263828Y-74408066D02*
X139263828Y-74027114D01*
X139740019Y-75550923D02*
X139740019Y-74979495D01*
X139740019Y-75265209D02*
X138740019Y-75265209D01*
X138740019Y-75265209D02*
X138882876Y-75169971D01*
X138882876Y-75169971D02*
X138978114Y-75074733D01*
X138978114Y-75074733D02*
X139025733Y-74979495D01*
X139073352Y-76408066D02*
X139740019Y-76408066D01*
X138692400Y-76169971D02*
X139406685Y-75931876D01*
X139406685Y-75931876D02*
X139406685Y-76550923D01*
X137792048Y-74684142D02*
X137315857Y-74350809D01*
X137792048Y-74112714D02*
X136792048Y-74112714D01*
X136792048Y-74112714D02*
X136792048Y-74493666D01*
X136792048Y-74493666D02*
X136839667Y-74588904D01*
X136839667Y-74588904D02*
X136887286Y-74636523D01*
X136887286Y-74636523D02*
X136982524Y-74684142D01*
X136982524Y-74684142D02*
X137125381Y-74684142D01*
X137125381Y-74684142D02*
X137220619Y-74636523D01*
X137220619Y-74636523D02*
X137268238Y-74588904D01*
X137268238Y-74588904D02*
X137315857Y-74493666D01*
X137315857Y-74493666D02*
X137315857Y-74112714D01*
X137792048Y-75636523D02*
X137792048Y-75065095D01*
X137792048Y-75350809D02*
X136792048Y-75350809D01*
X136792048Y-75350809D02*
X136934905Y-75255571D01*
X136934905Y-75255571D02*
X137030143Y-75160333D01*
X137030143Y-75160333D02*
X137077762Y-75065095D01*
X137220619Y-76207952D02*
X137173000Y-76112714D01*
X137173000Y-76112714D02*
X137125381Y-76065095D01*
X137125381Y-76065095D02*
X137030143Y-76017476D01*
X137030143Y-76017476D02*
X136982524Y-76017476D01*
X136982524Y-76017476D02*
X136887286Y-76065095D01*
X136887286Y-76065095D02*
X136839667Y-76112714D01*
X136839667Y-76112714D02*
X136792048Y-76207952D01*
X136792048Y-76207952D02*
X136792048Y-76398428D01*
X136792048Y-76398428D02*
X136839667Y-76493666D01*
X136839667Y-76493666D02*
X136887286Y-76541285D01*
X136887286Y-76541285D02*
X136982524Y-76588904D01*
X136982524Y-76588904D02*
X137030143Y-76588904D01*
X137030143Y-76588904D02*
X137125381Y-76541285D01*
X137125381Y-76541285D02*
X137173000Y-76493666D01*
X137173000Y-76493666D02*
X137220619Y-76398428D01*
X137220619Y-76398428D02*
X137220619Y-76207952D01*
X137220619Y-76207952D02*
X137268238Y-76112714D01*
X137268238Y-76112714D02*
X137315857Y-76065095D01*
X137315857Y-76065095D02*
X137411095Y-76017476D01*
X137411095Y-76017476D02*
X137601571Y-76017476D01*
X137601571Y-76017476D02*
X137696809Y-76065095D01*
X137696809Y-76065095D02*
X137744429Y-76112714D01*
X137744429Y-76112714D02*
X137792048Y-76207952D01*
X137792048Y-76207952D02*
X137792048Y-76398428D01*
X137792048Y-76398428D02*
X137744429Y-76493666D01*
X137744429Y-76493666D02*
X137696809Y-76541285D01*
X137696809Y-76541285D02*
X137601571Y-76588904D01*
X137601571Y-76588904D02*
X137411095Y-76588904D01*
X137411095Y-76588904D02*
X137315857Y-76541285D01*
X137315857Y-76541285D02*
X137268238Y-76493666D01*
X137268238Y-76493666D02*
X137220619Y-76398428D01*
X99123237Y-133677866D02*
X98361333Y-133677866D01*
X98742285Y-134058819D02*
X98742285Y-133296914D01*
X97361333Y-134058819D02*
X97932761Y-134058819D01*
X97647047Y-134058819D02*
X97647047Y-133058819D01*
X97647047Y-133058819D02*
X97742285Y-133201676D01*
X97742285Y-133201676D02*
X97837523Y-133296914D01*
X97837523Y-133296914D02*
X97932761Y-133344533D01*
X96980380Y-133154057D02*
X96932761Y-133106438D01*
X96932761Y-133106438D02*
X96837523Y-133058819D01*
X96837523Y-133058819D02*
X96599428Y-133058819D01*
X96599428Y-133058819D02*
X96504190Y-133106438D01*
X96504190Y-133106438D02*
X96456571Y-133154057D01*
X96456571Y-133154057D02*
X96408952Y-133249295D01*
X96408952Y-133249295D02*
X96408952Y-133344533D01*
X96408952Y-133344533D02*
X96456571Y-133487390D01*
X96456571Y-133487390D02*
X97027999Y-134058819D01*
X97027999Y-134058819D02*
X96408952Y-134058819D01*
X95980380Y-134058819D02*
X95980380Y-133058819D01*
X95504190Y-134058819D02*
X95504190Y-133058819D01*
X95504190Y-133058819D02*
X94932762Y-134058819D01*
X94932762Y-134058819D02*
X94932762Y-133058819D01*
X133517019Y-74760342D02*
X133040828Y-74427009D01*
X133517019Y-74188914D02*
X132517019Y-74188914D01*
X132517019Y-74188914D02*
X132517019Y-74569866D01*
X132517019Y-74569866D02*
X132564638Y-74665104D01*
X132564638Y-74665104D02*
X132612257Y-74712723D01*
X132612257Y-74712723D02*
X132707495Y-74760342D01*
X132707495Y-74760342D02*
X132850352Y-74760342D01*
X132850352Y-74760342D02*
X132945590Y-74712723D01*
X132945590Y-74712723D02*
X132993209Y-74665104D01*
X132993209Y-74665104D02*
X133040828Y-74569866D01*
X133040828Y-74569866D02*
X133040828Y-74188914D01*
X132612257Y-75141295D02*
X132564638Y-75188914D01*
X132564638Y-75188914D02*
X132517019Y-75284152D01*
X132517019Y-75284152D02*
X132517019Y-75522247D01*
X132517019Y-75522247D02*
X132564638Y-75617485D01*
X132564638Y-75617485D02*
X132612257Y-75665104D01*
X132612257Y-75665104D02*
X132707495Y-75712723D01*
X132707495Y-75712723D02*
X132802733Y-75712723D01*
X132802733Y-75712723D02*
X132945590Y-75665104D01*
X132945590Y-75665104D02*
X133517019Y-75093676D01*
X133517019Y-75093676D02*
X133517019Y-75712723D01*
X132517019Y-76331771D02*
X132517019Y-76427009D01*
X132517019Y-76427009D02*
X132564638Y-76522247D01*
X132564638Y-76522247D02*
X132612257Y-76569866D01*
X132612257Y-76569866D02*
X132707495Y-76617485D01*
X132707495Y-76617485D02*
X132897971Y-76665104D01*
X132897971Y-76665104D02*
X133136066Y-76665104D01*
X133136066Y-76665104D02*
X133326542Y-76617485D01*
X133326542Y-76617485D02*
X133421780Y-76569866D01*
X133421780Y-76569866D02*
X133469400Y-76522247D01*
X133469400Y-76522247D02*
X133517019Y-76427009D01*
X133517019Y-76427009D02*
X133517019Y-76331771D01*
X133517019Y-76331771D02*
X133469400Y-76236533D01*
X133469400Y-76236533D02*
X133421780Y-76188914D01*
X133421780Y-76188914D02*
X133326542Y-76141295D01*
X133326542Y-76141295D02*
X133136066Y-76093676D01*
X133136066Y-76093676D02*
X132897971Y-76093676D01*
X132897971Y-76093676D02*
X132707495Y-76141295D01*
X132707495Y-76141295D02*
X132612257Y-76188914D01*
X132612257Y-76188914D02*
X132564638Y-76236533D01*
X132564638Y-76236533D02*
X132517019Y-76331771D01*
D13*
%TO.C,J4*%
X68402733Y-88981167D02*
G75*
G03*
X68402733Y-88981167I-381000J0D01*
G01*
D14*
%TO.C,R17*%
X141997200Y-71839336D02*
X141997200Y-72293464D01*
X140527200Y-71839336D02*
X140527200Y-72293464D01*
%TO.C,R19*%
X130176600Y-72277464D02*
X130176600Y-71823336D01*
X131646600Y-72277464D02*
X131646600Y-71823336D01*
%TO.C,C23*%
X134308400Y-72347552D02*
X134308400Y-71825048D01*
X135778400Y-72347552D02*
X135778400Y-71825048D01*
D11*
%TO.C,J11*%
X144866600Y-58673900D02*
X144866600Y-65923900D01*
X144866600Y-55445755D02*
X144866600Y-55923900D01*
X144866600Y-52945755D02*
X144866600Y-55445755D01*
X143466600Y-55445755D02*
X144866600Y-55445755D01*
X143366600Y-67423900D02*
X140616600Y-67423900D01*
X142066600Y-52945755D02*
X144866600Y-52945755D01*
X136631632Y-54145755D02*
X136631632Y-52945755D01*
X136631632Y-52945755D02*
X142131632Y-52945755D01*
X131381632Y-55445755D02*
X130116600Y-55445755D01*
X131131632Y-52945755D02*
X136631632Y-52945755D01*
X130116600Y-58673900D02*
X130116600Y-65923900D01*
X130116600Y-55434827D02*
X130116600Y-55912972D01*
X130116600Y-52945755D02*
X131131632Y-52945755D01*
X130116600Y-52945755D02*
X130116600Y-55445755D01*
D14*
%TO.C,R16*%
X144075800Y-71839336D02*
X144075800Y-72293464D01*
X142605800Y-71839336D02*
X142605800Y-72293464D01*
%TO.C,R14*%
X139918600Y-71839336D02*
X139918600Y-72293464D01*
X138448600Y-71839336D02*
X138448600Y-72293464D01*
%TO.C,R18*%
X137840000Y-71839336D02*
X137840000Y-72293464D01*
X136370000Y-71839336D02*
X136370000Y-72293464D01*
%TO.C,R20*%
X132234000Y-72277464D02*
X132234000Y-71823336D01*
X133704000Y-72277464D02*
X133704000Y-71823336D01*
%TD*%
M02*
