%TF.GenerationSoftware,KiCad,Pcbnew,7.0.8*%
%TF.CreationDate,2023-11-15T18:30:51+02:00*%
%TF.ProjectId,CAN_DISPLAY,43414e5f-4449-4535-904c-41592e6b6963,rev?*%
%TF.SameCoordinates,Original*%
%TF.FileFunction,Copper,L3,Inr*%
%TF.FilePolarity,Positive*%
%FSLAX46Y46*%
G04 Gerber Fmt 4.6, Leading zero omitted, Abs format (unit mm)*
G04 Created by KiCad (PCBNEW 7.0.8) date 2023-11-15 18:30:51*
%MOMM*%
%LPD*%
G01*
G04 APERTURE LIST*
G04 Aperture macros list*
%AMRoundRect*
0 Rectangle with rounded corners*
0 $1 Rounding radius*
0 $2 $3 $4 $5 $6 $7 $8 $9 X,Y pos of 4 corners*
0 Add a 4 corners polygon primitive as box body*
4,1,4,$2,$3,$4,$5,$6,$7,$8,$9,$2,$3,0*
0 Add four circle primitives for the rounded corners*
1,1,$1+$1,$2,$3*
1,1,$1+$1,$4,$5*
1,1,$1+$1,$6,$7*
1,1,$1+$1,$8,$9*
0 Add four rect primitives between the rounded corners*
20,1,$1+$1,$2,$3,$4,$5,0*
20,1,$1+$1,$4,$5,$6,$7,0*
20,1,$1+$1,$6,$7,$8,$9,0*
20,1,$1+$1,$8,$9,$2,$3,0*%
G04 Aperture macros list end*
%TA.AperFunction,ComponentPad*%
%ADD10R,3.000000X3.000000*%
%TD*%
%TA.AperFunction,ComponentPad*%
%ADD11C,3.000000*%
%TD*%
%TA.AperFunction,ComponentPad*%
%ADD12R,1.700000X1.700000*%
%TD*%
%TA.AperFunction,ComponentPad*%
%ADD13O,1.700000X1.700000*%
%TD*%
%TA.AperFunction,ComponentPad*%
%ADD14RoundRect,0.250000X-0.350000X-0.625000X0.350000X-0.625000X0.350000X0.625000X-0.350000X0.625000X0*%
%TD*%
%TA.AperFunction,ComponentPad*%
%ADD15O,1.200000X1.750000*%
%TD*%
%TA.AperFunction,ComponentPad*%
%ADD16R,2.200000X2.200000*%
%TD*%
%TA.AperFunction,ComponentPad*%
%ADD17O,2.200000X2.200000*%
%TD*%
%TA.AperFunction,ComponentPad*%
%ADD18RoundRect,0.250000X0.625000X-0.350000X0.625000X0.350000X-0.625000X0.350000X-0.625000X-0.350000X0*%
%TD*%
%TA.AperFunction,ComponentPad*%
%ADD19O,1.750000X1.200000*%
%TD*%
%TA.AperFunction,ComponentPad*%
%ADD20C,2.200000*%
%TD*%
%TA.AperFunction,ComponentPad*%
%ADD21R,1.750000X2.250000*%
%TD*%
%TA.AperFunction,ComponentPad*%
%ADD22O,1.750000X2.250000*%
%TD*%
%TA.AperFunction,ComponentPad*%
%ADD23C,1.701800*%
%TD*%
%TA.AperFunction,ComponentPad*%
%ADD24C,1.803400*%
%TD*%
%TA.AperFunction,ComponentPad*%
%ADD25R,2.000000X2.000000*%
%TD*%
%TA.AperFunction,ComponentPad*%
%ADD26C,2.000000*%
%TD*%
%TA.AperFunction,ComponentPad*%
%ADD27O,5.500000X3.800000*%
%TD*%
%TA.AperFunction,ComponentPad*%
%ADD28O,5.300000X3.800000*%
%TD*%
%TA.AperFunction,ComponentPad*%
%ADD29R,2.000000X1.200000*%
%TD*%
%TA.AperFunction,ComponentPad*%
%ADD30O,2.000000X1.200000*%
%TD*%
%TA.AperFunction,ComponentPad*%
%ADD31R,3.200000X3.200000*%
%TD*%
%TA.AperFunction,ComponentPad*%
%ADD32O,3.200000X3.200000*%
%TD*%
%TA.AperFunction,ComponentPad*%
%ADD33R,2.500000X2.500000*%
%TD*%
%TA.AperFunction,ViaPad*%
%ADD34C,0.800000*%
%TD*%
%TA.AperFunction,Conductor*%
%ADD35C,0.250000*%
%TD*%
%TA.AperFunction,Conductor*%
%ADD36C,0.500000*%
%TD*%
G04 APERTURE END LIST*
D10*
%TO.N,Net-(J6-Pin_1)*%
%TO.C,J6*%
X64516000Y-134620000D03*
D11*
%TO.N,GNDPWR*%
X64516000Y-139700000D03*
%TD*%
D12*
%TO.N,+3V3*%
%TO.C,J16*%
X196860000Y-144780000D03*
D13*
%TO.N,GND*%
X199400000Y-144780000D03*
%TO.N,I2C_SCL*%
X201940000Y-144780000D03*
%TO.N,I2C_SDA*%
X204480000Y-144780000D03*
%TD*%
D14*
%TO.N,+3V3*%
%TO.C,J3*%
X173769000Y-136352000D03*
D15*
%TO.N,GND*%
X175769000Y-136352000D03*
%TO.N,I2C_SCL*%
X177769000Y-136352000D03*
%TO.N,I2C_SDA*%
X179769000Y-136352000D03*
%TD*%
D16*
%TO.N,Net-(D1-K)*%
%TO.C,D11*%
X57327800Y-121158000D03*
D17*
%TO.N,GND2*%
X57327800Y-110998000D03*
%TD*%
D12*
%TO.N,unconnected-(J8-Pin_1-Pad1)*%
%TO.C,J8*%
X113284000Y-109220000D03*
D13*
%TO.N,+12V*%
X113284000Y-106680000D03*
%TO.N,GND*%
X113284000Y-104140000D03*
%TO.N,+5V*%
X113284000Y-101600000D03*
%TD*%
D18*
%TO.N,+5V*%
%TO.C,J14*%
X188278600Y-118455200D03*
D19*
X188278600Y-116455200D03*
%TO.N,unconnected-(J14-Pin_3-Pad3)*%
X188278600Y-114455200D03*
%TO.N,/Display/DWIN TX*%
X188278600Y-112455200D03*
%TO.N,/Display/DWIN RX*%
X188278600Y-110455200D03*
%TO.N,unconnected-(J14-Pin_6-Pad6)*%
X188278600Y-108455200D03*
%TO.N,GND*%
X188278600Y-106455200D03*
X188278600Y-104455200D03*
%TD*%
D10*
%TO.N,Net-(J20-Pin_1)*%
%TO.C,J20*%
X65024000Y-56788000D03*
D11*
%TO.N,/Isolated/NMEA IN-*%
X65024000Y-61788000D03*
%TO.N,/Isolated/NMEA IN+*%
X65024000Y-66788000D03*
%TO.N,Net-(J20-Pin_1)*%
X65024000Y-71788000D03*
%TO.N,/Isolated/NMEA OUT-*%
X65024000Y-76788000D03*
%TO.N,/Isolated/NMEA OUT+*%
X65024000Y-81788000D03*
%TD*%
D20*
%TO.N,Net-(D12-K)*%
%TO.C,FL1*%
X94568000Y-135636000D03*
%TO.N,/PowerSuply/12V_FL*%
X99568000Y-135636000D03*
%TO.N,GND*%
X99568000Y-143336000D03*
%TO.N,GNDPWR*%
X94568000Y-143336000D03*
%TD*%
D16*
%TO.N,+5V*%
%TO.C,D6*%
X139700000Y-100584000D03*
D17*
%TO.N,Net-(BZ1-+)*%
X139700000Y-110744000D03*
%TD*%
D12*
%TO.N,unconnected-(J10-Pin_1-Pad1)*%
%TO.C,J10*%
X147231400Y-139491000D03*
D13*
%TO.N,+12V*%
X144691400Y-139491000D03*
%TO.N,GND*%
X142151400Y-139491000D03*
%TO.N,+5VP*%
X139611400Y-139491000D03*
%TD*%
D21*
%TO.N,GND*%
%TO.C,PS1*%
X100076000Y-117856000D03*
D22*
%TO.N,+5V*%
X97536000Y-117856000D03*
%TO.N,GND2*%
X94996000Y-117856000D03*
%TO.N,Net-(JP2-B)*%
X92456000Y-117856000D03*
%TD*%
D23*
%TO.N,Net-(JP3-A)*%
%TO.C,J4*%
X67289500Y-97475000D03*
%TO.N,Net-(D1-A)*%
X67289500Y-101010534D03*
%TO.N,GND2*%
X63753966Y-101010534D03*
%TO.N,Net-(U3-CANH)*%
X63753966Y-97475000D03*
%TO.N,Net-(JP19-A)*%
X65521733Y-99242767D03*
D24*
%TO.N,Net-(JP3-A)*%
X61521741Y-99242767D03*
%TD*%
D25*
%TO.N,+5V*%
%TO.C,BZ1*%
X148336000Y-101356000D03*
D26*
%TO.N,Net-(BZ1-+)*%
X148336000Y-108956000D03*
%TD*%
D10*
%TO.N,GND*%
%TO.C,J15*%
X152908000Y-138557000D03*
D11*
%TO.N,/ESP32/GPIO_32_32K*%
X157988000Y-138557000D03*
%TO.N,/ESP32/GPIO_33_32K*%
X163068000Y-138557000D03*
%TO.N,+5VP*%
X168148000Y-138557000D03*
%TD*%
D12*
%TO.N,GND*%
%TO.C,J13*%
X190119000Y-60325000D03*
D13*
%TO.N,+3V3*%
X190119000Y-62865000D03*
%TO.N,/ESP32/GPIO_03_U0RXD*%
X190119000Y-65405000D03*
%TO.N,/ESP32/GPIO_01_U0TXD*%
X190119000Y-67945000D03*
%TD*%
D16*
%TO.N,Net-(D1-K)*%
%TO.C,D1*%
X60960000Y-121158000D03*
D17*
%TO.N,Net-(D1-A)*%
X60960000Y-110998000D03*
%TD*%
D16*
%TO.N,/PowerSuply/12V_FL*%
%TO.C,D10*%
X107010200Y-134213600D03*
D17*
%TO.N,GND*%
X107010200Y-144373600D03*
%TD*%
D27*
%TO.N,Net-(J6-Pin_1)*%
%TO.C,F1*%
X74676000Y-140716000D03*
D28*
%TO.N,Net-(D12-A)*%
X82676000Y-140716000D03*
%TD*%
D12*
%TO.N,unconnected-(J9-Pin_1-Pad1)*%
%TO.C,J9*%
X71882000Y-113233200D03*
D13*
%TO.N,Net-(D1-K)*%
X71882000Y-110693200D03*
%TO.N,GND2*%
X71882000Y-108153200D03*
%TO.N,Net-(J9-Pin_4)*%
X71882000Y-105613200D03*
%TD*%
D12*
%TO.N,+3V3*%
%TO.C,J19*%
X153416000Y-90424000D03*
D13*
%TO.N,GND*%
X150876000Y-90424000D03*
%TO.N,I2C_SCL*%
X148336000Y-90424000D03*
%TO.N,I2C_SDA*%
X145796000Y-90424000D03*
%TD*%
D26*
%TO.N,GND*%
%TO.C,C2*%
X101266000Y-56896000D03*
%TO.N,GND3*%
X91266000Y-56896000D03*
%TD*%
%TO.N,GND*%
%TO.C,C1*%
X101393000Y-101473000D03*
%TO.N,GND2*%
X91393000Y-101473000D03*
%TD*%
D29*
%TO.N,+3V3*%
%TO.C,U1*%
X157629100Y-58927800D03*
D30*
%TO.N,/ESP32/EN*%
X157629100Y-61467800D03*
%TO.N,/ESP32/GPIO_36*%
X157629100Y-64007800D03*
%TO.N,/ESP32/GPIO_39*%
X157629100Y-66547800D03*
%TO.N,/ESP32/GPIO_34*%
X157629100Y-69087800D03*
%TO.N,/ESP32/GPIO_35*%
X157629100Y-71627800D03*
%TO.N,/ESP32/GPIO_32_32K*%
X157629100Y-74167800D03*
%TO.N,/ESP32/GPIO_33_32K*%
X157629100Y-76707800D03*
%TO.N,/ESP32/GPIO_25*%
X157629100Y-79247800D03*
%TO.N,/ESP32/GPIO_26*%
X157629100Y-81787800D03*
%TO.N,/ESP32/GPIO_27*%
X157629100Y-84327800D03*
%TO.N,/ESP32/GPIO_14*%
X157629100Y-86867800D03*
%TO.N,/ESP32/GPIO_12*%
X157629100Y-89407800D03*
%TO.N,GND*%
X157629100Y-91947800D03*
%TO.N,/ESP32/GPIO_13*%
X157629100Y-94487800D03*
%TO.N,/ESP32/GPIO_9*%
X157629100Y-97027800D03*
%TO.N,/ESP32/GPIO_10*%
X157629100Y-99567800D03*
%TO.N,unconnected-(U1-CMD-Pad18)*%
X157629100Y-102107800D03*
%TO.N,+5V*%
X157629100Y-104647800D03*
%TO.N,/ESP32/GPIO_6*%
X183025420Y-104645080D03*
%TO.N,/ESP32/GPIO_7*%
X183025420Y-102105080D03*
%TO.N,/ESP32/GPIO_8*%
X183029100Y-99567800D03*
%TO.N,/ESP32/GPIO_15*%
X183029100Y-97027800D03*
%TO.N,/ESP32/GPIO_02*%
X183029100Y-94487800D03*
%TO.N,/ESP32/GPIO_00_BOOT*%
X183029100Y-91947800D03*
%TO.N,/ESP32/GPIO_04*%
X183029100Y-89407800D03*
%TO.N,/ESP32/GPIO_16*%
X183029100Y-86867800D03*
%TO.N,/ESP32/GPIO_17*%
X183029100Y-84327800D03*
%TO.N,/ESP32/GPIO_05*%
X183029100Y-81787800D03*
%TO.N,/ESP32/GPIO_18*%
X183029100Y-79247800D03*
%TO.N,/ESP32/GPIO_19*%
X183029100Y-76707800D03*
%TO.N,GND*%
X183029100Y-74167800D03*
%TO.N,/ESP32/GPIO_21*%
X183029100Y-71627800D03*
%TO.N,/ESP32/GPIO_03_U0RXD*%
X183029100Y-69087800D03*
%TO.N,/ESP32/GPIO_01_U0TXD*%
X183029100Y-66547800D03*
%TO.N,/ESP32/GPIO_22*%
X183029100Y-64007800D03*
%TO.N,/ESP32/GPIO_23*%
X183029100Y-61467800D03*
%TO.N,GND*%
X183029100Y-58927800D03*
%TD*%
D31*
%TO.N,Net-(D12-K)*%
%TO.C,D12*%
X86614000Y-133604000D03*
D32*
%TO.N,Net-(D12-A)*%
X71374000Y-133604000D03*
%TD*%
D33*
%TO.N,GND*%
%TO.C,PS3*%
X130492500Y-120777000D03*
%TO.N,+12V*%
X113347500Y-120777000D03*
%TO.N,GND*%
X130492500Y-81277000D03*
%TO.N,+5V*%
X113347500Y-81277000D03*
%TD*%
D14*
%TO.N,+3V3*%
%TO.C,J2*%
X185405000Y-136352000D03*
D15*
%TO.N,GND*%
X187405000Y-136352000D03*
%TO.N,I2C_SCL*%
X189405000Y-136352000D03*
%TO.N,I2C_SDA*%
X191405000Y-136352000D03*
%TD*%
D21*
%TO.N,GND*%
%TO.C,PS2*%
X100889500Y-81215500D03*
D22*
%TO.N,+5V*%
X98349500Y-81215500D03*
%TO.N,GND3*%
X95809500Y-81215500D03*
%TO.N,+5VA*%
X93269500Y-81215500D03*
%TD*%
D10*
%TO.N,GND*%
%TO.C,J5*%
X114046000Y-139446000D03*
D11*
%TO.N,/PowerSuply/12V_FL*%
X119126000Y-139446000D03*
%TO.N,GND*%
X124206000Y-139446000D03*
%TO.N,Net-(J5-Pin_4)*%
X129286000Y-139446000D03*
%TO.N,+12V*%
X134366000Y-139446000D03*
%TD*%
D12*
%TO.N,Net-(J18-Pin_1)*%
%TO.C,J18*%
X196596000Y-53848000D03*
D13*
%TO.N,unconnected-(J18-Pin_2-Pad2)*%
X199136000Y-53848000D03*
%TO.N,unconnected-(J18-Pin_3-Pad3)*%
X196596000Y-56388000D03*
%TO.N,unconnected-(J18-Pin_4-Pad4)*%
X199136000Y-56388000D03*
%TO.N,/ESP32/GPIO_12*%
X196596000Y-58928000D03*
%TO.N,GND*%
X199136000Y-58928000D03*
%TO.N,/ESP32/GPIO_14*%
X196596000Y-61468000D03*
%TO.N,GND*%
X199136000Y-61468000D03*
%TO.N,/ESP32/GPIO_13*%
X196596000Y-64008000D03*
%TO.N,GND*%
X199136000Y-64008000D03*
%TO.N,unconnected-(J18-Pin_11-Pad11)*%
X196596000Y-66548000D03*
%TO.N,GND*%
X199136000Y-66548000D03*
%TO.N,/ESP32/GPIO_15*%
X196596000Y-69088000D03*
%TO.N,GND*%
X199136000Y-69088000D03*
%TO.N,/ESP32/EN*%
X196596000Y-71628000D03*
%TO.N,unconnected-(J18-Pin_16-Pad16)*%
X199136000Y-71628000D03*
%TO.N,unconnected-(J18-Pin_17-Pad17)*%
X196596000Y-74168000D03*
%TO.N,unconnected-(J18-Pin_18-Pad18)*%
X199136000Y-74168000D03*
%TO.N,unconnected-(J18-Pin_19-Pad19)*%
X196596000Y-76708000D03*
%TO.N,unconnected-(J18-Pin_20-Pad20)*%
X199136000Y-76708000D03*
%TD*%
D34*
%TO.N,GND*%
X130506002Y-79032586D03*
X133604000Y-84836000D03*
X127127000Y-84836000D03*
X133604000Y-81280000D03*
X127127000Y-81280000D03*
%TO.N,/ESP32/GPIO_14*%
X158709900Y-114300000D03*
%TO.N,GND*%
X154686000Y-87122000D03*
X162837000Y-59862200D03*
X183515000Y-118999000D03*
X149346677Y-82008562D03*
X134061000Y-68884800D03*
X99669600Y-62636400D03*
X163322000Y-87122000D03*
X169672000Y-70612000D03*
X105943400Y-85598000D03*
X164592000Y-78740000D03*
X162538600Y-124813400D03*
X175768000Y-133858000D03*
X177292000Y-82042000D03*
X133985000Y-77851000D03*
X168808000Y-65777200D03*
X108712000Y-125984000D03*
X163322000Y-102616000D03*
X179832000Y-88646000D03*
X179885000Y-59449800D03*
X106172000Y-76200000D03*
X169672000Y-64008000D03*
X154686000Y-84328000D03*
X138633000Y-56972200D03*
X148539000Y-63601600D03*
X167404000Y-68561100D03*
X163576000Y-64008000D03*
X162030600Y-118717400D03*
X105664000Y-125984000D03*
X121920945Y-68878497D03*
X154686000Y-81280000D03*
X160263000Y-59862200D03*
X169650600Y-124813400D03*
X150368000Y-113284000D03*
X157589000Y-129418500D03*
X143866000Y-65328800D03*
X146837000Y-69218900D03*
X163576000Y-70612000D03*
X163322000Y-97028000D03*
X162763000Y-59007400D03*
X108483400Y-85598000D03*
X180594000Y-106426000D03*
X143866000Y-68529200D03*
X163322000Y-92202000D03*
X202481000Y-137211000D03*
X163322000Y-133096000D03*
X147117000Y-65278000D03*
X173990000Y-90932000D03*
X189992000Y-78740000D03*
X179324000Y-80518000D03*
X167441000Y-67181600D03*
X201973000Y-134671000D03*
X150520000Y-62280800D03*
X170180000Y-82042000D03*
X168796000Y-68586000D03*
X171450000Y-90932000D03*
X175260000Y-64008000D03*
X112776000Y-66294000D03*
X199005000Y-106731000D03*
X180340000Y-133096000D03*
X150876000Y-132588000D03*
X197533000Y-142105000D03*
X102616000Y-90932000D03*
X136534600Y-132537200D03*
X180594000Y-100838000D03*
X155092000Y-61569600D03*
X169142600Y-118717400D03*
X170225000Y-65777200D03*
X163322000Y-107696000D03*
X201574000Y-141427000D03*
X172720000Y-82042000D03*
X182372000Y-119126000D03*
X99733400Y-63922300D03*
X164592000Y-82042000D03*
X131064000Y-68757800D03*
X153924000Y-132588000D03*
X137033000Y-77851000D03*
X175260000Y-70612000D03*
X199005000Y-108763000D03*
X195580000Y-113030000D03*
X170225000Y-67169200D03*
X169164000Y-89154000D03*
X99568000Y-70358000D03*
X199005000Y-107747000D03*
X168821000Y-67181600D03*
X167386000Y-82042000D03*
X110186000Y-130552000D03*
X175514000Y-109220000D03*
X160263000Y-59007400D03*
X170225000Y-68573600D03*
X167416000Y-65764800D03*
X178816000Y-90424000D03*
%TO.N,/ESP32/EN*%
X176784000Y-70104000D03*
X166624000Y-113284000D03*
X194240000Y-86248900D03*
%TO.N,I2C_SDA*%
X189357000Y-90284900D03*
%TO.N,/ESP32/GPIO_32_32K*%
X164846000Y-73660000D03*
%TO.N,/ESP32/GPIO_27*%
X160274000Y-94742000D03*
%TO.N,/ESP32/GPIO_14*%
X162851500Y-74536300D03*
X177292000Y-75184000D03*
%TO.N,/ESP32/GPIO_12*%
X192532000Y-73660000D03*
X161581500Y-80772000D03*
%TO.N,/ESP32/GPIO_13*%
X176276000Y-73152000D03*
X188976000Y-71628000D03*
%TO.N,/ESP32/GPIO_15*%
X109316300Y-67087400D03*
X174752000Y-81154600D03*
%TO.N,/ESP32/GPIO_00_BOOT*%
X173736000Y-114300000D03*
%TO.N,+3V3*%
X147320000Y-79756000D03*
X139184000Y-73066400D03*
X137211000Y-69138800D03*
X103886000Y-72136000D03*
X103124000Y-98552000D03*
X189230000Y-82296000D03*
%TO.N,GND2*%
X67818000Y-125019000D03*
X71628000Y-95250000D03*
X93980000Y-90932000D03*
X83820000Y-122682000D03*
X71628000Y-92710000D03*
X80594200Y-100127000D03*
X86868000Y-122682000D03*
X81661000Y-101676000D03*
X65604300Y-113995000D03*
X89662000Y-90932000D03*
X73152000Y-124968000D03*
X69850000Y-99060000D03*
X70866000Y-124968000D03*
%TO.N,/ESP32/GPIO_19*%
X176868000Y-67901200D03*
%TO.N,/ESP32/GPIO_23*%
X140712000Y-66318800D03*
%TO.N,GND3*%
X90170000Y-62738000D03*
X93726000Y-83820000D03*
X95250000Y-83820000D03*
X84074000Y-84328000D03*
X76200000Y-64262000D03*
X85598000Y-72390000D03*
X55118000Y-71628000D03*
X87122000Y-84328000D03*
X55118000Y-69088000D03*
X78740000Y-78486000D03*
X93726000Y-85344000D03*
X90170000Y-63754000D03*
X55118000Y-70358000D03*
X76708000Y-80772000D03*
X95250000Y-85344000D03*
X93980000Y-70358000D03*
%TO.N,/ESP32/GPIO_16*%
X109306000Y-70690300D03*
%TO.N,/ESP32/GPIO_17*%
X175768000Y-72136000D03*
X109337000Y-63790700D03*
%TO.N,/ESP32/GPIO_05*%
X107188000Y-93472000D03*
%TO.N,/ESP32/GPIO_04*%
X179324000Y-84328000D03*
X107188000Y-96012000D03*
%TO.N,I2C_SCL*%
X191897000Y-89560400D03*
%TO.N,A2D_12V*%
X132080000Y-131064000D03*
X132588000Y-101600000D03*
%TD*%
D35*
%TO.N,/ESP32/GPIO_14*%
X158954100Y-88192800D02*
X157629100Y-86867800D01*
X158954100Y-114055800D02*
X158954100Y-88192800D01*
X158709900Y-114300000D02*
X158954100Y-114055800D01*
%TO.N,/ESP32/EN*%
X172720000Y-113284000D02*
X173286000Y-112718000D01*
X196596000Y-71628000D02*
X194980800Y-70012800D01*
X182480902Y-90677800D02*
X184150200Y-90677800D01*
X194980800Y-70012800D02*
X176875200Y-70012800D01*
X173286000Y-99872702D02*
X182480902Y-90677800D01*
X166624000Y-113284000D02*
X172720000Y-113284000D01*
X173286000Y-112718000D02*
X173286000Y-99872702D01*
X188579100Y-86248900D02*
X194240000Y-86248900D01*
X184150200Y-90677800D02*
X188579100Y-86248900D01*
X176875200Y-70012800D02*
X176784000Y-70104000D01*
%TO.N,/ESP32/GPIO_32_32K*%
X158136900Y-73660000D02*
X157629100Y-74167800D01*
X164846000Y-73660000D02*
X158136900Y-73660000D01*
X157629000Y-74167800D02*
X157629100Y-74167800D01*
%TO.N,/ESP32/GPIO_33_32K*%
X159512000Y-135001000D02*
X163068000Y-138557000D01*
X159512000Y-114300000D02*
X159512000Y-135001000D01*
X157629000Y-76707800D02*
X157629100Y-76707800D01*
X157629100Y-76707800D02*
X159512000Y-76707800D01*
X159512000Y-76707800D02*
X159512000Y-114300000D01*
%TO.N,/ESP32/GPIO_14*%
X197506051Y-72904293D02*
X188336103Y-72904293D01*
X186056396Y-75184000D02*
X177292000Y-75184000D01*
X197897025Y-62769025D02*
X197897025Y-72513319D01*
X197897025Y-72513319D02*
X197506051Y-72904293D01*
X188336103Y-72904293D02*
X186056396Y-75184000D01*
X196596000Y-61468000D02*
X197897025Y-62769025D01*
%TO.N,/ESP32/GPIO_12*%
X188505000Y-81995695D02*
X188929695Y-81571000D01*
X167432305Y-86651000D02*
X167857000Y-87075695D01*
X167857000Y-87085000D02*
X168656000Y-87884000D01*
X184912000Y-85598000D02*
X188505000Y-82005000D01*
X168656000Y-87884000D02*
X184404000Y-87884000D01*
X167423000Y-86651000D02*
X167432305Y-86651000D01*
X184912000Y-87376000D02*
X184912000Y-85598000D01*
X192532000Y-77978000D02*
X192532000Y-73660000D01*
X184404000Y-87884000D02*
X184912000Y-87376000D01*
X188939000Y-81571000D02*
X192532000Y-77978000D01*
X188505000Y-82005000D02*
X188505000Y-81995695D01*
X188929695Y-81571000D02*
X188939000Y-81571000D01*
X161581500Y-80809500D02*
X167423000Y-86651000D01*
X161581500Y-80772000D02*
X161581500Y-80809500D01*
X167857000Y-87075695D02*
X167857000Y-87085000D01*
%TO.N,/ESP32/GPIO_13*%
X187361200Y-73242800D02*
X188976000Y-71628000D01*
X176366800Y-73242800D02*
X187361200Y-73242800D01*
X176276000Y-73152000D02*
X176366800Y-73242800D01*
%TO.N,/ESP32/GPIO_15*%
X108579100Y-67824600D02*
X108579100Y-71057200D01*
X169357600Y-75760200D02*
X174752000Y-81154600D01*
X113282100Y-75760200D02*
X169357600Y-75760200D01*
X109316300Y-67087400D02*
X108579100Y-67824600D01*
X108579100Y-71057200D02*
X113282100Y-75760200D01*
%TO.N,/ESP32/GPIO_00_BOOT*%
X173736000Y-100059098D02*
X173736000Y-114300000D01*
X181847298Y-91947800D02*
X173736000Y-100059098D01*
X183029100Y-91947800D02*
X181847298Y-91947800D01*
%TO.N,/ESP32/GPIO_03_U0RXD*%
X182385200Y-65406500D02*
X188940600Y-65406500D01*
X183029100Y-69087800D02*
X181702200Y-69087800D01*
X190119000Y-65405000D02*
X188942100Y-65405000D01*
X181702200Y-66089500D02*
X182385200Y-65406500D01*
X188940600Y-65406500D02*
X188942100Y-65405000D01*
X181702200Y-69087800D02*
X181702200Y-66089500D01*
%TO.N,/ESP32/GPIO_01_U0TXD*%
X183029100Y-66547800D02*
X187544900Y-66547800D01*
X190119000Y-67945000D02*
X188942100Y-67945000D01*
X187544900Y-66547800D02*
X188942100Y-67945000D01*
%TO.N,/ESP32/GPIO_23*%
X181702000Y-61467800D02*
X179161800Y-64008000D01*
X151536000Y-66318800D02*
X140712000Y-66318800D01*
X179161800Y-64008000D02*
X177800000Y-64008000D01*
X183029100Y-61467800D02*
X181702000Y-61467800D01*
X176860300Y-64947700D02*
X152907000Y-64947700D01*
X152907000Y-64947700D02*
X151536000Y-66318800D01*
X177800000Y-64008000D02*
X176860300Y-64947700D01*
%TO.N,/ESP32/GPIO_16*%
X113877000Y-75260800D02*
X109306000Y-70690300D01*
X175477000Y-82593900D02*
X175477000Y-80854295D01*
X183029100Y-86867800D02*
X179750900Y-86867800D01*
X175477000Y-80854295D02*
X169883505Y-75260800D01*
X169883505Y-75260800D02*
X113877000Y-75260800D01*
X179750900Y-86867800D02*
X175477000Y-82593900D01*
%TO.N,/ESP32/GPIO_17*%
X175551000Y-72851695D02*
X175551000Y-72861000D01*
X175514000Y-72898000D02*
X155836800Y-72898000D01*
X110236000Y-70983761D02*
X110236000Y-64689700D01*
X155836800Y-72898000D02*
X153924000Y-74810800D01*
X175768000Y-72634695D02*
X175551000Y-72851695D01*
X175551000Y-72861000D02*
X175514000Y-72898000D01*
X114063039Y-74810800D02*
X110236000Y-70983761D01*
X183029100Y-84327800D02*
X181863800Y-84327800D01*
X110236000Y-64689700D02*
X109337000Y-63790700D01*
X181863800Y-84327800D02*
X175514000Y-77978000D01*
X175768000Y-72136000D02*
X175768000Y-72634695D01*
X153924000Y-74810800D02*
X114063039Y-74810800D01*
X175514000Y-77978000D02*
X175514000Y-72898000D01*
D36*
%TO.N,I2C_SCL*%
X179644000Y-138227000D02*
X177769000Y-136352000D01*
X187530000Y-138227000D02*
X179644000Y-138227000D01*
X189405000Y-136352000D02*
X187530000Y-138227000D01*
%TD*%
M02*
