%TF.GenerationSoftware,KiCad,Pcbnew,7.0.8*%
%TF.CreationDate,2023-11-15T18:30:52+02:00*%
%TF.ProjectId,CAN_DISPLAY,43414e5f-4449-4535-904c-41592e6b6963,rev?*%
%TF.SameCoordinates,Original*%
%TF.FileFunction,Profile,NP*%
%FSLAX46Y46*%
G04 Gerber Fmt 4.6, Leading zero omitted, Abs format (unit mm)*
G04 Created by KiCad (PCBNEW 7.0.8) date 2023-11-15 18:30:52*
%MOMM*%
%LPD*%
G01*
G04 APERTURE LIST*
%TA.AperFunction,Profile*%
%ADD10C,0.100000*%
%TD*%
%TA.AperFunction,Profile*%
%ADD11C,0.050000*%
%TD*%
G04 APERTURE END LIST*
D10*
X214452000Y-55000000D02*
G75*
G03*
X214452000Y-55000000I-1600000J0D01*
G01*
X96341500Y-52832000D02*
X96341500Y-77724000D01*
X55700000Y-61700000D02*
G75*
G03*
X55700000Y-61700000I-1600000J0D01*
G01*
X217676680Y-100203000D02*
X217679319Y-121412000D01*
X217676680Y-100203000D02*
G75*
G03*
X210056680Y-100203000I-3810000J0D01*
G01*
X97611500Y-77724000D02*
X97611500Y-52832000D01*
X97663000Y-88585000D02*
X97663000Y-115062000D01*
X145618000Y-96266000D02*
G75*
G03*
X145618000Y-96266000I-1600000J0D01*
G01*
X210058000Y-121412000D02*
G75*
G03*
X217678000Y-121412000I3810000J0D01*
G01*
X96393000Y-115062000D02*
X96393000Y-88585000D01*
X236000000Y-141700000D02*
G75*
G03*
X236000000Y-141700000I-1600000J0D01*
G01*
X97611500Y-52832000D02*
G75*
G03*
X96341500Y-52832000I-635000J0D01*
G01*
X55700000Y-141700000D02*
G75*
G03*
X55700000Y-141700000I-1600000J0D01*
G01*
X210058000Y-121412000D02*
X210056680Y-100203000D01*
X76530000Y-147828000D02*
G75*
G03*
X76530000Y-147828000I-1600000J0D01*
G01*
X96393000Y-115062000D02*
G75*
G03*
X97663000Y-115062000I635000J0D01*
G01*
X96341500Y-77724000D02*
G75*
G03*
X97611500Y-77724000I635000J0D01*
G01*
X76600000Y-55000000D02*
G75*
G03*
X76600000Y-55000000I-1600000J0D01*
G01*
X97663000Y-88585000D02*
G75*
G03*
X96393000Y-88585000I-635000J0D01*
G01*
X214452000Y-147828000D02*
G75*
G03*
X214452000Y-147828000I-1600000J0D01*
G01*
X236000000Y-61700000D02*
G75*
G03*
X236000000Y-61700000I-1600000J0D01*
G01*
X50000000Y-50000000D02*
X238000000Y-50000000D01*
X238000000Y-153000000D01*
X50000000Y-153000000D01*
X50000000Y-50000000D01*
D11*
%TO.C,PS3*%
X115667500Y-115927000D02*
G75*
G03*
X115667500Y-115927000I-1750000J0D01*
G01*
X131672500Y-86127000D02*
G75*
G03*
X131672500Y-86127000I-1750000J0D01*
G01*
%TD*%
M02*
