%TF.GenerationSoftware,KiCad,Pcbnew,7.0.8*%
%TF.CreationDate,2023-11-15T18:30:51+02:00*%
%TF.ProjectId,CAN_DISPLAY,43414e5f-4449-4535-904c-41592e6b6963,rev?*%
%TF.SameCoordinates,Original*%
%TF.FileFunction,Copper,L1,Top*%
%TF.FilePolarity,Positive*%
%FSLAX46Y46*%
G04 Gerber Fmt 4.6, Leading zero omitted, Abs format (unit mm)*
G04 Created by KiCad (PCBNEW 7.0.8) date 2023-11-15 18:30:51*
%MOMM*%
%LPD*%
G01*
G04 APERTURE LIST*
G04 Aperture macros list*
%AMRoundRect*
0 Rectangle with rounded corners*
0 $1 Rounding radius*
0 $2 $3 $4 $5 $6 $7 $8 $9 X,Y pos of 4 corners*
0 Add a 4 corners polygon primitive as box body*
4,1,4,$2,$3,$4,$5,$6,$7,$8,$9,$2,$3,0*
0 Add four circle primitives for the rounded corners*
1,1,$1+$1,$2,$3*
1,1,$1+$1,$4,$5*
1,1,$1+$1,$6,$7*
1,1,$1+$1,$8,$9*
0 Add four rect primitives between the rounded corners*
20,1,$1+$1,$2,$3,$4,$5,0*
20,1,$1+$1,$4,$5,$6,$7,0*
20,1,$1+$1,$6,$7,$8,$9,0*
20,1,$1+$1,$8,$9,$2,$3,0*%
%AMFreePoly0*
4,1,19,0.500000,-0.750000,0.000000,-0.750000,0.000000,-0.744911,-0.071157,-0.744911,-0.207708,-0.704816,-0.327430,-0.627875,-0.420627,-0.520320,-0.479746,-0.390866,-0.500000,-0.250000,-0.500000,0.250000,-0.479746,0.390866,-0.420627,0.520320,-0.327430,0.627875,-0.207708,0.704816,-0.071157,0.744911,0.000000,0.744911,0.000000,0.750000,0.500000,0.750000,0.500000,-0.750000,0.500000,-0.750000,
$1*%
%AMFreePoly1*
4,1,19,0.000000,0.744911,0.071157,0.744911,0.207708,0.704816,0.327430,0.627875,0.420627,0.520320,0.479746,0.390866,0.500000,0.250000,0.500000,-0.250000,0.479746,-0.390866,0.420627,-0.520320,0.327430,-0.627875,0.207708,-0.704816,0.071157,-0.744911,0.000000,-0.744911,0.000000,-0.750000,-0.500000,-0.750000,-0.500000,0.750000,0.000000,0.750000,0.000000,0.744911,0.000000,0.744911,
$1*%
G04 Aperture macros list end*
%TA.AperFunction,SMDPad,CuDef*%
%ADD10R,1.000000X0.400000*%
%TD*%
%TA.AperFunction,SMDPad,CuDef*%
%ADD11R,1.300000X2.000000*%
%TD*%
%TA.AperFunction,SMDPad,CuDef*%
%ADD12RoundRect,0.250000X-0.475000X0.337500X-0.475000X-0.337500X0.475000X-0.337500X0.475000X0.337500X0*%
%TD*%
%TA.AperFunction,SMDPad,CuDef*%
%ADD13R,1.000000X1.500000*%
%TD*%
%TA.AperFunction,ComponentPad*%
%ADD14R,3.000000X3.000000*%
%TD*%
%TA.AperFunction,ComponentPad*%
%ADD15C,3.000000*%
%TD*%
%TA.AperFunction,ComponentPad*%
%ADD16R,1.700000X1.700000*%
%TD*%
%TA.AperFunction,ComponentPad*%
%ADD17O,1.700000X1.700000*%
%TD*%
%TA.AperFunction,SMDPad,CuDef*%
%ADD18RoundRect,0.250000X0.350000X0.450000X-0.350000X0.450000X-0.350000X-0.450000X0.350000X-0.450000X0*%
%TD*%
%TA.AperFunction,ComponentPad*%
%ADD19RoundRect,0.250000X-0.350000X-0.625000X0.350000X-0.625000X0.350000X0.625000X-0.350000X0.625000X0*%
%TD*%
%TA.AperFunction,ComponentPad*%
%ADD20O,1.200000X1.750000*%
%TD*%
%TA.AperFunction,ComponentPad*%
%ADD21R,2.200000X2.200000*%
%TD*%
%TA.AperFunction,ComponentPad*%
%ADD22O,2.200000X2.200000*%
%TD*%
%TA.AperFunction,SMDPad,CuDef*%
%ADD23RoundRect,0.150000X0.587500X0.150000X-0.587500X0.150000X-0.587500X-0.150000X0.587500X-0.150000X0*%
%TD*%
%TA.AperFunction,SMDPad,CuDef*%
%ADD24RoundRect,0.250000X-0.450000X0.325000X-0.450000X-0.325000X0.450000X-0.325000X0.450000X0.325000X0*%
%TD*%
%TA.AperFunction,SMDPad,CuDef*%
%ADD25RoundRect,0.150000X-0.150000X0.587500X-0.150000X-0.587500X0.150000X-0.587500X0.150000X0.587500X0*%
%TD*%
%TA.AperFunction,SMDPad,CuDef*%
%ADD26RoundRect,0.250000X-0.550000X1.250000X-0.550000X-1.250000X0.550000X-1.250000X0.550000X1.250000X0*%
%TD*%
%TA.AperFunction,SMDPad,CuDef*%
%ADD27RoundRect,0.250000X-0.450000X0.350000X-0.450000X-0.350000X0.450000X-0.350000X0.450000X0.350000X0*%
%TD*%
%TA.AperFunction,SMDPad,CuDef*%
%ADD28R,1.500000X1.000000*%
%TD*%
%TA.AperFunction,ComponentPad*%
%ADD29RoundRect,0.250000X0.625000X-0.350000X0.625000X0.350000X-0.625000X0.350000X-0.625000X-0.350000X0*%
%TD*%
%TA.AperFunction,ComponentPad*%
%ADD30O,1.750000X1.200000*%
%TD*%
%TA.AperFunction,ComponentPad*%
%ADD31C,2.200000*%
%TD*%
%TA.AperFunction,SMDPad,CuDef*%
%ADD32RoundRect,0.250000X-0.350000X-0.450000X0.350000X-0.450000X0.350000X0.450000X-0.350000X0.450000X0*%
%TD*%
%TA.AperFunction,SMDPad,CuDef*%
%ADD33R,1.300000X1.550000*%
%TD*%
%TA.AperFunction,SMDPad,CuDef*%
%ADD34RoundRect,0.250000X0.475000X-0.337500X0.475000X0.337500X-0.475000X0.337500X-0.475000X-0.337500X0*%
%TD*%
%TA.AperFunction,SMDPad,CuDef*%
%ADD35FreePoly0,180.000000*%
%TD*%
%TA.AperFunction,SMDPad,CuDef*%
%ADD36FreePoly1,180.000000*%
%TD*%
%TA.AperFunction,SMDPad,CuDef*%
%ADD37RoundRect,0.250000X-0.337500X-0.475000X0.337500X-0.475000X0.337500X0.475000X-0.337500X0.475000X0*%
%TD*%
%TA.AperFunction,SMDPad,CuDef*%
%ADD38R,1.500000X2.000000*%
%TD*%
%TA.AperFunction,SMDPad,CuDef*%
%ADD39R,3.800000X2.000000*%
%TD*%
%TA.AperFunction,ComponentPad*%
%ADD40R,1.750000X2.250000*%
%TD*%
%TA.AperFunction,ComponentPad*%
%ADD41O,1.750000X2.250000*%
%TD*%
%TA.AperFunction,ComponentPad*%
%ADD42C,1.701800*%
%TD*%
%TA.AperFunction,ComponentPad*%
%ADD43C,1.803400*%
%TD*%
%TA.AperFunction,SMDPad,CuDef*%
%ADD44R,1.500000X0.900000*%
%TD*%
%TA.AperFunction,SMDPad,CuDef*%
%ADD45R,0.900000X1.500000*%
%TD*%
%TA.AperFunction,SMDPad,CuDef*%
%ADD46R,0.900000X0.900000*%
%TD*%
%TA.AperFunction,ComponentPad*%
%ADD47R,2.000000X2.000000*%
%TD*%
%TA.AperFunction,ComponentPad*%
%ADD48C,2.000000*%
%TD*%
%TA.AperFunction,SMDPad,CuDef*%
%ADD49FreePoly0,270.000000*%
%TD*%
%TA.AperFunction,SMDPad,CuDef*%
%ADD50FreePoly1,270.000000*%
%TD*%
%TA.AperFunction,SMDPad,CuDef*%
%ADD51RoundRect,0.250001X-0.924999X0.499999X-0.924999X-0.499999X0.924999X-0.499999X0.924999X0.499999X0*%
%TD*%
%TA.AperFunction,SMDPad,CuDef*%
%ADD52R,0.500000X0.350000*%
%TD*%
%TA.AperFunction,ComponentPad*%
%ADD53O,5.500000X3.800000*%
%TD*%
%TA.AperFunction,ComponentPad*%
%ADD54O,5.300000X3.800000*%
%TD*%
%TA.AperFunction,SMDPad,CuDef*%
%ADD55RoundRect,0.250000X-0.550000X1.500000X-0.550000X-1.500000X0.550000X-1.500000X0.550000X1.500000X0*%
%TD*%
%TA.AperFunction,SMDPad,CuDef*%
%ADD56RoundRect,0.150000X-0.587500X-0.150000X0.587500X-0.150000X0.587500X0.150000X-0.587500X0.150000X0*%
%TD*%
%TA.AperFunction,SMDPad,CuDef*%
%ADD57RoundRect,0.250000X0.450000X-0.350000X0.450000X0.350000X-0.450000X0.350000X-0.450000X-0.350000X0*%
%TD*%
%TA.AperFunction,SMDPad,CuDef*%
%ADD58RoundRect,0.175000X0.175000X-0.275000X0.175000X0.275000X-0.175000X0.275000X-0.175000X-0.275000X0*%
%TD*%
%TA.AperFunction,SMDPad,CuDef*%
%ADD59RoundRect,0.250000X0.337500X0.475000X-0.337500X0.475000X-0.337500X-0.475000X0.337500X-0.475000X0*%
%TD*%
%TA.AperFunction,ComponentPad*%
%ADD60R,2.000000X1.200000*%
%TD*%
%TA.AperFunction,ComponentPad*%
%ADD61O,2.000000X1.200000*%
%TD*%
%TA.AperFunction,ComponentPad*%
%ADD62R,3.200000X3.200000*%
%TD*%
%TA.AperFunction,ComponentPad*%
%ADD63O,3.200000X3.200000*%
%TD*%
%TA.AperFunction,ComponentPad*%
%ADD64R,2.500000X2.500000*%
%TD*%
%TA.AperFunction,SMDPad,CuDef*%
%ADD65R,2.311400X0.558800*%
%TD*%
%TA.AperFunction,SMDPad,CuDef*%
%ADD66RoundRect,0.250000X0.450000X-0.325000X0.450000X0.325000X-0.450000X0.325000X-0.450000X-0.325000X0*%
%TD*%
%TA.AperFunction,SMDPad,CuDef*%
%ADD67FreePoly0,90.000000*%
%TD*%
%TA.AperFunction,SMDPad,CuDef*%
%ADD68FreePoly1,90.000000*%
%TD*%
%TA.AperFunction,SMDPad,CuDef*%
%ADD69RoundRect,0.250000X-0.325000X-0.450000X0.325000X-0.450000X0.325000X0.450000X-0.325000X0.450000X0*%
%TD*%
%TA.AperFunction,SMDPad,CuDef*%
%ADD70RoundRect,0.162500X1.012500X0.162500X-1.012500X0.162500X-1.012500X-0.162500X1.012500X-0.162500X0*%
%TD*%
%TA.AperFunction,SMDPad,CuDef*%
%ADD71RoundRect,0.250000X1.250000X0.550000X-1.250000X0.550000X-1.250000X-0.550000X1.250000X-0.550000X0*%
%TD*%
%TA.AperFunction,ViaPad*%
%ADD72C,0.800000*%
%TD*%
%TA.AperFunction,Conductor*%
%ADD73C,0.500000*%
%TD*%
%TA.AperFunction,Conductor*%
%ADD74C,1.000000*%
%TD*%
%TA.AperFunction,Conductor*%
%ADD75C,0.250000*%
%TD*%
%TA.AperFunction,Conductor*%
%ADD76C,2.000000*%
%TD*%
%TA.AperFunction,Conductor*%
%ADD77C,1.500000*%
%TD*%
%TA.AperFunction,Conductor*%
%ADD78C,2.500000*%
%TD*%
G04 APERTURE END LIST*
%TA.AperFunction,EtchedComponent*%
%TO.C,JP15*%
G36*
X105772000Y-96312000D02*
G01*
X105272000Y-96312000D01*
X105272000Y-95712000D01*
X105772000Y-95712000D01*
X105772000Y-96312000D01*
G37*
%TD.AperFunction*%
%TA.AperFunction,EtchedComponent*%
%TO.C,JP4*%
G36*
X199257000Y-137510800D02*
G01*
X198757000Y-137510800D01*
X198757000Y-136910800D01*
X199257000Y-136910800D01*
X199257000Y-137510800D01*
G37*
%TD.AperFunction*%
%TA.AperFunction,EtchedComponent*%
%TO.C,JP6*%
G36*
X113076000Y-68210000D02*
G01*
X112476000Y-68210000D01*
X112476000Y-67710000D01*
X113076000Y-67710000D01*
X113076000Y-68210000D01*
G37*
%TD.AperFunction*%
%TA.AperFunction,EtchedComponent*%
%TO.C,JP1*%
G36*
X197237400Y-113304600D02*
G01*
X196737400Y-113304600D01*
X196737400Y-112704600D01*
X197237400Y-112704600D01*
X197237400Y-113304600D01*
G37*
%TD.AperFunction*%
%TA.AperFunction,EtchedComponent*%
%TO.C,JP2*%
G36*
X84914000Y-118410000D02*
G01*
X84414000Y-118410000D01*
X84414000Y-117810000D01*
X84914000Y-117810000D01*
X84914000Y-118410000D01*
G37*
%TD.AperFunction*%
%TA.AperFunction,EtchedComponent*%
%TO.C,JP7*%
G36*
X107804000Y-67102000D02*
G01*
X107304000Y-67102000D01*
X107304000Y-66502000D01*
X107804000Y-66502000D01*
X107804000Y-67102000D01*
G37*
%TD.AperFunction*%
%TA.AperFunction,EtchedComponent*%
%TO.C,JP13*%
G36*
X192197000Y-88286400D02*
G01*
X191597000Y-88286400D01*
X191597000Y-87786400D01*
X192197000Y-87786400D01*
X192197000Y-88286400D01*
G37*
%TD.AperFunction*%
%TA.AperFunction,EtchedComponent*%
%TO.C,JP24*%
G36*
X157730000Y-114600000D02*
G01*
X157230000Y-114600000D01*
X157230000Y-114000000D01*
X157730000Y-114000000D01*
X157730000Y-114600000D01*
G37*
%TD.AperFunction*%
%TA.AperFunction,EtchedComponent*%
%TO.C,JP18*%
G36*
X74976000Y-77608000D02*
G01*
X74376000Y-77608000D01*
X74376000Y-77108000D01*
X74976000Y-77108000D01*
X74976000Y-77608000D01*
G37*
%TD.AperFunction*%
%TA.AperFunction,EtchedComponent*%
%TO.C,JP5*%
G36*
X56793702Y-70578809D02*
G01*
X56293702Y-70578809D01*
X56293702Y-69978809D01*
X56793702Y-69978809D01*
X56793702Y-70578809D01*
G37*
%TD.AperFunction*%
%TA.AperFunction,EtchedComponent*%
%TO.C,JP10*%
G36*
X180814000Y-113076000D02*
G01*
X180314000Y-113076000D01*
X180314000Y-112476000D01*
X180814000Y-112476000D01*
X180814000Y-113076000D01*
G37*
%TD.AperFunction*%
%TA.AperFunction,EtchedComponent*%
%TO.C,JP14*%
G36*
X105772000Y-93772000D02*
G01*
X105272000Y-93772000D01*
X105272000Y-93172000D01*
X105772000Y-93172000D01*
X105772000Y-93772000D01*
G37*
%TD.AperFunction*%
%TA.AperFunction,EtchedComponent*%
%TO.C,JP3*%
G36*
X71228000Y-94280000D02*
G01*
X70728000Y-94280000D01*
X70728000Y-93680000D01*
X71228000Y-93680000D01*
X71228000Y-94280000D01*
G37*
%TD.AperFunction*%
%TA.AperFunction,EtchedComponent*%
%TO.C,JP12*%
G36*
X189606200Y-88286400D02*
G01*
X189006200Y-88286400D01*
X189006200Y-87786400D01*
X189606200Y-87786400D01*
X189606200Y-88286400D01*
G37*
%TD.AperFunction*%
%TA.AperFunction,EtchedComponent*%
%TO.C,JP11*%
G36*
X180803600Y-110434400D02*
G01*
X180303600Y-110434400D01*
X180303600Y-109834400D01*
X180803600Y-109834400D01*
X180803600Y-110434400D01*
G37*
%TD.AperFunction*%
%TA.AperFunction,EtchedComponent*%
%TO.C,JP9*%
G36*
X107804000Y-64308000D02*
G01*
X107304000Y-64308000D01*
X107304000Y-63708000D01*
X107804000Y-63708000D01*
X107804000Y-64308000D01*
G37*
%TD.AperFunction*%
%TA.AperFunction,EtchedComponent*%
%TO.C,JP22*%
G36*
X149968000Y-72055000D02*
G01*
X149468000Y-72055000D01*
X149468000Y-71455000D01*
X149968000Y-71455000D01*
X149968000Y-72055000D01*
G37*
%TD.AperFunction*%
%TA.AperFunction,EtchedComponent*%
%TO.C,JP8*%
G36*
X107804000Y-70912000D02*
G01*
X107304000Y-70912000D01*
X107304000Y-70312000D01*
X107804000Y-70312000D01*
X107804000Y-70912000D01*
G37*
%TD.AperFunction*%
%TD*%
D10*
%TO.P,J1,1,Pin_1*%
%TO.N,+5V*%
X199948800Y-115680000D03*
%TO.P,J1,2,Pin_2*%
X199948800Y-114680000D03*
%TO.P,J1,3,Pin_3*%
X199948800Y-113680000D03*
%TO.P,J1,4,Pin_4*%
%TO.N,Net-(J1-Pin_4)*%
X199948800Y-112680000D03*
%TO.P,J1,5,Pin_5*%
%TO.N,/Display/DWIN TX*%
X199948800Y-111680000D03*
%TO.P,J1,6,Pin_6*%
%TO.N,/Display/DWIN RX*%
X199948800Y-110680000D03*
%TO.P,J1,7,Pin_7*%
%TO.N,unconnected-(J1-Pin_7-Pad7)*%
X199948800Y-109680000D03*
%TO.P,J1,8,Pin_8*%
%TO.N,GND*%
X199948800Y-108680000D03*
%TO.P,J1,9,Pin_9*%
X199948800Y-107680000D03*
%TO.P,J1,10,Pin_10*%
X199948800Y-106680000D03*
D11*
%TO.P,J1,MP*%
%TO.N,N/C*%
X202648800Y-118480000D03*
X202648800Y-103880000D03*
%TD*%
D12*
%TO.P,C26,1*%
%TO.N,+5V*%
X185039000Y-116945500D03*
%TO.P,C26,2*%
%TO.N,GND*%
X185039000Y-119020500D03*
%TD*%
D13*
%TO.P,JP15,1,A*%
%TO.N,/ESP32/GPIO_04*%
X106172000Y-96012000D03*
%TO.P,JP15,2,B*%
%TO.N,CANBUS_TO_RX*%
X104872000Y-96012000D03*
%TD*%
D14*
%TO.P,J6,1,Pin_1*%
%TO.N,Net-(J6-Pin_1)*%
X64516000Y-134620000D03*
D15*
%TO.P,J6,2,Pin_2*%
%TO.N,GNDPWR*%
X64516000Y-139700000D03*
%TD*%
D16*
%TO.P,J16,1,Pin_1*%
%TO.N,+3V3*%
X196860000Y-144780000D03*
D17*
%TO.P,J16,2,Pin_2*%
%TO.N,GND*%
X199400000Y-144780000D03*
%TO.P,J16,3,Pin_3*%
%TO.N,I2C_SCL*%
X201940000Y-144780000D03*
%TO.P,J16,4,Pin_4*%
%TO.N,I2C_SDA*%
X204480000Y-144780000D03*
%TD*%
D18*
%TO.P,R1,1*%
%TO.N,Net-(U5-B)*%
X88868000Y-68072000D03*
%TO.P,R1,2*%
%TO.N,/Isolated/NMEA OUT-*%
X86868000Y-68072000D03*
%TD*%
D19*
%TO.P,J3,1,Pin_1*%
%TO.N,+3V3*%
X173769000Y-136352000D03*
D20*
%TO.P,J3,2,Pin_2*%
%TO.N,GND*%
X175769000Y-136352000D03*
%TO.P,J3,3,Pin_3*%
%TO.N,I2C_SCL*%
X177769000Y-136352000D03*
%TO.P,J3,4,Pin_4*%
%TO.N,I2C_SDA*%
X179769000Y-136352000D03*
%TD*%
D21*
%TO.P,D11,1,K*%
%TO.N,Net-(D1-K)*%
X57327800Y-121158000D03*
D22*
%TO.P,D11,2,A*%
%TO.N,GND2*%
X57327800Y-110998000D03*
%TD*%
D23*
%TO.P,D8,1,K*%
%TO.N,/Isolated/NMEA OUT+*%
X79677500Y-81722000D03*
%TO.P,D8,2,K*%
%TO.N,/Isolated/NMEA OUT-*%
X79677500Y-79822000D03*
%TO.P,D8,3,A*%
%TO.N,GND3*%
X77802500Y-80772000D03*
%TD*%
D13*
%TO.P,JP4,1,A*%
%TO.N,+3V3*%
X198357000Y-137210800D03*
%TO.P,JP4,2,C*%
%TO.N,Net-(JP4-C)*%
X199657000Y-137210800D03*
%TO.P,JP4,3,B*%
%TO.N,GND*%
X200957000Y-137210800D03*
%TD*%
D24*
%TO.P,D4,1,K*%
%TO.N,GND*%
X121920000Y-69912500D03*
%TO.P,D4,2,A*%
%TO.N,Net-(D4-A)*%
X121920000Y-71962500D03*
%TD*%
D25*
%TO.P,D9,1,A*%
%TO.N,GND*%
X142428000Y-69674500D03*
%TO.P,D9,2,K*%
%TO.N,+3V3*%
X140528000Y-69674500D03*
%TO.P,D9,3,COM*%
%TO.N,A2D_12V*%
X141478000Y-71549500D03*
%TD*%
D26*
%TO.P,C17,1*%
%TO.N,+3V3*%
X143891000Y-61935000D03*
%TO.P,C17,2*%
%TO.N,GND*%
X143891000Y-66335000D03*
%TD*%
D27*
%TO.P,R7,1*%
%TO.N,Net-(JP18-A)*%
X74676000Y-80026000D03*
%TO.P,R7,2*%
%TO.N,/Isolated/NMEA OUT+*%
X74676000Y-82026000D03*
%TD*%
D16*
%TO.P,J8,1,Pin_1*%
%TO.N,unconnected-(J8-Pin_1-Pad1)*%
X113284000Y-109220000D03*
D17*
%TO.P,J8,2,Pin_2*%
%TO.N,+12V*%
X113284000Y-106680000D03*
%TO.P,J8,3,Pin_3*%
%TO.N,GND*%
X113284000Y-104140000D03*
%TO.P,J8,4,Pin_4*%
%TO.N,+5V*%
X113284000Y-101600000D03*
%TD*%
D18*
%TO.P,R21,1*%
%TO.N,A2D_12V*%
X131032000Y-132588000D03*
%TO.P,R21,2*%
%TO.N,+12V*%
X129032000Y-132588000D03*
%TD*%
D26*
%TO.P,C6,1*%
%TO.N,+5V*%
X107213400Y-120558200D03*
%TO.P,C6,2*%
%TO.N,GND*%
X107213400Y-124958200D03*
%TD*%
D28*
%TO.P,JP6,1,A*%
%TO.N,GND*%
X112776000Y-67310000D03*
%TO.P,JP6,2,C*%
%TO.N,Net-(JP6-C)*%
X112776000Y-68610000D03*
%TO.P,JP6,3,B*%
%TO.N,+3V3*%
X112776000Y-69910000D03*
%TD*%
D13*
%TO.P,JP1,1,A*%
%TO.N,GND*%
X196337400Y-113004600D03*
%TO.P,JP1,2,B*%
%TO.N,Net-(J1-Pin_4)*%
X197637400Y-113004600D03*
%TD*%
D29*
%TO.P,J14,1,Pin_1*%
%TO.N,+5V*%
X188278600Y-118455200D03*
D30*
%TO.P,J14,2,Pin_2*%
X188278600Y-116455200D03*
%TO.P,J14,3,Pin_3*%
%TO.N,unconnected-(J14-Pin_3-Pad3)*%
X188278600Y-114455200D03*
%TO.P,J14,4,Pin_4*%
%TO.N,/Display/DWIN TX*%
X188278600Y-112455200D03*
%TO.P,J14,5,Pin_5*%
%TO.N,/Display/DWIN RX*%
X188278600Y-110455200D03*
%TO.P,J14,6,Pin_6*%
%TO.N,unconnected-(J14-Pin_6-Pad6)*%
X188278600Y-108455200D03*
%TO.P,J14,7,Pin_7*%
%TO.N,GND*%
X188278600Y-106455200D03*
%TO.P,J14,8,Pin_8*%
X188278600Y-104455200D03*
%TD*%
D13*
%TO.P,JP2,1,A*%
%TO.N,Net-(J9-Pin_4)*%
X84014000Y-118110000D03*
%TO.P,JP2,2,C*%
%TO.N,+5VD*%
X85314000Y-118110000D03*
%TO.P,JP2,3,B*%
%TO.N,Net-(JP2-B)*%
X86614000Y-118110000D03*
%TD*%
D18*
%TO.P,R22,1*%
%TO.N,GND*%
X135239000Y-132588000D03*
%TO.P,R22,2*%
%TO.N,A2D_12V*%
X133239000Y-132588000D03*
%TD*%
D14*
%TO.P,J20,1,Pin_1*%
%TO.N,Net-(J20-Pin_1)*%
X65024000Y-56788000D03*
D15*
%TO.P,J20,2,Pin_2*%
%TO.N,/Isolated/NMEA IN-*%
X65024000Y-61788000D03*
%TO.P,J20,3,Pin_3*%
%TO.N,/Isolated/NMEA IN+*%
X65024000Y-66788000D03*
%TO.P,J20,4,Pin_4*%
%TO.N,Net-(J20-Pin_1)*%
X65024000Y-71788000D03*
%TO.P,J20,5,Pin_5*%
%TO.N,/Isolated/NMEA OUT-*%
X65024000Y-76788000D03*
%TO.P,J20,6,Pin_6*%
%TO.N,/Isolated/NMEA OUT+*%
X65024000Y-81788000D03*
%TD*%
D31*
%TO.P,FL1,1,1*%
%TO.N,Net-(D12-K)*%
X94568000Y-135636000D03*
%TO.P,FL1,2,2*%
%TO.N,/PowerSuply/12V_FL*%
X99568000Y-135636000D03*
%TO.P,FL1,3,3*%
%TO.N,GND*%
X99568000Y-143336000D03*
%TO.P,FL1,4,4*%
%TO.N,GNDPWR*%
X94568000Y-143336000D03*
%TD*%
D18*
%TO.P,R11,1*%
%TO.N,Net-(D5-A)*%
X191008000Y-73152000D03*
%TO.P,R11,2*%
%TO.N,/ESP32/GPIO_13*%
X189008000Y-73152000D03*
%TD*%
D32*
%TO.P,R13,1*%
%TO.N,TX_DISPLAY_RX*%
X183272400Y-112471200D03*
%TO.P,R13,2*%
%TO.N,/Display/DWIN TX*%
X185272400Y-112471200D03*
%TD*%
D33*
%TO.P,SW1,1,1*%
%TO.N,GND*%
X169214500Y-122603000D03*
X169214500Y-114653000D03*
%TO.P,SW1,2,2*%
%TO.N,/ESP32/GPIO_00_BOOT*%
X173714500Y-122603000D03*
X173714500Y-114653000D03*
%TD*%
D34*
%TO.P,C32,1*%
%TO.N,+5VA*%
X85598000Y-75481000D03*
%TO.P,C32,2*%
%TO.N,GND3*%
X85598000Y-73406000D03*
%TD*%
D35*
%TO.P,JP19,1,A*%
%TO.N,Net-(JP19-A)*%
X85902800Y-94056200D03*
D36*
%TO.P,JP19,2,B*%
%TO.N,Net-(JP19-B)*%
X84602800Y-94056200D03*
%TD*%
D37*
%TO.P,C21,1*%
%TO.N,GND*%
X171661000Y-124968000D03*
%TO.P,C21,2*%
%TO.N,/ESP32/GPIO_00_BOOT*%
X173736000Y-124968000D03*
%TD*%
D21*
%TO.P,D6,1,K*%
%TO.N,+5V*%
X139700000Y-100584000D03*
D22*
%TO.P,D6,2,A*%
%TO.N,Net-(BZ1-+)*%
X139700000Y-110744000D03*
%TD*%
D37*
%TO.P,C22,1*%
%TO.N,GND*%
X164570500Y-124813000D03*
%TO.P,C22,2*%
%TO.N,/ESP32/EN*%
X166645500Y-124813000D03*
%TD*%
D38*
%TO.P,U7,1,GND*%
%TO.N,GND*%
X130796000Y-67158000D03*
%TO.P,U7,2,VO*%
%TO.N,+3V3*%
X133096000Y-67158000D03*
D39*
X133096000Y-60858000D03*
D38*
%TO.P,U7,3,VI*%
%TO.N,+5V*%
X135396000Y-67158000D03*
%TD*%
D16*
%TO.P,J10,1,Pin_1*%
%TO.N,unconnected-(J10-Pin_1-Pad1)*%
X147231400Y-139491000D03*
D17*
%TO.P,J10,2,Pin_2*%
%TO.N,+12V*%
X144691400Y-139491000D03*
%TO.P,J10,3,Pin_3*%
%TO.N,GND*%
X142151400Y-139491000D03*
%TO.P,J10,4,Pin_4*%
%TO.N,+5VP*%
X139611400Y-139491000D03*
%TD*%
D32*
%TO.P,R6,1*%
%TO.N,/Isolated/NMEA OUT+*%
X77724000Y-83820000D03*
%TO.P,R6,2*%
%TO.N,+5VA*%
X79724000Y-83820000D03*
%TD*%
D18*
%TO.P,R15,1*%
%TO.N,/Display/DWIN RX*%
X185272400Y-110439200D03*
%TO.P,R15,2*%
%TO.N,RX_DISPLAY_TX*%
X183272400Y-110439200D03*
%TD*%
D40*
%TO.P,PS1,1,-Vin*%
%TO.N,GND*%
X100076000Y-117856000D03*
D41*
%TO.P,PS1,2,+Vin*%
%TO.N,+5V*%
X97536000Y-117856000D03*
%TO.P,PS1,3,-Vout*%
%TO.N,GND2*%
X94996000Y-117856000D03*
%TO.P,PS1,4,+Vout*%
%TO.N,Net-(JP2-B)*%
X92456000Y-117856000D03*
%TD*%
D34*
%TO.P,C19,1*%
%TO.N,+5VP*%
X157513000Y-132480500D03*
%TO.P,C19,2*%
%TO.N,GND*%
X157513000Y-130405500D03*
%TD*%
D13*
%TO.P,JP7,1,A*%
%TO.N,/ESP32/GPIO_15*%
X108204000Y-66802000D03*
%TO.P,JP7,2,B*%
%TO.N,NMEA0183_Enable*%
X106904000Y-66802000D03*
%TD*%
D42*
%TO.P,J4,1,1*%
%TO.N,Net-(JP3-A)*%
X67289500Y-97475000D03*
%TO.P,J4,2,2*%
%TO.N,Net-(D1-A)*%
X67289500Y-101010534D03*
%TO.P,J4,3,3*%
%TO.N,GND2*%
X63753966Y-101010534D03*
%TO.P,J4,4,4*%
%TO.N,Net-(U3-CANH)*%
X63753966Y-97475000D03*
%TO.P,J4,5,5*%
%TO.N,Net-(JP19-A)*%
X65521733Y-99242767D03*
D43*
%TO.P,J4,6*%
%TO.N,Net-(JP3-A)*%
X61521741Y-99242767D03*
%TD*%
D44*
%TO.P,U2,1,GND*%
%TO.N,GND*%
X161562000Y-59456000D03*
%TO.P,U2,2,3V3*%
%TO.N,+3V3*%
X161562000Y-60726000D03*
%TO.P,U2,3,EN/CHIP_PU*%
%TO.N,/ESP32/EN*%
X161562000Y-61996000D03*
%TO.P,U2,4,SENSOR_VP/GPIO36/ADC1_CH0*%
%TO.N,/ESP32/GPIO_36*%
X161562000Y-63266000D03*
%TO.P,U2,5,SENSOR_VN/GPIO39/ADC1_CH3*%
%TO.N,/ESP32/GPIO_39*%
X161562000Y-64536000D03*
%TO.P,U2,6,GPIO34/ADC1_CH6*%
%TO.N,/ESP32/GPIO_34*%
X161562000Y-65806000D03*
%TO.P,U2,7,GPIO35/ADC1_CH7*%
%TO.N,/ESP32/GPIO_35*%
X161562000Y-67076000D03*
%TO.P,U2,8,32K_XP/GPIO32/ADC1_CH4*%
%TO.N,/ESP32/GPIO_32_32K*%
X161562000Y-68346000D03*
%TO.P,U2,9,32K_XN/GPIO33/ADC1_CH5*%
%TO.N,/ESP32/GPIO_33_32K*%
X161562000Y-69616000D03*
%TO.P,U2,10,DAC_1/ADC2_CH8/GPIO25*%
%TO.N,/ESP32/GPIO_25*%
X161562000Y-70886000D03*
%TO.P,U2,11,DAC_2/ADC2_CH9/GPIO26*%
%TO.N,/ESP32/GPIO_26*%
X161562000Y-72156000D03*
%TO.P,U2,12,ADC2_CH7/GPIO27*%
%TO.N,/ESP32/GPIO_27*%
X161562000Y-73426000D03*
%TO.P,U2,13,MTMS/GPIO14/ADC2_CH6*%
%TO.N,/ESP32/GPIO_14*%
X161562000Y-74696000D03*
%TO.P,U2,14,MTDI/GPIO12/ADC2_CH5*%
%TO.N,/ESP32/GPIO_12*%
X161562000Y-75966000D03*
D45*
%TO.P,U2,15,GND*%
%TO.N,GND*%
X164592000Y-77216000D03*
%TO.P,U2,16,MTCK/GPIO13/ADC2_CH4*%
%TO.N,/ESP32/GPIO_13*%
X165862000Y-77216000D03*
%TO.P,U2,17*%
%TO.N,N/C*%
X167132000Y-77216000D03*
%TO.P,U2,18*%
X168402000Y-77216000D03*
%TO.P,U2,19*%
X169672000Y-77216000D03*
%TO.P,U2,20*%
X170942000Y-77216000D03*
%TO.P,U2,21*%
X172212000Y-77216000D03*
%TO.P,U2,22*%
X173482000Y-77216000D03*
%TO.P,U2,23,MTDO/GPIO15/ADC2_CH3*%
%TO.N,/ESP32/GPIO_15*%
X174752000Y-77216000D03*
%TO.P,U2,24,ADC2_CH2/GPIO2*%
%TO.N,/ESP32/GPIO_02*%
X176022000Y-77216000D03*
D44*
%TO.P,U2,25,GPIO0/BOOT/ADC2_CH1*%
%TO.N,/ESP32/GPIO_00_BOOT*%
X179062000Y-75966000D03*
%TO.P,U2,26,ADC2_CH0/GPIO4*%
%TO.N,/ESP32/GPIO_04*%
X179062000Y-74696000D03*
%TO.P,U2,27,GPIO16*%
%TO.N,/ESP32/GPIO_16*%
X179062000Y-73426000D03*
%TO.P,U2,28,GPIO17*%
%TO.N,/ESP32/GPIO_17*%
X179062000Y-72156000D03*
%TO.P,U2,29,GPIO5*%
%TO.N,/ESP32/GPIO_05*%
X179062000Y-70886000D03*
%TO.P,U2,30,GPIO18*%
%TO.N,/ESP32/GPIO_18*%
X179062000Y-69616000D03*
%TO.P,U2,31,GPIO19*%
%TO.N,/ESP32/GPIO_19*%
X179062000Y-68346000D03*
%TO.P,U2,32*%
%TO.N,N/C*%
X179062000Y-67076000D03*
%TO.P,U2,33,GPIO21*%
%TO.N,/ESP32/GPIO_21*%
X179062000Y-65806000D03*
%TO.P,U2,34,U0RXD/GPIO3*%
%TO.N,/ESP32/GPIO_03_U0RXD*%
X179062000Y-64536000D03*
%TO.P,U2,35,U0TXD/GPIO1*%
%TO.N,/ESP32/GPIO_01_U0TXD*%
X179062000Y-63266000D03*
%TO.P,U2,36,GPIO22*%
%TO.N,/ESP32/GPIO_22*%
X179062000Y-61996000D03*
%TO.P,U2,37,GPIO23*%
%TO.N,/ESP32/GPIO_23*%
X179062000Y-60726000D03*
%TO.P,U2,38,GND*%
%TO.N,GND*%
X179062000Y-59456000D03*
D46*
%TO.P,U2,39,GND_THERMAL*%
X167412000Y-65776000D03*
X167412000Y-65776000D03*
X167412000Y-67176000D03*
X167412000Y-68576000D03*
X167412000Y-68576000D03*
X168812000Y-65776000D03*
X168812000Y-67176000D03*
X168812000Y-68576000D03*
X168812000Y-68576000D03*
X170212000Y-65776000D03*
X170212000Y-67176000D03*
X170212000Y-68576000D03*
%TD*%
D47*
%TO.P,BZ1,1,-*%
%TO.N,+5V*%
X148336000Y-101356000D03*
D48*
%TO.P,BZ1,2,+*%
%TO.N,Net-(BZ1-+)*%
X148336000Y-108956000D03*
%TD*%
D38*
%TO.P,U4,1,GND*%
%TO.N,GND2*%
X75170000Y-124562000D03*
%TO.P,U4,2,VO*%
%TO.N,Net-(J9-Pin_4)*%
X77470000Y-124562000D03*
D39*
X77470000Y-118262000D03*
D38*
%TO.P,U4,3,VI*%
%TO.N,Net-(D1-K)*%
X79770000Y-124562000D03*
%TD*%
D49*
%TO.P,JP20,1,A*%
%TO.N,/ESP32/EN*%
X194564000Y-87376000D03*
D50*
%TO.P,JP20,2,B*%
%TO.N,Net-(JP20-B)*%
X194564000Y-88676000D03*
%TD*%
D14*
%TO.P,J15,1,Pin_1*%
%TO.N,GND*%
X152908000Y-138557000D03*
D15*
%TO.P,J15,2,Pin_2*%
%TO.N,/ESP32/GPIO_32_32K*%
X157988000Y-138557000D03*
%TO.P,J15,3,Pin_3*%
%TO.N,/ESP32/GPIO_33_32K*%
X163068000Y-138557000D03*
%TO.P,J15,4,Pin_4*%
%TO.N,+5VP*%
X168148000Y-138557000D03*
%TD*%
D18*
%TO.P,R2,1*%
%TO.N,Net-(U5-A)*%
X88900000Y-70358000D03*
%TO.P,R2,2*%
%TO.N,/Isolated/NMEA OUT+*%
X86900000Y-70358000D03*
%TD*%
D16*
%TO.P,J13,1,Pin_1*%
%TO.N,GND*%
X190119000Y-60325000D03*
D17*
%TO.P,J13,2,Pin_2*%
%TO.N,+3V3*%
X190119000Y-62865000D03*
%TO.P,J13,3,Pin_3*%
%TO.N,/ESP32/GPIO_03_U0RXD*%
X190119000Y-65405000D03*
%TO.P,J13,4,Pin_4*%
%TO.N,/ESP32/GPIO_01_U0TXD*%
X190119000Y-67945000D03*
%TD*%
D51*
%TO.P,C28,1*%
%TO.N,+3V3*%
X148539200Y-59081000D03*
%TO.P,C28,2*%
%TO.N,GND*%
X148539200Y-62331000D03*
%TD*%
D21*
%TO.P,D1,1,K*%
%TO.N,Net-(D1-K)*%
X60960000Y-121158000D03*
D22*
%TO.P,D1,2,A*%
%TO.N,Net-(D1-A)*%
X60960000Y-110998000D03*
%TD*%
D12*
%TO.P,C29,1*%
%TO.N,+3V3*%
X151384000Y-59414500D03*
%TO.P,C29,2*%
%TO.N,GND*%
X151384000Y-61489500D03*
%TD*%
%TO.P,C13,1*%
%TO.N,+5VD*%
X85344000Y-120650000D03*
%TO.P,C13,2*%
%TO.N,GND2*%
X85344000Y-122725000D03*
%TD*%
D28*
%TO.P,JP13,1,A*%
%TO.N,/ESP32/GPIO_22*%
X191897000Y-87386400D03*
%TO.P,JP13,2,B*%
%TO.N,I2C_SCL*%
X191897000Y-88686400D03*
%TD*%
D12*
%TO.P,C7,1*%
%TO.N,Net-(D12-K)*%
X88392000Y-137668000D03*
%TO.P,C7,2*%
%TO.N,GNDPWR*%
X88392000Y-139743000D03*
%TD*%
D21*
%TO.P,D10,1,K*%
%TO.N,/PowerSuply/12V_FL*%
X107010200Y-134213600D03*
D22*
%TO.P,D10,2,A*%
%TO.N,GND*%
X107010200Y-144373600D03*
%TD*%
D52*
%TO.P,U6,1,GND*%
%TO.N,GND*%
X198521600Y-142069900D03*
%TO.P,U6,2,CSB*%
%TO.N,+3V3*%
X198521600Y-141419900D03*
%TO.P,U6,3,SDI*%
%TO.N,I2C_SDA*%
X198521600Y-140769900D03*
%TO.P,U6,4,SCK*%
%TO.N,I2C_SCL*%
X198521600Y-140119900D03*
%TO.P,U6,5,SDO*%
%TO.N,Net-(JP4-C)*%
X200571600Y-140119900D03*
%TO.P,U6,6,VDDIO*%
%TO.N,+3V3*%
X200571600Y-140769900D03*
%TO.P,U6,7,GND*%
%TO.N,GND*%
X200571600Y-141419900D03*
%TO.P,U6,8,VDD*%
%TO.N,+3V3*%
X200571600Y-142069900D03*
%TD*%
D53*
%TO.P,F1,1*%
%TO.N,Net-(J6-Pin_1)*%
X74676000Y-140716000D03*
D54*
%TO.P,F1,2*%
%TO.N,Net-(D12-A)*%
X82676000Y-140716000D03*
%TD*%
D16*
%TO.P,J9,1,Pin_1*%
%TO.N,unconnected-(J9-Pin_1-Pad1)*%
X71882000Y-113233200D03*
D17*
%TO.P,J9,2,Pin_2*%
%TO.N,Net-(D1-K)*%
X71882000Y-110693200D03*
%TO.P,J9,3,Pin_3*%
%TO.N,GND2*%
X71882000Y-108153200D03*
%TO.P,J9,4,Pin_4*%
%TO.N,Net-(J9-Pin_4)*%
X71882000Y-105613200D03*
%TD*%
D13*
%TO.P,JP24,1,A*%
%TO.N,/ESP32/GPIO_14*%
X158130000Y-114300000D03*
%TO.P,JP24,2,B*%
%TO.N,BUZZER*%
X156830000Y-114300000D03*
%TD*%
D34*
%TO.P,C33,1*%
%TO.N,+5V*%
X104648000Y-78253500D03*
%TO.P,C33,2*%
%TO.N,GND*%
X104648000Y-76178500D03*
%TD*%
D55*
%TO.P,C11,1*%
%TO.N,Net-(D1-K)*%
X69342000Y-118204000D03*
%TO.P,C11,2*%
%TO.N,GND2*%
X69342000Y-123604000D03*
%TD*%
D12*
%TO.P,C27,1*%
%TO.N,+3V3*%
X153670000Y-59414500D03*
%TO.P,C27,2*%
%TO.N,GND*%
X153670000Y-61489500D03*
%TD*%
D16*
%TO.P,J19,1,Pin_1*%
%TO.N,+3V3*%
X153416000Y-90424000D03*
D17*
%TO.P,J19,2,Pin_2*%
%TO.N,GND*%
X150876000Y-90424000D03*
%TO.P,J19,3,Pin_3*%
%TO.N,I2C_SCL*%
X148336000Y-90424000D03*
%TO.P,J19,4,Pin_4*%
%TO.N,I2C_SDA*%
X145796000Y-90424000D03*
%TD*%
D56*
%TO.P,Q1,1,C*%
%TO.N,Net-(BZ1-+)*%
X148336000Y-113284000D03*
%TO.P,Q1,2,B*%
%TO.N,Net-(Q1-B)*%
X148336000Y-115184000D03*
%TO.P,Q1,3,E*%
%TO.N,GND*%
X150211000Y-114234000D03*
%TD*%
D57*
%TO.P,R23,1*%
%TO.N,/ESP32/GPIO_21*%
X189255400Y-85322400D03*
%TO.P,R23,2*%
%TO.N,+3V3*%
X189255400Y-83322400D03*
%TD*%
D58*
%TO.P,LED1,1,VDD*%
%TO.N,+3V3*%
X147402000Y-81132000D03*
%TO.P,LED1,2,SCL*%
%TO.N,I2C_SCL*%
X148352000Y-81132000D03*
%TO.P,LED1,3,GND*%
%TO.N,GND*%
X149352000Y-81132000D03*
%TO.P,LED1,4,NC*%
%TO.N,unconnected-(LED1-NC-Pad4)*%
X149352000Y-78232000D03*
%TO.P,LED1,5,INT*%
%TO.N,unconnected-(LED1-INT-Pad5)*%
X148352000Y-78232000D03*
%TO.P,LED1,6,SDA*%
%TO.N,I2C_SDA*%
X147402000Y-78232000D03*
%TD*%
D18*
%TO.P,R4,1*%
%TO.N,Net-(U5-Y)*%
X79248000Y-63246000D03*
%TO.P,R4,2*%
%TO.N,/Isolated/NMEA IN-*%
X77248000Y-63246000D03*
%TD*%
D57*
%TO.P,R24,1*%
%TO.N,/ESP32/GPIO_22*%
X191897000Y-85322400D03*
%TO.P,R24,2*%
%TO.N,+3V3*%
X191897000Y-83322400D03*
%TD*%
D37*
%TO.P,C4,1*%
%TO.N,+3V3*%
X173693000Y-132689600D03*
%TO.P,C4,2*%
%TO.N,GND*%
X175768000Y-132689600D03*
%TD*%
D59*
%TO.P,C30,1*%
%TO.N,Net-(JP20-B)*%
X194941100Y-91038200D03*
%TO.P,C30,2*%
%TO.N,/ESP32/GPIO_15*%
X192866100Y-91038200D03*
%TD*%
%TO.P,C12,1*%
%TO.N,Net-(D1-K)*%
X68703100Y-114046000D03*
%TO.P,C12,2*%
%TO.N,GND2*%
X66628100Y-114046000D03*
%TD*%
D33*
%TO.P,SW2,1,1*%
%TO.N,GND*%
X162121800Y-122692000D03*
X162121800Y-114742000D03*
%TO.P,SW2,2,2*%
%TO.N,/ESP32/EN*%
X166621800Y-122692000D03*
X166621800Y-114742000D03*
%TD*%
D28*
%TO.P,JP18,1,A*%
%TO.N,Net-(JP18-A)*%
X74676000Y-78008000D03*
%TO.P,JP18,2,B*%
%TO.N,/Isolated/NMEA OUT-*%
X74676000Y-76708000D03*
%TD*%
D26*
%TO.P,C16,1*%
%TO.N,+5V*%
X135483600Y-72374400D03*
%TO.P,C16,2*%
%TO.N,GND*%
X135483600Y-76774400D03*
%TD*%
D48*
%TO.P,C2,1*%
%TO.N,GND*%
X101266000Y-56896000D03*
%TO.P,C2,2*%
%TO.N,GND3*%
X91266000Y-56896000D03*
%TD*%
%TO.P,C1,1*%
%TO.N,GND*%
X101393000Y-101473000D03*
%TO.P,C1,2*%
%TO.N,GND2*%
X91393000Y-101473000D03*
%TD*%
D13*
%TO.P,JP5,1,A*%
%TO.N,Net-(J20-Pin_1)*%
X57193702Y-70278809D03*
%TO.P,JP5,2,B*%
%TO.N,GND3*%
X55893702Y-70278809D03*
%TD*%
D56*
%TO.P,D2,1,K*%
%TO.N,/Isolated/NMEA IN-*%
X73309000Y-63312000D03*
%TO.P,D2,2,K*%
%TO.N,/Isolated/NMEA IN+*%
X73309000Y-65212000D03*
%TO.P,D2,3,A*%
%TO.N,GND3*%
X75184000Y-64262000D03*
%TD*%
D32*
%TO.P,R5,1*%
%TO.N,GND3*%
X78756000Y-77216000D03*
%TO.P,R5,2*%
%TO.N,/Isolated/NMEA OUT-*%
X80756000Y-77216000D03*
%TD*%
D59*
%TO.P,C31,1*%
%TO.N,+3V3*%
X153416000Y-87376000D03*
%TO.P,C31,2*%
%TO.N,GND*%
X151341000Y-87376000D03*
%TD*%
D60*
%TO.P,U1,1,3V3*%
%TO.N,+3V3*%
X157629100Y-58927800D03*
D61*
%TO.P,U1,2,CHIP_PU*%
%TO.N,/ESP32/EN*%
X157629100Y-61467800D03*
%TO.P,U1,3,SENSOR_VP/GPIO36/ADC1_CH0*%
%TO.N,/ESP32/GPIO_36*%
X157629100Y-64007800D03*
%TO.P,U1,4,SENSOR_VN/GPIO39/ADC1_CH3*%
%TO.N,/ESP32/GPIO_39*%
X157629100Y-66547800D03*
%TO.P,U1,5,VDET_1/GPIO34/ADC1_CH6*%
%TO.N,/ESP32/GPIO_34*%
X157629100Y-69087800D03*
%TO.P,U1,6,VDET_2/GPIO35/ADC1_CH7*%
%TO.N,/ESP32/GPIO_35*%
X157629100Y-71627800D03*
%TO.P,U1,7,32K_XP/GPIO32/ADC1_CH4*%
%TO.N,/ESP32/GPIO_32_32K*%
X157629100Y-74167800D03*
%TO.P,U1,8,32K_XN/GPIO33/ADC1_CH5*%
%TO.N,/ESP32/GPIO_33_32K*%
X157629100Y-76707800D03*
%TO.P,U1,9,DAC_1/ADC2_CH8/GPIO25*%
%TO.N,/ESP32/GPIO_25*%
X157629100Y-79247800D03*
%TO.P,U1,10,DAC_2/ADC2_CH9/GPIO26*%
%TO.N,/ESP32/GPIO_26*%
X157629100Y-81787800D03*
%TO.P,U1,11,ADC2_CH7/GPIO27*%
%TO.N,/ESP32/GPIO_27*%
X157629100Y-84327800D03*
%TO.P,U1,12,MTMS/GPIO14/ADC2_CH6*%
%TO.N,/ESP32/GPIO_14*%
X157629100Y-86867800D03*
%TO.P,U1,13,MTDI/GPIO12/ADC2_CH5*%
%TO.N,/ESP32/GPIO_12*%
X157629100Y-89407800D03*
%TO.P,U1,14,GND*%
%TO.N,GND*%
X157629100Y-91947800D03*
%TO.P,U1,15,MTCK/GPIO13/ADC2_CH4*%
%TO.N,/ESP32/GPIO_13*%
X157629100Y-94487800D03*
%TO.P,U1,16,SD_DATA2/GPIO9*%
%TO.N,/ESP32/GPIO_9*%
X157629100Y-97027800D03*
%TO.P,U1,17,SD_DATA3/GPIO10*%
%TO.N,/ESP32/GPIO_10*%
X157629100Y-99567800D03*
%TO.P,U1,18,CMD*%
%TO.N,unconnected-(U1-CMD-Pad18)*%
X157629100Y-102107800D03*
%TO.P,U1,19,5V*%
%TO.N,+5V*%
X157629100Y-104647800D03*
%TO.P,U1,20,SD_CLK/GPIO6*%
%TO.N,/ESP32/GPIO_6*%
X183025420Y-104645080D03*
%TO.P,U1,21,SD_DATA0/GPIO7*%
%TO.N,/ESP32/GPIO_7*%
X183025420Y-102105080D03*
%TO.P,U1,22,SD_DATA1/GPIO8*%
%TO.N,/ESP32/GPIO_8*%
X183029100Y-99567800D03*
%TO.P,U1,23,MTDO/GPIO15/ADC2_CH3*%
%TO.N,/ESP32/GPIO_15*%
X183029100Y-97027800D03*
%TO.P,U1,24,ADC2_CH2/GPIO2*%
%TO.N,/ESP32/GPIO_02*%
X183029100Y-94487800D03*
%TO.P,U1,25,GPIO0/BOOT/ADC2_CH1*%
%TO.N,/ESP32/GPIO_00_BOOT*%
X183029100Y-91947800D03*
%TO.P,U1,26,ADC2_CH0/GPIO4*%
%TO.N,/ESP32/GPIO_04*%
X183029100Y-89407800D03*
%TO.P,U1,27,GPIO16*%
%TO.N,/ESP32/GPIO_16*%
X183029100Y-86867800D03*
%TO.P,U1,28,GPIO17*%
%TO.N,/ESP32/GPIO_17*%
X183029100Y-84327800D03*
%TO.P,U1,29,GPIO5*%
%TO.N,/ESP32/GPIO_05*%
X183029100Y-81787800D03*
%TO.P,U1,30,GPIO18*%
%TO.N,/ESP32/GPIO_18*%
X183029100Y-79247800D03*
%TO.P,U1,31,GPIO19*%
%TO.N,/ESP32/GPIO_19*%
X183029100Y-76707800D03*
%TO.P,U1,32,GND*%
%TO.N,GND*%
X183029100Y-74167800D03*
%TO.P,U1,33,GPIO21*%
%TO.N,/ESP32/GPIO_21*%
X183029100Y-71627800D03*
%TO.P,U1,34,U0RXD/GPIO3*%
%TO.N,/ESP32/GPIO_03_U0RXD*%
X183029100Y-69087800D03*
%TO.P,U1,35,U0TXD/GPIO1*%
%TO.N,/ESP32/GPIO_01_U0TXD*%
X183029100Y-66547800D03*
%TO.P,U1,36,GPIO22*%
%TO.N,/ESP32/GPIO_22*%
X183029100Y-64007800D03*
%TO.P,U1,37,GPIO23*%
%TO.N,/ESP32/GPIO_23*%
X183029100Y-61467800D03*
%TO.P,U1,38,GND*%
%TO.N,GND*%
X183029100Y-58927800D03*
%TD*%
D13*
%TO.P,JP10,1,A*%
%TO.N,/ESP32/GPIO_26*%
X179914000Y-112776000D03*
%TO.P,JP10,2,B*%
%TO.N,TX_DISPLAY_RX*%
X181214000Y-112776000D03*
%TD*%
D62*
%TO.P,D12,1,K*%
%TO.N,Net-(D12-K)*%
X86614000Y-133604000D03*
D63*
%TO.P,D12,2,A*%
%TO.N,Net-(D12-A)*%
X71374000Y-133604000D03*
%TD*%
D13*
%TO.P,JP14,1,A*%
%TO.N,/ESP32/GPIO_05*%
X106172000Y-93472000D03*
%TO.P,JP14,2,B*%
%TO.N,CANBUS_TO_TX*%
X104872000Y-93472000D03*
%TD*%
D64*
%TO.P,PS3,1,-Vin*%
%TO.N,GND*%
X130492500Y-120777000D03*
%TO.P,PS3,2,+Vin*%
%TO.N,+12V*%
X113347500Y-120777000D03*
%TO.P,PS3,3,-Vout*%
%TO.N,GND*%
X130492500Y-81277000D03*
%TO.P,PS3,4,+Vout*%
%TO.N,+5V*%
X113347500Y-81277000D03*
%TD*%
D35*
%TO.P,JP23,1,A*%
%TO.N,Net-(J5-Pin_4)*%
X121158000Y-133096000D03*
D36*
%TO.P,JP23,2,B*%
%TO.N,/PowerSuply/12V_FL*%
X119858000Y-133096000D03*
%TD*%
D65*
%TO.P,U5,1,VCC1*%
%TO.N,+3V3*%
X101295200Y-71501000D03*
%TO.P,U5,2,GND1*%
%TO.N,GND*%
X101295200Y-70231000D03*
%TO.P,U5,3,R*%
%TO.N,TX_NMEA0183_RX*%
X101295200Y-68961000D03*
%TO.P,U5,4,\u002ARE*%
%TO.N,Net-(JP6-C)*%
X101295200Y-67691000D03*
%TO.P,U5,5,DE*%
%TO.N,NMEA0183_Enable*%
X101295200Y-66421000D03*
%TO.P,U5,6,D*%
%TO.N,RX_NMEA0183_TX*%
X101295200Y-65151000D03*
%TO.P,U5,7,GND1*%
%TO.N,GND*%
X101295200Y-63881000D03*
%TO.P,U5,8,GND1*%
X101295200Y-62611000D03*
%TO.P,U5,9,GND2*%
%TO.N,GND3*%
X92252800Y-62611000D03*
%TO.P,U5,10,GND2*%
X92252800Y-63881000D03*
%TO.P,U5,11,Y*%
%TO.N,Net-(U5-Y)*%
X92252800Y-65151000D03*
%TO.P,U5,12,Z*%
%TO.N,Net-(U5-Z)*%
X92252800Y-66421000D03*
%TO.P,U5,13,B*%
%TO.N,Net-(U5-B)*%
X92252800Y-67691000D03*
%TO.P,U5,14,A*%
%TO.N,Net-(U5-A)*%
X92252800Y-68961000D03*
%TO.P,U5,15,GND2*%
%TO.N,GND3*%
X92252800Y-70231000D03*
%TO.P,U5,16,VCC2*%
%TO.N,+5VA*%
X92252800Y-71501000D03*
%TD*%
D18*
%TO.P,R3,1*%
%TO.N,Net-(U5-Z)*%
X79248000Y-65786000D03*
%TO.P,R3,2*%
%TO.N,/Isolated/NMEA IN+*%
X77248000Y-65786000D03*
%TD*%
D13*
%TO.P,JP3,1,A*%
%TO.N,Net-(JP3-A)*%
X70328000Y-93980000D03*
%TO.P,JP3,2,B*%
%TO.N,GND2*%
X71628000Y-93980000D03*
%TD*%
D59*
%TO.P,C15,1*%
%TO.N,+5V*%
X135679000Y-69596000D03*
%TO.P,C15,2*%
%TO.N,GND*%
X133604000Y-69596000D03*
%TD*%
D19*
%TO.P,J2,1,Pin_1*%
%TO.N,+3V3*%
X185405000Y-136352000D03*
D20*
%TO.P,J2,2,Pin_2*%
%TO.N,GND*%
X187405000Y-136352000D03*
%TO.P,J2,3,Pin_3*%
%TO.N,I2C_SCL*%
X189405000Y-136352000D03*
%TO.P,J2,4,Pin_4*%
%TO.N,I2C_SDA*%
X191405000Y-136352000D03*
%TD*%
D66*
%TO.P,D5,1,K*%
%TO.N,GND*%
X189992000Y-77609000D03*
%TO.P,D5,2,A*%
%TO.N,Net-(D5-A)*%
X189992000Y-75559000D03*
%TD*%
D28*
%TO.P,JP12,1,A*%
%TO.N,/ESP32/GPIO_21*%
X189306200Y-87386400D03*
%TO.P,JP12,2,B*%
%TO.N,I2C_SDA*%
X189306200Y-88686400D03*
%TD*%
D34*
%TO.P,C14,1*%
%TO.N,/PowerSuply/12V_FL*%
X110236400Y-133647100D03*
%TO.P,C14,2*%
%TO.N,GND*%
X110236400Y-131572100D03*
%TD*%
D67*
%TO.P,JP21,1,A*%
%TO.N,+3V3*%
X192024000Y-57292000D03*
D68*
%TO.P,JP21,2,B*%
%TO.N,Net-(J18-Pin_1)*%
X192024000Y-55992000D03*
%TD*%
D37*
%TO.P,C5,1*%
%TO.N,+3V3*%
X198374000Y-134670800D03*
%TO.P,C5,2*%
%TO.N,GND*%
X200449000Y-134670800D03*
%TD*%
D13*
%TO.P,JP11,1,A*%
%TO.N,/ESP32/GPIO_27*%
X179903600Y-110134400D03*
%TO.P,JP11,2,B*%
%TO.N,RX_DISPLAY_TX*%
X181203600Y-110134400D03*
%TD*%
%TO.P,JP9,1,A*%
%TO.N,/ESP32/GPIO_17*%
X108204000Y-64008000D03*
%TO.P,JP9,2,B*%
%TO.N,RX_NMEA0183_TX*%
X106904000Y-64008000D03*
%TD*%
D57*
%TO.P,R9,1*%
%TO.N,Net-(D3-A)*%
X109651800Y-144849600D03*
%TO.P,R9,2*%
%TO.N,/PowerSuply/12V_FL*%
X109651800Y-142849600D03*
%TD*%
D69*
%TO.P,D3,1,K*%
%TO.N,GND*%
X107049000Y-147853400D03*
%TO.P,D3,2,A*%
%TO.N,Net-(D3-A)*%
X109099000Y-147853400D03*
%TD*%
D27*
%TO.P,R10,1*%
%TO.N,Net-(D4-A)*%
X121920000Y-74509500D03*
%TO.P,R10,2*%
%TO.N,+5V*%
X121920000Y-76509500D03*
%TD*%
D35*
%TO.P,JP25,1,A*%
%TO.N,+12V*%
X124968000Y-133096000D03*
D36*
%TO.P,JP25,2,B*%
%TO.N,Net-(J5-Pin_4)*%
X123668000Y-133096000D03*
%TD*%
D34*
%TO.P,C18,1*%
%TO.N,+3V3*%
X138633200Y-60117900D03*
%TO.P,C18,2*%
%TO.N,GND*%
X138633200Y-58042900D03*
%TD*%
D26*
%TO.P,C9,1*%
%TO.N,+5VA*%
X85598000Y-78572000D03*
%TO.P,C9,2*%
%TO.N,GND3*%
X85598000Y-82972000D03*
%TD*%
D32*
%TO.P,R25,1*%
%TO.N,Net-(Q1-B)*%
X152924000Y-114300000D03*
%TO.P,R25,2*%
%TO.N,BUZZER*%
X154924000Y-114300000D03*
%TD*%
D34*
%TO.P,C24,1*%
%TO.N,A2D_12V*%
X146812000Y-71628000D03*
%TO.P,C24,2*%
%TO.N,GND*%
X146812000Y-69553000D03*
%TD*%
D32*
%TO.P,R12,1*%
%TO.N,/ESP32/EN*%
X167164000Y-127508000D03*
%TO.P,R12,2*%
%TO.N,+3V3*%
X169164000Y-127508000D03*
%TD*%
D18*
%TO.P,R8,1*%
%TO.N,Net-(JP19-B)*%
X81264000Y-95758000D03*
%TO.P,R8,2*%
%TO.N,Net-(U3-CANH)*%
X79264000Y-95758000D03*
%TD*%
D40*
%TO.P,PS2,1,-Vin*%
%TO.N,GND*%
X100889500Y-81215500D03*
D41*
%TO.P,PS2,2,+Vin*%
%TO.N,+5V*%
X98349500Y-81215500D03*
%TO.P,PS2,3,-Vout*%
%TO.N,GND3*%
X95809500Y-81215500D03*
%TO.P,PS2,4,+Vout*%
%TO.N,+5VA*%
X93269500Y-81215500D03*
%TD*%
D26*
%TO.P,C8,1*%
%TO.N,+5V*%
X107188000Y-79969000D03*
%TO.P,C8,2*%
%TO.N,GND*%
X107188000Y-84369000D03*
%TD*%
D51*
%TO.P,C25,1*%
%TO.N,+5V*%
X181356000Y-116866000D03*
%TO.P,C25,2*%
%TO.N,GND*%
X181356000Y-120116000D03*
%TD*%
D14*
%TO.P,J5,1,Pin_1*%
%TO.N,GND*%
X114046000Y-139446000D03*
D15*
%TO.P,J5,2,Pin_2*%
%TO.N,/PowerSuply/12V_FL*%
X119126000Y-139446000D03*
%TO.P,J5,3,Pin_3*%
%TO.N,GND*%
X124206000Y-139446000D03*
%TO.P,J5,4,Pin_4*%
%TO.N,Net-(J5-Pin_4)*%
X129286000Y-139446000D03*
%TO.P,J5,5,Pin_5*%
%TO.N,+12V*%
X134366000Y-139446000D03*
%TD*%
D70*
%TO.P,U3,1,VCC1*%
%TO.N,+3V3*%
X100998000Y-98552000D03*
%TO.P,U3,2,RXD*%
%TO.N,CANBUS_TO_RX*%
X100998000Y-96012000D03*
%TO.P,U3,3,TXD*%
%TO.N,CANBUS_TO_TX*%
X100998000Y-93472000D03*
%TO.P,U3,4,GND1*%
%TO.N,GND*%
X100998000Y-90932000D03*
%TO.P,U3,5,GND2*%
%TO.N,GND2*%
X91948000Y-90932000D03*
%TO.P,U3,6,CANL*%
%TO.N,Net-(JP19-A)*%
X91948000Y-93472000D03*
%TO.P,U3,7,CANH*%
%TO.N,Net-(U3-CANH)*%
X91948000Y-96012000D03*
%TO.P,U3,8,VCC2*%
%TO.N,+5VD*%
X91948000Y-98552000D03*
%TD*%
D37*
%TO.P,C3,1*%
%TO.N,+3V3*%
X185377000Y-132748000D03*
%TO.P,C3,2*%
%TO.N,GND*%
X187452000Y-132748000D03*
%TD*%
D13*
%TO.P,JP22,1,A*%
%TO.N,/ESP32/GPIO_35*%
X150368000Y-71755000D03*
%TO.P,JP22,2,B*%
%TO.N,A2D_12V*%
X149068000Y-71755000D03*
%TD*%
D71*
%TO.P,C10,1*%
%TO.N,+5VD*%
X87274400Y-100126800D03*
%TO.P,C10,2*%
%TO.N,GND2*%
X82874400Y-100126800D03*
%TD*%
D23*
%TO.P,D7,1,K*%
%TO.N,Net-(JP19-A)*%
X72898000Y-100010000D03*
%TO.P,D7,2,K*%
%TO.N,Net-(U3-CANH)*%
X72898000Y-98110000D03*
%TO.P,D7,3,A*%
%TO.N,GND2*%
X71023000Y-99060000D03*
%TD*%
D26*
%TO.P,C20,1*%
%TO.N,+5VP*%
X152435250Y-127062732D03*
%TO.P,C20,2*%
%TO.N,GND*%
X152435250Y-131462732D03*
%TD*%
D13*
%TO.P,JP8,1,A*%
%TO.N,/ESP32/GPIO_16*%
X108204000Y-70612000D03*
%TO.P,JP8,2,B*%
%TO.N,TX_NMEA0183_RX*%
X106904000Y-70612000D03*
%TD*%
D16*
%TO.P,J18,1,Pin_1*%
%TO.N,Net-(J18-Pin_1)*%
X196596000Y-53848000D03*
D17*
%TO.P,J18,2,Pin_2*%
%TO.N,unconnected-(J18-Pin_2-Pad2)*%
X199136000Y-53848000D03*
%TO.P,J18,3,Pin_3*%
%TO.N,unconnected-(J18-Pin_3-Pad3)*%
X196596000Y-56388000D03*
%TO.P,J18,4,Pin_4*%
%TO.N,unconnected-(J18-Pin_4-Pad4)*%
X199136000Y-56388000D03*
%TO.P,J18,5,Pin_5*%
%TO.N,/ESP32/GPIO_12*%
X196596000Y-58928000D03*
%TO.P,J18,6,Pin_6*%
%TO.N,GND*%
X199136000Y-58928000D03*
%TO.P,J18,7,Pin_7*%
%TO.N,/ESP32/GPIO_14*%
X196596000Y-61468000D03*
%TO.P,J18,8,Pin_8*%
%TO.N,GND*%
X199136000Y-61468000D03*
%TO.P,J18,9,Pin_9*%
%TO.N,/ESP32/GPIO_13*%
X196596000Y-64008000D03*
%TO.P,J18,10,Pin_10*%
%TO.N,GND*%
X199136000Y-64008000D03*
%TO.P,J18,11,Pin_11*%
%TO.N,unconnected-(J18-Pin_11-Pad11)*%
X196596000Y-66548000D03*
%TO.P,J18,12,Pin_12*%
%TO.N,GND*%
X199136000Y-66548000D03*
%TO.P,J18,13,Pin_13*%
%TO.N,/ESP32/GPIO_15*%
X196596000Y-69088000D03*
%TO.P,J18,14,Pin_14*%
%TO.N,GND*%
X199136000Y-69088000D03*
%TO.P,J18,15,Pin_15*%
%TO.N,/ESP32/EN*%
X196596000Y-71628000D03*
%TO.P,J18,16,Pin_16*%
%TO.N,unconnected-(J18-Pin_16-Pad16)*%
X199136000Y-71628000D03*
%TO.P,J18,17,Pin_17*%
%TO.N,unconnected-(J18-Pin_17-Pad17)*%
X196596000Y-74168000D03*
%TO.P,J18,18,Pin_18*%
%TO.N,unconnected-(J18-Pin_18-Pad18)*%
X199136000Y-74168000D03*
%TO.P,J18,19,Pin_19*%
%TO.N,unconnected-(J18-Pin_19-Pad19)*%
X196596000Y-76708000D03*
%TO.P,J18,20,Pin_20*%
%TO.N,unconnected-(J18-Pin_20-Pad20)*%
X199136000Y-76708000D03*
%TD*%
D72*
%TO.N,GND*%
X130506002Y-79032586D03*
X133604000Y-84836000D03*
X127127000Y-84836000D03*
X133604000Y-81280000D03*
X127127000Y-81280000D03*
%TO.N,/ESP32/GPIO_14*%
X158709900Y-114300000D03*
%TO.N,GND*%
X154686000Y-87122000D03*
X162837000Y-59862200D03*
X183515000Y-118999000D03*
X149346677Y-82008562D03*
X134061000Y-68884800D03*
X99669600Y-62636400D03*
X163322000Y-87122000D03*
X169672000Y-70612000D03*
X105943400Y-85598000D03*
X164592000Y-78740000D03*
X162538600Y-124813400D03*
X175768000Y-133858000D03*
X177292000Y-82042000D03*
X133985000Y-77851000D03*
X168808000Y-65777200D03*
X108712000Y-125984000D03*
X163322000Y-102616000D03*
X179832000Y-88646000D03*
X179885000Y-59449800D03*
X106172000Y-76200000D03*
X169672000Y-64008000D03*
X154686000Y-84328000D03*
X138633000Y-56972200D03*
X148539000Y-63601600D03*
X167404000Y-68561100D03*
X163576000Y-64008000D03*
X162030600Y-118717400D03*
X105664000Y-125984000D03*
X121920945Y-68878497D03*
X154686000Y-81280000D03*
X160263000Y-59862200D03*
X169650600Y-124813400D03*
X150368000Y-113284000D03*
X157589000Y-129418500D03*
X143866000Y-65328800D03*
X146837000Y-69218900D03*
X163576000Y-70612000D03*
X163322000Y-97028000D03*
X162763000Y-59007400D03*
X108483400Y-85598000D03*
X180594000Y-106426000D03*
X143866000Y-68529200D03*
X163322000Y-92202000D03*
X202481000Y-137211000D03*
X163322000Y-133096000D03*
X147117000Y-65278000D03*
X173990000Y-90932000D03*
X189992000Y-78740000D03*
X179324000Y-80518000D03*
X167441000Y-67181600D03*
X201973000Y-134671000D03*
X150520000Y-62280800D03*
X170180000Y-82042000D03*
X168796000Y-68586000D03*
X171450000Y-90932000D03*
X175260000Y-64008000D03*
X112776000Y-66294000D03*
X199005000Y-106731000D03*
X180340000Y-133096000D03*
X150876000Y-132588000D03*
X197533000Y-142105000D03*
X102616000Y-90932000D03*
X136534600Y-132537200D03*
X180594000Y-100838000D03*
X155092000Y-61569600D03*
X169142600Y-118717400D03*
X170225000Y-65777200D03*
X163322000Y-107696000D03*
X201574000Y-141427000D03*
X172720000Y-82042000D03*
X182372000Y-119126000D03*
X99733400Y-63922300D03*
X164592000Y-82042000D03*
X131064000Y-68757800D03*
X153924000Y-132588000D03*
X137033000Y-77851000D03*
X175260000Y-70612000D03*
X199005000Y-108763000D03*
X195580000Y-113030000D03*
X170225000Y-67169200D03*
X169164000Y-89154000D03*
X99568000Y-70358000D03*
X199005000Y-107747000D03*
X168821000Y-67181600D03*
X167386000Y-82042000D03*
X110186000Y-130552000D03*
X175514000Y-109220000D03*
X160263000Y-59007400D03*
X170225000Y-68573600D03*
X167416000Y-65764800D03*
X178816000Y-90424000D03*
%TO.N,/ESP32/EN*%
X176784000Y-70104000D03*
X166624000Y-113284000D03*
X194240000Y-86248900D03*
%TO.N,I2C_SDA*%
X189357000Y-90284900D03*
%TO.N,/ESP32/GPIO_32_32K*%
X164846000Y-73660000D03*
%TO.N,/ESP32/GPIO_27*%
X160274000Y-94742000D03*
%TO.N,/ESP32/GPIO_14*%
X162851500Y-74536300D03*
X177292000Y-75184000D03*
%TO.N,/ESP32/GPIO_12*%
X192532000Y-73660000D03*
X161581500Y-80772000D03*
%TO.N,/ESP32/GPIO_13*%
X176276000Y-73152000D03*
X188976000Y-71628000D03*
%TO.N,/ESP32/GPIO_15*%
X109316300Y-67087400D03*
X174752000Y-81154600D03*
%TO.N,/ESP32/GPIO_00_BOOT*%
X173736000Y-114300000D03*
%TO.N,+3V3*%
X147320000Y-79756000D03*
X139184000Y-73066400D03*
X137211000Y-69138800D03*
X103886000Y-72136000D03*
X103124000Y-98552000D03*
X189230000Y-82296000D03*
%TO.N,GND2*%
X67818000Y-125019000D03*
X71628000Y-95250000D03*
X93980000Y-90932000D03*
X83820000Y-122682000D03*
X71628000Y-92710000D03*
X80594200Y-100127000D03*
X86868000Y-122682000D03*
X81661000Y-101676000D03*
X65604300Y-113995000D03*
X89662000Y-90932000D03*
X73152000Y-124968000D03*
X69850000Y-99060000D03*
X70866000Y-124968000D03*
%TO.N,/ESP32/GPIO_19*%
X176868000Y-67901200D03*
%TO.N,/ESP32/GPIO_23*%
X140712000Y-66318800D03*
%TO.N,GND3*%
X90170000Y-62738000D03*
X93726000Y-83820000D03*
X95250000Y-83820000D03*
X84074000Y-84328000D03*
X76200000Y-64262000D03*
X85598000Y-72390000D03*
X55118000Y-71628000D03*
X87122000Y-84328000D03*
X55118000Y-69088000D03*
X78740000Y-78486000D03*
X93726000Y-85344000D03*
X90170000Y-63754000D03*
X55118000Y-70358000D03*
X76708000Y-80772000D03*
X95250000Y-85344000D03*
X93980000Y-70358000D03*
%TO.N,/ESP32/GPIO_16*%
X109306000Y-70690300D03*
%TO.N,/ESP32/GPIO_17*%
X175768000Y-72136000D03*
X109337000Y-63790700D03*
%TO.N,/ESP32/GPIO_05*%
X107188000Y-93472000D03*
%TO.N,/ESP32/GPIO_04*%
X179324000Y-84328000D03*
X107188000Y-96012000D03*
%TO.N,I2C_SCL*%
X191897000Y-89560400D03*
%TO.N,A2D_12V*%
X132080000Y-131064000D03*
X132588000Y-101600000D03*
%TD*%
D73*
%TO.N,A2D_12V*%
X141478000Y-78867000D02*
X132588000Y-87757000D01*
X141478000Y-71549500D02*
X141478000Y-78867000D01*
X132588000Y-87757000D02*
X132588000Y-101600000D01*
D74*
%TO.N,GND*%
X130492500Y-79019084D02*
X130492500Y-78168500D01*
X130506002Y-79032586D02*
X130492500Y-79019084D01*
X130492500Y-79046088D02*
X130506002Y-79032586D01*
X133604000Y-81280000D02*
X133604000Y-84836000D01*
X127127000Y-81280000D02*
X127127000Y-84836000D01*
X130810000Y-77851000D02*
X133985000Y-77851000D01*
X130492500Y-78168500D02*
X130810000Y-77851000D01*
X130492500Y-81277000D02*
X130492500Y-79046088D01*
X133601000Y-81277000D02*
X133604000Y-81280000D01*
X130492500Y-81277000D02*
X133601000Y-81277000D01*
X127130000Y-81277000D02*
X127127000Y-81280000D01*
X130492500Y-81277000D02*
X127130000Y-81277000D01*
D73*
%TO.N,/ESP32/GPIO_14*%
X158130000Y-114300000D02*
X158709900Y-114300000D01*
D74*
%TO.N,GND*%
X183536000Y-119020000D02*
X185038000Y-119020000D01*
X182473000Y-118999000D02*
X183134000Y-118999000D01*
X169214600Y-114667600D02*
X169214600Y-114681800D01*
D75*
X168796000Y-68586000D02*
X168802000Y-68586000D01*
D74*
X148539000Y-63601600D02*
X148539000Y-62331000D01*
X175769000Y-132691000D02*
X175768000Y-132690000D01*
D73*
X162121600Y-114985000D02*
X162121600Y-115227600D01*
D74*
X150520000Y-62331000D02*
X148539200Y-62331000D01*
D75*
X162121600Y-114772700D02*
X162121600Y-114757500D01*
D74*
X135549600Y-132588200D02*
X135860600Y-132588200D01*
D75*
X110236000Y-131087000D02*
X110236400Y-131087400D01*
D74*
X164570600Y-124813400D02*
X164570100Y-124813400D01*
X146837000Y-69218900D02*
X146837000Y-69528000D01*
X195580000Y-113030000D02*
X196312000Y-113030000D01*
D75*
X170214000Y-68573600D02*
X170212000Y-68576000D01*
D74*
X169214600Y-115109100D02*
X169214600Y-115564900D01*
X135238600Y-132588200D02*
X135239300Y-132588200D01*
D75*
X149352000Y-82003239D02*
X149352000Y-81132000D01*
D73*
X138633000Y-57458700D02*
X138633000Y-57458900D01*
D75*
X171621600Y-124929900D02*
X171622900Y-124929900D01*
X169214600Y-114710300D02*
X169214600Y-114681800D01*
D73*
X162121600Y-114744200D02*
X162121600Y-114746100D01*
D75*
X110236000Y-130602000D02*
X110236000Y-131087000D01*
D74*
X185038900Y-119020000D02*
X185039000Y-119020000D01*
D75*
X135316400Y-132588200D02*
X135277500Y-132588200D01*
D73*
X138633000Y-57458900D02*
X138633000Y-57945200D01*
D75*
X170225000Y-65777200D02*
X170213000Y-65777200D01*
D74*
X169214600Y-122602700D02*
X169214600Y-122603400D01*
X106172000Y-76200000D02*
X105156000Y-76200000D01*
D75*
X199984000Y-108673000D02*
X200004000Y-108693000D01*
X169214600Y-114654200D02*
X169214600Y-114653800D01*
D74*
X175768000Y-133858000D02*
X175769000Y-133857000D01*
D75*
X169214600Y-114667600D02*
X169214600Y-114660500D01*
X162121600Y-114746100D02*
X162121600Y-114744200D01*
X162121600Y-116683400D02*
X162121600Y-115712900D01*
X110236000Y-131087000D02*
X110236000Y-131572000D01*
X162121600Y-115712900D02*
X162121600Y-115227600D01*
X162121600Y-122147400D02*
X162121600Y-122419900D01*
X200572000Y-141420000D02*
X201567000Y-141420000D01*
D73*
X162121600Y-115712900D02*
X162121600Y-116683400D01*
D74*
X200449000Y-134671000D02*
X200449200Y-134671000D01*
D75*
X110186000Y-130552000D02*
X110236000Y-130602000D01*
X200004000Y-108693000D02*
X200024000Y-108713000D01*
D74*
X169214600Y-114710300D02*
X169214600Y-114767300D01*
D75*
X162121600Y-114757500D02*
X162121600Y-114749900D01*
X175768000Y-132690000D02*
X175768000Y-132689600D01*
X169214600Y-122439100D02*
X169214600Y-122521200D01*
X161562000Y-59814000D02*
X161562000Y-59456000D01*
D73*
X142428000Y-68900000D02*
X142799000Y-68529200D01*
D75*
X197533000Y-142105000D02*
X197533000Y-142110000D01*
D74*
X200957200Y-137211000D02*
X200957000Y-137211000D01*
X164570100Y-124813400D02*
X162538600Y-124813400D01*
D75*
X169214600Y-122602700D02*
X169214600Y-122603400D01*
X169214500Y-122602800D02*
X169214500Y-122603000D01*
X169214600Y-122593100D02*
X169214600Y-122598200D01*
X200957200Y-137211000D02*
X200957000Y-137210800D01*
D74*
X135241100Y-132588200D02*
X135243500Y-132588200D01*
D73*
X162121600Y-114757500D02*
X162121600Y-114772700D01*
D75*
X164570100Y-124813400D02*
X164570500Y-124813000D01*
X199996000Y-107685000D02*
X200024000Y-107713000D01*
X135239100Y-132588000D02*
X135239000Y-132588000D01*
X200449200Y-134671000D02*
X200449000Y-134670800D01*
D74*
X130793000Y-67160600D02*
X130796000Y-67158000D01*
X130694000Y-67056000D02*
X130796000Y-67158000D01*
X169214600Y-114654200D02*
X169214600Y-114655100D01*
D75*
X199950500Y-106678500D02*
X199949000Y-106680000D01*
X199988000Y-106677000D02*
X199952000Y-106677000D01*
D73*
X162121600Y-122683800D02*
X162121600Y-122688100D01*
D75*
X199996000Y-107685000D02*
X199954000Y-107685000D01*
X107188000Y-84932300D02*
X107188000Y-84369000D01*
X157589000Y-130169500D02*
X157513000Y-130245500D01*
X135241100Y-132588200D02*
X135239900Y-132588200D01*
D74*
X169214600Y-122602100D02*
X169214600Y-122602700D01*
D75*
X107188400Y-84932700D02*
X107188000Y-84932300D01*
D74*
X135509000Y-77851000D02*
X137033000Y-77851000D01*
D75*
X161550000Y-59826000D02*
X161562000Y-59814000D01*
X199951500Y-107682500D02*
X199949000Y-107680000D01*
X107213400Y-125458100D02*
X107213400Y-124958200D01*
D74*
X185038000Y-119020000D02*
X185038500Y-119020000D01*
D73*
X162121600Y-122556100D02*
X162121600Y-122624200D01*
X162121600Y-122147400D02*
X162121600Y-122419900D01*
D75*
X196291000Y-113030000D02*
X196312000Y-113030000D01*
D74*
X169214600Y-122598200D02*
X169214600Y-122600800D01*
D75*
X169214600Y-122521200D02*
X169214600Y-122562300D01*
X169214600Y-114653500D02*
X169214600Y-114653400D01*
D74*
X150470000Y-62280800D02*
X150520000Y-62331000D01*
D75*
X169214600Y-122598200D02*
X169214600Y-122600800D01*
D74*
X180489000Y-58927800D02*
X183029000Y-58927800D01*
D75*
X198521800Y-142070000D02*
X198521800Y-142110000D01*
X162121600Y-122691300D02*
X162121800Y-122691500D01*
X199952000Y-106677000D02*
X199950500Y-106678500D01*
D74*
X169214600Y-114660500D02*
X169214600Y-114667600D01*
D75*
X169214600Y-114881200D02*
X169214600Y-114767300D01*
D74*
X135394100Y-132588200D02*
X135549600Y-132588200D01*
D73*
X162121600Y-114863700D02*
X162121600Y-114985000D01*
X199005000Y-108763000D02*
X199974000Y-108763000D01*
D74*
X108712000Y-125984000D02*
X107188000Y-125984000D01*
D73*
X162801000Y-59826000D02*
X162837000Y-59862200D01*
X121920945Y-69911555D02*
X121920000Y-69912500D01*
X162763000Y-59007400D02*
X160263000Y-59007400D01*
D75*
X199951300Y-107682500D02*
X199948800Y-107680000D01*
X107188400Y-85496400D02*
X107188400Y-84932700D01*
X169214600Y-114655100D02*
X169214600Y-114654200D01*
D74*
X169214600Y-122274900D02*
X169214600Y-122439100D01*
D75*
X107188000Y-125984000D02*
X107213000Y-125959000D01*
X101295000Y-62611000D02*
X101295200Y-62611000D01*
D74*
X135243500Y-132588200D02*
X135248400Y-132588200D01*
D75*
X169214600Y-115564900D02*
X169214600Y-115109100D01*
X171622900Y-124929900D02*
X171661000Y-124968000D01*
X135248400Y-132588200D02*
X135243500Y-132588200D01*
X162121800Y-122691500D02*
X162121800Y-122692000D01*
D74*
X147117000Y-65278000D02*
X147168000Y-65328800D01*
D75*
X169214600Y-114660500D02*
X169214600Y-114656900D01*
D74*
X187405000Y-136352000D02*
X187405000Y-132795000D01*
D75*
X198521800Y-142069900D02*
X198521800Y-142070000D01*
X199968000Y-107657000D02*
X199996000Y-107685000D01*
D74*
X153924000Y-132588000D02*
X152400000Y-132588000D01*
D75*
X168811000Y-65777200D02*
X168812000Y-65776000D01*
X135483600Y-77299600D02*
X135483600Y-76774400D01*
D73*
X134061000Y-69139000D02*
X133604000Y-69596000D01*
X162121600Y-114742400D02*
X162121600Y-114744200D01*
D75*
X167412000Y-68569100D02*
X167412000Y-68576000D01*
X138633000Y-57458700D02*
X138633000Y-57458900D01*
D74*
X179062000Y-59456000D02*
X179879000Y-59456000D01*
D75*
X185038500Y-119020000D02*
X185038800Y-119020000D01*
D74*
X147168000Y-65328800D02*
X148539000Y-63957200D01*
D75*
X169214600Y-114681800D02*
X169214600Y-114667600D01*
D73*
X162121600Y-115227600D02*
X162121600Y-115712900D01*
D75*
X199962000Y-108693000D02*
X199955500Y-108686500D01*
X169214600Y-121946400D02*
X169214600Y-122274900D01*
D73*
X99774700Y-63881000D02*
X99733400Y-63922300D01*
X121920945Y-68878497D02*
X121920945Y-69911555D01*
D74*
X133985000Y-77851000D02*
X135509000Y-77851000D01*
D75*
X162121600Y-114749900D02*
X162121600Y-114746100D01*
X162121600Y-122691300D02*
X162121600Y-122692400D01*
D73*
X164592000Y-77216000D02*
X164592000Y-78740000D01*
D75*
X200024000Y-108713000D02*
X200024000Y-107713000D01*
X135258100Y-132588200D02*
X135248400Y-132588200D01*
D74*
X169214600Y-115564900D02*
X169214600Y-116476400D01*
D75*
X169214600Y-122602700D02*
X169214500Y-122602800D01*
X200572000Y-141420000D02*
X200571700Y-141420000D01*
D73*
X112776000Y-66294000D02*
X112776000Y-67310000D01*
D74*
X175769000Y-133859000D02*
X175768000Y-133858000D01*
D75*
X169214600Y-114767300D02*
X169214600Y-114710300D01*
X169214600Y-116476400D02*
X169214600Y-115564900D01*
X200571700Y-141420000D02*
X200571600Y-141419900D01*
D73*
X199990000Y-107747000D02*
X200024000Y-107713000D01*
D75*
X185038000Y-119020000D02*
X185038500Y-119020000D01*
D74*
X183156000Y-119020000D02*
X183494000Y-119020000D01*
D75*
X107086400Y-85598000D02*
X107188400Y-85496400D01*
X167412000Y-65768800D02*
X167412000Y-65776000D01*
D74*
X169214600Y-122562300D02*
X169214600Y-122582800D01*
D75*
X162121600Y-122690200D02*
X162121600Y-122691300D01*
X170219000Y-67169200D02*
X170212000Y-67176000D01*
X162121600Y-121602400D02*
X162121600Y-122147400D01*
D74*
X182372000Y-119100000D02*
X182473000Y-118999000D01*
D73*
X142428000Y-69674500D02*
X142428000Y-68900000D01*
D74*
X152400000Y-132588000D02*
X150876000Y-132588000D01*
X169214600Y-114653600D02*
X169214600Y-114653800D01*
X143891000Y-66335000D02*
X143891000Y-68503800D01*
X169214600Y-114653500D02*
X169214600Y-114653600D01*
D73*
X150876000Y-87841000D02*
X151341000Y-87376000D01*
D75*
X169214600Y-122602100D02*
X169214600Y-122602700D01*
X169214500Y-114653300D02*
X169214500Y-114653000D01*
D74*
X169214600Y-122603400D02*
X169214600Y-124377400D01*
D75*
X170213000Y-65777200D02*
X170212000Y-65776000D01*
D74*
X183494000Y-119020000D02*
X183515000Y-118999000D01*
D73*
X142799000Y-68529200D02*
X143866000Y-68529200D01*
X162121600Y-116683400D02*
X162121600Y-118625400D01*
D75*
X169214600Y-118299400D02*
X169214600Y-116476400D01*
X152400000Y-132588000D02*
X152197000Y-132385000D01*
D74*
X182346000Y-119126000D02*
X182372000Y-119126000D01*
D75*
X198521600Y-142069900D02*
X198521800Y-142069900D01*
D73*
X199974000Y-108763000D02*
X200024000Y-108713000D01*
D75*
X162121600Y-122658300D02*
X162121600Y-122675300D01*
X171582600Y-124891400D02*
X171583600Y-124891400D01*
X138633200Y-57994200D02*
X138633200Y-58042900D01*
X185038900Y-119020000D02*
X185039000Y-119020000D01*
X162121600Y-122624200D02*
X162121600Y-122658300D01*
D74*
X175769000Y-133857000D02*
X175769000Y-132691000D01*
D75*
X199950300Y-106678500D02*
X199948800Y-106680000D01*
X101295000Y-63881000D02*
X101295200Y-63881000D01*
X200024000Y-107713000D02*
X200024000Y-106713000D01*
D74*
X148539000Y-62331000D02*
X148539200Y-62331000D01*
X200470000Y-134671000D02*
X201973000Y-134671000D01*
D73*
X162121600Y-114749900D02*
X162121600Y-114757500D01*
D75*
X135277500Y-132588200D02*
X135258100Y-132588200D01*
X138633000Y-57994000D02*
X138633000Y-58042900D01*
X199950500Y-106678500D02*
X199950300Y-106678500D01*
D74*
X135860600Y-132588200D02*
X136483600Y-132588200D01*
X135258100Y-132588200D02*
X135277500Y-132588200D01*
D75*
X162121600Y-114985000D02*
X162121600Y-114863700D01*
D73*
X138633000Y-56972200D02*
X138633000Y-57458700D01*
D75*
X167418000Y-67181600D02*
X167412000Y-67176000D01*
X107213000Y-125458500D02*
X107213000Y-124958000D01*
D74*
X153670000Y-61489500D02*
X151384000Y-61489500D01*
D73*
X162121600Y-118808400D02*
X162121600Y-121602400D01*
D74*
X171582600Y-124891400D02*
X171621600Y-124929900D01*
X171505600Y-124813400D02*
X171582600Y-124891400D01*
D73*
X150368000Y-113284000D02*
X150368000Y-114077000D01*
X101295000Y-63881000D02*
X99774700Y-63881000D01*
D75*
X135549600Y-132588200D02*
X135394100Y-132588200D01*
D74*
X107049000Y-144412400D02*
X107010200Y-144373600D01*
X182372000Y-119126000D02*
X182372000Y-119100000D01*
D73*
X105943400Y-85598000D02*
X107086400Y-85598000D01*
D75*
X162121600Y-122688100D02*
X162121600Y-122690200D01*
D74*
X143866000Y-65328800D02*
X147117000Y-65278000D01*
D73*
X99695000Y-70231000D02*
X99568000Y-70358000D01*
D75*
X135509000Y-77851000D02*
X135484000Y-77825600D01*
D74*
X169214600Y-114656900D02*
X169214600Y-114660500D01*
X200449200Y-134671000D02*
X200470000Y-134671000D01*
D75*
X135239900Y-132588200D02*
X135239300Y-132588200D01*
X169214600Y-122600800D02*
X169214600Y-122602100D01*
X168808000Y-65777200D02*
X168811000Y-65777200D01*
D73*
X107086400Y-85598000D02*
X108229400Y-85598000D01*
D74*
X179879000Y-59456000D02*
X179885000Y-59449800D01*
D75*
X199952000Y-106641000D02*
X199988000Y-106677000D01*
D74*
X179885000Y-59449800D02*
X179891000Y-59456000D01*
D73*
X150876000Y-90424000D02*
X150876000Y-87841000D01*
D75*
X135243500Y-132588200D02*
X135241100Y-132588200D01*
X138633000Y-57994000D02*
X138633200Y-57994200D01*
D73*
X162121600Y-122624200D02*
X162121600Y-122658300D01*
X162121600Y-122688100D02*
X162121600Y-122690200D01*
D74*
X135277500Y-132588200D02*
X135316400Y-132588200D01*
X143891000Y-68503800D02*
X143866000Y-68529200D01*
X135239300Y-132588200D02*
X135239900Y-132588200D01*
X175769000Y-136352000D02*
X175769000Y-133859000D01*
D75*
X131064000Y-68757800D02*
X130793000Y-68486800D01*
D74*
X169214600Y-114653400D02*
X169214600Y-114653500D01*
D75*
X169214600Y-114653400D02*
X169214500Y-114653300D01*
D74*
X169214600Y-114881200D02*
X169214600Y-115109100D01*
D75*
X170225000Y-67169200D02*
X170219000Y-67169200D01*
D74*
X169214600Y-114767300D02*
X169214600Y-114881200D01*
X169214600Y-114681800D02*
X169214600Y-114710300D01*
D75*
X162121600Y-122683800D02*
X162121600Y-122688100D01*
X169214600Y-114653600D02*
X169214600Y-114653500D01*
D74*
X150520000Y-62280800D02*
X150470000Y-62280800D01*
X169214600Y-124377400D02*
X169650600Y-124813400D01*
X187405000Y-132795000D02*
X187452000Y-132748000D01*
D73*
X150368000Y-114077000D02*
X150211000Y-114234000D01*
D75*
X135484000Y-77825600D02*
X135484000Y-77300000D01*
D74*
X148539000Y-63957200D02*
X148539000Y-63601600D01*
D75*
X169214600Y-122274900D02*
X169214600Y-122439100D01*
D74*
X157589000Y-129418500D02*
X157589000Y-130169500D01*
X136483600Y-132588200D02*
X136534600Y-132537200D01*
D75*
X197533000Y-142110000D02*
X198521800Y-142110000D01*
X198521800Y-142070000D02*
X198522000Y-142070000D01*
D74*
X169214600Y-114653800D02*
X169214600Y-114654200D01*
D75*
X199955300Y-108686500D02*
X199948800Y-108680000D01*
X149346677Y-82008562D02*
X149352000Y-82003239D01*
D73*
X161550000Y-59826000D02*
X162801000Y-59826000D01*
D75*
X198531000Y-142079000D02*
X198522000Y-142070000D01*
D73*
X200006000Y-106731000D02*
X200024000Y-106713000D01*
D74*
X107049000Y-147853400D02*
X107049000Y-144412400D01*
D75*
X171583600Y-124891400D02*
X171660600Y-124968400D01*
D73*
X162121600Y-114803000D02*
X162121600Y-114863700D01*
D75*
X201973000Y-134671000D02*
X200470000Y-134671000D01*
D73*
X162121600Y-121602400D02*
X162121600Y-122147400D01*
X199005000Y-106731000D02*
X200006000Y-106731000D01*
X162121600Y-114772700D02*
X162121600Y-114803000D01*
D75*
X185038800Y-119020000D02*
X185038900Y-119020000D01*
D74*
X151384000Y-61489500D02*
X150542000Y-62331600D01*
X155012000Y-61489500D02*
X155092000Y-61569600D01*
D73*
X101295000Y-70231000D02*
X99695000Y-70231000D01*
X189992000Y-78740000D02*
X189992000Y-77609000D01*
D75*
X168818000Y-67181600D02*
X168812000Y-67176000D01*
X162121600Y-122556100D02*
X162121600Y-122624200D01*
D74*
X135316400Y-132588200D02*
X135394100Y-132588200D01*
D75*
X169214600Y-122562300D02*
X169214600Y-122582800D01*
X199954000Y-107685000D02*
X199951500Y-107682500D01*
X170225000Y-68573600D02*
X170214000Y-68573600D01*
D73*
X162121600Y-114746100D02*
X162121600Y-114749900D01*
X160299000Y-59826000D02*
X161550000Y-59826000D01*
D75*
X201567000Y-141420000D02*
X201574000Y-141427000D01*
D73*
X99695000Y-62611000D02*
X99669600Y-62636400D01*
D75*
X199955500Y-108686500D02*
X199955300Y-108686500D01*
D74*
X169214600Y-122439100D02*
X169214600Y-122521200D01*
D75*
X162121600Y-114863700D02*
X162121600Y-114803000D01*
X135484000Y-77300000D02*
X135484000Y-76774400D01*
X168802000Y-68586000D02*
X168812000Y-68576000D01*
D74*
X150520000Y-62331600D02*
X150520000Y-62331000D01*
X169214600Y-122600800D02*
X169214600Y-122602100D01*
D73*
X162121600Y-122691300D02*
X162121600Y-122692400D01*
X162030600Y-118717400D02*
X162121600Y-118808400D01*
D75*
X152197000Y-132385000D02*
X152197000Y-131224000D01*
D74*
X183134000Y-118999000D02*
X183156000Y-119020000D01*
X135239900Y-132588200D02*
X135241100Y-132588200D01*
D75*
X199988000Y-106677000D02*
X200024000Y-106713000D01*
X169214600Y-115109100D02*
X169214600Y-114881200D01*
X101295000Y-70231000D02*
X101295200Y-70231000D01*
D73*
X162121600Y-122690200D02*
X162121600Y-122691300D01*
D75*
X138633000Y-57458900D02*
X138633000Y-57945200D01*
X162121800Y-114744000D02*
X162121800Y-114742000D01*
D74*
X169214600Y-121946400D02*
X169214600Y-122274900D01*
D73*
X162121600Y-122692400D02*
X162121600Y-124396400D01*
D75*
X162121600Y-114744200D02*
X162121600Y-114742400D01*
D74*
X185038800Y-119020000D02*
X185038900Y-119020000D01*
D73*
X160263000Y-59862200D02*
X160299000Y-59826000D01*
D75*
X162121600Y-122419900D02*
X162121600Y-122556100D01*
X169214600Y-114653800D02*
X169214600Y-114653600D01*
D73*
X162121600Y-118625400D02*
X162030600Y-118717400D01*
D75*
X135860600Y-132588200D02*
X135549600Y-132588200D01*
D74*
X169214600Y-122521200D02*
X169214600Y-122562300D01*
D75*
X135484000Y-77300000D02*
X135483600Y-77299600D01*
D73*
X199005000Y-107747000D02*
X199990000Y-107747000D01*
D74*
X179961000Y-59456000D02*
X180489000Y-58927800D01*
X153670000Y-61489500D02*
X155012000Y-61489500D01*
D75*
X162121600Y-122675300D02*
X162121600Y-122683800D01*
D73*
X162121600Y-122419900D02*
X162121600Y-122556100D01*
D75*
X110236400Y-131087400D02*
X110236400Y-131572100D01*
D73*
X162121600Y-122658300D02*
X162121600Y-122675300D01*
D75*
X135239300Y-132588200D02*
X135239100Y-132588000D01*
D74*
X179891000Y-59456000D02*
X179961000Y-59456000D01*
D75*
X162121600Y-114803000D02*
X162121600Y-114772700D01*
D74*
X183515000Y-118999000D02*
X183536000Y-119020000D01*
D75*
X135239300Y-132588200D02*
X135238600Y-132588200D01*
D74*
X169214600Y-122582800D02*
X169214600Y-122593100D01*
D75*
X198521800Y-142110000D02*
X198583000Y-142110000D01*
X138633000Y-57945200D02*
X138633000Y-57994000D01*
D73*
X101295200Y-62611000D02*
X101295200Y-63881000D01*
D75*
X107188400Y-84932700D02*
X107188400Y-84369000D01*
D73*
X134061000Y-68884800D02*
X134061000Y-69139000D01*
D74*
X169214600Y-118299400D02*
X169214600Y-121946400D01*
D73*
X162121600Y-124396400D02*
X162538600Y-124813400D01*
D74*
X202481000Y-137211000D02*
X200957200Y-137211000D01*
D75*
X169214600Y-122582800D02*
X169214600Y-122593100D01*
X200004000Y-108693000D02*
X199962000Y-108693000D01*
D74*
X169214600Y-116476400D02*
X169214600Y-118299400D01*
D75*
X130793000Y-68486800D02*
X130793000Y-67160600D01*
X185039000Y-119020000D02*
X185039000Y-119020500D01*
X167416000Y-65764800D02*
X167412000Y-65768800D01*
D74*
X135248400Y-132588200D02*
X135258100Y-132588200D01*
D75*
X167441000Y-67181600D02*
X167418000Y-67181600D01*
D73*
X162121600Y-122675300D02*
X162121600Y-122683800D01*
D74*
X169650600Y-124813400D02*
X171505600Y-124813400D01*
X150520000Y-62331000D02*
X150520000Y-62280800D01*
X171621600Y-124929900D02*
X171660600Y-124968400D01*
D73*
X100998000Y-90932000D02*
X102616000Y-90932000D01*
D75*
X199951500Y-107682500D02*
X199951300Y-107682500D01*
D74*
X169214600Y-122593100D02*
X169214600Y-122598200D01*
X169214600Y-114655100D02*
X169214600Y-114656900D01*
X107188000Y-125984000D02*
X105664000Y-125984000D01*
D75*
X107213000Y-125959000D02*
X107213000Y-125458500D01*
X107213000Y-125458500D02*
X107213400Y-125458100D01*
D74*
X150542000Y-62331600D02*
X150520000Y-62331600D01*
D75*
X162121600Y-114744200D02*
X162121800Y-114744000D01*
X135394100Y-132588200D02*
X135316400Y-132588200D01*
X167404000Y-68561100D02*
X167412000Y-68569100D01*
X168821000Y-67181600D02*
X168818000Y-67181600D01*
D74*
X181356000Y-120116000D02*
X182346000Y-119126000D01*
D75*
X169214600Y-114656900D02*
X169214600Y-114655100D01*
X199955500Y-108686500D02*
X199949000Y-108680000D01*
D74*
X185038500Y-119020000D02*
X185038800Y-119020000D01*
D73*
X101295000Y-62611000D02*
X99695000Y-62611000D01*
D75*
X162121600Y-115227600D02*
X162121600Y-114985000D01*
D74*
%TO.N,/ESP32/EN*%
X166645600Y-124812400D02*
X166645600Y-124811500D01*
X166645600Y-124753900D02*
X166645600Y-126989600D01*
D75*
X166624000Y-113284000D02*
X166621800Y-113286200D01*
D73*
X166621600Y-114742400D02*
X166621600Y-122692200D01*
D75*
X166645600Y-124811500D02*
X166645600Y-124812400D01*
X194240000Y-86248900D02*
X194240000Y-73984000D01*
X166645600Y-124812900D02*
X166645500Y-124813000D01*
D73*
X166621600Y-122692200D02*
X166621600Y-122692400D01*
D75*
X166645600Y-124812900D02*
X166645600Y-124813400D01*
X166645600Y-124783600D02*
X166645600Y-124798500D01*
D74*
X166645600Y-126989600D02*
X167164000Y-127508000D01*
D73*
X157629100Y-61467800D02*
X157629000Y-61467800D01*
D75*
X194240000Y-87052000D02*
X194564000Y-87376000D01*
D74*
X166645600Y-124812900D02*
X166645600Y-124812400D01*
X166645600Y-124753900D02*
X166645600Y-124694400D01*
D75*
X176784000Y-70094695D02*
X168685305Y-61996000D01*
X194240000Y-73984000D02*
X196596000Y-71628000D01*
X166645600Y-124812400D02*
X166645600Y-124812900D01*
D74*
X166645600Y-124813400D02*
X166645600Y-124812900D01*
D75*
X166645600Y-124805900D02*
X166645600Y-124809600D01*
X166645600Y-124753900D02*
X166645600Y-124783600D01*
X168685305Y-61996000D02*
X161562000Y-61996000D01*
X166621600Y-113286400D02*
X166621600Y-114742400D01*
D74*
X166645600Y-124783600D02*
X166645600Y-124753900D01*
D75*
X176784000Y-70104000D02*
X176784000Y-70094695D01*
D74*
X166645600Y-124809600D02*
X166645600Y-124805900D01*
X166645600Y-122715400D02*
X166621600Y-122692400D01*
X166645600Y-124805900D02*
X166645600Y-124798500D01*
D73*
X159427000Y-61996000D02*
X158899000Y-61467800D01*
D75*
X166645600Y-124694400D02*
X166645600Y-124753900D01*
D73*
X161562000Y-61996000D02*
X159427000Y-61996000D01*
X158899000Y-61467800D02*
X157629100Y-61467800D01*
D75*
X166645600Y-124798500D02*
X166645600Y-124805900D01*
X194240000Y-86248900D02*
X194240000Y-87052000D01*
D74*
X166645600Y-124811500D02*
X166645600Y-124809600D01*
X166645600Y-124694400D02*
X166645600Y-122715400D01*
D75*
X166621800Y-122692000D02*
X166621600Y-122692200D01*
X166645600Y-124809600D02*
X166645600Y-124811500D01*
X166621800Y-113286200D02*
X166621800Y-114742000D01*
D74*
X166645600Y-124798500D02*
X166645600Y-124783600D01*
D75*
X166624000Y-113284000D02*
X166621600Y-113286400D01*
%TO.N,+5V*%
X185039000Y-116945500D02*
X185038800Y-116945700D01*
D76*
X188279000Y-116455000D02*
X199174000Y-116455000D01*
X113284000Y-78890500D02*
X113347500Y-78954000D01*
D77*
X135396000Y-67158000D02*
X135411000Y-67173200D01*
D76*
X123293500Y-78890500D02*
X128016000Y-74168000D01*
X113284000Y-101600000D02*
X129032000Y-101600000D01*
X98349500Y-81215500D02*
X98349500Y-79450500D01*
X132080000Y-74168000D02*
X135511000Y-70737000D01*
D75*
X184548000Y-116455000D02*
X185038800Y-116945700D01*
D76*
X199948800Y-115680200D02*
X199949000Y-115680000D01*
D75*
X181356000Y-116817000D02*
X181356000Y-116866000D01*
D76*
X98918900Y-120396000D02*
X97536000Y-119013000D01*
X188278000Y-116455000D02*
X188278600Y-116455000D01*
D77*
X135484000Y-70408800D02*
X135331000Y-70256400D01*
D76*
X167081000Y-104648000D02*
X178888000Y-116455000D01*
X129032000Y-101600000D02*
X132079800Y-104647800D01*
X178888000Y-116455000D02*
X181718000Y-116455000D01*
X113347500Y-78954000D02*
X113347500Y-81277000D01*
X188278600Y-116455000D02*
X188279000Y-116455000D01*
X135511000Y-70737000D02*
X135511000Y-69697542D01*
D75*
X188279000Y-117455000D02*
X188279000Y-118455000D01*
X199948800Y-113680000D02*
X199949000Y-113680000D01*
D76*
X98909500Y-78890500D02*
X113284000Y-78890500D01*
X113347500Y-81277000D02*
X113347500Y-101536500D01*
D77*
X135484000Y-71391600D02*
X135484000Y-70408800D01*
D76*
X199174000Y-116455000D02*
X199948800Y-115680200D01*
X132079800Y-104647800D02*
X148336000Y-104647800D01*
D74*
X148336000Y-101356000D02*
X148336000Y-104647800D01*
D76*
X97536000Y-119013000D02*
X97536000Y-117856000D01*
D75*
X157629100Y-104647800D02*
X157629100Y-104648000D01*
D76*
X128016000Y-74168000D02*
X132080000Y-74168000D01*
D74*
X199949000Y-114680000D02*
X199949000Y-115680000D01*
D76*
X181718000Y-116455000D02*
X184548000Y-116455000D01*
X107285000Y-105059000D02*
X107285000Y-118709000D01*
D75*
X188278800Y-118455200D02*
X188279000Y-118455000D01*
X188278600Y-116455000D02*
X188279000Y-116455000D01*
D76*
X98349500Y-79450500D02*
X98909500Y-78890500D01*
D75*
X188278600Y-116455200D02*
X188278600Y-116455000D01*
X188278000Y-116455000D02*
X188278600Y-116455000D01*
X199948800Y-114680000D02*
X199949000Y-114680000D01*
D74*
X199949000Y-113680000D02*
X199949000Y-114680000D01*
D76*
X110744000Y-101600000D02*
X107285000Y-105059000D01*
X157629100Y-104648000D02*
X167081000Y-104648000D01*
X105598000Y-120396000D02*
X98918900Y-120396000D01*
D75*
X185038800Y-116945700D02*
X185039000Y-116946000D01*
D77*
X135484000Y-72374400D02*
X135484000Y-71392000D01*
D75*
X181718000Y-116455000D02*
X181356000Y-116817000D01*
D76*
X113284000Y-101600000D02*
X110744000Y-101600000D01*
D74*
X121920000Y-76510000D02*
X121920000Y-78232000D01*
D76*
X184548000Y-116455000D02*
X188278000Y-116455000D01*
X188279000Y-116455000D02*
X188279000Y-117455000D01*
X148336000Y-104647800D02*
X157629100Y-104647800D01*
X113284000Y-78890500D02*
X123293500Y-78890500D01*
D75*
X188278600Y-118455200D02*
X188278800Y-118455200D01*
D76*
X113347500Y-101536500D02*
X113284000Y-101600000D01*
X188279000Y-117455000D02*
X188279000Y-118455000D01*
D77*
X135411000Y-70176400D02*
X135331000Y-70256400D01*
D75*
X135483600Y-72374400D02*
X135484000Y-72374400D01*
D77*
X135411000Y-67173200D02*
X135411000Y-70176400D01*
D75*
X199948800Y-115680200D02*
X199948800Y-115680000D01*
D76*
X107285000Y-118709000D02*
X105598000Y-120396000D01*
D73*
%TO.N,Net-(J1-Pin_4)*%
X197637400Y-113004600D02*
X197637000Y-113005000D01*
X197962000Y-112680000D02*
X197637400Y-113004600D01*
X199949000Y-112680000D02*
X199948800Y-112680000D01*
X199948800Y-112680000D02*
X197962000Y-112680000D01*
D75*
%TO.N,TX_DISPLAY_RX*%
X183272200Y-112471000D02*
X183272400Y-112471200D01*
X183272000Y-112471000D02*
X183272200Y-112471000D01*
D73*
X183272000Y-112471000D02*
X182596000Y-112471000D01*
X182596000Y-112471000D02*
X182291000Y-112776000D01*
X182291000Y-112776000D02*
X181214000Y-112776000D01*
D75*
%TO.N,RX_DISPLAY_TX*%
X181204000Y-110134000D02*
X181203600Y-110134400D01*
D73*
X183272000Y-110439000D02*
X182494000Y-110439000D01*
X182190000Y-110134000D02*
X181204000Y-110134000D01*
X182494000Y-110439000D02*
X182190000Y-110134000D01*
D75*
X183272000Y-110439000D02*
X183272200Y-110439000D01*
X183272200Y-110439000D02*
X183272400Y-110439200D01*
%TO.N,I2C_SDA*%
X202530000Y-142830000D02*
X204480000Y-144780000D01*
X189306000Y-89460200D02*
X189306000Y-89460000D01*
D73*
X189306000Y-89460200D02*
X189306000Y-90234100D01*
D75*
X189306200Y-88686900D02*
X189306200Y-88686400D01*
D73*
X189306000Y-88698400D02*
X189306000Y-88710500D01*
X189306000Y-88687900D02*
X189306000Y-88689400D01*
D75*
X189306000Y-88689400D02*
X189306000Y-88687900D01*
X189306000Y-88710500D02*
X189306000Y-88698400D01*
X197008000Y-142830000D02*
X202530000Y-142830000D01*
X189306000Y-88687100D02*
X189306200Y-88686900D01*
X197843000Y-140770000D02*
X197808000Y-140805000D01*
D73*
X189306000Y-88689400D02*
X189306000Y-88692400D01*
X145796000Y-90424000D02*
X145796000Y-79838000D01*
D75*
X189306000Y-88698400D02*
X189306000Y-88692400D01*
X189306000Y-88687100D02*
X189306000Y-88686400D01*
X189306000Y-89073200D02*
X189306000Y-88879800D01*
X189306000Y-89460000D02*
X189306000Y-89073200D01*
X194983000Y-140805000D02*
X197008000Y-142830000D01*
X189306000Y-88879800D02*
X189306000Y-88783100D01*
D73*
X189306000Y-88783100D02*
X189306000Y-88879800D01*
X189306000Y-90234100D02*
X189357000Y-90284900D01*
D75*
X189306000Y-88692400D02*
X189306000Y-88689400D01*
D73*
X189306000Y-88710500D02*
X189306000Y-88734700D01*
D75*
X189306000Y-88734700D02*
X189306000Y-88710500D01*
X191405000Y-137227000D02*
X194983000Y-140805000D01*
D73*
X189306000Y-88692400D02*
X189306000Y-88698400D01*
X189306000Y-89460000D02*
X189306000Y-89460200D01*
X189306000Y-88686400D02*
X189306000Y-88687100D01*
X145796000Y-79838000D02*
X147402000Y-78232000D01*
X189306000Y-88734700D02*
X189306000Y-88783100D01*
X189306000Y-89073200D02*
X189306000Y-89460000D01*
D75*
X189306000Y-88687900D02*
X189306000Y-88687100D01*
X198522000Y-140770000D02*
X198521500Y-140770000D01*
X198521500Y-140770000D02*
X197843000Y-140770000D01*
D73*
X189306000Y-88687100D02*
X189306000Y-88687900D01*
D75*
X191405000Y-136352000D02*
X191405000Y-137227000D01*
X197808000Y-140805000D02*
X194983000Y-140805000D01*
X189306000Y-88783100D02*
X189306000Y-88734700D01*
D73*
X189306000Y-88879800D02*
X189306000Y-89073200D01*
D75*
X198521500Y-140770000D02*
X198521600Y-140769900D01*
%TO.N,Net-(JP4-C)*%
X200132000Y-138715000D02*
X199657000Y-138240000D01*
X200571600Y-140119600D02*
X200132000Y-139680000D01*
X200132000Y-139680000D02*
X200132000Y-138715000D01*
X199657000Y-137211000D02*
X199657000Y-137210800D01*
X200572000Y-140120000D02*
X200571600Y-140119600D01*
X199657000Y-138240000D02*
X199657000Y-137211000D01*
X200571600Y-140119600D02*
X200571600Y-140119900D01*
%TO.N,/ESP32/GPIO_36*%
X158956000Y-64007800D02*
X159698000Y-63266000D01*
X159698000Y-63266000D02*
X161562000Y-63266000D01*
X157629000Y-64007800D02*
X157629100Y-64007800D01*
X157629100Y-64007800D02*
X158956000Y-64007800D01*
%TO.N,/ESP32/GPIO_39*%
X158956000Y-66547800D02*
X160485000Y-65018700D01*
X160485000Y-64536000D02*
X161562000Y-64536000D01*
X157629100Y-66547800D02*
X158956000Y-66547800D01*
X160485000Y-65018700D02*
X160485000Y-64536000D01*
X157629000Y-66547800D02*
X157629100Y-66547800D01*
%TO.N,/ESP32/GPIO_34*%
X157629100Y-69087800D02*
X157629000Y-69087800D01*
X160485000Y-65806000D02*
X158956000Y-67335100D01*
X158956000Y-69087800D02*
X157629100Y-69087800D01*
X158956000Y-67335100D02*
X158956000Y-69087800D01*
X161562000Y-65806000D02*
X160485000Y-65806000D01*
D73*
%TO.N,/ESP32/GPIO_35*%
X157629000Y-71627800D02*
X150495000Y-71627800D01*
D75*
X157629000Y-71627800D02*
X157629100Y-71627800D01*
X160485000Y-68771800D02*
X157629000Y-71627800D01*
X161562000Y-67076000D02*
X160485000Y-67076000D01*
X160485000Y-67076000D02*
X160485000Y-68771800D01*
D73*
X150495000Y-71627800D02*
X150368000Y-71755000D01*
D75*
%TO.N,/ESP32/GPIO_32_32K*%
X161951620Y-68346000D02*
X161562000Y-68346000D01*
X162637000Y-69031380D02*
X161951620Y-68346000D01*
X162637000Y-71451000D02*
X162637000Y-69031380D01*
X164846000Y-73660000D02*
X162637000Y-71451000D01*
%TO.N,/ESP32/GPIO_33_32K*%
X157629100Y-76707800D02*
X157629000Y-76707800D01*
X158956000Y-71145100D02*
X158956000Y-76707800D01*
X158956000Y-76707800D02*
X157629100Y-76707800D01*
X160485000Y-69616000D02*
X158956000Y-71145100D01*
X161562000Y-69616000D02*
X160485000Y-69616000D01*
%TO.N,/ESP32/GPIO_25*%
X159418000Y-78786000D02*
X159418000Y-71953300D01*
X159418000Y-71953300D02*
X160485000Y-70886000D01*
X157629000Y-79247800D02*
X157629100Y-79247800D01*
X157629100Y-79247800D02*
X158956000Y-79247800D01*
X158956000Y-79247800D02*
X159418000Y-78786000D01*
X160485000Y-70886000D02*
X161562000Y-70886000D01*
%TO.N,/ESP32/GPIO_26*%
X155956000Y-88203037D02*
X158998263Y-88203037D01*
X160299000Y-95757800D02*
X177317000Y-112776000D01*
X162639000Y-72156000D02*
X161562000Y-72156000D01*
X177317000Y-112776000D02*
X179914000Y-112776000D01*
X155956000Y-95504000D02*
X156209800Y-95757800D01*
X156209800Y-95757800D02*
X160299000Y-95757800D01*
X155956000Y-87459500D02*
X155956000Y-95504000D01*
X163576000Y-83625300D02*
X163576000Y-73093000D01*
X157629100Y-81787800D02*
X155956000Y-81787800D01*
X158998263Y-88203037D02*
X163576000Y-83625300D01*
X163576000Y-73093000D02*
X162639000Y-72156000D01*
X155956000Y-81787800D02*
X155956000Y-87459500D01*
%TO.N,/ESP32/GPIO_27*%
X163684300Y-94742000D02*
X179076700Y-110134400D01*
X160274000Y-94742000D02*
X163684300Y-94742000D01*
X158956000Y-84327800D02*
X160008000Y-83276100D01*
X157629000Y-84327800D02*
X157629100Y-84327800D01*
X179076700Y-110134400D02*
X179903600Y-110134400D01*
X160008000Y-83276100D02*
X160008000Y-73903400D01*
X157629100Y-84327800D02*
X158956000Y-84327800D01*
X160008000Y-73903400D02*
X160485000Y-73426000D01*
X160485000Y-73426000D02*
X161562000Y-73426000D01*
%TO.N,/ESP32/GPIO_14*%
X160485000Y-85338700D02*
X160485000Y-82390000D01*
X157629000Y-86867800D02*
X157629100Y-86867800D01*
X160485000Y-74696000D02*
X161562000Y-74696000D01*
X158956000Y-86867800D02*
X160485000Y-85338700D01*
X161562000Y-74696000D02*
X162691800Y-74696000D01*
X162691800Y-74696000D02*
X162851500Y-74536300D01*
X157629100Y-86867800D02*
X158956000Y-86867800D01*
X160485000Y-82390000D02*
X160485000Y-74696000D01*
%TO.N,/ESP32/GPIO_12*%
X161581500Y-80772000D02*
X161544000Y-80734500D01*
X161544000Y-75966000D02*
X161562000Y-75966000D01*
X161544000Y-80734500D02*
X161544000Y-75966000D01*
D73*
%TO.N,/ESP32/GPIO_13*%
X189008000Y-71660000D02*
X188976000Y-71628000D01*
D75*
X165862000Y-75303900D02*
X165862000Y-77216000D01*
X194056000Y-69596000D02*
X192024000Y-71628000D01*
X196596000Y-64008000D02*
X194056000Y-66548000D01*
X168013900Y-73152000D02*
X165862000Y-75303900D01*
X157629000Y-94487800D02*
X157629100Y-94487800D01*
X176276000Y-73152000D02*
X168013900Y-73152000D01*
D73*
X189008000Y-73152000D02*
X189008000Y-71660000D01*
D75*
X194056000Y-66548000D02*
X194056000Y-69596000D01*
X165862000Y-87581800D02*
X165862000Y-77216000D01*
X157629100Y-94487800D02*
X158956000Y-94487800D01*
X192024000Y-71628000D02*
X188976000Y-71628000D01*
X158956000Y-94487800D02*
X165862000Y-87581800D01*
%TO.N,/ESP32/GPIO_15*%
X196596000Y-69088000D02*
X193420600Y-72263400D01*
X174752000Y-81154600D02*
X174752000Y-77216000D01*
X174752000Y-88750800D02*
X174752000Y-81154600D01*
X108204000Y-66802000D02*
X109030900Y-66802000D01*
X109030900Y-66802000D02*
X109316300Y-67087400D01*
D74*
X183029100Y-97027800D02*
X183029000Y-97027800D01*
X192866000Y-91038200D02*
X186876000Y-97027800D01*
D75*
X193420600Y-72263400D02*
X193420600Y-89663600D01*
X183029000Y-97027800D02*
X174752000Y-88750800D01*
X192866100Y-91038200D02*
X192866000Y-91038200D01*
D74*
X186876000Y-97027800D02*
X183029100Y-97027800D01*
D75*
X192866100Y-90218100D02*
X192866100Y-91038200D01*
X193420600Y-89663600D02*
X192866100Y-90218100D01*
%TO.N,/ESP32/GPIO_02*%
X181702000Y-94487800D02*
X176022000Y-88807600D01*
X183029000Y-94487800D02*
X181702000Y-94487800D01*
X176022000Y-88807600D02*
X176022000Y-77216000D01*
X183029000Y-94487800D02*
X183029100Y-94487800D01*
%TO.N,/ESP32/GPIO_00_BOOT*%
X173735600Y-124931700D02*
X173735600Y-124950000D01*
D74*
X173735600Y-124950000D02*
X173735600Y-124931700D01*
D75*
X173714600Y-122556800D02*
X173714600Y-122580100D01*
D74*
X173735600Y-124931700D02*
X173735600Y-124895100D01*
D75*
X173735600Y-124675400D02*
X173735600Y-124821900D01*
X173735600Y-124382400D02*
X173735600Y-124675400D01*
X173735600Y-124895100D02*
X173735600Y-124931700D01*
D73*
X173714600Y-122597500D02*
X173714600Y-122600400D01*
D75*
X173736000Y-114300000D02*
X173714600Y-114321400D01*
D73*
X173714600Y-121858100D02*
X173714600Y-122230700D01*
D75*
X173714500Y-114102500D02*
X173714500Y-114653000D01*
D73*
X173714600Y-122556800D02*
X173714600Y-122580100D01*
D75*
X173714600Y-122600400D02*
X173714600Y-122603400D01*
X173735600Y-124950000D02*
X173735600Y-124959200D01*
X173735600Y-124967200D02*
X173735600Y-124968400D01*
D73*
X173714600Y-116641400D02*
X173714600Y-119622400D01*
D75*
X173714600Y-122417000D02*
X173714600Y-122510200D01*
X173735600Y-124959200D02*
X173735600Y-124963800D01*
D74*
X173735600Y-124963800D02*
X173735600Y-124959200D01*
D73*
X173714600Y-122230700D02*
X173714600Y-122417000D01*
X173714600Y-122417000D02*
X173714600Y-122510200D01*
X173714600Y-114653400D02*
X173714600Y-116640400D01*
D75*
X173714600Y-114102400D02*
X173714500Y-114102500D01*
X173714600Y-116641400D02*
X173714600Y-116640400D01*
X183029100Y-91947800D02*
X181702000Y-91947800D01*
X173736000Y-124967600D02*
X173736000Y-124968000D01*
X173714600Y-121112900D02*
X173714600Y-121858100D01*
D74*
X173735600Y-124966100D02*
X173735600Y-124963800D01*
D75*
X173714600Y-116640400D02*
X173714600Y-114653400D01*
X173714600Y-114278600D02*
X173736000Y-114300000D01*
X173714600Y-122597500D02*
X173714600Y-122600400D01*
X181702000Y-91947800D02*
X178308000Y-88553800D01*
D73*
X173714600Y-119622400D02*
X173714600Y-121112900D01*
X173714600Y-116640400D02*
X173714600Y-116641400D01*
D75*
X173735600Y-123796400D02*
X173735600Y-124382400D01*
D73*
X173714600Y-122580100D02*
X173714600Y-122591700D01*
D75*
X173735600Y-124966100D02*
X173735600Y-124967200D01*
D74*
X173735600Y-124382400D02*
X173735600Y-123796400D01*
D73*
X173714600Y-122510200D02*
X173714600Y-122556800D01*
X173714600Y-121112900D02*
X173714600Y-121858100D01*
D75*
X173735600Y-124963800D02*
X173735600Y-124966100D01*
X173714600Y-119622400D02*
X173714600Y-121112900D01*
X178308000Y-88553800D02*
X178308000Y-76720000D01*
D74*
X173735600Y-124821900D02*
X173735600Y-124675400D01*
D75*
X173714600Y-122591700D02*
X173714600Y-122597500D01*
X173714600Y-122600400D02*
X173714500Y-122600500D01*
D74*
X173735600Y-124959200D02*
X173735600Y-124950000D01*
D75*
X173714500Y-122600500D02*
X173714500Y-122603000D01*
D74*
X173735600Y-124675400D02*
X173735600Y-124382400D01*
D75*
X173714600Y-121858100D02*
X173714600Y-122230700D01*
D74*
X173735600Y-124968400D02*
X173735600Y-124967200D01*
D75*
X173714600Y-114102400D02*
X173714600Y-114278600D01*
X173714600Y-122510200D02*
X173714600Y-122556800D01*
D74*
X173735600Y-124967200D02*
X173735600Y-124966100D01*
D75*
X173735600Y-124967200D02*
X173736000Y-124967600D01*
X173714600Y-122580100D02*
X173714600Y-122591700D01*
X173714600Y-122230700D02*
X173714600Y-122417000D01*
X178308000Y-76720000D02*
X179062000Y-75966000D01*
D74*
X173735600Y-123796400D02*
X173735600Y-122624400D01*
D75*
X173714600Y-114321400D02*
X173714600Y-114653400D01*
D74*
X173735600Y-122624400D02*
X173714600Y-122603400D01*
X173735600Y-124895100D02*
X173735600Y-124821900D01*
D73*
X173714600Y-122591700D02*
X173714600Y-122597500D01*
X173714600Y-122600400D02*
X173714600Y-122603400D01*
D75*
X173735600Y-124821900D02*
X173735600Y-124895100D01*
D73*
%TO.N,CANBUS_TO_RX*%
X100998000Y-96012000D02*
X104872000Y-96012000D01*
%TO.N,CANBUS_TO_TX*%
X100998000Y-93472000D02*
X104872000Y-93472000D01*
%TO.N,+3V3*%
X150876000Y-80772000D02*
X149860000Y-79756000D01*
D74*
X196860000Y-144780000D02*
X192958000Y-144780000D01*
X170688000Y-127508000D02*
X173736000Y-130556000D01*
X173693000Y-130599000D02*
X173693000Y-132689600D01*
X112776000Y-69910000D02*
X112776000Y-72136000D01*
D78*
X153670000Y-58927800D02*
X157629000Y-58927800D01*
D73*
X185405000Y-132720000D02*
X186552000Y-131573000D01*
D74*
X198374000Y-134688000D02*
X198374000Y-137194000D01*
X138811000Y-69138800D02*
X139992000Y-69138800D01*
D78*
X143764000Y-60800000D02*
X145636000Y-58927800D01*
D74*
X115316000Y-70104000D02*
X115316000Y-66898500D01*
D78*
X138735000Y-60800000D02*
X133154000Y-60800000D01*
X133154000Y-60800000D02*
X133096000Y-60858000D01*
D74*
X112776000Y-72136000D02*
X113284000Y-72136000D01*
D75*
X173693000Y-132689600D02*
X173693000Y-132690000D01*
X199568000Y-139172000D02*
X198357000Y-137961000D01*
D73*
X191897000Y-83322400D02*
X189255400Y-83322400D01*
D75*
X198374000Y-134670800D02*
X198374000Y-134671000D01*
D73*
X149860000Y-79756000D02*
X147320000Y-79756000D01*
D75*
X198521600Y-141419900D02*
X198521900Y-141419900D01*
X138735000Y-60219700D02*
X138735000Y-60800000D01*
D74*
X173769000Y-137041000D02*
X173769000Y-136352000D01*
D73*
X147402000Y-79838000D02*
X147320000Y-79756000D01*
D75*
X198376000Y-134690000D02*
X198396000Y-134671000D01*
D74*
X138811000Y-60876200D02*
X138735000Y-60800000D01*
X157772000Y-58927800D02*
X159807000Y-60962200D01*
D75*
X138633200Y-60117900D02*
X138633100Y-60118000D01*
D74*
X103124000Y-98552000D02*
X100998000Y-98552000D01*
X198357100Y-137210900D02*
X198357000Y-137211000D01*
X157629000Y-58927800D02*
X157629100Y-58927800D01*
X185405000Y-136352000D02*
X182921000Y-138836000D01*
D78*
X148386000Y-58927800D02*
X151028000Y-58927800D01*
D75*
X200571600Y-140770000D02*
X199568000Y-140770000D01*
D77*
X133096000Y-67158000D02*
X133096000Y-60858000D01*
D74*
X138811000Y-69138800D02*
X138811000Y-60876200D01*
D75*
X198521900Y-141419900D02*
X198522000Y-141420000D01*
D74*
X138811000Y-72693800D02*
X139184000Y-73066400D01*
D73*
X186552000Y-131573000D02*
X195276000Y-131573000D01*
D74*
X157629100Y-58927800D02*
X157772000Y-58927800D01*
X185405000Y-136352000D02*
X185405000Y-132776000D01*
D73*
X150876000Y-85852000D02*
X150876000Y-80772000D01*
D75*
X148386000Y-58927800D02*
X148539000Y-59081000D01*
D74*
X101930200Y-72136000D02*
X112776000Y-72136000D01*
X173769000Y-136352000D02*
X173769000Y-132766000D01*
D75*
X199568000Y-142070000D02*
X199568000Y-140770000D01*
X200571600Y-142070000D02*
X199568000Y-142070000D01*
X200571600Y-142069900D02*
X200571600Y-142070000D01*
X200572000Y-142070000D02*
X200571600Y-142070000D01*
D74*
X101295200Y-71501000D02*
X101930200Y-72136000D01*
D73*
X153416000Y-90424000D02*
X153416000Y-87376000D01*
D74*
X137211000Y-69138800D02*
X138811000Y-69138800D01*
D75*
X138633100Y-60118000D02*
X138735000Y-60219700D01*
X101295200Y-71501000D02*
X101295000Y-71501000D01*
D74*
X185405000Y-137227000D02*
X185405000Y-136352000D01*
D78*
X143519000Y-60800000D02*
X143764000Y-60800000D01*
D73*
X189255400Y-83322400D02*
X189255400Y-82321400D01*
D74*
X113284000Y-72136000D02*
X115316000Y-70104000D01*
D75*
X138633000Y-60117900D02*
X138633100Y-60118000D01*
X185405000Y-132720000D02*
X185405000Y-132776000D01*
D73*
X151892000Y-85852000D02*
X150876000Y-85852000D01*
D75*
X199568000Y-142070000D02*
X199406000Y-142070000D01*
X148539200Y-59081000D02*
X148539000Y-59081000D01*
D73*
X192390000Y-57658000D02*
X192390000Y-61610000D01*
X153416000Y-87376000D02*
X151892000Y-85852000D01*
D75*
X198366000Y-137202000D02*
X198365000Y-137202000D01*
X198365000Y-137202000D02*
X198357000Y-137211000D01*
X153670000Y-59414500D02*
X153670000Y-58927800D01*
D73*
X161562000Y-60726000D02*
X160642000Y-60726000D01*
D74*
X173736000Y-130556000D02*
X173693000Y-130599000D01*
D75*
X198357000Y-137961000D02*
X198357000Y-137211000D01*
D74*
X198374000Y-134671000D02*
X198374000Y-134688000D01*
D75*
X151384000Y-59283800D02*
X151384000Y-59414500D01*
D74*
X175565000Y-138836000D02*
X173769000Y-137041000D01*
D73*
X185377000Y-132748000D02*
X185405000Y-132720000D01*
X189255400Y-82321400D02*
X189230000Y-82296000D01*
D75*
X199406000Y-142070000D02*
X198756000Y-141420000D01*
D77*
X121356000Y-60858000D02*
X115316000Y-66898500D01*
D75*
X200571600Y-140769900D02*
X200571600Y-140770000D01*
X198376000Y-134690000D02*
X198374000Y-134688000D01*
D78*
X145636000Y-58927800D02*
X148386000Y-58927800D01*
X151028000Y-58927800D02*
X153670000Y-58927800D01*
D73*
X191135000Y-62865000D02*
X190119000Y-62865000D01*
D78*
X143519000Y-60800000D02*
X138735000Y-60800000D01*
D75*
X198756000Y-141420000D02*
X198522000Y-141420000D01*
X143519000Y-61563200D02*
X143519000Y-60800000D01*
X143891000Y-61935000D02*
X143519000Y-61563200D01*
X189237500Y-83050500D02*
X189222500Y-83065500D01*
D73*
X147402000Y-81132000D02*
X147402000Y-79838000D01*
D74*
X173769000Y-132766000D02*
X173693000Y-132690000D01*
D73*
X192024000Y-57292000D02*
X192390000Y-57658000D01*
D74*
X138811000Y-69138800D02*
X138811000Y-72693800D01*
D73*
X192390000Y-61610000D02*
X191135000Y-62865000D01*
D75*
X151028000Y-58927800D02*
X151384000Y-59283800D01*
D74*
X169164000Y-127508000D02*
X170688000Y-127508000D01*
D77*
X133096000Y-60858000D02*
X121356000Y-60858000D01*
D75*
X200572000Y-140770000D02*
X200571600Y-140770000D01*
D74*
X159807000Y-60962200D02*
X160406000Y-60962200D01*
D73*
X160642000Y-60726000D02*
X160406000Y-60962200D01*
D74*
X198374000Y-137194000D02*
X198366000Y-137202000D01*
D73*
X195276000Y-131573000D02*
X198374000Y-134671000D01*
D75*
X198357000Y-137210800D02*
X198357100Y-137210900D01*
X198357000Y-134709000D02*
X198376000Y-134690000D01*
D74*
X182921000Y-138836000D02*
X175565000Y-138836000D01*
X139992000Y-69138800D02*
X140528000Y-69674500D01*
X198366000Y-137202000D02*
X198357100Y-137210900D01*
X192958000Y-144780000D02*
X185405000Y-137227000D01*
D75*
X199568000Y-140770000D02*
X199568000Y-139172000D01*
D74*
%TO.N,GND2*%
X81356200Y-100127000D02*
X82874200Y-100127000D01*
X82874200Y-100127000D02*
X82874300Y-100127000D01*
D75*
X66577100Y-113995000D02*
X66628100Y-114046000D01*
D76*
X70866000Y-124968000D02*
X74764000Y-124968000D01*
D75*
X82874200Y-100127000D02*
X82874300Y-100127000D01*
D74*
X82874300Y-100127000D02*
X82874400Y-100127000D01*
X66577100Y-113995000D02*
X66577300Y-113995000D01*
D73*
X86868000Y-122682000D02*
X85344000Y-122682000D01*
D74*
X81661000Y-101676000D02*
X81661000Y-100432000D01*
D73*
X91948000Y-90932000D02*
X93980000Y-90932000D01*
X85344000Y-122682000D02*
X83820000Y-122682000D01*
D74*
X71628000Y-92710000D02*
X71628000Y-93980000D01*
X81661000Y-100432000D02*
X81356200Y-100127000D01*
D75*
X85344000Y-122682000D02*
X85344000Y-122725000D01*
D74*
X65604300Y-113995000D02*
X66577100Y-113995000D01*
D76*
X70866000Y-124968000D02*
X67869000Y-124968000D01*
D75*
X82874300Y-100127000D02*
X82874400Y-100127000D01*
D74*
X80594200Y-100127000D02*
X81356200Y-100127000D01*
D73*
X89662000Y-90932000D02*
X91948000Y-90932000D01*
D76*
X74764000Y-124968000D02*
X75170000Y-124562000D01*
D73*
X69850000Y-99060000D02*
X71023000Y-99060000D01*
D76*
X67869000Y-124968000D02*
X67818000Y-125019000D01*
D75*
X82874400Y-100127000D02*
X82874400Y-100126800D01*
D74*
X71628000Y-93980000D02*
X71628000Y-95250000D01*
X75184000Y-124576000D02*
X75170000Y-124562000D01*
D75*
%TO.N,Net-(D1-K)*%
X69088000Y-115270000D02*
X68703100Y-114886000D01*
D77*
X69342000Y-118204000D02*
X69088000Y-117950000D01*
X71881900Y-110693000D02*
X71882000Y-110693000D01*
D75*
X68703100Y-114886000D02*
X68703100Y-114046000D01*
D77*
X65532000Y-126746000D02*
X65786000Y-127000000D01*
X69875400Y-110693000D02*
X71881800Y-110693000D01*
X60960000Y-121158000D02*
X65532000Y-121158000D01*
X71881800Y-110693000D02*
X71881900Y-110693000D01*
X78994000Y-127000000D02*
X79770000Y-126224000D01*
D75*
X71882000Y-110693000D02*
X71882000Y-110693200D01*
D77*
X69088000Y-115270000D02*
X69088000Y-111481000D01*
X65786000Y-127000000D02*
X78994000Y-127000000D01*
X79770000Y-126224000D02*
X79770000Y-124562000D01*
D75*
X71881900Y-110693000D02*
X71882000Y-110693000D01*
D77*
X69088000Y-117950000D02*
X69088000Y-115270000D01*
X65532000Y-121158000D02*
X65532000Y-126746000D01*
X66388000Y-121158000D02*
X69342000Y-118204000D01*
X69088000Y-111481000D02*
X69875400Y-110693000D01*
D75*
X71881800Y-110693000D02*
X71881900Y-110693000D01*
D77*
X60960000Y-121158000D02*
X66388000Y-121158000D01*
%TO.N,Net-(D1-A)*%
X68326000Y-102047500D02*
X68326000Y-108712000D01*
D75*
X67289500Y-101010500D02*
X67289500Y-101010000D01*
D77*
X67289500Y-101011000D02*
X68326000Y-102047500D01*
D75*
X67589100Y-101310000D02*
X67289500Y-101011000D01*
X67289500Y-101011000D02*
X67289500Y-101010500D01*
D77*
X66040000Y-110998000D02*
X60960000Y-110998000D01*
X68326000Y-108712000D02*
X66040000Y-110998000D01*
D75*
%TO.N,+5VD*%
X88061800Y-99339500D02*
X88061700Y-99339500D01*
D74*
X88849200Y-98552000D02*
X91948000Y-98552000D01*
X88061800Y-99339500D02*
X88849200Y-98552000D01*
D75*
X87274500Y-100126900D02*
X87274400Y-100127000D01*
D74*
X85344000Y-120650000D02*
X85314000Y-120620000D01*
X87274400Y-100126800D02*
X87274400Y-100127000D01*
X85314000Y-102087200D02*
X87274400Y-100126800D01*
D75*
X88061700Y-99339500D02*
X87274500Y-100126900D01*
X87274400Y-100126800D02*
X87274500Y-100126900D01*
D74*
X87274400Y-100127000D02*
X88061800Y-99339500D01*
X85314000Y-120620000D02*
X85314000Y-102087200D01*
D75*
%TO.N,/ESP32/GPIO_18*%
X181702000Y-72443300D02*
X180185000Y-70926200D01*
X179485000Y-69616000D02*
X179062000Y-69616000D01*
X180185000Y-70926200D02*
X180185000Y-70316300D01*
X180185000Y-70316300D02*
X179485000Y-69616000D01*
X181702000Y-79247800D02*
X181702000Y-72443300D01*
X183029000Y-79247800D02*
X183029100Y-79247800D01*
X183029000Y-79247800D02*
X181702000Y-79247800D01*
%TO.N,/ESP32/GPIO_19*%
X177540000Y-67901200D02*
X177985000Y-68346000D01*
X177985000Y-68346000D02*
X179062000Y-68346000D01*
X176868000Y-67901200D02*
X177540000Y-67901200D01*
%TO.N,/ESP32/GPIO_03_U0RXD*%
X179062000Y-64536000D02*
X180139000Y-64536000D01*
X181702000Y-69087800D02*
X183029000Y-69087800D01*
X180139000Y-64536000D02*
X181121000Y-65518300D01*
X181121000Y-65518300D02*
X181121000Y-68506800D01*
X183029000Y-69087800D02*
X183029100Y-69087800D01*
X181121000Y-68506800D02*
X181702000Y-69087800D01*
%TO.N,/ESP32/GPIO_01_U0TXD*%
X183029000Y-66547800D02*
X183029100Y-66547800D01*
X183029000Y-66547800D02*
X181702000Y-66547800D01*
X181702000Y-64829300D02*
X180139000Y-63266000D01*
X181702000Y-66547800D02*
X181702000Y-64829300D01*
X180139000Y-63266000D02*
X179062000Y-63266000D01*
%TO.N,/ESP32/GPIO_23*%
X180960000Y-60726000D02*
X179062000Y-60726000D01*
X181702000Y-61467800D02*
X180960000Y-60726000D01*
X183029000Y-61467800D02*
X183029100Y-61467800D01*
X183029000Y-61467800D02*
X181702000Y-61467800D01*
D73*
%TO.N,GND3*%
X92252800Y-62611000D02*
X90297000Y-62611000D01*
D74*
X95809500Y-81215500D02*
X95809500Y-84784500D01*
X84074000Y-84328000D02*
X85598000Y-84328000D01*
D75*
X55118000Y-70993000D02*
X55277100Y-70833900D01*
D73*
X92252800Y-62611000D02*
X92252800Y-63881000D01*
X92252800Y-63881000D02*
X90297000Y-63881000D01*
D74*
X93726000Y-85344000D02*
X93726000Y-83820000D01*
D77*
X55118000Y-70993000D02*
X55118000Y-71628000D01*
D73*
X90297000Y-62611000D02*
X90170000Y-62738000D01*
X92252800Y-70231000D02*
X93853000Y-70231000D01*
D75*
X55277100Y-70358000D02*
X56104000Y-70358000D01*
D77*
X55118000Y-69088000D02*
X55118000Y-70358000D01*
D74*
X85598000Y-72390000D02*
X85598000Y-73406000D01*
X95809500Y-84784500D02*
X95250000Y-85344000D01*
D73*
X76200000Y-64262000D02*
X75184000Y-64262000D01*
X93853000Y-70231000D02*
X93980000Y-70358000D01*
D74*
X85598000Y-84328000D02*
X87122000Y-84328000D01*
D75*
X55277100Y-70833900D02*
X55277100Y-70358000D01*
D77*
X55118000Y-70358000D02*
X55118000Y-70993000D01*
D74*
X93726000Y-83820000D02*
X95250000Y-83820000D01*
X78740000Y-77232000D02*
X78756000Y-77216000D01*
X76708000Y-80772000D02*
X77802500Y-80772000D01*
X95250000Y-85344000D02*
X93726000Y-85344000D01*
D73*
X90297000Y-63881000D02*
X90170000Y-63754000D01*
D74*
X78740000Y-78486000D02*
X78740000Y-77232000D01*
%TO.N,Net-(JP3-A)*%
X61521800Y-97981500D02*
X61521800Y-96720200D01*
D75*
X61521800Y-97981500D02*
X61521700Y-97981600D01*
D74*
X61521800Y-96720200D02*
X62992000Y-95250000D01*
X67289500Y-97475000D02*
X67289500Y-95270500D01*
D75*
X61521700Y-97981600D02*
X61521700Y-99242800D01*
D74*
X61521800Y-99242800D02*
X61521800Y-97981500D01*
X67310000Y-95250000D02*
X69058000Y-95250000D01*
X67289500Y-95270500D02*
X67310000Y-95250000D01*
X62992000Y-95250000D02*
X67310000Y-95250000D01*
X69058000Y-95250000D02*
X70328000Y-93980000D01*
D75*
%TO.N,Net-(U3-CANH)*%
X72898000Y-98110000D02*
X79248000Y-98110000D01*
X67958200Y-98792800D02*
X68641000Y-98110000D01*
X66915800Y-98792800D02*
X67958200Y-98792800D01*
X63754000Y-97475000D02*
X65598000Y-97475000D01*
X79248000Y-98110000D02*
X81214000Y-98110000D01*
X83312000Y-96012000D02*
X91948000Y-96012000D01*
X65598000Y-97475000D02*
X66915800Y-98792800D01*
X81214000Y-98110000D02*
X83312000Y-96012000D01*
X79264000Y-95758000D02*
X79264000Y-98094000D01*
X79264000Y-98094000D02*
X79248000Y-98110000D01*
X68641000Y-98110000D02*
X72898000Y-98110000D01*
D73*
%TO.N,Net-(JP6-C)*%
X103251000Y-67691000D02*
X101295200Y-67691000D01*
X101295200Y-67691000D02*
X101295000Y-67691000D01*
X112776000Y-68610000D02*
X104170000Y-68610000D01*
X104170000Y-68610000D02*
X103251000Y-67691000D01*
%TO.N,NMEA0183_Enable*%
X103886000Y-66802000D02*
X103505000Y-66421000D01*
X103505000Y-66421000D02*
X101295200Y-66421000D01*
X101295200Y-66421000D02*
X101295000Y-66421000D01*
X106904000Y-66802000D02*
X103886000Y-66802000D01*
D74*
%TO.N,+5VA*%
X88806000Y-78834000D02*
X85598000Y-78834000D01*
X93269500Y-81215500D02*
X90794000Y-78740000D01*
X88900000Y-78740000D02*
X88806000Y-78834000D01*
X85598000Y-75481000D02*
X85598000Y-78572000D01*
X90794000Y-78740000D02*
X88900000Y-78740000D01*
D73*
X83948500Y-80483500D02*
X85598000Y-78834000D01*
X79724000Y-83820000D02*
X80612000Y-83820000D01*
D74*
X90794000Y-72959800D02*
X92252800Y-71501000D01*
D73*
X80612000Y-83820000D02*
X83948500Y-80483500D01*
D74*
X90794000Y-78740000D02*
X90794000Y-72959800D01*
D77*
%TO.N,Net-(JP2-B)*%
X86891000Y-117983000D02*
X86764000Y-118110000D01*
X87018000Y-117856000D02*
X86891000Y-117983000D01*
X92456000Y-117856000D02*
X87018000Y-117856000D01*
D75*
X86891000Y-117983000D02*
X86741000Y-117983000D01*
X86741000Y-117983000D02*
X86614000Y-118110000D01*
D73*
%TO.N,Net-(U5-A)*%
X88900000Y-70358000D02*
X90297000Y-68961000D01*
X90297000Y-68961000D02*
X92252800Y-68961000D01*
%TO.N,TX_NMEA0183_RX*%
X101295200Y-68961000D02*
X101295000Y-68961000D01*
X105794000Y-69501600D02*
X103792000Y-69501600D01*
X106904000Y-70612000D02*
X105794000Y-69501600D01*
X103251000Y-68961000D02*
X101295200Y-68961000D01*
X103792000Y-69501600D02*
X103251000Y-68961000D01*
%TO.N,RX_NMEA0183_TX*%
X104521000Y-65151000D02*
X105664000Y-64008000D01*
X105664000Y-64008000D02*
X106904000Y-64008000D01*
X101295000Y-65151000D02*
X101295200Y-65151000D01*
X101295200Y-65151000D02*
X104521000Y-65151000D01*
D75*
%TO.N,/ESP32/GPIO_16*%
X183029000Y-86867800D02*
X181702000Y-86867800D01*
X183029000Y-86867800D02*
X183029100Y-86867800D01*
X109109000Y-70690300D02*
X109031000Y-70612000D01*
X109031000Y-70612000D02*
X108204000Y-70612000D01*
X109306000Y-70690300D02*
X109109000Y-70690300D01*
X181702000Y-86867800D02*
X180592000Y-85757900D01*
X180139000Y-73426000D02*
X179062000Y-73426000D01*
X180592000Y-85757900D02*
X180592000Y-73879400D01*
X180592000Y-73879400D02*
X180139000Y-73426000D01*
%TO.N,/ESP32/GPIO_17*%
X109337000Y-63790700D02*
X109248000Y-63790700D01*
X109248000Y-63790700D02*
X109031000Y-64008000D01*
X177965000Y-72136000D02*
X177985000Y-72156000D01*
X175768000Y-72136000D02*
X177965000Y-72136000D01*
X109031000Y-64008000D02*
X108204000Y-64008000D01*
X177985000Y-72156000D02*
X179062000Y-72156000D01*
%TO.N,/ESP32/GPIO_21*%
X181702000Y-70988700D02*
X181702000Y-71627800D01*
X183029000Y-71627800D02*
X183029100Y-71627800D01*
D73*
X189281000Y-87361000D02*
X189306000Y-87386400D01*
D75*
X189306000Y-87386300D02*
X189306000Y-87386400D01*
X189281000Y-87361000D02*
X189306000Y-87386300D01*
X180139000Y-65806000D02*
X180139000Y-69425400D01*
X180139000Y-69425400D02*
X181702000Y-70988700D01*
X185986000Y-80450396D02*
X185986000Y-71627800D01*
X187198000Y-81662396D02*
X185986000Y-80450396D01*
D73*
X189255000Y-85322400D02*
X189255000Y-87335600D01*
D75*
X189255400Y-85322400D02*
X189255000Y-85322400D01*
X189306000Y-87386300D02*
X189306100Y-87386300D01*
X188954400Y-85322400D02*
X187198000Y-83566000D01*
X187198000Y-83566000D02*
X187198000Y-81662396D01*
X189255000Y-85322400D02*
X188954400Y-85322400D01*
X181702000Y-71627800D02*
X183029000Y-71627800D01*
X189306100Y-87386300D02*
X189306200Y-87386400D01*
X179062000Y-65806000D02*
X180139000Y-65806000D01*
X185986000Y-71627800D02*
X183029100Y-71627800D01*
D73*
X189255000Y-87335600D02*
X189281000Y-87361000D01*
D75*
%TO.N,/ESP32/GPIO_22*%
X183029000Y-64007800D02*
X183029100Y-64007800D01*
X186436000Y-67414700D02*
X186436000Y-80264000D01*
D73*
X191897000Y-85322400D02*
X191897000Y-86870400D01*
D75*
X187648000Y-83328174D02*
X188717226Y-84397400D01*
X187648000Y-81476000D02*
X187648000Y-83328174D01*
D73*
X191897000Y-86870400D02*
X191897000Y-86870800D01*
D75*
X191897000Y-86870800D02*
X191897000Y-87386400D01*
X190972000Y-84397400D02*
X191897000Y-85322400D01*
X179062000Y-61996000D02*
X180139000Y-61996000D01*
X191897000Y-86870400D02*
X191897000Y-86870800D01*
D73*
X191897000Y-86870800D02*
X191897000Y-87386400D01*
D75*
X180139000Y-62444500D02*
X181702000Y-64007800D01*
X188717226Y-84397400D02*
X190972000Y-84397400D01*
X186436000Y-80264000D02*
X187648000Y-81476000D01*
X183029100Y-64007800D02*
X186436000Y-67414700D01*
X180139000Y-61996000D02*
X180139000Y-62444500D01*
X181702000Y-64007800D02*
X183029000Y-64007800D01*
%TO.N,/ESP32/GPIO_05*%
X181702000Y-81787800D02*
X181181000Y-81266600D01*
X181181000Y-72581800D02*
X179485000Y-70886000D01*
X183029000Y-81787800D02*
X183029100Y-81787800D01*
D73*
X107188000Y-93472000D02*
X106172000Y-93472000D01*
D75*
X183029000Y-81787800D02*
X181702000Y-81787800D01*
X181181000Y-81266600D02*
X181181000Y-72581800D01*
X179485000Y-70886000D02*
X179062000Y-70886000D01*
%TO.N,/ESP32/GPIO_04*%
X180139000Y-87844500D02*
X181702000Y-89407800D01*
D73*
X107188000Y-96012000D02*
X106172000Y-96012000D01*
D75*
X180139000Y-84328000D02*
X180139000Y-87844500D01*
X181702000Y-89407800D02*
X183029000Y-89407800D01*
X179062000Y-74696000D02*
X180139000Y-74696000D01*
X183029000Y-89407800D02*
X183029100Y-89407800D01*
X180139000Y-74696000D02*
X180139000Y-84328000D01*
X180139000Y-84328000D02*
X179324000Y-84328000D01*
D73*
%TO.N,Net-(U5-B)*%
X90297000Y-67691000D02*
X92252800Y-67691000D01*
X89916000Y-68072000D02*
X90297000Y-67691000D01*
X88868000Y-68072000D02*
X89916000Y-68072000D01*
%TO.N,Net-(U5-Z)*%
X86360000Y-65786000D02*
X79248000Y-65786000D01*
X86995000Y-66421000D02*
X86360000Y-65786000D01*
X92252800Y-66421000D02*
X86995000Y-66421000D01*
%TO.N,Net-(U5-Y)*%
X87249000Y-65151000D02*
X85344000Y-63246000D01*
X85344000Y-63246000D02*
X79248000Y-63246000D01*
X92252800Y-65151000D02*
X87249000Y-65151000D01*
D78*
%TO.N,Net-(J6-Pin_1)*%
X66040000Y-134620000D02*
X64516000Y-134620000D01*
X72136000Y-140716000D02*
X66040000Y-134620000D01*
X74676000Y-140716000D02*
X72136000Y-140716000D01*
D74*
%TO.N,GNDPWR*%
X88392000Y-139700000D02*
X88392000Y-139743000D01*
X88392000Y-141732000D02*
X89996000Y-143336000D01*
X89996000Y-143336000D02*
X94568000Y-143336000D01*
X88392000Y-139743000D02*
X88392000Y-141732000D01*
D78*
%TO.N,Net-(D12-A)*%
X77724000Y-133604000D02*
X71628000Y-133604000D01*
X82676000Y-140716000D02*
X82676000Y-138556000D01*
X82676000Y-138556000D02*
X77724000Y-133604000D01*
%TO.N,Net-(D12-K)*%
X92536000Y-133604000D02*
X86868000Y-133604000D01*
D74*
X88392000Y-137625000D02*
X88392000Y-133604000D01*
D75*
X88392000Y-137625000D02*
X88392000Y-137668000D01*
D78*
X92536000Y-133604000D02*
X94568000Y-135636000D01*
%TO.N,+12V*%
X115951000Y-120777000D02*
X128143000Y-132969000D01*
X115189000Y-120777000D02*
X115951000Y-120777000D01*
X113284000Y-106680000D02*
X114494610Y-106680000D01*
X134366000Y-139446000D02*
X137668000Y-142748000D01*
X143764000Y-142748000D02*
X144691400Y-141820600D01*
X117348000Y-118618000D02*
X115189000Y-120777000D01*
X114494610Y-106680000D02*
X117348000Y-109533390D01*
X128143000Y-132969000D02*
X134366000Y-139192000D01*
X128016000Y-133096000D02*
X125730000Y-133096000D01*
X115189000Y-120777000D02*
X113347500Y-120777000D01*
X137668000Y-142748000D02*
X143764000Y-142748000D01*
X144691400Y-141820600D02*
X144691400Y-139491000D01*
X134366000Y-139192000D02*
X134366000Y-139446000D01*
X128143000Y-132969000D02*
X128016000Y-133096000D01*
X117348000Y-109533390D02*
X117348000Y-118618000D01*
D75*
%TO.N,Net-(JP19-A)*%
X94234000Y-94488000D02*
X93218000Y-93472000D01*
X72898000Y-100010000D02*
X74348000Y-98560000D01*
X69007500Y-99242800D02*
X65521700Y-99242800D01*
X94234000Y-97028000D02*
X94234000Y-94488000D01*
X86390000Y-93472000D02*
X91948000Y-93472000D01*
X81400396Y-98560000D02*
X82932396Y-97028000D01*
X72898000Y-100010000D02*
X69774700Y-100010000D01*
X93218000Y-93472000D02*
X91948000Y-93472000D01*
X85902800Y-93959200D02*
X85902800Y-94056200D01*
X85882000Y-93980000D02*
X85902800Y-93959200D01*
X74348000Y-98560000D02*
X81400396Y-98560000D01*
X69774700Y-100010000D02*
X69007500Y-99242800D01*
X85902800Y-93959200D02*
X86390000Y-93472000D01*
X82932396Y-97028000D02*
X94234000Y-97028000D01*
D73*
%TO.N,Net-(JP18-A)*%
X74676000Y-78008000D02*
X74676000Y-80026000D01*
D75*
%TO.N,Net-(JP19-B)*%
X84201000Y-94361000D02*
X84582000Y-93980000D01*
X83820000Y-94742000D02*
X84201000Y-94361000D01*
X81788000Y-95758000D02*
X82804000Y-94742000D01*
X84201000Y-94361000D02*
X84298000Y-94361000D01*
X82804000Y-94742000D02*
X83820000Y-94742000D01*
X84298000Y-94361000D02*
X84602800Y-94056200D01*
X81264000Y-95758000D02*
X81788000Y-95758000D01*
D73*
%TO.N,/Isolated/NMEA OUT+*%
X77724000Y-83820000D02*
X77724000Y-83675500D01*
X79677500Y-81612500D02*
X83820000Y-77470000D01*
X65024000Y-81788000D02*
X74438000Y-81788000D01*
X74676000Y-82026000D02*
X74676000Y-82804000D01*
X74676000Y-82804000D02*
X75692000Y-83820000D01*
X79677500Y-81722000D02*
X79677500Y-81612500D01*
X77724000Y-83675500D02*
X79677500Y-81722000D01*
X85090000Y-70358000D02*
X86900000Y-70358000D01*
X83820000Y-77470000D02*
X83820000Y-71628000D01*
X74438000Y-81788000D02*
X74676000Y-82026000D01*
X75692000Y-83820000D02*
X77724000Y-83820000D01*
X83820000Y-71628000D02*
X85090000Y-70358000D01*
%TO.N,/Isolated/NMEA OUT-*%
X76200000Y-76708000D02*
X74676000Y-76708000D01*
X79677500Y-79822000D02*
X77536000Y-79822000D01*
X82804000Y-76962000D02*
X82550000Y-77216000D01*
X85090000Y-68072000D02*
X82804000Y-70358000D01*
X77470000Y-77978000D02*
X76200000Y-76708000D01*
X82804000Y-70358000D02*
X82804000Y-76962000D01*
X74676000Y-76708000D02*
X74596000Y-76788000D01*
X77470000Y-79756000D02*
X77470000Y-77978000D01*
X74596000Y-76788000D02*
X65024000Y-76788000D01*
X80756000Y-78743500D02*
X79677500Y-79822000D01*
X82550000Y-77216000D02*
X80756000Y-77216000D01*
X80756000Y-77216000D02*
X80756000Y-78743500D01*
X77536000Y-79822000D02*
X77470000Y-79756000D01*
X86868000Y-68072000D02*
X85090000Y-68072000D01*
%TO.N,/Isolated/NMEA IN+*%
X65034000Y-66763000D02*
X67095000Y-66763000D01*
X68646000Y-65212000D02*
X73309000Y-65212000D01*
X77248000Y-65786000D02*
X73883000Y-65786000D01*
X73883000Y-65786000D02*
X73309000Y-65212000D01*
X67095000Y-66763000D02*
X68646000Y-65212000D01*
%TO.N,/Isolated/NMEA IN-*%
X67097000Y-61763000D02*
X68646000Y-63312000D01*
X77248000Y-63246000D02*
X73375000Y-63246000D01*
X73375000Y-63246000D02*
X73309000Y-63312000D01*
X68646000Y-63312000D02*
X73309000Y-63312000D01*
X77182000Y-63312000D02*
X77248000Y-63246000D01*
X65034000Y-61763000D02*
X67097000Y-61763000D01*
D77*
%TO.N,Net-(J9-Pin_4)*%
X77470000Y-116484000D02*
X77470000Y-118262000D01*
D75*
X83788000Y-118186000D02*
X83938000Y-118186000D01*
D77*
X71882100Y-105613000D02*
X71882200Y-105613000D01*
X77444600Y-116459000D02*
X77470000Y-116484000D01*
X71882000Y-105613000D02*
X71882100Y-105613000D01*
X77470000Y-124562000D02*
X77470000Y-118262000D01*
X74549000Y-105613000D02*
X77444600Y-108509000D01*
D75*
X71882100Y-105613000D02*
X71882000Y-105613100D01*
X83938000Y-118186000D02*
X84014000Y-118110000D01*
D77*
X71882200Y-105613000D02*
X74549000Y-105613000D01*
X77470000Y-118262000D02*
X83712000Y-118262000D01*
X83712000Y-118262000D02*
X83788000Y-118186000D01*
D75*
X71882100Y-105613000D02*
X71882000Y-105613000D01*
X71882000Y-105613100D02*
X71882000Y-105613200D01*
D77*
X77444600Y-108509000D02*
X77444600Y-116459000D01*
D75*
X71882200Y-105613000D02*
X71882100Y-105613000D01*
D77*
X83788000Y-118186000D02*
X83864000Y-118110000D01*
D78*
%TO.N,+5VP*%
X152435250Y-127062732D02*
X149289268Y-127062732D01*
X164719000Y-135128000D02*
X168148000Y-138557000D01*
X139611400Y-138645656D02*
X143129056Y-135128000D01*
X139611400Y-139491000D02*
X139611400Y-138645656D01*
D77*
X157513000Y-132480500D02*
X157513000Y-134145000D01*
D75*
X157988000Y-134620000D02*
X157513000Y-134145000D01*
D78*
X143129056Y-135128000D02*
X164719000Y-135128000D01*
X143129056Y-133222944D02*
X143129056Y-135128000D01*
X149289268Y-127062732D02*
X143129056Y-133222944D01*
D74*
%TO.N,Net-(D3-A)*%
X109651800Y-147300600D02*
X109099000Y-147853400D01*
X109651800Y-144849600D02*
X109651800Y-147300600D01*
D75*
X109474000Y-147853000D02*
X109474000Y-147853400D01*
D74*
%TO.N,Net-(D4-A)*%
X121920000Y-74509500D02*
X121920000Y-72338000D01*
D73*
%TO.N,Net-(D5-A)*%
X191008000Y-74168000D02*
X189992000Y-75184000D01*
X191008000Y-73152000D02*
X191008000Y-74168000D01*
%TO.N,I2C_SCL*%
X148336000Y-81148000D02*
X148352000Y-81132000D01*
X148336000Y-90424000D02*
X148336000Y-81148000D01*
D75*
X200440000Y-143280000D02*
X201940000Y-144780000D01*
D73*
X191897000Y-89123400D02*
X191897000Y-89560400D01*
D75*
X189692000Y-136352000D02*
X196620000Y-143280000D01*
X198521500Y-140120000D02*
X198521600Y-140119900D01*
X189405000Y-136352000D02*
X189692000Y-136352000D01*
X197499000Y-140120000D02*
X192354000Y-134976000D01*
X198522000Y-140120000D02*
X198521500Y-140120000D01*
X191897000Y-89123400D02*
X191897000Y-89123000D01*
X198521500Y-140120000D02*
X197499000Y-140120000D01*
X196620000Y-143280000D02*
X200440000Y-143280000D01*
X191897000Y-89123000D02*
X191897000Y-88686400D01*
D73*
X191897000Y-88686400D02*
X191897000Y-89123000D01*
X191897000Y-89123000D02*
X191897000Y-89123400D01*
D75*
X192354000Y-134976000D02*
X190781000Y-134976000D01*
X190781000Y-134976000D02*
X189405000Y-136352000D01*
D73*
%TO.N,A2D_12V*%
X148463000Y-71755000D02*
X148314500Y-71606500D01*
D74*
X132080000Y-132588200D02*
X132080000Y-131064000D01*
X131046300Y-132588200D02*
X131039000Y-132588200D01*
D73*
X143899000Y-71606500D02*
X146431000Y-71606500D01*
D74*
X131033500Y-132588200D02*
X131032600Y-132588200D01*
D75*
X133239000Y-132588000D02*
X133239000Y-132588200D01*
X131039000Y-132588200D02*
X131035300Y-132588200D01*
D74*
X131035300Y-132588200D02*
X131033500Y-132588200D01*
X131039000Y-132588200D02*
X131035300Y-132588200D01*
D75*
X131032100Y-132588200D02*
X131031600Y-132588200D01*
D74*
X132080000Y-132588200D02*
X131266600Y-132588200D01*
D73*
X143842000Y-71549500D02*
X143899000Y-71606500D01*
D75*
X131149100Y-132588200D02*
X131090400Y-132588200D01*
D74*
X131032100Y-132588200D02*
X131031600Y-132588200D01*
D73*
X149068000Y-71755000D02*
X148463000Y-71755000D01*
D75*
X131032100Y-132588200D02*
X131032100Y-132588100D01*
D74*
X131090400Y-132588200D02*
X131061000Y-132588200D01*
X133238600Y-132588200D02*
X132080000Y-132588200D01*
D75*
X131061000Y-132588200D02*
X131046300Y-132588200D01*
D74*
X131032600Y-132588200D02*
X131032100Y-132588200D01*
D75*
X131046300Y-132588200D02*
X131039000Y-132588200D01*
X131035300Y-132588200D02*
X131033500Y-132588200D01*
D74*
X131266600Y-132588200D02*
X131149100Y-132588200D01*
D75*
X131032100Y-132588100D02*
X131032000Y-132588000D01*
D74*
X131149100Y-132588200D02*
X131090400Y-132588200D01*
D75*
X131032600Y-132588200D02*
X131032100Y-132588200D01*
X133239000Y-132588200D02*
X133238600Y-132588200D01*
D74*
X131061000Y-132588200D02*
X131046300Y-132588200D01*
D75*
X131090400Y-132588200D02*
X131061000Y-132588200D01*
X131266600Y-132588200D02*
X131149100Y-132588200D01*
X131033500Y-132588200D02*
X131032600Y-132588200D01*
D73*
X148314500Y-71606500D02*
X146431000Y-71606500D01*
X141478000Y-71549500D02*
X143842000Y-71549500D01*
%TO.N,Net-(JP20-B)*%
X194941000Y-91012400D02*
X194941000Y-90986600D01*
X194941000Y-90986600D02*
X194941000Y-90935000D01*
D75*
X194941000Y-90625100D02*
X194941000Y-90625400D01*
D73*
X194941000Y-90625100D02*
X194941000Y-89053100D01*
X194941000Y-91038200D02*
X194941000Y-91037700D01*
X194941000Y-90935000D02*
X194941000Y-90831800D01*
X194941000Y-91036500D02*
X194941000Y-91034900D01*
D75*
X194941000Y-91025300D02*
X194941000Y-91031700D01*
X194941000Y-91012400D02*
X194941000Y-91025300D01*
X194941100Y-91037800D02*
X194941100Y-91038200D01*
D73*
X194941000Y-91025300D02*
X194941000Y-91012400D01*
D75*
X194941000Y-91037700D02*
X194941000Y-91038200D01*
D73*
X194941000Y-91034900D02*
X194941000Y-91031700D01*
X194941000Y-91037700D02*
X194941000Y-91037300D01*
D75*
X194941000Y-90831800D02*
X194941000Y-90935000D01*
D73*
X194941000Y-90831800D02*
X194941000Y-90625400D01*
D75*
X194941000Y-91034900D02*
X194941000Y-91036500D01*
X194941000Y-90935000D02*
X194941000Y-90986600D01*
X194941000Y-91036500D02*
X194941000Y-91037300D01*
D73*
X194941000Y-89053100D02*
X194564000Y-88676000D01*
X194941000Y-90625400D02*
X194941000Y-90625100D01*
D75*
X194941000Y-90986600D02*
X194941000Y-91012400D01*
D73*
X194941000Y-91037300D02*
X194941000Y-91036500D01*
D75*
X194941000Y-90625400D02*
X194941000Y-90831800D01*
X194941000Y-91031700D02*
X194941000Y-91034900D01*
X194941000Y-91037700D02*
X194941100Y-91037800D01*
D73*
X194941000Y-91031700D02*
X194941000Y-91025300D01*
D75*
X194941000Y-91037300D02*
X194941000Y-91037700D01*
%TO.N,/Display/DWIN TX*%
X188278500Y-112455000D02*
X188279000Y-112455000D01*
X185272400Y-112470600D02*
X185272400Y-112471200D01*
D73*
X199948800Y-111680000D02*
X189054000Y-111680000D01*
D75*
X188278600Y-112455100D02*
X188278600Y-112455200D01*
D74*
X188278000Y-112455000D02*
X185288000Y-112455000D01*
X185288000Y-112455000D02*
X185272400Y-112470600D01*
X188279000Y-112455000D02*
X188278500Y-112455000D01*
X185272400Y-112470600D02*
X185272000Y-112471000D01*
X188278500Y-112455000D02*
X188278000Y-112455000D01*
D75*
X188278000Y-112455000D02*
X188278500Y-112455000D01*
X188278500Y-112455000D02*
X188278600Y-112455100D01*
D73*
X189054000Y-111680000D02*
X188279000Y-112455000D01*
X199949000Y-111680000D02*
X199948800Y-111680000D01*
%TO.N,/Display/DWIN RX*%
X199949000Y-110680000D02*
X199948800Y-110680000D01*
D74*
X185288000Y-110455000D02*
X185272400Y-110439400D01*
X185272400Y-110439400D02*
X185272000Y-110439000D01*
D75*
X188278600Y-110455000D02*
X188279000Y-110455000D01*
X188278000Y-110455000D02*
X188278600Y-110455000D01*
X188278600Y-110455200D02*
X188278600Y-110455000D01*
D73*
X188503000Y-110680000D02*
X188279000Y-110455000D01*
D74*
X188279000Y-110455000D02*
X188278600Y-110455000D01*
D73*
X199948800Y-110680000D02*
X188503000Y-110680000D01*
D75*
X185272400Y-110439400D02*
X185272400Y-110439200D01*
D74*
X188278600Y-110455000D02*
X188278000Y-110455000D01*
X188278000Y-110455000D02*
X185288000Y-110455000D01*
D73*
%TO.N,Net-(J18-Pin_1)*%
X196596000Y-53848000D02*
X195326000Y-53848000D01*
X193182000Y-55992000D02*
X192024000Y-55992000D01*
X195326000Y-53848000D02*
X193182000Y-55992000D01*
D74*
%TO.N,/PowerSuply/12V_FL*%
X109652000Y-134543600D02*
X109652000Y-142849400D01*
X109982000Y-134213600D02*
X109652000Y-134543600D01*
D75*
X107723500Y-133500500D02*
X107723300Y-133500500D01*
D78*
X119208000Y-133746000D02*
X119208000Y-133096000D01*
X99568000Y-135636000D02*
X105587800Y-135636000D01*
X107010200Y-134213600D02*
X107010200Y-134213800D01*
X107010200Y-134213600D02*
X113893600Y-134213600D01*
X105587800Y-135636000D02*
X107010200Y-134213600D01*
X107010200Y-134213800D02*
X107010000Y-134214000D01*
X119208000Y-133096000D02*
X119208000Y-139364000D01*
X113893600Y-134213600D02*
X118740400Y-134213600D01*
D74*
X109652000Y-142849400D02*
X109651800Y-142849600D01*
D78*
X119208000Y-139364000D02*
X119126000Y-139446000D01*
X118740400Y-134213600D02*
X119208000Y-133746000D01*
%TO.N,Net-(J20-Pin_1)*%
X58420000Y-65532000D02*
X58420000Y-71120000D01*
X58420000Y-59944000D02*
X58420000Y-65532000D01*
D75*
X58420000Y-65532000D02*
X57404000Y-66548000D01*
D78*
X64864000Y-71628000D02*
X65024000Y-71788000D01*
X58420000Y-71120000D02*
X58928000Y-71628000D01*
X58928000Y-71628000D02*
X64864000Y-71628000D01*
X61601000Y-56763000D02*
X58420000Y-59944000D01*
X65034000Y-56763000D02*
X61601000Y-56763000D01*
D75*
X57404000Y-66548000D02*
X57404000Y-70358000D01*
D74*
%TO.N,Net-(BZ1-+)*%
X148336000Y-108956000D02*
X148336000Y-113284000D01*
D73*
%TO.N,BUZZER*%
X156830000Y-114300000D02*
X154924000Y-114300000D01*
%TO.N,Net-(Q1-B)*%
X152040000Y-115184000D02*
X148336000Y-115184000D01*
X152924000Y-114300000D02*
X152040000Y-115184000D01*
D78*
%TO.N,Net-(J5-Pin_4)*%
X123190000Y-136398000D02*
X122428000Y-135636000D01*
X129286000Y-139446000D02*
X126238000Y-136398000D01*
X122428000Y-135636000D02*
X122428000Y-132842000D01*
X126238000Y-136398000D02*
X123190000Y-136398000D01*
%TD*%
M02*
