%TF.GenerationSoftware,KiCad,Pcbnew,7.0.8*%
%TF.CreationDate,2023-11-15T18:30:51+02:00*%
%TF.ProjectId,CAN_DISPLAY,43414e5f-4449-4535-904c-41592e6b6963,rev?*%
%TF.SameCoordinates,Original*%
%TF.FileFunction,Paste,Top*%
%TF.FilePolarity,Positive*%
%FSLAX46Y46*%
G04 Gerber Fmt 4.6, Leading zero omitted, Abs format (unit mm)*
G04 Created by KiCad (PCBNEW 7.0.8) date 2023-11-15 18:30:51*
%MOMM*%
%LPD*%
G01*
G04 APERTURE LIST*
G04 Aperture macros list*
%AMRoundRect*
0 Rectangle with rounded corners*
0 $1 Rounding radius*
0 $2 $3 $4 $5 $6 $7 $8 $9 X,Y pos of 4 corners*
0 Add a 4 corners polygon primitive as box body*
4,1,4,$2,$3,$4,$5,$6,$7,$8,$9,$2,$3,0*
0 Add four circle primitives for the rounded corners*
1,1,$1+$1,$2,$3*
1,1,$1+$1,$4,$5*
1,1,$1+$1,$6,$7*
1,1,$1+$1,$8,$9*
0 Add four rect primitives between the rounded corners*
20,1,$1+$1,$2,$3,$4,$5,0*
20,1,$1+$1,$4,$5,$6,$7,0*
20,1,$1+$1,$6,$7,$8,$9,0*
20,1,$1+$1,$8,$9,$2,$3,0*%
G04 Aperture macros list end*
%ADD10R,1.000000X0.400000*%
%ADD11R,1.300000X2.000000*%
%ADD12RoundRect,0.250000X-0.475000X0.337500X-0.475000X-0.337500X0.475000X-0.337500X0.475000X0.337500X0*%
%ADD13RoundRect,0.250000X0.350000X0.450000X-0.350000X0.450000X-0.350000X-0.450000X0.350000X-0.450000X0*%
%ADD14RoundRect,0.150000X0.587500X0.150000X-0.587500X0.150000X-0.587500X-0.150000X0.587500X-0.150000X0*%
%ADD15RoundRect,0.250000X-0.450000X0.325000X-0.450000X-0.325000X0.450000X-0.325000X0.450000X0.325000X0*%
%ADD16RoundRect,0.150000X-0.150000X0.587500X-0.150000X-0.587500X0.150000X-0.587500X0.150000X0.587500X0*%
%ADD17RoundRect,0.250000X-0.550000X1.250000X-0.550000X-1.250000X0.550000X-1.250000X0.550000X1.250000X0*%
%ADD18RoundRect,0.250000X-0.450000X0.350000X-0.450000X-0.350000X0.450000X-0.350000X0.450000X0.350000X0*%
%ADD19RoundRect,0.250000X-0.350000X-0.450000X0.350000X-0.450000X0.350000X0.450000X-0.350000X0.450000X0*%
%ADD20R,1.300000X1.550000*%
%ADD21RoundRect,0.250000X0.475000X-0.337500X0.475000X0.337500X-0.475000X0.337500X-0.475000X-0.337500X0*%
%ADD22RoundRect,0.250000X-0.337500X-0.475000X0.337500X-0.475000X0.337500X0.475000X-0.337500X0.475000X0*%
%ADD23R,1.500000X2.000000*%
%ADD24R,3.800000X2.000000*%
%ADD25R,1.500000X0.900000*%
%ADD26R,0.900000X1.500000*%
%ADD27R,0.900000X0.900000*%
%ADD28RoundRect,0.250001X-0.924999X0.499999X-0.924999X-0.499999X0.924999X-0.499999X0.924999X0.499999X0*%
%ADD29R,0.500000X0.350000*%
%ADD30RoundRect,0.250000X-0.550000X1.500000X-0.550000X-1.500000X0.550000X-1.500000X0.550000X1.500000X0*%
%ADD31RoundRect,0.150000X-0.587500X-0.150000X0.587500X-0.150000X0.587500X0.150000X-0.587500X0.150000X0*%
%ADD32RoundRect,0.250000X0.450000X-0.350000X0.450000X0.350000X-0.450000X0.350000X-0.450000X-0.350000X0*%
%ADD33RoundRect,0.175000X0.175000X-0.275000X0.175000X0.275000X-0.175000X0.275000X-0.175000X-0.275000X0*%
%ADD34RoundRect,0.250000X0.337500X0.475000X-0.337500X0.475000X-0.337500X-0.475000X0.337500X-0.475000X0*%
%ADD35R,2.311400X0.558800*%
%ADD36RoundRect,0.250000X0.450000X-0.325000X0.450000X0.325000X-0.450000X0.325000X-0.450000X-0.325000X0*%
%ADD37RoundRect,0.250000X-0.325000X-0.450000X0.325000X-0.450000X0.325000X0.450000X-0.325000X0.450000X0*%
%ADD38RoundRect,0.162500X1.012500X0.162500X-1.012500X0.162500X-1.012500X-0.162500X1.012500X-0.162500X0*%
%ADD39RoundRect,0.250000X1.250000X0.550000X-1.250000X0.550000X-1.250000X-0.550000X1.250000X-0.550000X0*%
G04 APERTURE END LIST*
D10*
%TO.C,J1*%
X199948800Y-115680000D03*
X199948800Y-114680000D03*
X199948800Y-113680000D03*
X199948800Y-112680000D03*
X199948800Y-111680000D03*
X199948800Y-110680000D03*
X199948800Y-109680000D03*
X199948800Y-108680000D03*
X199948800Y-107680000D03*
X199948800Y-106680000D03*
D11*
X202648800Y-118480000D03*
X202648800Y-103880000D03*
%TD*%
D12*
%TO.C,C26*%
X185039000Y-116945500D03*
X185039000Y-119020500D03*
%TD*%
D13*
%TO.C,R1*%
X88868000Y-68072000D03*
X86868000Y-68072000D03*
%TD*%
D14*
%TO.C,D8*%
X79677500Y-81722000D03*
X79677500Y-79822000D03*
X77802500Y-80772000D03*
%TD*%
D15*
%TO.C,D4*%
X121920000Y-69912500D03*
X121920000Y-71962500D03*
%TD*%
D16*
%TO.C,D9*%
X142428000Y-69674500D03*
X140528000Y-69674500D03*
X141478000Y-71549500D03*
%TD*%
D17*
%TO.C,C17*%
X143891000Y-61935000D03*
X143891000Y-66335000D03*
%TD*%
D18*
%TO.C,R7*%
X74676000Y-80026000D03*
X74676000Y-82026000D03*
%TD*%
D13*
%TO.C,R21*%
X131032000Y-132588000D03*
X129032000Y-132588000D03*
%TD*%
D17*
%TO.C,C6*%
X107213400Y-120558200D03*
X107213400Y-124958200D03*
%TD*%
D13*
%TO.C,R22*%
X135239000Y-132588000D03*
X133239000Y-132588000D03*
%TD*%
%TO.C,R11*%
X191008000Y-73152000D03*
X189008000Y-73152000D03*
%TD*%
D19*
%TO.C,R13*%
X183272400Y-112471200D03*
X185272400Y-112471200D03*
%TD*%
D20*
%TO.C,SW1*%
X169214500Y-122603000D03*
X169214500Y-114653000D03*
X173714500Y-122603000D03*
X173714500Y-114653000D03*
%TD*%
D21*
%TO.C,C32*%
X85598000Y-75481000D03*
X85598000Y-73406000D03*
%TD*%
D22*
%TO.C,C21*%
X171661000Y-124968000D03*
X173736000Y-124968000D03*
%TD*%
%TO.C,C22*%
X164570500Y-124813000D03*
X166645500Y-124813000D03*
%TD*%
D23*
%TO.C,U7*%
X130796000Y-67158000D03*
X133096000Y-67158000D03*
D24*
X133096000Y-60858000D03*
D23*
X135396000Y-67158000D03*
%TD*%
D19*
%TO.C,R6*%
X77724000Y-83820000D03*
X79724000Y-83820000D03*
%TD*%
D13*
%TO.C,R15*%
X185272400Y-110439200D03*
X183272400Y-110439200D03*
%TD*%
D21*
%TO.C,C19*%
X157513000Y-132480500D03*
X157513000Y-130405500D03*
%TD*%
D25*
%TO.C,U2*%
X161562000Y-59456000D03*
X161562000Y-60726000D03*
X161562000Y-61996000D03*
X161562000Y-63266000D03*
X161562000Y-64536000D03*
X161562000Y-65806000D03*
X161562000Y-67076000D03*
X161562000Y-68346000D03*
X161562000Y-69616000D03*
X161562000Y-70886000D03*
X161562000Y-72156000D03*
X161562000Y-73426000D03*
X161562000Y-74696000D03*
X161562000Y-75966000D03*
D26*
X164592000Y-77216000D03*
X165862000Y-77216000D03*
X167132000Y-77216000D03*
X168402000Y-77216000D03*
X169672000Y-77216000D03*
X170942000Y-77216000D03*
X172212000Y-77216000D03*
X173482000Y-77216000D03*
X174752000Y-77216000D03*
X176022000Y-77216000D03*
D25*
X179062000Y-75966000D03*
X179062000Y-74696000D03*
X179062000Y-73426000D03*
X179062000Y-72156000D03*
X179062000Y-70886000D03*
X179062000Y-69616000D03*
X179062000Y-68346000D03*
X179062000Y-67076000D03*
X179062000Y-65806000D03*
X179062000Y-64536000D03*
X179062000Y-63266000D03*
X179062000Y-61996000D03*
X179062000Y-60726000D03*
X179062000Y-59456000D03*
D27*
X167412000Y-65776000D03*
X167412000Y-65776000D03*
X167412000Y-67176000D03*
X167412000Y-68576000D03*
X167412000Y-68576000D03*
X168812000Y-65776000D03*
X168812000Y-67176000D03*
X168812000Y-68576000D03*
X168812000Y-68576000D03*
X170212000Y-65776000D03*
X170212000Y-67176000D03*
X170212000Y-68576000D03*
%TD*%
D23*
%TO.C,U4*%
X75170000Y-124562000D03*
X77470000Y-124562000D03*
D24*
X77470000Y-118262000D03*
D23*
X79770000Y-124562000D03*
%TD*%
D13*
%TO.C,R2*%
X88900000Y-70358000D03*
X86900000Y-70358000D03*
%TD*%
D28*
%TO.C,C28*%
X148539200Y-59081000D03*
X148539200Y-62331000D03*
%TD*%
D12*
%TO.C,C29*%
X151384000Y-59414500D03*
X151384000Y-61489500D03*
%TD*%
%TO.C,C13*%
X85344000Y-120650000D03*
X85344000Y-122725000D03*
%TD*%
%TO.C,C7*%
X88392000Y-137668000D03*
X88392000Y-139743000D03*
%TD*%
D29*
%TO.C,U6*%
X198521600Y-142069900D03*
X198521600Y-141419900D03*
X198521600Y-140769900D03*
X198521600Y-140119900D03*
X200571600Y-140119900D03*
X200571600Y-140769900D03*
X200571600Y-141419900D03*
X200571600Y-142069900D03*
%TD*%
D21*
%TO.C,C33*%
X104648000Y-78253500D03*
X104648000Y-76178500D03*
%TD*%
D30*
%TO.C,C11*%
X69342000Y-118204000D03*
X69342000Y-123604000D03*
%TD*%
D12*
%TO.C,C27*%
X153670000Y-59414500D03*
X153670000Y-61489500D03*
%TD*%
D31*
%TO.C,Q1*%
X148336000Y-113284000D03*
X148336000Y-115184000D03*
X150211000Y-114234000D03*
%TD*%
D32*
%TO.C,R23*%
X189255400Y-85322400D03*
X189255400Y-83322400D03*
%TD*%
D33*
%TO.C,LED1*%
X147402000Y-81132000D03*
X148352000Y-81132000D03*
X149352000Y-81132000D03*
X149352000Y-78232000D03*
X148352000Y-78232000D03*
X147402000Y-78232000D03*
%TD*%
D13*
%TO.C,R4*%
X79248000Y-63246000D03*
X77248000Y-63246000D03*
%TD*%
D32*
%TO.C,R24*%
X191897000Y-85322400D03*
X191897000Y-83322400D03*
%TD*%
D22*
%TO.C,C4*%
X173693000Y-132689600D03*
X175768000Y-132689600D03*
%TD*%
D34*
%TO.C,C30*%
X194941100Y-91038200D03*
X192866100Y-91038200D03*
%TD*%
%TO.C,C12*%
X68703100Y-114046000D03*
X66628100Y-114046000D03*
%TD*%
D20*
%TO.C,SW2*%
X162121800Y-122692000D03*
X162121800Y-114742000D03*
X166621800Y-122692000D03*
X166621800Y-114742000D03*
%TD*%
D17*
%TO.C,C16*%
X135483600Y-72374400D03*
X135483600Y-76774400D03*
%TD*%
D31*
%TO.C,D2*%
X73309000Y-63312000D03*
X73309000Y-65212000D03*
X75184000Y-64262000D03*
%TD*%
D19*
%TO.C,R5*%
X78756000Y-77216000D03*
X80756000Y-77216000D03*
%TD*%
D34*
%TO.C,C31*%
X153416000Y-87376000D03*
X151341000Y-87376000D03*
%TD*%
D35*
%TO.C,U5*%
X101295200Y-71501000D03*
X101295200Y-70231000D03*
X101295200Y-68961000D03*
X101295200Y-67691000D03*
X101295200Y-66421000D03*
X101295200Y-65151000D03*
X101295200Y-63881000D03*
X101295200Y-62611000D03*
X92252800Y-62611000D03*
X92252800Y-63881000D03*
X92252800Y-65151000D03*
X92252800Y-66421000D03*
X92252800Y-67691000D03*
X92252800Y-68961000D03*
X92252800Y-70231000D03*
X92252800Y-71501000D03*
%TD*%
D13*
%TO.C,R3*%
X79248000Y-65786000D03*
X77248000Y-65786000D03*
%TD*%
D34*
%TO.C,C15*%
X135679000Y-69596000D03*
X133604000Y-69596000D03*
%TD*%
D36*
%TO.C,D5*%
X189992000Y-77609000D03*
X189992000Y-75559000D03*
%TD*%
D21*
%TO.C,C14*%
X110236400Y-133647100D03*
X110236400Y-131572100D03*
%TD*%
D22*
%TO.C,C5*%
X198374000Y-134670800D03*
X200449000Y-134670800D03*
%TD*%
D32*
%TO.C,R9*%
X109651800Y-144849600D03*
X109651800Y-142849600D03*
%TD*%
D37*
%TO.C,D3*%
X107049000Y-147853400D03*
X109099000Y-147853400D03*
%TD*%
D18*
%TO.C,R10*%
X121920000Y-74509500D03*
X121920000Y-76509500D03*
%TD*%
D21*
%TO.C,C18*%
X138633200Y-60117900D03*
X138633200Y-58042900D03*
%TD*%
D17*
%TO.C,C9*%
X85598000Y-78572000D03*
X85598000Y-82972000D03*
%TD*%
D19*
%TO.C,R25*%
X152924000Y-114300000D03*
X154924000Y-114300000D03*
%TD*%
D21*
%TO.C,C24*%
X146812000Y-71628000D03*
X146812000Y-69553000D03*
%TD*%
D19*
%TO.C,R12*%
X167164000Y-127508000D03*
X169164000Y-127508000D03*
%TD*%
D13*
%TO.C,R8*%
X81264000Y-95758000D03*
X79264000Y-95758000D03*
%TD*%
D17*
%TO.C,C8*%
X107188000Y-79969000D03*
X107188000Y-84369000D03*
%TD*%
D28*
%TO.C,C25*%
X181356000Y-116866000D03*
X181356000Y-120116000D03*
%TD*%
D38*
%TO.C,U3*%
X100998000Y-98552000D03*
X100998000Y-96012000D03*
X100998000Y-93472000D03*
X100998000Y-90932000D03*
X91948000Y-90932000D03*
X91948000Y-93472000D03*
X91948000Y-96012000D03*
X91948000Y-98552000D03*
%TD*%
D22*
%TO.C,C3*%
X185377000Y-132748000D03*
X187452000Y-132748000D03*
%TD*%
D39*
%TO.C,C10*%
X87274400Y-100126800D03*
X82874400Y-100126800D03*
%TD*%
D14*
%TO.C,D7*%
X72898000Y-100010000D03*
X72898000Y-98110000D03*
X71023000Y-99060000D03*
%TD*%
D17*
%TO.C,C20*%
X152435250Y-127062732D03*
X152435250Y-131462732D03*
%TD*%
M02*
