%TF.GenerationSoftware,KiCad,Pcbnew,7.0.8*%
%TF.CreationDate,2023-11-15T18:30:51+02:00*%
%TF.ProjectId,CAN_DISPLAY,43414e5f-4449-4535-904c-41592e6b6963,rev?*%
%TF.SameCoordinates,Original*%
%TF.FileFunction,Soldermask,Top*%
%TF.FilePolarity,Negative*%
%FSLAX46Y46*%
G04 Gerber Fmt 4.6, Leading zero omitted, Abs format (unit mm)*
G04 Created by KiCad (PCBNEW 7.0.8) date 2023-11-15 18:30:51*
%MOMM*%
%LPD*%
G01*
G04 APERTURE LIST*
G04 Aperture macros list*
%AMRoundRect*
0 Rectangle with rounded corners*
0 $1 Rounding radius*
0 $2 $3 $4 $5 $6 $7 $8 $9 X,Y pos of 4 corners*
0 Add a 4 corners polygon primitive as box body*
4,1,4,$2,$3,$4,$5,$6,$7,$8,$9,$2,$3,0*
0 Add four circle primitives for the rounded corners*
1,1,$1+$1,$2,$3*
1,1,$1+$1,$4,$5*
1,1,$1+$1,$6,$7*
1,1,$1+$1,$8,$9*
0 Add four rect primitives between the rounded corners*
20,1,$1+$1,$2,$3,$4,$5,0*
20,1,$1+$1,$4,$5,$6,$7,0*
20,1,$1+$1,$6,$7,$8,$9,0*
20,1,$1+$1,$8,$9,$2,$3,0*%
%AMFreePoly0*
4,1,19,0.500000,-0.750000,0.000000,-0.750000,0.000000,-0.744911,-0.071157,-0.744911,-0.207708,-0.704816,-0.327430,-0.627875,-0.420627,-0.520320,-0.479746,-0.390866,-0.500000,-0.250000,-0.500000,0.250000,-0.479746,0.390866,-0.420627,0.520320,-0.327430,0.627875,-0.207708,0.704816,-0.071157,0.744911,0.000000,0.744911,0.000000,0.750000,0.500000,0.750000,0.500000,-0.750000,0.500000,-0.750000,
$1*%
%AMFreePoly1*
4,1,19,0.000000,0.744911,0.071157,0.744911,0.207708,0.704816,0.327430,0.627875,0.420627,0.520320,0.479746,0.390866,0.500000,0.250000,0.500000,-0.250000,0.479746,-0.390866,0.420627,-0.520320,0.327430,-0.627875,0.207708,-0.704816,0.071157,-0.744911,0.000000,-0.744911,0.000000,-0.750000,-0.500000,-0.750000,-0.500000,0.750000,0.000000,0.750000,0.000000,0.744911,0.000000,0.744911,
$1*%
G04 Aperture macros list end*
%ADD10R,1.000000X0.400000*%
%ADD11R,1.300000X2.000000*%
%ADD12RoundRect,0.250000X-0.475000X0.337500X-0.475000X-0.337500X0.475000X-0.337500X0.475000X0.337500X0*%
%ADD13R,1.000000X1.500000*%
%ADD14R,3.000000X3.000000*%
%ADD15C,3.000000*%
%ADD16R,1.700000X1.700000*%
%ADD17O,1.700000X1.700000*%
%ADD18RoundRect,0.250000X0.350000X0.450000X-0.350000X0.450000X-0.350000X-0.450000X0.350000X-0.450000X0*%
%ADD19RoundRect,0.250000X-0.350000X-0.625000X0.350000X-0.625000X0.350000X0.625000X-0.350000X0.625000X0*%
%ADD20O,1.200000X1.750000*%
%ADD21R,2.200000X2.200000*%
%ADD22O,2.200000X2.200000*%
%ADD23RoundRect,0.150000X0.587500X0.150000X-0.587500X0.150000X-0.587500X-0.150000X0.587500X-0.150000X0*%
%ADD24RoundRect,0.250000X-0.450000X0.325000X-0.450000X-0.325000X0.450000X-0.325000X0.450000X0.325000X0*%
%ADD25RoundRect,0.150000X-0.150000X0.587500X-0.150000X-0.587500X0.150000X-0.587500X0.150000X0.587500X0*%
%ADD26RoundRect,0.250000X-0.550000X1.250000X-0.550000X-1.250000X0.550000X-1.250000X0.550000X1.250000X0*%
%ADD27RoundRect,0.250000X-0.450000X0.350000X-0.450000X-0.350000X0.450000X-0.350000X0.450000X0.350000X0*%
%ADD28R,1.500000X1.000000*%
%ADD29RoundRect,0.250000X0.625000X-0.350000X0.625000X0.350000X-0.625000X0.350000X-0.625000X-0.350000X0*%
%ADD30O,1.750000X1.200000*%
%ADD31C,2.200000*%
%ADD32RoundRect,0.250000X-0.350000X-0.450000X0.350000X-0.450000X0.350000X0.450000X-0.350000X0.450000X0*%
%ADD33R,1.300000X1.550000*%
%ADD34RoundRect,0.250000X0.475000X-0.337500X0.475000X0.337500X-0.475000X0.337500X-0.475000X-0.337500X0*%
%ADD35FreePoly0,180.000000*%
%ADD36FreePoly1,180.000000*%
%ADD37RoundRect,0.250000X-0.337500X-0.475000X0.337500X-0.475000X0.337500X0.475000X-0.337500X0.475000X0*%
%ADD38R,1.500000X2.000000*%
%ADD39R,3.800000X2.000000*%
%ADD40R,1.750000X2.250000*%
%ADD41O,1.750000X2.250000*%
%ADD42C,2.794000*%
%ADD43C,1.701800*%
%ADD44C,1.803400*%
%ADD45R,1.500000X0.900000*%
%ADD46R,0.900000X1.500000*%
%ADD47R,0.900000X0.900000*%
%ADD48R,2.000000X2.000000*%
%ADD49C,2.000000*%
%ADD50FreePoly0,270.000000*%
%ADD51FreePoly1,270.000000*%
%ADD52RoundRect,0.250001X-0.924999X0.499999X-0.924999X-0.499999X0.924999X-0.499999X0.924999X0.499999X0*%
%ADD53R,0.500000X0.350000*%
%ADD54O,5.500000X3.800000*%
%ADD55O,5.300000X3.800000*%
%ADD56RoundRect,0.250000X-0.550000X1.500000X-0.550000X-1.500000X0.550000X-1.500000X0.550000X1.500000X0*%
%ADD57RoundRect,0.150000X-0.587500X-0.150000X0.587500X-0.150000X0.587500X0.150000X-0.587500X0.150000X0*%
%ADD58RoundRect,0.250000X0.450000X-0.350000X0.450000X0.350000X-0.450000X0.350000X-0.450000X-0.350000X0*%
%ADD59RoundRect,0.175000X0.175000X-0.275000X0.175000X0.275000X-0.175000X0.275000X-0.175000X-0.275000X0*%
%ADD60RoundRect,0.250000X0.337500X0.475000X-0.337500X0.475000X-0.337500X-0.475000X0.337500X-0.475000X0*%
%ADD61R,2.000000X1.200000*%
%ADD62O,2.000000X1.200000*%
%ADD63R,3.200000X3.200000*%
%ADD64O,3.200000X3.200000*%
%ADD65R,2.500000X2.500000*%
%ADD66R,2.311400X0.558800*%
%ADD67RoundRect,0.250000X0.450000X-0.325000X0.450000X0.325000X-0.450000X0.325000X-0.450000X-0.325000X0*%
%ADD68FreePoly0,90.000000*%
%ADD69FreePoly1,90.000000*%
%ADD70RoundRect,0.250000X-0.325000X-0.450000X0.325000X-0.450000X0.325000X0.450000X-0.325000X0.450000X0*%
%ADD71RoundRect,0.162500X1.012500X0.162500X-1.012500X0.162500X-1.012500X-0.162500X1.012500X-0.162500X0*%
%ADD72RoundRect,0.250000X1.250000X0.550000X-1.250000X0.550000X-1.250000X-0.550000X1.250000X-0.550000X0*%
%ADD73C,0.900000*%
G04 APERTURE END LIST*
D10*
%TO.C,J1*%
X199948800Y-115680000D03*
X199948800Y-114680000D03*
X199948800Y-113680000D03*
X199948800Y-112680000D03*
X199948800Y-111680000D03*
X199948800Y-110680000D03*
X199948800Y-109680000D03*
X199948800Y-108680000D03*
X199948800Y-107680000D03*
X199948800Y-106680000D03*
D11*
X202648800Y-118480000D03*
X202648800Y-103880000D03*
%TD*%
D12*
%TO.C,C26*%
X185039000Y-116945500D03*
X185039000Y-119020500D03*
%TD*%
D13*
%TO.C,JP15*%
X106172000Y-96012000D03*
X104872000Y-96012000D03*
%TD*%
D14*
%TO.C,J6*%
X64516000Y-134620000D03*
D15*
X64516000Y-139700000D03*
%TD*%
D16*
%TO.C,J16*%
X196860000Y-144780000D03*
D17*
X199400000Y-144780000D03*
X201940000Y-144780000D03*
X204480000Y-144780000D03*
%TD*%
D18*
%TO.C,R1*%
X88868000Y-68072000D03*
X86868000Y-68072000D03*
%TD*%
D19*
%TO.C,J3*%
X173769000Y-136352000D03*
D20*
X175769000Y-136352000D03*
X177769000Y-136352000D03*
X179769000Y-136352000D03*
%TD*%
D21*
%TO.C,D11*%
X57327800Y-121158000D03*
D22*
X57327800Y-110998000D03*
%TD*%
D23*
%TO.C,D8*%
X79677500Y-81722000D03*
X79677500Y-79822000D03*
X77802500Y-80772000D03*
%TD*%
D13*
%TO.C,JP4*%
X198357000Y-137210800D03*
X199657000Y-137210800D03*
X200957000Y-137210800D03*
%TD*%
D24*
%TO.C,D4*%
X121920000Y-69912500D03*
X121920000Y-71962500D03*
%TD*%
D25*
%TO.C,D9*%
X142428000Y-69674500D03*
X140528000Y-69674500D03*
X141478000Y-71549500D03*
%TD*%
D26*
%TO.C,C17*%
X143891000Y-61935000D03*
X143891000Y-66335000D03*
%TD*%
D27*
%TO.C,R7*%
X74676000Y-80026000D03*
X74676000Y-82026000D03*
%TD*%
D16*
%TO.C,J8*%
X113284000Y-109220000D03*
D17*
X113284000Y-106680000D03*
X113284000Y-104140000D03*
X113284000Y-101600000D03*
%TD*%
D18*
%TO.C,R21*%
X131032000Y-132588000D03*
X129032000Y-132588000D03*
%TD*%
D26*
%TO.C,C6*%
X107213400Y-120558200D03*
X107213400Y-124958200D03*
%TD*%
D28*
%TO.C,JP6*%
X112776000Y-67310000D03*
X112776000Y-68610000D03*
X112776000Y-69910000D03*
%TD*%
D13*
%TO.C,JP1*%
X196337400Y-113004600D03*
X197637400Y-113004600D03*
%TD*%
D29*
%TO.C,J14*%
X188278600Y-118455200D03*
D30*
X188278600Y-116455200D03*
X188278600Y-114455200D03*
X188278600Y-112455200D03*
X188278600Y-110455200D03*
X188278600Y-108455200D03*
X188278600Y-106455200D03*
X188278600Y-104455200D03*
%TD*%
D13*
%TO.C,JP2*%
X84014000Y-118110000D03*
X85314000Y-118110000D03*
X86614000Y-118110000D03*
%TD*%
D18*
%TO.C,R22*%
X135239000Y-132588000D03*
X133239000Y-132588000D03*
%TD*%
D14*
%TO.C,J20*%
X65024000Y-56788000D03*
D15*
X65024000Y-61788000D03*
X65024000Y-66788000D03*
X65024000Y-71788000D03*
X65024000Y-76788000D03*
X65024000Y-81788000D03*
%TD*%
D31*
%TO.C,FL1*%
X94568000Y-135636000D03*
X99568000Y-135636000D03*
X99568000Y-143336000D03*
X94568000Y-143336000D03*
%TD*%
D18*
%TO.C,R11*%
X191008000Y-73152000D03*
X189008000Y-73152000D03*
%TD*%
D32*
%TO.C,R13*%
X183272400Y-112471200D03*
X185272400Y-112471200D03*
%TD*%
D33*
%TO.C,SW1*%
X169214500Y-122603000D03*
X169214500Y-114653000D03*
X173714500Y-122603000D03*
X173714500Y-114653000D03*
%TD*%
D34*
%TO.C,C32*%
X85598000Y-75481000D03*
X85598000Y-73406000D03*
%TD*%
D35*
%TO.C,JP19*%
X85902800Y-94056200D03*
D36*
X84602800Y-94056200D03*
%TD*%
D37*
%TO.C,C21*%
X171661000Y-124968000D03*
X173736000Y-124968000D03*
%TD*%
D21*
%TO.C,D6*%
X139700000Y-100584000D03*
D22*
X139700000Y-110744000D03*
%TD*%
D37*
%TO.C,C22*%
X164570500Y-124813000D03*
X166645500Y-124813000D03*
%TD*%
D38*
%TO.C,U7*%
X130796000Y-67158000D03*
X133096000Y-67158000D03*
D39*
X133096000Y-60858000D03*
D38*
X135396000Y-67158000D03*
%TD*%
D16*
%TO.C,J10*%
X147231400Y-139491000D03*
D17*
X144691400Y-139491000D03*
X142151400Y-139491000D03*
X139611400Y-139491000D03*
%TD*%
D32*
%TO.C,R6*%
X77724000Y-83820000D03*
X79724000Y-83820000D03*
%TD*%
D18*
%TO.C,R15*%
X185272400Y-110439200D03*
X183272400Y-110439200D03*
%TD*%
D40*
%TO.C,PS1*%
X100076000Y-117856000D03*
D41*
X97536000Y-117856000D03*
X94996000Y-117856000D03*
X92456000Y-117856000D03*
%TD*%
D34*
%TO.C,C19*%
X157513000Y-132480500D03*
X157513000Y-130405500D03*
%TD*%
D13*
%TO.C,JP7*%
X108204000Y-66802000D03*
X106904000Y-66802000D03*
%TD*%
D42*
%TO.C,J4*%
X61521741Y-106742767D03*
X61521741Y-91742767D03*
D43*
X67289500Y-97475000D03*
X67289500Y-101010534D03*
X63753966Y-101010534D03*
X63753966Y-97475000D03*
X65521733Y-99242767D03*
D44*
X61521741Y-99242767D03*
%TD*%
D45*
%TO.C,U2*%
X161562000Y-59456000D03*
X161562000Y-60726000D03*
X161562000Y-61996000D03*
X161562000Y-63266000D03*
X161562000Y-64536000D03*
X161562000Y-65806000D03*
X161562000Y-67076000D03*
X161562000Y-68346000D03*
X161562000Y-69616000D03*
X161562000Y-70886000D03*
X161562000Y-72156000D03*
X161562000Y-73426000D03*
X161562000Y-74696000D03*
X161562000Y-75966000D03*
D46*
X164592000Y-77216000D03*
X165862000Y-77216000D03*
X167132000Y-77216000D03*
X168402000Y-77216000D03*
X169672000Y-77216000D03*
X170942000Y-77216000D03*
X172212000Y-77216000D03*
X173482000Y-77216000D03*
X174752000Y-77216000D03*
X176022000Y-77216000D03*
D45*
X179062000Y-75966000D03*
X179062000Y-74696000D03*
X179062000Y-73426000D03*
X179062000Y-72156000D03*
X179062000Y-70886000D03*
X179062000Y-69616000D03*
X179062000Y-68346000D03*
X179062000Y-67076000D03*
X179062000Y-65806000D03*
X179062000Y-64536000D03*
X179062000Y-63266000D03*
X179062000Y-61996000D03*
X179062000Y-60726000D03*
X179062000Y-59456000D03*
D47*
X167412000Y-65776000D03*
X167412000Y-65776000D03*
X167412000Y-67176000D03*
X167412000Y-68576000D03*
X167412000Y-68576000D03*
X168812000Y-65776000D03*
X168812000Y-67176000D03*
X168812000Y-68576000D03*
X168812000Y-68576000D03*
X170212000Y-65776000D03*
X170212000Y-67176000D03*
X170212000Y-68576000D03*
%TD*%
D48*
%TO.C,BZ1*%
X148336000Y-101356000D03*
D49*
X148336000Y-108956000D03*
%TD*%
D38*
%TO.C,U4*%
X75170000Y-124562000D03*
X77470000Y-124562000D03*
D39*
X77470000Y-118262000D03*
D38*
X79770000Y-124562000D03*
%TD*%
D50*
%TO.C,JP20*%
X194564000Y-87376000D03*
D51*
X194564000Y-88676000D03*
%TD*%
D14*
%TO.C,J15*%
X152908000Y-138557000D03*
D15*
X157988000Y-138557000D03*
X163068000Y-138557000D03*
X168148000Y-138557000D03*
%TD*%
D18*
%TO.C,R2*%
X88900000Y-70358000D03*
X86900000Y-70358000D03*
%TD*%
D16*
%TO.C,J13*%
X190119000Y-60325000D03*
D17*
X190119000Y-62865000D03*
X190119000Y-65405000D03*
X190119000Y-67945000D03*
%TD*%
D52*
%TO.C,C28*%
X148539200Y-59081000D03*
X148539200Y-62331000D03*
%TD*%
D21*
%TO.C,D1*%
X60960000Y-121158000D03*
D22*
X60960000Y-110998000D03*
%TD*%
D12*
%TO.C,C29*%
X151384000Y-59414500D03*
X151384000Y-61489500D03*
%TD*%
%TO.C,C13*%
X85344000Y-120650000D03*
X85344000Y-122725000D03*
%TD*%
D28*
%TO.C,JP13*%
X191897000Y-87386400D03*
X191897000Y-88686400D03*
%TD*%
D12*
%TO.C,C7*%
X88392000Y-137668000D03*
X88392000Y-139743000D03*
%TD*%
D21*
%TO.C,D10*%
X107010200Y-134213600D03*
D22*
X107010200Y-144373600D03*
%TD*%
D53*
%TO.C,U6*%
X198521600Y-142069900D03*
X198521600Y-141419900D03*
X198521600Y-140769900D03*
X198521600Y-140119900D03*
X200571600Y-140119900D03*
X200571600Y-140769900D03*
X200571600Y-141419900D03*
X200571600Y-142069900D03*
%TD*%
D54*
%TO.C,F1*%
X74676000Y-140716000D03*
D55*
X82676000Y-140716000D03*
%TD*%
D16*
%TO.C,J9*%
X71882000Y-113233200D03*
D17*
X71882000Y-110693200D03*
X71882000Y-108153200D03*
X71882000Y-105613200D03*
%TD*%
D13*
%TO.C,JP24*%
X158130000Y-114300000D03*
X156830000Y-114300000D03*
%TD*%
D34*
%TO.C,C33*%
X104648000Y-78253500D03*
X104648000Y-76178500D03*
%TD*%
D56*
%TO.C,C11*%
X69342000Y-118204000D03*
X69342000Y-123604000D03*
%TD*%
D12*
%TO.C,C27*%
X153670000Y-59414500D03*
X153670000Y-61489500D03*
%TD*%
D16*
%TO.C,J19*%
X153416000Y-90424000D03*
D17*
X150876000Y-90424000D03*
X148336000Y-90424000D03*
X145796000Y-90424000D03*
%TD*%
D57*
%TO.C,Q1*%
X148336000Y-113284000D03*
X148336000Y-115184000D03*
X150211000Y-114234000D03*
%TD*%
D58*
%TO.C,R23*%
X189255400Y-85322400D03*
X189255400Y-83322400D03*
%TD*%
D59*
%TO.C,LED1*%
X147402000Y-81132000D03*
X148352000Y-81132000D03*
X149352000Y-81132000D03*
X149352000Y-78232000D03*
X148352000Y-78232000D03*
X147402000Y-78232000D03*
%TD*%
D18*
%TO.C,R4*%
X79248000Y-63246000D03*
X77248000Y-63246000D03*
%TD*%
D58*
%TO.C,R24*%
X191897000Y-85322400D03*
X191897000Y-83322400D03*
%TD*%
D37*
%TO.C,C4*%
X173693000Y-132689600D03*
X175768000Y-132689600D03*
%TD*%
D60*
%TO.C,C30*%
X194941100Y-91038200D03*
X192866100Y-91038200D03*
%TD*%
%TO.C,C12*%
X68703100Y-114046000D03*
X66628100Y-114046000D03*
%TD*%
D33*
%TO.C,SW2*%
X162121800Y-122692000D03*
X162121800Y-114742000D03*
X166621800Y-122692000D03*
X166621800Y-114742000D03*
%TD*%
D28*
%TO.C,JP18*%
X74676000Y-78008000D03*
X74676000Y-76708000D03*
%TD*%
D26*
%TO.C,C16*%
X135483600Y-72374400D03*
X135483600Y-76774400D03*
%TD*%
D49*
%TO.C,C2*%
X101266000Y-56896000D03*
X91266000Y-56896000D03*
%TD*%
%TO.C,C1*%
X101393000Y-101473000D03*
X91393000Y-101473000D03*
%TD*%
D13*
%TO.C,JP5*%
X57193702Y-70278809D03*
X55893702Y-70278809D03*
%TD*%
D57*
%TO.C,D2*%
X73309000Y-63312000D03*
X73309000Y-65212000D03*
X75184000Y-64262000D03*
%TD*%
D32*
%TO.C,R5*%
X78756000Y-77216000D03*
X80756000Y-77216000D03*
%TD*%
D60*
%TO.C,C31*%
X153416000Y-87376000D03*
X151341000Y-87376000D03*
%TD*%
D61*
%TO.C,U1*%
X157629100Y-58927800D03*
D62*
X157629100Y-61467800D03*
X157629100Y-64007800D03*
X157629100Y-66547800D03*
X157629100Y-69087800D03*
X157629100Y-71627800D03*
X157629100Y-74167800D03*
X157629100Y-76707800D03*
X157629100Y-79247800D03*
X157629100Y-81787800D03*
X157629100Y-84327800D03*
X157629100Y-86867800D03*
X157629100Y-89407800D03*
X157629100Y-91947800D03*
X157629100Y-94487800D03*
X157629100Y-97027800D03*
X157629100Y-99567800D03*
X157629100Y-102107800D03*
X157629100Y-104647800D03*
X183025420Y-104645080D03*
X183025420Y-102105080D03*
X183029100Y-99567800D03*
X183029100Y-97027800D03*
X183029100Y-94487800D03*
X183029100Y-91947800D03*
X183029100Y-89407800D03*
X183029100Y-86867800D03*
X183029100Y-84327800D03*
X183029100Y-81787800D03*
X183029100Y-79247800D03*
X183029100Y-76707800D03*
X183029100Y-74167800D03*
X183029100Y-71627800D03*
X183029100Y-69087800D03*
X183029100Y-66547800D03*
X183029100Y-64007800D03*
X183029100Y-61467800D03*
X183029100Y-58927800D03*
%TD*%
D13*
%TO.C,JP10*%
X179914000Y-112776000D03*
X181214000Y-112776000D03*
%TD*%
D63*
%TO.C,D12*%
X86614000Y-133604000D03*
D64*
X71374000Y-133604000D03*
%TD*%
D13*
%TO.C,JP14*%
X106172000Y-93472000D03*
X104872000Y-93472000D03*
%TD*%
D65*
%TO.C,PS3*%
X130492500Y-120777000D03*
X113347500Y-120777000D03*
X130492500Y-81277000D03*
X113347500Y-81277000D03*
%TD*%
D35*
%TO.C,JP23*%
X121158000Y-133096000D03*
D36*
X119858000Y-133096000D03*
%TD*%
D66*
%TO.C,U5*%
X101295200Y-71501000D03*
X101295200Y-70231000D03*
X101295200Y-68961000D03*
X101295200Y-67691000D03*
X101295200Y-66421000D03*
X101295200Y-65151000D03*
X101295200Y-63881000D03*
X101295200Y-62611000D03*
X92252800Y-62611000D03*
X92252800Y-63881000D03*
X92252800Y-65151000D03*
X92252800Y-66421000D03*
X92252800Y-67691000D03*
X92252800Y-68961000D03*
X92252800Y-70231000D03*
X92252800Y-71501000D03*
%TD*%
D18*
%TO.C,R3*%
X79248000Y-65786000D03*
X77248000Y-65786000D03*
%TD*%
D13*
%TO.C,JP3*%
X70328000Y-93980000D03*
X71628000Y-93980000D03*
%TD*%
D60*
%TO.C,C15*%
X135679000Y-69596000D03*
X133604000Y-69596000D03*
%TD*%
D19*
%TO.C,J2*%
X185405000Y-136352000D03*
D20*
X187405000Y-136352000D03*
X189405000Y-136352000D03*
X191405000Y-136352000D03*
%TD*%
D67*
%TO.C,D5*%
X189992000Y-77609000D03*
X189992000Y-75559000D03*
%TD*%
D28*
%TO.C,JP12*%
X189306200Y-87386400D03*
X189306200Y-88686400D03*
%TD*%
D34*
%TO.C,C14*%
X110236400Y-133647100D03*
X110236400Y-131572100D03*
%TD*%
D68*
%TO.C,JP21*%
X192024000Y-57292000D03*
D69*
X192024000Y-55992000D03*
%TD*%
D37*
%TO.C,C5*%
X198374000Y-134670800D03*
X200449000Y-134670800D03*
%TD*%
D13*
%TO.C,JP11*%
X179903600Y-110134400D03*
X181203600Y-110134400D03*
%TD*%
%TO.C,JP9*%
X108204000Y-64008000D03*
X106904000Y-64008000D03*
%TD*%
D58*
%TO.C,R9*%
X109651800Y-144849600D03*
X109651800Y-142849600D03*
%TD*%
D70*
%TO.C,D3*%
X107049000Y-147853400D03*
X109099000Y-147853400D03*
%TD*%
D27*
%TO.C,R10*%
X121920000Y-74509500D03*
X121920000Y-76509500D03*
%TD*%
D35*
%TO.C,JP25*%
X124968000Y-133096000D03*
D36*
X123668000Y-133096000D03*
%TD*%
D34*
%TO.C,C18*%
X138633200Y-60117900D03*
X138633200Y-58042900D03*
%TD*%
D26*
%TO.C,C9*%
X85598000Y-78572000D03*
X85598000Y-82972000D03*
%TD*%
D32*
%TO.C,R25*%
X152924000Y-114300000D03*
X154924000Y-114300000D03*
%TD*%
D34*
%TO.C,C24*%
X146812000Y-71628000D03*
X146812000Y-69553000D03*
%TD*%
D32*
%TO.C,R12*%
X167164000Y-127508000D03*
X169164000Y-127508000D03*
%TD*%
D18*
%TO.C,R8*%
X81264000Y-95758000D03*
X79264000Y-95758000D03*
%TD*%
D40*
%TO.C,PS2*%
X100889500Y-81215500D03*
D41*
X98349500Y-81215500D03*
X95809500Y-81215500D03*
X93269500Y-81215500D03*
%TD*%
D26*
%TO.C,C8*%
X107188000Y-79969000D03*
X107188000Y-84369000D03*
%TD*%
D52*
%TO.C,C25*%
X181356000Y-116866000D03*
X181356000Y-120116000D03*
%TD*%
D14*
%TO.C,J5*%
X114046000Y-139446000D03*
D15*
X119126000Y-139446000D03*
X124206000Y-139446000D03*
X129286000Y-139446000D03*
X134366000Y-139446000D03*
%TD*%
D71*
%TO.C,U3*%
X100998000Y-98552000D03*
X100998000Y-96012000D03*
X100998000Y-93472000D03*
X100998000Y-90932000D03*
X91948000Y-90932000D03*
X91948000Y-93472000D03*
X91948000Y-96012000D03*
X91948000Y-98552000D03*
%TD*%
D37*
%TO.C,C3*%
X185377000Y-132748000D03*
X187452000Y-132748000D03*
%TD*%
D13*
%TO.C,JP22*%
X150368000Y-71755000D03*
X149068000Y-71755000D03*
%TD*%
D72*
%TO.C,C10*%
X87274400Y-100126800D03*
X82874400Y-100126800D03*
%TD*%
D23*
%TO.C,D7*%
X72898000Y-100010000D03*
X72898000Y-98110000D03*
X71023000Y-99060000D03*
%TD*%
D26*
%TO.C,C20*%
X152435250Y-127062732D03*
X152435250Y-131462732D03*
%TD*%
D13*
%TO.C,JP8*%
X108204000Y-70612000D03*
X106904000Y-70612000D03*
%TD*%
D16*
%TO.C,J18*%
X196596000Y-53848000D03*
D17*
X199136000Y-53848000D03*
X196596000Y-56388000D03*
X199136000Y-56388000D03*
X196596000Y-58928000D03*
X199136000Y-58928000D03*
X196596000Y-61468000D03*
X199136000Y-61468000D03*
X196596000Y-64008000D03*
X199136000Y-64008000D03*
X196596000Y-66548000D03*
X199136000Y-66548000D03*
X196596000Y-69088000D03*
X199136000Y-69088000D03*
X196596000Y-71628000D03*
X199136000Y-71628000D03*
X196596000Y-74168000D03*
X199136000Y-74168000D03*
X196596000Y-76708000D03*
X199136000Y-76708000D03*
%TD*%
D73*
%TO.C,J11*%
X140631632Y-56945755D03*
X132631632Y-56945755D03*
%TD*%
M02*
