%TF.GenerationSoftware,KiCad,Pcbnew,7.0.8*%
%TF.CreationDate,2023-11-20T11:06:52+02:00*%
%TF.ProjectId,LED Matrix Display,4c454420-4d61-4747-9269-782044697370,rev?*%
%TF.SameCoordinates,Original*%
%TF.FileFunction,Legend,Bot*%
%TF.FilePolarity,Positive*%
%FSLAX46Y46*%
G04 Gerber Fmt 4.6, Leading zero omitted, Abs format (unit mm)*
G04 Created by KiCad (PCBNEW 7.0.8) date 2023-11-20 11:06:52*
%MOMM*%
%LPD*%
G01*
G04 APERTURE LIST*
%ADD10C,0.150000*%
%ADD11C,0.400000*%
%ADD12C,0.300000*%
%ADD13C,0.120000*%
G04 APERTURE END LIST*
D10*
X37106077Y-87169819D02*
X36772744Y-88169819D01*
X36772744Y-88169819D02*
X36439411Y-87169819D01*
X36106077Y-88169819D02*
X36106077Y-87169819D01*
X36106077Y-87169819D02*
X35867982Y-87169819D01*
X35867982Y-87169819D02*
X35725125Y-87217438D01*
X35725125Y-87217438D02*
X35629887Y-87312676D01*
X35629887Y-87312676D02*
X35582268Y-87407914D01*
X35582268Y-87407914D02*
X35534649Y-87598390D01*
X35534649Y-87598390D02*
X35534649Y-87741247D01*
X35534649Y-87741247D02*
X35582268Y-87931723D01*
X35582268Y-87931723D02*
X35629887Y-88026961D01*
X35629887Y-88026961D02*
X35725125Y-88122200D01*
X35725125Y-88122200D02*
X35867982Y-88169819D01*
X35867982Y-88169819D02*
X36106077Y-88169819D01*
X35106077Y-88169819D02*
X35106077Y-87169819D01*
X35106077Y-87169819D02*
X34867982Y-87169819D01*
X34867982Y-87169819D02*
X34725125Y-87217438D01*
X34725125Y-87217438D02*
X34629887Y-87312676D01*
X34629887Y-87312676D02*
X34582268Y-87407914D01*
X34582268Y-87407914D02*
X34534649Y-87598390D01*
X34534649Y-87598390D02*
X34534649Y-87741247D01*
X34534649Y-87741247D02*
X34582268Y-87931723D01*
X34582268Y-87931723D02*
X34629887Y-88026961D01*
X34629887Y-88026961D02*
X34725125Y-88122200D01*
X34725125Y-88122200D02*
X34867982Y-88169819D01*
X34867982Y-88169819D02*
X35106077Y-88169819D01*
X33439410Y-87169819D02*
X33201315Y-88169819D01*
X33201315Y-88169819D02*
X33010839Y-87455533D01*
X33010839Y-87455533D02*
X32820363Y-88169819D01*
X32820363Y-88169819D02*
X32582268Y-87169819D01*
X31677506Y-88169819D02*
X32248934Y-88169819D01*
X31963220Y-88169819D02*
X31963220Y-87169819D01*
X31963220Y-87169819D02*
X32058458Y-87312676D01*
X32058458Y-87312676D02*
X32153696Y-87407914D01*
X32153696Y-87407914D02*
X32248934Y-87455533D01*
X30582267Y-87169819D02*
X30344172Y-88169819D01*
X30344172Y-88169819D02*
X30153696Y-87455533D01*
X30153696Y-87455533D02*
X29963220Y-88169819D01*
X29963220Y-88169819D02*
X29725125Y-87169819D01*
X29391791Y-87265057D02*
X29344172Y-87217438D01*
X29344172Y-87217438D02*
X29248934Y-87169819D01*
X29248934Y-87169819D02*
X29010839Y-87169819D01*
X29010839Y-87169819D02*
X28915601Y-87217438D01*
X28915601Y-87217438D02*
X28867982Y-87265057D01*
X28867982Y-87265057D02*
X28820363Y-87360295D01*
X28820363Y-87360295D02*
X28820363Y-87455533D01*
X28820363Y-87455533D02*
X28867982Y-87598390D01*
X28867982Y-87598390D02*
X29439410Y-88169819D01*
X29439410Y-88169819D02*
X28820363Y-88169819D01*
X27106077Y-87217438D02*
X27201315Y-87169819D01*
X27201315Y-87169819D02*
X27344172Y-87169819D01*
X27344172Y-87169819D02*
X27487029Y-87217438D01*
X27487029Y-87217438D02*
X27582267Y-87312676D01*
X27582267Y-87312676D02*
X27629886Y-87407914D01*
X27629886Y-87407914D02*
X27677505Y-87598390D01*
X27677505Y-87598390D02*
X27677505Y-87741247D01*
X27677505Y-87741247D02*
X27629886Y-87931723D01*
X27629886Y-87931723D02*
X27582267Y-88026961D01*
X27582267Y-88026961D02*
X27487029Y-88122200D01*
X27487029Y-88122200D02*
X27344172Y-88169819D01*
X27344172Y-88169819D02*
X27248934Y-88169819D01*
X27248934Y-88169819D02*
X27106077Y-88122200D01*
X27106077Y-88122200D02*
X27058458Y-88074580D01*
X27058458Y-88074580D02*
X27058458Y-87741247D01*
X27058458Y-87741247D02*
X27248934Y-87741247D01*
X26629886Y-88169819D02*
X26629886Y-87169819D01*
X26629886Y-87169819D02*
X26058458Y-88169819D01*
X26058458Y-88169819D02*
X26058458Y-87169819D01*
X25582267Y-88169819D02*
X25582267Y-87169819D01*
X25582267Y-87169819D02*
X25344172Y-87169819D01*
X25344172Y-87169819D02*
X25201315Y-87217438D01*
X25201315Y-87217438D02*
X25106077Y-87312676D01*
X25106077Y-87312676D02*
X25058458Y-87407914D01*
X25058458Y-87407914D02*
X25010839Y-87598390D01*
X25010839Y-87598390D02*
X25010839Y-87741247D01*
X25010839Y-87741247D02*
X25058458Y-87931723D01*
X25058458Y-87931723D02*
X25106077Y-88026961D01*
X25106077Y-88026961D02*
X25201315Y-88122200D01*
X25201315Y-88122200D02*
X25344172Y-88169819D01*
X25344172Y-88169819D02*
X25582267Y-88169819D01*
D11*
X107110652Y-94972533D02*
X105586843Y-94972533D01*
X106348747Y-95734438D02*
X106348747Y-94210628D01*
X103682081Y-93734438D02*
X104634462Y-93734438D01*
X104634462Y-93734438D02*
X104729700Y-94686819D01*
X104729700Y-94686819D02*
X104634462Y-94591580D01*
X104634462Y-94591580D02*
X104443986Y-94496342D01*
X104443986Y-94496342D02*
X103967795Y-94496342D01*
X103967795Y-94496342D02*
X103777319Y-94591580D01*
X103777319Y-94591580D02*
X103682081Y-94686819D01*
X103682081Y-94686819D02*
X103586843Y-94877295D01*
X103586843Y-94877295D02*
X103586843Y-95353485D01*
X103586843Y-95353485D02*
X103682081Y-95543961D01*
X103682081Y-95543961D02*
X103777319Y-95639200D01*
X103777319Y-95639200D02*
X103967795Y-95734438D01*
X103967795Y-95734438D02*
X104443986Y-95734438D01*
X104443986Y-95734438D02*
X104634462Y-95639200D01*
X104634462Y-95639200D02*
X104729700Y-95543961D01*
X103015414Y-93734438D02*
X102348748Y-95734438D01*
X102348748Y-95734438D02*
X101682081Y-93734438D01*
D10*
X56206077Y-87169819D02*
X55872744Y-88169819D01*
X55872744Y-88169819D02*
X55539411Y-87169819D01*
X55206077Y-88169819D02*
X55206077Y-87169819D01*
X55206077Y-87169819D02*
X54967982Y-87169819D01*
X54967982Y-87169819D02*
X54825125Y-87217438D01*
X54825125Y-87217438D02*
X54729887Y-87312676D01*
X54729887Y-87312676D02*
X54682268Y-87407914D01*
X54682268Y-87407914D02*
X54634649Y-87598390D01*
X54634649Y-87598390D02*
X54634649Y-87741247D01*
X54634649Y-87741247D02*
X54682268Y-87931723D01*
X54682268Y-87931723D02*
X54729887Y-88026961D01*
X54729887Y-88026961D02*
X54825125Y-88122200D01*
X54825125Y-88122200D02*
X54967982Y-88169819D01*
X54967982Y-88169819D02*
X55206077Y-88169819D01*
X54206077Y-88169819D02*
X54206077Y-87169819D01*
X54206077Y-87169819D02*
X53967982Y-87169819D01*
X53967982Y-87169819D02*
X53825125Y-87217438D01*
X53825125Y-87217438D02*
X53729887Y-87312676D01*
X53729887Y-87312676D02*
X53682268Y-87407914D01*
X53682268Y-87407914D02*
X53634649Y-87598390D01*
X53634649Y-87598390D02*
X53634649Y-87741247D01*
X53634649Y-87741247D02*
X53682268Y-87931723D01*
X53682268Y-87931723D02*
X53729887Y-88026961D01*
X53729887Y-88026961D02*
X53825125Y-88122200D01*
X53825125Y-88122200D02*
X53967982Y-88169819D01*
X53967982Y-88169819D02*
X54206077Y-88169819D01*
X52539410Y-87169819D02*
X52301315Y-88169819D01*
X52301315Y-88169819D02*
X52110839Y-87455533D01*
X52110839Y-87455533D02*
X51920363Y-88169819D01*
X51920363Y-88169819D02*
X51682268Y-87169819D01*
X50777506Y-88169819D02*
X51348934Y-88169819D01*
X51063220Y-88169819D02*
X51063220Y-87169819D01*
X51063220Y-87169819D02*
X51158458Y-87312676D01*
X51158458Y-87312676D02*
X51253696Y-87407914D01*
X51253696Y-87407914D02*
X51348934Y-87455533D01*
X49682267Y-87169819D02*
X49444172Y-88169819D01*
X49444172Y-88169819D02*
X49253696Y-87455533D01*
X49253696Y-87455533D02*
X49063220Y-88169819D01*
X49063220Y-88169819D02*
X48825125Y-87169819D01*
X48491791Y-87265057D02*
X48444172Y-87217438D01*
X48444172Y-87217438D02*
X48348934Y-87169819D01*
X48348934Y-87169819D02*
X48110839Y-87169819D01*
X48110839Y-87169819D02*
X48015601Y-87217438D01*
X48015601Y-87217438D02*
X47967982Y-87265057D01*
X47967982Y-87265057D02*
X47920363Y-87360295D01*
X47920363Y-87360295D02*
X47920363Y-87455533D01*
X47920363Y-87455533D02*
X47967982Y-87598390D01*
X47967982Y-87598390D02*
X48539410Y-88169819D01*
X48539410Y-88169819D02*
X47920363Y-88169819D01*
X46206077Y-87217438D02*
X46301315Y-87169819D01*
X46301315Y-87169819D02*
X46444172Y-87169819D01*
X46444172Y-87169819D02*
X46587029Y-87217438D01*
X46587029Y-87217438D02*
X46682267Y-87312676D01*
X46682267Y-87312676D02*
X46729886Y-87407914D01*
X46729886Y-87407914D02*
X46777505Y-87598390D01*
X46777505Y-87598390D02*
X46777505Y-87741247D01*
X46777505Y-87741247D02*
X46729886Y-87931723D01*
X46729886Y-87931723D02*
X46682267Y-88026961D01*
X46682267Y-88026961D02*
X46587029Y-88122200D01*
X46587029Y-88122200D02*
X46444172Y-88169819D01*
X46444172Y-88169819D02*
X46348934Y-88169819D01*
X46348934Y-88169819D02*
X46206077Y-88122200D01*
X46206077Y-88122200D02*
X46158458Y-88074580D01*
X46158458Y-88074580D02*
X46158458Y-87741247D01*
X46158458Y-87741247D02*
X46348934Y-87741247D01*
X45729886Y-88169819D02*
X45729886Y-87169819D01*
X45729886Y-87169819D02*
X45158458Y-88169819D01*
X45158458Y-88169819D02*
X45158458Y-87169819D01*
X44682267Y-88169819D02*
X44682267Y-87169819D01*
X44682267Y-87169819D02*
X44444172Y-87169819D01*
X44444172Y-87169819D02*
X44301315Y-87217438D01*
X44301315Y-87217438D02*
X44206077Y-87312676D01*
X44206077Y-87312676D02*
X44158458Y-87407914D01*
X44158458Y-87407914D02*
X44110839Y-87598390D01*
X44110839Y-87598390D02*
X44110839Y-87741247D01*
X44110839Y-87741247D02*
X44158458Y-87931723D01*
X44158458Y-87931723D02*
X44206077Y-88026961D01*
X44206077Y-88026961D02*
X44301315Y-88122200D01*
X44301315Y-88122200D02*
X44444172Y-88169819D01*
X44444172Y-88169819D02*
X44682267Y-88169819D01*
D11*
X62710652Y-95272533D02*
X61186843Y-95272533D01*
X61948747Y-96034438D02*
X61948747Y-94510628D01*
X60520176Y-94034438D02*
X59853510Y-96034438D01*
X59853510Y-96034438D02*
X59186843Y-94034438D01*
D10*
X162733333Y-49354819D02*
X162733333Y-50069104D01*
X162733333Y-50069104D02*
X162780952Y-50211961D01*
X162780952Y-50211961D02*
X162876190Y-50307200D01*
X162876190Y-50307200D02*
X163019047Y-50354819D01*
X163019047Y-50354819D02*
X163114285Y-50354819D01*
X161733333Y-50354819D02*
X162304761Y-50354819D01*
X162019047Y-50354819D02*
X162019047Y-49354819D01*
X162019047Y-49354819D02*
X162114285Y-49497676D01*
X162114285Y-49497676D02*
X162209523Y-49592914D01*
X162209523Y-49592914D02*
X162304761Y-49640533D01*
X167346819Y-45347904D02*
X166346819Y-45347904D01*
X166442057Y-45776475D02*
X166394438Y-45824094D01*
X166394438Y-45824094D02*
X166346819Y-45919332D01*
X166346819Y-45919332D02*
X166346819Y-46157427D01*
X166346819Y-46157427D02*
X166394438Y-46252665D01*
X166394438Y-46252665D02*
X166442057Y-46300284D01*
X166442057Y-46300284D02*
X166537295Y-46347903D01*
X166537295Y-46347903D02*
X166632533Y-46347903D01*
X166632533Y-46347903D02*
X166775390Y-46300284D01*
X166775390Y-46300284D02*
X167346819Y-45728856D01*
X167346819Y-45728856D02*
X167346819Y-46347903D01*
X167251580Y-47347903D02*
X167299200Y-47300284D01*
X167299200Y-47300284D02*
X167346819Y-47157427D01*
X167346819Y-47157427D02*
X167346819Y-47062189D01*
X167346819Y-47062189D02*
X167299200Y-46919332D01*
X167299200Y-46919332D02*
X167203961Y-46824094D01*
X167203961Y-46824094D02*
X167108723Y-46776475D01*
X167108723Y-46776475D02*
X166918247Y-46728856D01*
X166918247Y-46728856D02*
X166775390Y-46728856D01*
X166775390Y-46728856D02*
X166584914Y-46776475D01*
X166584914Y-46776475D02*
X166489676Y-46824094D01*
X166489676Y-46824094D02*
X166394438Y-46919332D01*
X166394438Y-46919332D02*
X166346819Y-47062189D01*
X166346819Y-47062189D02*
X166346819Y-47157427D01*
X166346819Y-47157427D02*
X166394438Y-47300284D01*
X166394438Y-47300284D02*
X166442057Y-47347903D01*
X167299200Y-48490761D02*
X167346819Y-48633618D01*
X167346819Y-48633618D02*
X167346819Y-48871713D01*
X167346819Y-48871713D02*
X167299200Y-48966951D01*
X167299200Y-48966951D02*
X167251580Y-49014570D01*
X167251580Y-49014570D02*
X167156342Y-49062189D01*
X167156342Y-49062189D02*
X167061104Y-49062189D01*
X167061104Y-49062189D02*
X166965866Y-49014570D01*
X166965866Y-49014570D02*
X166918247Y-48966951D01*
X166918247Y-48966951D02*
X166870628Y-48871713D01*
X166870628Y-48871713D02*
X166823009Y-48681237D01*
X166823009Y-48681237D02*
X166775390Y-48585999D01*
X166775390Y-48585999D02*
X166727771Y-48538380D01*
X166727771Y-48538380D02*
X166632533Y-48490761D01*
X166632533Y-48490761D02*
X166537295Y-48490761D01*
X166537295Y-48490761D02*
X166442057Y-48538380D01*
X166442057Y-48538380D02*
X166394438Y-48585999D01*
X166394438Y-48585999D02*
X166346819Y-48681237D01*
X166346819Y-48681237D02*
X166346819Y-48919332D01*
X166346819Y-48919332D02*
X166394438Y-49062189D01*
X167299200Y-49871713D02*
X167346819Y-49776475D01*
X167346819Y-49776475D02*
X167346819Y-49585999D01*
X167346819Y-49585999D02*
X167299200Y-49490761D01*
X167299200Y-49490761D02*
X167203961Y-49443142D01*
X167203961Y-49443142D02*
X166823009Y-49443142D01*
X166823009Y-49443142D02*
X166727771Y-49490761D01*
X166727771Y-49490761D02*
X166680152Y-49585999D01*
X166680152Y-49585999D02*
X166680152Y-49776475D01*
X166680152Y-49776475D02*
X166727771Y-49871713D01*
X166727771Y-49871713D02*
X166823009Y-49919332D01*
X166823009Y-49919332D02*
X166918247Y-49919332D01*
X166918247Y-49919332D02*
X167013485Y-49443142D01*
X166680152Y-50347904D02*
X167346819Y-50347904D01*
X166775390Y-50347904D02*
X166727771Y-50395523D01*
X166727771Y-50395523D02*
X166680152Y-50490761D01*
X166680152Y-50490761D02*
X166680152Y-50633618D01*
X166680152Y-50633618D02*
X166727771Y-50728856D01*
X166727771Y-50728856D02*
X166823009Y-50776475D01*
X166823009Y-50776475D02*
X167346819Y-50776475D01*
X167299200Y-51205047D02*
X167346819Y-51300285D01*
X167346819Y-51300285D02*
X167346819Y-51490761D01*
X167346819Y-51490761D02*
X167299200Y-51585999D01*
X167299200Y-51585999D02*
X167203961Y-51633618D01*
X167203961Y-51633618D02*
X167156342Y-51633618D01*
X167156342Y-51633618D02*
X167061104Y-51585999D01*
X167061104Y-51585999D02*
X167013485Y-51490761D01*
X167013485Y-51490761D02*
X167013485Y-51347904D01*
X167013485Y-51347904D02*
X166965866Y-51252666D01*
X166965866Y-51252666D02*
X166870628Y-51205047D01*
X166870628Y-51205047D02*
X166823009Y-51205047D01*
X166823009Y-51205047D02*
X166727771Y-51252666D01*
X166727771Y-51252666D02*
X166680152Y-51347904D01*
X166680152Y-51347904D02*
X166680152Y-51490761D01*
X166680152Y-51490761D02*
X166727771Y-51585999D01*
X167346819Y-52205047D02*
X167299200Y-52109809D01*
X167299200Y-52109809D02*
X167251580Y-52062190D01*
X167251580Y-52062190D02*
X167156342Y-52014571D01*
X167156342Y-52014571D02*
X166870628Y-52014571D01*
X166870628Y-52014571D02*
X166775390Y-52062190D01*
X166775390Y-52062190D02*
X166727771Y-52109809D01*
X166727771Y-52109809D02*
X166680152Y-52205047D01*
X166680152Y-52205047D02*
X166680152Y-52347904D01*
X166680152Y-52347904D02*
X166727771Y-52443142D01*
X166727771Y-52443142D02*
X166775390Y-52490761D01*
X166775390Y-52490761D02*
X166870628Y-52538380D01*
X166870628Y-52538380D02*
X167156342Y-52538380D01*
X167156342Y-52538380D02*
X167251580Y-52490761D01*
X167251580Y-52490761D02*
X167299200Y-52443142D01*
X167299200Y-52443142D02*
X167346819Y-52347904D01*
X167346819Y-52347904D02*
X167346819Y-52205047D01*
X167346819Y-52966952D02*
X166680152Y-52966952D01*
X166870628Y-52966952D02*
X166775390Y-53014571D01*
X166775390Y-53014571D02*
X166727771Y-53062190D01*
X166727771Y-53062190D02*
X166680152Y-53157428D01*
X166680152Y-53157428D02*
X166680152Y-53252666D01*
X167346819Y-54871714D02*
X167346819Y-54300286D01*
X167346819Y-54586000D02*
X166346819Y-54586000D01*
X166346819Y-54586000D02*
X166489676Y-54490762D01*
X166489676Y-54490762D02*
X166584914Y-54395524D01*
X166584914Y-54395524D02*
X166632533Y-54300286D01*
X155916666Y-94154819D02*
X156249999Y-93678628D01*
X156488094Y-94154819D02*
X156488094Y-93154819D01*
X156488094Y-93154819D02*
X156107142Y-93154819D01*
X156107142Y-93154819D02*
X156011904Y-93202438D01*
X156011904Y-93202438D02*
X155964285Y-93250057D01*
X155964285Y-93250057D02*
X155916666Y-93345295D01*
X155916666Y-93345295D02*
X155916666Y-93488152D01*
X155916666Y-93488152D02*
X155964285Y-93583390D01*
X155964285Y-93583390D02*
X156011904Y-93631009D01*
X156011904Y-93631009D02*
X156107142Y-93678628D01*
X156107142Y-93678628D02*
X156488094Y-93678628D01*
X155011904Y-93154819D02*
X155488094Y-93154819D01*
X155488094Y-93154819D02*
X155535713Y-93631009D01*
X155535713Y-93631009D02*
X155488094Y-93583390D01*
X155488094Y-93583390D02*
X155392856Y-93535771D01*
X155392856Y-93535771D02*
X155154761Y-93535771D01*
X155154761Y-93535771D02*
X155059523Y-93583390D01*
X155059523Y-93583390D02*
X155011904Y-93631009D01*
X155011904Y-93631009D02*
X154964285Y-93726247D01*
X154964285Y-93726247D02*
X154964285Y-93964342D01*
X154964285Y-93964342D02*
X155011904Y-94059580D01*
X155011904Y-94059580D02*
X155059523Y-94107200D01*
X155059523Y-94107200D02*
X155154761Y-94154819D01*
X155154761Y-94154819D02*
X155392856Y-94154819D01*
X155392856Y-94154819D02*
X155488094Y-94107200D01*
X155488094Y-94107200D02*
X155535713Y-94059580D01*
X154866666Y-52354819D02*
X155199999Y-51878628D01*
X155438094Y-52354819D02*
X155438094Y-51354819D01*
X155438094Y-51354819D02*
X155057142Y-51354819D01*
X155057142Y-51354819D02*
X154961904Y-51402438D01*
X154961904Y-51402438D02*
X154914285Y-51450057D01*
X154914285Y-51450057D02*
X154866666Y-51545295D01*
X154866666Y-51545295D02*
X154866666Y-51688152D01*
X154866666Y-51688152D02*
X154914285Y-51783390D01*
X154914285Y-51783390D02*
X154961904Y-51831009D01*
X154961904Y-51831009D02*
X155057142Y-51878628D01*
X155057142Y-51878628D02*
X155438094Y-51878628D01*
X154533332Y-51354819D02*
X153914285Y-51354819D01*
X153914285Y-51354819D02*
X154247618Y-51735771D01*
X154247618Y-51735771D02*
X154104761Y-51735771D01*
X154104761Y-51735771D02*
X154009523Y-51783390D01*
X154009523Y-51783390D02*
X153961904Y-51831009D01*
X153961904Y-51831009D02*
X153914285Y-51926247D01*
X153914285Y-51926247D02*
X153914285Y-52164342D01*
X153914285Y-52164342D02*
X153961904Y-52259580D01*
X153961904Y-52259580D02*
X154009523Y-52307200D01*
X154009523Y-52307200D02*
X154104761Y-52354819D01*
X154104761Y-52354819D02*
X154390475Y-52354819D01*
X154390475Y-52354819D02*
X154485713Y-52307200D01*
X154485713Y-52307200D02*
X154533332Y-52259580D01*
X149323809Y-51588152D02*
X149323809Y-52254819D01*
X149561904Y-51207200D02*
X149799999Y-51921485D01*
X149799999Y-51921485D02*
X149180952Y-51921485D01*
X148799999Y-52159580D02*
X148752380Y-52207200D01*
X148752380Y-52207200D02*
X148799999Y-52254819D01*
X148799999Y-52254819D02*
X148847618Y-52207200D01*
X148847618Y-52207200D02*
X148799999Y-52159580D01*
X148799999Y-52159580D02*
X148799999Y-52254819D01*
X148419047Y-51254819D02*
X147752381Y-51254819D01*
X147752381Y-51254819D02*
X148180952Y-52254819D01*
X147371428Y-52254819D02*
X147371428Y-51254819D01*
X146800000Y-52254819D02*
X147228571Y-51683390D01*
X146800000Y-51254819D02*
X147371428Y-51826247D01*
X158566666Y-96354819D02*
X158899999Y-95878628D01*
X159138094Y-96354819D02*
X159138094Y-95354819D01*
X159138094Y-95354819D02*
X158757142Y-95354819D01*
X158757142Y-95354819D02*
X158661904Y-95402438D01*
X158661904Y-95402438D02*
X158614285Y-95450057D01*
X158614285Y-95450057D02*
X158566666Y-95545295D01*
X158566666Y-95545295D02*
X158566666Y-95688152D01*
X158566666Y-95688152D02*
X158614285Y-95783390D01*
X158614285Y-95783390D02*
X158661904Y-95831009D01*
X158661904Y-95831009D02*
X158757142Y-95878628D01*
X158757142Y-95878628D02*
X159138094Y-95878628D01*
X157709523Y-95354819D02*
X157899999Y-95354819D01*
X157899999Y-95354819D02*
X157995237Y-95402438D01*
X157995237Y-95402438D02*
X158042856Y-95450057D01*
X158042856Y-95450057D02*
X158138094Y-95592914D01*
X158138094Y-95592914D02*
X158185713Y-95783390D01*
X158185713Y-95783390D02*
X158185713Y-96164342D01*
X158185713Y-96164342D02*
X158138094Y-96259580D01*
X158138094Y-96259580D02*
X158090475Y-96307200D01*
X158090475Y-96307200D02*
X157995237Y-96354819D01*
X157995237Y-96354819D02*
X157804761Y-96354819D01*
X157804761Y-96354819D02*
X157709523Y-96307200D01*
X157709523Y-96307200D02*
X157661904Y-96259580D01*
X157661904Y-96259580D02*
X157614285Y-96164342D01*
X157614285Y-96164342D02*
X157614285Y-95926247D01*
X157614285Y-95926247D02*
X157661904Y-95831009D01*
X157661904Y-95831009D02*
X157709523Y-95783390D01*
X157709523Y-95783390D02*
X157804761Y-95735771D01*
X157804761Y-95735771D02*
X157995237Y-95735771D01*
X157995237Y-95735771D02*
X158090475Y-95783390D01*
X158090475Y-95783390D02*
X158138094Y-95831009D01*
X158138094Y-95831009D02*
X158185713Y-95926247D01*
X158014285Y-99654819D02*
X158585713Y-99654819D01*
X158299999Y-99654819D02*
X158299999Y-98654819D01*
X158299999Y-98654819D02*
X158395237Y-98797676D01*
X158395237Y-98797676D02*
X158490475Y-98892914D01*
X158490475Y-98892914D02*
X158585713Y-98940533D01*
X157585713Y-99654819D02*
X157585713Y-98654819D01*
X157014285Y-99654819D02*
X157442856Y-99083390D01*
X157014285Y-98654819D02*
X157585713Y-99226247D01*
X133866666Y-67559580D02*
X133914285Y-67607200D01*
X133914285Y-67607200D02*
X134057142Y-67654819D01*
X134057142Y-67654819D02*
X134152380Y-67654819D01*
X134152380Y-67654819D02*
X134295237Y-67607200D01*
X134295237Y-67607200D02*
X134390475Y-67511961D01*
X134390475Y-67511961D02*
X134438094Y-67416723D01*
X134438094Y-67416723D02*
X134485713Y-67226247D01*
X134485713Y-67226247D02*
X134485713Y-67083390D01*
X134485713Y-67083390D02*
X134438094Y-66892914D01*
X134438094Y-66892914D02*
X134390475Y-66797676D01*
X134390475Y-66797676D02*
X134295237Y-66702438D01*
X134295237Y-66702438D02*
X134152380Y-66654819D01*
X134152380Y-66654819D02*
X134057142Y-66654819D01*
X134057142Y-66654819D02*
X133914285Y-66702438D01*
X133914285Y-66702438D02*
X133866666Y-66750057D01*
X133295237Y-67083390D02*
X133390475Y-67035771D01*
X133390475Y-67035771D02*
X133438094Y-66988152D01*
X133438094Y-66988152D02*
X133485713Y-66892914D01*
X133485713Y-66892914D02*
X133485713Y-66845295D01*
X133485713Y-66845295D02*
X133438094Y-66750057D01*
X133438094Y-66750057D02*
X133390475Y-66702438D01*
X133390475Y-66702438D02*
X133295237Y-66654819D01*
X133295237Y-66654819D02*
X133104761Y-66654819D01*
X133104761Y-66654819D02*
X133009523Y-66702438D01*
X133009523Y-66702438D02*
X132961904Y-66750057D01*
X132961904Y-66750057D02*
X132914285Y-66845295D01*
X132914285Y-66845295D02*
X132914285Y-66892914D01*
X132914285Y-66892914D02*
X132961904Y-66988152D01*
X132961904Y-66988152D02*
X133009523Y-67035771D01*
X133009523Y-67035771D02*
X133104761Y-67083390D01*
X133104761Y-67083390D02*
X133295237Y-67083390D01*
X133295237Y-67083390D02*
X133390475Y-67131009D01*
X133390475Y-67131009D02*
X133438094Y-67178628D01*
X133438094Y-67178628D02*
X133485713Y-67273866D01*
X133485713Y-67273866D02*
X133485713Y-67464342D01*
X133485713Y-67464342D02*
X133438094Y-67559580D01*
X133438094Y-67559580D02*
X133390475Y-67607200D01*
X133390475Y-67607200D02*
X133295237Y-67654819D01*
X133295237Y-67654819D02*
X133104761Y-67654819D01*
X133104761Y-67654819D02*
X133009523Y-67607200D01*
X133009523Y-67607200D02*
X132961904Y-67559580D01*
X132961904Y-67559580D02*
X132914285Y-67464342D01*
X132914285Y-67464342D02*
X132914285Y-67273866D01*
X132914285Y-67273866D02*
X132961904Y-67178628D01*
X132961904Y-67178628D02*
X133009523Y-67131009D01*
X133009523Y-67131009D02*
X133104761Y-67083390D01*
X134114285Y-67854819D02*
X134019047Y-67854819D01*
X134019047Y-67854819D02*
X133923809Y-67902438D01*
X133923809Y-67902438D02*
X133876190Y-67950057D01*
X133876190Y-67950057D02*
X133828571Y-68045295D01*
X133828571Y-68045295D02*
X133780952Y-68235771D01*
X133780952Y-68235771D02*
X133780952Y-68473866D01*
X133780952Y-68473866D02*
X133828571Y-68664342D01*
X133828571Y-68664342D02*
X133876190Y-68759580D01*
X133876190Y-68759580D02*
X133923809Y-68807200D01*
X133923809Y-68807200D02*
X134019047Y-68854819D01*
X134019047Y-68854819D02*
X134114285Y-68854819D01*
X134114285Y-68854819D02*
X134209523Y-68807200D01*
X134209523Y-68807200D02*
X134257142Y-68759580D01*
X134257142Y-68759580D02*
X134304761Y-68664342D01*
X134304761Y-68664342D02*
X134352380Y-68473866D01*
X134352380Y-68473866D02*
X134352380Y-68235771D01*
X134352380Y-68235771D02*
X134304761Y-68045295D01*
X134304761Y-68045295D02*
X134257142Y-67950057D01*
X134257142Y-67950057D02*
X134209523Y-67902438D01*
X134209523Y-67902438D02*
X134114285Y-67854819D01*
X133352380Y-68759580D02*
X133304761Y-68807200D01*
X133304761Y-68807200D02*
X133352380Y-68854819D01*
X133352380Y-68854819D02*
X133399999Y-68807200D01*
X133399999Y-68807200D02*
X133352380Y-68759580D01*
X133352380Y-68759580D02*
X133352380Y-68854819D01*
X132352381Y-68854819D02*
X132923809Y-68854819D01*
X132638095Y-68854819D02*
X132638095Y-67854819D01*
X132638095Y-67854819D02*
X132733333Y-67997676D01*
X132733333Y-67997676D02*
X132828571Y-68092914D01*
X132828571Y-68092914D02*
X132923809Y-68140533D01*
X131495238Y-68188152D02*
X131495238Y-68854819D01*
X131923809Y-68188152D02*
X131923809Y-68711961D01*
X131923809Y-68711961D02*
X131876190Y-68807200D01*
X131876190Y-68807200D02*
X131780952Y-68854819D01*
X131780952Y-68854819D02*
X131638095Y-68854819D01*
X131638095Y-68854819D02*
X131542857Y-68807200D01*
X131542857Y-68807200D02*
X131495238Y-68759580D01*
X69829580Y-102483333D02*
X69877200Y-102435714D01*
X69877200Y-102435714D02*
X69924819Y-102292857D01*
X69924819Y-102292857D02*
X69924819Y-102197619D01*
X69924819Y-102197619D02*
X69877200Y-102054762D01*
X69877200Y-102054762D02*
X69781961Y-101959524D01*
X69781961Y-101959524D02*
X69686723Y-101911905D01*
X69686723Y-101911905D02*
X69496247Y-101864286D01*
X69496247Y-101864286D02*
X69353390Y-101864286D01*
X69353390Y-101864286D02*
X69162914Y-101911905D01*
X69162914Y-101911905D02*
X69067676Y-101959524D01*
X69067676Y-101959524D02*
X68972438Y-102054762D01*
X68972438Y-102054762D02*
X68924819Y-102197619D01*
X68924819Y-102197619D02*
X68924819Y-102292857D01*
X68924819Y-102292857D02*
X68972438Y-102435714D01*
X68972438Y-102435714D02*
X69020057Y-102483333D01*
X68924819Y-103340476D02*
X68924819Y-103150000D01*
X68924819Y-103150000D02*
X68972438Y-103054762D01*
X68972438Y-103054762D02*
X69020057Y-103007143D01*
X69020057Y-103007143D02*
X69162914Y-102911905D01*
X69162914Y-102911905D02*
X69353390Y-102864286D01*
X69353390Y-102864286D02*
X69734342Y-102864286D01*
X69734342Y-102864286D02*
X69829580Y-102911905D01*
X69829580Y-102911905D02*
X69877200Y-102959524D01*
X69877200Y-102959524D02*
X69924819Y-103054762D01*
X69924819Y-103054762D02*
X69924819Y-103245238D01*
X69924819Y-103245238D02*
X69877200Y-103340476D01*
X69877200Y-103340476D02*
X69829580Y-103388095D01*
X69829580Y-103388095D02*
X69734342Y-103435714D01*
X69734342Y-103435714D02*
X69496247Y-103435714D01*
X69496247Y-103435714D02*
X69401009Y-103388095D01*
X69401009Y-103388095D02*
X69353390Y-103340476D01*
X69353390Y-103340476D02*
X69305771Y-103245238D01*
X69305771Y-103245238D02*
X69305771Y-103054762D01*
X69305771Y-103054762D02*
X69353390Y-102959524D01*
X69353390Y-102959524D02*
X69401009Y-102911905D01*
X69401009Y-102911905D02*
X69496247Y-102864286D01*
X149250304Y-83935219D02*
X149250304Y-84744742D01*
X149250304Y-84744742D02*
X149202685Y-84839980D01*
X149202685Y-84839980D02*
X149155066Y-84887600D01*
X149155066Y-84887600D02*
X149059828Y-84935219D01*
X149059828Y-84935219D02*
X148869352Y-84935219D01*
X148869352Y-84935219D02*
X148774114Y-84887600D01*
X148774114Y-84887600D02*
X148726495Y-84839980D01*
X148726495Y-84839980D02*
X148678876Y-84744742D01*
X148678876Y-84744742D02*
X148678876Y-83935219D01*
X147678876Y-84935219D02*
X148250304Y-84935219D01*
X147964590Y-84935219D02*
X147964590Y-83935219D01*
X147964590Y-83935219D02*
X148059828Y-84078076D01*
X148059828Y-84078076D02*
X148155066Y-84173314D01*
X148155066Y-84173314D02*
X148250304Y-84220933D01*
X168362104Y-79460094D02*
X168362104Y-79936284D01*
X168647819Y-79364856D02*
X167647819Y-79698189D01*
X167647819Y-79698189D02*
X168647819Y-80031522D01*
X167981152Y-80364856D02*
X168647819Y-80364856D01*
X168076390Y-80364856D02*
X168028771Y-80412475D01*
X168028771Y-80412475D02*
X167981152Y-80507713D01*
X167981152Y-80507713D02*
X167981152Y-80650570D01*
X167981152Y-80650570D02*
X168028771Y-80745808D01*
X168028771Y-80745808D02*
X168124009Y-80793427D01*
X168124009Y-80793427D02*
X168647819Y-80793427D01*
X167981152Y-81126761D02*
X167981152Y-81507713D01*
X167647819Y-81269618D02*
X168504961Y-81269618D01*
X168504961Y-81269618D02*
X168600200Y-81317237D01*
X168600200Y-81317237D02*
X168647819Y-81412475D01*
X168647819Y-81412475D02*
X168647819Y-81507713D01*
X168600200Y-82221999D02*
X168647819Y-82126761D01*
X168647819Y-82126761D02*
X168647819Y-81936285D01*
X168647819Y-81936285D02*
X168600200Y-81841047D01*
X168600200Y-81841047D02*
X168504961Y-81793428D01*
X168504961Y-81793428D02*
X168124009Y-81793428D01*
X168124009Y-81793428D02*
X168028771Y-81841047D01*
X168028771Y-81841047D02*
X167981152Y-81936285D01*
X167981152Y-81936285D02*
X167981152Y-82126761D01*
X167981152Y-82126761D02*
X168028771Y-82221999D01*
X168028771Y-82221999D02*
X168124009Y-82269618D01*
X168124009Y-82269618D02*
X168219247Y-82269618D01*
X168219247Y-82269618D02*
X168314485Y-81793428D01*
X167981152Y-82698190D02*
X168647819Y-82698190D01*
X168076390Y-82698190D02*
X168028771Y-82745809D01*
X168028771Y-82745809D02*
X167981152Y-82841047D01*
X167981152Y-82841047D02*
X167981152Y-82983904D01*
X167981152Y-82983904D02*
X168028771Y-83079142D01*
X168028771Y-83079142D02*
X168124009Y-83126761D01*
X168124009Y-83126761D02*
X168647819Y-83126761D01*
X167981152Y-83602952D02*
X168647819Y-83602952D01*
X168076390Y-83602952D02*
X168028771Y-83650571D01*
X168028771Y-83650571D02*
X167981152Y-83745809D01*
X167981152Y-83745809D02*
X167981152Y-83888666D01*
X167981152Y-83888666D02*
X168028771Y-83983904D01*
X168028771Y-83983904D02*
X168124009Y-84031523D01*
X168124009Y-84031523D02*
X168647819Y-84031523D01*
X168647819Y-84936285D02*
X168124009Y-84936285D01*
X168124009Y-84936285D02*
X168028771Y-84888666D01*
X168028771Y-84888666D02*
X167981152Y-84793428D01*
X167981152Y-84793428D02*
X167981152Y-84602952D01*
X167981152Y-84602952D02*
X168028771Y-84507714D01*
X168600200Y-84936285D02*
X168647819Y-84841047D01*
X168647819Y-84841047D02*
X168647819Y-84602952D01*
X168647819Y-84602952D02*
X168600200Y-84507714D01*
X168600200Y-84507714D02*
X168504961Y-84460095D01*
X168504961Y-84460095D02*
X168409723Y-84460095D01*
X168409723Y-84460095D02*
X168314485Y-84507714D01*
X168314485Y-84507714D02*
X168266866Y-84602952D01*
X168266866Y-84602952D02*
X168266866Y-84841047D01*
X168266866Y-84841047D02*
X168219247Y-84936285D01*
X168362104Y-86126762D02*
X168362104Y-86602952D01*
X168647819Y-86031524D02*
X167647819Y-86364857D01*
X167647819Y-86364857D02*
X168647819Y-86698190D01*
X168647819Y-87031524D02*
X167981152Y-87031524D01*
X168171628Y-87031524D02*
X168076390Y-87079143D01*
X168076390Y-87079143D02*
X168028771Y-87126762D01*
X168028771Y-87126762D02*
X167981152Y-87222000D01*
X167981152Y-87222000D02*
X167981152Y-87317238D01*
X168600200Y-88031524D02*
X168647819Y-87936286D01*
X168647819Y-87936286D02*
X168647819Y-87745810D01*
X168647819Y-87745810D02*
X168600200Y-87650572D01*
X168600200Y-87650572D02*
X168504961Y-87602953D01*
X168504961Y-87602953D02*
X168124009Y-87602953D01*
X168124009Y-87602953D02*
X168028771Y-87650572D01*
X168028771Y-87650572D02*
X167981152Y-87745810D01*
X167981152Y-87745810D02*
X167981152Y-87936286D01*
X167981152Y-87936286D02*
X168028771Y-88031524D01*
X168028771Y-88031524D02*
X168124009Y-88079143D01*
X168124009Y-88079143D02*
X168219247Y-88079143D01*
X168219247Y-88079143D02*
X168314485Y-87602953D01*
X168647819Y-88936286D02*
X168124009Y-88936286D01*
X168124009Y-88936286D02*
X168028771Y-88888667D01*
X168028771Y-88888667D02*
X167981152Y-88793429D01*
X167981152Y-88793429D02*
X167981152Y-88602953D01*
X167981152Y-88602953D02*
X168028771Y-88507715D01*
X168600200Y-88936286D02*
X168647819Y-88841048D01*
X168647819Y-88841048D02*
X168647819Y-88602953D01*
X168647819Y-88602953D02*
X168600200Y-88507715D01*
X168600200Y-88507715D02*
X168504961Y-88460096D01*
X168504961Y-88460096D02*
X168409723Y-88460096D01*
X168409723Y-88460096D02*
X168314485Y-88507715D01*
X168314485Y-88507715D02*
X168266866Y-88602953D01*
X168266866Y-88602953D02*
X168266866Y-88841048D01*
X168266866Y-88841048D02*
X168219247Y-88936286D01*
X163177457Y-117021780D02*
X163225076Y-117069400D01*
X163225076Y-117069400D02*
X163367933Y-117117019D01*
X163367933Y-117117019D02*
X163463171Y-117117019D01*
X163463171Y-117117019D02*
X163606028Y-117069400D01*
X163606028Y-117069400D02*
X163701266Y-116974161D01*
X163701266Y-116974161D02*
X163748885Y-116878923D01*
X163748885Y-116878923D02*
X163796504Y-116688447D01*
X163796504Y-116688447D02*
X163796504Y-116545590D01*
X163796504Y-116545590D02*
X163748885Y-116355114D01*
X163748885Y-116355114D02*
X163701266Y-116259876D01*
X163701266Y-116259876D02*
X163606028Y-116164638D01*
X163606028Y-116164638D02*
X163463171Y-116117019D01*
X163463171Y-116117019D02*
X163367933Y-116117019D01*
X163367933Y-116117019D02*
X163225076Y-116164638D01*
X163225076Y-116164638D02*
X163177457Y-116212257D01*
X162225076Y-117117019D02*
X162796504Y-117117019D01*
X162510790Y-117117019D02*
X162510790Y-116117019D01*
X162510790Y-116117019D02*
X162606028Y-116259876D01*
X162606028Y-116259876D02*
X162701266Y-116355114D01*
X162701266Y-116355114D02*
X162796504Y-116402733D01*
X161844123Y-116212257D02*
X161796504Y-116164638D01*
X161796504Y-116164638D02*
X161701266Y-116117019D01*
X161701266Y-116117019D02*
X161463171Y-116117019D01*
X161463171Y-116117019D02*
X161367933Y-116164638D01*
X161367933Y-116164638D02*
X161320314Y-116212257D01*
X161320314Y-116212257D02*
X161272695Y-116307495D01*
X161272695Y-116307495D02*
X161272695Y-116402733D01*
X161272695Y-116402733D02*
X161320314Y-116545590D01*
X161320314Y-116545590D02*
X161891742Y-117117019D01*
X161891742Y-117117019D02*
X161272695Y-117117019D01*
X165187000Y-117821952D02*
X165187000Y-118488619D01*
X165425095Y-117441000D02*
X165663190Y-118155285D01*
X165663190Y-118155285D02*
X165044143Y-118155285D01*
X164758428Y-117488619D02*
X164091762Y-117488619D01*
X164091762Y-117488619D02*
X164520333Y-118488619D01*
X163282238Y-117821952D02*
X163282238Y-118488619D01*
X163710809Y-117821952D02*
X163710809Y-118345761D01*
X163710809Y-118345761D02*
X163663190Y-118441000D01*
X163663190Y-118441000D02*
X163567952Y-118488619D01*
X163567952Y-118488619D02*
X163425095Y-118488619D01*
X163425095Y-118488619D02*
X163329857Y-118441000D01*
X163329857Y-118441000D02*
X163282238Y-118393380D01*
X161520333Y-118488619D02*
X162091761Y-118488619D01*
X161806047Y-118488619D02*
X161806047Y-117488619D01*
X161806047Y-117488619D02*
X161901285Y-117631476D01*
X161901285Y-117631476D02*
X161996523Y-117726714D01*
X161996523Y-117726714D02*
X162091761Y-117774333D01*
X160663190Y-117488619D02*
X160853666Y-117488619D01*
X160853666Y-117488619D02*
X160948904Y-117536238D01*
X160948904Y-117536238D02*
X160996523Y-117583857D01*
X160996523Y-117583857D02*
X161091761Y-117726714D01*
X161091761Y-117726714D02*
X161139380Y-117917190D01*
X161139380Y-117917190D02*
X161139380Y-118298142D01*
X161139380Y-118298142D02*
X161091761Y-118393380D01*
X161091761Y-118393380D02*
X161044142Y-118441000D01*
X161044142Y-118441000D02*
X160948904Y-118488619D01*
X160948904Y-118488619D02*
X160758428Y-118488619D01*
X160758428Y-118488619D02*
X160663190Y-118441000D01*
X160663190Y-118441000D02*
X160615571Y-118393380D01*
X160615571Y-118393380D02*
X160567952Y-118298142D01*
X160567952Y-118298142D02*
X160567952Y-118060047D01*
X160567952Y-118060047D02*
X160615571Y-117964809D01*
X160615571Y-117964809D02*
X160663190Y-117917190D01*
X160663190Y-117917190D02*
X160758428Y-117869571D01*
X160758428Y-117869571D02*
X160948904Y-117869571D01*
X160948904Y-117869571D02*
X161044142Y-117917190D01*
X161044142Y-117917190D02*
X161091761Y-117964809D01*
X161091761Y-117964809D02*
X161139380Y-118060047D01*
X160282237Y-117488619D02*
X159948904Y-118488619D01*
X159948904Y-118488619D02*
X159615571Y-117488619D01*
X148869132Y-104061200D02*
X148726275Y-104108819D01*
X148726275Y-104108819D02*
X148488180Y-104108819D01*
X148488180Y-104108819D02*
X148392942Y-104061200D01*
X148392942Y-104061200D02*
X148345323Y-104013580D01*
X148345323Y-104013580D02*
X148297704Y-103918342D01*
X148297704Y-103918342D02*
X148297704Y-103823104D01*
X148297704Y-103823104D02*
X148345323Y-103727866D01*
X148345323Y-103727866D02*
X148392942Y-103680247D01*
X148392942Y-103680247D02*
X148488180Y-103632628D01*
X148488180Y-103632628D02*
X148678656Y-103585009D01*
X148678656Y-103585009D02*
X148773894Y-103537390D01*
X148773894Y-103537390D02*
X148821513Y-103489771D01*
X148821513Y-103489771D02*
X148869132Y-103394533D01*
X148869132Y-103394533D02*
X148869132Y-103299295D01*
X148869132Y-103299295D02*
X148821513Y-103204057D01*
X148821513Y-103204057D02*
X148773894Y-103156438D01*
X148773894Y-103156438D02*
X148678656Y-103108819D01*
X148678656Y-103108819D02*
X148440561Y-103108819D01*
X148440561Y-103108819D02*
X148297704Y-103156438D01*
X147964370Y-103108819D02*
X147726275Y-104108819D01*
X147726275Y-104108819D02*
X147535799Y-103394533D01*
X147535799Y-103394533D02*
X147345323Y-104108819D01*
X147345323Y-104108819D02*
X147107228Y-103108819D01*
X146773894Y-103204057D02*
X146726275Y-103156438D01*
X146726275Y-103156438D02*
X146631037Y-103108819D01*
X146631037Y-103108819D02*
X146392942Y-103108819D01*
X146392942Y-103108819D02*
X146297704Y-103156438D01*
X146297704Y-103156438D02*
X146250085Y-103204057D01*
X146250085Y-103204057D02*
X146202466Y-103299295D01*
X146202466Y-103299295D02*
X146202466Y-103394533D01*
X146202466Y-103394533D02*
X146250085Y-103537390D01*
X146250085Y-103537390D02*
X146821513Y-104108819D01*
X146821513Y-104108819D02*
X146202466Y-104108819D01*
X148988181Y-95908819D02*
X149321514Y-95432628D01*
X149559609Y-95908819D02*
X149559609Y-94908819D01*
X149559609Y-94908819D02*
X149178657Y-94908819D01*
X149178657Y-94908819D02*
X149083419Y-94956438D01*
X149083419Y-94956438D02*
X149035800Y-95004057D01*
X149035800Y-95004057D02*
X148988181Y-95099295D01*
X148988181Y-95099295D02*
X148988181Y-95242152D01*
X148988181Y-95242152D02*
X149035800Y-95337390D01*
X149035800Y-95337390D02*
X149083419Y-95385009D01*
X149083419Y-95385009D02*
X149178657Y-95432628D01*
X149178657Y-95432628D02*
X149559609Y-95432628D01*
X148559609Y-95385009D02*
X148226276Y-95385009D01*
X148083419Y-95908819D02*
X148559609Y-95908819D01*
X148559609Y-95908819D02*
X148559609Y-94908819D01*
X148559609Y-94908819D02*
X148083419Y-94908819D01*
X147702466Y-95861200D02*
X147559609Y-95908819D01*
X147559609Y-95908819D02*
X147321514Y-95908819D01*
X147321514Y-95908819D02*
X147226276Y-95861200D01*
X147226276Y-95861200D02*
X147178657Y-95813580D01*
X147178657Y-95813580D02*
X147131038Y-95718342D01*
X147131038Y-95718342D02*
X147131038Y-95623104D01*
X147131038Y-95623104D02*
X147178657Y-95527866D01*
X147178657Y-95527866D02*
X147226276Y-95480247D01*
X147226276Y-95480247D02*
X147321514Y-95432628D01*
X147321514Y-95432628D02*
X147511990Y-95385009D01*
X147511990Y-95385009D02*
X147607228Y-95337390D01*
X147607228Y-95337390D02*
X147654847Y-95289771D01*
X147654847Y-95289771D02*
X147702466Y-95194533D01*
X147702466Y-95194533D02*
X147702466Y-95099295D01*
X147702466Y-95099295D02*
X147654847Y-95004057D01*
X147654847Y-95004057D02*
X147607228Y-94956438D01*
X147607228Y-94956438D02*
X147511990Y-94908819D01*
X147511990Y-94908819D02*
X147273895Y-94908819D01*
X147273895Y-94908819D02*
X147131038Y-94956438D01*
X146702466Y-95385009D02*
X146369133Y-95385009D01*
X146226276Y-95908819D02*
X146702466Y-95908819D01*
X146702466Y-95908819D02*
X146702466Y-94908819D01*
X146702466Y-94908819D02*
X146226276Y-94908819D01*
X145940561Y-94908819D02*
X145369133Y-94908819D01*
X145654847Y-95908819D02*
X145654847Y-94908819D01*
X158061904Y-117254819D02*
X158061904Y-118064342D01*
X158061904Y-118064342D02*
X158014285Y-118159580D01*
X158014285Y-118159580D02*
X157966666Y-118207200D01*
X157966666Y-118207200D02*
X157871428Y-118254819D01*
X157871428Y-118254819D02*
X157680952Y-118254819D01*
X157680952Y-118254819D02*
X157585714Y-118207200D01*
X157585714Y-118207200D02*
X157538095Y-118159580D01*
X157538095Y-118159580D02*
X157490476Y-118064342D01*
X157490476Y-118064342D02*
X157490476Y-117254819D01*
X156585714Y-117588152D02*
X156585714Y-118254819D01*
X156823809Y-117207200D02*
X157061904Y-117921485D01*
X157061904Y-117921485D02*
X156442857Y-117921485D01*
X158899999Y-119269104D02*
X158423809Y-119269104D01*
X158995237Y-119554819D02*
X158661904Y-118554819D01*
X158661904Y-118554819D02*
X158328571Y-119554819D01*
X157995237Y-119554819D02*
X157995237Y-118554819D01*
X157995237Y-118554819D02*
X157661904Y-119269104D01*
X157661904Y-119269104D02*
X157328571Y-118554819D01*
X157328571Y-118554819D02*
X157328571Y-119554819D01*
X156899999Y-119507200D02*
X156757142Y-119554819D01*
X156757142Y-119554819D02*
X156519047Y-119554819D01*
X156519047Y-119554819D02*
X156423809Y-119507200D01*
X156423809Y-119507200D02*
X156376190Y-119459580D01*
X156376190Y-119459580D02*
X156328571Y-119364342D01*
X156328571Y-119364342D02*
X156328571Y-119269104D01*
X156328571Y-119269104D02*
X156376190Y-119173866D01*
X156376190Y-119173866D02*
X156423809Y-119126247D01*
X156423809Y-119126247D02*
X156519047Y-119078628D01*
X156519047Y-119078628D02*
X156709523Y-119031009D01*
X156709523Y-119031009D02*
X156804761Y-118983390D01*
X156804761Y-118983390D02*
X156852380Y-118935771D01*
X156852380Y-118935771D02*
X156899999Y-118840533D01*
X156899999Y-118840533D02*
X156899999Y-118745295D01*
X156899999Y-118745295D02*
X156852380Y-118650057D01*
X156852380Y-118650057D02*
X156804761Y-118602438D01*
X156804761Y-118602438D02*
X156709523Y-118554819D01*
X156709523Y-118554819D02*
X156471428Y-118554819D01*
X156471428Y-118554819D02*
X156328571Y-118602438D01*
X155376190Y-119554819D02*
X155947618Y-119554819D01*
X155661904Y-119554819D02*
X155661904Y-118554819D01*
X155661904Y-118554819D02*
X155757142Y-118697676D01*
X155757142Y-118697676D02*
X155852380Y-118792914D01*
X155852380Y-118792914D02*
X155947618Y-118840533D01*
X154423809Y-119554819D02*
X154995237Y-119554819D01*
X154709523Y-119554819D02*
X154709523Y-118554819D01*
X154709523Y-118554819D02*
X154804761Y-118697676D01*
X154804761Y-118697676D02*
X154899999Y-118792914D01*
X154899999Y-118792914D02*
X154995237Y-118840533D01*
X153471428Y-119554819D02*
X154042856Y-119554819D01*
X153757142Y-119554819D02*
X153757142Y-118554819D01*
X153757142Y-118554819D02*
X153852380Y-118697676D01*
X153852380Y-118697676D02*
X153947618Y-118792914D01*
X153947618Y-118792914D02*
X154042856Y-118840533D01*
X153138094Y-118554819D02*
X152471428Y-118554819D01*
X152471428Y-118554819D02*
X152899999Y-119554819D01*
X152090475Y-119173866D02*
X151328571Y-119173866D01*
X150947618Y-118554819D02*
X150328571Y-118554819D01*
X150328571Y-118554819D02*
X150661904Y-118935771D01*
X150661904Y-118935771D02*
X150519047Y-118935771D01*
X150519047Y-118935771D02*
X150423809Y-118983390D01*
X150423809Y-118983390D02*
X150376190Y-119031009D01*
X150376190Y-119031009D02*
X150328571Y-119126247D01*
X150328571Y-119126247D02*
X150328571Y-119364342D01*
X150328571Y-119364342D02*
X150376190Y-119459580D01*
X150376190Y-119459580D02*
X150423809Y-119507200D01*
X150423809Y-119507200D02*
X150519047Y-119554819D01*
X150519047Y-119554819D02*
X150804761Y-119554819D01*
X150804761Y-119554819D02*
X150899999Y-119507200D01*
X150899999Y-119507200D02*
X150947618Y-119459580D01*
X149899999Y-119459580D02*
X149852380Y-119507200D01*
X149852380Y-119507200D02*
X149899999Y-119554819D01*
X149899999Y-119554819D02*
X149947618Y-119507200D01*
X149947618Y-119507200D02*
X149899999Y-119459580D01*
X149899999Y-119459580D02*
X149899999Y-119554819D01*
X149519047Y-118554819D02*
X148900000Y-118554819D01*
X148900000Y-118554819D02*
X149233333Y-118935771D01*
X149233333Y-118935771D02*
X149090476Y-118935771D01*
X149090476Y-118935771D02*
X148995238Y-118983390D01*
X148995238Y-118983390D02*
X148947619Y-119031009D01*
X148947619Y-119031009D02*
X148900000Y-119126247D01*
X148900000Y-119126247D02*
X148900000Y-119364342D01*
X148900000Y-119364342D02*
X148947619Y-119459580D01*
X148947619Y-119459580D02*
X148995238Y-119507200D01*
X148995238Y-119507200D02*
X149090476Y-119554819D01*
X149090476Y-119554819D02*
X149376190Y-119554819D01*
X149376190Y-119554819D02*
X149471428Y-119507200D01*
X149471428Y-119507200D02*
X149519047Y-119459580D01*
X31353733Y-86661219D02*
X31353733Y-87375504D01*
X31353733Y-87375504D02*
X31401352Y-87518361D01*
X31401352Y-87518361D02*
X31496590Y-87613600D01*
X31496590Y-87613600D02*
X31639447Y-87661219D01*
X31639447Y-87661219D02*
X31734685Y-87661219D01*
X30448971Y-86994552D02*
X30448971Y-87661219D01*
X30687066Y-86613600D02*
X30925161Y-87327885D01*
X30925161Y-87327885D02*
X30306114Y-87327885D01*
X31544208Y-79491219D02*
X31544208Y-78491219D01*
X31068018Y-79491219D02*
X31068018Y-78491219D01*
X31068018Y-78491219D02*
X30496590Y-79491219D01*
X30496590Y-79491219D02*
X30496590Y-78491219D01*
X139742857Y-100559580D02*
X139790476Y-100607200D01*
X139790476Y-100607200D02*
X139933333Y-100654819D01*
X139933333Y-100654819D02*
X140028571Y-100654819D01*
X140028571Y-100654819D02*
X140171428Y-100607200D01*
X140171428Y-100607200D02*
X140266666Y-100511961D01*
X140266666Y-100511961D02*
X140314285Y-100416723D01*
X140314285Y-100416723D02*
X140361904Y-100226247D01*
X140361904Y-100226247D02*
X140361904Y-100083390D01*
X140361904Y-100083390D02*
X140314285Y-99892914D01*
X140314285Y-99892914D02*
X140266666Y-99797676D01*
X140266666Y-99797676D02*
X140171428Y-99702438D01*
X140171428Y-99702438D02*
X140028571Y-99654819D01*
X140028571Y-99654819D02*
X139933333Y-99654819D01*
X139933333Y-99654819D02*
X139790476Y-99702438D01*
X139790476Y-99702438D02*
X139742857Y-99750057D01*
X138790476Y-100654819D02*
X139361904Y-100654819D01*
X139076190Y-100654819D02*
X139076190Y-99654819D01*
X139076190Y-99654819D02*
X139171428Y-99797676D01*
X139171428Y-99797676D02*
X139266666Y-99892914D01*
X139266666Y-99892914D02*
X139361904Y-99940533D01*
X137933333Y-99988152D02*
X137933333Y-100654819D01*
X138171428Y-99607200D02*
X138409523Y-100321485D01*
X138409523Y-100321485D02*
X137790476Y-100321485D01*
X140114285Y-100954819D02*
X140019047Y-100954819D01*
X140019047Y-100954819D02*
X139923809Y-101002438D01*
X139923809Y-101002438D02*
X139876190Y-101050057D01*
X139876190Y-101050057D02*
X139828571Y-101145295D01*
X139828571Y-101145295D02*
X139780952Y-101335771D01*
X139780952Y-101335771D02*
X139780952Y-101573866D01*
X139780952Y-101573866D02*
X139828571Y-101764342D01*
X139828571Y-101764342D02*
X139876190Y-101859580D01*
X139876190Y-101859580D02*
X139923809Y-101907200D01*
X139923809Y-101907200D02*
X140019047Y-101954819D01*
X140019047Y-101954819D02*
X140114285Y-101954819D01*
X140114285Y-101954819D02*
X140209523Y-101907200D01*
X140209523Y-101907200D02*
X140257142Y-101859580D01*
X140257142Y-101859580D02*
X140304761Y-101764342D01*
X140304761Y-101764342D02*
X140352380Y-101573866D01*
X140352380Y-101573866D02*
X140352380Y-101335771D01*
X140352380Y-101335771D02*
X140304761Y-101145295D01*
X140304761Y-101145295D02*
X140257142Y-101050057D01*
X140257142Y-101050057D02*
X140209523Y-101002438D01*
X140209523Y-101002438D02*
X140114285Y-100954819D01*
X139352380Y-101859580D02*
X139304761Y-101907200D01*
X139304761Y-101907200D02*
X139352380Y-101954819D01*
X139352380Y-101954819D02*
X139399999Y-101907200D01*
X139399999Y-101907200D02*
X139352380Y-101859580D01*
X139352380Y-101859580D02*
X139352380Y-101954819D01*
X138352381Y-101954819D02*
X138923809Y-101954819D01*
X138638095Y-101954819D02*
X138638095Y-100954819D01*
X138638095Y-100954819D02*
X138733333Y-101097676D01*
X138733333Y-101097676D02*
X138828571Y-101192914D01*
X138828571Y-101192914D02*
X138923809Y-101240533D01*
X137495238Y-101288152D02*
X137495238Y-101954819D01*
X137923809Y-101288152D02*
X137923809Y-101811961D01*
X137923809Y-101811961D02*
X137876190Y-101907200D01*
X137876190Y-101907200D02*
X137780952Y-101954819D01*
X137780952Y-101954819D02*
X137638095Y-101954819D01*
X137638095Y-101954819D02*
X137542857Y-101907200D01*
X137542857Y-101907200D02*
X137495238Y-101859580D01*
X69133333Y-77254819D02*
X69133333Y-77969104D01*
X69133333Y-77969104D02*
X69180952Y-78111961D01*
X69180952Y-78111961D02*
X69276190Y-78207200D01*
X69276190Y-78207200D02*
X69419047Y-78254819D01*
X69419047Y-78254819D02*
X69514285Y-78254819D01*
X68752380Y-77254819D02*
X68085714Y-77254819D01*
X68085714Y-77254819D02*
X68514285Y-78254819D01*
X83761903Y-83754819D02*
X83761903Y-82754819D01*
X83761903Y-82754819D02*
X83428570Y-83469104D01*
X83428570Y-83469104D02*
X83095237Y-82754819D01*
X83095237Y-82754819D02*
X83095237Y-83754819D01*
X82619046Y-83754819D02*
X82619046Y-82754819D01*
X82142856Y-83754819D02*
X82142856Y-82754819D01*
X82142856Y-82754819D02*
X81571428Y-83754819D01*
X81571428Y-83754819D02*
X81571428Y-82754819D01*
X81095237Y-83754819D02*
X81095237Y-82754819D01*
X80142857Y-82754819D02*
X80619047Y-82754819D01*
X80619047Y-82754819D02*
X80666666Y-83231009D01*
X80666666Y-83231009D02*
X80619047Y-83183390D01*
X80619047Y-83183390D02*
X80523809Y-83135771D01*
X80523809Y-83135771D02*
X80285714Y-83135771D01*
X80285714Y-83135771D02*
X80190476Y-83183390D01*
X80190476Y-83183390D02*
X80142857Y-83231009D01*
X80142857Y-83231009D02*
X80095238Y-83326247D01*
X80095238Y-83326247D02*
X80095238Y-83564342D01*
X80095238Y-83564342D02*
X80142857Y-83659580D01*
X80142857Y-83659580D02*
X80190476Y-83707200D01*
X80190476Y-83707200D02*
X80285714Y-83754819D01*
X80285714Y-83754819D02*
X80523809Y-83754819D01*
X80523809Y-83754819D02*
X80619047Y-83707200D01*
X80619047Y-83707200D02*
X80666666Y-83659580D01*
X79238095Y-82754819D02*
X79428571Y-82754819D01*
X79428571Y-82754819D02*
X79523809Y-82802438D01*
X79523809Y-82802438D02*
X79571428Y-82850057D01*
X79571428Y-82850057D02*
X79666666Y-82992914D01*
X79666666Y-82992914D02*
X79714285Y-83183390D01*
X79714285Y-83183390D02*
X79714285Y-83564342D01*
X79714285Y-83564342D02*
X79666666Y-83659580D01*
X79666666Y-83659580D02*
X79619047Y-83707200D01*
X79619047Y-83707200D02*
X79523809Y-83754819D01*
X79523809Y-83754819D02*
X79333333Y-83754819D01*
X79333333Y-83754819D02*
X79238095Y-83707200D01*
X79238095Y-83707200D02*
X79190476Y-83659580D01*
X79190476Y-83659580D02*
X79142857Y-83564342D01*
X79142857Y-83564342D02*
X79142857Y-83326247D01*
X79142857Y-83326247D02*
X79190476Y-83231009D01*
X79190476Y-83231009D02*
X79238095Y-83183390D01*
X79238095Y-83183390D02*
X79333333Y-83135771D01*
X79333333Y-83135771D02*
X79523809Y-83135771D01*
X79523809Y-83135771D02*
X79619047Y-83183390D01*
X79619047Y-83183390D02*
X79666666Y-83231009D01*
X79666666Y-83231009D02*
X79714285Y-83326247D01*
X78523809Y-82754819D02*
X78428571Y-82754819D01*
X78428571Y-82754819D02*
X78333333Y-82802438D01*
X78333333Y-82802438D02*
X78285714Y-82850057D01*
X78285714Y-82850057D02*
X78238095Y-82945295D01*
X78238095Y-82945295D02*
X78190476Y-83135771D01*
X78190476Y-83135771D02*
X78190476Y-83373866D01*
X78190476Y-83373866D02*
X78238095Y-83564342D01*
X78238095Y-83564342D02*
X78285714Y-83659580D01*
X78285714Y-83659580D02*
X78333333Y-83707200D01*
X78333333Y-83707200D02*
X78428571Y-83754819D01*
X78428571Y-83754819D02*
X78523809Y-83754819D01*
X78523809Y-83754819D02*
X78619047Y-83707200D01*
X78619047Y-83707200D02*
X78666666Y-83659580D01*
X78666666Y-83659580D02*
X78714285Y-83564342D01*
X78714285Y-83564342D02*
X78761904Y-83373866D01*
X78761904Y-83373866D02*
X78761904Y-83135771D01*
X78761904Y-83135771D02*
X78714285Y-82945295D01*
X78714285Y-82945295D02*
X78666666Y-82850057D01*
X78666666Y-82850057D02*
X78619047Y-82802438D01*
X78619047Y-82802438D02*
X78523809Y-82754819D01*
X88423809Y-85354819D02*
X88423809Y-84354819D01*
X88423809Y-84354819D02*
X88090476Y-85069104D01*
X88090476Y-85069104D02*
X87757143Y-84354819D01*
X87757143Y-84354819D02*
X87757143Y-85354819D01*
X87280952Y-85354819D02*
X87280952Y-84688152D01*
X87280952Y-84354819D02*
X87328571Y-84402438D01*
X87328571Y-84402438D02*
X87280952Y-84450057D01*
X87280952Y-84450057D02*
X87233333Y-84402438D01*
X87233333Y-84402438D02*
X87280952Y-84354819D01*
X87280952Y-84354819D02*
X87280952Y-84450057D01*
X86804762Y-84688152D02*
X86804762Y-85354819D01*
X86804762Y-84783390D02*
X86757143Y-84735771D01*
X86757143Y-84735771D02*
X86661905Y-84688152D01*
X86661905Y-84688152D02*
X86519048Y-84688152D01*
X86519048Y-84688152D02*
X86423810Y-84735771D01*
X86423810Y-84735771D02*
X86376191Y-84831009D01*
X86376191Y-84831009D02*
X86376191Y-85354819D01*
X85900000Y-85354819D02*
X85900000Y-84688152D01*
X85900000Y-84354819D02*
X85947619Y-84402438D01*
X85947619Y-84402438D02*
X85900000Y-84450057D01*
X85900000Y-84450057D02*
X85852381Y-84402438D01*
X85852381Y-84402438D02*
X85900000Y-84354819D01*
X85900000Y-84354819D02*
X85900000Y-84450057D01*
X84947620Y-84354819D02*
X85423810Y-84354819D01*
X85423810Y-84354819D02*
X85471429Y-84831009D01*
X85471429Y-84831009D02*
X85423810Y-84783390D01*
X85423810Y-84783390D02*
X85328572Y-84735771D01*
X85328572Y-84735771D02*
X85090477Y-84735771D01*
X85090477Y-84735771D02*
X84995239Y-84783390D01*
X84995239Y-84783390D02*
X84947620Y-84831009D01*
X84947620Y-84831009D02*
X84900001Y-84926247D01*
X84900001Y-84926247D02*
X84900001Y-85164342D01*
X84900001Y-85164342D02*
X84947620Y-85259580D01*
X84947620Y-85259580D02*
X84995239Y-85307200D01*
X84995239Y-85307200D02*
X85090477Y-85354819D01*
X85090477Y-85354819D02*
X85328572Y-85354819D01*
X85328572Y-85354819D02*
X85423810Y-85307200D01*
X85423810Y-85307200D02*
X85471429Y-85259580D01*
X84042858Y-84354819D02*
X84233334Y-84354819D01*
X84233334Y-84354819D02*
X84328572Y-84402438D01*
X84328572Y-84402438D02*
X84376191Y-84450057D01*
X84376191Y-84450057D02*
X84471429Y-84592914D01*
X84471429Y-84592914D02*
X84519048Y-84783390D01*
X84519048Y-84783390D02*
X84519048Y-85164342D01*
X84519048Y-85164342D02*
X84471429Y-85259580D01*
X84471429Y-85259580D02*
X84423810Y-85307200D01*
X84423810Y-85307200D02*
X84328572Y-85354819D01*
X84328572Y-85354819D02*
X84138096Y-85354819D01*
X84138096Y-85354819D02*
X84042858Y-85307200D01*
X84042858Y-85307200D02*
X83995239Y-85259580D01*
X83995239Y-85259580D02*
X83947620Y-85164342D01*
X83947620Y-85164342D02*
X83947620Y-84926247D01*
X83947620Y-84926247D02*
X83995239Y-84831009D01*
X83995239Y-84831009D02*
X84042858Y-84783390D01*
X84042858Y-84783390D02*
X84138096Y-84735771D01*
X84138096Y-84735771D02*
X84328572Y-84735771D01*
X84328572Y-84735771D02*
X84423810Y-84783390D01*
X84423810Y-84783390D02*
X84471429Y-84831009D01*
X84471429Y-84831009D02*
X84519048Y-84926247D01*
X83328572Y-84354819D02*
X83233334Y-84354819D01*
X83233334Y-84354819D02*
X83138096Y-84402438D01*
X83138096Y-84402438D02*
X83090477Y-84450057D01*
X83090477Y-84450057D02*
X83042858Y-84545295D01*
X83042858Y-84545295D02*
X82995239Y-84735771D01*
X82995239Y-84735771D02*
X82995239Y-84973866D01*
X82995239Y-84973866D02*
X83042858Y-85164342D01*
X83042858Y-85164342D02*
X83090477Y-85259580D01*
X83090477Y-85259580D02*
X83138096Y-85307200D01*
X83138096Y-85307200D02*
X83233334Y-85354819D01*
X83233334Y-85354819D02*
X83328572Y-85354819D01*
X83328572Y-85354819D02*
X83423810Y-85307200D01*
X83423810Y-85307200D02*
X83471429Y-85259580D01*
X83471429Y-85259580D02*
X83519048Y-85164342D01*
X83519048Y-85164342D02*
X83566667Y-84973866D01*
X83566667Y-84973866D02*
X83566667Y-84735771D01*
X83566667Y-84735771D02*
X83519048Y-84545295D01*
X83519048Y-84545295D02*
X83471429Y-84450057D01*
X83471429Y-84450057D02*
X83423810Y-84402438D01*
X83423810Y-84402438D02*
X83328572Y-84354819D01*
X82804763Y-85450057D02*
X82042858Y-85450057D01*
X81804762Y-85354819D02*
X81804762Y-84354819D01*
X81804762Y-84354819D02*
X81566667Y-84354819D01*
X81566667Y-84354819D02*
X81423810Y-84402438D01*
X81423810Y-84402438D02*
X81328572Y-84497676D01*
X81328572Y-84497676D02*
X81280953Y-84592914D01*
X81280953Y-84592914D02*
X81233334Y-84783390D01*
X81233334Y-84783390D02*
X81233334Y-84926247D01*
X81233334Y-84926247D02*
X81280953Y-85116723D01*
X81280953Y-85116723D02*
X81328572Y-85211961D01*
X81328572Y-85211961D02*
X81423810Y-85307200D01*
X81423810Y-85307200D02*
X81566667Y-85354819D01*
X81566667Y-85354819D02*
X81804762Y-85354819D01*
X80233334Y-85259580D02*
X80280953Y-85307200D01*
X80280953Y-85307200D02*
X80423810Y-85354819D01*
X80423810Y-85354819D02*
X80519048Y-85354819D01*
X80519048Y-85354819D02*
X80661905Y-85307200D01*
X80661905Y-85307200D02*
X80757143Y-85211961D01*
X80757143Y-85211961D02*
X80804762Y-85116723D01*
X80804762Y-85116723D02*
X80852381Y-84926247D01*
X80852381Y-84926247D02*
X80852381Y-84783390D01*
X80852381Y-84783390D02*
X80804762Y-84592914D01*
X80804762Y-84592914D02*
X80757143Y-84497676D01*
X80757143Y-84497676D02*
X80661905Y-84402438D01*
X80661905Y-84402438D02*
X80519048Y-84354819D01*
X80519048Y-84354819D02*
X80423810Y-84354819D01*
X80423810Y-84354819D02*
X80280953Y-84402438D01*
X80280953Y-84402438D02*
X80233334Y-84450057D01*
X80042858Y-85450057D02*
X79280953Y-85450057D01*
X79090476Y-85307200D02*
X78947619Y-85354819D01*
X78947619Y-85354819D02*
X78709524Y-85354819D01*
X78709524Y-85354819D02*
X78614286Y-85307200D01*
X78614286Y-85307200D02*
X78566667Y-85259580D01*
X78566667Y-85259580D02*
X78519048Y-85164342D01*
X78519048Y-85164342D02*
X78519048Y-85069104D01*
X78519048Y-85069104D02*
X78566667Y-84973866D01*
X78566667Y-84973866D02*
X78614286Y-84926247D01*
X78614286Y-84926247D02*
X78709524Y-84878628D01*
X78709524Y-84878628D02*
X78900000Y-84831009D01*
X78900000Y-84831009D02*
X78995238Y-84783390D01*
X78995238Y-84783390D02*
X79042857Y-84735771D01*
X79042857Y-84735771D02*
X79090476Y-84640533D01*
X79090476Y-84640533D02*
X79090476Y-84545295D01*
X79090476Y-84545295D02*
X79042857Y-84450057D01*
X79042857Y-84450057D02*
X78995238Y-84402438D01*
X78995238Y-84402438D02*
X78900000Y-84354819D01*
X78900000Y-84354819D02*
X78661905Y-84354819D01*
X78661905Y-84354819D02*
X78519048Y-84402438D01*
X78233333Y-84688152D02*
X77852381Y-84688152D01*
X78090476Y-84354819D02*
X78090476Y-85211961D01*
X78090476Y-85211961D02*
X78042857Y-85307200D01*
X78042857Y-85307200D02*
X77947619Y-85354819D01*
X77947619Y-85354819D02*
X77852381Y-85354819D01*
X77138095Y-85307200D02*
X77233333Y-85354819D01*
X77233333Y-85354819D02*
X77423809Y-85354819D01*
X77423809Y-85354819D02*
X77519047Y-85307200D01*
X77519047Y-85307200D02*
X77566666Y-85211961D01*
X77566666Y-85211961D02*
X77566666Y-84831009D01*
X77566666Y-84831009D02*
X77519047Y-84735771D01*
X77519047Y-84735771D02*
X77423809Y-84688152D01*
X77423809Y-84688152D02*
X77233333Y-84688152D01*
X77233333Y-84688152D02*
X77138095Y-84735771D01*
X77138095Y-84735771D02*
X77090476Y-84831009D01*
X77090476Y-84831009D02*
X77090476Y-84926247D01*
X77090476Y-84926247D02*
X77566666Y-85021485D01*
X76661904Y-84688152D02*
X76661904Y-85688152D01*
X76661904Y-84735771D02*
X76566666Y-84688152D01*
X76566666Y-84688152D02*
X76376190Y-84688152D01*
X76376190Y-84688152D02*
X76280952Y-84735771D01*
X76280952Y-84735771D02*
X76233333Y-84783390D01*
X76233333Y-84783390D02*
X76185714Y-84878628D01*
X76185714Y-84878628D02*
X76185714Y-85164342D01*
X76185714Y-85164342D02*
X76233333Y-85259580D01*
X76233333Y-85259580D02*
X76280952Y-85307200D01*
X76280952Y-85307200D02*
X76376190Y-85354819D01*
X76376190Y-85354819D02*
X76566666Y-85354819D01*
X76566666Y-85354819D02*
X76661904Y-85307200D01*
X75757142Y-85354819D02*
X75757142Y-84354819D01*
X75757142Y-84354819D02*
X75519047Y-84354819D01*
X75519047Y-84354819D02*
X75376190Y-84402438D01*
X75376190Y-84402438D02*
X75280952Y-84497676D01*
X75280952Y-84497676D02*
X75233333Y-84592914D01*
X75233333Y-84592914D02*
X75185714Y-84783390D01*
X75185714Y-84783390D02*
X75185714Y-84926247D01*
X75185714Y-84926247D02*
X75233333Y-85116723D01*
X75233333Y-85116723D02*
X75280952Y-85211961D01*
X75280952Y-85211961D02*
X75376190Y-85307200D01*
X75376190Y-85307200D02*
X75519047Y-85354819D01*
X75519047Y-85354819D02*
X75757142Y-85354819D01*
X74614285Y-85354819D02*
X74709523Y-85307200D01*
X74709523Y-85307200D02*
X74757142Y-85259580D01*
X74757142Y-85259580D02*
X74804761Y-85164342D01*
X74804761Y-85164342D02*
X74804761Y-84878628D01*
X74804761Y-84878628D02*
X74757142Y-84783390D01*
X74757142Y-84783390D02*
X74709523Y-84735771D01*
X74709523Y-84735771D02*
X74614285Y-84688152D01*
X74614285Y-84688152D02*
X74471428Y-84688152D01*
X74471428Y-84688152D02*
X74376190Y-84735771D01*
X74376190Y-84735771D02*
X74328571Y-84783390D01*
X74328571Y-84783390D02*
X74280952Y-84878628D01*
X74280952Y-84878628D02*
X74280952Y-85164342D01*
X74280952Y-85164342D02*
X74328571Y-85259580D01*
X74328571Y-85259580D02*
X74376190Y-85307200D01*
X74376190Y-85307200D02*
X74471428Y-85354819D01*
X74471428Y-85354819D02*
X74614285Y-85354819D01*
X73947618Y-84688152D02*
X73757142Y-85354819D01*
X73757142Y-85354819D02*
X73566666Y-84878628D01*
X73566666Y-84878628D02*
X73376190Y-85354819D01*
X73376190Y-85354819D02*
X73185714Y-84688152D01*
X72804761Y-84688152D02*
X72804761Y-85354819D01*
X72804761Y-84783390D02*
X72757142Y-84735771D01*
X72757142Y-84735771D02*
X72661904Y-84688152D01*
X72661904Y-84688152D02*
X72519047Y-84688152D01*
X72519047Y-84688152D02*
X72423809Y-84735771D01*
X72423809Y-84735771D02*
X72376190Y-84831009D01*
X72376190Y-84831009D02*
X72376190Y-85354819D01*
X97726133Y-90180951D02*
X97726133Y-89419047D01*
X97345180Y-89799999D02*
X98107085Y-89799999D01*
X97726133Y-88180951D02*
X97726133Y-87419047D01*
X74538094Y-80731009D02*
X74204761Y-80731009D01*
X74061904Y-81254819D02*
X74538094Y-81254819D01*
X74538094Y-81254819D02*
X74538094Y-80254819D01*
X74538094Y-80254819D02*
X74061904Y-80254819D01*
X73633332Y-81254819D02*
X73633332Y-80254819D01*
X73633332Y-80254819D02*
X73061904Y-81254819D01*
X73061904Y-81254819D02*
X73061904Y-80254819D01*
D12*
X94800000Y-87709638D02*
X94419047Y-87709638D01*
X94419047Y-87709638D02*
X94228571Y-87804876D01*
X94228571Y-87804876D02*
X94038095Y-87995352D01*
X94038095Y-87995352D02*
X93942857Y-88376304D01*
X93942857Y-88376304D02*
X93942857Y-89042971D01*
X93942857Y-89042971D02*
X94038095Y-89423923D01*
X94038095Y-89423923D02*
X94228571Y-89614400D01*
X94228571Y-89614400D02*
X94419047Y-89709638D01*
X94419047Y-89709638D02*
X94800000Y-89709638D01*
X94800000Y-89709638D02*
X94990476Y-89614400D01*
X94990476Y-89614400D02*
X95180952Y-89423923D01*
X95180952Y-89423923D02*
X95276190Y-89042971D01*
X95276190Y-89042971D02*
X95276190Y-88376304D01*
X95276190Y-88376304D02*
X95180952Y-87995352D01*
X95180952Y-87995352D02*
X94990476Y-87804876D01*
X94990476Y-87804876D02*
X94800000Y-87709638D01*
X93085714Y-87709638D02*
X93085714Y-89328685D01*
X93085714Y-89328685D02*
X92990476Y-89519161D01*
X92990476Y-89519161D02*
X92895238Y-89614400D01*
X92895238Y-89614400D02*
X92704762Y-89709638D01*
X92704762Y-89709638D02*
X92323809Y-89709638D01*
X92323809Y-89709638D02*
X92133333Y-89614400D01*
X92133333Y-89614400D02*
X92038095Y-89519161D01*
X92038095Y-89519161D02*
X91942857Y-89328685D01*
X91942857Y-89328685D02*
X91942857Y-87709638D01*
X91276190Y-87709638D02*
X90133333Y-87709638D01*
X90704762Y-89709638D02*
X90704762Y-87709638D01*
X70847618Y-89709638D02*
X70847618Y-87709638D01*
X69895237Y-89709638D02*
X69895237Y-87709638D01*
X69895237Y-87709638D02*
X68752380Y-89709638D01*
X68752380Y-89709638D02*
X68752380Y-87709638D01*
D10*
X65726133Y-90180951D02*
X65726133Y-89419047D01*
X65345180Y-89799999D02*
X66107085Y-89799999D01*
X65726133Y-88180951D02*
X65726133Y-87419047D01*
X154642857Y-104159580D02*
X154690476Y-104207200D01*
X154690476Y-104207200D02*
X154833333Y-104254819D01*
X154833333Y-104254819D02*
X154928571Y-104254819D01*
X154928571Y-104254819D02*
X155071428Y-104207200D01*
X155071428Y-104207200D02*
X155166666Y-104111961D01*
X155166666Y-104111961D02*
X155214285Y-104016723D01*
X155214285Y-104016723D02*
X155261904Y-103826247D01*
X155261904Y-103826247D02*
X155261904Y-103683390D01*
X155261904Y-103683390D02*
X155214285Y-103492914D01*
X155214285Y-103492914D02*
X155166666Y-103397676D01*
X155166666Y-103397676D02*
X155071428Y-103302438D01*
X155071428Y-103302438D02*
X154928571Y-103254819D01*
X154928571Y-103254819D02*
X154833333Y-103254819D01*
X154833333Y-103254819D02*
X154690476Y-103302438D01*
X154690476Y-103302438D02*
X154642857Y-103350057D01*
X153690476Y-104254819D02*
X154261904Y-104254819D01*
X153976190Y-104254819D02*
X153976190Y-103254819D01*
X153976190Y-103254819D02*
X154071428Y-103397676D01*
X154071428Y-103397676D02*
X154166666Y-103492914D01*
X154166666Y-103492914D02*
X154261904Y-103540533D01*
X153357142Y-103254819D02*
X152738095Y-103254819D01*
X152738095Y-103254819D02*
X153071428Y-103635771D01*
X153071428Y-103635771D02*
X152928571Y-103635771D01*
X152928571Y-103635771D02*
X152833333Y-103683390D01*
X152833333Y-103683390D02*
X152785714Y-103731009D01*
X152785714Y-103731009D02*
X152738095Y-103826247D01*
X152738095Y-103826247D02*
X152738095Y-104064342D01*
X152738095Y-104064342D02*
X152785714Y-104159580D01*
X152785714Y-104159580D02*
X152833333Y-104207200D01*
X152833333Y-104207200D02*
X152928571Y-104254819D01*
X152928571Y-104254819D02*
X153214285Y-104254819D01*
X153214285Y-104254819D02*
X153309523Y-104207200D01*
X153309523Y-104207200D02*
X153357142Y-104159580D01*
X155014285Y-104454819D02*
X154919047Y-104454819D01*
X154919047Y-104454819D02*
X154823809Y-104502438D01*
X154823809Y-104502438D02*
X154776190Y-104550057D01*
X154776190Y-104550057D02*
X154728571Y-104645295D01*
X154728571Y-104645295D02*
X154680952Y-104835771D01*
X154680952Y-104835771D02*
X154680952Y-105073866D01*
X154680952Y-105073866D02*
X154728571Y-105264342D01*
X154728571Y-105264342D02*
X154776190Y-105359580D01*
X154776190Y-105359580D02*
X154823809Y-105407200D01*
X154823809Y-105407200D02*
X154919047Y-105454819D01*
X154919047Y-105454819D02*
X155014285Y-105454819D01*
X155014285Y-105454819D02*
X155109523Y-105407200D01*
X155109523Y-105407200D02*
X155157142Y-105359580D01*
X155157142Y-105359580D02*
X155204761Y-105264342D01*
X155204761Y-105264342D02*
X155252380Y-105073866D01*
X155252380Y-105073866D02*
X155252380Y-104835771D01*
X155252380Y-104835771D02*
X155204761Y-104645295D01*
X155204761Y-104645295D02*
X155157142Y-104550057D01*
X155157142Y-104550057D02*
X155109523Y-104502438D01*
X155109523Y-104502438D02*
X155014285Y-104454819D01*
X154252380Y-105359580D02*
X154204761Y-105407200D01*
X154204761Y-105407200D02*
X154252380Y-105454819D01*
X154252380Y-105454819D02*
X154299999Y-105407200D01*
X154299999Y-105407200D02*
X154252380Y-105359580D01*
X154252380Y-105359580D02*
X154252380Y-105454819D01*
X153252381Y-105454819D02*
X153823809Y-105454819D01*
X153538095Y-105454819D02*
X153538095Y-104454819D01*
X153538095Y-104454819D02*
X153633333Y-104597676D01*
X153633333Y-104597676D02*
X153728571Y-104692914D01*
X153728571Y-104692914D02*
X153823809Y-104740533D01*
X152395238Y-104788152D02*
X152395238Y-105454819D01*
X152823809Y-104788152D02*
X152823809Y-105311961D01*
X152823809Y-105311961D02*
X152776190Y-105407200D01*
X152776190Y-105407200D02*
X152680952Y-105454819D01*
X152680952Y-105454819D02*
X152538095Y-105454819D01*
X152538095Y-105454819D02*
X152442857Y-105407200D01*
X152442857Y-105407200D02*
X152395238Y-105359580D01*
X170666666Y-95859580D02*
X170714285Y-95907200D01*
X170714285Y-95907200D02*
X170857142Y-95954819D01*
X170857142Y-95954819D02*
X170952380Y-95954819D01*
X170952380Y-95954819D02*
X171095237Y-95907200D01*
X171095237Y-95907200D02*
X171190475Y-95811961D01*
X171190475Y-95811961D02*
X171238094Y-95716723D01*
X171238094Y-95716723D02*
X171285713Y-95526247D01*
X171285713Y-95526247D02*
X171285713Y-95383390D01*
X171285713Y-95383390D02*
X171238094Y-95192914D01*
X171238094Y-95192914D02*
X171190475Y-95097676D01*
X171190475Y-95097676D02*
X171095237Y-95002438D01*
X171095237Y-95002438D02*
X170952380Y-94954819D01*
X170952380Y-94954819D02*
X170857142Y-94954819D01*
X170857142Y-94954819D02*
X170714285Y-95002438D01*
X170714285Y-95002438D02*
X170666666Y-95050057D01*
X170190475Y-95954819D02*
X169999999Y-95954819D01*
X169999999Y-95954819D02*
X169904761Y-95907200D01*
X169904761Y-95907200D02*
X169857142Y-95859580D01*
X169857142Y-95859580D02*
X169761904Y-95716723D01*
X169761904Y-95716723D02*
X169714285Y-95526247D01*
X169714285Y-95526247D02*
X169714285Y-95145295D01*
X169714285Y-95145295D02*
X169761904Y-95050057D01*
X169761904Y-95050057D02*
X169809523Y-95002438D01*
X169809523Y-95002438D02*
X169904761Y-94954819D01*
X169904761Y-94954819D02*
X170095237Y-94954819D01*
X170095237Y-94954819D02*
X170190475Y-95002438D01*
X170190475Y-95002438D02*
X170238094Y-95050057D01*
X170238094Y-95050057D02*
X170285713Y-95145295D01*
X170285713Y-95145295D02*
X170285713Y-95383390D01*
X170285713Y-95383390D02*
X170238094Y-95478628D01*
X170238094Y-95478628D02*
X170190475Y-95526247D01*
X170190475Y-95526247D02*
X170095237Y-95573866D01*
X170095237Y-95573866D02*
X169904761Y-95573866D01*
X169904761Y-95573866D02*
X169809523Y-95526247D01*
X169809523Y-95526247D02*
X169761904Y-95478628D01*
X169761904Y-95478628D02*
X169714285Y-95383390D01*
X168314285Y-94954819D02*
X168219047Y-94954819D01*
X168219047Y-94954819D02*
X168123809Y-95002438D01*
X168123809Y-95002438D02*
X168076190Y-95050057D01*
X168076190Y-95050057D02*
X168028571Y-95145295D01*
X168028571Y-95145295D02*
X167980952Y-95335771D01*
X167980952Y-95335771D02*
X167980952Y-95573866D01*
X167980952Y-95573866D02*
X168028571Y-95764342D01*
X168028571Y-95764342D02*
X168076190Y-95859580D01*
X168076190Y-95859580D02*
X168123809Y-95907200D01*
X168123809Y-95907200D02*
X168219047Y-95954819D01*
X168219047Y-95954819D02*
X168314285Y-95954819D01*
X168314285Y-95954819D02*
X168409523Y-95907200D01*
X168409523Y-95907200D02*
X168457142Y-95859580D01*
X168457142Y-95859580D02*
X168504761Y-95764342D01*
X168504761Y-95764342D02*
X168552380Y-95573866D01*
X168552380Y-95573866D02*
X168552380Y-95335771D01*
X168552380Y-95335771D02*
X168504761Y-95145295D01*
X168504761Y-95145295D02*
X168457142Y-95050057D01*
X168457142Y-95050057D02*
X168409523Y-95002438D01*
X168409523Y-95002438D02*
X168314285Y-94954819D01*
X167552380Y-95859580D02*
X167504761Y-95907200D01*
X167504761Y-95907200D02*
X167552380Y-95954819D01*
X167552380Y-95954819D02*
X167599999Y-95907200D01*
X167599999Y-95907200D02*
X167552380Y-95859580D01*
X167552380Y-95859580D02*
X167552380Y-95954819D01*
X166552381Y-95954819D02*
X167123809Y-95954819D01*
X166838095Y-95954819D02*
X166838095Y-94954819D01*
X166838095Y-94954819D02*
X166933333Y-95097676D01*
X166933333Y-95097676D02*
X167028571Y-95192914D01*
X167028571Y-95192914D02*
X167123809Y-95240533D01*
X165695238Y-95288152D02*
X165695238Y-95954819D01*
X166123809Y-95288152D02*
X166123809Y-95811961D01*
X166123809Y-95811961D02*
X166076190Y-95907200D01*
X166076190Y-95907200D02*
X165980952Y-95954819D01*
X165980952Y-95954819D02*
X165838095Y-95954819D01*
X165838095Y-95954819D02*
X165742857Y-95907200D01*
X165742857Y-95907200D02*
X165695238Y-95859580D01*
X164472857Y-103674580D02*
X164520476Y-103722200D01*
X164520476Y-103722200D02*
X164663333Y-103769819D01*
X164663333Y-103769819D02*
X164758571Y-103769819D01*
X164758571Y-103769819D02*
X164901428Y-103722200D01*
X164901428Y-103722200D02*
X164996666Y-103626961D01*
X164996666Y-103626961D02*
X165044285Y-103531723D01*
X165044285Y-103531723D02*
X165091904Y-103341247D01*
X165091904Y-103341247D02*
X165091904Y-103198390D01*
X165091904Y-103198390D02*
X165044285Y-103007914D01*
X165044285Y-103007914D02*
X164996666Y-102912676D01*
X164996666Y-102912676D02*
X164901428Y-102817438D01*
X164901428Y-102817438D02*
X164758571Y-102769819D01*
X164758571Y-102769819D02*
X164663333Y-102769819D01*
X164663333Y-102769819D02*
X164520476Y-102817438D01*
X164520476Y-102817438D02*
X164472857Y-102865057D01*
X163520476Y-103769819D02*
X164091904Y-103769819D01*
X163806190Y-103769819D02*
X163806190Y-102769819D01*
X163806190Y-102769819D02*
X163901428Y-102912676D01*
X163901428Y-102912676D02*
X163996666Y-103007914D01*
X163996666Y-103007914D02*
X164091904Y-103055533D01*
X162568095Y-103769819D02*
X163139523Y-103769819D01*
X162853809Y-103769819D02*
X162853809Y-102769819D01*
X162853809Y-102769819D02*
X162949047Y-102912676D01*
X162949047Y-102912676D02*
X163044285Y-103007914D01*
X163044285Y-103007914D02*
X163139523Y-103055533D01*
X165700000Y-104388152D02*
X165700000Y-105054819D01*
X165938095Y-104007200D02*
X166176190Y-104721485D01*
X166176190Y-104721485D02*
X165557143Y-104721485D01*
X165271428Y-104054819D02*
X164604762Y-104054819D01*
X164604762Y-104054819D02*
X165033333Y-105054819D01*
X163795238Y-104388152D02*
X163795238Y-105054819D01*
X164223809Y-104388152D02*
X164223809Y-104911961D01*
X164223809Y-104911961D02*
X164176190Y-105007200D01*
X164176190Y-105007200D02*
X164080952Y-105054819D01*
X164080952Y-105054819D02*
X163938095Y-105054819D01*
X163938095Y-105054819D02*
X163842857Y-105007200D01*
X163842857Y-105007200D02*
X163795238Y-104959580D01*
X162128571Y-104054819D02*
X162319047Y-104054819D01*
X162319047Y-104054819D02*
X162414285Y-104102438D01*
X162414285Y-104102438D02*
X162461904Y-104150057D01*
X162461904Y-104150057D02*
X162557142Y-104292914D01*
X162557142Y-104292914D02*
X162604761Y-104483390D01*
X162604761Y-104483390D02*
X162604761Y-104864342D01*
X162604761Y-104864342D02*
X162557142Y-104959580D01*
X162557142Y-104959580D02*
X162509523Y-105007200D01*
X162509523Y-105007200D02*
X162414285Y-105054819D01*
X162414285Y-105054819D02*
X162223809Y-105054819D01*
X162223809Y-105054819D02*
X162128571Y-105007200D01*
X162128571Y-105007200D02*
X162080952Y-104959580D01*
X162080952Y-104959580D02*
X162033333Y-104864342D01*
X162033333Y-104864342D02*
X162033333Y-104626247D01*
X162033333Y-104626247D02*
X162080952Y-104531009D01*
X162080952Y-104531009D02*
X162128571Y-104483390D01*
X162128571Y-104483390D02*
X162223809Y-104435771D01*
X162223809Y-104435771D02*
X162414285Y-104435771D01*
X162414285Y-104435771D02*
X162509523Y-104483390D01*
X162509523Y-104483390D02*
X162557142Y-104531009D01*
X162557142Y-104531009D02*
X162604761Y-104626247D01*
X161747618Y-104054819D02*
X161414285Y-105054819D01*
X161414285Y-105054819D02*
X161080952Y-104054819D01*
X160842856Y-104054819D02*
X160223809Y-104054819D01*
X160223809Y-104054819D02*
X160557142Y-104435771D01*
X160557142Y-104435771D02*
X160414285Y-104435771D01*
X160414285Y-104435771D02*
X160319047Y-104483390D01*
X160319047Y-104483390D02*
X160271428Y-104531009D01*
X160271428Y-104531009D02*
X160223809Y-104626247D01*
X160223809Y-104626247D02*
X160223809Y-104864342D01*
X160223809Y-104864342D02*
X160271428Y-104959580D01*
X160271428Y-104959580D02*
X160319047Y-105007200D01*
X160319047Y-105007200D02*
X160414285Y-105054819D01*
X160414285Y-105054819D02*
X160699999Y-105054819D01*
X160699999Y-105054819D02*
X160795237Y-105007200D01*
X160795237Y-105007200D02*
X160842856Y-104959580D01*
X148842857Y-121759580D02*
X148890476Y-121807200D01*
X148890476Y-121807200D02*
X149033333Y-121854819D01*
X149033333Y-121854819D02*
X149128571Y-121854819D01*
X149128571Y-121854819D02*
X149271428Y-121807200D01*
X149271428Y-121807200D02*
X149366666Y-121711961D01*
X149366666Y-121711961D02*
X149414285Y-121616723D01*
X149414285Y-121616723D02*
X149461904Y-121426247D01*
X149461904Y-121426247D02*
X149461904Y-121283390D01*
X149461904Y-121283390D02*
X149414285Y-121092914D01*
X149414285Y-121092914D02*
X149366666Y-120997676D01*
X149366666Y-120997676D02*
X149271428Y-120902438D01*
X149271428Y-120902438D02*
X149128571Y-120854819D01*
X149128571Y-120854819D02*
X149033333Y-120854819D01*
X149033333Y-120854819D02*
X148890476Y-120902438D01*
X148890476Y-120902438D02*
X148842857Y-120950057D01*
X147890476Y-121854819D02*
X148461904Y-121854819D01*
X148176190Y-121854819D02*
X148176190Y-120854819D01*
X148176190Y-120854819D02*
X148271428Y-120997676D01*
X148271428Y-120997676D02*
X148366666Y-121092914D01*
X148366666Y-121092914D02*
X148461904Y-121140533D01*
X147033333Y-120854819D02*
X147223809Y-120854819D01*
X147223809Y-120854819D02*
X147319047Y-120902438D01*
X147319047Y-120902438D02*
X147366666Y-120950057D01*
X147366666Y-120950057D02*
X147461904Y-121092914D01*
X147461904Y-121092914D02*
X147509523Y-121283390D01*
X147509523Y-121283390D02*
X147509523Y-121664342D01*
X147509523Y-121664342D02*
X147461904Y-121759580D01*
X147461904Y-121759580D02*
X147414285Y-121807200D01*
X147414285Y-121807200D02*
X147319047Y-121854819D01*
X147319047Y-121854819D02*
X147128571Y-121854819D01*
X147128571Y-121854819D02*
X147033333Y-121807200D01*
X147033333Y-121807200D02*
X146985714Y-121759580D01*
X146985714Y-121759580D02*
X146938095Y-121664342D01*
X146938095Y-121664342D02*
X146938095Y-121426247D01*
X146938095Y-121426247D02*
X146985714Y-121331009D01*
X146985714Y-121331009D02*
X147033333Y-121283390D01*
X147033333Y-121283390D02*
X147128571Y-121235771D01*
X147128571Y-121235771D02*
X147319047Y-121235771D01*
X147319047Y-121235771D02*
X147414285Y-121283390D01*
X147414285Y-121283390D02*
X147461904Y-121331009D01*
X147461904Y-121331009D02*
X147509523Y-121426247D01*
X149200000Y-122488152D02*
X149200000Y-123154819D01*
X149438095Y-122107200D02*
X149676190Y-122821485D01*
X149676190Y-122821485D02*
X149057143Y-122821485D01*
X148771428Y-122154819D02*
X148104762Y-122154819D01*
X148104762Y-122154819D02*
X148533333Y-123154819D01*
X147295238Y-122488152D02*
X147295238Y-123154819D01*
X147723809Y-122488152D02*
X147723809Y-123011961D01*
X147723809Y-123011961D02*
X147676190Y-123107200D01*
X147676190Y-123107200D02*
X147580952Y-123154819D01*
X147580952Y-123154819D02*
X147438095Y-123154819D01*
X147438095Y-123154819D02*
X147342857Y-123107200D01*
X147342857Y-123107200D02*
X147295238Y-123059580D01*
X145533333Y-123154819D02*
X146104761Y-123154819D01*
X145819047Y-123154819D02*
X145819047Y-122154819D01*
X145819047Y-122154819D02*
X145914285Y-122297676D01*
X145914285Y-122297676D02*
X146009523Y-122392914D01*
X146009523Y-122392914D02*
X146104761Y-122440533D01*
X144676190Y-122154819D02*
X144866666Y-122154819D01*
X144866666Y-122154819D02*
X144961904Y-122202438D01*
X144961904Y-122202438D02*
X145009523Y-122250057D01*
X145009523Y-122250057D02*
X145104761Y-122392914D01*
X145104761Y-122392914D02*
X145152380Y-122583390D01*
X145152380Y-122583390D02*
X145152380Y-122964342D01*
X145152380Y-122964342D02*
X145104761Y-123059580D01*
X145104761Y-123059580D02*
X145057142Y-123107200D01*
X145057142Y-123107200D02*
X144961904Y-123154819D01*
X144961904Y-123154819D02*
X144771428Y-123154819D01*
X144771428Y-123154819D02*
X144676190Y-123107200D01*
X144676190Y-123107200D02*
X144628571Y-123059580D01*
X144628571Y-123059580D02*
X144580952Y-122964342D01*
X144580952Y-122964342D02*
X144580952Y-122726247D01*
X144580952Y-122726247D02*
X144628571Y-122631009D01*
X144628571Y-122631009D02*
X144676190Y-122583390D01*
X144676190Y-122583390D02*
X144771428Y-122535771D01*
X144771428Y-122535771D02*
X144961904Y-122535771D01*
X144961904Y-122535771D02*
X145057142Y-122583390D01*
X145057142Y-122583390D02*
X145104761Y-122631009D01*
X145104761Y-122631009D02*
X145152380Y-122726247D01*
X144295237Y-122154819D02*
X143961904Y-123154819D01*
X143961904Y-123154819D02*
X143628571Y-122154819D01*
X142656619Y-92780666D02*
X143370904Y-92780666D01*
X143370904Y-92780666D02*
X143513761Y-92733047D01*
X143513761Y-92733047D02*
X143609000Y-92637809D01*
X143609000Y-92637809D02*
X143656619Y-92494952D01*
X143656619Y-92494952D02*
X143656619Y-92399714D01*
X143656619Y-93256857D02*
X142656619Y-93256857D01*
X142656619Y-93256857D02*
X142656619Y-93637809D01*
X142656619Y-93637809D02*
X142704238Y-93733047D01*
X142704238Y-93733047D02*
X142751857Y-93780666D01*
X142751857Y-93780666D02*
X142847095Y-93828285D01*
X142847095Y-93828285D02*
X142989952Y-93828285D01*
X142989952Y-93828285D02*
X143085190Y-93780666D01*
X143085190Y-93780666D02*
X143132809Y-93733047D01*
X143132809Y-93733047D02*
X143180428Y-93637809D01*
X143180428Y-93637809D02*
X143180428Y-93256857D01*
X142751857Y-94209238D02*
X142704238Y-94256857D01*
X142704238Y-94256857D02*
X142656619Y-94352095D01*
X142656619Y-94352095D02*
X142656619Y-94590190D01*
X142656619Y-94590190D02*
X142704238Y-94685428D01*
X142704238Y-94685428D02*
X142751857Y-94733047D01*
X142751857Y-94733047D02*
X142847095Y-94780666D01*
X142847095Y-94780666D02*
X142942333Y-94780666D01*
X142942333Y-94780666D02*
X143085190Y-94733047D01*
X143085190Y-94733047D02*
X143656619Y-94161619D01*
X143656619Y-94161619D02*
X143656619Y-94780666D01*
X154966666Y-49259580D02*
X155014285Y-49307200D01*
X155014285Y-49307200D02*
X155157142Y-49354819D01*
X155157142Y-49354819D02*
X155252380Y-49354819D01*
X155252380Y-49354819D02*
X155395237Y-49307200D01*
X155395237Y-49307200D02*
X155490475Y-49211961D01*
X155490475Y-49211961D02*
X155538094Y-49116723D01*
X155538094Y-49116723D02*
X155585713Y-48926247D01*
X155585713Y-48926247D02*
X155585713Y-48783390D01*
X155585713Y-48783390D02*
X155538094Y-48592914D01*
X155538094Y-48592914D02*
X155490475Y-48497676D01*
X155490475Y-48497676D02*
X155395237Y-48402438D01*
X155395237Y-48402438D02*
X155252380Y-48354819D01*
X155252380Y-48354819D02*
X155157142Y-48354819D01*
X155157142Y-48354819D02*
X155014285Y-48402438D01*
X155014285Y-48402438D02*
X154966666Y-48450057D01*
X154585713Y-48450057D02*
X154538094Y-48402438D01*
X154538094Y-48402438D02*
X154442856Y-48354819D01*
X154442856Y-48354819D02*
X154204761Y-48354819D01*
X154204761Y-48354819D02*
X154109523Y-48402438D01*
X154109523Y-48402438D02*
X154061904Y-48450057D01*
X154061904Y-48450057D02*
X154014285Y-48545295D01*
X154014285Y-48545295D02*
X154014285Y-48640533D01*
X154014285Y-48640533D02*
X154061904Y-48783390D01*
X154061904Y-48783390D02*
X154633332Y-49354819D01*
X154633332Y-49354819D02*
X154014285Y-49354819D01*
X149614285Y-48354819D02*
X149519047Y-48354819D01*
X149519047Y-48354819D02*
X149423809Y-48402438D01*
X149423809Y-48402438D02*
X149376190Y-48450057D01*
X149376190Y-48450057D02*
X149328571Y-48545295D01*
X149328571Y-48545295D02*
X149280952Y-48735771D01*
X149280952Y-48735771D02*
X149280952Y-48973866D01*
X149280952Y-48973866D02*
X149328571Y-49164342D01*
X149328571Y-49164342D02*
X149376190Y-49259580D01*
X149376190Y-49259580D02*
X149423809Y-49307200D01*
X149423809Y-49307200D02*
X149519047Y-49354819D01*
X149519047Y-49354819D02*
X149614285Y-49354819D01*
X149614285Y-49354819D02*
X149709523Y-49307200D01*
X149709523Y-49307200D02*
X149757142Y-49259580D01*
X149757142Y-49259580D02*
X149804761Y-49164342D01*
X149804761Y-49164342D02*
X149852380Y-48973866D01*
X149852380Y-48973866D02*
X149852380Y-48735771D01*
X149852380Y-48735771D02*
X149804761Y-48545295D01*
X149804761Y-48545295D02*
X149757142Y-48450057D01*
X149757142Y-48450057D02*
X149709523Y-48402438D01*
X149709523Y-48402438D02*
X149614285Y-48354819D01*
X148852380Y-49259580D02*
X148804761Y-49307200D01*
X148804761Y-49307200D02*
X148852380Y-49354819D01*
X148852380Y-49354819D02*
X148899999Y-49307200D01*
X148899999Y-49307200D02*
X148852380Y-49259580D01*
X148852380Y-49259580D02*
X148852380Y-49354819D01*
X147852381Y-49354819D02*
X148423809Y-49354819D01*
X148138095Y-49354819D02*
X148138095Y-48354819D01*
X148138095Y-48354819D02*
X148233333Y-48497676D01*
X148233333Y-48497676D02*
X148328571Y-48592914D01*
X148328571Y-48592914D02*
X148423809Y-48640533D01*
X146995238Y-48688152D02*
X146995238Y-49354819D01*
X147423809Y-48688152D02*
X147423809Y-49211961D01*
X147423809Y-49211961D02*
X147376190Y-49307200D01*
X147376190Y-49307200D02*
X147280952Y-49354819D01*
X147280952Y-49354819D02*
X147138095Y-49354819D01*
X147138095Y-49354819D02*
X147042857Y-49307200D01*
X147042857Y-49307200D02*
X146995238Y-49259580D01*
X141966666Y-82259580D02*
X142014285Y-82307200D01*
X142014285Y-82307200D02*
X142157142Y-82354819D01*
X142157142Y-82354819D02*
X142252380Y-82354819D01*
X142252380Y-82354819D02*
X142395237Y-82307200D01*
X142395237Y-82307200D02*
X142490475Y-82211961D01*
X142490475Y-82211961D02*
X142538094Y-82116723D01*
X142538094Y-82116723D02*
X142585713Y-81926247D01*
X142585713Y-81926247D02*
X142585713Y-81783390D01*
X142585713Y-81783390D02*
X142538094Y-81592914D01*
X142538094Y-81592914D02*
X142490475Y-81497676D01*
X142490475Y-81497676D02*
X142395237Y-81402438D01*
X142395237Y-81402438D02*
X142252380Y-81354819D01*
X142252380Y-81354819D02*
X142157142Y-81354819D01*
X142157142Y-81354819D02*
X142014285Y-81402438D01*
X142014285Y-81402438D02*
X141966666Y-81450057D01*
X141109523Y-81688152D02*
X141109523Y-82354819D01*
X141347618Y-81307200D02*
X141585713Y-82021485D01*
X141585713Y-82021485D02*
X140966666Y-82021485D01*
X140659219Y-84335233D02*
X140659219Y-83763805D01*
X140659219Y-84049519D02*
X139659219Y-84049519D01*
X139659219Y-84049519D02*
X139802076Y-83954281D01*
X139802076Y-83954281D02*
X139897314Y-83859043D01*
X139897314Y-83859043D02*
X139944933Y-83763805D01*
X139992552Y-85192376D02*
X140659219Y-85192376D01*
X139992552Y-84763805D02*
X140516361Y-84763805D01*
X140516361Y-84763805D02*
X140611600Y-84811424D01*
X140611600Y-84811424D02*
X140659219Y-84906662D01*
X140659219Y-84906662D02*
X140659219Y-85049519D01*
X140659219Y-85049519D02*
X140611600Y-85144757D01*
X140611600Y-85144757D02*
X140563980Y-85192376D01*
X78000594Y-104404819D02*
X78000594Y-103404819D01*
X78000594Y-103404819D02*
X77762499Y-103404819D01*
X77762499Y-103404819D02*
X77619642Y-103452438D01*
X77619642Y-103452438D02*
X77524404Y-103547676D01*
X77524404Y-103547676D02*
X77476785Y-103642914D01*
X77476785Y-103642914D02*
X77429166Y-103833390D01*
X77429166Y-103833390D02*
X77429166Y-103976247D01*
X77429166Y-103976247D02*
X77476785Y-104166723D01*
X77476785Y-104166723D02*
X77524404Y-104261961D01*
X77524404Y-104261961D02*
X77619642Y-104357200D01*
X77619642Y-104357200D02*
X77762499Y-104404819D01*
X77762499Y-104404819D02*
X78000594Y-104404819D01*
X77048213Y-103500057D02*
X77000594Y-103452438D01*
X77000594Y-103452438D02*
X76905356Y-103404819D01*
X76905356Y-103404819D02*
X76667261Y-103404819D01*
X76667261Y-103404819D02*
X76572023Y-103452438D01*
X76572023Y-103452438D02*
X76524404Y-103500057D01*
X76524404Y-103500057D02*
X76476785Y-103595295D01*
X76476785Y-103595295D02*
X76476785Y-103690533D01*
X76476785Y-103690533D02*
X76524404Y-103833390D01*
X76524404Y-103833390D02*
X77095832Y-104404819D01*
X77095832Y-104404819D02*
X76476785Y-104404819D01*
X143065332Y-65445200D02*
X142922475Y-65492819D01*
X142922475Y-65492819D02*
X142684380Y-65492819D01*
X142684380Y-65492819D02*
X142589142Y-65445200D01*
X142589142Y-65445200D02*
X142541523Y-65397580D01*
X142541523Y-65397580D02*
X142493904Y-65302342D01*
X142493904Y-65302342D02*
X142493904Y-65207104D01*
X142493904Y-65207104D02*
X142541523Y-65111866D01*
X142541523Y-65111866D02*
X142589142Y-65064247D01*
X142589142Y-65064247D02*
X142684380Y-65016628D01*
X142684380Y-65016628D02*
X142874856Y-64969009D01*
X142874856Y-64969009D02*
X142970094Y-64921390D01*
X142970094Y-64921390D02*
X143017713Y-64873771D01*
X143017713Y-64873771D02*
X143065332Y-64778533D01*
X143065332Y-64778533D02*
X143065332Y-64683295D01*
X143065332Y-64683295D02*
X143017713Y-64588057D01*
X143017713Y-64588057D02*
X142970094Y-64540438D01*
X142970094Y-64540438D02*
X142874856Y-64492819D01*
X142874856Y-64492819D02*
X142636761Y-64492819D01*
X142636761Y-64492819D02*
X142493904Y-64540438D01*
X142160570Y-64492819D02*
X141922475Y-65492819D01*
X141922475Y-65492819D02*
X141731999Y-64778533D01*
X141731999Y-64778533D02*
X141541523Y-65492819D01*
X141541523Y-65492819D02*
X141303428Y-64492819D01*
X140398666Y-65492819D02*
X140970094Y-65492819D01*
X140684380Y-65492819D02*
X140684380Y-64492819D01*
X140684380Y-64492819D02*
X140779618Y-64635676D01*
X140779618Y-64635676D02*
X140874856Y-64730914D01*
X140874856Y-64730914D02*
X140970094Y-64778533D01*
X143089142Y-73169009D02*
X142946285Y-73216628D01*
X142946285Y-73216628D02*
X142898666Y-73264247D01*
X142898666Y-73264247D02*
X142851047Y-73359485D01*
X142851047Y-73359485D02*
X142851047Y-73502342D01*
X142851047Y-73502342D02*
X142898666Y-73597580D01*
X142898666Y-73597580D02*
X142946285Y-73645200D01*
X142946285Y-73645200D02*
X143041523Y-73692819D01*
X143041523Y-73692819D02*
X143422475Y-73692819D01*
X143422475Y-73692819D02*
X143422475Y-72692819D01*
X143422475Y-72692819D02*
X143089142Y-72692819D01*
X143089142Y-72692819D02*
X142993904Y-72740438D01*
X142993904Y-72740438D02*
X142946285Y-72788057D01*
X142946285Y-72788057D02*
X142898666Y-72883295D01*
X142898666Y-72883295D02*
X142898666Y-72978533D01*
X142898666Y-72978533D02*
X142946285Y-73073771D01*
X142946285Y-73073771D02*
X142993904Y-73121390D01*
X142993904Y-73121390D02*
X143089142Y-73169009D01*
X143089142Y-73169009D02*
X143422475Y-73169009D01*
X142231999Y-72692819D02*
X142041523Y-72692819D01*
X142041523Y-72692819D02*
X141946285Y-72740438D01*
X141946285Y-72740438D02*
X141851047Y-72835676D01*
X141851047Y-72835676D02*
X141803428Y-73026152D01*
X141803428Y-73026152D02*
X141803428Y-73359485D01*
X141803428Y-73359485D02*
X141851047Y-73549961D01*
X141851047Y-73549961D02*
X141946285Y-73645200D01*
X141946285Y-73645200D02*
X142041523Y-73692819D01*
X142041523Y-73692819D02*
X142231999Y-73692819D01*
X142231999Y-73692819D02*
X142327237Y-73645200D01*
X142327237Y-73645200D02*
X142422475Y-73549961D01*
X142422475Y-73549961D02*
X142470094Y-73359485D01*
X142470094Y-73359485D02*
X142470094Y-73026152D01*
X142470094Y-73026152D02*
X142422475Y-72835676D01*
X142422475Y-72835676D02*
X142327237Y-72740438D01*
X142327237Y-72740438D02*
X142231999Y-72692819D01*
X141184380Y-72692819D02*
X140993904Y-72692819D01*
X140993904Y-72692819D02*
X140898666Y-72740438D01*
X140898666Y-72740438D02*
X140803428Y-72835676D01*
X140803428Y-72835676D02*
X140755809Y-73026152D01*
X140755809Y-73026152D02*
X140755809Y-73359485D01*
X140755809Y-73359485D02*
X140803428Y-73549961D01*
X140803428Y-73549961D02*
X140898666Y-73645200D01*
X140898666Y-73645200D02*
X140993904Y-73692819D01*
X140993904Y-73692819D02*
X141184380Y-73692819D01*
X141184380Y-73692819D02*
X141279618Y-73645200D01*
X141279618Y-73645200D02*
X141374856Y-73549961D01*
X141374856Y-73549961D02*
X141422475Y-73359485D01*
X141422475Y-73359485D02*
X141422475Y-73026152D01*
X141422475Y-73026152D02*
X141374856Y-72835676D01*
X141374856Y-72835676D02*
X141279618Y-72740438D01*
X141279618Y-72740438D02*
X141184380Y-72692819D01*
X140470094Y-72692819D02*
X139898666Y-72692819D01*
X140184380Y-73692819D02*
X140184380Y-72692819D01*
X137945666Y-83454819D02*
X138278999Y-82978628D01*
X138517094Y-83454819D02*
X138517094Y-82454819D01*
X138517094Y-82454819D02*
X138136142Y-82454819D01*
X138136142Y-82454819D02*
X138040904Y-82502438D01*
X138040904Y-82502438D02*
X137993285Y-82550057D01*
X137993285Y-82550057D02*
X137945666Y-82645295D01*
X137945666Y-82645295D02*
X137945666Y-82788152D01*
X137945666Y-82788152D02*
X137993285Y-82883390D01*
X137993285Y-82883390D02*
X138040904Y-82931009D01*
X138040904Y-82931009D02*
X138136142Y-82978628D01*
X138136142Y-82978628D02*
X138517094Y-82978628D01*
X136993285Y-83454819D02*
X137564713Y-83454819D01*
X137278999Y-83454819D02*
X137278999Y-82454819D01*
X137278999Y-82454819D02*
X137374237Y-82597676D01*
X137374237Y-82597676D02*
X137469475Y-82692914D01*
X137469475Y-82692914D02*
X137564713Y-82740533D01*
X137914285Y-86654819D02*
X138485713Y-86654819D01*
X138199999Y-86654819D02*
X138199999Y-85654819D01*
X138199999Y-85654819D02*
X138295237Y-85797676D01*
X138295237Y-85797676D02*
X138390475Y-85892914D01*
X138390475Y-85892914D02*
X138485713Y-85940533D01*
X137485713Y-86654819D02*
X137485713Y-85654819D01*
X136914285Y-86654819D02*
X137342856Y-86083390D01*
X136914285Y-85654819D02*
X137485713Y-86226247D01*
X168047200Y-103956267D02*
X168094819Y-104099124D01*
X168094819Y-104099124D02*
X168094819Y-104337219D01*
X168094819Y-104337219D02*
X168047200Y-104432457D01*
X168047200Y-104432457D02*
X167999580Y-104480076D01*
X167999580Y-104480076D02*
X167904342Y-104527695D01*
X167904342Y-104527695D02*
X167809104Y-104527695D01*
X167809104Y-104527695D02*
X167713866Y-104480076D01*
X167713866Y-104480076D02*
X167666247Y-104432457D01*
X167666247Y-104432457D02*
X167618628Y-104337219D01*
X167618628Y-104337219D02*
X167571009Y-104146743D01*
X167571009Y-104146743D02*
X167523390Y-104051505D01*
X167523390Y-104051505D02*
X167475771Y-104003886D01*
X167475771Y-104003886D02*
X167380533Y-103956267D01*
X167380533Y-103956267D02*
X167285295Y-103956267D01*
X167285295Y-103956267D02*
X167190057Y-104003886D01*
X167190057Y-104003886D02*
X167142438Y-104051505D01*
X167142438Y-104051505D02*
X167094819Y-104146743D01*
X167094819Y-104146743D02*
X167094819Y-104384838D01*
X167094819Y-104384838D02*
X167142438Y-104527695D01*
X167094819Y-104861029D02*
X168094819Y-105099124D01*
X168094819Y-105099124D02*
X167380533Y-105289600D01*
X167380533Y-105289600D02*
X168094819Y-105480076D01*
X168094819Y-105480076D02*
X167094819Y-105718172D01*
X167094819Y-106003886D02*
X167094819Y-106622933D01*
X167094819Y-106622933D02*
X167475771Y-106289600D01*
X167475771Y-106289600D02*
X167475771Y-106432457D01*
X167475771Y-106432457D02*
X167523390Y-106527695D01*
X167523390Y-106527695D02*
X167571009Y-106575314D01*
X167571009Y-106575314D02*
X167666247Y-106622933D01*
X167666247Y-106622933D02*
X167904342Y-106622933D01*
X167904342Y-106622933D02*
X167999580Y-106575314D01*
X167999580Y-106575314D02*
X168047200Y-106527695D01*
X168047200Y-106527695D02*
X168094819Y-106432457D01*
X168094819Y-106432457D02*
X168094819Y-106146743D01*
X168094819Y-106146743D02*
X168047200Y-106051505D01*
X168047200Y-106051505D02*
X167999580Y-106003886D01*
X169291800Y-110541181D02*
X169339419Y-110684038D01*
X169339419Y-110684038D02*
X169339419Y-110922133D01*
X169339419Y-110922133D02*
X169291800Y-111017371D01*
X169291800Y-111017371D02*
X169244180Y-111064990D01*
X169244180Y-111064990D02*
X169148942Y-111112609D01*
X169148942Y-111112609D02*
X169053704Y-111112609D01*
X169053704Y-111112609D02*
X168958466Y-111064990D01*
X168958466Y-111064990D02*
X168910847Y-111017371D01*
X168910847Y-111017371D02*
X168863228Y-110922133D01*
X168863228Y-110922133D02*
X168815609Y-110731657D01*
X168815609Y-110731657D02*
X168767990Y-110636419D01*
X168767990Y-110636419D02*
X168720371Y-110588800D01*
X168720371Y-110588800D02*
X168625133Y-110541181D01*
X168625133Y-110541181D02*
X168529895Y-110541181D01*
X168529895Y-110541181D02*
X168434657Y-110588800D01*
X168434657Y-110588800D02*
X168387038Y-110636419D01*
X168387038Y-110636419D02*
X168339419Y-110731657D01*
X168339419Y-110731657D02*
X168339419Y-110969752D01*
X168339419Y-110969752D02*
X168387038Y-111112609D01*
X168339419Y-111445943D02*
X169339419Y-111684038D01*
X169339419Y-111684038D02*
X168625133Y-111874514D01*
X168625133Y-111874514D02*
X169339419Y-112064990D01*
X169339419Y-112064990D02*
X168339419Y-112303086D01*
X169434657Y-112445943D02*
X169434657Y-113207847D01*
X169339419Y-114017371D02*
X168863228Y-113684038D01*
X169339419Y-113445943D02*
X168339419Y-113445943D01*
X168339419Y-113445943D02*
X168339419Y-113826895D01*
X168339419Y-113826895D02*
X168387038Y-113922133D01*
X168387038Y-113922133D02*
X168434657Y-113969752D01*
X168434657Y-113969752D02*
X168529895Y-114017371D01*
X168529895Y-114017371D02*
X168672752Y-114017371D01*
X168672752Y-114017371D02*
X168767990Y-113969752D01*
X168767990Y-113969752D02*
X168815609Y-113922133D01*
X168815609Y-113922133D02*
X168863228Y-113826895D01*
X168863228Y-113826895D02*
X168863228Y-113445943D01*
X169291800Y-114826895D02*
X169339419Y-114731657D01*
X169339419Y-114731657D02*
X169339419Y-114541181D01*
X169339419Y-114541181D02*
X169291800Y-114445943D01*
X169291800Y-114445943D02*
X169196561Y-114398324D01*
X169196561Y-114398324D02*
X168815609Y-114398324D01*
X168815609Y-114398324D02*
X168720371Y-114445943D01*
X168720371Y-114445943D02*
X168672752Y-114541181D01*
X168672752Y-114541181D02*
X168672752Y-114731657D01*
X168672752Y-114731657D02*
X168720371Y-114826895D01*
X168720371Y-114826895D02*
X168815609Y-114874514D01*
X168815609Y-114874514D02*
X168910847Y-114874514D01*
X168910847Y-114874514D02*
X169006085Y-114398324D01*
X169291800Y-115684038D02*
X169339419Y-115588800D01*
X169339419Y-115588800D02*
X169339419Y-115398324D01*
X169339419Y-115398324D02*
X169291800Y-115303086D01*
X169291800Y-115303086D02*
X169196561Y-115255467D01*
X169196561Y-115255467D02*
X168815609Y-115255467D01*
X168815609Y-115255467D02*
X168720371Y-115303086D01*
X168720371Y-115303086D02*
X168672752Y-115398324D01*
X168672752Y-115398324D02*
X168672752Y-115588800D01*
X168672752Y-115588800D02*
X168720371Y-115684038D01*
X168720371Y-115684038D02*
X168815609Y-115731657D01*
X168815609Y-115731657D02*
X168910847Y-115731657D01*
X168910847Y-115731657D02*
X169006085Y-115255467D01*
X169339419Y-116588800D02*
X168339419Y-116588800D01*
X169291800Y-116588800D02*
X169339419Y-116493562D01*
X169339419Y-116493562D02*
X169339419Y-116303086D01*
X169339419Y-116303086D02*
X169291800Y-116207848D01*
X169291800Y-116207848D02*
X169244180Y-116160229D01*
X169244180Y-116160229D02*
X169148942Y-116112610D01*
X169148942Y-116112610D02*
X168863228Y-116112610D01*
X168863228Y-116112610D02*
X168767990Y-116160229D01*
X168767990Y-116160229D02*
X168720371Y-116207848D01*
X168720371Y-116207848D02*
X168672752Y-116303086D01*
X168672752Y-116303086D02*
X168672752Y-116493562D01*
X168672752Y-116493562D02*
X168720371Y-116588800D01*
X162833333Y-63554819D02*
X162833333Y-64269104D01*
X162833333Y-64269104D02*
X162880952Y-64411961D01*
X162880952Y-64411961D02*
X162976190Y-64507200D01*
X162976190Y-64507200D02*
X163119047Y-64554819D01*
X163119047Y-64554819D02*
X163214285Y-64554819D01*
X162404761Y-63650057D02*
X162357142Y-63602438D01*
X162357142Y-63602438D02*
X162261904Y-63554819D01*
X162261904Y-63554819D02*
X162023809Y-63554819D01*
X162023809Y-63554819D02*
X161928571Y-63602438D01*
X161928571Y-63602438D02*
X161880952Y-63650057D01*
X161880952Y-63650057D02*
X161833333Y-63745295D01*
X161833333Y-63745295D02*
X161833333Y-63840533D01*
X161833333Y-63840533D02*
X161880952Y-63983390D01*
X161880952Y-63983390D02*
X162452380Y-64554819D01*
X162452380Y-64554819D02*
X161833333Y-64554819D01*
X167184819Y-59428476D02*
X166184819Y-59428476D01*
X166184819Y-59428476D02*
X166184819Y-59809428D01*
X166184819Y-59809428D02*
X166232438Y-59904666D01*
X166232438Y-59904666D02*
X166280057Y-59952285D01*
X166280057Y-59952285D02*
X166375295Y-59999904D01*
X166375295Y-59999904D02*
X166518152Y-59999904D01*
X166518152Y-59999904D02*
X166613390Y-59952285D01*
X166613390Y-59952285D02*
X166661009Y-59904666D01*
X166661009Y-59904666D02*
X166708628Y-59809428D01*
X166708628Y-59809428D02*
X166708628Y-59428476D01*
X167184819Y-60428476D02*
X166518152Y-60428476D01*
X166708628Y-60428476D02*
X166613390Y-60476095D01*
X166613390Y-60476095D02*
X166565771Y-60523714D01*
X166565771Y-60523714D02*
X166518152Y-60618952D01*
X166518152Y-60618952D02*
X166518152Y-60714190D01*
X167184819Y-61190381D02*
X167137200Y-61095143D01*
X167137200Y-61095143D02*
X167089580Y-61047524D01*
X167089580Y-61047524D02*
X166994342Y-60999905D01*
X166994342Y-60999905D02*
X166708628Y-60999905D01*
X166708628Y-60999905D02*
X166613390Y-61047524D01*
X166613390Y-61047524D02*
X166565771Y-61095143D01*
X166565771Y-61095143D02*
X166518152Y-61190381D01*
X166518152Y-61190381D02*
X166518152Y-61333238D01*
X166518152Y-61333238D02*
X166565771Y-61428476D01*
X166565771Y-61428476D02*
X166613390Y-61476095D01*
X166613390Y-61476095D02*
X166708628Y-61523714D01*
X166708628Y-61523714D02*
X166994342Y-61523714D01*
X166994342Y-61523714D02*
X167089580Y-61476095D01*
X167089580Y-61476095D02*
X167137200Y-61428476D01*
X167137200Y-61428476D02*
X167184819Y-61333238D01*
X167184819Y-61333238D02*
X167184819Y-61190381D01*
X167184819Y-62380857D02*
X166184819Y-62380857D01*
X167137200Y-62380857D02*
X167184819Y-62285619D01*
X167184819Y-62285619D02*
X167184819Y-62095143D01*
X167184819Y-62095143D02*
X167137200Y-61999905D01*
X167137200Y-61999905D02*
X167089580Y-61952286D01*
X167089580Y-61952286D02*
X166994342Y-61904667D01*
X166994342Y-61904667D02*
X166708628Y-61904667D01*
X166708628Y-61904667D02*
X166613390Y-61952286D01*
X166613390Y-61952286D02*
X166565771Y-61999905D01*
X166565771Y-61999905D02*
X166518152Y-62095143D01*
X166518152Y-62095143D02*
X166518152Y-62285619D01*
X166518152Y-62285619D02*
X166565771Y-62380857D01*
X167184819Y-62857048D02*
X166518152Y-62857048D01*
X166708628Y-62857048D02*
X166613390Y-62904667D01*
X166613390Y-62904667D02*
X166565771Y-62952286D01*
X166565771Y-62952286D02*
X166518152Y-63047524D01*
X166518152Y-63047524D02*
X166518152Y-63142762D01*
X167184819Y-63904667D02*
X166661009Y-63904667D01*
X166661009Y-63904667D02*
X166565771Y-63857048D01*
X166565771Y-63857048D02*
X166518152Y-63761810D01*
X166518152Y-63761810D02*
X166518152Y-63571334D01*
X166518152Y-63571334D02*
X166565771Y-63476096D01*
X167137200Y-63904667D02*
X167184819Y-63809429D01*
X167184819Y-63809429D02*
X167184819Y-63571334D01*
X167184819Y-63571334D02*
X167137200Y-63476096D01*
X167137200Y-63476096D02*
X167041961Y-63428477D01*
X167041961Y-63428477D02*
X166946723Y-63428477D01*
X166946723Y-63428477D02*
X166851485Y-63476096D01*
X166851485Y-63476096D02*
X166803866Y-63571334D01*
X166803866Y-63571334D02*
X166803866Y-63809429D01*
X166803866Y-63809429D02*
X166756247Y-63904667D01*
X167184819Y-64380858D02*
X166518152Y-64380858D01*
X166613390Y-64380858D02*
X166565771Y-64428477D01*
X166565771Y-64428477D02*
X166518152Y-64523715D01*
X166518152Y-64523715D02*
X166518152Y-64666572D01*
X166518152Y-64666572D02*
X166565771Y-64761810D01*
X166565771Y-64761810D02*
X166661009Y-64809429D01*
X166661009Y-64809429D02*
X167184819Y-64809429D01*
X166661009Y-64809429D02*
X166565771Y-64857048D01*
X166565771Y-64857048D02*
X166518152Y-64952286D01*
X166518152Y-64952286D02*
X166518152Y-65095143D01*
X166518152Y-65095143D02*
X166565771Y-65190382D01*
X166565771Y-65190382D02*
X166661009Y-65238001D01*
X166661009Y-65238001D02*
X167184819Y-65238001D01*
X167184819Y-65714191D02*
X166518152Y-65714191D01*
X166613390Y-65714191D02*
X166565771Y-65761810D01*
X166565771Y-65761810D02*
X166518152Y-65857048D01*
X166518152Y-65857048D02*
X166518152Y-65999905D01*
X166518152Y-65999905D02*
X166565771Y-66095143D01*
X166565771Y-66095143D02*
X166661009Y-66142762D01*
X166661009Y-66142762D02*
X167184819Y-66142762D01*
X166661009Y-66142762D02*
X166565771Y-66190381D01*
X166565771Y-66190381D02*
X166518152Y-66285619D01*
X166518152Y-66285619D02*
X166518152Y-66428476D01*
X166518152Y-66428476D02*
X166565771Y-66523715D01*
X166565771Y-66523715D02*
X166661009Y-66571334D01*
X166661009Y-66571334D02*
X167184819Y-66571334D01*
X167137200Y-67428476D02*
X167184819Y-67333238D01*
X167184819Y-67333238D02*
X167184819Y-67142762D01*
X167184819Y-67142762D02*
X167137200Y-67047524D01*
X167137200Y-67047524D02*
X167041961Y-66999905D01*
X167041961Y-66999905D02*
X166661009Y-66999905D01*
X166661009Y-66999905D02*
X166565771Y-67047524D01*
X166565771Y-67047524D02*
X166518152Y-67142762D01*
X166518152Y-67142762D02*
X166518152Y-67333238D01*
X166518152Y-67333238D02*
X166565771Y-67428476D01*
X166565771Y-67428476D02*
X166661009Y-67476095D01*
X166661009Y-67476095D02*
X166756247Y-67476095D01*
X166756247Y-67476095D02*
X166851485Y-66999905D01*
X167184819Y-67904667D02*
X166518152Y-67904667D01*
X166708628Y-67904667D02*
X166613390Y-67952286D01*
X166613390Y-67952286D02*
X166565771Y-67999905D01*
X166565771Y-67999905D02*
X166518152Y-68095143D01*
X166518152Y-68095143D02*
X166518152Y-68190381D01*
X143842857Y-110159580D02*
X143890476Y-110207200D01*
X143890476Y-110207200D02*
X144033333Y-110254819D01*
X144033333Y-110254819D02*
X144128571Y-110254819D01*
X144128571Y-110254819D02*
X144271428Y-110207200D01*
X144271428Y-110207200D02*
X144366666Y-110111961D01*
X144366666Y-110111961D02*
X144414285Y-110016723D01*
X144414285Y-110016723D02*
X144461904Y-109826247D01*
X144461904Y-109826247D02*
X144461904Y-109683390D01*
X144461904Y-109683390D02*
X144414285Y-109492914D01*
X144414285Y-109492914D02*
X144366666Y-109397676D01*
X144366666Y-109397676D02*
X144271428Y-109302438D01*
X144271428Y-109302438D02*
X144128571Y-109254819D01*
X144128571Y-109254819D02*
X144033333Y-109254819D01*
X144033333Y-109254819D02*
X143890476Y-109302438D01*
X143890476Y-109302438D02*
X143842857Y-109350057D01*
X142890476Y-110254819D02*
X143461904Y-110254819D01*
X143176190Y-110254819D02*
X143176190Y-109254819D01*
X143176190Y-109254819D02*
X143271428Y-109397676D01*
X143271428Y-109397676D02*
X143366666Y-109492914D01*
X143366666Y-109492914D02*
X143461904Y-109540533D01*
X141985714Y-109254819D02*
X142461904Y-109254819D01*
X142461904Y-109254819D02*
X142509523Y-109731009D01*
X142509523Y-109731009D02*
X142461904Y-109683390D01*
X142461904Y-109683390D02*
X142366666Y-109635771D01*
X142366666Y-109635771D02*
X142128571Y-109635771D01*
X142128571Y-109635771D02*
X142033333Y-109683390D01*
X142033333Y-109683390D02*
X141985714Y-109731009D01*
X141985714Y-109731009D02*
X141938095Y-109826247D01*
X141938095Y-109826247D02*
X141938095Y-110064342D01*
X141938095Y-110064342D02*
X141985714Y-110159580D01*
X141985714Y-110159580D02*
X142033333Y-110207200D01*
X142033333Y-110207200D02*
X142128571Y-110254819D01*
X142128571Y-110254819D02*
X142366666Y-110254819D01*
X142366666Y-110254819D02*
X142461904Y-110207200D01*
X142461904Y-110207200D02*
X142509523Y-110159580D01*
X144214285Y-110554819D02*
X144119047Y-110554819D01*
X144119047Y-110554819D02*
X144023809Y-110602438D01*
X144023809Y-110602438D02*
X143976190Y-110650057D01*
X143976190Y-110650057D02*
X143928571Y-110745295D01*
X143928571Y-110745295D02*
X143880952Y-110935771D01*
X143880952Y-110935771D02*
X143880952Y-111173866D01*
X143880952Y-111173866D02*
X143928571Y-111364342D01*
X143928571Y-111364342D02*
X143976190Y-111459580D01*
X143976190Y-111459580D02*
X144023809Y-111507200D01*
X144023809Y-111507200D02*
X144119047Y-111554819D01*
X144119047Y-111554819D02*
X144214285Y-111554819D01*
X144214285Y-111554819D02*
X144309523Y-111507200D01*
X144309523Y-111507200D02*
X144357142Y-111459580D01*
X144357142Y-111459580D02*
X144404761Y-111364342D01*
X144404761Y-111364342D02*
X144452380Y-111173866D01*
X144452380Y-111173866D02*
X144452380Y-110935771D01*
X144452380Y-110935771D02*
X144404761Y-110745295D01*
X144404761Y-110745295D02*
X144357142Y-110650057D01*
X144357142Y-110650057D02*
X144309523Y-110602438D01*
X144309523Y-110602438D02*
X144214285Y-110554819D01*
X143452380Y-111459580D02*
X143404761Y-111507200D01*
X143404761Y-111507200D02*
X143452380Y-111554819D01*
X143452380Y-111554819D02*
X143499999Y-111507200D01*
X143499999Y-111507200D02*
X143452380Y-111459580D01*
X143452380Y-111459580D02*
X143452380Y-111554819D01*
X142452381Y-111554819D02*
X143023809Y-111554819D01*
X142738095Y-111554819D02*
X142738095Y-110554819D01*
X142738095Y-110554819D02*
X142833333Y-110697676D01*
X142833333Y-110697676D02*
X142928571Y-110792914D01*
X142928571Y-110792914D02*
X143023809Y-110840533D01*
X141595238Y-110888152D02*
X141595238Y-111554819D01*
X142023809Y-110888152D02*
X142023809Y-111411961D01*
X142023809Y-111411961D02*
X141976190Y-111507200D01*
X141976190Y-111507200D02*
X141880952Y-111554819D01*
X141880952Y-111554819D02*
X141738095Y-111554819D01*
X141738095Y-111554819D02*
X141642857Y-111507200D01*
X141642857Y-111507200D02*
X141595238Y-111459580D01*
X51038733Y-86635819D02*
X51038733Y-87350104D01*
X51038733Y-87350104D02*
X51086352Y-87492961D01*
X51086352Y-87492961D02*
X51181590Y-87588200D01*
X51181590Y-87588200D02*
X51324447Y-87635819D01*
X51324447Y-87635819D02*
X51419685Y-87635819D01*
X50133971Y-86635819D02*
X50324447Y-86635819D01*
X50324447Y-86635819D02*
X50419685Y-86683438D01*
X50419685Y-86683438D02*
X50467304Y-86731057D01*
X50467304Y-86731057D02*
X50562542Y-86873914D01*
X50562542Y-86873914D02*
X50610161Y-87064390D01*
X50610161Y-87064390D02*
X50610161Y-87445342D01*
X50610161Y-87445342D02*
X50562542Y-87540580D01*
X50562542Y-87540580D02*
X50514923Y-87588200D01*
X50514923Y-87588200D02*
X50419685Y-87635819D01*
X50419685Y-87635819D02*
X50229209Y-87635819D01*
X50229209Y-87635819D02*
X50133971Y-87588200D01*
X50133971Y-87588200D02*
X50086352Y-87540580D01*
X50086352Y-87540580D02*
X50038733Y-87445342D01*
X50038733Y-87445342D02*
X50038733Y-87207247D01*
X50038733Y-87207247D02*
X50086352Y-87112009D01*
X50086352Y-87112009D02*
X50133971Y-87064390D01*
X50133971Y-87064390D02*
X50229209Y-87016771D01*
X50229209Y-87016771D02*
X50419685Y-87016771D01*
X50419685Y-87016771D02*
X50514923Y-87064390D01*
X50514923Y-87064390D02*
X50562542Y-87112009D01*
X50562542Y-87112009D02*
X50610161Y-87207247D01*
X51705399Y-78465819D02*
X51514923Y-78465819D01*
X51514923Y-78465819D02*
X51419685Y-78513438D01*
X51419685Y-78513438D02*
X51324447Y-78608676D01*
X51324447Y-78608676D02*
X51276828Y-78799152D01*
X51276828Y-78799152D02*
X51276828Y-79132485D01*
X51276828Y-79132485D02*
X51324447Y-79322961D01*
X51324447Y-79322961D02*
X51419685Y-79418200D01*
X51419685Y-79418200D02*
X51514923Y-79465819D01*
X51514923Y-79465819D02*
X51705399Y-79465819D01*
X51705399Y-79465819D02*
X51800637Y-79418200D01*
X51800637Y-79418200D02*
X51895875Y-79322961D01*
X51895875Y-79322961D02*
X51943494Y-79132485D01*
X51943494Y-79132485D02*
X51943494Y-78799152D01*
X51943494Y-78799152D02*
X51895875Y-78608676D01*
X51895875Y-78608676D02*
X51800637Y-78513438D01*
X51800637Y-78513438D02*
X51705399Y-78465819D01*
X50848256Y-78465819D02*
X50848256Y-79275342D01*
X50848256Y-79275342D02*
X50800637Y-79370580D01*
X50800637Y-79370580D02*
X50753018Y-79418200D01*
X50753018Y-79418200D02*
X50657780Y-79465819D01*
X50657780Y-79465819D02*
X50467304Y-79465819D01*
X50467304Y-79465819D02*
X50372066Y-79418200D01*
X50372066Y-79418200D02*
X50324447Y-79370580D01*
X50324447Y-79370580D02*
X50276828Y-79275342D01*
X50276828Y-79275342D02*
X50276828Y-78465819D01*
X49943494Y-78465819D02*
X49372066Y-78465819D01*
X49657780Y-79465819D02*
X49657780Y-78465819D01*
X67716666Y-100354819D02*
X68049999Y-99878628D01*
X68288094Y-100354819D02*
X68288094Y-99354819D01*
X68288094Y-99354819D02*
X67907142Y-99354819D01*
X67907142Y-99354819D02*
X67811904Y-99402438D01*
X67811904Y-99402438D02*
X67764285Y-99450057D01*
X67764285Y-99450057D02*
X67716666Y-99545295D01*
X67716666Y-99545295D02*
X67716666Y-99688152D01*
X67716666Y-99688152D02*
X67764285Y-99783390D01*
X67764285Y-99783390D02*
X67811904Y-99831009D01*
X67811904Y-99831009D02*
X67907142Y-99878628D01*
X67907142Y-99878628D02*
X68288094Y-99878628D01*
X66859523Y-99688152D02*
X66859523Y-100354819D01*
X67097618Y-99307200D02*
X67335713Y-100021485D01*
X67335713Y-100021485D02*
X66716666Y-100021485D01*
X154666666Y-55254819D02*
X154999999Y-54778628D01*
X155238094Y-55254819D02*
X155238094Y-54254819D01*
X155238094Y-54254819D02*
X154857142Y-54254819D01*
X154857142Y-54254819D02*
X154761904Y-54302438D01*
X154761904Y-54302438D02*
X154714285Y-54350057D01*
X154714285Y-54350057D02*
X154666666Y-54445295D01*
X154666666Y-54445295D02*
X154666666Y-54588152D01*
X154666666Y-54588152D02*
X154714285Y-54683390D01*
X154714285Y-54683390D02*
X154761904Y-54731009D01*
X154761904Y-54731009D02*
X154857142Y-54778628D01*
X154857142Y-54778628D02*
X155238094Y-54778628D01*
X154285713Y-54350057D02*
X154238094Y-54302438D01*
X154238094Y-54302438D02*
X154142856Y-54254819D01*
X154142856Y-54254819D02*
X153904761Y-54254819D01*
X153904761Y-54254819D02*
X153809523Y-54302438D01*
X153809523Y-54302438D02*
X153761904Y-54350057D01*
X153761904Y-54350057D02*
X153714285Y-54445295D01*
X153714285Y-54445295D02*
X153714285Y-54540533D01*
X153714285Y-54540533D02*
X153761904Y-54683390D01*
X153761904Y-54683390D02*
X154333332Y-55254819D01*
X154333332Y-55254819D02*
X153714285Y-55254819D01*
X149223809Y-54588152D02*
X149223809Y-55254819D01*
X149461904Y-54207200D02*
X149699999Y-54921485D01*
X149699999Y-54921485D02*
X149080952Y-54921485D01*
X148699999Y-55159580D02*
X148652380Y-55207200D01*
X148652380Y-55207200D02*
X148699999Y-55254819D01*
X148699999Y-55254819D02*
X148747618Y-55207200D01*
X148747618Y-55207200D02*
X148699999Y-55159580D01*
X148699999Y-55159580D02*
X148699999Y-55254819D01*
X148319047Y-54254819D02*
X147652381Y-54254819D01*
X147652381Y-54254819D02*
X148080952Y-55254819D01*
X147271428Y-55254819D02*
X147271428Y-54254819D01*
X146700000Y-55254819D02*
X147128571Y-54683390D01*
X146700000Y-54254819D02*
X147271428Y-54826247D01*
X171042857Y-98759580D02*
X171090476Y-98807200D01*
X171090476Y-98807200D02*
X171233333Y-98854819D01*
X171233333Y-98854819D02*
X171328571Y-98854819D01*
X171328571Y-98854819D02*
X171471428Y-98807200D01*
X171471428Y-98807200D02*
X171566666Y-98711961D01*
X171566666Y-98711961D02*
X171614285Y-98616723D01*
X171614285Y-98616723D02*
X171661904Y-98426247D01*
X171661904Y-98426247D02*
X171661904Y-98283390D01*
X171661904Y-98283390D02*
X171614285Y-98092914D01*
X171614285Y-98092914D02*
X171566666Y-97997676D01*
X171566666Y-97997676D02*
X171471428Y-97902438D01*
X171471428Y-97902438D02*
X171328571Y-97854819D01*
X171328571Y-97854819D02*
X171233333Y-97854819D01*
X171233333Y-97854819D02*
X171090476Y-97902438D01*
X171090476Y-97902438D02*
X171042857Y-97950057D01*
X170090476Y-98854819D02*
X170661904Y-98854819D01*
X170376190Y-98854819D02*
X170376190Y-97854819D01*
X170376190Y-97854819D02*
X170471428Y-97997676D01*
X170471428Y-97997676D02*
X170566666Y-98092914D01*
X170566666Y-98092914D02*
X170661904Y-98140533D01*
X169471428Y-97854819D02*
X169376190Y-97854819D01*
X169376190Y-97854819D02*
X169280952Y-97902438D01*
X169280952Y-97902438D02*
X169233333Y-97950057D01*
X169233333Y-97950057D02*
X169185714Y-98045295D01*
X169185714Y-98045295D02*
X169138095Y-98235771D01*
X169138095Y-98235771D02*
X169138095Y-98473866D01*
X169138095Y-98473866D02*
X169185714Y-98664342D01*
X169185714Y-98664342D02*
X169233333Y-98759580D01*
X169233333Y-98759580D02*
X169280952Y-98807200D01*
X169280952Y-98807200D02*
X169376190Y-98854819D01*
X169376190Y-98854819D02*
X169471428Y-98854819D01*
X169471428Y-98854819D02*
X169566666Y-98807200D01*
X169566666Y-98807200D02*
X169614285Y-98759580D01*
X169614285Y-98759580D02*
X169661904Y-98664342D01*
X169661904Y-98664342D02*
X169709523Y-98473866D01*
X169709523Y-98473866D02*
X169709523Y-98235771D01*
X169709523Y-98235771D02*
X169661904Y-98045295D01*
X169661904Y-98045295D02*
X169614285Y-97950057D01*
X169614285Y-97950057D02*
X169566666Y-97902438D01*
X169566666Y-97902438D02*
X169471428Y-97854819D01*
X166966666Y-98654819D02*
X167538094Y-98654819D01*
X167252380Y-98654819D02*
X167252380Y-97654819D01*
X167252380Y-97654819D02*
X167347618Y-97797676D01*
X167347618Y-97797676D02*
X167442856Y-97892914D01*
X167442856Y-97892914D02*
X167538094Y-97940533D01*
X166109523Y-97988152D02*
X166109523Y-98654819D01*
X166538094Y-97988152D02*
X166538094Y-98511961D01*
X166538094Y-98511961D02*
X166490475Y-98607200D01*
X166490475Y-98607200D02*
X166395237Y-98654819D01*
X166395237Y-98654819D02*
X166252380Y-98654819D01*
X166252380Y-98654819D02*
X166157142Y-98607200D01*
X166157142Y-98607200D02*
X166109523Y-98559580D01*
D13*
%TO.C,J1*%
X162032000Y-44026000D02*
X157782000Y-44026000D01*
X157782000Y-44026000D02*
X157782000Y-45046000D01*
X159382000Y-45046000D02*
X159382000Y-46326000D01*
X157782000Y-45046000D02*
X159382000Y-45046000D01*
X165602000Y-45746000D02*
X165602000Y-54426000D01*
X159382000Y-46326000D02*
X156492000Y-46326000D01*
X159382000Y-55126000D02*
X159382000Y-53846000D01*
X157782000Y-55126000D02*
X159382000Y-55126000D01*
X162032000Y-56146000D02*
X157782000Y-56146000D01*
X157782000Y-56146000D02*
X157782000Y-55126000D01*
%TO.C,R5*%
X155977064Y-96085000D02*
X155522936Y-96085000D01*
X155977064Y-94615000D02*
X155522936Y-94615000D01*
%TO.C,R3*%
X152109664Y-52474800D02*
X151655536Y-52474800D01*
X152109664Y-51004800D02*
X151655536Y-51004800D01*
%TO.C,R6*%
X157948136Y-96750200D02*
X158402264Y-96750200D01*
X157948136Y-98220200D02*
X158402264Y-98220200D01*
%TO.C,C8*%
X136421800Y-67636848D02*
X136421800Y-68159352D01*
X134951800Y-67636848D02*
X134951800Y-68159352D01*
%TO.C,C6*%
X71885000Y-102388748D02*
X71885000Y-102911252D01*
X70415000Y-102388748D02*
X70415000Y-102911252D01*
%TO.C,U1*%
X145693000Y-93222000D02*
X145693000Y-92472000D01*
X146443000Y-93222000D02*
X145693000Y-93222000D01*
X171193000Y-93222000D02*
X164443000Y-93222000D01*
X171193000Y-93222000D02*
X171193000Y-75222000D01*
X145693000Y-92472000D02*
X145693000Y-90722000D01*
X145693000Y-75972000D02*
X145693000Y-77722000D01*
X145693000Y-75222000D02*
X145693000Y-75972000D01*
X146443000Y-75222000D02*
X145693000Y-75222000D01*
X165253000Y-75222000D02*
X165253000Y-93222000D01*
X171193000Y-75222000D02*
X164443000Y-75222000D01*
%TO.C,C12*%
X160875000Y-108262000D02*
X160875000Y-108887000D01*
X160562500Y-108574500D02*
X161187500Y-108574500D01*
X164255563Y-109127000D02*
X163620000Y-109127000D01*
X164255563Y-109127000D02*
X165320000Y-110191437D01*
X160864437Y-109127000D02*
X161500000Y-109127000D01*
X160864437Y-109127000D02*
X159800000Y-110191437D01*
X165320000Y-110191437D02*
X165320000Y-114647000D01*
X159800000Y-110191437D02*
X159800000Y-114647000D01*
X165320000Y-114647000D02*
X163620000Y-114647000D01*
X159800000Y-114647000D02*
X161500000Y-114647000D01*
%TO.C,SW2*%
X144305800Y-96374000D02*
X144305800Y-96404000D01*
X144305800Y-96374000D02*
X150765800Y-96374000D01*
X144305800Y-100904000D02*
X144305800Y-98304000D01*
X144305800Y-102804000D02*
X144305800Y-102834000D01*
X144305800Y-102834000D02*
X150765800Y-102834000D01*
X150765800Y-96374000D02*
X150765800Y-96404000D01*
X150765800Y-100904000D02*
X150765800Y-98304000D01*
X150765800Y-102834000D02*
X150765800Y-102804000D01*
%TO.C,U4*%
X157842000Y-115962000D02*
X157842000Y-109952000D01*
X151022000Y-113712000D02*
X151022000Y-109952000D01*
X151022000Y-109952000D02*
X152282000Y-109952000D01*
X157842000Y-109952000D02*
X156582000Y-109952000D01*
%TO.C,J4*%
X23085400Y-81526400D02*
X38955400Y-81526400D01*
X23085400Y-84601400D02*
X23085400Y-81526400D01*
X24505400Y-85616400D02*
X37535400Y-85616400D01*
X24505400Y-86116400D02*
X24505400Y-85616400D01*
X24525400Y-86116400D02*
X24505400Y-86116400D01*
X37535400Y-85616400D02*
X37535400Y-86116400D01*
X37535400Y-86116400D02*
X37515400Y-86116400D01*
X38955400Y-81526400D02*
X38955400Y-84601400D01*
%TO.C,C14*%
X140692200Y-101353252D02*
X140692200Y-100830748D01*
X142162200Y-101353252D02*
X142162200Y-100830748D01*
%TO.C,J7*%
X66800000Y-97800000D02*
X66800000Y-79800000D01*
X66800000Y-97800000D02*
X96800000Y-97800000D01*
X96800000Y-79800000D02*
X66800000Y-79800000D01*
X96800000Y-97800000D02*
X96800000Y-79800000D01*
%TO.C,C13*%
X150268000Y-105163252D02*
X150268000Y-104640748D01*
X151738000Y-105163252D02*
X151738000Y-104640748D01*
%TO.C,C9*%
X163293248Y-94642000D02*
X163815752Y-94642000D01*
X163293248Y-96112000D02*
X163815752Y-96112000D01*
%TO.C,C11*%
X161195000Y-99455000D02*
X165580000Y-99455000D01*
X161195000Y-102475000D02*
X161195000Y-99455000D01*
X165580000Y-102475000D02*
X161195000Y-102475000D01*
%TO.C,C16*%
X144111000Y-113596000D02*
X144111000Y-114221000D01*
X143798500Y-113908500D02*
X144423500Y-113908500D01*
X147491563Y-114461000D02*
X146856000Y-114461000D01*
X147491563Y-114461000D02*
X148556000Y-115525437D01*
X144100437Y-114461000D02*
X144736000Y-114461000D01*
X144100437Y-114461000D02*
X143036000Y-115525437D01*
X148556000Y-115525437D02*
X148556000Y-119981000D01*
X143036000Y-115525437D02*
X143036000Y-119981000D01*
X148556000Y-119981000D02*
X146856000Y-119981000D01*
X143036000Y-119981000D02*
X144736000Y-119981000D01*
%TO.C,JP2*%
X141101800Y-95014000D02*
X141701800Y-95014000D01*
X142401800Y-94314000D02*
X142401800Y-92914000D01*
X140401800Y-92914000D02*
X140401800Y-94314000D01*
X141701800Y-92214000D02*
X141101800Y-92214000D01*
X140401800Y-94314000D02*
G75*
G03*
X141101800Y-95014000I699999J-1D01*
G01*
X141701800Y-95014000D02*
G75*
G03*
X142401800Y-94314000I1J699999D01*
G01*
X141101800Y-92214000D02*
G75*
G03*
X140401800Y-92914000I0J-700000D01*
G01*
X142401800Y-92914000D02*
G75*
G03*
X141701800Y-92214000I-700000J0D01*
G01*
%TO.C,C2*%
X152182552Y-49528400D02*
X151660048Y-49528400D01*
X152182552Y-48058400D02*
X151660048Y-48058400D01*
%TO.C,C4*%
X141149400Y-84763152D02*
X141149400Y-84240648D01*
X142619400Y-84763152D02*
X142619400Y-84240648D01*
%TO.C,D2*%
X77262500Y-99990000D02*
X76612500Y-99990000D01*
X77262500Y-99990000D02*
X77912500Y-99990000D01*
X77262500Y-103110000D02*
X75587500Y-103110000D01*
X77262500Y-103110000D02*
X77912500Y-103110000D01*
%TO.C,SW1*%
X144962000Y-72318000D02*
X144962000Y-72288000D01*
X144962000Y-72318000D02*
X138502000Y-72318000D01*
X144962000Y-67788000D02*
X144962000Y-70388000D01*
X144962000Y-65888000D02*
X144962000Y-65858000D01*
X144962000Y-65858000D02*
X138502000Y-65858000D01*
X138502000Y-72318000D02*
X138502000Y-72288000D01*
X138502000Y-67788000D02*
X138502000Y-70388000D01*
X138502000Y-65858000D02*
X138502000Y-65888000D01*
%TO.C,R1*%
X137551936Y-83796200D02*
X138006064Y-83796200D01*
X137551936Y-85266200D02*
X138006064Y-85266200D01*
%TO.C,SW3*%
X168930000Y-109789600D02*
X168930000Y-100789600D01*
X169430000Y-109789600D02*
X168930000Y-109789600D01*
X171430000Y-109789600D02*
X170930000Y-109789600D01*
X168930000Y-100789600D02*
X169430000Y-100789600D01*
X170930000Y-100789600D02*
X171430000Y-100789600D01*
X171430000Y-100789600D02*
X171430000Y-109789600D01*
%TO.C,J2*%
X161870000Y-57678000D02*
X157620000Y-57678000D01*
X157620000Y-57678000D02*
X157620000Y-58698000D01*
X159220000Y-58698000D02*
X159220000Y-59978000D01*
X157620000Y-58698000D02*
X159220000Y-58698000D01*
X165440000Y-59398000D02*
X165440000Y-68078000D01*
X159220000Y-59978000D02*
X156330000Y-59978000D01*
X159220000Y-68778000D02*
X159220000Y-67498000D01*
X157620000Y-68778000D02*
X159220000Y-68778000D01*
X161870000Y-69798000D02*
X157620000Y-69798000D01*
X157620000Y-69798000D02*
X157620000Y-68778000D01*
%TO.C,C15*%
X145061000Y-111237752D02*
X145061000Y-110715248D01*
X146531000Y-111237752D02*
X146531000Y-110715248D01*
%TO.C,J6*%
X42770400Y-81501000D02*
X58640400Y-81501000D01*
X42770400Y-84576000D02*
X42770400Y-81501000D01*
X44190400Y-85591000D02*
X57220400Y-85591000D01*
X44190400Y-86091000D02*
X44190400Y-85591000D01*
X44210400Y-86091000D02*
X44190400Y-86091000D01*
X57220400Y-85591000D02*
X57220400Y-86091000D01*
X57220400Y-86091000D02*
X57200400Y-86091000D01*
X58640400Y-81501000D02*
X58640400Y-84576000D01*
%TO.C,R4*%
X67777064Y-102285000D02*
X67322936Y-102285000D01*
X67777064Y-100815000D02*
X67322936Y-100815000D01*
%TO.C,R2*%
X151925264Y-55446600D02*
X151471136Y-55446600D01*
X151925264Y-53976600D02*
X151471136Y-53976600D01*
%TO.C,C10*%
X163293248Y-97563000D02*
X163815752Y-97563000D01*
X163293248Y-99033000D02*
X163815752Y-99033000D01*
%TD*%
M02*
