M48
; DRILL file {KiCad 7.0.8} date Mon Nov 20 11:06:56 2023
; FORMAT={-:-/ absolute / inch / decimal}
; #@! TF.CreationDate,2023-11-20T11:06:56+02:00
; #@! TF.GenerationSoftware,Kicad,Pcbnew,7.0.8
; #@! TF.FileFunction,Plated,1,4,PTH
FMAT,2
INCH
; #@! TA.AperFunction,Plated,PTH,ViaDrill
T1C0.0157
; #@! TA.AperFunction,Plated,PTH,ComponentDrill
T2C0.0402
%
G90
G05
T1
X0.6535Y-1.0157
X0.7006Y-1.1619
X0.7006Y-1.4453
X0.7006Y-1.7288
X0.7006Y-2.0123
X0.7006Y-2.2957
X0.7006Y-2.5792
X0.7006Y-2.8626
X0.7006Y-3.1461
X0.7006Y-3.5871
X0.7006Y-3.8705
X0.7006Y-4.154
X0.7006Y-4.4375
X0.7006Y-4.7209
X0.7006Y-5.0044
X0.7006Y-5.2878
X0.7006Y-5.5713
X0.703Y-1.097
X0.703Y-1.3804
X0.703Y-1.6639
X0.703Y-1.9474
X0.703Y-2.2308
X0.703Y-2.5143
X0.703Y-2.7977
X0.703Y-3.0812
X0.703Y-3.5222
X0.703Y-3.8056
X0.703Y-4.0891
X0.703Y-4.3726
X0.703Y-4.656
X0.703Y-4.9395
X0.703Y-5.2229
X0.703Y-5.5064
X0.7377Y-2.4372
X0.7377Y-4.8624
X0.7382Y-1.2992
X0.7382Y-3.7244
X0.7382Y-2.9963
X0.7382Y-5.4215
X0.7382Y-1.5879
X0.7382Y-4.0131
X0.7384Y-1.8698
X0.7384Y-4.295
X0.7387Y-2.1547
X0.7387Y-4.5799
X0.7387Y-2.7222
X0.7387Y-5.1474
X0.74Y-3.435
X0.9565Y-1.1619
X0.9565Y-1.4453
X0.9565Y-1.7288
X0.9565Y-2.0123
X0.9565Y-2.2957
X0.9565Y-2.5792
X0.9565Y-2.8626
X0.9565Y-3.1461
X0.9565Y-3.5871
X0.9565Y-3.8705
X0.9565Y-4.154
X0.9565Y-4.4375
X0.9565Y-4.7209
X0.9565Y-5.0044
X0.9565Y-5.2878
X0.9565Y-5.5713
X0.9589Y-1.097
X0.9589Y-1.3804
X0.9589Y-1.6639
X0.9589Y-1.9474
X0.9589Y-2.2308
X0.9589Y-2.5143
X0.9589Y-2.7977
X0.9589Y-3.0812
X0.9589Y-3.5222
X0.9589Y-3.8056
X0.9589Y-4.0891
X0.9589Y-4.3726
X0.9589Y-4.656
X0.9589Y-4.9395
X0.9589Y-5.2229
X0.9589Y-5.5064
X1.2124Y-1.1619
X1.2124Y-1.4453
X1.2124Y-1.7288
X1.2124Y-2.0123
X1.2124Y-2.2957
X1.2124Y-2.5792
X1.2124Y-2.8626
X1.2124Y-3.1461
X1.2124Y-3.5871
X1.2124Y-3.8705
X1.2124Y-4.154
X1.2124Y-4.4375
X1.2124Y-4.7209
X1.2124Y-5.0044
X1.2124Y-5.2878
X1.2124Y-5.5713
X1.2148Y-1.097
X1.2148Y-1.3804
X1.2148Y-1.6639
X1.2148Y-1.9474
X1.2148Y-2.2308
X1.2148Y-2.5143
X1.2148Y-2.7977
X1.2148Y-3.0812
X1.2148Y-3.5222
X1.2148Y-3.8056
X1.2148Y-4.0891
X1.2148Y-4.3726
X1.2148Y-4.656
X1.2148Y-4.9395
X1.2148Y-5.2229
X1.2148Y-5.5064
X1.261Y-3.378
X1.4683Y-1.1619
X1.4683Y-1.4453
X1.4683Y-1.7288
X1.4683Y-2.0123
X1.4683Y-2.2957
X1.4683Y-2.5792
X1.4683Y-2.8626
X1.4683Y-3.1461
X1.4683Y-3.5871
X1.4683Y-3.8705
X1.4683Y-4.154
X1.4683Y-4.4375
X1.4683Y-4.7209
X1.4683Y-5.0044
X1.4683Y-5.2878
X1.4683Y-5.5713
X1.4707Y-1.097
X1.4707Y-1.3804
X1.4707Y-1.6639
X1.4707Y-1.9474
X1.4707Y-2.2308
X1.4707Y-2.5143
X1.4707Y-2.7977
X1.4707Y-3.0812
X1.4707Y-3.5222
X1.4707Y-3.8056
X1.4707Y-4.0891
X1.4707Y-4.3726
X1.4707Y-4.656
X1.4707Y-4.9395
X1.4707Y-5.2229
X1.4707Y-5.5064
X1.7242Y-1.1619
X1.7242Y-1.4453
X1.7242Y-1.7288
X1.7242Y-2.0123
X1.7242Y-2.2957
X1.7242Y-2.5792
X1.7242Y-2.8626
X1.7242Y-3.1461
X1.7242Y-3.5871
X1.7242Y-3.8705
X1.7242Y-4.154
X1.7242Y-4.4375
X1.7242Y-4.7209
X1.7242Y-5.0044
X1.7242Y-5.2878
X1.7242Y-5.5713
X1.7266Y-1.097
X1.7266Y-1.3804
X1.7266Y-1.6639
X1.7266Y-1.9474
X1.7266Y-2.2308
X1.7266Y-2.5143
X1.7266Y-2.7977
X1.7266Y-3.0812
X1.7266Y-3.5222
X1.7266Y-3.8056
X1.7266Y-4.0891
X1.7266Y-4.3726
X1.7266Y-4.656
X1.7266Y-4.9395
X1.7266Y-5.2229
X1.7266Y-5.5064
X1.788Y-3.633
X1.9801Y-1.1619
X1.9801Y-1.4453
X1.9801Y-1.7288
X1.9801Y-2.0123
X1.9801Y-2.2957
X1.9801Y-2.5792
X1.9801Y-2.8626
X1.9801Y-3.1461
X1.9801Y-3.5871
X1.9801Y-3.8705
X1.9801Y-4.154
X1.9801Y-4.4375
X1.9801Y-4.7209
X1.9801Y-5.0044
X1.9801Y-5.2878
X1.9801Y-5.5713
X1.9825Y-1.097
X1.9825Y-1.3804
X1.9825Y-1.6639
X1.9825Y-1.9474
X1.9825Y-2.2308
X1.9825Y-2.5143
X1.9825Y-2.7977
X1.9825Y-3.0812
X1.9825Y-3.5222
X1.9825Y-3.8056
X1.9825Y-4.0891
X1.9825Y-4.3726
X1.9825Y-4.656
X1.9825Y-4.9395
X1.9825Y-5.2229
X1.9825Y-5.5064
X2.035Y-3.621
X2.236Y-1.1619
X2.236Y-1.4453
X2.236Y-1.7288
X2.236Y-2.0123
X2.236Y-2.2957
X2.236Y-2.5792
X2.236Y-2.8626
X2.236Y-3.1461
X2.236Y-3.5871
X2.236Y-3.8705
X2.236Y-4.154
X2.236Y-4.4375
X2.236Y-4.7209
X2.236Y-5.0044
X2.236Y-5.2878
X2.236Y-5.5713
X2.2384Y-1.097
X2.2384Y-1.3804
X2.2384Y-1.6639
X2.2384Y-1.9474
X2.2384Y-2.2308
X2.2384Y-2.5143
X2.2384Y-2.7977
X2.2384Y-3.0812
X2.2384Y-3.5222
X2.2384Y-3.8056
X2.2384Y-4.0891
X2.2384Y-4.3726
X2.2384Y-4.656
X2.2384Y-4.9395
X2.2384Y-5.2229
X2.2384Y-5.5064
X2.4919Y-1.1619
X2.4919Y-1.4453
X2.4919Y-1.7288
X2.4919Y-2.0123
X2.4919Y-2.2957
X2.4919Y-2.5792
X2.4919Y-2.8626
X2.4919Y-3.1461
X2.4919Y-3.5871
X2.4919Y-3.8705
X2.4919Y-4.154
X2.4919Y-4.4375
X2.4919Y-4.7209
X2.4919Y-5.0044
X2.4919Y-5.2878
X2.4919Y-5.5713
X2.4943Y-1.097
X2.4943Y-1.3804
X2.4943Y-1.6639
X2.4943Y-1.9474
X2.4943Y-2.2308
X2.4943Y-2.5143
X2.4943Y-2.7977
X2.4943Y-3.0812
X2.4943Y-3.5222
X2.4943Y-3.8056
X2.4943Y-4.0891
X2.4943Y-4.3726
X2.4943Y-4.656
X2.4943Y-4.9395
X2.4943Y-5.2229
X2.4943Y-5.5064
X2.563Y-3.248
X2.563Y-3.3425
X2.6299Y-3.248
X2.6299Y-3.3425
X2.7008Y-3.248
X2.7008Y-3.3425
X2.7478Y-1.1619
X2.7478Y-1.4453
X2.7478Y-1.7288
X2.7478Y-2.0123
X2.7478Y-2.2957
X2.7478Y-2.5792
X2.7478Y-2.8626
X2.7478Y-3.1461
X2.7478Y-3.5871
X2.7478Y-3.8705
X2.7478Y-4.154
X2.7478Y-4.4375
X2.7478Y-4.7209
X2.7478Y-5.0044
X2.7478Y-5.2878
X2.7478Y-5.5713
X2.7502Y-1.097
X2.7502Y-1.3804
X2.7502Y-1.6639
X2.7502Y-1.9474
X2.7502Y-2.2308
X2.7502Y-2.5143
X2.7502Y-2.7977
X2.7502Y-3.0812
X2.7502Y-3.5222
X2.7502Y-4.0891
X2.7502Y-4.3726
X2.7502Y-4.656
X2.7502Y-4.9395
X2.7502Y-5.2229
X2.7502Y-5.5064
X2.8051Y-3.773
X3.0037Y-1.1619
X3.0037Y-1.4453
X3.0037Y-1.7288
X3.0037Y-2.0123
X3.0037Y-2.2957
X3.0037Y-2.5792
X3.0037Y-2.8626
X3.0037Y-3.1461
X3.0037Y-3.5871
X3.0037Y-3.8705
X3.0037Y-4.154
X3.0037Y-4.4375
X3.0037Y-4.7209
X3.0037Y-5.0044
X3.0037Y-5.2878
X3.0037Y-5.5713
X3.0061Y-1.097
X3.0061Y-1.3804
X3.0061Y-1.6639
X3.0061Y-1.9474
X3.0061Y-2.2308
X3.0061Y-2.5143
X3.0061Y-2.7977
X3.0061Y-3.0812
X3.0061Y-3.5222
X3.0061Y-3.8056
X3.0061Y-4.0891
X3.0061Y-4.3726
X3.0061Y-4.656
X3.0061Y-4.9395
X3.0061Y-5.2229
X3.0061Y-5.5064
X3.2597Y-1.1619
X3.2597Y-1.4453
X3.2597Y-1.7288
X3.2597Y-2.0123
X3.2597Y-2.2957
X3.2597Y-2.5792
X3.2597Y-2.8626
X3.2597Y-3.1461
X3.2597Y-3.5871
X3.2597Y-3.8705
X3.2597Y-4.154
X3.2597Y-4.4375
X3.2597Y-4.7209
X3.2597Y-5.0044
X3.2597Y-5.2878
X3.2597Y-5.5713
X3.262Y-1.097
X3.262Y-1.3804
X3.262Y-1.6639
X3.262Y-1.9474
X3.262Y-2.2308
X3.262Y-2.5143
X3.262Y-2.7977
X3.262Y-3.0812
X3.262Y-3.5222
X3.262Y-3.8056
X3.262Y-4.0891
X3.262Y-4.3726
X3.262Y-4.656
X3.262Y-4.9395
X3.262Y-5.2229
X3.262Y-5.5064
X3.3248Y-4.0181
X3.5156Y-1.1619
X3.5156Y-1.4453
X3.5156Y-1.7288
X3.5156Y-2.0123
X3.5156Y-2.2957
X3.5156Y-2.5792
X3.5156Y-2.8626
X3.5156Y-3.1461
X3.5156Y-3.5871
X3.5156Y-3.8705
X3.5156Y-4.154
X3.5156Y-4.4375
X3.5156Y-4.7209
X3.5156Y-5.0044
X3.5156Y-5.2878
X3.5156Y-5.5713
X3.5179Y-1.097
X3.5179Y-1.3804
X3.5179Y-1.6639
X3.5179Y-1.9474
X3.5179Y-2.2308
X3.5179Y-2.5143
X3.5179Y-2.7977
X3.5179Y-3.0812
X3.5179Y-3.5222
X3.5179Y-3.8056
X3.5179Y-4.0891
X3.5179Y-4.3726
X3.5179Y-4.656
X3.5179Y-4.9395
X3.5179Y-5.2229
X3.5179Y-5.5064
X3.5906Y-4.1614
X3.5945Y-1.1181
X3.5945Y-1.4449
X3.5945Y-2.0157
X3.5945Y-2.2992
X3.5945Y-2.8622
X3.5945Y-3.1457
X3.5945Y-3.3071
X3.5945Y-3.5709
X3.5945Y-3.874
X3.5945Y-4.4331
X3.5945Y-4.7205
X3.5945Y-5.2913
X3.5945Y-5.5787
X3.5984Y-2.5827
X3.5984Y-5.0
X3.7268Y-3.8545
X3.7402Y-3.248
X3.7402Y-3.3425
X3.7715Y-1.1619
X3.7715Y-1.4453
X3.7715Y-1.7288
X3.7715Y-2.0123
X3.7715Y-2.2957
X3.7715Y-2.5792
X3.7715Y-2.8626
X3.7715Y-3.5871
X3.7715Y-3.8705
X3.7715Y-4.154
X3.7715Y-4.4375
X3.7715Y-4.7209
X3.7715Y-5.0044
X3.7715Y-5.2878
X3.7715Y-5.5713
X3.7738Y-1.097
X3.7738Y-1.3804
X3.7738Y-1.6639
X3.7738Y-1.9474
X3.7738Y-2.2308
X3.7738Y-2.5143
X3.7738Y-2.7977
X3.7738Y-3.0812
X3.7738Y-3.5222
X3.7738Y-4.0891
X3.7738Y-4.3726
X3.7738Y-4.656
X3.7738Y-4.9395
X3.7738Y-5.2229
X3.7738Y-5.5064
X3.8071Y-3.248
X3.8071Y-3.3425
X3.8189Y-3.1102
X3.8287Y-4.0023
X3.878Y-3.248
X3.878Y-3.3425
X3.9646Y-3.3031
X3.967Y-3.358
X4.0274Y-1.1619
X4.0274Y-1.4453
X4.0274Y-1.7288
X4.0274Y-2.0123
X4.0274Y-2.2957
X4.0274Y-2.5792
X4.0274Y-2.8626
X4.0274Y-3.1461
X4.0274Y-3.5871
X4.0274Y-3.8705
X4.0274Y-4.154
X4.0274Y-4.4375
X4.0274Y-4.7209
X4.0274Y-5.0044
X4.0274Y-5.2878
X4.0274Y-5.5713
X4.0297Y-1.097
X4.0297Y-1.3804
X4.0297Y-1.6639
X4.0297Y-1.9474
X4.0297Y-2.2308
X4.0297Y-2.5143
X4.0297Y-2.7977
X4.0297Y-3.0812
X4.0297Y-3.5222
X4.0297Y-3.8056
X4.0297Y-4.0891
X4.0297Y-4.3726
X4.0297Y-4.656
X4.0297Y-4.9395
X4.0297Y-5.2229
X4.0297Y-5.5064
X4.2833Y-1.1619
X4.2833Y-1.4453
X4.2833Y-1.7288
X4.2833Y-2.0123
X4.2833Y-2.2957
X4.2833Y-2.5792
X4.2833Y-2.8626
X4.2833Y-3.1461
X4.2833Y-3.5871
X4.2833Y-3.8705
X4.2833Y-4.154
X4.2833Y-4.4375
X4.2833Y-4.7209
X4.2833Y-5.0044
X4.2833Y-5.2878
X4.2833Y-5.5713
X4.2856Y-1.097
X4.2856Y-1.3804
X4.2856Y-1.6639
X4.2856Y-1.9474
X4.2856Y-2.2308
X4.2856Y-2.5143
X4.2856Y-2.7977
X4.2856Y-3.0812
X4.2856Y-3.5222
X4.2856Y-3.8056
X4.2856Y-4.0891
X4.2856Y-4.3726
X4.2856Y-4.656
X4.2856Y-4.9395
X4.2856Y-5.2229
X4.2856Y-5.5064
X4.5392Y-1.1619
X4.5392Y-1.4453
X4.5392Y-1.7288
X4.5392Y-2.0123
X4.5392Y-2.2957
X4.5392Y-2.5792
X4.5392Y-2.8626
X4.5392Y-3.1461
X4.5392Y-3.5871
X4.5392Y-3.8705
X4.5392Y-4.154
X4.5392Y-4.4375
X4.5392Y-4.7209
X4.5392Y-5.0044
X4.5392Y-5.2878
X4.5392Y-5.5713
X4.5415Y-1.097
X4.5415Y-1.3804
X4.5415Y-1.6639
X4.5415Y-1.9474
X4.5415Y-2.2308
X4.5415Y-2.5143
X4.5415Y-2.7977
X4.5415Y-3.0812
X4.5415Y-3.5222
X4.5415Y-3.8056
X4.5415Y-4.0891
X4.5415Y-4.3726
X4.5415Y-4.656
X4.5415Y-4.9395
X4.5415Y-5.2229
X4.5415Y-5.5064
X4.7951Y-1.1619
X4.7951Y-1.4453
X4.7951Y-1.7288
X4.7951Y-2.0123
X4.7951Y-2.2957
X4.7951Y-2.5792
X4.7951Y-2.8626
X4.7951Y-3.1461
X4.7951Y-3.5871
X4.7951Y-3.8705
X4.7951Y-4.154
X4.7951Y-4.4375
X4.7951Y-4.7209
X4.7951Y-5.0044
X4.7951Y-5.2878
X4.7951Y-5.5713
X4.7974Y-1.097
X4.7974Y-1.3804
X4.7974Y-1.6639
X4.7974Y-1.9474
X4.7974Y-2.2308
X4.7974Y-2.5143
X4.7974Y-2.7977
X4.7974Y-3.0812
X4.7974Y-3.5222
X4.7974Y-3.8056
X4.7974Y-4.0891
X4.7974Y-4.3726
X4.7974Y-4.656
X4.7974Y-4.9395
X4.7974Y-5.2229
X4.7974Y-5.5064
X5.051Y-1.1619
X5.051Y-1.4453
X5.051Y-1.7288
X5.051Y-2.0123
X5.051Y-2.2957
X5.051Y-2.5792
X5.051Y-2.8626
X5.051Y-3.1461
X5.051Y-3.5871
X5.051Y-3.8705
X5.051Y-4.154
X5.051Y-4.4375
X5.051Y-4.7209
X5.051Y-5.0044
X5.051Y-5.2878
X5.051Y-5.5713
X5.0534Y-1.097
X5.0534Y-1.3804
X5.0534Y-1.6639
X5.0534Y-1.9474
X5.0534Y-2.2308
X5.0534Y-2.5143
X5.0534Y-2.7977
X5.0534Y-3.0812
X5.0534Y-3.5222
X5.0534Y-3.8056
X5.0534Y-4.0891
X5.0534Y-4.3726
X5.0534Y-4.656
X5.0534Y-4.9395
X5.0534Y-5.2229
X5.0534Y-5.5064
X5.3069Y-1.1619
X5.3069Y-1.4453
X5.3069Y-1.7288
X5.3069Y-2.0123
X5.3069Y-2.2957
X5.3069Y-2.5792
X5.3069Y-2.8626
X5.3069Y-3.1461
X5.3069Y-3.5871
X5.3069Y-3.8705
X5.3069Y-4.154
X5.3069Y-4.4375
X5.3069Y-4.7209
X5.3069Y-5.0044
X5.3069Y-5.2878
X5.3069Y-5.5713
X5.3093Y-1.097
X5.3093Y-1.3804
X5.3093Y-1.6639
X5.3093Y-1.9474
X5.3093Y-2.2308
X5.3093Y-2.5143
X5.3093Y-2.7977
X5.3093Y-3.0812
X5.3093Y-3.5222
X5.3093Y-3.8056
X5.3093Y-4.0891
X5.3093Y-4.3726
X5.3093Y-4.656
X5.3093Y-4.9395
X5.3093Y-5.2229
X5.3093Y-5.5064
X5.333Y-3.328
X5.5628Y-1.1619
X5.5628Y-1.4453
X5.5628Y-1.7288
X5.5628Y-2.0123
X5.5628Y-2.2957
X5.5628Y-2.5792
X5.5628Y-2.8626
X5.5628Y-3.1461
X5.5628Y-3.5871
X5.5628Y-3.8705
X5.5628Y-4.154
X5.5628Y-4.4375
X5.5628Y-4.7209
X5.5628Y-5.0044
X5.5628Y-5.2878
X5.5628Y-5.5713
X5.5652Y-1.097
X5.5652Y-1.3804
X5.5652Y-1.6639
X5.5652Y-1.9474
X5.5652Y-2.2308
X5.5652Y-2.5143
X5.5652Y-2.7977
X5.5652Y-3.0812
X5.5652Y-3.5222
X5.5652Y-3.8056
X5.5652Y-4.0891
X5.5652Y-4.3726
X5.5652Y-4.656
X5.5652Y-4.9395
X5.5652Y-5.2229
X5.5652Y-5.5064
X5.6321Y-3.574
X5.648Y-3.626
X5.8187Y-1.1619
X5.8187Y-1.4453
X5.8187Y-1.7288
X5.8187Y-2.0123
X5.8187Y-2.2957
X5.8187Y-2.5792
X5.8187Y-2.8626
X5.8187Y-3.1461
X5.8187Y-3.8705
X5.8187Y-4.154
X5.8187Y-4.4375
X5.8187Y-4.7209
X5.8187Y-5.0044
X5.8187Y-5.2878
X5.8187Y-5.5713
X5.8211Y-1.097
X5.8211Y-1.3804
X5.8211Y-1.6639
X5.8211Y-1.9474
X5.8211Y-2.2308
X5.8211Y-2.5143
X5.8211Y-2.7977
X5.8211Y-3.0812
X5.8211Y-3.5222
X5.8211Y-3.8056
X5.8211Y-4.0891
X5.8211Y-4.3726
X5.8211Y-4.656
X5.8211Y-4.9395
X5.8211Y-5.2229
X5.8211Y-5.5064
X5.842Y-3.572
X5.91Y-3.32
X6.01Y-3.315
X6.01Y-3.365
X6.035Y-3.27
X6.0651Y-3.5341
X6.0746Y-1.1619
X6.0746Y-1.4453
X6.0746Y-1.7288
X6.0746Y-2.0123
X6.0746Y-2.2957
X6.0746Y-2.5792
X6.0746Y-2.8626
X6.0746Y-3.1461
X6.0746Y-3.8705
X6.0746Y-4.154
X6.0746Y-4.4375
X6.0746Y-4.7209
X6.0746Y-5.0044
X6.0746Y-5.2878
X6.0746Y-5.5713
X6.077Y-1.097
X6.077Y-1.3804
X6.077Y-1.6639
X6.077Y-1.9474
X6.077Y-2.2308
X6.077Y-2.5143
X6.077Y-2.7977
X6.077Y-3.0812
X6.077Y-3.8056
X6.077Y-4.0891
X6.077Y-4.3726
X6.077Y-4.656
X6.077Y-4.9395
X6.077Y-5.2229
X6.077Y-5.5064
X6.134Y-4.006
X6.1614Y-3.5734
X6.18Y-3.281
X6.2009Y-3.4896
X6.261Y-3.333
X6.3305Y-1.1619
X6.3305Y-1.4453
X6.3305Y-1.7288
X6.3305Y-2.0123
X6.3305Y-2.2957
X6.3305Y-2.5792
X6.3305Y-2.8626
X6.3305Y-3.1461
X6.3305Y-3.5871
X6.3305Y-3.8705
X6.3305Y-4.154
X6.3305Y-4.4375
X6.3305Y-4.7209
X6.3305Y-5.0044
X6.3305Y-5.2878
X6.3305Y-5.5713
X6.3329Y-1.097
X6.3329Y-1.3804
X6.3329Y-1.6639
X6.3329Y-1.9474
X6.3329Y-2.2308
X6.3329Y-2.5143
X6.3329Y-2.7977
X6.3329Y-3.0812
X6.3329Y-3.8056
X6.3329Y-4.0891
X6.3329Y-4.3726
X6.3329Y-4.656
X6.3329Y-4.9395
X6.3329Y-5.2229
X6.3329Y-5.5064
X6.3655Y-3.4896
X6.3719Y-2.4264
X6.38Y-3.244
X6.395Y-3.725
X6.564Y-3.323
X6.5864Y-1.1619
X6.5864Y-1.4453
X6.5864Y-1.7288
X6.5864Y-2.0123
X6.5864Y-2.2957
X6.5864Y-2.5792
X6.5864Y-2.8626
X6.5864Y-3.1461
X6.5864Y-3.5871
X6.5864Y-3.8705
X6.5864Y-4.154
X6.5864Y-4.4375
X6.5864Y-4.7209
X6.5864Y-5.0044
X6.5864Y-5.2878
X6.5864Y-5.5713
X6.5888Y-1.097
X6.5888Y-1.3804
X6.5888Y-1.6639
X6.5888Y-1.9474
X6.5888Y-2.2308
X6.5888Y-2.5143
X6.5888Y-2.7977
X6.5888Y-3.0812
X6.5888Y-3.5222
X6.5888Y-3.8056
X6.5888Y-4.0891
X6.5888Y-4.3726
X6.5888Y-4.656
X6.5888Y-4.9395
X6.5888Y-5.2229
X6.5888Y-5.5064
X6.628Y-4.006
X6.636Y-2.428
X6.7149Y-2.2994
X6.7149Y-4.7246
X6.7152Y-3.1498
X6.7154Y-1.1614
X6.7154Y-3.5866
X6.7154Y-2.8585
X6.7154Y-5.2837
X6.7154Y-1.4501
X6.7154Y-3.8753
X6.7156Y-1.732
X6.7156Y-4.1572
X6.7159Y-2.0169
X6.7159Y-4.4421
X6.7159Y-2.5844
X6.7159Y-5.0096
X6.7598Y-5.626
T2
X1.0441Y-3.2888
X1.1622Y-3.2888
X1.2803Y-3.2888
X1.3984Y-3.2888
X1.8191Y-3.2878
X1.9372Y-3.2878
X2.0553Y-3.2878
X2.1734Y-3.2878
T0
M30
