%TF.GenerationSoftware,KiCad,Pcbnew,7.0.8*%
%TF.CreationDate,2023-11-20T11:06:52+02:00*%
%TF.ProjectId,LED Matrix Display,4c454420-4d61-4747-9269-782044697370,rev?*%
%TF.SameCoordinates,Original*%
%TF.FileFunction,Copper,L4,Bot*%
%TF.FilePolarity,Positive*%
%FSLAX46Y46*%
G04 Gerber Fmt 4.6, Leading zero omitted, Abs format (unit mm)*
G04 Created by KiCad (PCBNEW 7.0.8) date 2023-11-20 11:06:52*
%MOMM*%
%LPD*%
G01*
G04 APERTURE LIST*
G04 Aperture macros list*
%AMRoundRect*
0 Rectangle with rounded corners*
0 $1 Rounding radius*
0 $2 $3 $4 $5 $6 $7 $8 $9 X,Y pos of 4 corners*
0 Add a 4 corners polygon primitive as box body*
4,1,4,$2,$3,$4,$5,$6,$7,$8,$9,$2,$3,0*
0 Add four circle primitives for the rounded corners*
1,1,$1+$1,$2,$3*
1,1,$1+$1,$4,$5*
1,1,$1+$1,$6,$7*
1,1,$1+$1,$8,$9*
0 Add four rect primitives between the rounded corners*
20,1,$1+$1,$2,$3,$4,$5,0*
20,1,$1+$1,$4,$5,$6,$7,0*
20,1,$1+$1,$6,$7,$8,$9,0*
20,1,$1+$1,$8,$9,$2,$3,0*%
%AMFreePoly0*
4,1,19,0.500000,-0.750000,0.000000,-0.750000,0.000000,-0.744911,-0.071157,-0.744911,-0.207708,-0.704816,-0.327430,-0.627875,-0.420627,-0.520320,-0.479746,-0.390866,-0.500000,-0.250000,-0.500000,0.250000,-0.479746,0.390866,-0.420627,0.520320,-0.327430,0.627875,-0.207708,0.704816,-0.071157,0.744911,0.000000,0.744911,0.000000,0.750000,0.500000,0.750000,0.500000,-0.750000,0.500000,-0.750000,
$1*%
%AMFreePoly1*
4,1,19,0.000000,0.744911,0.071157,0.744911,0.207708,0.704816,0.327430,0.627875,0.420627,0.520320,0.479746,0.390866,0.500000,0.250000,0.500000,-0.250000,0.479746,-0.390866,0.420627,-0.520320,0.327430,-0.627875,0.207708,-0.704816,0.071157,-0.744911,0.000000,-0.744911,0.000000,-0.750000,-0.500000,-0.750000,-0.500000,0.750000,0.000000,0.750000,0.000000,0.744911,0.000000,0.744911,
$1*%
G04 Aperture macros list end*
%TA.AperFunction,SMDPad,CuDef*%
%ADD10RoundRect,0.250000X-1.500000X0.250000X-1.500000X-0.250000X1.500000X-0.250000X1.500000X0.250000X0*%
%TD*%
%TA.AperFunction,SMDPad,CuDef*%
%ADD11RoundRect,0.250001X-1.449999X0.499999X-1.449999X-0.499999X1.449999X-0.499999X1.449999X0.499999X0*%
%TD*%
%TA.AperFunction,SMDPad,CuDef*%
%ADD12RoundRect,0.250000X0.350000X0.450000X-0.350000X0.450000X-0.350000X-0.450000X0.350000X-0.450000X0*%
%TD*%
%TA.AperFunction,SMDPad,CuDef*%
%ADD13RoundRect,0.250000X-0.350000X-0.450000X0.350000X-0.450000X0.350000X0.450000X-0.350000X0.450000X0*%
%TD*%
%TA.AperFunction,SMDPad,CuDef*%
%ADD14RoundRect,0.250000X-0.475000X0.337500X-0.475000X-0.337500X0.475000X-0.337500X0.475000X0.337500X0*%
%TD*%
%TA.AperFunction,SMDPad,CuDef*%
%ADD15R,0.900000X1.500000*%
%TD*%
%TA.AperFunction,SMDPad,CuDef*%
%ADD16R,1.500000X0.900000*%
%TD*%
%TA.AperFunction,SMDPad,CuDef*%
%ADD17R,0.900000X0.900000*%
%TD*%
%TA.AperFunction,SMDPad,CuDef*%
%ADD18RoundRect,0.250000X-0.550000X1.250000X-0.550000X-1.250000X0.550000X-1.250000X0.550000X1.250000X0*%
%TD*%
%TA.AperFunction,SMDPad,CuDef*%
%ADD19R,1.550000X1.300000*%
%TD*%
%TA.AperFunction,SMDPad,CuDef*%
%ADD20R,1.500000X2.000000*%
%TD*%
%TA.AperFunction,SMDPad,CuDef*%
%ADD21R,3.800000X2.000000*%
%TD*%
%TA.AperFunction,ComponentPad*%
%ADD22RoundRect,0.250001X-0.499999X-0.759999X0.499999X-0.759999X0.499999X0.759999X-0.499999X0.759999X0*%
%TD*%
%TA.AperFunction,ComponentPad*%
%ADD23O,1.500000X2.020000*%
%TD*%
%TA.AperFunction,SMDPad,CuDef*%
%ADD24RoundRect,0.250000X0.475000X-0.337500X0.475000X0.337500X-0.475000X0.337500X-0.475000X-0.337500X0*%
%TD*%
%TA.AperFunction,SMDPad,CuDef*%
%ADD25R,5.080000X2.540000*%
%TD*%
%TA.AperFunction,SMDPad,CuDef*%
%ADD26RoundRect,0.250000X-0.337500X-0.475000X0.337500X-0.475000X0.337500X0.475000X-0.337500X0.475000X0*%
%TD*%
%TA.AperFunction,SMDPad,CuDef*%
%ADD27RoundRect,0.250001X-0.499999X-0.924999X0.499999X-0.924999X0.499999X0.924999X-0.499999X0.924999X0*%
%TD*%
%TA.AperFunction,SMDPad,CuDef*%
%ADD28FreePoly0,90.000000*%
%TD*%
%TA.AperFunction,SMDPad,CuDef*%
%ADD29FreePoly1,90.000000*%
%TD*%
%TA.AperFunction,SMDPad,CuDef*%
%ADD30RoundRect,0.250000X0.337500X0.475000X-0.337500X0.475000X-0.337500X-0.475000X0.337500X-0.475000X0*%
%TD*%
%TA.AperFunction,SMDPad,CuDef*%
%ADD31RoundRect,0.150000X-0.587500X-0.150000X0.587500X-0.150000X0.587500X0.150000X-0.587500X0.150000X0*%
%TD*%
%TA.AperFunction,SMDPad,CuDef*%
%ADD32R,2.000000X2.500000*%
%TD*%
%TA.AperFunction,ViaPad*%
%ADD33C,0.800000*%
%TD*%
%TA.AperFunction,Conductor*%
%ADD34C,1.500000*%
%TD*%
%TA.AperFunction,Conductor*%
%ADD35C,1.000000*%
%TD*%
%TA.AperFunction,Conductor*%
%ADD36C,0.500000*%
%TD*%
%TA.AperFunction,Conductor*%
%ADD37C,0.750000*%
%TD*%
%TA.AperFunction,Conductor*%
%ADD38C,1.250000*%
%TD*%
%TA.AperFunction,Conductor*%
%ADD39C,0.250000*%
%TD*%
G04 APERTURE END LIST*
D10*
%TO.P,J1,1,Pin_1*%
%TO.N,+3V3*%
X158242000Y-47086000D03*
%TO.P,J1,2,Pin_2*%
%TO.N,GND*%
X158242000Y-49086000D03*
%TO.P,J1,3,Pin_3*%
%TO.N,I2C_SCL*%
X158242000Y-51086000D03*
%TO.P,J1,4,Pin_4*%
%TO.N,I2C_SDA*%
X158242000Y-53086000D03*
D11*
%TO.P,J1,MP*%
%TO.N,N/C*%
X163992000Y-44736000D03*
X163992000Y-55436000D03*
%TD*%
D12*
%TO.P,R5,1*%
%TO.N,GND*%
X156750000Y-95350000D03*
%TO.P,R5,2*%
%TO.N,/ESP32/GPIO_35*%
X154750000Y-95350000D03*
%TD*%
%TO.P,R3,1*%
%TO.N,I2C_SCL*%
X152882600Y-51739800D03*
%TO.P,R3,2*%
%TO.N,+3V3*%
X150882600Y-51739800D03*
%TD*%
D13*
%TO.P,R6,1*%
%TO.N,/ESP32/EN*%
X157175200Y-97485200D03*
%TO.P,R6,2*%
%TO.N,+3V3*%
X159175200Y-97485200D03*
%TD*%
D14*
%TO.P,C8,1*%
%TO.N,GND*%
X135686800Y-66860600D03*
%TO.P,C8,2*%
%TO.N,/ESP32/GPIO_00_BOOT*%
X135686800Y-68935600D03*
%TD*%
%TO.P,C6,1*%
%TO.N,/ESP32/GPIO_35*%
X71150000Y-101612500D03*
%TO.P,C6,2*%
%TO.N,GND*%
X71150000Y-103687500D03*
%TD*%
D15*
%TO.P,U1,1,GND*%
%TO.N,GND*%
X163703000Y-92972000D03*
%TO.P,U1,2,3V3*%
%TO.N,+3V3*%
X162433000Y-92972000D03*
%TO.P,U1,3,EN/CHIP_PU*%
%TO.N,/ESP32/EN*%
X161163000Y-92972000D03*
%TO.P,U1,4,SENSOR_VP/GPIO36/ADC1_CH0*%
%TO.N,/ESP32/GPIO_36*%
X159893000Y-92972000D03*
%TO.P,U1,5,SENSOR_VN/GPIO39/ADC1_CH3*%
%TO.N,/ESP32/GPIO_39*%
X158623000Y-92972000D03*
%TO.P,U1,6,GPIO34/ADC1_CH6*%
%TO.N,/ESP32/GPIO_34*%
X157353000Y-92972000D03*
%TO.P,U1,7,GPIO35/ADC1_CH7*%
%TO.N,/ESP32/GPIO_35*%
X156083000Y-92972000D03*
%TO.P,U1,8,32K_XP/GPIO32/ADC1_CH4*%
%TO.N,ONE_WIRE_2*%
X154813000Y-92972000D03*
%TO.P,U1,9,32K_XN/GPIO33/ADC1_CH5*%
%TO.N,ONE_WIRE*%
X153543000Y-92972000D03*
%TO.P,U1,10,DAC_1/ADC2_CH8/GPIO25*%
%TO.N,/ESP32/GPIO_25*%
X152273000Y-92972000D03*
%TO.P,U1,11,DAC_2/ADC2_CH9/GPIO26*%
%TO.N,/ESP32/GPIO_26*%
X151003000Y-92972000D03*
%TO.P,U1,12,ADC2_CH7/GPIO27*%
%TO.N,/ESP32/GPIO_27*%
X149733000Y-92972000D03*
%TO.P,U1,13,MTMS/GPIO14/ADC2_CH6*%
%TO.N,/ESP32/GPIO_14*%
X148463000Y-92972000D03*
%TO.P,U1,14,MTDI/GPIO12/ADC2_CH5*%
%TO.N,/ESP32/GPIO_12*%
X147193000Y-92972000D03*
D16*
%TO.P,U1,15,GND*%
%TO.N,GND*%
X145943000Y-89942000D03*
%TO.P,U1,16,MTCK/GPIO13/ADC2_CH4*%
%TO.N,/ESP32/GPIO_13*%
X145943000Y-88672000D03*
%TO.P,U1,17*%
%TO.N,N/C*%
X145943000Y-87402000D03*
%TO.P,U1,18*%
X145943000Y-86132000D03*
%TO.P,U1,19*%
X145943000Y-84862000D03*
%TO.P,U1,20*%
X145943000Y-83592000D03*
%TO.P,U1,21*%
X145943000Y-82322000D03*
%TO.P,U1,22*%
X145943000Y-81052000D03*
%TO.P,U1,23,MTDO/GPIO15/ADC2_CH3*%
%TO.N,/ESP32/GPIO_15*%
X145943000Y-79782000D03*
%TO.P,U1,24,ADC2_CH2/GPIO2*%
%TO.N,/ESP32/GPIO_02*%
X145943000Y-78512000D03*
D15*
%TO.P,U1,25,GPIO0/BOOT/ADC2_CH1*%
%TO.N,/ESP32/GPIO_00_BOOT*%
X147193000Y-75472000D03*
%TO.P,U1,26,ADC2_CH0/GPIO4*%
%TO.N,/ESP32/GPIO_04*%
X148463000Y-75472000D03*
%TO.P,U1,27,GPIO16*%
%TO.N,/ESP32/GPIO_16*%
X149733000Y-75472000D03*
%TO.P,U1,28,GPIO17*%
%TO.N,/ESP32/GPIO_17*%
X151003000Y-75472000D03*
%TO.P,U1,29,GPIO5*%
%TO.N,/ESP32/GPIO_05*%
X152273000Y-75472000D03*
%TO.P,U1,30,GPIO18*%
%TO.N,/ESP32/GPIO_18*%
X153543000Y-75472000D03*
%TO.P,U1,31,GPIO19*%
%TO.N,/ESP32/GPIO_19*%
X154813000Y-75472000D03*
%TO.P,U1,32*%
%TO.N,N/C*%
X156083000Y-75472000D03*
%TO.P,U1,33,GPIO21*%
%TO.N,I2C_SDA*%
X157353000Y-75472000D03*
%TO.P,U1,34,U0RXD/GPIO3*%
%TO.N,/ESP32/GPIO_03_U0RXD*%
X158623000Y-75472000D03*
%TO.P,U1,35,U0TXD/GPIO1*%
%TO.N,/ESP32/GPIO_01_U0TXD*%
X159893000Y-75472000D03*
%TO.P,U1,36,GPIO22*%
%TO.N,I2C_SCL*%
X161163000Y-75472000D03*
%TO.P,U1,37,GPIO23*%
%TO.N,/ESP32/GPIO_23*%
X162433000Y-75472000D03*
%TO.P,U1,38,GND*%
%TO.N,GND*%
X163703000Y-75472000D03*
D17*
%TO.P,U1,39,GND_THERMAL*%
X154583000Y-87122000D03*
X154583000Y-87122000D03*
X155983000Y-87122000D03*
X157383000Y-87122000D03*
X157383000Y-87122000D03*
X154583000Y-85722000D03*
X154583000Y-85722000D03*
X155983000Y-85722000D03*
X157383000Y-85722000D03*
X154583000Y-84322000D03*
X155983000Y-84322000D03*
X157383000Y-84322000D03*
%TD*%
D18*
%TO.P,C12,1*%
%TO.N,+3V3*%
X162560000Y-109687000D03*
%TO.P,C12,2*%
%TO.N,GND*%
X162560000Y-114087000D03*
%TD*%
D19*
%TO.P,SW2,1,1*%
%TO.N,GND*%
X143560800Y-101854000D03*
X151510800Y-101854000D03*
%TO.P,SW2,2,2*%
%TO.N,/ESP32/EN*%
X143560800Y-97354000D03*
X151510800Y-97354000D03*
%TD*%
D20*
%TO.P,U4,1,GND*%
%TO.N,GND*%
X156732000Y-115012000D03*
%TO.P,U4,2,VO*%
%TO.N,+3V3*%
X154432000Y-115012000D03*
D21*
X154432000Y-108712000D03*
D20*
%TO.P,U4,3,VI*%
%TO.N,+5V*%
X152132000Y-115012000D03*
%TD*%
D22*
%TO.P,J4,1,Pin_1*%
%TO.N,GND*%
X26520400Y-83536400D03*
D23*
%TO.P,J4,2,Pin_2*%
%TO.N,ONE_WIRE_2*%
X29520400Y-83536400D03*
%TO.P,J4,3,Pin_3*%
%TO.N,ONE_WIRE*%
X32520400Y-83536400D03*
%TO.P,J4,4,Pin_4*%
%TO.N,+12V*%
X35520400Y-83536400D03*
%TD*%
D24*
%TO.P,C14,1*%
%TO.N,GND*%
X141427200Y-102129500D03*
%TO.P,C14,2*%
%TO.N,/ESP32/EN*%
X141427200Y-100054500D03*
%TD*%
D25*
%TO.P,J7,1,Pin_1*%
%TO.N,GND*%
X66800000Y-81800000D03*
X66800000Y-84340000D03*
%TO.P,J7,2,Pin_2*%
%TO.N,+12V*%
X66800000Y-93260000D03*
X66800000Y-95800000D03*
%TO.P,J7,3,Pin_3*%
%TO.N,GND*%
X96800000Y-81800000D03*
X96800000Y-84340000D03*
%TO.P,J7,4,Pin_4*%
%TO.N,+5V*%
X96800000Y-93260000D03*
X96800000Y-95800000D03*
%TD*%
D24*
%TO.P,C13,1*%
%TO.N,+3V3*%
X151003000Y-105939500D03*
%TO.P,C13,2*%
%TO.N,GND*%
X151003000Y-103864500D03*
%TD*%
D26*
%TO.P,C9,1*%
%TO.N,+3V3*%
X162517000Y-95377000D03*
%TO.P,C9,2*%
%TO.N,GND*%
X164592000Y-95377000D03*
%TD*%
D27*
%TO.P,C11,1*%
%TO.N,+3V3*%
X162205000Y-100965000D03*
%TO.P,C11,2*%
%TO.N,GND*%
X165455000Y-100965000D03*
%TD*%
D18*
%TO.P,C16,1*%
%TO.N,+5V*%
X145796000Y-115021000D03*
%TO.P,C16,2*%
%TO.N,GND*%
X145796000Y-119421000D03*
%TD*%
D28*
%TO.P,JP2,1,A*%
%TO.N,/ESP32/EN*%
X141401800Y-94264000D03*
D29*
%TO.P,JP2,2,B*%
%TO.N,Net-(JP2-B)*%
X141401800Y-92964000D03*
%TD*%
D30*
%TO.P,C2,1*%
%TO.N,+3V3*%
X152958800Y-48793400D03*
%TO.P,C2,2*%
%TO.N,GND*%
X150883800Y-48793400D03*
%TD*%
D24*
%TO.P,C4,1*%
%TO.N,Net-(JP2-B)*%
X141884400Y-85539400D03*
%TO.P,C4,2*%
%TO.N,/ESP32/GPIO_15*%
X141884400Y-83464400D03*
%TD*%
D31*
%TO.P,D2,1,A*%
%TO.N,GND*%
X76325000Y-102500000D03*
%TO.P,D2,2,K*%
%TO.N,+5V*%
X76325000Y-100600000D03*
%TO.P,D2,3,COM*%
%TO.N,/ESP32/GPIO_35*%
X78200000Y-101550000D03*
%TD*%
D19*
%TO.P,SW1,1,1*%
%TO.N,GND*%
X145707000Y-66838000D03*
X137757000Y-66838000D03*
%TO.P,SW1,2,2*%
%TO.N,/ESP32/GPIO_00_BOOT*%
X145707000Y-71338000D03*
X137757000Y-71338000D03*
%TD*%
D13*
%TO.P,R1,1*%
%TO.N,Net-(D3-A)*%
X136779000Y-84531200D03*
%TO.P,R1,2*%
%TO.N,/ESP32/GPIO_13*%
X138779000Y-84531200D03*
%TD*%
D32*
%TO.P,SW3,1,1*%
%TO.N,GND*%
X170180000Y-108369600D03*
%TO.P,SW3,2,2*%
%TO.N,/ESP32/EN*%
X170180000Y-102209600D03*
%TD*%
D10*
%TO.P,J2,1,Pin_1*%
%TO.N,GND*%
X158080000Y-60738000D03*
%TO.P,J2,2,Pin_2*%
%TO.N,+3V3*%
X158080000Y-62738000D03*
%TO.P,J2,3,Pin_3*%
%TO.N,/ESP32/GPIO_03_U0RXD*%
X158080000Y-64738000D03*
%TO.P,J2,4,Pin_4*%
%TO.N,/ESP32/GPIO_01_U0TXD*%
X158080000Y-66738000D03*
D11*
%TO.P,J2,MP*%
%TO.N,N/C*%
X163830000Y-58388000D03*
X163830000Y-69088000D03*
%TD*%
D24*
%TO.P,C15,1*%
%TO.N,+5V*%
X145796000Y-112014000D03*
%TO.P,C15,2*%
%TO.N,GND*%
X145796000Y-109939000D03*
%TD*%
D22*
%TO.P,J6,1,Pin_1*%
%TO.N,GND*%
X46205400Y-83511000D03*
D23*
%TO.P,J6,2,Pin_2*%
%TO.N,ONE_WIRE_2*%
X49205400Y-83511000D03*
%TO.P,J6,3,Pin_3*%
%TO.N,ONE_WIRE*%
X52205400Y-83511000D03*
%TO.P,J6,4,Pin_4*%
%TO.N,+12V*%
X55205400Y-83511000D03*
%TD*%
D12*
%TO.P,R4,1*%
%TO.N,/ESP32/GPIO_35*%
X68550000Y-101550000D03*
%TO.P,R4,2*%
%TO.N,+12V*%
X66550000Y-101550000D03*
%TD*%
%TO.P,R2,1*%
%TO.N,I2C_SDA*%
X152698200Y-54711600D03*
%TO.P,R2,2*%
%TO.N,+3V3*%
X150698200Y-54711600D03*
%TD*%
D26*
%TO.P,C10,1*%
%TO.N,+3V3*%
X162517000Y-98298000D03*
%TO.P,C10,2*%
%TO.N,GND*%
X164592000Y-98298000D03*
%TD*%
D33*
%TO.N,+5V*%
X63295157Y-36711266D03*
X147795157Y-43911266D03*
X82795157Y-79911266D03*
X95795157Y-43911266D03*
X147795157Y-98311266D03*
X37295157Y-91111266D03*
X108795157Y-79911266D03*
X17795157Y-119911266D03*
X37295157Y-36711266D03*
X160795157Y-105511266D03*
X37295157Y-127111266D03*
X154295157Y-134311266D03*
X108795157Y-98311266D03*
X76295157Y-36711266D03*
X102295157Y-79911266D03*
X63295157Y-29511266D03*
X160795157Y-112711266D03*
X134795157Y-134311266D03*
X17795157Y-36711266D03*
X147795157Y-36711266D03*
X115295157Y-112711266D03*
X17795157Y-79911266D03*
X134795157Y-141511266D03*
X17795157Y-58311266D03*
X141295157Y-127111266D03*
X17795157Y-91111266D03*
X30795157Y-72711266D03*
X134795157Y-91111266D03*
X24295157Y-29511266D03*
X154295157Y-29511266D03*
X121795157Y-98311266D03*
X160795157Y-43911266D03*
X69795157Y-72711266D03*
X24295157Y-98311266D03*
X167295157Y-119911266D03*
X134795157Y-119911266D03*
X147795157Y-72711266D03*
X91300000Y-36700000D03*
X167295157Y-36711266D03*
X56795157Y-51111266D03*
X17795157Y-51111266D03*
X56795157Y-58311266D03*
X95795157Y-51111266D03*
X63295157Y-134311266D03*
X50295157Y-98311266D03*
X128295157Y-91111266D03*
X91400000Y-65600000D03*
X121795157Y-43911266D03*
X128295157Y-36711266D03*
X102295157Y-134311266D03*
X50295157Y-141511266D03*
X43795157Y-43911266D03*
X82795157Y-51111266D03*
X167295157Y-29511266D03*
X43795157Y-36711266D03*
X115295157Y-98311266D03*
X50295157Y-119911266D03*
X56795157Y-98311266D03*
X95795157Y-105511266D03*
X50295157Y-79911266D03*
X63295157Y-58311266D03*
X30795157Y-91111266D03*
X154295157Y-98311266D03*
X141295157Y-134311266D03*
X56795157Y-119911266D03*
X24295157Y-127111266D03*
X82795157Y-112711266D03*
X147795157Y-134311266D03*
X167295157Y-134311266D03*
X141295157Y-29511266D03*
X167295157Y-79911266D03*
X134795157Y-36711266D03*
X69795157Y-98311266D03*
X17795157Y-29511266D03*
X76295157Y-91111266D03*
X121795157Y-141511266D03*
X91300000Y-28400000D03*
X76295157Y-72711266D03*
X30795157Y-141511266D03*
X91300000Y-51200000D03*
X160795157Y-51111266D03*
X56795157Y-79911266D03*
X121795157Y-79911266D03*
X43795157Y-51111266D03*
X24295157Y-112711266D03*
X63295157Y-98311266D03*
X147795157Y-65511266D03*
X121795157Y-65511266D03*
X102295157Y-98311266D03*
X108795157Y-36711266D03*
X95795157Y-36711266D03*
X134795157Y-72711266D03*
X91300000Y-90700000D03*
X56795157Y-43911266D03*
X37295157Y-134311266D03*
X50295157Y-29511266D03*
X141295157Y-112711266D03*
X95795157Y-29511266D03*
X115295157Y-58311266D03*
X121795157Y-134311266D03*
X50295157Y-36711266D03*
X95795157Y-65511266D03*
X128295157Y-29511266D03*
X95795157Y-119911266D03*
X89295157Y-119911266D03*
X141295157Y-91111266D03*
X50295157Y-112711266D03*
X82795157Y-119911266D03*
X37295157Y-79911266D03*
X69795157Y-105511266D03*
X160795157Y-36711266D03*
X154295157Y-51111266D03*
X17795157Y-43911266D03*
X91300000Y-79900000D03*
X17795157Y-112711266D03*
X76295157Y-79911266D03*
X128295157Y-105511266D03*
X102295157Y-105511266D03*
X89295157Y-58311266D03*
X89295157Y-51111266D03*
X134795157Y-127111266D03*
X69795157Y-134311266D03*
X82795157Y-141511266D03*
X102295157Y-141511266D03*
X24295157Y-119911266D03*
X37295157Y-65511266D03*
X91200000Y-105700000D03*
X160795157Y-65511266D03*
X154295157Y-119911266D03*
X141295157Y-72711266D03*
X121795157Y-72711266D03*
X141295157Y-119911266D03*
X121795157Y-119911266D03*
X154295157Y-79911266D03*
X160795157Y-58311266D03*
X37295157Y-51111266D03*
X76295157Y-105511266D03*
X69795157Y-43911266D03*
X30795157Y-105511266D03*
X89295157Y-91111266D03*
X24295157Y-141511266D03*
X167295157Y-91111266D03*
X89295157Y-134311266D03*
X50295157Y-65511266D03*
X95795157Y-141511266D03*
X154295157Y-72711266D03*
X89295157Y-36711266D03*
X134795157Y-79911266D03*
X91300000Y-72700000D03*
X128295157Y-127111266D03*
X43795157Y-141511266D03*
X115295157Y-127111266D03*
X121795157Y-58311266D03*
X17795157Y-72711266D03*
X102295157Y-58311266D03*
X102295157Y-119911266D03*
X115295157Y-51111266D03*
X141295157Y-98311266D03*
X91300000Y-58400000D03*
X91400000Y-127000000D03*
X134795157Y-112711266D03*
X37295157Y-105511266D03*
X89295157Y-72711266D03*
X102295157Y-51111266D03*
X56795157Y-141511266D03*
X100761800Y-85293200D03*
X154295157Y-127111266D03*
X89295157Y-141511266D03*
X115295157Y-29511266D03*
X154295157Y-65511266D03*
X76295157Y-98311266D03*
X102295157Y-36711266D03*
X30795157Y-79911266D03*
X160795157Y-72711266D03*
X24295157Y-58311266D03*
X82795157Y-29511266D03*
X141295157Y-58311266D03*
X82795157Y-127111266D03*
X167295157Y-72711266D03*
X63295157Y-51111266D03*
X121795157Y-29511266D03*
X17795157Y-65511266D03*
X76295157Y-127111266D03*
X154295157Y-105511266D03*
X95795157Y-72711266D03*
X115295157Y-79911266D03*
X154295157Y-36711266D03*
X56795157Y-112711266D03*
X69795157Y-141511266D03*
X128295157Y-112711266D03*
X147795157Y-127111266D03*
X147795157Y-119911266D03*
X134795157Y-105511266D03*
X102295157Y-91111266D03*
X108795157Y-105511266D03*
X43795157Y-58311266D03*
X160795157Y-119911266D03*
X95795157Y-58311266D03*
X30795157Y-51111266D03*
X128295157Y-43911266D03*
X56795157Y-105511266D03*
X17795157Y-141511266D03*
X56795157Y-91111266D03*
X102295157Y-65511266D03*
X30795157Y-127111266D03*
X128295157Y-134311266D03*
X56795157Y-127111266D03*
X69795157Y-65511266D03*
X43795157Y-98311266D03*
X102295157Y-72711266D03*
X108795157Y-141511266D03*
X160795157Y-79911266D03*
X56795157Y-29511266D03*
X76295157Y-134311266D03*
X167295157Y-65511266D03*
X156500000Y-90764536D03*
X82795157Y-98311266D03*
X69795157Y-58311266D03*
X121795157Y-36711266D03*
X63295157Y-112711266D03*
X37295157Y-119911266D03*
X128295157Y-98311266D03*
X37295157Y-43911266D03*
X121795157Y-91111266D03*
X63295157Y-79911266D03*
X30795157Y-119911266D03*
X30795157Y-58311266D03*
X167295157Y-43911266D03*
X141295157Y-79911266D03*
X134795157Y-65511266D03*
X134795157Y-58311266D03*
X128295157Y-72711266D03*
X76295157Y-112711266D03*
X115295157Y-72711266D03*
X76295157Y-119911266D03*
X115295157Y-36711266D03*
X30795157Y-29511266D03*
X167295157Y-127111266D03*
X37295157Y-98311266D03*
X147795157Y-141511266D03*
X154295157Y-141511266D03*
X43795157Y-79911266D03*
X160795157Y-141511266D03*
X63295157Y-43911266D03*
X76295157Y-29511266D03*
X128295157Y-58311266D03*
X115295157Y-141511266D03*
X100700000Y-83900000D03*
X91300000Y-119900000D03*
X56795157Y-134311266D03*
X76295157Y-51111266D03*
X115295157Y-65511266D03*
X76295157Y-65511266D03*
X134795157Y-51111266D03*
X69795157Y-127111266D03*
X95795157Y-112711266D03*
X50295157Y-105511266D03*
X24295157Y-72711266D03*
X82795157Y-58311266D03*
X50295157Y-127111266D03*
X30795157Y-36711266D03*
X95795157Y-91111266D03*
X108795157Y-65511266D03*
X17795157Y-134311266D03*
X43795157Y-65511266D03*
X134795157Y-98311266D03*
X128295157Y-65511266D03*
X82795157Y-105511266D03*
X63295157Y-127111266D03*
X147795157Y-79911266D03*
X56795157Y-36711266D03*
X37295157Y-29511266D03*
X108795157Y-43911266D03*
X30795157Y-98311266D03*
X82795157Y-72711266D03*
X82795157Y-134311266D03*
X89295157Y-29511266D03*
X69795157Y-119911266D03*
X115295157Y-134311266D03*
X91300000Y-84000000D03*
X160795157Y-91111266D03*
X108795157Y-58311266D03*
X128295157Y-79911266D03*
X24295157Y-51111266D03*
X24295157Y-91111266D03*
X89295157Y-105511266D03*
X63295157Y-91111266D03*
X43795157Y-112711266D03*
X95795157Y-134311266D03*
X63295157Y-141511266D03*
X108795157Y-91111266D03*
X141295157Y-105511266D03*
X134795157Y-29511266D03*
X30795157Y-112711266D03*
X89295157Y-112711266D03*
X89295157Y-127111266D03*
X30795157Y-43911266D03*
X108795157Y-119911266D03*
X91300000Y-141700000D03*
X43795157Y-105511266D03*
X121795157Y-51111266D03*
X69795157Y-79911266D03*
X43795157Y-119911266D03*
X128295157Y-51111266D03*
X141295157Y-36711266D03*
X56795157Y-65511266D03*
X24295157Y-134311266D03*
X167295157Y-98311266D03*
X147795157Y-112711266D03*
X115295157Y-105511266D03*
X24295157Y-105511266D03*
X147795157Y-51111266D03*
X63295157Y-119911266D03*
X147795157Y-29511266D03*
X115295157Y-119911266D03*
X89295157Y-65511266D03*
X63295157Y-65511266D03*
X89295157Y-79911266D03*
X154295157Y-43911266D03*
X121795157Y-105511266D03*
X147795157Y-58311266D03*
X43795157Y-29511266D03*
X115295157Y-43911266D03*
X160795157Y-29511266D03*
X102295157Y-127111266D03*
X160795157Y-134311266D03*
X37295157Y-72711266D03*
X69795157Y-51111266D03*
X43795157Y-91111266D03*
X108795157Y-112711266D03*
X63295157Y-72711266D03*
X154295157Y-112711266D03*
X37295157Y-112711266D03*
X97000000Y-79000000D03*
X82795157Y-65511266D03*
X91300000Y-98400000D03*
X17795157Y-105511266D03*
X115295157Y-91111266D03*
X50295157Y-72711266D03*
X160795157Y-98311266D03*
X50295157Y-43911266D03*
X82795157Y-43911266D03*
X108795157Y-29511266D03*
X69795157Y-29511266D03*
X147795157Y-105511266D03*
X50295157Y-134311266D03*
X17795157Y-98311266D03*
X89295157Y-98311266D03*
X30795157Y-65511266D03*
X24295157Y-43911266D03*
X108795157Y-72711266D03*
X141295157Y-51111266D03*
X95795157Y-98311266D03*
X56795157Y-72711266D03*
X43795157Y-72711266D03*
X69795157Y-36711266D03*
X102295157Y-29511266D03*
X76295157Y-43911266D03*
X43795157Y-127111266D03*
X43795157Y-134311266D03*
X76295157Y-58311266D03*
X167295157Y-141511266D03*
X95795157Y-127111266D03*
X76295157Y-141511266D03*
X17795157Y-127111266D03*
X167295157Y-51111266D03*
X108795157Y-51111266D03*
X69795157Y-112711266D03*
X102295157Y-43911266D03*
X24295157Y-36711266D03*
X37295157Y-141511266D03*
X24295157Y-79911266D03*
X50295157Y-91111266D03*
X82795157Y-36711266D03*
X154295157Y-58311266D03*
X167295157Y-112711266D03*
X160795157Y-127111266D03*
X50295157Y-58311266D03*
X128295157Y-141511266D03*
X37295157Y-58311266D03*
X89295157Y-43911266D03*
X121795157Y-127111266D03*
X108795157Y-134311266D03*
X121795157Y-112711266D03*
X141295157Y-65511266D03*
X128295157Y-119911266D03*
X30795157Y-134311266D03*
X91300000Y-134400000D03*
X91300000Y-112600000D03*
X108795157Y-127111266D03*
X141295157Y-141511266D03*
X50295157Y-51111266D03*
X82795157Y-91111266D03*
X148386800Y-90728800D03*
X24295157Y-65511266D03*
X69795157Y-91111266D03*
X167295157Y-105511266D03*
X102295157Y-112711266D03*
X134795157Y-43911266D03*
X141295157Y-43911266D03*
X63295157Y-105511266D03*
X167295157Y-58311266D03*
%TO.N,GND*%
X63355103Y-118262807D03*
X63355103Y-78262807D03*
X50355103Y-42262807D03*
X76355103Y-63862807D03*
X115355103Y-103862807D03*
X141355103Y-111062807D03*
X128355103Y-78262807D03*
X166725600Y-84404200D03*
X147855103Y-35062807D03*
X102355103Y-27862807D03*
X95855103Y-42262807D03*
X17855103Y-118262807D03*
X37355103Y-42262807D03*
X147855103Y-139862807D03*
X82855103Y-35062807D03*
X167355103Y-78262807D03*
X102355103Y-35062807D03*
X95000000Y-84900000D03*
X37355103Y-71062807D03*
X30855103Y-27862807D03*
X30855103Y-96662807D03*
X128355103Y-71062807D03*
X95855103Y-49462807D03*
X141355103Y-42262807D03*
X134855103Y-139862807D03*
X66800000Y-84900000D03*
X37355103Y-96662807D03*
X82855103Y-42262807D03*
X147855103Y-56662807D03*
X56855103Y-56662807D03*
X56855103Y-132662807D03*
X76355103Y-89462807D03*
X108855103Y-42262807D03*
X134855103Y-118262807D03*
X154355103Y-56662807D03*
X154052655Y-89765255D03*
X108855103Y-125462807D03*
X108855103Y-139862807D03*
X115355103Y-89462807D03*
X121855103Y-71062807D03*
X160855103Y-139862807D03*
X50355103Y-71062807D03*
X128355103Y-56662807D03*
X160855103Y-103862807D03*
X50355103Y-49462807D03*
X43855103Y-49462807D03*
X69855103Y-89462807D03*
X17855103Y-89462807D03*
X134855103Y-27862807D03*
X98500000Y-84900000D03*
X43855103Y-89462807D03*
X30855103Y-125462807D03*
X102355103Y-103862807D03*
X50355103Y-27862807D03*
X89355103Y-103862807D03*
X160855103Y-118262807D03*
X115355103Y-78262807D03*
X115355103Y-111062807D03*
X154355103Y-96662807D03*
X102355103Y-71062807D03*
X17855103Y-96662807D03*
X95855103Y-27862807D03*
X128355103Y-118262807D03*
X56855103Y-111062807D03*
X128355103Y-139862807D03*
X128355103Y-89462807D03*
X167355103Y-118262807D03*
X63355103Y-139862807D03*
X37355103Y-56662807D03*
X160855103Y-71062807D03*
X50355103Y-78262807D03*
X76355103Y-132662807D03*
X147855103Y-71062807D03*
X89355103Y-35062807D03*
X134855103Y-71062807D03*
X134855103Y-132662807D03*
X56855103Y-49462807D03*
X82855103Y-118262807D03*
X115355103Y-56662807D03*
X24355103Y-118262807D03*
X56855103Y-118262807D03*
X98500000Y-82500000D03*
X63355103Y-71062807D03*
X141355103Y-103862807D03*
X115355103Y-96662807D03*
X30855103Y-35062807D03*
X82855103Y-89462807D03*
X102355103Y-139862807D03*
X82855103Y-132662807D03*
X147855103Y-42262807D03*
X160855103Y-125462807D03*
X102355103Y-63862807D03*
X24355103Y-103862807D03*
X121855103Y-35062807D03*
X17855103Y-49462807D03*
X37355103Y-118262807D03*
X95855103Y-71062807D03*
X24355103Y-132662807D03*
X128355103Y-63862807D03*
X89355103Y-89462807D03*
X37355103Y-78262807D03*
X134855103Y-89462807D03*
X63355103Y-103862807D03*
X82855103Y-96662807D03*
X167355103Y-35062807D03*
X89355103Y-139862807D03*
X147855103Y-118262807D03*
X17855103Y-27862807D03*
X17855103Y-111062807D03*
X95855103Y-118262807D03*
X121855103Y-103862807D03*
X134855103Y-63862807D03*
X89355103Y-96662807D03*
X134855103Y-125462807D03*
X102355103Y-49462807D03*
X43855103Y-35062807D03*
X89355103Y-42262807D03*
X108855103Y-71062807D03*
X167355103Y-139862807D03*
X134855103Y-103862807D03*
X50355103Y-118262807D03*
X128355103Y-132662807D03*
X56855103Y-139862807D03*
X154355103Y-27862807D03*
X167355103Y-96662807D03*
X95855103Y-132662807D03*
X167355103Y-42262807D03*
X156972000Y-83337400D03*
X95855103Y-139862807D03*
X37355103Y-139862807D03*
X89355103Y-118262807D03*
X141355103Y-139862807D03*
X108855103Y-49462807D03*
X115355103Y-125462807D03*
X121855103Y-56662807D03*
X43855103Y-27862807D03*
X56855103Y-103862807D03*
X89355103Y-49462807D03*
X167355103Y-27862807D03*
X56855103Y-42262807D03*
X115355103Y-139862807D03*
X115355103Y-63862807D03*
X128355103Y-103862807D03*
X89355103Y-27862807D03*
X128355103Y-49462807D03*
X154355103Y-63862807D03*
X147855103Y-103862807D03*
X17855103Y-132662807D03*
X115355103Y-71062807D03*
X115355103Y-42262807D03*
X43855103Y-56662807D03*
X160855103Y-96662807D03*
X134855103Y-42262807D03*
X141355103Y-96662807D03*
X115355103Y-27862807D03*
X56855103Y-71062807D03*
X43855103Y-111062807D03*
X82855103Y-56662807D03*
X63355103Y-27862807D03*
X154355103Y-78262807D03*
X76355103Y-103862807D03*
X89355103Y-125462807D03*
X63355103Y-111062807D03*
X50355103Y-63862807D03*
X167355103Y-89462807D03*
X82855103Y-103862807D03*
X147855103Y-63862807D03*
X121855103Y-27862807D03*
X30855103Y-89462807D03*
X76355103Y-125462807D03*
X102355103Y-111062807D03*
X108855103Y-89462807D03*
X157504104Y-88635163D03*
X102355103Y-118262807D03*
X68600000Y-84900000D03*
X147855103Y-125462807D03*
X153289000Y-83058000D03*
X43855103Y-103862807D03*
X69855103Y-42262807D03*
X108855103Y-132662807D03*
X147855103Y-96662807D03*
X76355103Y-111062807D03*
X147855103Y-78262807D03*
X69855103Y-125462807D03*
X134855103Y-111062807D03*
X160855103Y-27862807D03*
X89355103Y-132662807D03*
X121855103Y-89462807D03*
X37355103Y-27862807D03*
X154355103Y-132662807D03*
X167355103Y-132662807D03*
X69855103Y-71062807D03*
X154355103Y-125462807D03*
X69855103Y-27862807D03*
X37355103Y-49462807D03*
X95855103Y-63862807D03*
X24355103Y-35062807D03*
X121855103Y-63862807D03*
X50355103Y-56662807D03*
X147855103Y-49462807D03*
X154355103Y-49462807D03*
X95855103Y-78262807D03*
X102355103Y-89462807D03*
X82855103Y-27862807D03*
X167355103Y-125462807D03*
X121855103Y-42262807D03*
X69855103Y-139862807D03*
X154355103Y-139862807D03*
X108855103Y-111062807D03*
X17855103Y-103862807D03*
X30855103Y-42262807D03*
X30855103Y-103862807D03*
X161682747Y-88635163D03*
X30855103Y-56662807D03*
X17855103Y-35062807D03*
X76355103Y-78262807D03*
X154355103Y-118262807D03*
X141355103Y-89462807D03*
X108855103Y-35062807D03*
X69855103Y-35062807D03*
X56855103Y-35062807D03*
X128355103Y-111062807D03*
X102355103Y-132662807D03*
X50355103Y-35062807D03*
X141355103Y-132662807D03*
X69855103Y-49462807D03*
X37355103Y-125462807D03*
X76355103Y-56662807D03*
X82855103Y-125462807D03*
X30855103Y-111062807D03*
X134855103Y-49462807D03*
X17855103Y-42262807D03*
X65100000Y-82500000D03*
X50355103Y-111062807D03*
X82855103Y-111062807D03*
X167355103Y-63862807D03*
X56855103Y-27862807D03*
X56855103Y-63862807D03*
X160855103Y-42262807D03*
X76355103Y-118262807D03*
X50355103Y-139862807D03*
X160855103Y-35062807D03*
X115355103Y-132662807D03*
X95855103Y-111062807D03*
X160855103Y-56662807D03*
X69855103Y-78262807D03*
X43855103Y-139862807D03*
X167355103Y-56662807D03*
X96700000Y-84900000D03*
X50355103Y-103862807D03*
X63355103Y-56662807D03*
X63355103Y-35062807D03*
X43855103Y-125462807D03*
X102355103Y-78262807D03*
X95855103Y-35062807D03*
X141355103Y-125462807D03*
X37355103Y-103862807D03*
X121855103Y-132662807D03*
X17855103Y-78262807D03*
X24355103Y-96662807D03*
X43855103Y-71062807D03*
X115355103Y-49462807D03*
X37355103Y-132662807D03*
X17855103Y-63862807D03*
X95855103Y-56662807D03*
X141355103Y-27862807D03*
X160855103Y-111062807D03*
X17855103Y-125462807D03*
X63355103Y-125462807D03*
X108855103Y-56662807D03*
X50355103Y-89462807D03*
X56855103Y-125462807D03*
X63355103Y-96662807D03*
X24355103Y-111062807D03*
X43855103Y-96662807D03*
X17855103Y-56662807D03*
X121855103Y-78262807D03*
X115355103Y-118262807D03*
X37355103Y-89462807D03*
X82855103Y-49462807D03*
X76355103Y-35062807D03*
X141355103Y-35062807D03*
X76355103Y-49462807D03*
X167355103Y-103862807D03*
X108855103Y-27862807D03*
X30855103Y-132662807D03*
X71250000Y-95835163D03*
X24355103Y-139862807D03*
X69855103Y-103862807D03*
X30855103Y-71062807D03*
X121855103Y-111062807D03*
X37355103Y-111062807D03*
X76355103Y-71062807D03*
X63355103Y-63862807D03*
X159029400Y-84658200D03*
X89355103Y-63862807D03*
X24355103Y-27862807D03*
X154355103Y-71062807D03*
X121855103Y-96662807D03*
X95855103Y-125462807D03*
X63355103Y-42262807D03*
X43855103Y-42262807D03*
X167355103Y-49462807D03*
X66800000Y-82500000D03*
X82855103Y-71062807D03*
X69855103Y-56662807D03*
X56855103Y-89462807D03*
X141355103Y-78262807D03*
X147855103Y-89462807D03*
X154355103Y-35062807D03*
X141355103Y-56662807D03*
X69855103Y-111062807D03*
X82855103Y-78262807D03*
X121855103Y-118262807D03*
X24355103Y-42262807D03*
X76355103Y-96662807D03*
X160855103Y-132662807D03*
X102355103Y-125462807D03*
X89355103Y-71062807D03*
X30855103Y-118262807D03*
X50355103Y-125462807D03*
X76355103Y-42262807D03*
X108855103Y-103862807D03*
X108855103Y-118262807D03*
X24355103Y-56662807D03*
X94661319Y-97905228D03*
X128355103Y-27862807D03*
X43855103Y-118262807D03*
X160855103Y-49462807D03*
X24355103Y-78262807D03*
X82855103Y-139862807D03*
X102355103Y-42262807D03*
X50355103Y-132662807D03*
X68600000Y-82500000D03*
X141355103Y-49462807D03*
X160855103Y-78262807D03*
X76355103Y-27862807D03*
X63355103Y-89462807D03*
X96700000Y-82500000D03*
X121855103Y-125462807D03*
X167355103Y-111062807D03*
X76355103Y-139862807D03*
X30855103Y-49462807D03*
X128355103Y-125462807D03*
X147855103Y-27862807D03*
X147855103Y-111062807D03*
X95855103Y-89462807D03*
X37355103Y-35062807D03*
X154355103Y-42262807D03*
X134855103Y-96662807D03*
X147855103Y-132662807D03*
X30855103Y-78262807D03*
X108855103Y-63862807D03*
X89355103Y-56662807D03*
X95000000Y-82500000D03*
X30855103Y-63862807D03*
X56855103Y-78262807D03*
X82855103Y-63862807D03*
X50355103Y-96662807D03*
X128355103Y-35062807D03*
X141355103Y-63862807D03*
X95855103Y-103862807D03*
X43855103Y-132662807D03*
X108855103Y-78262807D03*
X63355103Y-49462807D03*
X102355103Y-56662807D03*
X24355103Y-71062807D03*
X17855103Y-71062807D03*
X56855103Y-96662807D03*
X24355103Y-49462807D03*
X154355103Y-103862807D03*
X24355103Y-89462807D03*
X24355103Y-63862807D03*
X121855103Y-49462807D03*
X128355103Y-96662807D03*
X43855103Y-63862807D03*
X43855103Y-78262807D03*
X154355103Y-111062807D03*
X128355103Y-42262807D03*
X69855103Y-118262807D03*
X134855103Y-56662807D03*
X37355103Y-63862807D03*
X115355103Y-35062807D03*
X141355103Y-118262807D03*
X160855103Y-63862807D03*
X141355103Y-71062807D03*
X167355103Y-71062807D03*
X63355103Y-132662807D03*
X17855103Y-139862807D03*
X24355103Y-125462807D03*
X69855103Y-63862807D03*
X102355103Y-96662807D03*
X65100000Y-84900000D03*
X121855103Y-139862807D03*
X69855103Y-132662807D03*
X89355103Y-78262807D03*
X134855103Y-78262807D03*
X134855103Y-35062807D03*
X108855103Y-96662807D03*
X30855103Y-139862807D03*
X89355103Y-111062807D03*
%TO.N,+3V3*%
X161846694Y-61629537D03*
X162433000Y-94615000D03*
X152654000Y-85471000D03*
X168555103Y-61671200D03*
%TO.N,Net-(D3-A)*%
X135458200Y-84531200D03*
%TO.N,I2C_SCL*%
X162052000Y-82397600D03*
X152654000Y-84201000D03*
%TO.N,I2C_SDA*%
X150114000Y-84328000D03*
%TO.N,ONE_WIRE*%
X32029400Y-85801200D03*
X143459200Y-92100400D03*
%TO.N,Net-(D1-DIN)*%
X18738177Y-123505037D03*
X18754261Y-109092062D03*
X18738177Y-61905037D03*
X170566627Y-80004372D03*
X170571565Y-36833055D03*
X170559617Y-120004787D03*
X18762157Y-130742839D03*
X170583597Y-127242589D03*
X18796000Y-87249000D03*
X18750125Y-101933305D03*
X170575701Y-43991812D03*
X170583555Y-112829947D03*
X170583555Y-51229947D03*
X18762157Y-69142839D03*
X18754261Y-47492062D03*
X18750000Y-33000000D03*
X170571523Y-134207035D03*
X171700000Y-142900000D03*
X18750125Y-40333305D03*
X170559617Y-58404787D03*
X18750000Y-94600000D03*
X18762115Y-54730197D03*
X16600000Y-25800000D03*
X170571523Y-72607035D03*
X18762115Y-116330197D03*
X18750083Y-137707285D03*
X170571440Y-91099750D03*
X170571565Y-98433055D03*
X18750083Y-76107285D03*
X170583597Y-65642589D03*
X170575701Y-105591812D03*
X170571440Y-29499750D03*
%TO.N,/ESP32/EN*%
X155803600Y-101752400D03*
X168351200Y-101752400D03*
%TO.N,ONE_WIRE_2*%
X143054603Y-90779600D03*
X51689000Y-91973400D03*
X45415200Y-92278200D03*
%TO.N,/ESP32/GPIO_35*%
X97250000Y-101657805D03*
X84450000Y-102060663D03*
%TD*%
D34*
%TO.N,+5V*%
X147795157Y-119911266D02*
X154295157Y-119911266D01*
D35*
X141295157Y-112711266D02*
X145553466Y-112711266D01*
D34*
X149352000Y-119507000D02*
X148947734Y-119911266D01*
X91300000Y-85000000D02*
X91300000Y-84000000D01*
D36*
X76325000Y-100600000D02*
X76325000Y-98341109D01*
D34*
X91300000Y-90700000D02*
X91340000Y-90660000D01*
X95795157Y-92255157D02*
X96800000Y-93260000D01*
X91600000Y-95800000D02*
X91200000Y-96200000D01*
X91300000Y-51200000D02*
X91300000Y-36700000D01*
X91300000Y-28400000D02*
X91300000Y-28100000D01*
X91200000Y-112700000D02*
X91200000Y-142500000D01*
X100700000Y-85355000D02*
X100761800Y-85293200D01*
X91200000Y-93400000D02*
X91200000Y-96200000D01*
X145796000Y-112953800D02*
X145796000Y-112014000D01*
X145796000Y-115021000D02*
X145796000Y-112953800D01*
X149205103Y-133221996D02*
X148115833Y-134311266D01*
X148961334Y-127111266D02*
X147795157Y-127111266D01*
X95795157Y-91111266D02*
X95795157Y-92255157D01*
X147795157Y-119911266D02*
X149205103Y-121321212D01*
X91340000Y-93260000D02*
X91200000Y-93400000D01*
X91300000Y-58400000D02*
X91300000Y-51200000D01*
X149205103Y-141497897D02*
X149191734Y-141511266D01*
X91340000Y-90740000D02*
X91300000Y-90700000D01*
X91300000Y-112600000D02*
X91200000Y-112700000D01*
X149205103Y-128521212D02*
X149205103Y-133221996D01*
X100700000Y-83900000D02*
X100700000Y-82800000D01*
D35*
X145553466Y-112711266D02*
X145796000Y-112953800D01*
D34*
X96800000Y-95800000D02*
X91600000Y-95800000D01*
X145805000Y-115012000D02*
X145796000Y-115021000D01*
X96800000Y-93260000D02*
X91340000Y-93260000D01*
D35*
X99311266Y-98311266D02*
X96800000Y-95800000D01*
D34*
X91200000Y-112500000D02*
X91300000Y-112600000D01*
X91340000Y-90660000D02*
X91340000Y-85040000D01*
X149205103Y-121321212D02*
X149205103Y-126867497D01*
X149352000Y-115012000D02*
X145805000Y-115012000D01*
X147795157Y-134311266D02*
X149205103Y-135721212D01*
X91200000Y-105700000D02*
X91200000Y-112500000D01*
X100761800Y-85293200D02*
X100700000Y-85231400D01*
X96800000Y-93108721D02*
X100700000Y-89208721D01*
D35*
X147795157Y-112711266D02*
X146038534Y-112711266D01*
D34*
X91340000Y-93260000D02*
X91340000Y-90740000D01*
X91200000Y-96200000D02*
X91200000Y-105700000D01*
X152132000Y-115012000D02*
X149352000Y-115012000D01*
D35*
X102295157Y-98311266D02*
X99311266Y-98311266D01*
D34*
X91300000Y-72700000D02*
X91300000Y-58400000D01*
X91300000Y-79900000D02*
X91300000Y-72700000D01*
D35*
X95795157Y-98311266D02*
X95795157Y-96804843D01*
D34*
X149191734Y-141511266D02*
X147795157Y-141511266D01*
X149352000Y-115012000D02*
X149352000Y-119507000D01*
X149205103Y-126867497D02*
X148961334Y-127111266D01*
X148947734Y-119911266D02*
X147795157Y-119911266D01*
X91300000Y-84000000D02*
X91300000Y-79900000D01*
D35*
X100700000Y-89516109D02*
X100700000Y-89208721D01*
X102295157Y-91111266D02*
X100700000Y-89516109D01*
X95795157Y-96804843D02*
X96800000Y-95800000D01*
D34*
X147795157Y-127111266D02*
X149205103Y-128521212D01*
X100700000Y-89208721D02*
X100700000Y-85355000D01*
X96800000Y-93260000D02*
X96800000Y-93108721D01*
D36*
X76325000Y-98341109D02*
X76295157Y-98311266D01*
D34*
X149205103Y-135721212D02*
X149205103Y-141497897D01*
X100700000Y-85231400D02*
X100700000Y-83900000D01*
X148115833Y-134311266D02*
X147795157Y-134311266D01*
X91340000Y-85040000D02*
X91300000Y-85000000D01*
X91300000Y-36700000D02*
X91300000Y-28400000D01*
D35*
X146038534Y-112711266D02*
X145796000Y-112953800D01*
D34*
%TO.N,GND*%
X160782000Y-118189704D02*
X160855103Y-118262807D01*
D36*
X141427200Y-103790710D02*
X141355103Y-103862807D01*
X151003000Y-103864500D02*
X147856796Y-103864500D01*
X155983000Y-84322000D02*
X154583000Y-84322000D01*
X141427200Y-102129500D02*
X141427200Y-103790710D01*
D35*
X163703000Y-92972000D02*
X165455000Y-94724000D01*
D36*
X154355103Y-96662807D02*
X155437193Y-96662807D01*
D35*
X165455000Y-94724000D02*
X165455000Y-96774000D01*
D34*
X159828193Y-111062807D02*
X160810000Y-111062807D01*
D36*
X147855103Y-89462807D02*
X147375910Y-89942000D01*
D35*
X163957000Y-71062807D02*
X163703000Y-71316807D01*
D37*
X145796000Y-119421000D02*
X145796000Y-123403704D01*
D35*
X66800000Y-81317910D02*
X66800000Y-81800000D01*
D36*
X147856796Y-103864500D02*
X147855103Y-103862807D01*
X140732193Y-63862807D02*
X137757000Y-66838000D01*
X147375910Y-89942000D02*
X145943000Y-89942000D01*
X157383000Y-85722000D02*
X154583000Y-85722000D01*
X151003000Y-102361800D02*
X151510800Y-101854000D01*
D35*
X95855103Y-78262807D02*
X95855103Y-80855103D01*
D36*
X150214393Y-49462807D02*
X150883800Y-48793400D01*
D34*
X156732000Y-115012000D02*
X158623000Y-115012000D01*
D35*
X162168163Y-88635163D02*
X163703000Y-90170000D01*
D36*
X155983000Y-87122000D02*
X155983000Y-84322000D01*
X158242000Y-49086000D02*
X160478296Y-49086000D01*
X137734400Y-66860600D02*
X137757000Y-66838000D01*
D35*
X100337193Y-78262807D02*
X96800000Y-81800000D01*
D37*
X141355103Y-111062807D02*
X142334310Y-110083600D01*
D36*
X157383000Y-87122000D02*
X157383000Y-88514059D01*
X158080000Y-59437910D02*
X158080000Y-60738000D01*
X157383000Y-84322000D02*
X157383000Y-83748400D01*
X160855103Y-56662807D02*
X158080000Y-59437910D01*
X158242000Y-49086000D02*
X154731910Y-49086000D01*
D35*
X163703000Y-90170000D02*
X163703000Y-92972000D01*
D36*
X70030410Y-103687500D02*
X69855103Y-103862807D01*
X160478296Y-49086000D02*
X160855103Y-49462807D01*
D35*
X95855103Y-89462807D02*
X95855103Y-85284897D01*
X161682747Y-88635163D02*
X162168163Y-88635163D01*
D36*
X143560800Y-101854000D02*
X141702700Y-101854000D01*
D34*
X160782000Y-115012000D02*
X160782000Y-118189704D01*
D35*
X165455000Y-96774000D02*
X165455000Y-100965000D01*
D34*
X158623000Y-115012000D02*
X160782000Y-115012000D01*
D35*
X63355103Y-78262807D02*
X63355103Y-78355103D01*
D34*
X160782000Y-115012000D02*
X161635000Y-115012000D01*
D36*
X154583000Y-85722000D02*
X154583000Y-87122000D01*
D35*
X167355103Y-71062807D02*
X163957000Y-71062807D01*
D36*
X145846296Y-101854000D02*
X143560800Y-101854000D01*
D37*
X142334310Y-110083600D02*
X146875896Y-110083600D01*
D36*
X157383000Y-84322000D02*
X155983000Y-84322000D01*
X135686800Y-66860600D02*
X137734400Y-66860600D01*
D35*
X63355103Y-78355103D02*
X66800000Y-81800000D01*
D36*
X154583000Y-87122000D02*
X155983000Y-87122000D01*
X154731910Y-49086000D02*
X154355103Y-49462807D01*
X147855103Y-103862807D02*
X145846296Y-101854000D01*
D35*
X165455000Y-101962704D02*
X167355103Y-103862807D01*
D34*
X161635000Y-115012000D02*
X162560000Y-114087000D01*
D36*
X141702700Y-101854000D02*
X141427200Y-102129500D01*
X158693200Y-84322000D02*
X159029400Y-84658200D01*
X151004693Y-103862807D02*
X151003000Y-103864500D01*
D37*
X141355103Y-118262807D02*
X147855103Y-118262807D01*
D36*
X157383000Y-84322000D02*
X158693200Y-84322000D01*
D35*
X163703000Y-71316807D02*
X163703000Y-75369000D01*
X95855103Y-80855103D02*
X96800000Y-81800000D01*
X167355103Y-96662807D02*
X165566193Y-96662807D01*
D36*
X155983000Y-87122000D02*
X157383000Y-87122000D01*
D35*
X68600000Y-84900000D02*
X68600000Y-88207704D01*
D34*
X158623000Y-112268000D02*
X159828193Y-111062807D01*
D35*
X68600000Y-88207704D02*
X69855103Y-89462807D01*
D36*
X76325000Y-103832704D02*
X76355103Y-103862807D01*
X71150000Y-103687500D02*
X70030410Y-103687500D01*
X154355103Y-103862807D02*
X151004693Y-103862807D01*
D35*
X102355103Y-78262807D02*
X100337193Y-78262807D01*
D36*
X157383000Y-88514059D02*
X157504104Y-88635163D01*
D37*
X146875896Y-110083600D02*
X147855103Y-111062807D01*
D36*
X76325000Y-102500000D02*
X76325000Y-103832704D01*
X157383000Y-83748400D02*
X156972000Y-83337400D01*
X145707000Y-66838000D02*
X145707000Y-66010910D01*
X135686800Y-64694504D02*
X135686800Y-66860600D01*
X170180000Y-109880400D02*
X170180000Y-108369600D01*
D34*
X158623000Y-115012000D02*
X158623000Y-112268000D01*
D36*
X151003000Y-103864500D02*
X151003000Y-102361800D01*
D35*
X69855103Y-78262807D02*
X66800000Y-81317910D01*
D36*
X141355103Y-63862807D02*
X140732193Y-63862807D01*
X134855103Y-63862807D02*
X135686800Y-64694504D01*
X168997593Y-111062807D02*
X170180000Y-109880400D01*
X167355103Y-111062807D02*
X168997593Y-111062807D01*
X147855103Y-49462807D02*
X150214393Y-49462807D01*
D35*
X165566193Y-96662807D02*
X165455000Y-96774000D01*
X95855103Y-85284897D02*
X96800000Y-84340000D01*
D36*
X155437193Y-96662807D02*
X156750000Y-95350000D01*
X157383000Y-87122000D02*
X157383000Y-84322000D01*
D37*
X145796000Y-123403704D02*
X147855103Y-125462807D01*
D36*
X145707000Y-66010910D02*
X147855103Y-63862807D01*
X154583000Y-84322000D02*
X154583000Y-85722000D01*
X137757000Y-66838000D02*
X145707000Y-66838000D01*
D35*
X165455000Y-100965000D02*
X165455000Y-101962704D01*
%TO.N,+3V3*%
X154836400Y-47086000D02*
X150698200Y-51224200D01*
X162433000Y-94615000D02*
X162433000Y-100711000D01*
X155455103Y-109735103D02*
X155455103Y-113106955D01*
X160482747Y-89132219D02*
X160482747Y-85567053D01*
D36*
X152654000Y-86729396D02*
X155839640Y-89915036D01*
D35*
X154432000Y-114130058D02*
X154432000Y-115012000D01*
X166166800Y-79883000D02*
X166166800Y-75395258D01*
X162433000Y-92052050D02*
X161895157Y-91514207D01*
X150698200Y-51224200D02*
X150698200Y-54711600D01*
D38*
X151409400Y-108712000D02*
X154432000Y-108712000D01*
D35*
X158242000Y-47086000D02*
X154836400Y-47086000D01*
D37*
X159175200Y-97485200D02*
X159175200Y-96785200D01*
D36*
X158080000Y-62738000D02*
X160738231Y-62738000D01*
D35*
X155455103Y-113106955D02*
X154432000Y-114130058D01*
X168555103Y-73006955D02*
X168555103Y-61671200D01*
X154432000Y-108712000D02*
X155455103Y-109735103D01*
X166166800Y-75395258D02*
X168555103Y-73006955D01*
D37*
X160583400Y-95377000D02*
X162517000Y-95377000D01*
D35*
X160482747Y-85567053D02*
X166166800Y-79883000D01*
D38*
X151003000Y-108305600D02*
X151409400Y-108712000D01*
D35*
X161895157Y-91514207D02*
X161895157Y-90544629D01*
X168555103Y-55607172D02*
X160033931Y-47086000D01*
D38*
X151003000Y-105939500D02*
X151003000Y-108305600D01*
D34*
X154432000Y-108712000D02*
X161585000Y-108712000D01*
D36*
X160738231Y-62738000D02*
X161846694Y-61629537D01*
D34*
X162560000Y-95420000D02*
X162517000Y-95377000D01*
D36*
X152654000Y-85471000D02*
X152654000Y-86729396D01*
D35*
X160033931Y-47086000D02*
X158242000Y-47086000D01*
X162433000Y-92972000D02*
X162433000Y-92052050D01*
D34*
X162560000Y-109687000D02*
X162560000Y-95420000D01*
D35*
X168555103Y-61671200D02*
X168555103Y-55607172D01*
X162433000Y-92972000D02*
X162433000Y-94615000D01*
D34*
X161585000Y-108712000D02*
X162560000Y-109687000D01*
D35*
X161895157Y-90544629D02*
X160482747Y-89132219D01*
D37*
X159175200Y-96785200D02*
X160583400Y-95377000D01*
D36*
X155839640Y-89915036D02*
X161265564Y-89915036D01*
%TO.N,Net-(D3-A)*%
X136779000Y-84531200D02*
X135458200Y-84531200D01*
D39*
%TO.N,I2C_SCL*%
X161805000Y-68349828D02*
X161805000Y-73907000D01*
D36*
X156279600Y-51086000D02*
X158242000Y-51086000D01*
D39*
X162052000Y-82397600D02*
X161707400Y-82053000D01*
X152654000Y-84201000D02*
X153184000Y-84201000D01*
X161163000Y-76222000D02*
X161163000Y-75472000D01*
X161707400Y-82053000D02*
X155332000Y-82053000D01*
D36*
X155404334Y-51961266D02*
X156279600Y-51086000D01*
D39*
X153184000Y-84201000D02*
X155332000Y-82053000D01*
X155332000Y-82053000D02*
X161163000Y-76222000D01*
X162192001Y-54472827D02*
X161805000Y-54859828D01*
X158242000Y-51086000D02*
X158805174Y-51086000D01*
X162991800Y-67163028D02*
X161805000Y-68349828D01*
D36*
X152882600Y-51739800D02*
X153104066Y-51961266D01*
D39*
X158805174Y-51086000D02*
X162192001Y-54472827D01*
X161805000Y-54859828D02*
X161805000Y-59126172D01*
D36*
X153104066Y-51961266D02*
X155404334Y-51961266D01*
D39*
X161805000Y-59126172D02*
X162991800Y-60312972D01*
X161266000Y-74446000D02*
X161266000Y-75472000D01*
X162991800Y-60312972D02*
X162991800Y-67163028D01*
X161805000Y-73907000D02*
X161266000Y-74446000D01*
%TO.N,I2C_SDA*%
X158242000Y-53086000D02*
X155067000Y-56261000D01*
X155067000Y-63549399D02*
X155080103Y-63562502D01*
X155067000Y-56976215D02*
X155067000Y-63549399D01*
X157353000Y-77878728D02*
X157353000Y-75472000D01*
X155080103Y-56963112D02*
X155067000Y-56976215D01*
X155067000Y-56349399D02*
X155080103Y-56362502D01*
X150903728Y-84328000D02*
X157353000Y-77878728D01*
X157456000Y-73509000D02*
X157456000Y-75472000D01*
X155080103Y-56362502D02*
X155080103Y-56963112D01*
X155067000Y-56261000D02*
X155067000Y-56349399D01*
D36*
X154838400Y-53086000D02*
X158242000Y-53086000D01*
X153212800Y-54711600D02*
X154838400Y-53086000D01*
X152698200Y-54711600D02*
X153212800Y-54711600D01*
D39*
X150114000Y-84328000D02*
X150903728Y-84328000D01*
X155080103Y-71133103D02*
X157456000Y-73509000D01*
X155080103Y-63562502D02*
X155080103Y-71133103D01*
D36*
%TO.N,ONE_WIRE*%
X32004000Y-83629500D02*
X32004000Y-85839300D01*
X143459200Y-92100400D02*
X145694400Y-94335600D01*
X152929400Y-94335600D02*
X153543000Y-93722000D01*
X32029400Y-88011000D02*
X32004000Y-88036400D01*
X153543000Y-93722000D02*
X153543000Y-92972000D01*
X145694400Y-94335600D02*
X152929400Y-94335600D01*
D34*
%TO.N,Net-(D1-DIN)*%
X17701485Y-25800000D02*
X32613600Y-40712115D01*
X16600000Y-25800000D02*
X17701485Y-25800000D01*
X53314600Y-86741000D02*
X53314600Y-144153898D01*
X52197000Y-86093300D02*
X52197000Y-83172300D01*
X53268498Y-144200000D02*
X170400000Y-144200000D01*
X53314600Y-144153898D02*
X53268498Y-144200000D01*
X32588200Y-81203800D02*
X32588200Y-83548934D01*
X32613600Y-40712115D02*
X32613600Y-81193400D01*
X52298600Y-85725000D02*
X53314600Y-86741000D01*
X170400000Y-144200000D02*
X171700000Y-142900000D01*
D36*
%TO.N,Net-(JP2-B)*%
X142205103Y-92160697D02*
X141401800Y-92964000D01*
X141884400Y-85539400D02*
X142205103Y-85860103D01*
X142205103Y-85860103D02*
X142205103Y-92160697D01*
%TO.N,/ESP32/GPIO_15*%
X141884400Y-83090600D02*
X141884400Y-83464400D01*
X145943000Y-79782000D02*
X145193000Y-79782000D01*
X145193000Y-79782000D02*
X141884400Y-83090600D01*
%TO.N,/ESP32/GPIO_00_BOOT*%
X145707000Y-71338000D02*
X145707000Y-73986000D01*
X135686800Y-68935600D02*
X135686800Y-69267800D01*
X137757000Y-71338000D02*
X138882193Y-70212807D01*
X138882193Y-70212807D02*
X144581807Y-70212807D01*
X144581807Y-70212807D02*
X145707000Y-71338000D01*
X145707000Y-73986000D02*
X147193000Y-75472000D01*
X135686800Y-69267800D02*
X137757000Y-71338000D01*
%TO.N,/ESP32/EN*%
X141427200Y-100054500D02*
X141427200Y-99487600D01*
D39*
X168808400Y-102209600D02*
X168351200Y-101752400D01*
D36*
X149703534Y-99161266D02*
X151510800Y-97354000D01*
X157216196Y-97485200D02*
X157175200Y-97485200D01*
X153318066Y-99161266D02*
X151510800Y-97354000D01*
X143560800Y-97354000D02*
X145368066Y-99161266D01*
X155499134Y-99161266D02*
X153318066Y-99161266D01*
X157175200Y-97485200D02*
X155499134Y-99161266D01*
X141427200Y-99487600D02*
X143560800Y-97354000D01*
D39*
X155803600Y-101752400D02*
X155803600Y-99465732D01*
X170180000Y-102209600D02*
X168808400Y-102209600D01*
D36*
X145368066Y-99161266D02*
X149703534Y-99161266D01*
D39*
X155803600Y-99465732D02*
X155499134Y-99161266D01*
D36*
X143276800Y-96139000D02*
X143560800Y-96139000D01*
X161163000Y-93538396D02*
X157216196Y-97485200D01*
X143560800Y-96139000D02*
X143560800Y-97354000D01*
X141401800Y-94264000D02*
X143276800Y-96139000D01*
X161163000Y-92972000D02*
X161163000Y-93538396D01*
D39*
%TO.N,/ESP32/GPIO_03_U0RXD*%
X158080000Y-64738000D02*
X156330000Y-64738000D01*
X155530103Y-70946707D02*
X158726000Y-74142604D01*
X158726000Y-74142604D02*
X158726000Y-75472000D01*
X155530103Y-65537897D02*
X155530103Y-70946707D01*
X156330000Y-64738000D02*
X155530103Y-65537897D01*
%TO.N,/ESP32/GPIO_01_U0TXD*%
X159893000Y-68551000D02*
X159893000Y-75369000D01*
X158080000Y-66738000D02*
X159893000Y-68551000D01*
X159893000Y-75369000D02*
X159996000Y-75472000D01*
D36*
%TO.N,ONE_WIRE_2*%
X29400000Y-86805622D02*
X34872578Y-92278200D01*
X34872578Y-92278200D02*
X45415200Y-92278200D01*
X148124518Y-91668600D02*
X154259600Y-91668600D01*
X51700000Y-89720000D02*
X51700000Y-87615600D01*
X154813000Y-92222000D02*
X154813000Y-92972000D01*
X29413200Y-82995311D02*
X29413200Y-86829089D01*
X51700000Y-87615600D02*
X49205400Y-85121000D01*
X51689000Y-91973400D02*
X51689000Y-89731000D01*
X154259600Y-91668600D02*
X154813000Y-92222000D01*
X49205400Y-85121000D02*
X49205400Y-83511000D01*
X143054603Y-90779600D02*
X143130803Y-90855800D01*
X147311718Y-90855800D02*
X148124518Y-91668600D01*
X143130803Y-90855800D02*
X147311718Y-90855800D01*
X51689000Y-89731000D02*
X51700000Y-89720000D01*
D34*
%TO.N,+12V*%
X37573600Y-81483200D02*
X35520400Y-83536400D01*
D36*
X66550000Y-96050000D02*
X66800000Y-95800000D01*
D34*
X59312485Y-83511000D02*
X66800000Y-90998515D01*
X55205400Y-83511000D02*
X53177600Y-81483200D01*
X66800000Y-90998515D02*
X66800000Y-93260000D01*
D36*
X66550000Y-101550000D02*
X66550000Y-96050000D01*
D34*
X53177600Y-81483200D02*
X37573600Y-81483200D01*
X55205400Y-83511000D02*
X59312485Y-83511000D01*
D39*
%TO.N,/ESP32/GPIO_13*%
X145193000Y-88672000D02*
X145943000Y-88672000D01*
X143891000Y-87370000D02*
X145193000Y-88672000D01*
X143891000Y-85840380D02*
X143891000Y-87370000D01*
X138779000Y-84531200D02*
X142581820Y-84531200D01*
X142581820Y-84531200D02*
X143891000Y-85840380D01*
D36*
%TO.N,/ESP32/GPIO_35*%
X68550000Y-101550000D02*
X78200000Y-101550000D01*
X155148418Y-90615036D02*
X156083000Y-91549618D01*
X156083000Y-94017000D02*
X156083000Y-92972000D01*
X83939337Y-101550000D02*
X84450000Y-102060663D01*
X154750000Y-95350000D02*
X156083000Y-94017000D01*
X149250000Y-89400000D02*
X150465036Y-90615036D01*
X148207185Y-77412807D02*
X149250000Y-78455622D01*
X149250000Y-78455622D02*
X149250000Y-89400000D01*
X150465036Y-90615036D02*
X155148418Y-90615036D01*
X78200000Y-101550000D02*
X83939337Y-101550000D01*
X97250000Y-101657805D02*
X114958023Y-101657805D01*
X114958023Y-101657805D02*
X139203021Y-77412807D01*
X139203021Y-77412807D02*
X148207185Y-77412807D01*
X156083000Y-91549618D02*
X156083000Y-92972000D01*
%TD*%
M02*
