%TF.GenerationSoftware,KiCad,Pcbnew,7.0.8*%
%TF.CreationDate,2023-11-20T11:06:52+02:00*%
%TF.ProjectId,LED Matrix Display,4c454420-4d61-4747-9269-782044697370,rev?*%
%TF.SameCoordinates,Original*%
%TF.FileFunction,Soldermask,Bot*%
%TF.FilePolarity,Negative*%
%FSLAX46Y46*%
G04 Gerber Fmt 4.6, Leading zero omitted, Abs format (unit mm)*
G04 Created by KiCad (PCBNEW 7.0.8) date 2023-11-20 11:06:52*
%MOMM*%
%LPD*%
G01*
G04 APERTURE LIST*
G04 Aperture macros list*
%AMRoundRect*
0 Rectangle with rounded corners*
0 $1 Rounding radius*
0 $2 $3 $4 $5 $6 $7 $8 $9 X,Y pos of 4 corners*
0 Add a 4 corners polygon primitive as box body*
4,1,4,$2,$3,$4,$5,$6,$7,$8,$9,$2,$3,0*
0 Add four circle primitives for the rounded corners*
1,1,$1+$1,$2,$3*
1,1,$1+$1,$4,$5*
1,1,$1+$1,$6,$7*
1,1,$1+$1,$8,$9*
0 Add four rect primitives between the rounded corners*
20,1,$1+$1,$2,$3,$4,$5,0*
20,1,$1+$1,$4,$5,$6,$7,0*
20,1,$1+$1,$6,$7,$8,$9,0*
20,1,$1+$1,$8,$9,$2,$3,0*%
%AMFreePoly0*
4,1,19,0.500000,-0.750000,0.000000,-0.750000,0.000000,-0.744911,-0.071157,-0.744911,-0.207708,-0.704816,-0.327430,-0.627875,-0.420627,-0.520320,-0.479746,-0.390866,-0.500000,-0.250000,-0.500000,0.250000,-0.479746,0.390866,-0.420627,0.520320,-0.327430,0.627875,-0.207708,0.704816,-0.071157,0.744911,0.000000,0.744911,0.000000,0.750000,0.500000,0.750000,0.500000,-0.750000,0.500000,-0.750000,
$1*%
%AMFreePoly1*
4,1,19,0.000000,0.744911,0.071157,0.744911,0.207708,0.704816,0.327430,0.627875,0.420627,0.520320,0.479746,0.390866,0.500000,0.250000,0.500000,-0.250000,0.479746,-0.390866,0.420627,-0.520320,0.327430,-0.627875,0.207708,-0.704816,0.071157,-0.744911,0.000000,-0.744911,0.000000,-0.750000,-0.500000,-0.750000,-0.500000,0.750000,0.000000,0.750000,0.000000,0.744911,0.000000,0.744911,
$1*%
G04 Aperture macros list end*
%ADD10RoundRect,0.250000X-1.500000X0.250000X-1.500000X-0.250000X1.500000X-0.250000X1.500000X0.250000X0*%
%ADD11RoundRect,0.250001X-1.449999X0.499999X-1.449999X-0.499999X1.449999X-0.499999X1.449999X0.499999X0*%
%ADD12RoundRect,0.250000X0.350000X0.450000X-0.350000X0.450000X-0.350000X-0.450000X0.350000X-0.450000X0*%
%ADD13RoundRect,0.250000X-0.350000X-0.450000X0.350000X-0.450000X0.350000X0.450000X-0.350000X0.450000X0*%
%ADD14RoundRect,0.250000X-0.475000X0.337500X-0.475000X-0.337500X0.475000X-0.337500X0.475000X0.337500X0*%
%ADD15R,0.900000X1.500000*%
%ADD16R,1.500000X0.900000*%
%ADD17R,0.900000X0.900000*%
%ADD18RoundRect,0.250000X-0.550000X1.250000X-0.550000X-1.250000X0.550000X-1.250000X0.550000X1.250000X0*%
%ADD19R,1.550000X1.300000*%
%ADD20R,1.500000X2.000000*%
%ADD21R,3.800000X2.000000*%
%ADD22C,1.270000*%
%ADD23RoundRect,0.250001X-0.499999X-0.759999X0.499999X-0.759999X0.499999X0.759999X-0.499999X0.759999X0*%
%ADD24O,1.500000X2.020000*%
%ADD25RoundRect,0.250000X0.475000X-0.337500X0.475000X0.337500X-0.475000X0.337500X-0.475000X-0.337500X0*%
%ADD26R,5.080000X2.540000*%
%ADD27RoundRect,0.250000X-0.337500X-0.475000X0.337500X-0.475000X0.337500X0.475000X-0.337500X0.475000X0*%
%ADD28RoundRect,0.250001X-0.499999X-0.924999X0.499999X-0.924999X0.499999X0.924999X-0.499999X0.924999X0*%
%ADD29FreePoly0,90.000000*%
%ADD30FreePoly1,90.000000*%
%ADD31RoundRect,0.250000X0.337500X0.475000X-0.337500X0.475000X-0.337500X-0.475000X0.337500X-0.475000X0*%
%ADD32RoundRect,0.150000X-0.587500X-0.150000X0.587500X-0.150000X0.587500X0.150000X-0.587500X0.150000X0*%
%ADD33R,2.000000X2.500000*%
G04 APERTURE END LIST*
D10*
%TO.C,J1*%
X158242000Y-47086000D03*
X158242000Y-49086000D03*
X158242000Y-51086000D03*
X158242000Y-53086000D03*
D11*
X163992000Y-44736000D03*
X163992000Y-55436000D03*
%TD*%
D12*
%TO.C,R5*%
X156750000Y-95350000D03*
X154750000Y-95350000D03*
%TD*%
%TO.C,R3*%
X152882600Y-51739800D03*
X150882600Y-51739800D03*
%TD*%
D13*
%TO.C,R6*%
X157175200Y-97485200D03*
X159175200Y-97485200D03*
%TD*%
D14*
%TO.C,C8*%
X135686800Y-66860600D03*
X135686800Y-68935600D03*
%TD*%
%TO.C,C6*%
X71150000Y-101612500D03*
X71150000Y-103687500D03*
%TD*%
D15*
%TO.C,U1*%
X163703000Y-92972000D03*
X162433000Y-92972000D03*
X161163000Y-92972000D03*
X159893000Y-92972000D03*
X158623000Y-92972000D03*
X157353000Y-92972000D03*
X156083000Y-92972000D03*
X154813000Y-92972000D03*
X153543000Y-92972000D03*
X152273000Y-92972000D03*
X151003000Y-92972000D03*
X149733000Y-92972000D03*
X148463000Y-92972000D03*
X147193000Y-92972000D03*
D16*
X145943000Y-89942000D03*
X145943000Y-88672000D03*
X145943000Y-87402000D03*
X145943000Y-86132000D03*
X145943000Y-84862000D03*
X145943000Y-83592000D03*
X145943000Y-82322000D03*
X145943000Y-81052000D03*
X145943000Y-79782000D03*
X145943000Y-78512000D03*
D15*
X147193000Y-75472000D03*
X148463000Y-75472000D03*
X149733000Y-75472000D03*
X151003000Y-75472000D03*
X152273000Y-75472000D03*
X153543000Y-75472000D03*
X154813000Y-75472000D03*
X156083000Y-75472000D03*
X157353000Y-75472000D03*
X158623000Y-75472000D03*
X159893000Y-75472000D03*
X161163000Y-75472000D03*
X162433000Y-75472000D03*
X163703000Y-75472000D03*
D17*
X154583000Y-87122000D03*
X154583000Y-87122000D03*
X155983000Y-87122000D03*
X157383000Y-87122000D03*
X157383000Y-87122000D03*
X154583000Y-85722000D03*
X154583000Y-85722000D03*
X155983000Y-85722000D03*
X157383000Y-85722000D03*
X154583000Y-84322000D03*
X155983000Y-84322000D03*
X157383000Y-84322000D03*
%TD*%
D18*
%TO.C,C12*%
X162560000Y-109687000D03*
X162560000Y-114087000D03*
%TD*%
D19*
%TO.C,SW2*%
X143560800Y-101854000D03*
X151510800Y-101854000D03*
X143560800Y-97354000D03*
X151510800Y-97354000D03*
%TD*%
D20*
%TO.C,U4*%
X156732000Y-115012000D03*
X154432000Y-115012000D03*
D21*
X154432000Y-108712000D03*
D20*
X152132000Y-115012000D03*
%TD*%
D22*
%TO.C,J4*%
X23520400Y-85496400D03*
X38520400Y-85496400D03*
D23*
X26520400Y-83536400D03*
D24*
X29520400Y-83536400D03*
X32520400Y-83536400D03*
X35520400Y-83536400D03*
%TD*%
D25*
%TO.C,C14*%
X141427200Y-102129500D03*
X141427200Y-100054500D03*
%TD*%
D26*
%TO.C,J7*%
X66800000Y-81800000D03*
X66800000Y-84340000D03*
X66800000Y-93260000D03*
X66800000Y-95800000D03*
X96800000Y-81800000D03*
X96800000Y-84340000D03*
X96800000Y-93260000D03*
X96800000Y-95800000D03*
%TD*%
D25*
%TO.C,C13*%
X151003000Y-105939500D03*
X151003000Y-103864500D03*
%TD*%
D27*
%TO.C,C9*%
X162517000Y-95377000D03*
X164592000Y-95377000D03*
%TD*%
D28*
%TO.C,C11*%
X162205000Y-100965000D03*
X165455000Y-100965000D03*
%TD*%
D18*
%TO.C,C16*%
X145796000Y-115021000D03*
X145796000Y-119421000D03*
%TD*%
D29*
%TO.C,JP2*%
X141401800Y-94264000D03*
D30*
X141401800Y-92964000D03*
%TD*%
D31*
%TO.C,C2*%
X152958800Y-48793400D03*
X150883800Y-48793400D03*
%TD*%
D25*
%TO.C,C4*%
X141884400Y-85539400D03*
X141884400Y-83464400D03*
%TD*%
D32*
%TO.C,D2*%
X76325000Y-102500000D03*
X76325000Y-100600000D03*
X78200000Y-101550000D03*
%TD*%
D19*
%TO.C,SW1*%
X145707000Y-66838000D03*
X137757000Y-66838000D03*
X145707000Y-71338000D03*
X137757000Y-71338000D03*
%TD*%
D13*
%TO.C,R1*%
X136779000Y-84531200D03*
X138779000Y-84531200D03*
%TD*%
D33*
%TO.C,SW3*%
X170180000Y-108369600D03*
X170180000Y-102209600D03*
%TD*%
D10*
%TO.C,J2*%
X158080000Y-60738000D03*
X158080000Y-62738000D03*
X158080000Y-64738000D03*
X158080000Y-66738000D03*
D11*
X163830000Y-58388000D03*
X163830000Y-69088000D03*
%TD*%
D25*
%TO.C,C15*%
X145796000Y-112014000D03*
X145796000Y-109939000D03*
%TD*%
D22*
%TO.C,J6*%
X43205400Y-85471000D03*
X58205400Y-85471000D03*
D23*
X46205400Y-83511000D03*
D24*
X49205400Y-83511000D03*
X52205400Y-83511000D03*
X55205400Y-83511000D03*
%TD*%
D12*
%TO.C,R4*%
X68550000Y-101550000D03*
X66550000Y-101550000D03*
%TD*%
%TO.C,R2*%
X152698200Y-54711600D03*
X150698200Y-54711600D03*
%TD*%
D27*
%TO.C,C10*%
X162517000Y-98298000D03*
X164592000Y-98298000D03*
%TD*%
M02*
