%TF.GenerationSoftware,KiCad,Pcbnew,7.0.8*%
%TF.CreationDate,2023-11-20T11:06:52+02:00*%
%TF.ProjectId,LED Matrix Display,4c454420-4d61-4747-9269-782044697370,rev?*%
%TF.SameCoordinates,Original*%
%TF.FileFunction,Soldermask,Top*%
%TF.FilePolarity,Negative*%
%FSLAX46Y46*%
G04 Gerber Fmt 4.6, Leading zero omitted, Abs format (unit mm)*
G04 Created by KiCad (PCBNEW 7.0.8) date 2023-11-20 11:06:52*
%MOMM*%
%LPD*%
G01*
G04 APERTURE LIST*
G04 Aperture macros list*
%AMRoundRect*
0 Rectangle with rounded corners*
0 $1 Rounding radius*
0 $2 $3 $4 $5 $6 $7 $8 $9 X,Y pos of 4 corners*
0 Add a 4 corners polygon primitive as box body*
4,1,4,$2,$3,$4,$5,$6,$7,$8,$9,$2,$3,0*
0 Add four circle primitives for the rounded corners*
1,1,$1+$1,$2,$3*
1,1,$1+$1,$4,$5*
1,1,$1+$1,$6,$7*
1,1,$1+$1,$8,$9*
0 Add four rect primitives between the rounded corners*
20,1,$1+$1,$2,$3,$4,$5,0*
20,1,$1+$1,$4,$5,$6,$7,0*
20,1,$1+$1,$6,$7,$8,$9,0*
20,1,$1+$1,$8,$9,$2,$3,0*%
G04 Aperture macros list end*
%ADD10RoundRect,0.140000X0.170000X-0.140000X0.170000X0.140000X-0.170000X0.140000X-0.170000X-0.140000X0*%
%ADD11R,0.900000X1.500000*%
%ADD12R,0.350000X0.500000*%
%ADD13RoundRect,0.250000X-0.337500X-0.475000X0.337500X-0.475000X0.337500X0.475000X-0.337500X0.475000X0*%
%ADD14RoundRect,0.250000X-0.325000X-0.450000X0.325000X-0.450000X0.325000X0.450000X-0.325000X0.450000X0*%
%ADD15RoundRect,0.175000X0.275000X0.175000X-0.275000X0.175000X-0.275000X-0.175000X0.275000X-0.175000X0*%
%ADD16C,1.270000*%
%ADD17RoundRect,0.250001X-0.499999X-0.759999X0.499999X-0.759999X0.499999X0.759999X-0.499999X0.759999X0*%
%ADD18O,1.500000X2.020000*%
G04 APERTURE END LIST*
D10*
%TO.C,C177*%
X107199567Y-73924779D03*
X107199567Y-72964779D03*
%TD*%
D11*
%TO.C,D181*%
X56797194Y-81070716D03*
X60097194Y-81070716D03*
X60097194Y-76170716D03*
X56797194Y-76170716D03*
%TD*%
%TO.C,D361*%
X134797194Y-135470716D03*
X138097194Y-135470716D03*
X138097194Y-130570716D03*
X134797194Y-130570716D03*
%TD*%
D10*
%TO.C,C393*%
X107199567Y-142724779D03*
X107199567Y-141764779D03*
%TD*%
%TO.C,C49*%
X55199567Y-37924779D03*
X55199567Y-36964779D03*
%TD*%
%TO.C,C371*%
X120199567Y-135524779D03*
X120199567Y-134564779D03*
%TD*%
%TO.C,C245*%
X81199567Y-99524779D03*
X81199567Y-98564779D03*
%TD*%
%TO.C,C160*%
X152699567Y-66724779D03*
X152699567Y-65764779D03*
%TD*%
%TO.C,C350*%
X139699567Y-128324779D03*
X139699567Y-127364779D03*
%TD*%
D11*
%TO.C,D163*%
X95797194Y-73870716D03*
X99097194Y-73870716D03*
X99097194Y-68970716D03*
X95797194Y-68970716D03*
%TD*%
D10*
%TO.C,C23*%
X42199567Y-30724779D03*
X42199567Y-29764779D03*
%TD*%
%TO.C,C355*%
X16199567Y-135524779D03*
X16199567Y-134564779D03*
%TD*%
D11*
%TO.C,D35*%
X43797194Y-37870716D03*
X47097194Y-37870716D03*
X47097194Y-32970716D03*
X43797194Y-32970716D03*
%TD*%
D10*
%TO.C,C179*%
X120199567Y-73924779D03*
X120199567Y-72964779D03*
%TD*%
D11*
%TO.C,D187*%
X95797194Y-81070716D03*
X99097194Y-81070716D03*
X99097194Y-76170716D03*
X95797194Y-76170716D03*
%TD*%
%TO.C,D45*%
X108797194Y-37870716D03*
X112097194Y-37870716D03*
X112097194Y-32970716D03*
X108797194Y-32970716D03*
%TD*%
%TO.C,D103*%
X17797194Y-59470716D03*
X21097194Y-59470716D03*
X21097194Y-54570716D03*
X17797194Y-54570716D03*
%TD*%
D10*
%TO.C,C27*%
X68199567Y-30724779D03*
X68199567Y-29764779D03*
%TD*%
D11*
%TO.C,D251*%
X43797194Y-106670716D03*
X47097194Y-106670716D03*
X47097194Y-101770716D03*
X43797194Y-101770716D03*
%TD*%
D10*
%TO.C,C184*%
X152699567Y-73924779D03*
X152699567Y-72964779D03*
%TD*%
%TO.C,C346*%
X113699567Y-128324779D03*
X113699567Y-127364779D03*
%TD*%
D11*
%TO.C,D34*%
X37297194Y-37870716D03*
X40597194Y-37870716D03*
X40597194Y-32970716D03*
X37297194Y-32970716D03*
%TD*%
%TO.C,D33*%
X30797194Y-37870716D03*
X34097194Y-37870716D03*
X34097194Y-32970716D03*
X30797194Y-32970716D03*
%TD*%
%TO.C,D294*%
X167297194Y-113870716D03*
X170597194Y-113870716D03*
X170597194Y-108970716D03*
X167297194Y-108970716D03*
%TD*%
%TO.C,D283*%
X95797194Y-113870716D03*
X99097194Y-113870716D03*
X99097194Y-108970716D03*
X95797194Y-108970716D03*
%TD*%
D10*
%TO.C,C360*%
X48699567Y-135524779D03*
X48699567Y-134564779D03*
%TD*%
%TO.C,C90*%
X165699567Y-45124779D03*
X165699567Y-44164779D03*
%TD*%
D11*
%TO.C,D143*%
X121797194Y-66670716D03*
X125097194Y-66670716D03*
X125097194Y-61770716D03*
X121797194Y-61770716D03*
%TD*%
%TO.C,D237*%
X108797194Y-99470716D03*
X112097194Y-99470716D03*
X112097194Y-94570716D03*
X108797194Y-94570716D03*
%TD*%
D10*
%TO.C,C78*%
X87699567Y-45124779D03*
X87699567Y-44164779D03*
%TD*%
D11*
%TO.C,D350*%
X63297194Y-135470716D03*
X66597194Y-135470716D03*
X66597194Y-130570716D03*
X63297194Y-130570716D03*
%TD*%
%TO.C,D306*%
X89297194Y-121070716D03*
X92597194Y-121070716D03*
X92597194Y-116170716D03*
X89297194Y-116170716D03*
%TD*%
%TO.C,D134*%
X63297194Y-66670716D03*
X66597194Y-66670716D03*
X66597194Y-61770716D03*
X63297194Y-61770716D03*
%TD*%
%TO.C,D221*%
X160797194Y-92270716D03*
X164097194Y-92270716D03*
X164097194Y-87370716D03*
X160797194Y-87370716D03*
%TD*%
D10*
%TO.C,C165*%
X29199567Y-73924779D03*
X29199567Y-72964779D03*
%TD*%
D11*
%TO.C,D110*%
X63297194Y-59470716D03*
X66597194Y-59470716D03*
X66597194Y-54570716D03*
X63297194Y-54570716D03*
%TD*%
D10*
%TO.C,C199*%
X94199567Y-81124779D03*
X94199567Y-80164779D03*
%TD*%
D11*
%TO.C,D122*%
X141297194Y-59470716D03*
X144597194Y-59470716D03*
X144597194Y-54570716D03*
X141297194Y-54570716D03*
%TD*%
%TO.C,D57*%
X30797194Y-45070716D03*
X34097194Y-45070716D03*
X34097194Y-40170716D03*
X30797194Y-40170716D03*
%TD*%
%TO.C,D72*%
X128297194Y-45070716D03*
X131597194Y-45070716D03*
X131597194Y-40170716D03*
X128297194Y-40170716D03*
%TD*%
D10*
%TO.C,C344*%
X100699567Y-128324779D03*
X100699567Y-127364779D03*
%TD*%
D11*
%TO.C,D220*%
X154297194Y-92270716D03*
X157597194Y-92270716D03*
X157597194Y-87370716D03*
X154297194Y-87370716D03*
%TD*%
D10*
%TO.C,C88*%
X152699567Y-45124779D03*
X152699567Y-44164779D03*
%TD*%
%TO.C,C25*%
X55199567Y-30724779D03*
X55199567Y-29764779D03*
%TD*%
%TO.C,C108*%
X126699567Y-52324779D03*
X126699567Y-51364779D03*
%TD*%
D11*
%TO.C,D277*%
X56797194Y-113870716D03*
X60097194Y-113870716D03*
X60097194Y-108970716D03*
X56797194Y-108970716D03*
%TD*%
%TO.C,D27*%
X147797194Y-30670716D03*
X151097194Y-30670716D03*
X151097194Y-25770716D03*
X147797194Y-25770716D03*
%TD*%
%TO.C,D77*%
X160797194Y-45070716D03*
X164097194Y-45070716D03*
X164097194Y-40170716D03*
X160797194Y-40170716D03*
%TD*%
%TO.C,D44*%
X102297194Y-37870716D03*
X105597194Y-37870716D03*
X105597194Y-32970716D03*
X102297194Y-32970716D03*
%TD*%
D10*
%TO.C,C129*%
X107199567Y-59524779D03*
X107199567Y-58564779D03*
%TD*%
D11*
%TO.C,D245*%
X160797194Y-99470716D03*
X164097194Y-99470716D03*
X164097194Y-94570716D03*
X160797194Y-94570716D03*
%TD*%
%TO.C,D186*%
X89297194Y-81070716D03*
X92597194Y-81070716D03*
X92597194Y-76170716D03*
X89297194Y-76170716D03*
%TD*%
%TO.C,D224*%
X24297194Y-99470716D03*
X27597194Y-99470716D03*
X27597194Y-94570716D03*
X24297194Y-94570716D03*
%TD*%
D10*
%TO.C,C370*%
X113699567Y-135524779D03*
X113699567Y-134564779D03*
%TD*%
D11*
%TO.C,D29*%
X160797194Y-30670716D03*
X164097194Y-30670716D03*
X164097194Y-25770716D03*
X160797194Y-25770716D03*
%TD*%
D10*
%TO.C,C98*%
X61699567Y-52324779D03*
X61699567Y-51364779D03*
%TD*%
%TO.C,C390*%
X87699567Y-142724779D03*
X87699567Y-141764779D03*
%TD*%
%TO.C,C181*%
X133199567Y-73924779D03*
X133199567Y-72964779D03*
%TD*%
%TO.C,C155*%
X120199567Y-66724779D03*
X120199567Y-65764779D03*
%TD*%
D11*
%TO.C,D293*%
X160797194Y-113870716D03*
X164097194Y-113870716D03*
X164097194Y-108970716D03*
X160797194Y-108970716D03*
%TD*%
D10*
%TO.C,C348*%
X126699567Y-128324779D03*
X126699567Y-127364779D03*
%TD*%
%TO.C,C297*%
X107199567Y-113924779D03*
X107199567Y-112964779D03*
%TD*%
%TO.C,C68*%
X22699567Y-45124779D03*
X22699567Y-44164779D03*
%TD*%
D11*
%TO.C,D225*%
X30797194Y-99470716D03*
X34097194Y-99470716D03*
X34097194Y-94570716D03*
X30797194Y-94570716D03*
%TD*%
D10*
%TO.C,C120*%
X48699567Y-59524779D03*
X48699567Y-58564779D03*
%TD*%
%TO.C,C22*%
X35699567Y-30724779D03*
X35699567Y-29764779D03*
%TD*%
D11*
%TO.C,D212*%
X102297194Y-92270716D03*
X105597194Y-92270716D03*
X105597194Y-87370716D03*
X102297194Y-87370716D03*
%TD*%
D10*
%TO.C,C225*%
X107199567Y-92324779D03*
X107199567Y-91364779D03*
%TD*%
D11*
%TO.C,D298*%
X37297194Y-121070716D03*
X40597194Y-121070716D03*
X40597194Y-116170716D03*
X37297194Y-116170716D03*
%TD*%
D10*
%TO.C,C38*%
X139699567Y-30724779D03*
X139699567Y-29764779D03*
%TD*%
D11*
%TO.C,D107*%
X43797194Y-59470716D03*
X47097194Y-59470716D03*
X47097194Y-54570716D03*
X43797194Y-54570716D03*
%TD*%
D10*
%TO.C,C175*%
X94199567Y-73924779D03*
X94199567Y-72964779D03*
%TD*%
%TO.C,C224*%
X100699567Y-92324779D03*
X100699567Y-91364779D03*
%TD*%
%TO.C,C228*%
X126699567Y-92324779D03*
X126699567Y-91364779D03*
%TD*%
%TO.C,C213*%
X29199567Y-92324779D03*
X29199567Y-91364779D03*
%TD*%
D11*
%TO.C,D70*%
X115297194Y-45070716D03*
X118597194Y-45070716D03*
X118597194Y-40170716D03*
X115297194Y-40170716D03*
%TD*%
D10*
%TO.C,C336*%
X48699567Y-128324779D03*
X48699567Y-127364779D03*
%TD*%
%TO.C,C330*%
X165699567Y-121124779D03*
X165699567Y-120164779D03*
%TD*%
%TO.C,C232*%
X152699567Y-92324779D03*
X152699567Y-91364779D03*
%TD*%
%TO.C,C402*%
X165699567Y-142724779D03*
X165699567Y-141764779D03*
%TD*%
D11*
%TO.C,D204*%
X50297194Y-92270716D03*
X53597194Y-92270716D03*
X53597194Y-87370716D03*
X50297194Y-87370716D03*
%TD*%
D10*
%TO.C,C345*%
X107199567Y-128324779D03*
X107199567Y-127364779D03*
%TD*%
%TO.C,C180*%
X126699567Y-73924779D03*
X126699567Y-72964779D03*
%TD*%
D11*
%TO.C,D390*%
X167297194Y-142670716D03*
X170597194Y-142670716D03*
X170597194Y-137770716D03*
X167297194Y-137770716D03*
%TD*%
D10*
%TO.C,C279*%
X146199567Y-106724779D03*
X146199567Y-105764779D03*
%TD*%
D11*
%TO.C,D139*%
X95797194Y-66670716D03*
X99097194Y-66670716D03*
X99097194Y-61770716D03*
X95797194Y-61770716D03*
%TD*%
%TO.C,D356*%
X102297194Y-135470716D03*
X105597194Y-135470716D03*
X105597194Y-130570716D03*
X102297194Y-130570716D03*
%TD*%
%TO.C,D322*%
X37297194Y-128270716D03*
X40597194Y-128270716D03*
X40597194Y-123370716D03*
X37297194Y-123370716D03*
%TD*%
%TO.C,D266*%
X141297194Y-106670716D03*
X144597194Y-106670716D03*
X144597194Y-101770716D03*
X141297194Y-101770716D03*
%TD*%
D10*
%TO.C,C62*%
X139699567Y-37924779D03*
X139699567Y-36964779D03*
%TD*%
D11*
%TO.C,D108*%
X50297194Y-59470716D03*
X53597194Y-59470716D03*
X53597194Y-54570716D03*
X50297194Y-54570716D03*
%TD*%
D10*
%TO.C,C367*%
X94199567Y-135524779D03*
X94199567Y-134564779D03*
%TD*%
D11*
%TO.C,D88*%
X76297194Y-52270716D03*
X79597194Y-52270716D03*
X79597194Y-47370716D03*
X76297194Y-47370716D03*
%TD*%
%TO.C,D354*%
X89297194Y-135470716D03*
X92597194Y-135470716D03*
X92597194Y-130570716D03*
X89297194Y-130570716D03*
%TD*%
%TO.C,D302*%
X63297194Y-121070716D03*
X66597194Y-121070716D03*
X66597194Y-116170716D03*
X63297194Y-116170716D03*
%TD*%
%TO.C,D359*%
X121797194Y-135470716D03*
X125097194Y-135470716D03*
X125097194Y-130570716D03*
X121797194Y-130570716D03*
%TD*%
%TO.C,D388*%
X154297194Y-142670716D03*
X157597194Y-142670716D03*
X157597194Y-137770716D03*
X154297194Y-137770716D03*
%TD*%
%TO.C,D7*%
X17797194Y-30670716D03*
X21097194Y-30670716D03*
X21097194Y-25770716D03*
X17797194Y-25770716D03*
%TD*%
%TO.C,D190*%
X115297194Y-81070716D03*
X118597194Y-81070716D03*
X118597194Y-76170716D03*
X115297194Y-76170716D03*
%TD*%
D10*
%TO.C,C117*%
X29199567Y-59524779D03*
X29199567Y-58564779D03*
%TD*%
D11*
%TO.C,D217*%
X134797194Y-92270716D03*
X138097194Y-92270716D03*
X138097194Y-87370716D03*
X134797194Y-87370716D03*
%TD*%
%TO.C,D116*%
X102297194Y-59470716D03*
X105597194Y-59470716D03*
X105597194Y-54570716D03*
X102297194Y-54570716D03*
%TD*%
%TO.C,D334*%
X115297194Y-128270716D03*
X118597194Y-128270716D03*
X118597194Y-123370716D03*
X115297194Y-123370716D03*
%TD*%
D10*
%TO.C,C294*%
X87699567Y-113924779D03*
X87699567Y-112964779D03*
%TD*%
D11*
%TO.C,D142*%
X115297194Y-66670716D03*
X118597194Y-66670716D03*
X118597194Y-61770716D03*
X115297194Y-61770716D03*
%TD*%
%TO.C,D234*%
X89297194Y-99470716D03*
X92597194Y-99470716D03*
X92597194Y-94570716D03*
X89297194Y-94570716D03*
%TD*%
%TO.C,D41*%
X82797194Y-37870716D03*
X86097194Y-37870716D03*
X86097194Y-32970716D03*
X82797194Y-32970716D03*
%TD*%
%TO.C,D230*%
X63297194Y-99470716D03*
X66597194Y-99470716D03*
X66597194Y-94570716D03*
X63297194Y-94570716D03*
%TD*%
%TO.C,D282*%
X89297194Y-113870716D03*
X92597194Y-113870716D03*
X92597194Y-108970716D03*
X89297194Y-108970716D03*
%TD*%
D10*
%TO.C,C326*%
X139699567Y-121124779D03*
X139699567Y-120164779D03*
%TD*%
D11*
%TO.C,D335*%
X121797194Y-128270716D03*
X125097194Y-128270716D03*
X125097194Y-123370716D03*
X121797194Y-123370716D03*
%TD*%
%TO.C,D312*%
X128297194Y-121070716D03*
X131597194Y-121070716D03*
X131597194Y-116170716D03*
X128297194Y-116170716D03*
%TD*%
D10*
%TO.C,C238*%
X35699567Y-99524779D03*
X35699567Y-98564779D03*
%TD*%
%TO.C,C382*%
X35699567Y-142724779D03*
X35699567Y-141764779D03*
%TD*%
D11*
%TO.C,D362*%
X141297194Y-135470716D03*
X144597194Y-135470716D03*
X144597194Y-130570716D03*
X141297194Y-130570716D03*
%TD*%
%TO.C,D146*%
X141297194Y-66670716D03*
X144597194Y-66670716D03*
X144597194Y-61770716D03*
X141297194Y-61770716D03*
%TD*%
D10*
%TO.C,C200*%
X100699567Y-81124779D03*
X100699567Y-80164779D03*
%TD*%
%TO.C,C72*%
X48699567Y-45124779D03*
X48699567Y-44164779D03*
%TD*%
%TO.C,C104*%
X100699567Y-52324779D03*
X100699567Y-51364779D03*
%TD*%
%TO.C,C79*%
X94199567Y-45124779D03*
X94199567Y-44164779D03*
%TD*%
%TO.C,C61*%
X133199567Y-37924779D03*
X133199567Y-36964779D03*
%TD*%
D11*
%TO.C,D165*%
X108797194Y-73870716D03*
X112097194Y-73870716D03*
X112097194Y-68970716D03*
X108797194Y-68970716D03*
%TD*%
%TO.C,D23*%
X121797194Y-30670716D03*
X125097194Y-30670716D03*
X125097194Y-25770716D03*
X121797194Y-25770716D03*
%TD*%
D10*
%TO.C,C168*%
X48699567Y-73924779D03*
X48699567Y-72964779D03*
%TD*%
%TO.C,C264*%
X48699567Y-106724779D03*
X48699567Y-105764779D03*
%TD*%
D11*
%TO.C,D111*%
X69797194Y-59470716D03*
X73097194Y-59470716D03*
X73097194Y-54570716D03*
X69797194Y-54570716D03*
%TD*%
D10*
%TO.C,C394*%
X113699567Y-142724779D03*
X113699567Y-141764779D03*
%TD*%
D11*
%TO.C,D313*%
X134797194Y-121070716D03*
X138097194Y-121070716D03*
X138097194Y-116170716D03*
X134797194Y-116170716D03*
%TD*%
D10*
%TO.C,C171*%
X68199567Y-73924779D03*
X68199567Y-72964779D03*
%TD*%
%TO.C,C73*%
X55199567Y-45124779D03*
X55199567Y-44164779D03*
%TD*%
D11*
%TO.C,D149*%
X160797194Y-66670716D03*
X164097194Y-66670716D03*
X164097194Y-61770716D03*
X160797194Y-61770716D03*
%TD*%
D10*
%TO.C,C112*%
X152699567Y-52324779D03*
X152699567Y-51364779D03*
%TD*%
%TO.C,C176*%
X100699567Y-73924779D03*
X100699567Y-72964779D03*
%TD*%
%TO.C,C153*%
X107199567Y-66724779D03*
X107199567Y-65764779D03*
%TD*%
%TO.C,C33*%
X107199567Y-30724779D03*
X107199567Y-29764779D03*
%TD*%
%TO.C,C74*%
X61699567Y-45124779D03*
X61699567Y-44164779D03*
%TD*%
%TO.C,C255*%
X146199567Y-99524779D03*
X146199567Y-98564779D03*
%TD*%
%TO.C,C29*%
X81199567Y-30724779D03*
X81199567Y-29764779D03*
%TD*%
%TO.C,C54*%
X87699567Y-37924779D03*
X87699567Y-36964779D03*
%TD*%
D11*
%TO.C,D171*%
X147797194Y-73870716D03*
X151097194Y-73870716D03*
X151097194Y-68970716D03*
X147797194Y-68970716D03*
%TD*%
%TO.C,D299*%
X43797194Y-121070716D03*
X47097194Y-121070716D03*
X47097194Y-116170716D03*
X43797194Y-116170716D03*
%TD*%
%TO.C,D18*%
X89297194Y-30670716D03*
X92597194Y-30670716D03*
X92597194Y-25770716D03*
X89297194Y-25770716D03*
%TD*%
D10*
%TO.C,C220*%
X74699567Y-92324779D03*
X74699567Y-91364779D03*
%TD*%
%TO.C,C170*%
X61699567Y-73924779D03*
X61699567Y-72964779D03*
%TD*%
%TO.C,C399*%
X146199567Y-142724779D03*
X146199567Y-141764779D03*
%TD*%
%TO.C,C298*%
X113699567Y-113924779D03*
X113699567Y-112964779D03*
%TD*%
D12*
%TO.C,U2*%
X159832400Y-83252200D03*
X160482400Y-83252200D03*
X161132400Y-83252200D03*
X161782400Y-83252200D03*
X161782400Y-85302200D03*
X161132400Y-85302200D03*
X160482400Y-85302200D03*
X159832400Y-85302200D03*
%TD*%
D10*
%TO.C,C247*%
X94199567Y-99524779D03*
X94199567Y-98564779D03*
%TD*%
%TO.C,C45*%
X29199567Y-37924779D03*
X29199567Y-36964779D03*
%TD*%
%TO.C,C204*%
X126699567Y-81124779D03*
X126699567Y-80164779D03*
%TD*%
%TO.C,C317*%
X81199567Y-121124779D03*
X81199567Y-120164779D03*
%TD*%
D11*
%TO.C,D232*%
X76297194Y-99470716D03*
X79597194Y-99470716D03*
X79597194Y-94570716D03*
X76297194Y-94570716D03*
%TD*%
D10*
%TO.C,C131*%
X120199567Y-59524779D03*
X120199567Y-58564779D03*
%TD*%
%TO.C,C237*%
X29199567Y-99524779D03*
X29199567Y-98564779D03*
%TD*%
D11*
%TO.C,D74*%
X141297194Y-45070716D03*
X144597194Y-45070716D03*
X144597194Y-40170716D03*
X141297194Y-40170716D03*
%TD*%
%TO.C,D314*%
X141297194Y-121070716D03*
X144597194Y-121070716D03*
X144597194Y-116170716D03*
X141297194Y-116170716D03*
%TD*%
D10*
%TO.C,C328*%
X152699567Y-121124779D03*
X152699567Y-120164779D03*
%TD*%
D11*
%TO.C,D300*%
X50297194Y-121070716D03*
X53597194Y-121070716D03*
X53597194Y-116170716D03*
X50297194Y-116170716D03*
%TD*%
%TO.C,D49*%
X134797194Y-37870716D03*
X138097194Y-37870716D03*
X138097194Y-32970716D03*
X134797194Y-32970716D03*
%TD*%
%TO.C,D55*%
X17797194Y-45070716D03*
X21097194Y-45070716D03*
X21097194Y-40170716D03*
X17797194Y-40170716D03*
%TD*%
D10*
%TO.C,C221*%
X81199567Y-92324779D03*
X81199567Y-91364779D03*
%TD*%
D11*
%TO.C,D104*%
X24297194Y-59470716D03*
X27597194Y-59470716D03*
X27597194Y-54570716D03*
X24297194Y-54570716D03*
%TD*%
%TO.C,D13*%
X56797194Y-30670716D03*
X60097194Y-30670716D03*
X60097194Y-25770716D03*
X56797194Y-25770716D03*
%TD*%
%TO.C,D96*%
X128297194Y-52270716D03*
X131597194Y-52270716D03*
X131597194Y-47370716D03*
X128297194Y-47370716D03*
%TD*%
D10*
%TO.C,C154*%
X113699567Y-66724779D03*
X113699567Y-65764779D03*
%TD*%
%TO.C,C212*%
X22699567Y-92324779D03*
X22699567Y-91364779D03*
%TD*%
%TO.C,C236*%
X22699567Y-99524779D03*
X22699567Y-98564779D03*
%TD*%
%TO.C,C157*%
X133199567Y-66724779D03*
X133199567Y-65764779D03*
%TD*%
%TO.C,C65*%
X159199567Y-37924779D03*
X159199567Y-36964779D03*
%TD*%
%TO.C,C340*%
X74699567Y-128324779D03*
X74699567Y-127364779D03*
%TD*%
%TO.C,C118*%
X35699567Y-59524779D03*
X35699567Y-58564779D03*
%TD*%
%TO.C,C323*%
X120199567Y-121124779D03*
X120199567Y-120164779D03*
%TD*%
D11*
%TO.C,D161*%
X82797194Y-73870716D03*
X86097194Y-73870716D03*
X86097194Y-68970716D03*
X82797194Y-68970716D03*
%TD*%
D10*
%TO.C,C280*%
X152699567Y-106724779D03*
X152699567Y-105764779D03*
%TD*%
D11*
%TO.C,D285*%
X108797194Y-113870716D03*
X112097194Y-113870716D03*
X112097194Y-108970716D03*
X108797194Y-108970716D03*
%TD*%
%TO.C,D83*%
X43797194Y-52270716D03*
X47097194Y-52270716D03*
X47097194Y-47370716D03*
X43797194Y-47370716D03*
%TD*%
%TO.C,D124*%
X154297194Y-59470716D03*
X157597194Y-59470716D03*
X157597194Y-54570716D03*
X154297194Y-54570716D03*
%TD*%
%TO.C,D192*%
X128297194Y-81070716D03*
X131597194Y-81070716D03*
X131597194Y-76170716D03*
X128297194Y-76170716D03*
%TD*%
%TO.C,D170*%
X141297194Y-73870716D03*
X144597194Y-73870716D03*
X144597194Y-68970716D03*
X141297194Y-68970716D03*
%TD*%
D10*
%TO.C,C229*%
X133199567Y-92324779D03*
X133199567Y-91364779D03*
%TD*%
D11*
%TO.C,D272*%
X24297194Y-113870716D03*
X27597194Y-113870716D03*
X27597194Y-108970716D03*
X24297194Y-108970716D03*
%TD*%
%TO.C,D158*%
X63297194Y-73870716D03*
X66597194Y-73870716D03*
X66597194Y-68970716D03*
X63297194Y-68970716D03*
%TD*%
D10*
%TO.C,C301*%
X133199567Y-113924779D03*
X133199567Y-112964779D03*
%TD*%
D11*
%TO.C,D263*%
X121797194Y-106670716D03*
X125097194Y-106670716D03*
X125097194Y-101770716D03*
X121797194Y-101770716D03*
%TD*%
D10*
%TO.C,C113*%
X159199567Y-52324779D03*
X159199567Y-51364779D03*
%TD*%
D11*
%TO.C,D135*%
X69797194Y-66670716D03*
X73097194Y-66670716D03*
X73097194Y-61770716D03*
X69797194Y-61770716D03*
%TD*%
D10*
%TO.C,C94*%
X35699567Y-52324779D03*
X35699567Y-51364779D03*
%TD*%
D11*
%TO.C,D256*%
X76297194Y-106670716D03*
X79597194Y-106670716D03*
X79597194Y-101770716D03*
X76297194Y-101770716D03*
%TD*%
%TO.C,D259*%
X95797194Y-106670716D03*
X99097194Y-106670716D03*
X99097194Y-101770716D03*
X95797194Y-101770716D03*
%TD*%
D10*
%TO.C,C314*%
X61699567Y-121124779D03*
X61699567Y-120164779D03*
%TD*%
D11*
%TO.C,D137*%
X82797194Y-66670716D03*
X86097194Y-66670716D03*
X86097194Y-61770716D03*
X82797194Y-61770716D03*
%TD*%
%TO.C,D128*%
X24297194Y-66670716D03*
X27597194Y-66670716D03*
X27597194Y-61770716D03*
X24297194Y-61770716D03*
%TD*%
D10*
%TO.C,C339*%
X68199567Y-128324779D03*
X68199567Y-127364779D03*
%TD*%
%TO.C,C305*%
X159199567Y-113924779D03*
X159199567Y-112964779D03*
%TD*%
%TO.C,C274*%
X113699567Y-106724779D03*
X113699567Y-105764779D03*
%TD*%
D11*
%TO.C,D338*%
X141297194Y-128270716D03*
X144597194Y-128270716D03*
X144597194Y-123370716D03*
X141297194Y-123370716D03*
%TD*%
%TO.C,D177*%
X30797194Y-81070716D03*
X34097194Y-81070716D03*
X34097194Y-76170716D03*
X30797194Y-76170716D03*
%TD*%
D10*
%TO.C,C278*%
X139699567Y-106724779D03*
X139699567Y-105764779D03*
%TD*%
D11*
%TO.C,D289*%
X134797194Y-113870716D03*
X138097194Y-113870716D03*
X138097194Y-108970716D03*
X134797194Y-108970716D03*
%TD*%
%TO.C,D367*%
X17797194Y-142670716D03*
X21097194Y-142670716D03*
X21097194Y-137770716D03*
X17797194Y-137770716D03*
%TD*%
%TO.C,D89*%
X82797194Y-52270716D03*
X86097194Y-52270716D03*
X86097194Y-47370716D03*
X82797194Y-47370716D03*
%TD*%
%TO.C,D22*%
X115297194Y-30670716D03*
X118597194Y-30670716D03*
X118597194Y-25770716D03*
X115297194Y-25770716D03*
%TD*%
D10*
%TO.C,C169*%
X55199567Y-73924779D03*
X55199567Y-72964779D03*
%TD*%
D11*
%TO.C,D42*%
X89297194Y-37870716D03*
X92597194Y-37870716D03*
X92597194Y-32970716D03*
X89297194Y-32970716D03*
%TD*%
D10*
%TO.C,C222*%
X87699567Y-92324779D03*
X87699567Y-91364779D03*
%TD*%
%TO.C,C116*%
X22699567Y-59524779D03*
X22699567Y-58564779D03*
%TD*%
%TO.C,C226*%
X113699567Y-92324779D03*
X113699567Y-91364779D03*
%TD*%
D11*
%TO.C,D144*%
X128297194Y-66670716D03*
X131597194Y-66670716D03*
X131597194Y-61770716D03*
X128297194Y-61770716D03*
%TD*%
D10*
%TO.C,C316*%
X74699567Y-121124779D03*
X74699567Y-120164779D03*
%TD*%
D11*
%TO.C,D363*%
X147797194Y-135470716D03*
X151097194Y-135470716D03*
X151097194Y-130570716D03*
X147797194Y-130570716D03*
%TD*%
D10*
%TO.C,C299*%
X120199567Y-113924779D03*
X120199567Y-112964779D03*
%TD*%
D11*
%TO.C,D113*%
X82797194Y-59470716D03*
X86097194Y-59470716D03*
X86097194Y-54570716D03*
X82797194Y-54570716D03*
%TD*%
%TO.C,D195*%
X147797194Y-81070716D03*
X151097194Y-81070716D03*
X151097194Y-76170716D03*
X147797194Y-76170716D03*
%TD*%
D10*
%TO.C,C42*%
X165699567Y-30724779D03*
X165699567Y-29764779D03*
%TD*%
%TO.C,C146*%
X61699567Y-66724779D03*
X61699567Y-65764779D03*
%TD*%
D11*
%TO.C,D92*%
X102297194Y-52270716D03*
X105597194Y-52270716D03*
X105597194Y-47370716D03*
X102297194Y-47370716D03*
%TD*%
D10*
%TO.C,C198*%
X87699567Y-81124779D03*
X87699567Y-80164779D03*
%TD*%
D11*
%TO.C,D9*%
X30797194Y-30670716D03*
X34097194Y-30670716D03*
X34097194Y-25770716D03*
X30797194Y-25770716D03*
%TD*%
D10*
%TO.C,C36*%
X126699567Y-30724779D03*
X126699567Y-29764779D03*
%TD*%
D11*
%TO.C,D167*%
X121797194Y-73870716D03*
X125097194Y-73870716D03*
X125097194Y-68970716D03*
X121797194Y-68970716D03*
%TD*%
D10*
%TO.C,C191*%
X42199567Y-81124779D03*
X42199567Y-80164779D03*
%TD*%
%TO.C,C20*%
X22699567Y-30724779D03*
X22699567Y-29764779D03*
%TD*%
%TO.C,C121*%
X55199567Y-59524779D03*
X55199567Y-58564779D03*
%TD*%
%TO.C,C203*%
X120199567Y-81124779D03*
X120199567Y-80164779D03*
%TD*%
D11*
%TO.C,D50*%
X141297194Y-37870716D03*
X144597194Y-37870716D03*
X144597194Y-32970716D03*
X141297194Y-32970716D03*
%TD*%
%TO.C,D295*%
X17797194Y-121070716D03*
X21097194Y-121070716D03*
X21097194Y-116170716D03*
X17797194Y-116170716D03*
%TD*%
%TO.C,D287*%
X121797194Y-113870716D03*
X125097194Y-113870716D03*
X125097194Y-108970716D03*
X121797194Y-108970716D03*
%TD*%
%TO.C,D109*%
X56797194Y-59470716D03*
X60097194Y-59470716D03*
X60097194Y-54570716D03*
X56797194Y-54570716D03*
%TD*%
D10*
%TO.C,C127*%
X94199567Y-59524779D03*
X94199567Y-58564779D03*
%TD*%
%TO.C,C248*%
X100699567Y-99524779D03*
X100699567Y-98564779D03*
%TD*%
%TO.C,C136*%
X152699567Y-59524779D03*
X152699567Y-58564779D03*
%TD*%
D11*
%TO.C,D84*%
X50297194Y-52270716D03*
X53597194Y-52270716D03*
X53597194Y-47370716D03*
X50297194Y-47370716D03*
%TD*%
D10*
%TO.C,C147*%
X68199567Y-66724779D03*
X68199567Y-65764779D03*
%TD*%
D11*
%TO.C,D162*%
X89297194Y-73870716D03*
X92597194Y-73870716D03*
X92597194Y-68970716D03*
X89297194Y-68970716D03*
%TD*%
D10*
%TO.C,C244*%
X74699567Y-99524779D03*
X74699567Y-98564779D03*
%TD*%
%TO.C,C338*%
X61699567Y-128324779D03*
X61699567Y-127364779D03*
%TD*%
%TO.C,C309*%
X29199567Y-121124779D03*
X29199567Y-120164779D03*
%TD*%
%TO.C,C196*%
X74699567Y-81124779D03*
X74699567Y-80164779D03*
%TD*%
D11*
%TO.C,D168*%
X128297194Y-73870716D03*
X131597194Y-73870716D03*
X131597194Y-68970716D03*
X128297194Y-68970716D03*
%TD*%
D10*
%TO.C,C356*%
X22699567Y-135524779D03*
X22699567Y-134564779D03*
%TD*%
%TO.C,C379*%
X16199567Y-142724779D03*
X16199567Y-141764779D03*
%TD*%
%TO.C,C143*%
X42199567Y-66724779D03*
X42199567Y-65764779D03*
%TD*%
D11*
%TO.C,D275*%
X43797194Y-113870716D03*
X47097194Y-113870716D03*
X47097194Y-108970716D03*
X43797194Y-108970716D03*
%TD*%
%TO.C,D327*%
X69797194Y-128270716D03*
X73097194Y-128270716D03*
X73097194Y-123370716D03*
X69797194Y-123370716D03*
%TD*%
D10*
%TO.C,C156*%
X126699567Y-66724779D03*
X126699567Y-65764779D03*
%TD*%
D11*
%TO.C,D269*%
X160797194Y-106670716D03*
X164097194Y-106670716D03*
X164097194Y-101770716D03*
X160797194Y-101770716D03*
%TD*%
D10*
%TO.C,C223*%
X94199567Y-92324779D03*
X94199567Y-91364779D03*
%TD*%
D11*
%TO.C,D174*%
X167297194Y-73870716D03*
X170597194Y-73870716D03*
X170597194Y-68970716D03*
X167297194Y-68970716D03*
%TD*%
D10*
%TO.C,C59*%
X120199567Y-37924779D03*
X120199567Y-36964779D03*
%TD*%
%TO.C,C84*%
X126699567Y-45124779D03*
X126699567Y-44164779D03*
%TD*%
D11*
%TO.C,D46*%
X115297194Y-37870716D03*
X118597194Y-37870716D03*
X118597194Y-32970716D03*
X115297194Y-32970716D03*
%TD*%
D10*
%TO.C,C214*%
X35699567Y-92324779D03*
X35699567Y-91364779D03*
%TD*%
D11*
%TO.C,D345*%
X30797194Y-135470716D03*
X34097194Y-135470716D03*
X34097194Y-130570716D03*
X30797194Y-130570716D03*
%TD*%
%TO.C,D87*%
X69797194Y-52270716D03*
X73097194Y-52270716D03*
X73097194Y-47370716D03*
X69797194Y-47370716D03*
%TD*%
D10*
%TO.C,C300*%
X126699567Y-113924779D03*
X126699567Y-112964779D03*
%TD*%
%TO.C,C92*%
X22699567Y-52324779D03*
X22699567Y-51364779D03*
%TD*%
%TO.C,C159*%
X146199567Y-66724779D03*
X146199567Y-65764779D03*
%TD*%
%TO.C,C252*%
X126699567Y-99524779D03*
X126699567Y-98564779D03*
%TD*%
%TO.C,C383*%
X42199567Y-142724779D03*
X42199567Y-141764779D03*
%TD*%
D11*
%TO.C,D65*%
X82797194Y-45070716D03*
X86097194Y-45070716D03*
X86097194Y-40170716D03*
X82797194Y-40170716D03*
%TD*%
D10*
%TO.C,C40*%
X152699567Y-30724779D03*
X152699567Y-29764779D03*
%TD*%
D11*
%TO.C,D273*%
X30797194Y-113870716D03*
X34097194Y-113870716D03*
X34097194Y-108970716D03*
X30797194Y-108970716D03*
%TD*%
D10*
%TO.C,C313*%
X55199567Y-121124779D03*
X55199567Y-120164779D03*
%TD*%
%TO.C,C101*%
X81199567Y-52324779D03*
X81199567Y-51364779D03*
%TD*%
D11*
%TO.C,D385*%
X134797194Y-142670716D03*
X138097194Y-142670716D03*
X138097194Y-137770716D03*
X134797194Y-137770716D03*
%TD*%
%TO.C,D179*%
X43797194Y-81070716D03*
X47097194Y-81070716D03*
X47097194Y-76170716D03*
X43797194Y-76170716D03*
%TD*%
D10*
%TO.C,C254*%
X139699567Y-99524779D03*
X139699567Y-98564779D03*
%TD*%
D11*
%TO.C,D155*%
X43797194Y-73870716D03*
X47097194Y-73870716D03*
X47097194Y-68970716D03*
X43797194Y-68970716D03*
%TD*%
%TO.C,D105*%
X30797194Y-59470716D03*
X34097194Y-59470716D03*
X34097194Y-54570716D03*
X30797194Y-54570716D03*
%TD*%
%TO.C,D326*%
X63297194Y-128270716D03*
X66597194Y-128270716D03*
X66597194Y-123370716D03*
X63297194Y-123370716D03*
%TD*%
D10*
%TO.C,C235*%
X16199567Y-99524779D03*
X16199567Y-98564779D03*
%TD*%
D11*
%TO.C,D377*%
X82797194Y-142670716D03*
X86097194Y-142670716D03*
X86097194Y-137770716D03*
X82797194Y-137770716D03*
%TD*%
%TO.C,D246*%
X167297194Y-99470716D03*
X170597194Y-99470716D03*
X170597194Y-94570716D03*
X167297194Y-94570716D03*
%TD*%
%TO.C,D206*%
X63297194Y-92270716D03*
X66597194Y-92270716D03*
X66597194Y-87370716D03*
X63297194Y-87370716D03*
%TD*%
%TO.C,D63*%
X69797194Y-45070716D03*
X73097194Y-45070716D03*
X73097194Y-40170716D03*
X69797194Y-40170716D03*
%TD*%
%TO.C,D94*%
X115297194Y-52270716D03*
X118597194Y-52270716D03*
X118597194Y-47370716D03*
X115297194Y-47370716D03*
%TD*%
D10*
%TO.C,C158*%
X139699567Y-66724779D03*
X139699567Y-65764779D03*
%TD*%
D11*
%TO.C,D380*%
X102297194Y-142670716D03*
X105597194Y-142670716D03*
X105597194Y-137770716D03*
X102297194Y-137770716D03*
%TD*%
D10*
%TO.C,C398*%
X139699567Y-142724779D03*
X139699567Y-141764779D03*
%TD*%
D11*
%TO.C,D79*%
X17797194Y-52270716D03*
X21097194Y-52270716D03*
X21097194Y-47370716D03*
X17797194Y-47370716D03*
%TD*%
D10*
%TO.C,C354*%
X165699567Y-128324779D03*
X165699567Y-127364779D03*
%TD*%
D11*
%TO.C,D196*%
X154297194Y-81070716D03*
X157597194Y-81070716D03*
X157597194Y-76170716D03*
X154297194Y-76170716D03*
%TD*%
%TO.C,D320*%
X24297194Y-128270716D03*
X27597194Y-128270716D03*
X27597194Y-123370716D03*
X24297194Y-123370716D03*
%TD*%
D10*
%TO.C,C302*%
X139699567Y-113924779D03*
X139699567Y-112964779D03*
%TD*%
%TO.C,C209*%
X159199567Y-81124779D03*
X159199567Y-80164779D03*
%TD*%
D11*
%TO.C,D347*%
X43797194Y-135470716D03*
X47097194Y-135470716D03*
X47097194Y-130570716D03*
X43797194Y-130570716D03*
%TD*%
%TO.C,D138*%
X89297194Y-66670716D03*
X92597194Y-66670716D03*
X92597194Y-61770716D03*
X89297194Y-61770716D03*
%TD*%
%TO.C,D175*%
X17797194Y-81070716D03*
X21097194Y-81070716D03*
X21097194Y-76170716D03*
X17797194Y-76170716D03*
%TD*%
%TO.C,D223*%
X17797194Y-99470716D03*
X21097194Y-99470716D03*
X21097194Y-94570716D03*
X17797194Y-94570716D03*
%TD*%
%TO.C,D86*%
X63297194Y-52270716D03*
X66597194Y-52270716D03*
X66597194Y-47370716D03*
X63297194Y-47370716D03*
%TD*%
%TO.C,D119*%
X121797194Y-59470716D03*
X125097194Y-59470716D03*
X125097194Y-54570716D03*
X121797194Y-54570716D03*
%TD*%
D10*
%TO.C,C82*%
X113699567Y-45124779D03*
X113699567Y-44164779D03*
%TD*%
%TO.C,C58*%
X113699567Y-37924779D03*
X113699567Y-36964779D03*
%TD*%
%TO.C,C253*%
X133199567Y-99524779D03*
X133199567Y-98564779D03*
%TD*%
%TO.C,C201*%
X107199567Y-81124779D03*
X107199567Y-80164779D03*
%TD*%
D11*
%TO.C,D331*%
X95797194Y-128270716D03*
X99097194Y-128270716D03*
X99097194Y-123370716D03*
X95797194Y-123370716D03*
%TD*%
%TO.C,D120*%
X128297194Y-59470716D03*
X131597194Y-59470716D03*
X131597194Y-54570716D03*
X128297194Y-54570716D03*
%TD*%
D10*
%TO.C,C145*%
X55199567Y-66724779D03*
X55199567Y-65764779D03*
%TD*%
%TO.C,C95*%
X42199567Y-52324779D03*
X42199567Y-51364779D03*
%TD*%
D11*
%TO.C,D173*%
X160797194Y-73870716D03*
X164097194Y-73870716D03*
X164097194Y-68970716D03*
X160797194Y-68970716D03*
%TD*%
%TO.C,D344*%
X24297194Y-135470716D03*
X27597194Y-135470716D03*
X27597194Y-130570716D03*
X24297194Y-130570716D03*
%TD*%
D10*
%TO.C,C93*%
X29199567Y-52324779D03*
X29199567Y-51364779D03*
%TD*%
D11*
%TO.C,D214*%
X115297194Y-92270716D03*
X118597194Y-92270716D03*
X118597194Y-87370716D03*
X115297194Y-87370716D03*
%TD*%
%TO.C,D47*%
X121797194Y-37870716D03*
X125097194Y-37870716D03*
X125097194Y-32970716D03*
X121797194Y-32970716D03*
%TD*%
D10*
%TO.C,C320*%
X100699567Y-121124779D03*
X100699567Y-120164779D03*
%TD*%
D11*
%TO.C,D12*%
X50297194Y-30670716D03*
X53597194Y-30670716D03*
X53597194Y-25770716D03*
X50297194Y-25770716D03*
%TD*%
%TO.C,D67*%
X95797194Y-45070716D03*
X99097194Y-45070716D03*
X99097194Y-40170716D03*
X95797194Y-40170716D03*
%TD*%
D10*
%TO.C,C77*%
X81199567Y-45124779D03*
X81199567Y-44164779D03*
%TD*%
D11*
%TO.C,D30*%
X167297194Y-30670716D03*
X170597194Y-30670716D03*
X170597194Y-25770716D03*
X167297194Y-25770716D03*
%TD*%
D10*
%TO.C,C31*%
X94199567Y-30724779D03*
X94199567Y-29764779D03*
%TD*%
D11*
%TO.C,D151*%
X17797194Y-73870716D03*
X21097194Y-73870716D03*
X21097194Y-68970716D03*
X17797194Y-68970716D03*
%TD*%
D10*
%TO.C,C186*%
X165699567Y-73924779D03*
X165699567Y-72964779D03*
%TD*%
%TO.C,C335*%
X42199567Y-128324779D03*
X42199567Y-127364779D03*
%TD*%
D11*
%TO.C,D61*%
X56797194Y-45070716D03*
X60097194Y-45070716D03*
X60097194Y-40170716D03*
X56797194Y-40170716D03*
%TD*%
%TO.C,D351*%
X69797194Y-135470716D03*
X73097194Y-135470716D03*
X73097194Y-130570716D03*
X69797194Y-130570716D03*
%TD*%
D10*
%TO.C,C85*%
X133199567Y-45124779D03*
X133199567Y-44164779D03*
%TD*%
%TO.C,C387*%
X68199567Y-142724779D03*
X68199567Y-141764779D03*
%TD*%
D11*
%TO.C,D341*%
X160797194Y-128270716D03*
X164097194Y-128270716D03*
X164097194Y-123370716D03*
X160797194Y-123370716D03*
%TD*%
D10*
%TO.C,C261*%
X29199567Y-106724779D03*
X29199567Y-105764779D03*
%TD*%
D11*
%TO.C,D339*%
X147797194Y-128270716D03*
X151097194Y-128270716D03*
X151097194Y-123370716D03*
X147797194Y-123370716D03*
%TD*%
%TO.C,D317*%
X160797194Y-121070716D03*
X164097194Y-121070716D03*
X164097194Y-116170716D03*
X160797194Y-116170716D03*
%TD*%
D10*
%TO.C,C50*%
X61699567Y-37924779D03*
X61699567Y-36964779D03*
%TD*%
D11*
%TO.C,D56*%
X24297194Y-45070716D03*
X27597194Y-45070716D03*
X27597194Y-40170716D03*
X24297194Y-40170716D03*
%TD*%
D10*
%TO.C,C400*%
X152699567Y-142724779D03*
X152699567Y-141764779D03*
%TD*%
D11*
%TO.C,D136*%
X76297194Y-66670716D03*
X79597194Y-66670716D03*
X79597194Y-61770716D03*
X76297194Y-61770716D03*
%TD*%
D10*
%TO.C,C208*%
X152699567Y-81124779D03*
X152699567Y-80164779D03*
%TD*%
D11*
%TO.C,D8*%
X24297194Y-30670716D03*
X27597194Y-30670716D03*
X27597194Y-25770716D03*
X24297194Y-25770716D03*
%TD*%
D10*
%TO.C,C80*%
X100699567Y-45124779D03*
X100699567Y-44164779D03*
%TD*%
%TO.C,C291*%
X68199567Y-113924779D03*
X68199567Y-112964779D03*
%TD*%
D11*
%TO.C,D185*%
X82797194Y-81070716D03*
X86097194Y-81070716D03*
X86097194Y-76170716D03*
X82797194Y-76170716D03*
%TD*%
%TO.C,D325*%
X56797194Y-128270716D03*
X60097194Y-128270716D03*
X60097194Y-123370716D03*
X56797194Y-123370716D03*
%TD*%
%TO.C,D43*%
X95797194Y-37870716D03*
X99097194Y-37870716D03*
X99097194Y-32970716D03*
X95797194Y-32970716D03*
%TD*%
D10*
%TO.C,C167*%
X42199567Y-73924779D03*
X42199567Y-72964779D03*
%TD*%
%TO.C,C195*%
X68199567Y-81124779D03*
X68199567Y-80164779D03*
%TD*%
%TO.C,C110*%
X139699567Y-52324779D03*
X139699567Y-51364779D03*
%TD*%
D11*
%TO.C,D82*%
X37297194Y-52270716D03*
X40597194Y-52270716D03*
X40597194Y-47370716D03*
X37297194Y-47370716D03*
%TD*%
%TO.C,D48*%
X128297194Y-37870716D03*
X131597194Y-37870716D03*
X131597194Y-32970716D03*
X128297194Y-32970716D03*
%TD*%
D10*
%TO.C,C51*%
X68199567Y-37924779D03*
X68199567Y-36964779D03*
%TD*%
D11*
%TO.C,D247*%
X17797194Y-106670716D03*
X21097194Y-106670716D03*
X21097194Y-101770716D03*
X17797194Y-101770716D03*
%TD*%
%TO.C,D209*%
X82797194Y-92270716D03*
X86097194Y-92270716D03*
X86097194Y-87370716D03*
X82797194Y-87370716D03*
%TD*%
D10*
%TO.C,C251*%
X120199567Y-99524779D03*
X120199567Y-98564779D03*
%TD*%
D11*
%TO.C,D14*%
X63297194Y-30670716D03*
X66597194Y-30670716D03*
X66597194Y-25770716D03*
X63297194Y-25770716D03*
%TD*%
D10*
%TO.C,C227*%
X120199567Y-92324779D03*
X120199567Y-91364779D03*
%TD*%
D11*
%TO.C,D248*%
X24297194Y-106670716D03*
X27597194Y-106670716D03*
X27597194Y-101770716D03*
X24297194Y-101770716D03*
%TD*%
%TO.C,D131*%
X43797194Y-66670716D03*
X47097194Y-66670716D03*
X47097194Y-61770716D03*
X43797194Y-61770716D03*
%TD*%
%TO.C,D150*%
X167297194Y-66670716D03*
X170597194Y-66670716D03*
X170597194Y-61770716D03*
X167297194Y-61770716D03*
%TD*%
%TO.C,D90*%
X89297194Y-52270716D03*
X92597194Y-52270716D03*
X92597194Y-47370716D03*
X89297194Y-47370716D03*
%TD*%
D10*
%TO.C,C240*%
X48699567Y-99524779D03*
X48699567Y-98564779D03*
%TD*%
D11*
%TO.C,D219*%
X147797194Y-92270716D03*
X151097194Y-92270716D03*
X151097194Y-87370716D03*
X147797194Y-87370716D03*
%TD*%
D10*
%TO.C,C123*%
X68199567Y-59524779D03*
X68199567Y-58564779D03*
%TD*%
D11*
%TO.C,D292*%
X154297194Y-113870716D03*
X157597194Y-113870716D03*
X157597194Y-108970716D03*
X154297194Y-108970716D03*
%TD*%
%TO.C,D37*%
X56797194Y-37870716D03*
X60097194Y-37870716D03*
X60097194Y-32970716D03*
X56797194Y-32970716D03*
%TD*%
D10*
%TO.C,C64*%
X152699567Y-37924779D03*
X152699567Y-36964779D03*
%TD*%
D11*
%TO.C,D199*%
X17797194Y-92270716D03*
X21097194Y-92270716D03*
X21097194Y-87370716D03*
X17797194Y-87370716D03*
%TD*%
%TO.C,D303*%
X69797194Y-121070716D03*
X73097194Y-121070716D03*
X73097194Y-116170716D03*
X69797194Y-116170716D03*
%TD*%
%TO.C,D330*%
X89297194Y-128270716D03*
X92597194Y-128270716D03*
X92597194Y-123370716D03*
X89297194Y-123370716D03*
%TD*%
%TO.C,D323*%
X43797194Y-128270716D03*
X47097194Y-128270716D03*
X47097194Y-123370716D03*
X43797194Y-123370716D03*
%TD*%
%TO.C,D316*%
X154297194Y-121070716D03*
X157597194Y-121070716D03*
X157597194Y-116170716D03*
X154297194Y-116170716D03*
%TD*%
%TO.C,D201*%
X30797194Y-92270716D03*
X34097194Y-92270716D03*
X34097194Y-87370716D03*
X30797194Y-87370716D03*
%TD*%
D10*
%TO.C,C392*%
X100699567Y-142724779D03*
X100699567Y-141764779D03*
%TD*%
%TO.C,C308*%
X22699567Y-121124779D03*
X22699567Y-120164779D03*
%TD*%
%TO.C,C361*%
X55199567Y-135524779D03*
X55199567Y-134564779D03*
%TD*%
D11*
%TO.C,D64*%
X76297194Y-45070716D03*
X79597194Y-45070716D03*
X79597194Y-40170716D03*
X76297194Y-40170716D03*
%TD*%
D10*
%TO.C,C141*%
X29199567Y-66724779D03*
X29199567Y-65764779D03*
%TD*%
%TO.C,C263*%
X42199567Y-106724779D03*
X42199567Y-105764779D03*
%TD*%
D11*
%TO.C,D159*%
X69797194Y-73870716D03*
X73097194Y-73870716D03*
X73097194Y-68970716D03*
X69797194Y-68970716D03*
%TD*%
D10*
%TO.C,C210*%
X165699567Y-81124779D03*
X165699567Y-80164779D03*
%TD*%
%TO.C,C161*%
X159199567Y-66724779D03*
X159199567Y-65764779D03*
%TD*%
%TO.C,C148*%
X74699567Y-66724779D03*
X74699567Y-65764779D03*
%TD*%
D11*
%TO.C,D375*%
X69797194Y-142670716D03*
X73097194Y-142670716D03*
X73097194Y-137770716D03*
X69797194Y-137770716D03*
%TD*%
D10*
%TO.C,C395*%
X120199567Y-142724779D03*
X120199567Y-141764779D03*
%TD*%
%TO.C,C122*%
X61699567Y-59524779D03*
X61699567Y-58564779D03*
%TD*%
D11*
%TO.C,D118*%
X115297194Y-59470716D03*
X118597194Y-59470716D03*
X118597194Y-54570716D03*
X115297194Y-54570716D03*
%TD*%
%TO.C,D280*%
X76297194Y-113870716D03*
X79597194Y-113870716D03*
X79597194Y-108970716D03*
X76297194Y-108970716D03*
%TD*%
D10*
%TO.C,C257*%
X159199567Y-99524779D03*
X159199567Y-98564779D03*
%TD*%
%TO.C,C35*%
X120199567Y-30724779D03*
X120199567Y-29764779D03*
%TD*%
D11*
%TO.C,D381*%
X108797194Y-142670716D03*
X112097194Y-142670716D03*
X112097194Y-137770716D03*
X108797194Y-137770716D03*
%TD*%
D10*
%TO.C,C55*%
X94199567Y-37924779D03*
X94199567Y-36964779D03*
%TD*%
D11*
%TO.C,D240*%
X128297194Y-99470716D03*
X131597194Y-99470716D03*
X131597194Y-94570716D03*
X128297194Y-94570716D03*
%TD*%
D10*
%TO.C,C37*%
X133199567Y-30724779D03*
X133199567Y-29764779D03*
%TD*%
%TO.C,C333*%
X29199567Y-128324779D03*
X29199567Y-127364779D03*
%TD*%
D11*
%TO.C,D21*%
X108797194Y-30670716D03*
X112097194Y-30670716D03*
X112097194Y-25770716D03*
X108797194Y-25770716D03*
%TD*%
%TO.C,D284*%
X102297194Y-113870716D03*
X105597194Y-113870716D03*
X105597194Y-108970716D03*
X102297194Y-108970716D03*
%TD*%
%TO.C,D125*%
X160797194Y-59470716D03*
X164097194Y-59470716D03*
X164097194Y-54570716D03*
X160797194Y-54570716D03*
%TD*%
%TO.C,D288*%
X128297194Y-113870716D03*
X131597194Y-113870716D03*
X131597194Y-108970716D03*
X128297194Y-108970716D03*
%TD*%
D10*
%TO.C,C207*%
X146199567Y-81124779D03*
X146199567Y-80164779D03*
%TD*%
D11*
%TO.C,D28*%
X154297194Y-30670716D03*
X157597194Y-30670716D03*
X157597194Y-25770716D03*
X154297194Y-25770716D03*
%TD*%
D10*
%TO.C,C295*%
X94199567Y-113924779D03*
X94199567Y-112964779D03*
%TD*%
D11*
%TO.C,D384*%
X128297194Y-142670716D03*
X131597194Y-142670716D03*
X131597194Y-137770716D03*
X128297194Y-137770716D03*
%TD*%
D10*
%TO.C,C71*%
X42199567Y-45124779D03*
X42199567Y-44164779D03*
%TD*%
D11*
%TO.C,D31*%
X17797194Y-37870716D03*
X21097194Y-37870716D03*
X21097194Y-32970716D03*
X17797194Y-32970716D03*
%TD*%
D10*
%TO.C,C202*%
X113699567Y-81124779D03*
X113699567Y-80164779D03*
%TD*%
%TO.C,C151*%
X94199567Y-66724779D03*
X94199567Y-65764779D03*
%TD*%
%TO.C,C83*%
X120199567Y-45124779D03*
X120199567Y-44164779D03*
%TD*%
D11*
%TO.C,D365*%
X160797194Y-135470716D03*
X164097194Y-135470716D03*
X164097194Y-130570716D03*
X160797194Y-130570716D03*
%TD*%
D10*
%TO.C,C233*%
X159199567Y-92324779D03*
X159199567Y-91364779D03*
%TD*%
%TO.C,C182*%
X139699567Y-73924779D03*
X139699567Y-72964779D03*
%TD*%
D11*
%TO.C,D250*%
X37297194Y-106670716D03*
X40597194Y-106670716D03*
X40597194Y-101770716D03*
X37297194Y-101770716D03*
%TD*%
%TO.C,D154*%
X37297194Y-73870716D03*
X40597194Y-73870716D03*
X40597194Y-68970716D03*
X37297194Y-68970716D03*
%TD*%
D10*
%TO.C,C288*%
X48699567Y-113924779D03*
X48699567Y-112964779D03*
%TD*%
%TO.C,C140*%
X22699567Y-66724779D03*
X22699567Y-65764779D03*
%TD*%
%TO.C,C374*%
X139699567Y-135524779D03*
X139699567Y-134564779D03*
%TD*%
%TO.C,C341*%
X81199567Y-128324779D03*
X81199567Y-127364779D03*
%TD*%
%TO.C,C321*%
X107199567Y-121124779D03*
X107199567Y-120164779D03*
%TD*%
D11*
%TO.C,D178*%
X37297194Y-81070716D03*
X40597194Y-81070716D03*
X40597194Y-76170716D03*
X37297194Y-76170716D03*
%TD*%
%TO.C,D85*%
X56797194Y-52270716D03*
X60097194Y-52270716D03*
X60097194Y-47370716D03*
X56797194Y-47370716D03*
%TD*%
%TO.C,D368*%
X24297194Y-142670716D03*
X27597194Y-142670716D03*
X27597194Y-137770716D03*
X24297194Y-137770716D03*
%TD*%
D10*
%TO.C,C304*%
X152699567Y-113924779D03*
X152699567Y-112964779D03*
%TD*%
%TO.C,C144*%
X48699567Y-66724779D03*
X48699567Y-65764779D03*
%TD*%
D11*
%TO.C,D133*%
X56797194Y-66670716D03*
X60097194Y-66670716D03*
X60097194Y-61770716D03*
X56797194Y-61770716D03*
%TD*%
%TO.C,D121*%
X134797194Y-59470716D03*
X138097194Y-59470716D03*
X138097194Y-54570716D03*
X134797194Y-54570716D03*
%TD*%
%TO.C,D180*%
X50297194Y-81070716D03*
X53597194Y-81070716D03*
X53597194Y-76170716D03*
X50297194Y-76170716D03*
%TD*%
D10*
%TO.C,C351*%
X146199567Y-128324779D03*
X146199567Y-127364779D03*
%TD*%
%TO.C,C347*%
X120199567Y-128324779D03*
X120199567Y-127364779D03*
%TD*%
%TO.C,C138*%
X165699567Y-59524779D03*
X165699567Y-58564779D03*
%TD*%
%TO.C,C87*%
X146199567Y-45124779D03*
X146199567Y-44164779D03*
%TD*%
D11*
%TO.C,D342*%
X167297194Y-128270716D03*
X170597194Y-128270716D03*
X170597194Y-123370716D03*
X167297194Y-123370716D03*
%TD*%
D10*
%TO.C,C276*%
X126699567Y-106724779D03*
X126699567Y-105764779D03*
%TD*%
D11*
%TO.C,D215*%
X121797194Y-92270716D03*
X125097194Y-92270716D03*
X125097194Y-87370716D03*
X121797194Y-87370716D03*
%TD*%
%TO.C,D91*%
X95797194Y-52270716D03*
X99097194Y-52270716D03*
X99097194Y-47370716D03*
X95797194Y-47370716D03*
%TD*%
%TO.C,D38*%
X63297194Y-37870716D03*
X66597194Y-37870716D03*
X66597194Y-32970716D03*
X63297194Y-32970716D03*
%TD*%
D10*
%TO.C,C272*%
X100699567Y-106724779D03*
X100699567Y-105764779D03*
%TD*%
%TO.C,C34*%
X113699567Y-30724779D03*
X113699567Y-29764779D03*
%TD*%
%TO.C,C133*%
X133199567Y-59524779D03*
X133199567Y-58564779D03*
%TD*%
D11*
%TO.C,D78*%
X167297194Y-45070716D03*
X170597194Y-45070716D03*
X170597194Y-40170716D03*
X167297194Y-40170716D03*
%TD*%
D10*
%TO.C,C277*%
X133199567Y-106724779D03*
X133199567Y-105764779D03*
%TD*%
D11*
%TO.C,D52*%
X154297194Y-37870716D03*
X157597194Y-37870716D03*
X157597194Y-32970716D03*
X154297194Y-32970716D03*
%TD*%
%TO.C,D233*%
X82797194Y-99470716D03*
X86097194Y-99470716D03*
X86097194Y-94570716D03*
X82797194Y-94570716D03*
%TD*%
D10*
%TO.C,C173*%
X81199567Y-73924779D03*
X81199567Y-72964779D03*
%TD*%
D11*
%TO.C,D270*%
X167297194Y-106670716D03*
X170597194Y-106670716D03*
X170597194Y-101770716D03*
X167297194Y-101770716D03*
%TD*%
%TO.C,D349*%
X56797194Y-135470716D03*
X60097194Y-135470716D03*
X60097194Y-130570716D03*
X56797194Y-130570716D03*
%TD*%
D10*
%TO.C,C211*%
X16199567Y-92324779D03*
X16199567Y-91364779D03*
%TD*%
D11*
%TO.C,D378*%
X89297194Y-142670716D03*
X92597194Y-142670716D03*
X92597194Y-137770716D03*
X89297194Y-137770716D03*
%TD*%
%TO.C,D126*%
X167297194Y-59470716D03*
X170597194Y-59470716D03*
X170597194Y-54570716D03*
X167297194Y-54570716D03*
%TD*%
%TO.C,D59*%
X43797194Y-45070716D03*
X47097194Y-45070716D03*
X47097194Y-40170716D03*
X43797194Y-40170716D03*
%TD*%
D10*
%TO.C,C162*%
X165699567Y-66724779D03*
X165699567Y-65764779D03*
%TD*%
%TO.C,C43*%
X16199567Y-37924779D03*
X16199567Y-36964779D03*
%TD*%
%TO.C,C183*%
X146199567Y-73924779D03*
X146199567Y-72964779D03*
%TD*%
D11*
%TO.C,D290*%
X141297194Y-113870716D03*
X144597194Y-113870716D03*
X144597194Y-108970716D03*
X141297194Y-108970716D03*
%TD*%
D10*
%TO.C,C292*%
X74699567Y-113924779D03*
X74699567Y-112964779D03*
%TD*%
D11*
%TO.C,D123*%
X147797194Y-59470716D03*
X151097194Y-59470716D03*
X151097194Y-54570716D03*
X147797194Y-54570716D03*
%TD*%
D10*
%TO.C,C19*%
X16199567Y-30724779D03*
X16199567Y-29764779D03*
%TD*%
D11*
%TO.C,D279*%
X69797194Y-113870716D03*
X73097194Y-113870716D03*
X73097194Y-108970716D03*
X69797194Y-108970716D03*
%TD*%
D10*
%TO.C,C380*%
X22699567Y-142724779D03*
X22699567Y-141764779D03*
%TD*%
D11*
%TO.C,D11*%
X43797194Y-30670716D03*
X47097194Y-30670716D03*
X47097194Y-25770716D03*
X43797194Y-25770716D03*
%TD*%
%TO.C,D73*%
X134797194Y-45070716D03*
X138097194Y-45070716D03*
X138097194Y-40170716D03*
X134797194Y-40170716D03*
%TD*%
%TO.C,D262*%
X115297194Y-106670716D03*
X118597194Y-106670716D03*
X118597194Y-101770716D03*
X115297194Y-101770716D03*
%TD*%
%TO.C,D324*%
X50297194Y-128270716D03*
X53597194Y-128270716D03*
X53597194Y-123370716D03*
X50297194Y-123370716D03*
%TD*%
D10*
%TO.C,C262*%
X35699567Y-106724779D03*
X35699567Y-105764779D03*
%TD*%
%TO.C,C243*%
X68199567Y-99524779D03*
X68199567Y-98564779D03*
%TD*%
%TO.C,C267*%
X68199567Y-106724779D03*
X68199567Y-105764779D03*
%TD*%
D11*
%TO.C,D315*%
X147797194Y-121070716D03*
X151097194Y-121070716D03*
X151097194Y-116170716D03*
X147797194Y-116170716D03*
%TD*%
%TO.C,D278*%
X63297194Y-113870716D03*
X66597194Y-113870716D03*
X66597194Y-108970716D03*
X63297194Y-108970716D03*
%TD*%
D10*
%TO.C,C256*%
X152699567Y-99524779D03*
X152699567Y-98564779D03*
%TD*%
D11*
%TO.C,D153*%
X30797194Y-73870716D03*
X34097194Y-73870716D03*
X34097194Y-68970716D03*
X30797194Y-68970716D03*
%TD*%
D10*
%TO.C,C193*%
X55199567Y-81124779D03*
X55199567Y-80164779D03*
%TD*%
D11*
%TO.C,D357*%
X108797194Y-135470716D03*
X112097194Y-135470716D03*
X112097194Y-130570716D03*
X108797194Y-130570716D03*
%TD*%
%TO.C,D235*%
X95797194Y-99470716D03*
X99097194Y-99470716D03*
X99097194Y-94570716D03*
X95797194Y-94570716D03*
%TD*%
%TO.C,D260*%
X102297194Y-106670716D03*
X105597194Y-106670716D03*
X105597194Y-101770716D03*
X102297194Y-101770716D03*
%TD*%
%TO.C,D205*%
X56797194Y-92270716D03*
X60097194Y-92270716D03*
X60097194Y-87370716D03*
X56797194Y-87370716D03*
%TD*%
%TO.C,D382*%
X115297194Y-142670716D03*
X118597194Y-142670716D03*
X118597194Y-137770716D03*
X115297194Y-137770716D03*
%TD*%
%TO.C,D310*%
X115297194Y-121070716D03*
X118597194Y-121070716D03*
X118597194Y-116170716D03*
X115297194Y-116170716D03*
%TD*%
D10*
%TO.C,C134*%
X139699567Y-59524779D03*
X139699567Y-58564779D03*
%TD*%
%TO.C,C206*%
X139699567Y-81124779D03*
X139699567Y-80164779D03*
%TD*%
D11*
%TO.C,D386*%
X141297194Y-142670716D03*
X144597194Y-142670716D03*
X144597194Y-137770716D03*
X141297194Y-137770716D03*
%TD*%
D10*
%TO.C,C30*%
X87699567Y-30724779D03*
X87699567Y-29764779D03*
%TD*%
%TO.C,C265*%
X55199567Y-106724779D03*
X55199567Y-105764779D03*
%TD*%
D11*
%TO.C,D308*%
X102297194Y-121070716D03*
X105597194Y-121070716D03*
X105597194Y-116170716D03*
X102297194Y-116170716D03*
%TD*%
%TO.C,D10*%
X37297194Y-30670716D03*
X40597194Y-30670716D03*
X40597194Y-25770716D03*
X37297194Y-25770716D03*
%TD*%
D10*
%TO.C,C282*%
X165699567Y-106724779D03*
X165699567Y-105764779D03*
%TD*%
%TO.C,C164*%
X22699567Y-73924779D03*
X22699567Y-72964779D03*
%TD*%
D11*
%TO.C,D253*%
X56797194Y-106670716D03*
X60097194Y-106670716D03*
X60097194Y-101770716D03*
X56797194Y-101770716D03*
%TD*%
D10*
%TO.C,C357*%
X29199567Y-135524779D03*
X29199567Y-134564779D03*
%TD*%
D11*
%TO.C,D208*%
X76297194Y-92270716D03*
X79597194Y-92270716D03*
X79597194Y-87370716D03*
X76297194Y-87370716D03*
%TD*%
%TO.C,D148*%
X154297194Y-66670716D03*
X157597194Y-66670716D03*
X157597194Y-61770716D03*
X154297194Y-61770716D03*
%TD*%
%TO.C,D321*%
X30797194Y-128270716D03*
X34097194Y-128270716D03*
X34097194Y-123370716D03*
X30797194Y-123370716D03*
%TD*%
%TO.C,D202*%
X37297194Y-92270716D03*
X40597194Y-92270716D03*
X40597194Y-87370716D03*
X37297194Y-87370716D03*
%TD*%
%TO.C,D244*%
X154297194Y-99470716D03*
X157597194Y-99470716D03*
X157597194Y-94570716D03*
X154297194Y-94570716D03*
%TD*%
D10*
%TO.C,C352*%
X152699567Y-128324779D03*
X152699567Y-127364779D03*
%TD*%
%TO.C,C401*%
X159199567Y-142724779D03*
X159199567Y-141764779D03*
%TD*%
%TO.C,C107*%
X120199567Y-52324779D03*
X120199567Y-51364779D03*
%TD*%
%TO.C,C132*%
X126699567Y-59524779D03*
X126699567Y-58564779D03*
%TD*%
%TO.C,C216*%
X48699567Y-92324779D03*
X48699567Y-91364779D03*
%TD*%
D11*
%TO.C,D145*%
X134797194Y-66670716D03*
X138097194Y-66670716D03*
X138097194Y-61770716D03*
X134797194Y-61770716D03*
%TD*%
%TO.C,D147*%
X147797194Y-66670716D03*
X151097194Y-66670716D03*
X151097194Y-61770716D03*
X147797194Y-61770716D03*
%TD*%
D10*
%TO.C,C289*%
X55199567Y-113924779D03*
X55199567Y-112964779D03*
%TD*%
D11*
%TO.C,D229*%
X56797194Y-99470716D03*
X60097194Y-99470716D03*
X60097194Y-94570716D03*
X56797194Y-94570716D03*
%TD*%
%TO.C,D311*%
X121797194Y-121070716D03*
X125097194Y-121070716D03*
X125097194Y-116170716D03*
X121797194Y-116170716D03*
%TD*%
%TO.C,D276*%
X50297194Y-113870716D03*
X53597194Y-113870716D03*
X53597194Y-108970716D03*
X50297194Y-108970716D03*
%TD*%
D10*
%TO.C,C174*%
X87699567Y-73924779D03*
X87699567Y-72964779D03*
%TD*%
D11*
%TO.C,D160*%
X76297194Y-73870716D03*
X79597194Y-73870716D03*
X79597194Y-68970716D03*
X76297194Y-68970716D03*
%TD*%
%TO.C,D353*%
X82797194Y-135470716D03*
X86097194Y-135470716D03*
X86097194Y-130570716D03*
X82797194Y-130570716D03*
%TD*%
D10*
%TO.C,C334*%
X35699567Y-128324779D03*
X35699567Y-127364779D03*
%TD*%
%TO.C,C192*%
X48699567Y-81124779D03*
X48699567Y-80164779D03*
%TD*%
%TO.C,C60*%
X126699567Y-37924779D03*
X126699567Y-36964779D03*
%TD*%
D11*
%TO.C,D60*%
X50297194Y-45070716D03*
X53597194Y-45070716D03*
X53597194Y-40170716D03*
X50297194Y-40170716D03*
%TD*%
D10*
%TO.C,C287*%
X42199567Y-113924779D03*
X42199567Y-112964779D03*
%TD*%
%TO.C,C105*%
X107199567Y-52324779D03*
X107199567Y-51364779D03*
%TD*%
%TO.C,C172*%
X74699567Y-73924779D03*
X74699567Y-72964779D03*
%TD*%
D11*
%TO.C,D370*%
X37297194Y-142670716D03*
X40597194Y-142670716D03*
X40597194Y-137770716D03*
X37297194Y-137770716D03*
%TD*%
D10*
%TO.C,C322*%
X113699567Y-121124779D03*
X113699567Y-120164779D03*
%TD*%
D13*
%TO.C,C5*%
X154863800Y-84836000D03*
X156938800Y-84836000D03*
%TD*%
D11*
%TO.C,D68*%
X102297194Y-45070716D03*
X105597194Y-45070716D03*
X105597194Y-40170716D03*
X102297194Y-40170716D03*
%TD*%
%TO.C,D129*%
X30797194Y-66670716D03*
X34097194Y-66670716D03*
X34097194Y-61770716D03*
X30797194Y-61770716D03*
%TD*%
D10*
%TO.C,C215*%
X42199567Y-92324779D03*
X42199567Y-91364779D03*
%TD*%
%TO.C,C239*%
X42199567Y-99524779D03*
X42199567Y-98564779D03*
%TD*%
D11*
%TO.C,D211*%
X95797194Y-92270716D03*
X99097194Y-92270716D03*
X99097194Y-87370716D03*
X95797194Y-87370716D03*
%TD*%
%TO.C,D15*%
X69797194Y-30670716D03*
X73097194Y-30670716D03*
X73097194Y-25770716D03*
X69797194Y-25770716D03*
%TD*%
D10*
%TO.C,C329*%
X159199567Y-121124779D03*
X159199567Y-120164779D03*
%TD*%
D11*
%TO.C,D194*%
X141297194Y-81070716D03*
X144597194Y-81070716D03*
X144597194Y-76170716D03*
X141297194Y-76170716D03*
%TD*%
%TO.C,D71*%
X121797194Y-45070716D03*
X125097194Y-45070716D03*
X125097194Y-40170716D03*
X121797194Y-40170716D03*
%TD*%
D10*
%TO.C,C53*%
X81199567Y-37924779D03*
X81199567Y-36964779D03*
%TD*%
D11*
%TO.C,D81*%
X30797194Y-52270716D03*
X34097194Y-52270716D03*
X34097194Y-47370716D03*
X30797194Y-47370716D03*
%TD*%
D10*
%TO.C,C372*%
X126699567Y-135524779D03*
X126699567Y-134564779D03*
%TD*%
%TO.C,C307*%
X16199567Y-121124779D03*
X16199567Y-120164779D03*
%TD*%
%TO.C,C139*%
X16199567Y-66724779D03*
X16199567Y-65764779D03*
%TD*%
%TO.C,C306*%
X165699567Y-113924779D03*
X165699567Y-112964779D03*
%TD*%
D11*
%TO.C,D319*%
X17797194Y-128270716D03*
X21097194Y-128270716D03*
X21097194Y-123370716D03*
X17797194Y-123370716D03*
%TD*%
%TO.C,D387*%
X147797194Y-142670716D03*
X151097194Y-142670716D03*
X151097194Y-137770716D03*
X147797194Y-137770716D03*
%TD*%
%TO.C,D373*%
X56797194Y-142670716D03*
X60097194Y-142670716D03*
X60097194Y-137770716D03*
X56797194Y-137770716D03*
%TD*%
D10*
%TO.C,C109*%
X133199567Y-52324779D03*
X133199567Y-51364779D03*
%TD*%
%TO.C,C369*%
X107199567Y-135524779D03*
X107199567Y-134564779D03*
%TD*%
%TO.C,C284*%
X22699567Y-113924779D03*
X22699567Y-112964779D03*
%TD*%
%TO.C,C381*%
X29199567Y-142724779D03*
X29199567Y-141764779D03*
%TD*%
%TO.C,C81*%
X107199567Y-45124779D03*
X107199567Y-44164779D03*
%TD*%
%TO.C,C376*%
X152699567Y-135524779D03*
X152699567Y-134564779D03*
%TD*%
%TO.C,C97*%
X55199567Y-52324779D03*
X55199567Y-51364779D03*
%TD*%
%TO.C,C115*%
X16199567Y-59524779D03*
X16199567Y-58564779D03*
%TD*%
%TO.C,C260*%
X22699567Y-106724779D03*
X22699567Y-105764779D03*
%TD*%
%TO.C,C353*%
X159199567Y-128324779D03*
X159199567Y-127364779D03*
%TD*%
D11*
%TO.C,D112*%
X76297194Y-59470716D03*
X79597194Y-59470716D03*
X79597194Y-54570716D03*
X76297194Y-54570716D03*
%TD*%
D10*
%TO.C,C163*%
X16199567Y-73924779D03*
X16199567Y-72964779D03*
%TD*%
%TO.C,C343*%
X94199567Y-128324779D03*
X94199567Y-127364779D03*
%TD*%
%TO.C,C385*%
X55199567Y-142724779D03*
X55199567Y-141764779D03*
%TD*%
%TO.C,C315*%
X68199567Y-121124779D03*
X68199567Y-120164779D03*
%TD*%
D11*
%TO.C,D69*%
X108797194Y-45070716D03*
X112097194Y-45070716D03*
X112097194Y-40170716D03*
X108797194Y-40170716D03*
%TD*%
D10*
%TO.C,C28*%
X74699567Y-30724779D03*
X74699567Y-29764779D03*
%TD*%
D11*
%TO.C,D191*%
X121797194Y-81070716D03*
X125097194Y-81070716D03*
X125097194Y-76170716D03*
X121797194Y-76170716D03*
%TD*%
D13*
%TO.C,C3*%
X163507600Y-84429600D03*
X165582600Y-84429600D03*
%TD*%
D11*
%TO.C,D189*%
X108797194Y-81070716D03*
X112097194Y-81070716D03*
X112097194Y-76170716D03*
X108797194Y-76170716D03*
%TD*%
%TO.C,D296*%
X24297194Y-121070716D03*
X27597194Y-121070716D03*
X27597194Y-116170716D03*
X24297194Y-116170716D03*
%TD*%
D10*
%TO.C,C230*%
X139699567Y-92324779D03*
X139699567Y-91364779D03*
%TD*%
D11*
%TO.C,D76*%
X154297194Y-45070716D03*
X157597194Y-45070716D03*
X157597194Y-40170716D03*
X154297194Y-40170716D03*
%TD*%
%TO.C,D141*%
X108797194Y-66670716D03*
X112097194Y-66670716D03*
X112097194Y-61770716D03*
X108797194Y-61770716D03*
%TD*%
%TO.C,D182*%
X63297194Y-81070716D03*
X66597194Y-81070716D03*
X66597194Y-76170716D03*
X63297194Y-76170716D03*
%TD*%
D10*
%TO.C,C275*%
X120199567Y-106724779D03*
X120199567Y-105764779D03*
%TD*%
D11*
%TO.C,D53*%
X160797194Y-37870716D03*
X164097194Y-37870716D03*
X164097194Y-32970716D03*
X160797194Y-32970716D03*
%TD*%
%TO.C,D156*%
X50297194Y-73870716D03*
X53597194Y-73870716D03*
X53597194Y-68970716D03*
X50297194Y-68970716D03*
%TD*%
%TO.C,D114*%
X89297194Y-59470716D03*
X92597194Y-59470716D03*
X92597194Y-54570716D03*
X89297194Y-54570716D03*
%TD*%
%TO.C,D383*%
X121797194Y-142670716D03*
X125097194Y-142670716D03*
X125097194Y-137770716D03*
X121797194Y-137770716D03*
%TD*%
D10*
%TO.C,C290*%
X61699567Y-113924779D03*
X61699567Y-112964779D03*
%TD*%
D11*
%TO.C,D200*%
X24297194Y-92270716D03*
X27597194Y-92270716D03*
X27597194Y-87370716D03*
X24297194Y-87370716D03*
%TD*%
%TO.C,D36*%
X50297194Y-37870716D03*
X53597194Y-37870716D03*
X53597194Y-32970716D03*
X50297194Y-32970716D03*
%TD*%
D10*
%TO.C,C75*%
X68199567Y-45124779D03*
X68199567Y-44164779D03*
%TD*%
D11*
%TO.C,D197*%
X160797194Y-81070716D03*
X164097194Y-81070716D03*
X164097194Y-76170716D03*
X160797194Y-76170716D03*
%TD*%
%TO.C,D117*%
X108797194Y-59470716D03*
X112097194Y-59470716D03*
X112097194Y-54570716D03*
X108797194Y-54570716D03*
%TD*%
D10*
%TO.C,C327*%
X146199567Y-121124779D03*
X146199567Y-120164779D03*
%TD*%
D11*
%TO.C,D346*%
X37297194Y-135470716D03*
X40597194Y-135470716D03*
X40597194Y-130570716D03*
X37297194Y-130570716D03*
%TD*%
D10*
%TO.C,C217*%
X55199567Y-92324779D03*
X55199567Y-91364779D03*
%TD*%
D11*
%TO.C,D265*%
X134797194Y-106670716D03*
X138097194Y-106670716D03*
X138097194Y-101770716D03*
X134797194Y-101770716D03*
%TD*%
%TO.C,D281*%
X82797194Y-113870716D03*
X86097194Y-113870716D03*
X86097194Y-108970716D03*
X82797194Y-108970716D03*
%TD*%
D10*
%TO.C,C366*%
X87699567Y-135524779D03*
X87699567Y-134564779D03*
%TD*%
D11*
%TO.C,D268*%
X154297194Y-106670716D03*
X157597194Y-106670716D03*
X157597194Y-101770716D03*
X154297194Y-101770716D03*
%TD*%
D10*
%TO.C,C397*%
X133199567Y-142724779D03*
X133199567Y-141764779D03*
%TD*%
%TO.C,C126*%
X87699567Y-59524779D03*
X87699567Y-58564779D03*
%TD*%
%TO.C,C102*%
X87699567Y-52324779D03*
X87699567Y-51364779D03*
%TD*%
D11*
%TO.C,D132*%
X50297194Y-66670716D03*
X53597194Y-66670716D03*
X53597194Y-61770716D03*
X50297194Y-61770716D03*
%TD*%
%TO.C,D261*%
X108797194Y-106670716D03*
X112097194Y-106670716D03*
X112097194Y-101770716D03*
X108797194Y-101770716D03*
%TD*%
%TO.C,D99*%
X147797194Y-52270716D03*
X151097194Y-52270716D03*
X151097194Y-47370716D03*
X147797194Y-47370716D03*
%TD*%
D10*
%TO.C,C342*%
X87699567Y-128324779D03*
X87699567Y-127364779D03*
%TD*%
D11*
%TO.C,D336*%
X128297194Y-128270716D03*
X131597194Y-128270716D03*
X131597194Y-123370716D03*
X128297194Y-123370716D03*
%TD*%
D10*
%TO.C,C375*%
X146199567Y-135524779D03*
X146199567Y-134564779D03*
%TD*%
%TO.C,C21*%
X29199567Y-30724779D03*
X29199567Y-29764779D03*
%TD*%
D11*
%TO.C,D54*%
X167297194Y-37870716D03*
X170597194Y-37870716D03*
X170597194Y-32970716D03*
X167297194Y-32970716D03*
%TD*%
D10*
%TO.C,C359*%
X42199567Y-135524779D03*
X42199567Y-134564779D03*
%TD*%
%TO.C,C91*%
X16199567Y-52324779D03*
X16199567Y-51364779D03*
%TD*%
D11*
%TO.C,D169*%
X134797194Y-73870716D03*
X138097194Y-73870716D03*
X138097194Y-68970716D03*
X134797194Y-68970716D03*
%TD*%
%TO.C,D66*%
X89297194Y-45070716D03*
X92597194Y-45070716D03*
X92597194Y-40170716D03*
X89297194Y-40170716D03*
%TD*%
%TO.C,D228*%
X50297194Y-99470716D03*
X53597194Y-99470716D03*
X53597194Y-94570716D03*
X50297194Y-94570716D03*
%TD*%
%TO.C,D333*%
X108797194Y-128270716D03*
X112097194Y-128270716D03*
X112097194Y-123370716D03*
X108797194Y-123370716D03*
%TD*%
D10*
%TO.C,C218*%
X61699567Y-92324779D03*
X61699567Y-91364779D03*
%TD*%
D11*
%TO.C,D318*%
X167297194Y-121070716D03*
X170597194Y-121070716D03*
X170597194Y-116170716D03*
X167297194Y-116170716D03*
%TD*%
D10*
%TO.C,C32*%
X100699567Y-30724779D03*
X100699567Y-29764779D03*
%TD*%
D11*
%TO.C,D222*%
X167297194Y-92270716D03*
X170597194Y-92270716D03*
X170597194Y-87370716D03*
X167297194Y-87370716D03*
%TD*%
%TO.C,D101*%
X160797194Y-52270716D03*
X164097194Y-52270716D03*
X164097194Y-47370716D03*
X160797194Y-47370716D03*
%TD*%
D10*
%TO.C,C386*%
X61699567Y-142724779D03*
X61699567Y-141764779D03*
%TD*%
D11*
%TO.C,D376*%
X76297194Y-142670716D03*
X79597194Y-142670716D03*
X79597194Y-137770716D03*
X76297194Y-137770716D03*
%TD*%
D10*
%TO.C,C384*%
X48699567Y-142724779D03*
X48699567Y-141764779D03*
%TD*%
D11*
%TO.C,D75*%
X147797194Y-45070716D03*
X151097194Y-45070716D03*
X151097194Y-40170716D03*
X147797194Y-40170716D03*
%TD*%
D10*
%TO.C,C311*%
X42199567Y-121124779D03*
X42199567Y-120164779D03*
%TD*%
D11*
%TO.C,D51*%
X147797194Y-37870716D03*
X151097194Y-37870716D03*
X151097194Y-32970716D03*
X147797194Y-32970716D03*
%TD*%
%TO.C,D239*%
X121797194Y-99470716D03*
X125097194Y-99470716D03*
X125097194Y-94570716D03*
X121797194Y-94570716D03*
%TD*%
%TO.C,D243*%
X147797194Y-99470716D03*
X151097194Y-99470716D03*
X151097194Y-94570716D03*
X147797194Y-94570716D03*
%TD*%
%TO.C,D40*%
X76297194Y-37870716D03*
X79597194Y-37870716D03*
X79597194Y-32970716D03*
X76297194Y-32970716D03*
%TD*%
D10*
%TO.C,C310*%
X35699567Y-121124779D03*
X35699567Y-120164779D03*
%TD*%
%TO.C,C149*%
X81199567Y-66724779D03*
X81199567Y-65764779D03*
%TD*%
D14*
%TO.C,D3*%
X132147200Y-84582000D03*
X134197200Y-84582000D03*
%TD*%
D10*
%TO.C,C125*%
X81199567Y-59524779D03*
X81199567Y-58564779D03*
%TD*%
%TO.C,C259*%
X16199567Y-106724779D03*
X16199567Y-105764779D03*
%TD*%
D11*
%TO.C,D172*%
X154297194Y-73870716D03*
X157597194Y-73870716D03*
X157597194Y-68970716D03*
X154297194Y-68970716D03*
%TD*%
%TO.C,D257*%
X82797194Y-106670716D03*
X86097194Y-106670716D03*
X86097194Y-101770716D03*
X82797194Y-101770716D03*
%TD*%
%TO.C,D213*%
X108797194Y-92270716D03*
X112097194Y-92270716D03*
X112097194Y-87370716D03*
X108797194Y-87370716D03*
%TD*%
%TO.C,D198*%
X167297194Y-81070716D03*
X170597194Y-81070716D03*
X170597194Y-76170716D03*
X167297194Y-76170716D03*
%TD*%
%TO.C,D328*%
X76297194Y-128270716D03*
X79597194Y-128270716D03*
X79597194Y-123370716D03*
X76297194Y-123370716D03*
%TD*%
%TO.C,D226*%
X37297194Y-99470716D03*
X40597194Y-99470716D03*
X40597194Y-94570716D03*
X37297194Y-94570716D03*
%TD*%
%TO.C,D193*%
X134797194Y-81070716D03*
X138097194Y-81070716D03*
X138097194Y-76170716D03*
X134797194Y-76170716D03*
%TD*%
%TO.C,D255*%
X69797194Y-106670716D03*
X73097194Y-106670716D03*
X73097194Y-101770716D03*
X69797194Y-101770716D03*
%TD*%
D10*
%TO.C,C303*%
X146199567Y-113924779D03*
X146199567Y-112964779D03*
%TD*%
D11*
%TO.C,D32*%
X24297194Y-37870716D03*
X27597194Y-37870716D03*
X27597194Y-32970716D03*
X24297194Y-32970716D03*
%TD*%
D10*
%TO.C,C273*%
X107199567Y-106724779D03*
X107199567Y-105764779D03*
%TD*%
D11*
%TO.C,D389*%
X160797194Y-142670716D03*
X164097194Y-142670716D03*
X164097194Y-137770716D03*
X160797194Y-137770716D03*
%TD*%
%TO.C,D371*%
X43797194Y-142670716D03*
X47097194Y-142670716D03*
X47097194Y-137770716D03*
X43797194Y-137770716D03*
%TD*%
D10*
%TO.C,C111*%
X146199567Y-52324779D03*
X146199567Y-51364779D03*
%TD*%
D11*
%TO.C,D271*%
X17797194Y-113870716D03*
X21097194Y-113870716D03*
X21097194Y-108970716D03*
X17797194Y-108970716D03*
%TD*%
%TO.C,D216*%
X128297194Y-92270716D03*
X131597194Y-92270716D03*
X131597194Y-87370716D03*
X128297194Y-87370716D03*
%TD*%
D10*
%TO.C,C137*%
X159199567Y-59524779D03*
X159199567Y-58564779D03*
%TD*%
D11*
%TO.C,D24*%
X128297194Y-30670716D03*
X131597194Y-30670716D03*
X131597194Y-25770716D03*
X128297194Y-25770716D03*
%TD*%
D10*
%TO.C,C106*%
X113699567Y-52324779D03*
X113699567Y-51364779D03*
%TD*%
%TO.C,C319*%
X94199567Y-121124779D03*
X94199567Y-120164779D03*
%TD*%
%TO.C,C271*%
X94199567Y-106724779D03*
X94199567Y-105764779D03*
%TD*%
D11*
%TO.C,D16*%
X76297194Y-30670716D03*
X79597194Y-30670716D03*
X79597194Y-25770716D03*
X76297194Y-25770716D03*
%TD*%
%TO.C,D166*%
X115297194Y-73870716D03*
X118597194Y-73870716D03*
X118597194Y-68970716D03*
X115297194Y-68970716D03*
%TD*%
D10*
%TO.C,C41*%
X159199567Y-30724779D03*
X159199567Y-29764779D03*
%TD*%
D11*
%TO.C,D242*%
X141297194Y-99470716D03*
X144597194Y-99470716D03*
X144597194Y-94570716D03*
X141297194Y-94570716D03*
%TD*%
D10*
%TO.C,C76*%
X74699567Y-45124779D03*
X74699567Y-44164779D03*
%TD*%
D11*
%TO.C,D274*%
X37297194Y-113870716D03*
X40597194Y-113870716D03*
X40597194Y-108970716D03*
X37297194Y-108970716D03*
%TD*%
D10*
%TO.C,C47*%
X42199567Y-37924779D03*
X42199567Y-36964779D03*
%TD*%
%TO.C,C185*%
X159199567Y-73924779D03*
X159199567Y-72964779D03*
%TD*%
%TO.C,C124*%
X74699567Y-59524779D03*
X74699567Y-58564779D03*
%TD*%
D11*
%TO.C,D297*%
X30797194Y-121070716D03*
X34097194Y-121070716D03*
X34097194Y-116170716D03*
X30797194Y-116170716D03*
%TD*%
%TO.C,D157*%
X56797194Y-73870716D03*
X60097194Y-73870716D03*
X60097194Y-68970716D03*
X56797194Y-68970716D03*
%TD*%
%TO.C,D176*%
X24297194Y-81070716D03*
X27597194Y-81070716D03*
X27597194Y-76170716D03*
X24297194Y-76170716D03*
%TD*%
%TO.C,D203*%
X43797194Y-92270716D03*
X47097194Y-92270716D03*
X47097194Y-87370716D03*
X43797194Y-87370716D03*
%TD*%
D10*
%TO.C,C190*%
X35699567Y-81124779D03*
X35699567Y-80164779D03*
%TD*%
%TO.C,C52*%
X74699567Y-37924779D03*
X74699567Y-36964779D03*
%TD*%
%TO.C,C258*%
X165699567Y-99524779D03*
X165699567Y-98564779D03*
%TD*%
%TO.C,C388*%
X74699567Y-142724779D03*
X74699567Y-141764779D03*
%TD*%
D11*
%TO.C,D355*%
X95797194Y-135470716D03*
X99097194Y-135470716D03*
X99097194Y-130570716D03*
X95797194Y-130570716D03*
%TD*%
%TO.C,D188*%
X102297194Y-81070716D03*
X105597194Y-81070716D03*
X105597194Y-76170716D03*
X102297194Y-76170716D03*
%TD*%
D10*
%TO.C,C389*%
X81199567Y-142724779D03*
X81199567Y-141764779D03*
%TD*%
D11*
%TO.C,D267*%
X147797194Y-106670716D03*
X151097194Y-106670716D03*
X151097194Y-101770716D03*
X147797194Y-101770716D03*
%TD*%
%TO.C,D258*%
X89297194Y-106670716D03*
X92597194Y-106670716D03*
X92597194Y-101770716D03*
X89297194Y-101770716D03*
%TD*%
%TO.C,D332*%
X102297194Y-128270716D03*
X105597194Y-128270716D03*
X105597194Y-123370716D03*
X102297194Y-123370716D03*
%TD*%
%TO.C,D25*%
X134797194Y-30670716D03*
X138097194Y-30670716D03*
X138097194Y-25770716D03*
X134797194Y-25770716D03*
%TD*%
D10*
%TO.C,C187*%
X16199567Y-81124779D03*
X16199567Y-80164779D03*
%TD*%
%TO.C,C219*%
X68199567Y-92324779D03*
X68199567Y-91364779D03*
%TD*%
%TO.C,C286*%
X35699567Y-113924779D03*
X35699567Y-112964779D03*
%TD*%
D11*
%TO.C,D369*%
X30797194Y-142670716D03*
X34097194Y-142670716D03*
X34097194Y-137770716D03*
X30797194Y-137770716D03*
%TD*%
%TO.C,D98*%
X141297194Y-52270716D03*
X144597194Y-52270716D03*
X144597194Y-47370716D03*
X141297194Y-47370716D03*
%TD*%
%TO.C,D364*%
X154297194Y-135470716D03*
X157597194Y-135470716D03*
X157597194Y-130570716D03*
X154297194Y-130570716D03*
%TD*%
D10*
%TO.C,C293*%
X81199567Y-113924779D03*
X81199567Y-112964779D03*
%TD*%
D11*
%TO.C,D97*%
X134797194Y-52270716D03*
X138097194Y-52270716D03*
X138097194Y-47370716D03*
X134797194Y-47370716D03*
%TD*%
D10*
%TO.C,C166*%
X35699567Y-73924779D03*
X35699567Y-72964779D03*
%TD*%
D11*
%TO.C,D227*%
X43797194Y-99470716D03*
X47097194Y-99470716D03*
X47097194Y-94570716D03*
X43797194Y-94570716D03*
%TD*%
D10*
%TO.C,C100*%
X74699567Y-52324779D03*
X74699567Y-51364779D03*
%TD*%
%TO.C,C285*%
X29199567Y-113924779D03*
X29199567Y-112964779D03*
%TD*%
D11*
%TO.C,D286*%
X115297194Y-113870716D03*
X118597194Y-113870716D03*
X118597194Y-108970716D03*
X115297194Y-108970716D03*
%TD*%
%TO.C,D374*%
X63297194Y-142670716D03*
X66597194Y-142670716D03*
X66597194Y-137770716D03*
X63297194Y-137770716D03*
%TD*%
%TO.C,D304*%
X76297194Y-121070716D03*
X79597194Y-121070716D03*
X79597194Y-116170716D03*
X76297194Y-116170716D03*
%TD*%
%TO.C,D238*%
X115297194Y-99470716D03*
X118597194Y-99470716D03*
X118597194Y-94570716D03*
X115297194Y-94570716D03*
%TD*%
%TO.C,D184*%
X76297194Y-81070716D03*
X79597194Y-81070716D03*
X79597194Y-76170716D03*
X76297194Y-76170716D03*
%TD*%
%TO.C,D140*%
X102297194Y-66670716D03*
X105597194Y-66670716D03*
X105597194Y-61770716D03*
X102297194Y-61770716D03*
%TD*%
D10*
%TO.C,C358*%
X35699567Y-135524779D03*
X35699567Y-134564779D03*
%TD*%
D11*
%TO.C,D254*%
X63297194Y-106670716D03*
X66597194Y-106670716D03*
X66597194Y-101770716D03*
X63297194Y-101770716D03*
%TD*%
D10*
%TO.C,C86*%
X139699567Y-45124779D03*
X139699567Y-44164779D03*
%TD*%
%TO.C,C194*%
X61699567Y-81124779D03*
X61699567Y-80164779D03*
%TD*%
D11*
%TO.C,D291*%
X147797194Y-113870716D03*
X151097194Y-113870716D03*
X151097194Y-108970716D03*
X147797194Y-108970716D03*
%TD*%
%TO.C,D309*%
X108797194Y-121070716D03*
X112097194Y-121070716D03*
X112097194Y-116170716D03*
X108797194Y-116170716D03*
%TD*%
D10*
%TO.C,C67*%
X16199567Y-45124779D03*
X16199567Y-44164779D03*
%TD*%
%TO.C,C39*%
X146199567Y-30724779D03*
X146199567Y-29764779D03*
%TD*%
%TO.C,C89*%
X159199567Y-45124779D03*
X159199567Y-44164779D03*
%TD*%
%TO.C,C205*%
X133199567Y-81124779D03*
X133199567Y-80164779D03*
%TD*%
D11*
%TO.C,D360*%
X128297194Y-135470716D03*
X131597194Y-135470716D03*
X131597194Y-130570716D03*
X128297194Y-130570716D03*
%TD*%
D10*
%TO.C,C44*%
X22699567Y-37924779D03*
X22699567Y-36964779D03*
%TD*%
D11*
%TO.C,D366*%
X167297194Y-135470716D03*
X170597194Y-135470716D03*
X170597194Y-130570716D03*
X167297194Y-130570716D03*
%TD*%
%TO.C,D39*%
X69797194Y-37870716D03*
X73097194Y-37870716D03*
X73097194Y-32970716D03*
X69797194Y-32970716D03*
%TD*%
D10*
%TO.C,C396*%
X126699567Y-142724779D03*
X126699567Y-141764779D03*
%TD*%
%TO.C,C332*%
X22699567Y-128324779D03*
X22699567Y-127364779D03*
%TD*%
D11*
%TO.C,D183*%
X69797194Y-81070716D03*
X73097194Y-81070716D03*
X73097194Y-76170716D03*
X69797194Y-76170716D03*
%TD*%
D10*
%TO.C,C270*%
X87699567Y-106724779D03*
X87699567Y-105764779D03*
%TD*%
%TO.C,C150*%
X87699567Y-66724779D03*
X87699567Y-65764779D03*
%TD*%
%TO.C,C377*%
X159199567Y-135524779D03*
X159199567Y-134564779D03*
%TD*%
D11*
%TO.C,D62*%
X63297194Y-45070716D03*
X66597194Y-45070716D03*
X66597194Y-40170716D03*
X63297194Y-40170716D03*
%TD*%
D10*
%TO.C,C234*%
X165699567Y-92324779D03*
X165699567Y-91364779D03*
%TD*%
%TO.C,C378*%
X165699567Y-135524779D03*
X165699567Y-134564779D03*
%TD*%
%TO.C,C246*%
X87699567Y-99524779D03*
X87699567Y-98564779D03*
%TD*%
%TO.C,C266*%
X61699567Y-106724779D03*
X61699567Y-105764779D03*
%TD*%
%TO.C,C249*%
X107199567Y-99524779D03*
X107199567Y-98564779D03*
%TD*%
D11*
%TO.C,D115*%
X95797194Y-59470716D03*
X99097194Y-59470716D03*
X99097194Y-54570716D03*
X95797194Y-54570716D03*
%TD*%
%TO.C,D372*%
X50297194Y-142670716D03*
X53597194Y-142670716D03*
X53597194Y-137770716D03*
X50297194Y-137770716D03*
%TD*%
D15*
%TO.C,LED1*%
X151673000Y-85125000D03*
X151673000Y-84175000D03*
X151673000Y-83175000D03*
X148773000Y-83175000D03*
X148773000Y-84175000D03*
X148773000Y-85125000D03*
%TD*%
D11*
%TO.C,D210*%
X89297194Y-92270716D03*
X92597194Y-92270716D03*
X92597194Y-87370716D03*
X89297194Y-87370716D03*
%TD*%
%TO.C,D127*%
X17797194Y-66670716D03*
X21097194Y-66670716D03*
X21097194Y-61770716D03*
X17797194Y-61770716D03*
%TD*%
D10*
%TO.C,C48*%
X48699567Y-37924779D03*
X48699567Y-36964779D03*
%TD*%
%TO.C,C66*%
X165699567Y-37924779D03*
X165699567Y-36964779D03*
%TD*%
%TO.C,C373*%
X133199567Y-135524779D03*
X133199567Y-134564779D03*
%TD*%
%TO.C,C365*%
X81199567Y-135524779D03*
X81199567Y-134564779D03*
%TD*%
%TO.C,C296*%
X100699567Y-113924779D03*
X100699567Y-112964779D03*
%TD*%
%TO.C,C337*%
X55199567Y-128324779D03*
X55199567Y-127364779D03*
%TD*%
D11*
%TO.C,D348*%
X50297194Y-135470716D03*
X53597194Y-135470716D03*
X53597194Y-130570716D03*
X50297194Y-130570716D03*
%TD*%
D10*
%TO.C,C142*%
X35699567Y-66724779D03*
X35699567Y-65764779D03*
%TD*%
D11*
%TO.C,D340*%
X154297194Y-128270716D03*
X157597194Y-128270716D03*
X157597194Y-123370716D03*
X154297194Y-123370716D03*
%TD*%
%TO.C,D307*%
X95797194Y-121070716D03*
X99097194Y-121070716D03*
X99097194Y-116170716D03*
X95797194Y-116170716D03*
%TD*%
D10*
%TO.C,C178*%
X113699567Y-73924779D03*
X113699567Y-72964779D03*
%TD*%
D11*
%TO.C,D207*%
X69797194Y-92270716D03*
X73097194Y-92270716D03*
X73097194Y-87370716D03*
X69797194Y-87370716D03*
%TD*%
D10*
%TO.C,C250*%
X113699567Y-99524779D03*
X113699567Y-98564779D03*
%TD*%
%TO.C,C130*%
X113699567Y-59524779D03*
X113699567Y-58564779D03*
%TD*%
%TO.C,C57*%
X107199567Y-37924779D03*
X107199567Y-36964779D03*
%TD*%
%TO.C,C363*%
X68199567Y-135524779D03*
X68199567Y-134564779D03*
%TD*%
%TO.C,C69*%
X29199567Y-45124779D03*
X29199567Y-44164779D03*
%TD*%
%TO.C,C197*%
X81199567Y-81124779D03*
X81199567Y-80164779D03*
%TD*%
D11*
%TO.C,D100*%
X154297194Y-52270716D03*
X157597194Y-52270716D03*
X157597194Y-47370716D03*
X154297194Y-47370716D03*
%TD*%
%TO.C,D329*%
X82797194Y-128270716D03*
X86097194Y-128270716D03*
X86097194Y-123370716D03*
X82797194Y-123370716D03*
%TD*%
%TO.C,D241*%
X134797194Y-99470716D03*
X138097194Y-99470716D03*
X138097194Y-94570716D03*
X134797194Y-94570716D03*
%TD*%
D10*
%TO.C,C318*%
X87699567Y-121124779D03*
X87699567Y-120164779D03*
%TD*%
%TO.C,C281*%
X159199567Y-106724779D03*
X159199567Y-105764779D03*
%TD*%
D11*
%TO.C,D164*%
X102297194Y-73870716D03*
X105597194Y-73870716D03*
X105597194Y-68970716D03*
X102297194Y-68970716D03*
%TD*%
D10*
%TO.C,C46*%
X35699567Y-37924779D03*
X35699567Y-36964779D03*
%TD*%
%TO.C,C128*%
X100699567Y-59524779D03*
X100699567Y-58564779D03*
%TD*%
%TO.C,C96*%
X48699567Y-52324779D03*
X48699567Y-51364779D03*
%TD*%
D11*
%TO.C,D231*%
X69797194Y-99470716D03*
X73097194Y-99470716D03*
X73097194Y-94570716D03*
X69797194Y-94570716D03*
%TD*%
D10*
%TO.C,C24*%
X48699567Y-30724779D03*
X48699567Y-29764779D03*
%TD*%
%TO.C,C368*%
X100699567Y-135524779D03*
X100699567Y-134564779D03*
%TD*%
%TO.C,C103*%
X94199567Y-52324779D03*
X94199567Y-51364779D03*
%TD*%
D11*
%TO.C,D95*%
X121797194Y-52270716D03*
X125097194Y-52270716D03*
X125097194Y-47370716D03*
X121797194Y-47370716D03*
%TD*%
%TO.C,D305*%
X82797194Y-121070716D03*
X86097194Y-121070716D03*
X86097194Y-116170716D03*
X82797194Y-116170716D03*
%TD*%
D10*
%TO.C,C119*%
X42199567Y-59524779D03*
X42199567Y-58564779D03*
%TD*%
D11*
%TO.C,D252*%
X50297194Y-106670716D03*
X53597194Y-106670716D03*
X53597194Y-101770716D03*
X50297194Y-101770716D03*
%TD*%
D10*
%TO.C,C135*%
X146199567Y-59524779D03*
X146199567Y-58564779D03*
%TD*%
D11*
%TO.C,D264*%
X128297194Y-106670716D03*
X131597194Y-106670716D03*
X131597194Y-101770716D03*
X128297194Y-101770716D03*
%TD*%
D10*
%TO.C,C331*%
X16199567Y-128324779D03*
X16199567Y-127364779D03*
%TD*%
%TO.C,C56*%
X100699567Y-37924779D03*
X100699567Y-36964779D03*
%TD*%
%TO.C,C231*%
X146199567Y-92324779D03*
X146199567Y-91364779D03*
%TD*%
D11*
%TO.C,D130*%
X37297194Y-66670716D03*
X40597194Y-66670716D03*
X40597194Y-61770716D03*
X37297194Y-61770716D03*
%TD*%
%TO.C,D352*%
X76297194Y-135470716D03*
X79597194Y-135470716D03*
X79597194Y-130570716D03*
X76297194Y-130570716D03*
%TD*%
%TO.C,D80*%
X24297194Y-52270716D03*
X27597194Y-52270716D03*
X27597194Y-47370716D03*
X24297194Y-47370716D03*
%TD*%
%TO.C,D358*%
X115297194Y-135470716D03*
X118597194Y-135470716D03*
X118597194Y-130570716D03*
X115297194Y-130570716D03*
%TD*%
D10*
%TO.C,C269*%
X81199567Y-106724779D03*
X81199567Y-105764779D03*
%TD*%
%TO.C,C242*%
X61699567Y-99524779D03*
X61699567Y-98564779D03*
%TD*%
D11*
%TO.C,D337*%
X134797194Y-128270716D03*
X138097194Y-128270716D03*
X138097194Y-123370716D03*
X134797194Y-123370716D03*
%TD*%
D10*
%TO.C,C364*%
X74699567Y-135524779D03*
X74699567Y-134564779D03*
%TD*%
D11*
%TO.C,D106*%
X37297194Y-59470716D03*
X40597194Y-59470716D03*
X40597194Y-54570716D03*
X37297194Y-54570716D03*
%TD*%
%TO.C,D379*%
X95797194Y-142670716D03*
X99097194Y-142670716D03*
X99097194Y-137770716D03*
X95797194Y-137770716D03*
%TD*%
%TO.C,D17*%
X82797194Y-30670716D03*
X86097194Y-30670716D03*
X86097194Y-25770716D03*
X82797194Y-25770716D03*
%TD*%
%TO.C,D218*%
X141297194Y-92270716D03*
X144597194Y-92270716D03*
X144597194Y-87370716D03*
X141297194Y-87370716D03*
%TD*%
D10*
%TO.C,C362*%
X61699567Y-135524779D03*
X61699567Y-134564779D03*
%TD*%
%TO.C,C283*%
X16199567Y-113924779D03*
X16199567Y-112964779D03*
%TD*%
D11*
%TO.C,D58*%
X37297194Y-45070716D03*
X40597194Y-45070716D03*
X40597194Y-40170716D03*
X37297194Y-40170716D03*
%TD*%
%TO.C,D20*%
X102297194Y-30670716D03*
X105597194Y-30670716D03*
X105597194Y-25770716D03*
X102297194Y-25770716D03*
%TD*%
%TO.C,D93*%
X108797194Y-52270716D03*
X112097194Y-52270716D03*
X112097194Y-47370716D03*
X108797194Y-47370716D03*
%TD*%
%TO.C,D19*%
X95797194Y-30670716D03*
X99097194Y-30670716D03*
X99097194Y-25770716D03*
X95797194Y-25770716D03*
%TD*%
D10*
%TO.C,C26*%
X61699567Y-30724779D03*
X61699567Y-29764779D03*
%TD*%
%TO.C,C70*%
X35699567Y-45124779D03*
X35699567Y-44164779D03*
%TD*%
%TO.C,C114*%
X165699567Y-52324779D03*
X165699567Y-51364779D03*
%TD*%
D11*
%TO.C,D236*%
X102297194Y-99470716D03*
X105597194Y-99470716D03*
X105597194Y-94570716D03*
X102297194Y-94570716D03*
%TD*%
D10*
%TO.C,C324*%
X126699567Y-121124779D03*
X126699567Y-120164779D03*
%TD*%
%TO.C,C325*%
X133199567Y-121124779D03*
X133199567Y-120164779D03*
%TD*%
%TO.C,C349*%
X133199567Y-128324779D03*
X133199567Y-127364779D03*
%TD*%
%TO.C,C268*%
X74699567Y-106724779D03*
X74699567Y-105764779D03*
%TD*%
%TO.C,C312*%
X48699567Y-121124779D03*
X48699567Y-120164779D03*
%TD*%
D11*
%TO.C,D102*%
X167297194Y-52270716D03*
X170597194Y-52270716D03*
X170597194Y-47370716D03*
X167297194Y-47370716D03*
%TD*%
D10*
%TO.C,C99*%
X68199567Y-52324779D03*
X68199567Y-51364779D03*
%TD*%
D11*
%TO.C,D26*%
X141297194Y-30670716D03*
X144597194Y-30670716D03*
X144597194Y-25770716D03*
X141297194Y-25770716D03*
%TD*%
%TO.C,D301*%
X56797194Y-121070716D03*
X60097194Y-121070716D03*
X60097194Y-116170716D03*
X56797194Y-116170716D03*
%TD*%
D10*
%TO.C,C152*%
X100699567Y-66724779D03*
X100699567Y-65764779D03*
%TD*%
%TO.C,C189*%
X29199567Y-81124779D03*
X29199567Y-80164779D03*
%TD*%
%TO.C,C63*%
X146199567Y-37924779D03*
X146199567Y-36964779D03*
%TD*%
%TO.C,C188*%
X22699567Y-81124779D03*
X22699567Y-80164779D03*
%TD*%
D11*
%TO.C,D249*%
X30797194Y-106670716D03*
X34097194Y-106670716D03*
X34097194Y-101770716D03*
X30797194Y-101770716D03*
%TD*%
D10*
%TO.C,C241*%
X55199567Y-99524779D03*
X55199567Y-98564779D03*
%TD*%
%TO.C,C391*%
X94199567Y-142724779D03*
X94199567Y-141764779D03*
%TD*%
D11*
%TO.C,D343*%
X17797194Y-135470716D03*
X21097194Y-135470716D03*
X21097194Y-130570716D03*
X17797194Y-130570716D03*
%TD*%
%TO.C,D152*%
X24297194Y-73870716D03*
X27597194Y-73870716D03*
X27597194Y-68970716D03*
X24297194Y-68970716D03*
%TD*%
D16*
%TO.C,J4*%
X23520400Y-85496400D03*
X38520400Y-85496400D03*
D17*
X26520400Y-83536400D03*
D18*
X29520400Y-83536400D03*
X32520400Y-83536400D03*
X35520400Y-83536400D03*
%TD*%
D16*
%TO.C,J6*%
X43205400Y-85471000D03*
X58205400Y-85471000D03*
D17*
X46205400Y-83511000D03*
D18*
X49205400Y-83511000D03*
X52205400Y-83511000D03*
X55205400Y-83511000D03*
%TD*%
M02*
